<svg xmlns="http://www.w3.org/2000/svg" width="32" height="32" viewBox="0 0 32 32" shape-rendering="crispEdges">
<rect x="12" y="5" width="1" height="1" fill="#486a8b"/>
<rect x="13" y="5" width="4" height="1" fill="#47698b"/>
<rect x="17" y="5" width="1" height="1" fill="#5a7793"/>
<rect x="11" y="6" width="1" height="1" fill="#557391"/>
<rect x="12" y="6" width="5" height="1" fill="#224e7a"/>
<rect x="17" y="6" width="1" height="1" fill="#3b6085"/>
<rect x="10" y="7" width="1" height="1" fill="#8596a6"/>
<rect x="11" y="7" width="6" height="1" fill="#224e7a"/>
<rect x="17" y="7" width="1" height="1" fill="#385e84"/>
<rect x="3" y="8" width="1" height="1" fill="#3c6289"/>
<rect x="4" y="8" width="24" height="1" fill="#224e7a"/>
<rect x="28" y="8" width="1" height="1" fill="#8998a8"/>
<rect x="3" y="9" width="1" height="1" fill="#3c6289"/>
<rect x="4" y="9" width="1" height="1" fill="#385e84"/>
<rect x="5" y="9" width="5" height="1" fill="#6a829a"/>
<rect x="10" y="9" width="1" height="1" fill="#547291"/>
<rect x="11" y="9" width="6" height="1" fill="#224e7a"/>
<rect x="17" y="9" width="1" height="1" fill="#2d567f"/>
<rect x="18" y="9" width="8" height="1" fill="#6a829a"/>
<rect x="26" y="9" width="1" height="1" fill="#537190"/>
<rect x="27" y="9" width="1" height="1" fill="#224e7a"/>
<rect x="28" y="9" width="1" height="1" fill="#8998a8"/>
<rect x="3" y="10" width="1" height="1" fill="#3c6289"/>
<rect x="4" y="10" width="1" height="1" fill="#537190"/>
<rect x="5" y="10" width="6" height="1" fill="#c0c0c0"/>
<rect x="11" y="10" width="1" height="1" fill="#547290"/>
<rect x="12" y="10" width="5" height="1" fill="#224e7a"/>
<rect x="17" y="10" width="1" height="1" fill="#3b6085"/>
<rect x="18" y="10" width="8" height="1" fill="#c0c0c0"/>
<rect x="26" y="10" width="1" height="1" fill="#8e9caa"/>
<rect x="27" y="10" width="1" height="1" fill="#224e7a"/>
<rect x="28" y="10" width="1" height="1" fill="#8998a8"/>
<rect x="3" y="11" width="1" height="1" fill="#3c6289"/>
<rect x="4" y="11" width="1" height="1" fill="#537190"/>
<rect x="5" y="11" width="6" height="1" fill="#c0c0c0"/>
<rect x="11" y="11" width="1" height="1" fill="#aeb3b8"/>
<rect x="12" y="11" width="1" height="1" fill="#46688a"/>
<rect x="13" y="11" width="4" height="1" fill="#446789"/>
<rect x="17" y="11" width="1" height="1" fill="#587592"/>
<rect x="18" y="11" width="8" height="1" fill="#c0c0c0"/>
<rect x="26" y="11" width="1" height="1" fill="#8e9caa"/>
<rect x="27" y="11" width="1" height="1" fill="#224e7a"/>
<rect x="28" y="11" width="1" height="1" fill="#8998a8"/>
<rect x="3" y="12" width="1" height="1" fill="#3c6289"/>
<rect x="4" y="12" width="1" height="1" fill="#537190"/>
<rect x="5" y="12" width="21" height="1" fill="#c0c0c0"/>
<rect x="26" y="12" width="1" height="1" fill="#8e9caa"/>
<rect x="27" y="12" width="1" height="1" fill="#224e7a"/>
<rect x="28" y="12" width="1" height="1" fill="#8998a8"/>
<rect x="3" y="13" width="1" height="1" fill="#3c6289"/>
<rect x="4" y="13" width="1" height="1" fill="#537190"/>
<rect x="5" y="13" width="21" height="1" fill="#c0c0c0"/>
<rect x="26" y="13" width="1" height="1" fill="#8e9caa"/>
<rect x="27" y="13" width="1" height="1" fill="#224e7a"/>
<rect x="28" y="13" width="1" height="1" fill="#8998a8"/>
<rect x="3" y="14" width="1" height="1" fill="#3c6289"/>
<rect x="4" y="14" width="1" height="1" fill="#537190"/>
<rect x="5" y="14" width="21" height="1" fill="#c0c0c0"/>
<rect x="26" y="14" width="1" height="1" fill="#8e9caa"/>
<rect x="27" y="14" width="1" height="1" fill="#224e7a"/>
<rect x="28" y="14" width="1" height="1" fill="#8998a8"/>
<rect x="3" y="15" width="1" height="1" fill="#3c6289"/>
<rect x="4" y="15" width="1" height="1" fill="#537190"/>
<rect x="5" y="15" width="1" height="1" fill="#c0c0c0"/>
<rect x="6" y="15" width="1" height="1" fill="#aab1b7"/>
<rect x="7" y="15" width="14" height="1" fill="#24507b"/>
<rect x="21" y="15" width="1" height="1" fill="#2d567f"/>
<rect x="22" y="15" width="1" height="1" fill="#b2b6ba"/>
<rect x="23" y="15" width="3" height="1" fill="#c0c0c0"/>
<rect x="26" y="15" width="1" height="1" fill="#8e9caa"/>
<rect x="27" y="15" width="1" height="1" fill="#224e7a"/>
<rect x="28" y="15" width="1" height="1" fill="#8998a8"/>
<rect x="3" y="16" width="1" height="1" fill="#3c6289"/>
<rect x="4" y="16" width="1" height="1" fill="#537190"/>
<rect x="5" y="16" width="1" height="1" fill="#c0c0c0"/>
<rect x="6" y="16" width="1" height="1" fill="#aab0b6"/>
<rect x="7" y="16" width="15" height="1" fill="#224e7a"/>
<rect x="22" y="16" width="1" height="1" fill="#5a7693"/>
<rect x="23" y="16" width="3" height="1" fill="#c0c0c0"/>
<rect x="26" y="16" width="1" height="1" fill="#8e9caa"/>
<rect x="27" y="16" width="1" height="1" fill="#224e7a"/>
<rect x="28" y="16" width="1" height="1" fill="#8998a8"/>
<rect x="3" y="17" width="1" height="1" fill="#3c6289"/>
<rect x="4" y="17" width="1" height="1" fill="#537190"/>
<rect x="5" y="17" width="1" height="1" fill="#c0c0c0"/>
<rect x="6" y="17" width="1" height="1" fill="#aab0b6"/>
<rect x="7" y="17" width="16" height="1" fill="#224e7a"/>
<rect x="23" y="17" width="1" height="1" fill="#97a2ae"/>
<rect x="24" y="17" width="2" height="1" fill="#c0c0c0"/>
<rect x="26" y="17" width="1" height="1" fill="#8e9caa"/>
<rect x="27" y="17" width="1" height="1" fill="#224e7a"/>
<rect x="28" y="17" width="1" height="1" fill="#8998a8"/>
<rect x="3" y="18" width="1" height="1" fill="#3c6289"/>
<rect x="4" y="18" width="1" height="1" fill="#537190"/>
<rect x="5" y="18" width="1" height="1" fill="#c0c0c0"/>
<rect x="6" y="18" width="1" height="1" fill="#aab0b6"/>
<rect x="7" y="18" width="16" height="1" fill="#224e7a"/>
<rect x="23" y="18" width="1" height="1" fill="#395e84"/>
<rect x="24" y="18" width="1" height="1" fill="#bbbdbe"/>
<rect x="25" y="18" width="1" height="1" fill="#c0c0c0"/>
<rect x="26" y="18" width="1" height="1" fill="#8e9caa"/>
<rect x="27" y="18" width="1" height="1" fill="#224e7a"/>
<rect x="28" y="18" width="1" height="1" fill="#8998a8"/>
<rect x="3" y="19" width="1" height="1" fill="#3c6289"/>
<rect x="4" y="19" width="1" height="1" fill="#537190"/>
<rect x="5" y="19" width="1" height="1" fill="#c0c0c0"/>
<rect x="6" y="19" width="1" height="1" fill="#aab0b6"/>
<rect x="7" y="19" width="17" height="1" fill="#224e7a"/>
<rect x="24" y="19" width="1" height="1" fill="#71879d"/>
<rect x="25" y="19" width="1" height="1" fill="#c0c0c0"/>
<rect x="26" y="19" width="1" height="1" fill="#8e9caa"/>
<rect x="27" y="19" width="1" height="1" fill="#224e7a"/>
<rect x="28" y="19" width="1" height="1" fill="#8998a8"/>
<rect x="2" y="20" width="1" height="1" fill="#8b9fb4"/>
<rect x="3" y="20" width="1" height="1" fill="#3a6188"/>
<rect x="4" y="20" width="1" height="1" fill="#2d567f"/>
<rect x="5" y="20" width="1" height="1" fill="#47698b"/>
<rect x="6" y="20" width="1" height="1" fill="#426589"/>
<rect x="7" y="20" width="17" height="1" fill="#224e7a"/>
<rect x="24" y="20" width="1" height="1" fill="#234f7b"/>
<rect x="25" y="20" width="1" height="1" fill="#416589"/>
<rect x="26" y="20" width="1" height="1" fill="#3b6085"/>
<rect x="27" y="20" width="1" height="1" fill="#224e7a"/>
<rect x="28" y="20" width="1" height="1" fill="#3a5f85"/>
<rect x="29" y="20" width="1" height="1" fill="#7a91a8"/>
<rect x="30" y="20" width="1" height="1" fill="#dddddd"/>
<rect x="2" y="21" width="1" height="1" fill="#839ab2"/>
<rect x="3" y="21" width="1" height="1" fill="#486a8e"/>
<rect x="4" y="21" width="2" height="1" fill="#335a82"/>
<rect x="6" y="21" width="1" height="1" fill="#305881"/>
<rect x="7" y="21" width="18" height="1" fill="#224e7a"/>
<rect x="25" y="21" width="1" height="1" fill="#2f5780"/>
<rect x="26" y="21" width="3" height="1" fill="#335a82"/>
<rect x="29" y="21" width="1" height="1" fill="#6e8aa5"/>
<rect x="30" y="21" width="1" height="1" fill="#e0e0e0"/>
<rect x="7" y="22" width="17" height="1" fill="#224e7a"/>
<rect x="24" y="22" width="1" height="1" fill="#647e97"/>
<rect x="7" y="23" width="16" height="1" fill="#224e7a"/>
<rect x="23" y="23" width="1" height="1" fill="#315981"/>
<rect x="7" y="24" width="16" height="1" fill="#224e7a"/>
<rect x="23" y="24" width="1" height="1" fill="#8a99a8"/>
<rect x="7" y="25" width="15" height="1" fill="#224e7a"/>
<rect x="22" y="25" width="1" height="1" fill="#4e6e8e"/>
<rect x="7" y="26" width="14" height="1" fill="#224e7a"/>
<rect x="21" y="26" width="1" height="1" fill="#27527c"/>
</svg>