<svg xmlns="http://www.w3.org/2000/svg" width="32" height="32" viewBox="0 0 32 32" shape-rendering="crispEdges">
<rect x="17" y="1" width="1" height="1" fill="#627d97"/>
<rect x="18" y="1" width="1" height="1" fill="#9aa4af"/>
<rect x="15" y="2" width="1" height="1" fill="#929fac"/>
<rect x="16" y="2" width="1" height="1" fill="#2a547e"/>
<rect x="17" y="2" width="2" height="1" fill="#224e7a"/>
<rect x="19" y="2" width="1" height="1" fill="#51708f"/>
<rect x="14" y="3" width="1" height="1" fill="#496b8c"/>
<rect x="15" y="3" width="5" height="1" fill="#224e7a"/>
<rect x="20" y="3" width="1" height="1" fill="#28527d"/>
<rect x="21" y="3" width="1" height="1" fill="#8898a7"/>
<rect x="12" y="4" width="1" height="1" fill="#7f91a3"/>
<rect x="13" y="4" width="1" height="1" fill="#26517c"/>
<rect x="14" y="4" width="8" height="1" fill="#224e7a"/>
<rect x="22" y="4" width="1" height="1" fill="#436689"/>
<rect x="10" y="5" width="1" height="1" fill="#7d90a2"/>
<rect x="11" y="5" width="1" height="1" fill="#25507b"/>
<rect x="12" y="5" width="11" height="1" fill="#224e7a"/>
<rect x="23" y="5" width="1" height="1" fill="#375d84"/>
<rect x="10" y="6" width="1" height="1" fill="#7f91a3"/>
<rect x="11" y="6" width="1" height="1" fill="#446689"/>
<rect x="12" y="6" width="1" height="1" fill="#224e7a"/>
<rect x="13" y="6" width="1" height="1" fill="#2c557f"/>
<rect x="14" y="6" width="7" height="1" fill="#224e7a"/>
<rect x="21" y="6" width="1" height="1" fill="#234f7a"/>
<rect x="22" y="6" width="1" height="1" fill="#3c6186"/>
<rect x="23" y="6" width="1" height="1" fill="#224e7a"/>
<rect x="10" y="7" width="1" height="1" fill="#7d90a2"/>
<rect x="11" y="7" width="1" height="1" fill="#25507b"/>
<rect x="12" y="7" width="1" height="1" fill="#bcbcbe"/>
<rect x="13" y="7" width="1" height="1" fill="#2f5880"/>
<rect x="14" y="7" width="1" height="1" fill="#315981"/>
<rect x="15" y="7" width="1" height="1" fill="#244f7b"/>
<rect x="16" y="7" width="4" height="1" fill="#224e7a"/>
<rect x="20" y="7" width="1" height="1" fill="#335a81"/>
<rect x="21" y="7" width="1" height="1" fill="#2d567f"/>
<rect x="22" y="7" width="1" height="1" fill="#224e7a"/>
<rect x="23" y="7" width="1" height="1" fill="#234f7b"/>
<rect x="10" y="8" width="1" height="1" fill="#8294a5"/>
<rect x="11" y="8" width="1" height="1" fill="#647e97"/>
<rect x="12" y="8" width="1" height="1" fill="#47698b"/>
<rect x="13" y="8" width="1" height="1" fill="#547291"/>
<rect x="14" y="8" width="1" height="1" fill="#486a8b"/>
<rect x="15" y="8" width="1" height="1" fill="#224e7a"/>
<rect x="16" y="8" width="1" height="1" fill="#335a82"/>
<rect x="17" y="8" width="1" height="1" fill="#224e7a"/>
<rect x="18" y="8" width="1" height="1" fill="#25507b"/>
<rect x="19" y="8" width="1" height="1" fill="#416489"/>
<rect x="20" y="8" width="2" height="1" fill="#224e7a"/>
<rect x="22" y="8" width="1" height="1" fill="#345b82"/>
<rect x="12" y="9" width="1" height="1" fill="#7a8ea2"/>
<rect x="13" y="9" width="1" height="1" fill="#224e7a"/>
<rect x="14" y="9" width="1" height="1" fill="#486a8c"/>
<rect x="15" y="9" width="1" height="1" fill="#b6babc"/>
<rect x="16" y="9" width="1" height="1" fill="#416488"/>
<rect x="17" y="9" width="1" height="1" fill="#3b6085"/>
<rect x="18" y="9" width="1" height="1" fill="#2c557f"/>
<rect x="19" y="9" width="1" height="1" fill="#224e7a"/>
<rect x="20" y="9" width="1" height="1" fill="#234f7a"/>
<rect x="21" y="9" width="1" height="1" fill="#688199"/>
<rect x="14" y="10" width="1" height="1" fill="#395f84"/>
<rect x="15" y="10" width="1" height="1" fill="#46688a"/>
<rect x="16" y="10" width="1" height="1" fill="#acb2b8"/>
<rect x="17" y="10" width="2" height="1" fill="#224e7a"/>
<rect x="19" y="10" width="1" height="1" fill="#305880"/>
<rect x="20" y="10" width="1" height="1" fill="#a4abb4"/>
<rect x="15" y="11" width="1" height="1" fill="#7a8ea2"/>
<rect x="16" y="11" width="2" height="1" fill="#224e7a"/>
<rect x="18" y="11" width="1" height="1" fill="#607a96"/>
<rect x="17" y="12" width="1" height="1" fill="#436589"/>
<rect x="17" y="13" width="1" height="1" fill="#2a547e"/>
<rect x="18" y="13" width="1" height="1" fill="#a7afb5"/>
<rect x="17" y="14" width="1" height="1" fill="#2a547e"/>
<rect x="18" y="14" width="1" height="1" fill="#a7afb5"/>
<rect x="6" y="15" width="11" height="1" fill="#a7afb5"/>
<rect x="17" y="15" width="1" height="1" fill="#29537d"/>
<rect x="18" y="15" width="1" height="1" fill="#92a0ac"/>
<rect x="19" y="15" width="9" height="1" fill="#a7afb5"/>
<rect x="28" y="15" width="1" height="1" fill="#95a2ad"/>
<rect x="6" y="16" width="1" height="1" fill="#5c7894"/>
<rect x="7" y="16" width="1" height="1" fill="#234f7a"/>
<rect x="8" y="16" width="9" height="1" fill="#2a547e"/>
<rect x="17" y="16" width="1" height="1" fill="#224e7a"/>
<rect x="18" y="16" width="1" height="1" fill="#28527d"/>
<rect x="19" y="16" width="8" height="1" fill="#2a547e"/>
<rect x="27" y="16" width="1" height="1" fill="#25507b"/>
<rect x="28" y="16" width="1" height="1" fill="#26517c"/>
<rect x="6" y="17" width="1" height="1" fill="#5d7994"/>
<rect x="7" y="17" width="1" height="1" fill="#617c97"/>
<rect x="17" y="17" width="1" height="1" fill="#2a547e"/>
<rect x="18" y="17" width="1" height="1" fill="#a7afb5"/>
<rect x="28" y="17" width="1" height="1" fill="#26517c"/>
<rect x="6" y="18" width="1" height="1" fill="#5d7994"/>
<rect x="7" y="18" width="1" height="1" fill="#617c97"/>
<rect x="17" y="18" width="1" height="1" fill="#2a547e"/>
<rect x="18" y="18" width="1" height="1" fill="#a7afb5"/>
<rect x="28" y="18" width="1" height="1" fill="#26517c"/>
<rect x="3" y="19" width="1" height="1" fill="#7e96ac"/>
<rect x="4" y="19" width="1" height="1" fill="#839cb5"/>
<rect x="5" y="19" width="1" height="1" fill="#98aec3"/>
<rect x="6" y="19" width="1" height="1" fill="#829fba"/>
<rect x="7" y="19" width="1" height="1" fill="#84a0bb"/>
<rect x="8" y="19" width="2" height="1" fill="#98aec3"/>
<rect x="10" y="19" width="1" height="1" fill="#9bafc3"/>
<rect x="13" y="19" width="1" height="1" fill="#6b87a2"/>
<rect x="14" y="19" width="1" height="1" fill="#64829f"/>
<rect x="15" y="19" width="1" height="1" fill="#6d8aa5"/>
<rect x="16" y="19" width="1" height="1" fill="#7792ac"/>
<rect x="17" y="19" width="1" height="1" fill="#7695b4"/>
<rect x="18" y="19" width="1" height="1" fill="#93abc1"/>
<rect x="19" y="19" width="2" height="1" fill="#98aec3"/>
<rect x="21" y="19" width="1" height="1" fill="#99aec3"/>
<rect x="25" y="19" width="1" height="1" fill="#a5aeb7"/>
<rect x="28" y="19" width="1" height="1" fill="#496e93"/>
<rect x="3" y="20" width="1" height="1" fill="#56799c"/>
<rect x="4" y="20" width="1" height="1" fill="#6889aa"/>
<rect x="5" y="20" width="1" height="1" fill="#7796b3"/>
<rect x="6" y="20" width="1" height="1" fill="#99b2c9"/>
<rect x="7" y="20" width="1" height="1" fill="#a3bad0"/>
<rect x="8" y="20" width="1" height="1" fill="#a9bfd3"/>
<rect x="9" y="20" width="1" height="1" fill="#b1c5d7"/>
<rect x="10" y="20" width="1" height="1" fill="#8daac5"/>
<rect x="13" y="20" width="1" height="1" fill="#396189"/>
<rect x="14" y="20" width="1" height="1" fill="#436b91"/>
<rect x="15" y="20" width="1" height="1" fill="#476e94"/>
<rect x="16" y="20" width="1" height="1" fill="#51769a"/>
<rect x="17" y="20" width="1" height="1" fill="#5e81a4"/>
<rect x="18" y="20" width="1" height="1" fill="#91adc7"/>
<rect x="19" y="20" width="1" height="1" fill="#93afc8"/>
<rect x="20" y="20" width="1" height="1" fill="#91adc8"/>
<rect x="21" y="20" width="1" height="1" fill="#8ba8c4"/>
<rect x="24" y="20" width="1" height="1" fill="#768ea5"/>
<rect x="25" y="20" width="1" height="1" fill="#52779b"/>
<rect x="26" y="20" width="1" height="1" fill="#597da0"/>
<rect x="27" y="20" width="1" height="1" fill="#6184a6"/>
<rect x="28" y="20" width="1" height="1" fill="#7998b6"/>
<rect x="29" y="20" width="1" height="1" fill="#98b2cb"/>
<rect x="30" y="20" width="1" height="1" fill="#9fb7cf"/>
<rect x="31" y="20" width="1" height="1" fill="#8facc7"/>
<rect x="3" y="21" width="1" height="1" fill="#4f7397"/>
<rect x="4" y="21" width="1" height="1" fill="#7392b1"/>
<rect x="5" y="21" width="1" height="1" fill="#7b99b6"/>
<rect x="6" y="21" width="1" height="1" fill="#88a3bd"/>
<rect x="7" y="21" width="1" height="1" fill="#9eb4cb"/>
<rect x="8" y="21" width="1" height="1" fill="#afc3d6"/>
<rect x="9" y="21" width="1" height="1" fill="#bfcfde"/>
<rect x="10" y="21" width="1" height="1" fill="#8eabc5"/>
<rect x="13" y="21" width="1" height="1" fill="#2d5881"/>
<rect x="14" y="21" width="1" height="1" fill="#51779b"/>
<rect x="15" y="21" width="1" height="1" fill="#6d8dad"/>
<rect x="16" y="21" width="1" height="1" fill="#7493b1"/>
<rect x="17" y="21" width="1" height="1" fill="#86a1bb"/>
<rect x="18" y="21" width="1" height="1" fill="#9ab1c7"/>
<rect x="19" y="21" width="1" height="1" fill="#c2d1df"/>
<rect x="20" y="21" width="1" height="1" fill="#bbccdd"/>
<rect x="21" y="21" width="1" height="1" fill="#8ba8c4"/>
<rect x="24" y="21" width="1" height="1" fill="#728aa2"/>
<rect x="25" y="21" width="1" height="1" fill="#5f82a5"/>
<rect x="26" y="21" width="1" height="1" fill="#6b8cad"/>
<rect x="27" y="21" width="1" height="1" fill="#7593b2"/>
<rect x="28" y="21" width="1" height="1" fill="#809db8"/>
<rect x="29" y="21" width="1" height="1" fill="#92abc3"/>
<rect x="30" y="21" width="1" height="1" fill="#b2c4d6"/>
<rect x="31" y="21" width="1" height="1" fill="#98b2cc"/>
<rect x="3" y="22" width="1" height="1" fill="#486d92"/>
<rect x="4" y="22" width="1" height="1" fill="#698aab"/>
<rect x="5" y="22" width="1" height="1" fill="#7695b2"/>
<rect x="6" y="22" width="1" height="1" fill="#7a98b5"/>
<rect x="7" y="22" width="1" height="1" fill="#829eb9"/>
<rect x="8" y="22" width="1" height="1" fill="#8ea7c0"/>
<rect x="9" y="22" width="1" height="1" fill="#a4bacf"/>
<rect x="10" y="22" width="1" height="1" fill="#8eaac5"/>
<rect x="13" y="22" width="1" height="1" fill="#244f7b"/>
<rect x="14" y="22" width="1" height="1" fill="#4a7196"/>
<rect x="15" y="22" width="1" height="1" fill="#6486a7"/>
<rect x="16" y="22" width="1" height="1" fill="#7090af"/>
<rect x="17" y="22" width="1" height="1" fill="#7896b3"/>
<rect x="18" y="22" width="1" height="1" fill="#849fba"/>
<rect x="19" y="22" width="1" height="1" fill="#97afc5"/>
<rect x="20" y="22" width="1" height="1" fill="#b3c6d8"/>
<rect x="21" y="22" width="1" height="1" fill="#8ba8c4"/>
<rect x="24" y="22" width="1" height="1" fill="#6d869e"/>
<rect x="25" y="22" width="1" height="1" fill="#486f95"/>
<rect x="26" y="22" width="1" height="1" fill="#4f749a"/>
<rect x="27" y="22" width="1" height="1" fill="#567a9e"/>
<rect x="28" y="22" width="1" height="1" fill="#5d80a2"/>
<rect x="29" y="22" width="1" height="1" fill="#6485a6"/>
<rect x="30" y="22" width="1" height="1" fill="#6a8baa"/>
<rect x="31" y="22" width="1" height="1" fill="#6284a6"/>
<rect x="3" y="23" width="1" height="1" fill="#41678d"/>
<rect x="4" y="23" width="1" height="1" fill="#6083a6"/>
<rect x="5" y="23" width="1" height="1" fill="#6c8cad"/>
<rect x="6" y="23" width="1" height="1" fill="#7594b2"/>
<rect x="7" y="23" width="1" height="1" fill="#7896b4"/>
<rect x="8" y="23" width="1" height="1" fill="#819cb8"/>
<rect x="9" y="23" width="1" height="1" fill="#8aa4be"/>
<rect x="10" y="23" width="1" height="1" fill="#597ea1"/>
<rect x="13" y="23" width="1" height="1" fill="#244f7b"/>
<rect x="14" y="23" width="1" height="1" fill="#2f5983"/>
<rect x="15" y="23" width="1" height="1" fill="#3e668d"/>
<rect x="16" y="23" width="1" height="1" fill="#496f94"/>
<rect x="17" y="23" width="1" height="1" fill="#54799c"/>
<rect x="18" y="23" width="1" height="1" fill="#587c9e"/>
<rect x="19" y="23" width="1" height="1" fill="#6384a5"/>
<rect x="20" y="23" width="1" height="1" fill="#6889a9"/>
<rect x="21" y="23" width="1" height="1" fill="#8aa7c3"/>
<rect x="24" y="23" width="1" height="1" fill="#6d869e"/>
<rect x="25" y="23" width="1" height="1" fill="#386189"/>
<rect x="26" y="23" width="1" height="1" fill="#396189"/>
<rect x="27" y="23" width="1" height="1" fill="#3e658d"/>
<rect x="28" y="23" width="1" height="1" fill="#426990"/>
<rect x="29" y="23" width="1" height="1" fill="#476e94"/>
<rect x="30" y="23" width="1" height="1" fill="#5d7fa2"/>
<rect x="31" y="23" width="1" height="1" fill="#577a9e"/>
<rect x="3" y="24" width="1" height="1" fill="#3a6188"/>
<rect x="4" y="24" width="1" height="1" fill="#4a7096"/>
<rect x="5" y="24" width="1" height="1" fill="#4f759a"/>
<rect x="6" y="24" width="1" height="1" fill="#587b9f"/>
<rect x="7" y="24" width="1" height="1" fill="#5e80a3"/>
<rect x="8" y="24" width="1" height="1" fill="#6183a4"/>
<rect x="9" y="24" width="1" height="1" fill="#698aa9"/>
<rect x="10" y="24" width="1" height="1" fill="#51769b"/>
<rect x="13" y="24" width="1" height="1" fill="#244f7b"/>
<rect x="14" y="24" width="1" height="1" fill="#6d8cab"/>
<rect x="15" y="24" width="1" height="1" fill="#3e658d"/>
<rect x="16" y="24" width="1" height="1" fill="#7391ae"/>
<rect x="17" y="24" width="1" height="1" fill="#4c7197"/>
<rect x="18" y="24" width="1" height="1" fill="#7b98b5"/>
<rect x="19" y="24" width="1" height="1" fill="#5a7da0"/>
<rect x="20" y="24" width="1" height="1" fill="#7a97b4"/>
<rect x="21" y="24" width="1" height="1" fill="#567b9f"/>
<rect x="24" y="24" width="1" height="1" fill="#68829b"/>
<rect x="25" y="24" width="1" height="1" fill="#345d86"/>
<rect x="26" y="24" width="2" height="1" fill="#386189"/>
<rect x="28" y="24" width="1" height="1" fill="#3b638b"/>
<rect x="29" y="24" width="1" height="1" fill="#40678f"/>
<rect x="30" y="24" width="1" height="1" fill="#6585a7"/>
<rect x="31" y="24" width="1" height="1" fill="#577a9e"/>
<rect x="3" y="25" width="1" height="1" fill="#325b83"/>
<rect x="4" y="25" width="1" height="1" fill="#345d86"/>
<rect x="5" y="25" width="1" height="1" fill="#345c86"/>
<rect x="6" y="25" width="1" height="1" fill="#3a628a"/>
<rect x="7" y="25" width="1" height="1" fill="#3f668e"/>
<rect x="8" y="25" width="1" height="1" fill="#40678f"/>
<rect x="9" y="25" width="1" height="1" fill="#496f95"/>
<rect x="10" y="25" width="1" height="1" fill="#486f95"/>
<rect x="13" y="25" width="1" height="1" fill="#244f7b"/>
<rect x="14" y="25" width="3" height="1" fill="#224e7a"/>
<rect x="17" y="25" width="1" height="1" fill="#2b5680"/>
<rect x="18" y="25" width="1" height="1" fill="#365f87"/>
<rect x="19" y="25" width="1" height="1" fill="#40688f"/>
<rect x="20" y="25" width="1" height="1" fill="#416990"/>
<rect x="21" y="25" width="1" height="1" fill="#4c7297"/>
<rect x="24" y="25" width="1" height="1" fill="#647e98"/>
<rect x="25" y="25" width="1" height="1" fill="#2d5781"/>
<rect x="26" y="25" width="1" height="1" fill="#315a84"/>
<rect x="27" y="25" width="1" height="1" fill="#365f87"/>
<rect x="28" y="25" width="2" height="1" fill="#386189"/>
<rect x="30" y="25" width="1" height="1" fill="#6c8baa"/>
<rect x="31" y="25" width="1" height="1" fill="#56799d"/>
<rect x="3" y="26" width="1" height="1" fill="#2c557f"/>
<rect x="4" y="26" width="1" height="1" fill="#577a9c"/>
<rect x="5" y="26" width="1" height="1" fill="#3e658d"/>
<rect x="6" y="26" width="1" height="1" fill="#4c7095"/>
<rect x="7" y="26" width="1" height="1" fill="#56789c"/>
<rect x="8" y="26" width="1" height="1" fill="#476d92"/>
<rect x="9" y="26" width="1" height="1" fill="#6787a7"/>
<rect x="10" y="26" width="1" height="1" fill="#416890"/>
<rect x="13" y="26" width="1" height="1" fill="#537290"/>
<rect x="14" y="26" width="2" height="1" fill="#496a8b"/>
<rect x="16" y="26" width="1" height="1" fill="#47698b"/>
<rect x="17" y="26" width="1" height="1" fill="#3a6086"/>
<rect x="18" y="26" width="1" height="1" fill="#537394"/>
<rect x="19" y="26" width="1" height="1" fill="#5c7b99"/>
<rect x="20" y="26" width="1" height="1" fill="#6683a0"/>
<rect x="21" y="26" width="1" height="1" fill="#6885a1"/>
<rect x="24" y="26" width="1" height="1" fill="#5f7a95"/>
<rect x="25" y="26" width="1" height="1" fill="#25517c"/>
<rect x="26" y="26" width="1" height="1" fill="#2a547f"/>
<rect x="27" y="26" width="1" height="1" fill="#2f5882"/>
<rect x="28" y="26" width="1" height="1" fill="#335c85"/>
<rect x="29" y="26" width="2" height="1" fill="#386189"/>
<rect x="31" y="26" width="1" height="1" fill="#396189"/>
<rect x="3" y="27" width="1" height="1" fill="#2c557f"/>
<rect x="4" y="27" width="2" height="1" fill="#224e7a"/>
<rect x="6" y="27" width="1" height="1" fill="#27527d"/>
<rect x="7" y="27" width="1" height="1" fill="#2b5580"/>
<rect x="8" y="27" width="1" height="1" fill="#2f5882"/>
<rect x="9" y="27" width="1" height="1" fill="#345d86"/>
<rect x="10" y="27" width="1" height="1" fill="#3a628a"/>
<rect x="16" y="27" width="1" height="1" fill="#9da8b3"/>
<rect x="17" y="27" width="1" height="1" fill="#2c5681"/>
<rect x="18" y="27" width="1" height="1" fill="#a0abb6"/>
<rect x="24" y="27" width="1" height="1" fill="#5f7a95"/>
<rect x="25" y="27" width="2" height="1" fill="#224e7a"/>
<rect x="27" y="27" width="1" height="1" fill="#27527d"/>
<rect x="28" y="27" width="1" height="1" fill="#2c5680"/>
<rect x="29" y="27" width="1" height="1" fill="#315a84"/>
<rect x="30" y="27" width="1" height="1" fill="#355e87"/>
<rect x="31" y="27" width="1" height="1" fill="#386189"/>
<rect x="3" y="28" width="1" height="1" fill="#2c557f"/>
<rect x="4" y="28" width="3" height="1" fill="#224e7a"/>
<rect x="7" y="28" width="1" height="1" fill="#234f7b"/>
<rect x="8" y="28" width="1" height="1" fill="#27527d"/>
<rect x="9" y="28" width="1" height="1" fill="#2d5781"/>
<rect x="10" y="28" width="1" height="1" fill="#335b85"/>
<rect x="16" y="28" width="1" height="1" fill="#9da8b3"/>
<rect x="17" y="28" width="1" height="1" fill="#2c5681"/>
<rect x="18" y="28" width="1" height="1" fill="#a0abb6"/>
<rect x="24" y="28" width="1" height="1" fill="#5f7a95"/>
<rect x="25" y="28" width="3" height="1" fill="#224e7a"/>
<rect x="28" y="28" width="1" height="1" fill="#24507b"/>
<rect x="29" y="28" width="1" height="1" fill="#29547f"/>
<rect x="30" y="28" width="1" height="1" fill="#2e5782"/>
<rect x="31" y="28" width="1" height="1" fill="#315a84"/>
<rect x="3" y="29" width="1" height="1" fill="#47698b"/>
<rect x="4" y="29" width="5" height="1" fill="#315981"/>
<rect x="9" y="29" width="1" height="1" fill="#345c83"/>
<rect x="10" y="29" width="1" height="1" fill="#406489"/>
<rect x="16" y="29" width="1" height="1" fill="#9da8b3"/>
<rect x="17" y="29" width="1" height="1" fill="#2c5681"/>
<rect x="18" y="29" width="1" height="1" fill="#a0abb6"/>
<rect x="24" y="29" width="1" height="1" fill="#7b8ea1"/>
<rect x="25" y="29" width="5" height="1" fill="#4e6e8e"/>
<rect x="30" y="29" width="1" height="1" fill="#517090"/>
<rect x="31" y="29" width="1" height="1" fill="#547291"/>
<rect x="17" y="30" width="1" height="1" fill="#8797a8"/>
</svg>