<svg xmlns="http://www.w3.org/2000/svg" width="32" height="32" viewBox="0 0 32 32" shape-rendering="crispEdges">
<rect x="6" y="9" width="14" height="1" fill="#9ba5b0"/>
<rect x="20" y="9" width="1" height="1" fill="#a1aab2"/>
<rect x="5" y="10" width="1" height="1" fill="#8998a8"/>
<rect x="6" y="10" width="16" height="1" fill="#224e7a"/>
<rect x="22" y="10" width="1" height="1" fill="#426588"/>
<rect x="23" y="10" width="1" height="1" fill="#8596a6"/>
<rect x="5" y="11" width="1" height="1" fill="#8998a8"/>
<rect x="6" y="11" width="18" height="1" fill="#224e7a"/>
<rect x="24" y="11" width="1" height="1" fill="#4b6b8c"/>
<rect x="5" y="12" width="1" height="1" fill="#8998a8"/>
<rect x="6" y="12" width="19" height="1" fill="#224e7a"/>
<rect x="25" y="12" width="1" height="1" fill="#45678a"/>
<rect x="0" y="13" width="1" height="1" fill="#a2b1bf"/>
<rect x="1" y="13" width="1" height="1" fill="#9dacbc"/>
<rect x="2" y="13" width="1" height="1" fill="#99a8b8"/>
<rect x="3" y="13" width="1" height="1" fill="#93a4b4"/>
<rect x="4" y="13" width="1" height="1" fill="#8fa0b1"/>
<rect x="5" y="13" width="1" height="1" fill="#587592"/>
<rect x="6" y="13" width="20" height="1" fill="#224e7a"/>
<rect x="26" y="13" width="1" height="1" fill="#72889e"/>
<rect x="0" y="14" width="1" height="1" fill="#819fbd"/>
<rect x="1" y="14" width="1" height="1" fill="#7696b6"/>
<rect x="2" y="14" width="1" height="1" fill="#6c8dae"/>
<rect x="3" y="14" width="1" height="1" fill="#6184a7"/>
<rect x="4" y="14" width="1" height="1" fill="#577b9f"/>
<rect x="5" y="14" width="21" height="1" fill="#224e7a"/>
<rect x="26" y="14" width="1" height="1" fill="#2c557e"/>
<rect x="0" y="15" width="1" height="1" fill="#8ea6be"/>
<rect x="1" y="15" width="1" height="1" fill="#859fb8"/>
<rect x="2" y="15" width="1" height="1" fill="#7d97b2"/>
<rect x="3" y="15" width="1" height="1" fill="#7490ac"/>
<rect x="4" y="15" width="1" height="1" fill="#6c89a6"/>
<rect x="5" y="15" width="1" height="1" fill="#375d83"/>
<rect x="6" y="15" width="21" height="1" fill="#224e7a"/>
<rect x="27" y="15" width="1" height="1" fill="#929fac"/>
<rect x="5" y="16" width="1" height="1" fill="#8998a8"/>
<rect x="6" y="16" width="21" height="1" fill="#224e7a"/>
<rect x="27" y="16" width="1" height="1" fill="#688099"/>
<rect x="5" y="17" width="1" height="1" fill="#8998a8"/>
<rect x="6" y="17" width="21" height="1" fill="#224e7a"/>
<rect x="27" y="17" width="1" height="1" fill="#305881"/>
<rect x="28" y="17" width="1" height="1" fill="#3c648c"/>
<rect x="29" y="17" width="1" height="1" fill="#567b9f"/>
<rect x="30" y="17" width="1" height="1" fill="#8ba8c4"/>
<rect x="5" y="18" width="1" height="1" fill="#8998a8"/>
<rect x="6" y="18" width="21" height="1" fill="#224e7a"/>
<rect x="27" y="18" width="1" height="1" fill="#315981"/>
<rect x="28" y="18" width="1" height="1" fill="#3c648c"/>
<rect x="29" y="18" width="1" height="1" fill="#567b9f"/>
<rect x="30" y="18" width="1" height="1" fill="#8ba8c4"/>
<rect x="5" y="19" width="1" height="1" fill="#8998a8"/>
<rect x="6" y="19" width="21" height="1" fill="#224e7a"/>
<rect x="27" y="19" width="1" height="1" fill="#69829a"/>
<rect x="5" y="20" width="1" height="1" fill="#8797a7"/>
<rect x="6" y="20" width="21" height="1" fill="#224e7a"/>
<rect x="27" y="20" width="1" height="1" fill="#97a2ae"/>
<rect x="0" y="21" width="1" height="1" fill="#819fbd"/>
<rect x="1" y="21" width="1" height="1" fill="#7696b6"/>
<rect x="2" y="21" width="1" height="1" fill="#6c8dae"/>
<rect x="3" y="21" width="1" height="1" fill="#6184a7"/>
<rect x="4" y="21" width="1" height="1" fill="#577b9f"/>
<rect x="5" y="21" width="21" height="1" fill="#224e7a"/>
<rect x="26" y="21" width="1" height="1" fill="#315981"/>
<rect x="0" y="22" width="1" height="1" fill="#819fbd"/>
<rect x="1" y="22" width="1" height="1" fill="#7696b6"/>
<rect x="2" y="22" width="1" height="1" fill="#6c8dae"/>
<rect x="3" y="22" width="1" height="1" fill="#6184a7"/>
<rect x="4" y="22" width="1" height="1" fill="#577b9f"/>
<rect x="5" y="22" width="21" height="1" fill="#224e7a"/>
<rect x="26" y="22" width="1" height="1" fill="#7e90a3"/>
<rect x="4" y="23" width="1" height="1" fill="#a6afb8"/>
<rect x="5" y="23" width="1" height="1" fill="#6f859d"/>
<rect x="6" y="23" width="19" height="1" fill="#224e7a"/>
<rect x="25" y="23" width="1" height="1" fill="#4f6f8e"/>
<rect x="5" y="24" width="1" height="1" fill="#8998a8"/>
<rect x="6" y="24" width="18" height="1" fill="#224e7a"/>
<rect x="24" y="24" width="1" height="1" fill="#557391"/>
<rect x="5" y="25" width="1" height="1" fill="#8998a8"/>
<rect x="6" y="25" width="15" height="1" fill="#224e7a"/>
<rect x="21" y="25" width="1" height="1" fill="#234f7b"/>
<rect x="22" y="25" width="1" height="1" fill="#4a6b8c"/>
<rect x="23" y="25" width="1" height="1" fill="#909dab"/>
<rect x="6" y="26" width="14" height="1" fill="#9ba5b0"/>
<rect x="20" y="26" width="1" height="1" fill="#a2abb3"/>
</svg>