<svg xmlns="http://www.w3.org/2000/svg" width="32" height="32" viewBox="0 0 32 32" shape-rendering="crispEdges">
<rect x="12" y="0" width="1" height="1" fill="#f7fafc"/>
<rect x="13" y="0" width="1" height="1" fill="#4a95bf"/>
<rect x="14" y="0" width="1" height="1" fill="#5299c2"/>
<rect x="11" y="1" width="1" height="1" fill="#d6e8f2"/>
<rect x="12" y="1" width="1" height="1" fill="#2984b3"/>
<rect x="13" y="1" width="1" height="1" fill="#006da5"/>
<rect x="14" y="1" width="1" height="1" fill="#4290bc"/>
<rect x="10" y="2" width="1" height="1" fill="#b5d5e7"/>
<rect x="11" y="2" width="1" height="1" fill="#0872b0"/>
<rect x="12" y="2" width="2" height="1" fill="#0071ad"/>
<rect x="14" y="2" width="1" height="1" fill="#4293c2"/>
<rect x="9" y="3" width="1" height="1" fill="#8cbdd6"/>
<rect x="10" y="3" width="1" height="1" fill="#006dad"/>
<rect x="11" y="3" width="1" height="1" fill="#0071b5"/>
<rect x="12" y="3" width="2" height="1" fill="#0075b5"/>
<rect x="14" y="3" width="1" height="1" fill="#0875b0"/>
<rect x="15" y="3" width="1" height="1" fill="#3189bd"/>
<rect x="16" y="3" width="1" height="1" fill="#4293c2"/>
<rect x="17" y="3" width="1" height="1" fill="#63a6cd"/>
<rect x="18" y="3" width="1" height="1" fill="#94c2dd"/>
<rect x="19" y="3" width="1" height="1" fill="#d6e8f2"/>
<rect x="7" y="4" width="1" height="1" fill="#f7fafc"/>
<rect x="8" y="4" width="1" height="1" fill="#5aa1c5"/>
<rect x="9" y="4" width="1" height="1" fill="#0071ad"/>
<rect x="10" y="4" width="1" height="1" fill="#0075b5"/>
<rect x="11" y="4" width="4" height="1" fill="#0079bd"/>
<rect x="15" y="4" width="3" height="1" fill="#0075b5"/>
<rect x="18" y="4" width="2" height="1" fill="#0071ad"/>
<rect x="20" y="4" width="1" height="1" fill="#2180b1"/>
<rect x="21" y="4" width="1" height="1" fill="#8cbdda"/>
<rect x="22" y="4" width="1" height="1" fill="#f7fafc"/>
<rect x="6" y="5" width="1" height="1" fill="#e7f1f7"/>
<rect x="7" y="5" width="1" height="1" fill="#3189b6"/>
<rect x="8" y="5" width="1" height="1" fill="#0071ad"/>
<rect x="9" y="5" width="1" height="1" fill="#0075b5"/>
<rect x="10" y="5" width="1" height="1" fill="#0079bd"/>
<rect x="11" y="5" width="5" height="1" fill="#007dc6"/>
<rect x="16" y="5" width="1" height="1" fill="#007dbd"/>
<rect x="17" y="5" width="2" height="1" fill="#0079bd"/>
<rect x="19" y="5" width="2" height="1" fill="#0075b5"/>
<rect x="21" y="5" width="1" height="1" fill="#0071ad"/>
<rect x="22" y="5" width="1" height="1" fill="#1076b2"/>
<rect x="23" y="5" width="1" height="1" fill="#a5cbe2"/>
<rect x="5" y="6" width="1" height="1" fill="#cee3ee"/>
<rect x="6" y="6" width="1" height="1" fill="#1076ab"/>
<rect x="7" y="6" width="1" height="1" fill="#0071ad"/>
<rect x="8" y="6" width="1" height="1" fill="#0075b5"/>
<rect x="9" y="6" width="1" height="1" fill="#0079bd"/>
<rect x="10" y="6" width="1" height="1" fill="#007dc6"/>
<rect x="11" y="6" width="6" height="1" fill="#0082c6"/>
<rect x="17" y="6" width="2" height="1" fill="#007dc6"/>
<rect x="19" y="6" width="1" height="1" fill="#007dbd"/>
<rect x="20" y="6" width="1" height="1" fill="#0079bd"/>
<rect x="21" y="6" width="2" height="1" fill="#0075b5"/>
<rect x="23" y="6" width="1" height="1" fill="#0071ad"/>
<rect x="24" y="6" width="1" height="1" fill="#5aa1c5"/>
<rect x="4" y="7" width="1" height="1" fill="#adcfe2"/>
<rect x="5" y="7" width="1" height="1" fill="#006da5"/>
<rect x="6" y="7" width="1" height="1" fill="#0071ad"/>
<rect x="7" y="7" width="1" height="1" fill="#0075b5"/>
<rect x="8" y="7" width="1" height="1" fill="#0079bd"/>
<rect x="9" y="7" width="1" height="1" fill="#007dc6"/>
<rect x="10" y="7" width="10" height="1" fill="#0082c6"/>
<rect x="20" y="7" width="1" height="1" fill="#007dc6"/>
<rect x="21" y="7" width="1" height="1" fill="#007dbd"/>
<rect x="22" y="7" width="1" height="1" fill="#0079bd"/>
<rect x="23" y="7" width="1" height="1" fill="#0075b5"/>
<rect x="24" y="7" width="1" height="1" fill="#0071ad"/>
<rect x="25" y="7" width="1" height="1" fill="#4293bc"/>
<rect x="4" y="8" width="1" height="1" fill="#84b7d4"/>
<rect x="5" y="8" width="1" height="1" fill="#006da5"/>
<rect x="6" y="8" width="1" height="1" fill="#0071ad"/>
<rect x="7" y="8" width="1" height="1" fill="#0075b5"/>
<rect x="8" y="8" width="1" height="1" fill="#0079bd"/>
<rect x="9" y="8" width="1" height="1" fill="#007dc6"/>
<rect x="10" y="8" width="10" height="1" fill="#0082c6"/>
<rect x="20" y="8" width="2" height="1" fill="#007dc6"/>
<rect x="22" y="8" width="1" height="1" fill="#0079bd"/>
<rect x="23" y="8" width="2" height="1" fill="#0075b5"/>
<rect x="25" y="8" width="1" height="1" fill="#0071ad"/>
<rect x="26" y="8" width="1" height="1" fill="#5aa1c5"/>
<rect x="5" y="9" width="1" height="1" fill="#8cbbd6"/>
<rect x="6" y="9" width="1" height="1" fill="#006dad"/>
<rect x="7" y="9" width="1" height="1" fill="#0071b5"/>
<rect x="8" y="9" width="1" height="1" fill="#0075b5"/>
<rect x="9" y="9" width="1" height="1" fill="#007dbd"/>
<rect x="10" y="9" width="1" height="1" fill="#007dc6"/>
<rect x="11" y="9" width="5" height="1" fill="#0082c6"/>
<rect x="16" y="9" width="5" height="1" fill="#007dc6"/>
<rect x="21" y="9" width="1" height="1" fill="#007dbd"/>
<rect x="22" y="9" width="2" height="1" fill="#0079bd"/>
<rect x="24" y="9" width="1" height="1" fill="#0075b5"/>
<rect x="25" y="9" width="1" height="1" fill="#0071ad"/>
<rect x="26" y="9" width="1" height="1" fill="#006dad"/>
<rect x="27" y="9" width="1" height="1" fill="#9cc6dc"/>
<rect x="6" y="10" width="1" height="1" fill="#b5d5e5"/>
<rect x="7" y="10" width="1" height="1" fill="#0872b0"/>
<rect x="8" y="10" width="1" height="1" fill="#0071b5"/>
<rect x="9" y="10" width="1" height="1" fill="#0079b5"/>
<rect x="10" y="10" width="1" height="1" fill="#007dbd"/>
<rect x="11" y="10" width="3" height="1" fill="#007dc6"/>
<rect x="14" y="10" width="1" height="1" fill="#007dbd"/>
<rect x="15" y="10" width="4" height="1" fill="#0079bd"/>
<rect x="19" y="10" width="1" height="1" fill="#0079b5"/>
<rect x="20" y="10" width="5" height="1" fill="#0075b5"/>
<rect x="25" y="10" width="2" height="1" fill="#0071ad"/>
<rect x="27" y="10" width="1" height="1" fill="#1076ab"/>
<rect x="28" y="10" width="1" height="1" fill="#eff6f9"/>
<rect x="7" y="11" width="1" height="1" fill="#d6e8f2"/>
<rect x="8" y="11" width="1" height="1" fill="#2180b8"/>
<rect x="9" y="11" width="1" height="1" fill="#0071ad"/>
<rect x="10" y="11" width="1" height="1" fill="#0075b5"/>
<rect x="11" y="11" width="3" height="1" fill="#0079bd"/>
<rect x="14" y="11" width="1" height="1" fill="#0075b5"/>
<rect x="15" y="11" width="1" height="1" fill="#0071b5"/>
<rect x="16" y="11" width="2" height="1" fill="#0071ad"/>
<rect x="18" y="11" width="2" height="1" fill="#006dad"/>
<rect x="20" y="11" width="7" height="1" fill="#0071ad"/>
<rect x="27" y="11" width="1" height="1" fill="#006da5"/>
<rect x="28" y="11" width="1" height="1" fill="#73adce"/>
<rect x="8" y="12" width="1" height="1" fill="#f7fafc"/>
<rect x="9" y="12" width="1" height="1" fill="#4293bc"/>
<rect x="10" y="12" width="1" height="1" fill="#0071ad"/>
<rect x="11" y="12" width="3" height="1" fill="#0075b5"/>
<rect x="14" y="12" width="1" height="1" fill="#2180b8"/>
<rect x="15" y="12" width="1" height="1" fill="#a5cbe2"/>
<rect x="16" y="12" width="1" height="1" fill="#c6deed"/>
<rect x="17" y="12" width="1" height="1" fill="#e7f1f7"/>
<rect x="18" y="12" width="2" height="1" fill="#f7fafc"/>
<rect x="20" y="12" width="1" height="1" fill="#eff6fa"/>
<rect x="21" y="12" width="1" height="1" fill="#cee3ef"/>
<rect x="22" y="12" width="1" height="1" fill="#b5d5e5"/>
<rect x="23" y="12" width="1" height="1" fill="#84b9d4"/>
<rect x="24" y="12" width="1" height="1" fill="#4293bc"/>
<rect x="25" y="12" width="1" height="1" fill="#006da5"/>
<rect x="26" y="12" width="1" height="1" fill="#006dad"/>
<rect x="27" y="12" width="1" height="1" fill="#006da5"/>
<rect x="28" y="12" width="1" height="1" fill="#086ea8"/>
<rect x="29" y="12" width="1" height="1" fill="#f7fafc"/>
<rect x="10" y="13" width="1" height="1" fill="#73afce"/>
<rect x="11" y="13" width="1" height="1" fill="#006dad"/>
<rect x="12" y="13" width="2" height="1" fill="#0071ad"/>
<rect x="14" y="13" width="1" height="1" fill="#4293bc"/>
<rect x="25" y="13" width="1" height="1" fill="#eff6f9"/>
<rect x="26" y="13" width="1" height="1" fill="#84b7d4"/>
<rect x="27" y="13" width="1" height="1" fill="#086ea8"/>
<rect x="28" y="13" width="1" height="1" fill="#0069a5"/>
<rect x="29" y="13" width="1" height="1" fill="#a5cadf"/>
<rect x="11" y="14" width="1" height="1" fill="#a5cbdf"/>
<rect x="12" y="14" width="1" height="1" fill="#0872a8"/>
<rect x="13" y="14" width="1" height="1" fill="#006da5"/>
<rect x="14" y="14" width="1" height="1" fill="#4290bc"/>
<rect x="27" y="14" width="1" height="1" fill="#cee2ee"/>
<rect x="28" y="14" width="1" height="1" fill="#086ea8"/>
<rect x="29" y="14" width="1" height="1" fill="#5a9ec5"/>
<rect x="2" y="15" width="1" height="1" fill="#e7f1f7"/>
<rect x="12" y="15" width="1" height="1" fill="#eae9ea"/>
<rect x="13" y="15" width="1" height="1" fill="#cecbce"/>
<rect x="14" y="15" width="1" height="1" fill="#dbd8db"/>
<rect x="17" y="15" width="1" height="1" fill="#d6e7f1"/>
<rect x="18" y="15" width="1" height="1" fill="#eff6f9"/>
<rect x="28" y="15" width="1" height="1" fill="#d8dcde"/>
<rect x="29" y="15" width="1" height="1" fill="#d5d8db"/>
<rect x="2" y="16" width="1" height="1" fill="#4290bc"/>
<rect x="3" y="16" width="1" height="1" fill="#7bb1d0"/>
<rect x="13" y="16" width="1" height="1" fill="#f4f3f4"/>
<rect x="14" y="16" width="1" height="1" fill="#efeeef"/>
<rect x="17" y="16" width="1" height="1" fill="#4290bc"/>
<rect x="18" y="16" width="1" height="1" fill="#1072ab"/>
<rect x="19" y="16" width="1" height="1" fill="#cee2ee"/>
<rect x="28" y="16" width="1" height="1" fill="#fafafa"/>
<rect x="29" y="16" width="1" height="1" fill="#f0f2f2"/>
<rect x="2" y="17" width="1" height="1" fill="#5a9ec5"/>
<rect x="3" y="17" width="1" height="1" fill="#086ea8"/>
<rect x="4" y="17" width="1" height="1" fill="#cee2ee"/>
<rect x="17" y="17" width="1" height="1" fill="#4290bc"/>
<rect x="18" y="17" width="1" height="1" fill="#006da5"/>
<rect x="19" y="17" width="1" height="1" fill="#0872a8"/>
<rect x="20" y="17" width="1" height="1" fill="#a5cbdf"/>
<rect x="2" y="18" width="1" height="1" fill="#a5cadf"/>
<rect x="3" y="18" width="1" height="1" fill="#0069a5"/>
<rect x="4" y="18" width="1" height="1" fill="#086ea8"/>
<rect x="5" y="18" width="1" height="1" fill="#84b7d4"/>
<rect x="6" y="18" width="1" height="1" fill="#eff6f9"/>
<rect x="17" y="18" width="1" height="1" fill="#4293bc"/>
<rect x="18" y="18" width="2" height="1" fill="#0071ad"/>
<rect x="20" y="18" width="1" height="1" fill="#006dad"/>
<rect x="21" y="18" width="1" height="1" fill="#73afce"/>
<rect x="2" y="19" width="1" height="1" fill="#f7fafc"/>
<rect x="3" y="19" width="1" height="1" fill="#086ea8"/>
<rect x="4" y="19" width="1" height="1" fill="#006da5"/>
<rect x="5" y="19" width="1" height="1" fill="#006dad"/>
<rect x="6" y="19" width="1" height="1" fill="#006da5"/>
<rect x="7" y="19" width="1" height="1" fill="#4293bc"/>
<rect x="8" y="19" width="1" height="1" fill="#84b9d4"/>
<rect x="9" y="19" width="1" height="1" fill="#b5d5e5"/>
<rect x="10" y="19" width="1" height="1" fill="#cee3ef"/>
<rect x="11" y="19" width="1" height="1" fill="#eff6fa"/>
<rect x="12" y="19" width="2" height="1" fill="#f7fafc"/>
<rect x="14" y="19" width="1" height="1" fill="#e7f1f7"/>
<rect x="15" y="19" width="1" height="1" fill="#c6deed"/>
<rect x="16" y="19" width="1" height="1" fill="#a5cbe2"/>
<rect x="17" y="19" width="1" height="1" fill="#2180b8"/>
<rect x="18" y="19" width="3" height="1" fill="#0075b5"/>
<rect x="21" y="19" width="1" height="1" fill="#0071ad"/>
<rect x="22" y="19" width="1" height="1" fill="#4293bc"/>
<rect x="23" y="19" width="1" height="1" fill="#f7fafc"/>
<rect x="3" y="20" width="1" height="1" fill="#73adce"/>
<rect x="4" y="20" width="1" height="1" fill="#006da5"/>
<rect x="5" y="20" width="7" height="1" fill="#0071ad"/>
<rect x="12" y="20" width="2" height="1" fill="#006dad"/>
<rect x="14" y="20" width="2" height="1" fill="#0071ad"/>
<rect x="16" y="20" width="1" height="1" fill="#0071b5"/>
<rect x="17" y="20" width="1" height="1" fill="#0075b5"/>
<rect x="18" y="20" width="3" height="1" fill="#0079bd"/>
<rect x="21" y="20" width="1" height="1" fill="#0075b5"/>
<rect x="22" y="20" width="1" height="1" fill="#0071ad"/>
<rect x="23" y="20" width="1" height="1" fill="#2180b8"/>
<rect x="24" y="20" width="1" height="1" fill="#d6e8f2"/>
<rect x="3" y="21" width="1" height="1" fill="#eff6f9"/>
<rect x="4" y="21" width="1" height="1" fill="#1076ab"/>
<rect x="5" y="21" width="2" height="1" fill="#0071ad"/>
<rect x="7" y="21" width="5" height="1" fill="#0075b5"/>
<rect x="12" y="21" width="1" height="1" fill="#0079b5"/>
<rect x="13" y="21" width="4" height="1" fill="#0079bd"/>
<rect x="17" y="21" width="1" height="1" fill="#007dbd"/>
<rect x="18" y="21" width="3" height="1" fill="#007dc6"/>
<rect x="21" y="21" width="1" height="1" fill="#007dbd"/>
<rect x="22" y="21" width="1" height="1" fill="#0079b5"/>
<rect x="23" y="21" width="1" height="1" fill="#0071b5"/>
<rect x="24" y="21" width="1" height="1" fill="#0872b0"/>
<rect x="25" y="21" width="1" height="1" fill="#b5d5e5"/>
<rect x="4" y="22" width="1" height="1" fill="#9cc6dc"/>
<rect x="5" y="22" width="1" height="1" fill="#006dad"/>
<rect x="6" y="22" width="1" height="1" fill="#0071ad"/>
<rect x="7" y="22" width="1" height="1" fill="#0075b5"/>
<rect x="8" y="22" width="2" height="1" fill="#0079bd"/>
<rect x="10" y="22" width="1" height="1" fill="#007dbd"/>
<rect x="11" y="22" width="5" height="1" fill="#007dc6"/>
<rect x="16" y="22" width="5" height="1" fill="#0082c6"/>
<rect x="21" y="22" width="1" height="1" fill="#007dc6"/>
<rect x="22" y="22" width="1" height="1" fill="#007dbd"/>
<rect x="23" y="22" width="1" height="1" fill="#0075b5"/>
<rect x="24" y="22" width="1" height="1" fill="#0071b5"/>
<rect x="25" y="22" width="1" height="1" fill="#006dad"/>
<rect x="26" y="22" width="1" height="1" fill="#8cbbd6"/>
<rect x="5" y="23" width="1" height="1" fill="#5aa1c5"/>
<rect x="6" y="23" width="1" height="1" fill="#0071ad"/>
<rect x="7" y="23" width="2" height="1" fill="#0075b5"/>
<rect x="9" y="23" width="1" height="1" fill="#0079bd"/>
<rect x="10" y="23" width="2" height="1" fill="#007dc6"/>
<rect x="12" y="23" width="10" height="1" fill="#0082c6"/>
<rect x="22" y="23" width="1" height="1" fill="#007dc6"/>
<rect x="23" y="23" width="1" height="1" fill="#0079bd"/>
<rect x="24" y="23" width="1" height="1" fill="#0075b5"/>
<rect x="25" y="23" width="1" height="1" fill="#0071ad"/>
<rect x="26" y="23" width="1" height="1" fill="#006da5"/>
<rect x="27" y="23" width="1" height="1" fill="#84b7d4"/>
<rect x="6" y="24" width="1" height="1" fill="#4293bc"/>
<rect x="7" y="24" width="1" height="1" fill="#0071ad"/>
<rect x="8" y="24" width="1" height="1" fill="#0075b5"/>
<rect x="9" y="24" width="1" height="1" fill="#0079bd"/>
<rect x="10" y="24" width="1" height="1" fill="#007dbd"/>
<rect x="11" y="24" width="1" height="1" fill="#007dc6"/>
<rect x="12" y="24" width="10" height="1" fill="#0082c6"/>
<rect x="22" y="24" width="1" height="1" fill="#007dc6"/>
<rect x="23" y="24" width="1" height="1" fill="#0079bd"/>
<rect x="24" y="24" width="1" height="1" fill="#0075b5"/>
<rect x="25" y="24" width="1" height="1" fill="#0071ad"/>
<rect x="26" y="24" width="1" height="1" fill="#006da5"/>
<rect x="27" y="24" width="1" height="1" fill="#adcfe2"/>
<rect x="7" y="25" width="1" height="1" fill="#5aa1c5"/>
<rect x="8" y="25" width="1" height="1" fill="#0071ad"/>
<rect x="9" y="25" width="2" height="1" fill="#0075b5"/>
<rect x="11" y="25" width="1" height="1" fill="#0079bd"/>
<rect x="12" y="25" width="1" height="1" fill="#007dbd"/>
<rect x="13" y="25" width="2" height="1" fill="#007dc6"/>
<rect x="15" y="25" width="6" height="1" fill="#0082c6"/>
<rect x="21" y="25" width="1" height="1" fill="#007dc6"/>
<rect x="22" y="25" width="1" height="1" fill="#0079bd"/>
<rect x="23" y="25" width="1" height="1" fill="#0075b5"/>
<rect x="24" y="25" width="1" height="1" fill="#0071ad"/>
<rect x="25" y="25" width="1" height="1" fill="#1076ab"/>
<rect x="26" y="25" width="1" height="1" fill="#cee3ee"/>
<rect x="8" y="26" width="1" height="1" fill="#a5cbe2"/>
<rect x="9" y="26" width="1" height="1" fill="#1076b2"/>
<rect x="10" y="26" width="1" height="1" fill="#0071ad"/>
<rect x="11" y="26" width="2" height="1" fill="#0075b5"/>
<rect x="13" y="26" width="2" height="1" fill="#0079bd"/>
<rect x="15" y="26" width="1" height="1" fill="#007dbd"/>
<rect x="16" y="26" width="5" height="1" fill="#007dc6"/>
<rect x="21" y="26" width="1" height="1" fill="#0079bd"/>
<rect x="22" y="26" width="1" height="1" fill="#0075b5"/>
<rect x="23" y="26" width="1" height="1" fill="#0071ad"/>
<rect x="24" y="26" width="1" height="1" fill="#3189b6"/>
<rect x="25" y="26" width="1" height="1" fill="#e7f1f7"/>
<rect x="9" y="27" width="1" height="1" fill="#f7fafc"/>
<rect x="10" y="27" width="1" height="1" fill="#8cbdda"/>
<rect x="11" y="27" width="1" height="1" fill="#2180b1"/>
<rect x="12" y="27" width="2" height="1" fill="#0071ad"/>
<rect x="14" y="27" width="3" height="1" fill="#0075b5"/>
<rect x="17" y="27" width="4" height="1" fill="#0079bd"/>
<rect x="21" y="27" width="1" height="1" fill="#0075b5"/>
<rect x="22" y="27" width="1" height="1" fill="#0071ad"/>
<rect x="23" y="27" width="1" height="1" fill="#5aa1c5"/>
<rect x="24" y="27" width="1" height="1" fill="#f7fafc"/>
<rect x="12" y="28" width="1" height="1" fill="#d6e8f2"/>
<rect x="13" y="28" width="1" height="1" fill="#94c2dd"/>
<rect x="14" y="28" width="1" height="1" fill="#63a6cd"/>
<rect x="15" y="28" width="1" height="1" fill="#4293c2"/>
<rect x="16" y="28" width="1" height="1" fill="#3189bd"/>
<rect x="17" y="28" width="1" height="1" fill="#0875b0"/>
<rect x="18" y="28" width="2" height="1" fill="#0075b5"/>
<rect x="20" y="28" width="1" height="1" fill="#0071b5"/>
<rect x="21" y="28" width="1" height="1" fill="#006dad"/>
<rect x="22" y="28" width="1" height="1" fill="#8cbdd6"/>
<rect x="17" y="29" width="1" height="1" fill="#4293c2"/>
<rect x="18" y="29" width="2" height="1" fill="#0071ad"/>
<rect x="20" y="29" width="1" height="1" fill="#0872b0"/>
<rect x="21" y="29" width="1" height="1" fill="#b5d5e7"/>
<rect x="17" y="30" width="1" height="1" fill="#4290bc"/>
<rect x="18" y="30" width="1" height="1" fill="#006da5"/>
<rect x="19" y="30" width="1" height="1" fill="#2984b3"/>
<rect x="20" y="30" width="1" height="1" fill="#d6e8f2"/>
<rect x="17" y="31" width="1" height="1" fill="#5299c2"/>
<rect x="18" y="31" width="1" height="1" fill="#4a95bf"/>
<rect x="19" y="31" width="1" height="1" fill="#f7fafc"/>
</svg>