<svg xmlns="http://www.w3.org/2000/svg" width="32" height="32" viewBox="0 0 32 32" shape-rendering="crispEdges">
<rect x="9" y="0" width="15" height="1" fill="#71879d"/>
<rect x="24" y="0" width="1" height="1" fill="#7b94ac"/>
<rect x="7" y="1" width="1" height="1" fill="#8595a6"/>
<rect x="8" y="1" width="1" height="1" fill="#2a547e"/>
<rect x="9" y="1" width="13" height="1" fill="#224e7a"/>
<rect x="22" y="1" width="1" height="1" fill="#355e88"/>
<rect x="23" y="1" width="1" height="1" fill="#6c8eaf"/>
<rect x="24" y="1" width="1" height="1" fill="#4b7197"/>
<rect x="6" y="2" width="1" height="1" fill="#577491"/>
<rect x="7" y="2" width="13" height="1" fill="#224e7a"/>
<rect x="20" y="2" width="1" height="1" fill="#25517d"/>
<rect x="21" y="2" width="1" height="1" fill="#597da1"/>
<rect x="22" y="2" width="1" height="1" fill="#6184a7"/>
<rect x="23" y="2" width="1" height="1" fill="#2a5580"/>
<rect x="24" y="2" width="1" height="1" fill="#24507b"/>
<rect x="5" y="3" width="1" height="1" fill="#6d8dad"/>
<rect x="6" y="3" width="6" height="1" fill="#6789ab"/>
<rect x="12" y="3" width="1" height="1" fill="#678aab"/>
<rect x="13" y="3" width="6" height="1" fill="#688aac"/>
<rect x="19" y="3" width="1" height="1" fill="#6a8cad"/>
<rect x="20" y="3" width="1" height="1" fill="#6c8eaf"/>
<rect x="21" y="3" width="1" height="1" fill="#3b648c"/>
<rect x="22" y="3" width="1" height="1" fill="#224e7b"/>
<rect x="23" y="3" width="1" height="1" fill="#6484a5"/>
<rect x="24" y="3" width="1" height="1" fill="#24507b"/>
<rect x="5" y="4" width="14" height="1" fill="#224e7a"/>
<rect x="19" y="4" width="1" height="1" fill="#53789d"/>
<rect x="20" y="4" width="1" height="1" fill="#39628b"/>
<rect x="21" y="4" width="1" height="1" fill="#2e5882"/>
<rect x="22" y="4" width="1" height="1" fill="#265482"/>
<rect x="23" y="4" width="1" height="1" fill="#9db6cd"/>
<rect x="24" y="4" width="1" height="1" fill="#24507b"/>
<rect x="5" y="5" width="1" height="1" fill="#224e7a"/>
<rect x="6" y="5" width="1" height="1" fill="#5f7fa0"/>
<rect x="7" y="5" width="1" height="1" fill="#7c97b2"/>
<rect x="8" y="5" width="1" height="1" fill="#718eab"/>
<rect x="9" y="5" width="1" height="1" fill="#224e7a"/>
<rect x="10" y="5" width="1" height="1" fill="#2d5782"/>
<rect x="11" y="5" width="1" height="1" fill="#819bb5"/>
<rect x="12" y="5" width="1" height="1" fill="#819bb6"/>
<rect x="13" y="5" width="1" height="1" fill="#496d92"/>
<rect x="14" y="5" width="1" height="1" fill="#224e7a"/>
<rect x="15" y="5" width="1" height="1" fill="#587a9c"/>
<rect x="16" y="5" width="1" height="1" fill="#7c97b2"/>
<rect x="17" y="5" width="1" height="1" fill="#7894b0"/>
<rect x="18" y="5" width="1" height="1" fill="#224e7a"/>
<rect x="19" y="5" width="1" height="1" fill="#53789d"/>
<rect x="20" y="5" width="1" height="1" fill="#426a92"/>
<rect x="21" y="5" width="1" height="1" fill="#90abc5"/>
<rect x="22" y="5" width="1" height="1" fill="#265481"/>
<rect x="23" y="5" width="1" height="1" fill="#295887"/>
<rect x="24" y="5" width="1" height="1" fill="#24507b"/>
<rect x="5" y="6" width="1" height="1" fill="#224e7a"/>
<rect x="6" y="6" width="1" height="1" fill="#6487ab"/>
<rect x="7" y="6" width="1" height="1" fill="#d4dfe9"/>
<rect x="8" y="6" width="1" height="1" fill="#c0cfdd"/>
<rect x="9" y="6" width="1" height="1" fill="#224e7a"/>
<rect x="10" y="6" width="1" height="1" fill="#315b85"/>
<rect x="11" y="6" width="1" height="1" fill="#adc1d5"/>
<rect x="12" y="6" width="1" height="1" fill="#d5dfe9"/>
<rect x="13" y="6" width="1" height="1" fill="#6b8aa8"/>
<rect x="14" y="6" width="1" height="1" fill="#224e7a"/>
<rect x="15" y="6" width="1" height="1" fill="#5c81a5"/>
<rect x="16" y="6" width="1" height="1" fill="#d4dfe9"/>
<rect x="17" y="6" width="1" height="1" fill="#cfdae6"/>
<rect x="18" y="6" width="1" height="1" fill="#224e7a"/>
<rect x="19" y="6" width="1" height="1" fill="#53789d"/>
<rect x="20" y="6" width="1" height="1" fill="#476f97"/>
<rect x="21" y="6" width="1" height="1" fill="#688cb0"/>
<rect x="22" y="6" width="1" height="1" fill="#224e7a"/>
<rect x="23" y="6" width="1" height="1" fill="#25517c"/>
<rect x="24" y="6" width="1" height="1" fill="#24507b"/>
<rect x="5" y="7" width="1" height="1" fill="#224e7a"/>
<rect x="6" y="7" width="1" height="1" fill="#2c5c8d"/>
<rect x="7" y="7" width="1" height="1" fill="#7a9aba"/>
<rect x="8" y="7" width="1" height="1" fill="#afc0d2"/>
<rect x="9" y="7" width="1" height="1" fill="#224e7a"/>
<rect x="10" y="7" width="1" height="1" fill="#24517e"/>
<rect x="11" y="7" width="1" height="1" fill="#7998b9"/>
<rect x="12" y="7" width="1" height="1" fill="#9db4cb"/>
<rect x="13" y="7" width="1" height="1" fill="#6282a2"/>
<rect x="14" y="7" width="1" height="1" fill="#224e7a"/>
<rect x="15" y="7" width="1" height="1" fill="#2b5b8b"/>
<rect x="16" y="7" width="1" height="1" fill="#7a9aba"/>
<rect x="17" y="7" width="1" height="1" fill="#bccbda"/>
<rect x="18" y="7" width="1" height="1" fill="#224e7a"/>
<rect x="19" y="7" width="1" height="1" fill="#53789d"/>
<rect x="20" y="7" width="1" height="1" fill="#38628c"/>
<rect x="21" y="7" width="1" height="1" fill="#25517d"/>
<rect x="22" y="7" width="1" height="1" fill="#2a5581"/>
<rect x="23" y="7" width="1" height="1" fill="#86a2be"/>
<rect x="24" y="7" width="1" height="1" fill="#24507b"/>
<rect x="5" y="8" width="14" height="1" fill="#224e7a"/>
<rect x="19" y="8" width="1" height="1" fill="#53789d"/>
<rect x="20" y="8" width="1" height="1" fill="#39628b"/>
<rect x="21" y="8" width="1" height="1" fill="#486e95"/>
<rect x="22" y="8" width="1" height="1" fill="#355f8a"/>
<rect x="23" y="8" width="1" height="1" fill="#7093b6"/>
<rect x="24" y="8" width="1" height="1" fill="#24507b"/>
<rect x="5" y="9" width="1" height="1" fill="#224e7a"/>
<rect x="6" y="9" width="1" height="1" fill="#5b7fa2"/>
<rect x="7" y="9" width="1" height="1" fill="#7797b6"/>
<rect x="8" y="9" width="1" height="1" fill="#6d8faf"/>
<rect x="9" y="9" width="1" height="1" fill="#224e7a"/>
<rect x="10" y="9" width="1" height="1" fill="#335c85"/>
<rect x="11" y="9" width="1" height="1" fill="#b4c4d4"/>
<rect x="12" y="9" width="1" height="1" fill="#b4c5d5"/>
<rect x="13" y="9" width="1" height="1" fill="#5e7f9f"/>
<rect x="14" y="9" width="1" height="1" fill="#224e7a"/>
<rect x="15" y="9" width="1" height="1" fill="#7995b1"/>
<rect x="16" y="9" width="1" height="1" fill="#b4c5d5"/>
<rect x="17" y="9" width="1" height="1" fill="#afc0d2"/>
<rect x="18" y="9" width="1" height="1" fill="#224e7a"/>
<rect x="19" y="9" width="1" height="1" fill="#53789d"/>
<rect x="20" y="9" width="1" height="1" fill="#436c95"/>
<rect x="21" y="9" width="1" height="1" fill="#7798ba"/>
<rect x="22" y="9" width="1" height="1" fill="#24517e"/>
<rect x="23" y="9" width="1" height="1" fill="#2b5681"/>
<rect x="24" y="9" width="1" height="1" fill="#24507b"/>
<rect x="5" y="10" width="1" height="1" fill="#224e7a"/>
<rect x="6" y="10" width="1" height="1" fill="#4a749d"/>
<rect x="7" y="10" width="1" height="1" fill="#8aa7c3"/>
<rect x="8" y="10" width="1" height="1" fill="#7f9ebc"/>
<rect x="9" y="10" width="1" height="1" fill="#224e7a"/>
<rect x="10" y="10" width="1" height="1" fill="#315b85"/>
<rect x="11" y="10" width="1" height="1" fill="#adc1d5"/>
<rect x="12" y="10" width="1" height="1" fill="#d5dfe9"/>
<rect x="13" y="10" width="1" height="1" fill="#6b8aa8"/>
<rect x="14" y="10" width="1" height="1" fill="#224e7a"/>
<rect x="15" y="10" width="1" height="1" fill="#5c81a5"/>
<rect x="16" y="10" width="1" height="1" fill="#d4dfe9"/>
<rect x="17" y="10" width="1" height="1" fill="#cfdae6"/>
<rect x="18" y="10" width="1" height="1" fill="#224e7a"/>
<rect x="19" y="10" width="1" height="1" fill="#53789d"/>
<rect x="20" y="10" width="1" height="1" fill="#416a93"/>
<rect x="21" y="10" width="1" height="1" fill="#406a94"/>
<rect x="22" y="10" width="1" height="1" fill="#224e7a"/>
<rect x="23" y="10" width="1" height="1" fill="#3c638b"/>
<rect x="24" y="10" width="1" height="1" fill="#24507b"/>
<rect x="5" y="11" width="1" height="1" fill="#224e7a"/>
<rect x="6" y="11" width="1" height="1" fill="#285786"/>
<rect x="7" y="11" width="1" height="1" fill="#456f99"/>
<rect x="8" y="11" width="1" height="1" fill="#577ca0"/>
<rect x="9" y="11" width="1" height="1" fill="#224e7a"/>
<rect x="10" y="11" width="1" height="1" fill="#23507d"/>
<rect x="11" y="11" width="1" height="1" fill="#5b7fa4"/>
<rect x="12" y="11" width="1" height="1" fill="#7391af"/>
<rect x="13" y="11" width="1" height="1" fill="#4c7094"/>
<rect x="14" y="11" width="1" height="1" fill="#224e7a"/>
<rect x="15" y="11" width="1" height="1" fill="#285685"/>
<rect x="16" y="11" width="1" height="1" fill="#5b7fa4"/>
<rect x="17" y="11" width="1" height="1" fill="#869fb8"/>
<rect x="18" y="11" width="1" height="1" fill="#224e7a"/>
<rect x="19" y="11" width="1" height="1" fill="#53789d"/>
<rect x="20" y="11" width="1" height="1" fill="#39628b"/>
<rect x="21" y="11" width="1" height="1" fill="#224e7a"/>
<rect x="22" y="11" width="1" height="1" fill="#325c86"/>
<rect x="23" y="11" width="1" height="1" fill="#9ab3cb"/>
<rect x="24" y="11" width="1" height="1" fill="#24507b"/>
<rect x="5" y="12" width="1" height="1" fill="#224e7a"/>
<rect x="6" y="12" width="1" height="1" fill="#2b5680"/>
<rect x="7" y="12" width="1" height="1" fill="#2f5983"/>
<rect x="8" y="12" width="1" height="1" fill="#2d5882"/>
<rect x="9" y="12" width="1" height="1" fill="#224e7a"/>
<rect x="10" y="12" width="1" height="1" fill="#234f7b"/>
<rect x="11" y="12" width="2" height="1" fill="#2f5983"/>
<rect x="13" y="12" width="1" height="1" fill="#27527e"/>
<rect x="14" y="12" width="1" height="1" fill="#224e7a"/>
<rect x="15" y="12" width="1" height="1" fill="#2f5982"/>
<rect x="16" y="12" width="2" height="1" fill="#386088"/>
<rect x="18" y="12" width="1" height="1" fill="#224e7a"/>
<rect x="19" y="12" width="1" height="1" fill="#53789d"/>
<rect x="20" y="12" width="1" height="1" fill="#3b648d"/>
<rect x="21" y="12" width="1" height="1" fill="#5d81a6"/>
<rect x="22" y="12" width="1" height="1" fill="#355f8a"/>
<rect x="23" y="12" width="1" height="1" fill="#5f84a9"/>
<rect x="24" y="12" width="1" height="1" fill="#24507b"/>
<rect x="5" y="13" width="1" height="1" fill="#224e7a"/>
<rect x="6" y="13" width="1" height="1" fill="#5a80a6"/>
<rect x="7" y="13" width="1" height="1" fill="#8aa7c3"/>
<rect x="8" y="13" width="1" height="1" fill="#7f9ebc"/>
<rect x="9" y="13" width="1" height="1" fill="#224e7a"/>
<rect x="10" y="13" width="1" height="1" fill="#2e5984"/>
<rect x="11" y="13" width="1" height="1" fill="#7598ba"/>
<rect x="12" y="13" width="1" height="1" fill="#8aa7c3"/>
<rect x="13" y="13" width="1" height="1" fill="#4d7398"/>
<rect x="14" y="13" width="1" height="1" fill="#224e7a"/>
<rect x="15" y="13" width="1" height="1" fill="#7694b1"/>
<rect x="16" y="13" width="1" height="1" fill="#d5dfe9"/>
<rect x="17" y="13" width="1" height="1" fill="#cfdae6"/>
<rect x="18" y="13" width="1" height="1" fill="#224e7a"/>
<rect x="19" y="13" width="1" height="1" fill="#53789d"/>
<rect x="20" y="13" width="1" height="1" fill="#416a94"/>
<rect x="21" y="13" width="1" height="1" fill="#5c84ac"/>
<rect x="22" y="13" width="1" height="1" fill="#234f7c"/>
<rect x="23" y="13" width="1" height="1" fill="#224e7a"/>
<rect x="24" y="13" width="1" height="1" fill="#24507b"/>
<rect x="5" y="14" width="1" height="1" fill="#224e7a"/>
<rect x="6" y="14" width="1" height="1" fill="#4b759e"/>
<rect x="7" y="14" width="1" height="1" fill="#7497b9"/>
<rect x="8" y="14" width="1" height="1" fill="#7e9dbb"/>
<rect x="9" y="14" width="1" height="1" fill="#224e7a"/>
<rect x="10" y="14" width="1" height="1" fill="#2b5682"/>
<rect x="11" y="14" width="1" height="1" fill="#7497b9"/>
<rect x="12" y="14" width="1" height="1" fill="#7598ba"/>
<rect x="13" y="14" width="1" height="1" fill="#4c7298"/>
<rect x="14" y="14" width="1" height="1" fill="#224e7a"/>
<rect x="15" y="14" width="1" height="1" fill="#5c81a5"/>
<rect x="16" y="14" width="1" height="1" fill="#adc1d5"/>
<rect x="17" y="14" width="1" height="1" fill="#ced9e5"/>
<rect x="18" y="14" width="1" height="1" fill="#224e7a"/>
<rect x="19" y="14" width="1" height="1" fill="#53789d"/>
<rect x="20" y="14" width="1" height="1" fill="#38638e"/>
<rect x="21" y="14" width="1" height="1" fill="#2e5985"/>
<rect x="22" y="14" width="1" height="1" fill="#224e7a"/>
<rect x="23" y="14" width="1" height="1" fill="#6484a5"/>
<rect x="24" y="14" width="1" height="1" fill="#24507b"/>
<rect x="5" y="15" width="1" height="1" fill="#224e7a"/>
<rect x="6" y="15" width="1" height="1" fill="#255280"/>
<rect x="7" y="15" width="1" height="1" fill="#325d88"/>
<rect x="8" y="15" width="1" height="1" fill="#355f89"/>
<rect x="9" y="15" width="1" height="1" fill="#224e7a"/>
<rect x="10" y="15" width="1" height="1" fill="#224f7b"/>
<rect x="11" y="15" width="1" height="1" fill="#325d88"/>
<rect x="12" y="15" width="1" height="1" fill="#38628b"/>
<rect x="13" y="15" width="1" height="1" fill="#2b5681"/>
<rect x="14" y="15" width="1" height="1" fill="#224e7a"/>
<rect x="15" y="15" width="1" height="1" fill="#24527f"/>
<rect x="16" y="15" width="1" height="1" fill="#3c658d"/>
<rect x="17" y="15" width="1" height="1" fill="#456b92"/>
<rect x="18" y="15" width="1" height="1" fill="#224e7a"/>
<rect x="19" y="15" width="1" height="1" fill="#53789d"/>
<rect x="20" y="15" width="1" height="1" fill="#39628b"/>
<rect x="21" y="15" width="1" height="1" fill="#2a5580"/>
<rect x="22" y="15" width="1" height="1" fill="#265482"/>
<rect x="23" y="15" width="1" height="1" fill="#9db6cd"/>
<rect x="24" y="15" width="1" height="1" fill="#24507b"/>
<rect x="5" y="16" width="1" height="1" fill="#224e7a"/>
<rect x="6" y="16" width="1" height="1" fill="#416890"/>
<rect x="7" y="16" width="1" height="1" fill="#50759b"/>
<rect x="8" y="16" width="1" height="1" fill="#4b7197"/>
<rect x="9" y="16" width="1" height="1" fill="#224e7a"/>
<rect x="10" y="16" width="1" height="1" fill="#27537e"/>
<rect x="11" y="16" width="1" height="1" fill="#4f759a"/>
<rect x="12" y="16" width="1" height="1" fill="#50759b"/>
<rect x="13" y="16" width="1" height="1" fill="#355e87"/>
<rect x="14" y="16" width="1" height="1" fill="#224e7a"/>
<rect x="15" y="16" width="1" height="1" fill="#3d658d"/>
<rect x="16" y="16" width="1" height="1" fill="#50759b"/>
<rect x="17" y="16" width="1" height="1" fill="#4e7499"/>
<rect x="18" y="16" width="1" height="1" fill="#224e7a"/>
<rect x="19" y="16" width="1" height="1" fill="#53789d"/>
<rect x="20" y="16" width="1" height="1" fill="#3f6891"/>
<rect x="21" y="16" width="1" height="1" fill="#6f91b4"/>
<rect x="22" y="16" width="1" height="1" fill="#265481"/>
<rect x="23" y="16" width="1" height="1" fill="#295887"/>
<rect x="24" y="16" width="1" height="1" fill="#24507b"/>
<rect x="5" y="17" width="1" height="1" fill="#224e7a"/>
<rect x="6" y="17" width="1" height="1" fill="#4a749d"/>
<rect x="7" y="17" width="1" height="1" fill="#8aa7c3"/>
<rect x="8" y="17" width="1" height="1" fill="#7f9ebc"/>
<rect x="9" y="17" width="1" height="1" fill="#224e7a"/>
<rect x="10" y="17" width="1" height="1" fill="#2b5682"/>
<rect x="11" y="17" width="1" height="1" fill="#7497b9"/>
<rect x="12" y="17" width="1" height="1" fill="#8aa7c3"/>
<rect x="13" y="17" width="1" height="1" fill="#4d7399"/>
<rect x="14" y="17" width="1" height="1" fill="#224e7a"/>
<rect x="15" y="17" width="1" height="1" fill="#46709a"/>
<rect x="16" y="17" width="1" height="1" fill="#8aa7c3"/>
<rect x="17" y="17" width="1" height="1" fill="#86a4c1"/>
<rect x="18" y="17" width="1" height="1" fill="#224e7a"/>
<rect x="19" y="17" width="1" height="1" fill="#53789d"/>
<rect x="20" y="17" width="1" height="1" fill="#416a94"/>
<rect x="21" y="17" width="1" height="1" fill="#547da6"/>
<rect x="22" y="17" width="1" height="1" fill="#224e7a"/>
<rect x="23" y="17" width="1" height="1" fill="#234f7b"/>
<rect x="24" y="17" width="1" height="1" fill="#24507b"/>
<rect x="5" y="18" width="1" height="1" fill="#224e7a"/>
<rect x="6" y="18" width="1" height="1" fill="#2d5d8e"/>
<rect x="7" y="18" width="1" height="1" fill="#5c84ad"/>
<rect x="8" y="18" width="1" height="1" fill="#7b9ab9"/>
<rect x="9" y="18" width="1" height="1" fill="#224e7a"/>
<rect x="10" y="18" width="1" height="1" fill="#24517e"/>
<rect x="11" y="18" width="1" height="1" fill="#5b83ac"/>
<rect x="12" y="18" width="1" height="1" fill="#7094b6"/>
<rect x="13" y="18" width="1" height="1" fill="#4b7197"/>
<rect x="14" y="18" width="1" height="1" fill="#224e7a"/>
<rect x="15" y="18" width="1" height="1" fill="#2b5c8c"/>
<rect x="16" y="18" width="1" height="1" fill="#5c84ad"/>
<rect x="17" y="18" width="1" height="1" fill="#82a0be"/>
<rect x="18" y="18" width="1" height="1" fill="#224e7a"/>
<rect x="19" y="18" width="1" height="1" fill="#53789d"/>
<rect x="20" y="18" width="1" height="1" fill="#38628c"/>
<rect x="21" y="18" width="1" height="1" fill="#24507c"/>
<rect x="22" y="18" width="1" height="1" fill="#27537f"/>
<rect x="23" y="18" width="1" height="1" fill="#6387ab"/>
<rect x="24" y="18" width="1" height="1" fill="#24507b"/>
<rect x="5" y="19" width="14" height="1" fill="#224e7a"/>
<rect x="19" y="19" width="1" height="1" fill="#53789d"/>
<rect x="20" y="19" width="1" height="1" fill="#39628b"/>
<rect x="21" y="19" width="1" height="1" fill="#426a91"/>
<rect x="22" y="19" width="1" height="1" fill="#305b87"/>
<rect x="23" y="19" width="1" height="1" fill="#5b84ac"/>
<rect x="24" y="19" width="1" height="1" fill="#24507b"/>
<rect x="5" y="20" width="1" height="1" fill="#224e7a"/>
<rect x="6" y="20" width="1" height="1" fill="#487098"/>
<rect x="7" y="20" width="1" height="1" fill="#5980a6"/>
<rect x="8" y="20" width="1" height="1" fill="#537aa1"/>
<rect x="9" y="20" width="1" height="1" fill="#224e7a"/>
<rect x="10" y="20" width="1" height="1" fill="#285480"/>
<rect x="11" y="20" width="1" height="1" fill="#597fa6"/>
<rect x="12" y="20" width="1" height="1" fill="#5980a6"/>
<rect x="13" y="20" width="1" height="1" fill="#38628c"/>
<rect x="14" y="20" width="1" height="1" fill="#224e7a"/>
<rect x="15" y="20" width="1" height="1" fill="#51769b"/>
<rect x="16" y="20" width="1" height="1" fill="#7191b2"/>
<rect x="17" y="20" width="1" height="1" fill="#6d8faf"/>
<rect x="18" y="20" width="1" height="1" fill="#224e7a"/>
<rect x="19" y="20" width="1" height="1" fill="#53789d"/>
<rect x="20" y="20" width="1" height="1" fill="#426b94"/>
<rect x="21" y="20" width="1" height="1" fill="#7798ba"/>
<rect x="22" y="20" width="1" height="1" fill="#24517f"/>
<rect x="23" y="20" width="1" height="1" fill="#2b5782"/>
<rect x="24" y="20" width="1" height="1" fill="#24507b"/>
<rect x="5" y="21" width="1" height="1" fill="#224e7a"/>
<rect x="6" y="21" width="1" height="1" fill="#416d99"/>
<rect x="7" y="21" width="1" height="1" fill="#6b90b4"/>
<rect x="8" y="21" width="1" height="1" fill="#6389ae"/>
<rect x="9" y="21" width="1" height="1" fill="#224e7a"/>
<rect x="10" y="21" width="1" height="1" fill="#295581"/>
<rect x="11" y="21" width="1" height="1" fill="#5d86ad"/>
<rect x="12" y="21" width="1" height="1" fill="#6b90b4"/>
<rect x="13" y="21" width="1" height="1" fill="#406992"/>
<rect x="14" y="21" width="1" height="1" fill="#224e7a"/>
<rect x="15" y="21" width="1" height="1" fill="#46709a"/>
<rect x="16" y="21" width="1" height="1" fill="#8aa7c3"/>
<rect x="17" y="21" width="1" height="1" fill="#86a4c1"/>
<rect x="18" y="21" width="1" height="1" fill="#224e7a"/>
<rect x="19" y="21" width="1" height="1" fill="#53789d"/>
<rect x="20" y="21" width="1" height="1" fill="#416a94"/>
<rect x="21" y="21" width="1" height="1" fill="#436d97"/>
<rect x="22" y="21" width="1" height="1" fill="#224e7a"/>
<rect x="23" y="21" width="1" height="1" fill="#2d5782"/>
<rect x="24" y="21" width="1" height="1" fill="#24507b"/>
<rect x="5" y="22" width="1" height="1" fill="#224e7a"/>
<rect x="6" y="22" width="1" height="1" fill="#295888"/>
<rect x="7" y="22" width="1" height="1" fill="#3f6b96"/>
<rect x="8" y="22" width="1" height="1" fill="#4b739b"/>
<rect x="9" y="22" width="1" height="1" fill="#224e7a"/>
<rect x="10" y="22" width="1" height="1" fill="#23507d"/>
<rect x="11" y="22" width="1" height="1" fill="#3f6b97"/>
<rect x="12" y="22" width="1" height="1" fill="#48729b"/>
<rect x="13" y="22" width="1" height="1" fill="#355f8a"/>
<rect x="14" y="22" width="1" height="1" fill="#224e7a"/>
<rect x="15" y="22" width="1" height="1" fill="#285786"/>
<rect x="16" y="22" width="1" height="1" fill="#49729c"/>
<rect x="17" y="22" width="1" height="1" fill="#6385a8"/>
<rect x="18" y="22" width="1" height="1" fill="#224e7a"/>
<rect x="19" y="22" width="1" height="1" fill="#53789d"/>
<rect x="20" y="22" width="1" height="1" fill="#39628b"/>
<rect x="21" y="22" width="1" height="1" fill="#224e7a"/>
<rect x="22" y="22" width="1" height="1" fill="#2b5782"/>
<rect x="23" y="22" width="1" height="1" fill="#7294b6"/>
<rect x="24" y="22" width="1" height="1" fill="#24507b"/>
<rect x="5" y="23" width="1" height="1" fill="#224e7a"/>
<rect x="6" y="23" width="1" height="1" fill="#25517c"/>
<rect x="7" y="23" width="1" height="1" fill="#26527e"/>
<rect x="8" y="23" width="1" height="1" fill="#26517d"/>
<rect x="9" y="23" width="2" height="1" fill="#224e7a"/>
<rect x="11" y="23" width="2" height="1" fill="#26527e"/>
<rect x="13" y="23" width="1" height="1" fill="#24507c"/>
<rect x="14" y="23" width="1" height="1" fill="#224e7a"/>
<rect x="15" y="23" width="1" height="1" fill="#26517d"/>
<rect x="16" y="23" width="1" height="1" fill="#28537f"/>
<rect x="17" y="23" width="1" height="1" fill="#28537e"/>
<rect x="18" y="23" width="1" height="1" fill="#224e7a"/>
<rect x="19" y="23" width="1" height="1" fill="#53789d"/>
<rect x="20" y="23" width="1" height="1" fill="#3a638c"/>
<rect x="21" y="23" width="1" height="1" fill="#4c749b"/>
<rect x="22" y="23" width="1" height="1" fill="#305b87"/>
<rect x="23" y="23" width="1" height="1" fill="#537ca5"/>
<rect x="24" y="23" width="1" height="1" fill="#24507b"/>
<rect x="5" y="24" width="1" height="1" fill="#224e7a"/>
<rect x="6" y="24" width="1" height="1" fill="#4a749d"/>
<rect x="7" y="24" width="1" height="1" fill="#6b90b4"/>
<rect x="8" y="24" width="1" height="1" fill="#6389ae"/>
<rect x="9" y="24" width="1" height="1" fill="#224e7a"/>
<rect x="10" y="24" width="1" height="1" fill="#295581"/>
<rect x="11" y="24" width="1" height="1" fill="#5d86ad"/>
<rect x="12" y="24" width="1" height="1" fill="#6b90b4"/>
<rect x="13" y="24" width="1" height="1" fill="#406992"/>
<rect x="14" y="24" width="1" height="1" fill="#224e7a"/>
<rect x="15" y="24" width="1" height="1" fill="#537aa0"/>
<rect x="16" y="24" width="1" height="1" fill="#8aa7c3"/>
<rect x="17" y="24" width="1" height="1" fill="#86a4c1"/>
<rect x="18" y="24" width="1" height="1" fill="#224e7a"/>
<rect x="19" y="24" width="1" height="1" fill="#53789d"/>
<rect x="20" y="24" width="1" height="1" fill="#37638f"/>
<rect x="21" y="24" width="1" height="1" fill="#6088ae"/>
<rect x="22" y="24" width="1" height="1" fill="#23507d"/>
<rect x="23" y="24" width="1" height="1" fill="#24507c"/>
<rect x="24" y="24" width="1" height="1" fill="#24507b"/>
<rect x="5" y="25" width="1" height="1" fill="#224e7a"/>
<rect x="6" y="25" width="1" height="1" fill="#406c98"/>
<rect x="7" y="25" width="1" height="1" fill="#5d86ad"/>
<rect x="8" y="25" width="1" height="1" fill="#6288ad"/>
<rect x="9" y="25" width="1" height="1" fill="#224e7a"/>
<rect x="10" y="25" width="1" height="1" fill="#295581"/>
<rect x="11" y="25" width="1" height="1" fill="#507ca7"/>
<rect x="12" y="25" width="1" height="1" fill="#5d86ad"/>
<rect x="13" y="25" width="1" height="1" fill="#406992"/>
<rect x="14" y="25" width="1" height="1" fill="#224e7a"/>
<rect x="15" y="25" width="1" height="1" fill="#46709a"/>
<rect x="16" y="25" width="1" height="1" fill="#7497b9"/>
<rect x="17" y="25" width="1" height="1" fill="#86a3c0"/>
<rect x="18" y="25" width="1" height="1" fill="#224e7a"/>
<rect x="19" y="25" width="1" height="1" fill="#53789d"/>
<rect x="20" y="25" width="1" height="1" fill="#37638e"/>
<rect x="21" y="25" width="1" height="1" fill="#275584"/>
<rect x="22" y="25" width="1" height="1" fill="#224e7a"/>
<rect x="23" y="25" width="1" height="1" fill="#355f89"/>
<rect x="24" y="25" width="1" height="1" fill="#24507b"/>
<rect x="5" y="26" width="1" height="1" fill="#224e7a"/>
<rect x="6" y="26" width="1" height="1" fill="#255381"/>
<rect x="7" y="26" width="1" height="1" fill="#315d89"/>
<rect x="8" y="26" width="1" height="1" fill="#335e89"/>
<rect x="9" y="26" width="1" height="1" fill="#224e7a"/>
<rect x="10" y="26" width="1" height="1" fill="#234f7c"/>
<rect x="11" y="26" width="2" height="1" fill="#315d89"/>
<rect x="13" y="26" width="1" height="1" fill="#2a5581"/>
<rect x="14" y="26" width="1" height="1" fill="#224e7a"/>
<rect x="15" y="26" width="1" height="1" fill="#255380"/>
<rect x="16" y="26" width="1" height="1" fill="#36618c"/>
<rect x="17" y="26" width="1" height="1" fill="#3c658e"/>
<rect x="18" y="26" width="1" height="1" fill="#224e7a"/>
<rect x="19" y="26" width="1" height="1" fill="#53789d"/>
<rect x="20" y="26" width="1" height="1" fill="#39628b"/>
<rect x="21" y="26" width="1" height="1" fill="#234f7b"/>
<rect x="22" y="26" width="1" height="1" fill="#2f5b86"/>
<rect x="23" y="26" width="1" height="1" fill="#6d92b5"/>
<rect x="24" y="26" width="1" height="1" fill="#24507b"/>
<rect x="5" y="27" width="1" height="1" fill="#224e7a"/>
<rect x="6" y="27" width="1" height="1" fill="#335d88"/>
<rect x="7" y="27" width="1" height="1" fill="#3d6790"/>
<rect x="8" y="27" width="1" height="1" fill="#3a648e"/>
<rect x="9" y="27" width="1" height="1" fill="#224e7a"/>
<rect x="10" y="27" width="1" height="1" fill="#25517d"/>
<rect x="11" y="27" width="1" height="1" fill="#3d6790"/>
<rect x="12" y="27" width="1" height="1" fill="#3e6790"/>
<rect x="13" y="27" width="1" height="1" fill="#2d5883"/>
<rect x="14" y="27" width="1" height="1" fill="#224e7a"/>
<rect x="15" y="27" width="1" height="1" fill="#305b86"/>
<rect x="16" y="27" width="1" height="1" fill="#3d6790"/>
<rect x="17" y="27" width="1" height="1" fill="#3c668f"/>
<rect x="18" y="27" width="1" height="1" fill="#224e7a"/>
<rect x="19" y="27" width="1" height="1" fill="#53789d"/>
<rect x="20" y="27" width="1" height="1" fill="#3a638c"/>
<rect x="21" y="27" width="1" height="1" fill="#5f85aa"/>
<rect x="22" y="27" width="1" height="1" fill="#37628d"/>
<rect x="23" y="27" width="1" height="1" fill="#5f87af"/>
<rect x="24" y="27" width="1" height="1" fill="#24507b"/>
<rect x="5" y="28" width="1" height="1" fill="#224e7a"/>
<rect x="6" y="28" width="1" height="1" fill="#4a749d"/>
<rect x="7" y="28" width="1" height="1" fill="#648bb1"/>
<rect x="8" y="28" width="1" height="1" fill="#6288ad"/>
<rect x="9" y="28" width="1" height="1" fill="#224e7a"/>
<rect x="10" y="28" width="1" height="1" fill="#2a5682"/>
<rect x="11" y="28" width="1" height="1" fill="#6289b0"/>
<rect x="12" y="28" width="1" height="1" fill="#6b90b4"/>
<rect x="13" y="28" width="1" height="1" fill="#406992"/>
<rect x="14" y="28" width="1" height="1" fill="#224e7a"/>
<rect x="15" y="28" width="1" height="1" fill="#436e98"/>
<rect x="16" y="28" width="1" height="1" fill="#6289b0"/>
<rect x="17" y="28" width="1" height="1" fill="#688db2"/>
<rect x="18" y="28" width="1" height="1" fill="#224e7a"/>
<rect x="19" y="28" width="1" height="1" fill="#53789d"/>
<rect x="20" y="28" width="1" height="1" fill="#3b648d"/>
<rect x="21" y="28" width="1" height="1" fill="#6088af"/>
<rect x="22" y="28" width="1" height="1" fill="#34608c"/>
<rect x="23" y="28" width="1" height="1" fill="#507ca8"/>
<rect x="24" y="28" width="1" height="1" fill="#27527c"/>
<rect x="5" y="29" width="1" height="1" fill="#224e7a"/>
<rect x="6" y="29" width="1" height="1" fill="#46719b"/>
<rect x="7" y="29" width="1" height="1" fill="#5d86ad"/>
<rect x="8" y="29" width="1" height="1" fill="#5c84ab"/>
<rect x="9" y="29" width="1" height="1" fill="#224e7a"/>
<rect x="10" y="29" width="1" height="1" fill="#2a5682"/>
<rect x="11" y="29" width="1" height="1" fill="#5983ac"/>
<rect x="12" y="29" width="1" height="1" fill="#6289b0"/>
<rect x="13" y="29" width="1" height="1" fill="#406992"/>
<rect x="14" y="29" width="1" height="1" fill="#224e7a"/>
<rect x="15" y="29" width="1" height="1" fill="#426d98"/>
<rect x="16" y="29" width="1" height="1" fill="#5983ac"/>
<rect x="17" y="29" width="1" height="1" fill="#5f86ae"/>
<rect x="18" y="29" width="1" height="1" fill="#224e7a"/>
<rect x="19" y="29" width="1" height="1" fill="#53789d"/>
<rect x="20" y="29" width="1" height="1" fill="#3a638d"/>
<rect x="21" y="29" width="1" height="1" fill="#517da8"/>
<rect x="22" y="29" width="1" height="1" fill="#2d5b89"/>
<rect x="23" y="29" width="1" height="1" fill="#4874a0"/>
<rect x="24" y="29" width="1" height="1" fill="#a1aab2"/>
<rect x="5" y="30" width="1" height="1" fill="#224e7a"/>
<rect x="6" y="30" width="1" height="1" fill="#45709b"/>
<rect x="7" y="30" width="1" height="1" fill="#5781ab"/>
<rect x="8" y="30" width="1" height="1" fill="#567fa7"/>
<rect x="9" y="30" width="1" height="1" fill="#224e7a"/>
<rect x="10" y="30" width="1" height="1" fill="#295581"/>
<rect x="11" y="30" width="1" height="1" fill="#5882ab"/>
<rect x="12" y="30" width="1" height="1" fill="#5983ac"/>
<rect x="13" y="30" width="1" height="1" fill="#3c6690"/>
<rect x="14" y="30" width="1" height="1" fill="#224e7a"/>
<rect x="15" y="30" width="1" height="1" fill="#3d6995"/>
<rect x="16" y="30" width="1" height="1" fill="#5882ab"/>
<rect x="17" y="30" width="1" height="1" fill="#5681aa"/>
<rect x="18" y="30" width="1" height="1" fill="#224e7a"/>
<rect x="19" y="30" width="1" height="1" fill="#53789d"/>
<rect x="20" y="30" width="1" height="1" fill="#38628c"/>
<rect x="21" y="30" width="1" height="1" fill="#4b78a5"/>
<rect x="22" y="30" width="1" height="1" fill="#5b7a99"/>
<rect x="5" y="31" width="1" height="1" fill="#4c6c8d"/>
<rect x="6" y="31" width="1" height="1" fill="#4e749a"/>
<rect x="7" y="31" width="1" height="1" fill="#547ba3"/>
<rect x="8" y="31" width="1" height="1" fill="#537aa1"/>
<rect x="9" y="31" width="1" height="1" fill="#4c6c8d"/>
<rect x="10" y="31" width="1" height="1" fill="#496b8e"/>
<rect x="11" y="31" width="1" height="1" fill="#4f78a0"/>
<rect x="12" y="31" width="1" height="1" fill="#557da4"/>
<rect x="13" y="31" width="1" height="1" fill="#507396"/>
<rect x="14" y="31" width="1" height="1" fill="#4c6c8d"/>
<rect x="15" y="31" width="1" height="1" fill="#416992"/>
<rect x="16" y="31" width="1" height="1" fill="#4f78a0"/>
<rect x="17" y="31" width="1" height="1" fill="#557ca3"/>
<rect x="18" y="31" width="1" height="1" fill="#4c6c8d"/>
<rect x="19" y="31" width="1" height="1" fill="#6281a0"/>
<rect x="20" y="31" width="1" height="1" fill="#547596"/>
<rect x="21" y="31" width="1" height="1" fill="#738ca5"/>
</svg>