<svg xmlns="http://www.w3.org/2000/svg" width="32" height="32" viewBox="0 0 32 32" shape-rendering="crispEdges">
<rect x="14" y="1" width="1" height="1" fill="#90a9c1"/>
<rect x="15" y="1" width="1" height="1" fill="#85a4c1"/>
<rect x="16" y="1" width="1" height="1" fill="#97adc1"/>
<rect x="13" y="2" width="1" height="1" fill="#91aac1"/>
<rect x="14" y="2" width="3" height="1" fill="#85a4c1"/>
<rect x="17" y="2" width="1" height="1" fill="#99adc1"/>
<rect x="12" y="3" width="1" height="1" fill="#92aac1"/>
<rect x="13" y="3" width="2" height="1" fill="#85a4c1"/>
<rect x="15" y="3" width="1" height="1" fill="#84a3c1"/>
<rect x="16" y="3" width="2" height="1" fill="#85a4c1"/>
<rect x="18" y="3" width="1" height="1" fill="#9aaec1"/>
<rect x="21" y="3" width="1" height="1" fill="#87a5c1"/>
<rect x="22" y="3" width="2" height="1" fill="#85a4c1"/>
<rect x="24" y="3" width="1" height="1" fill="#9bafc1"/>
<rect x="11" y="4" width="1" height="1" fill="#93abc1"/>
<rect x="12" y="4" width="2" height="1" fill="#85a4c1"/>
<rect x="14" y="4" width="1" height="1" fill="#7a9bba"/>
<rect x="15" y="4" width="1" height="1" fill="#4c7398"/>
<rect x="16" y="4" width="1" height="1" fill="#7899b8"/>
<rect x="17" y="4" width="2" height="1" fill="#85a4c1"/>
<rect x="19" y="4" width="1" height="1" fill="#9cafc1"/>
<rect x="21" y="4" width="1" height="1" fill="#87a5c1"/>
<rect x="22" y="4" width="2" height="1" fill="#85a4c1"/>
<rect x="24" y="4" width="1" height="1" fill="#9bafc1"/>
<rect x="10" y="5" width="1" height="1" fill="#95acc1"/>
<rect x="11" y="5" width="2" height="1" fill="#85a4c1"/>
<rect x="13" y="5" width="1" height="1" fill="#7c9cbb"/>
<rect x="14" y="5" width="1" height="1" fill="#476f95"/>
<rect x="15" y="5" width="1" height="1" fill="#426a91"/>
<rect x="16" y="5" width="1" height="1" fill="#496f96"/>
<rect x="17" y="5" width="1" height="1" fill="#7a9ab9"/>
<rect x="18" y="5" width="2" height="1" fill="#85a4c1"/>
<rect x="20" y="5" width="1" height="1" fill="#9eb0c1"/>
<rect x="21" y="5" width="1" height="1" fill="#87a5c1"/>
<rect x="22" y="5" width="2" height="1" fill="#85a4c1"/>
<rect x="24" y="5" width="1" height="1" fill="#9bafc1"/>
<rect x="9" y="6" width="1" height="1" fill="#96acc1"/>
<rect x="10" y="6" width="2" height="1" fill="#85a4c1"/>
<rect x="12" y="6" width="1" height="1" fill="#7d9dbb"/>
<rect x="13" y="6" width="1" height="1" fill="#476e94"/>
<rect x="14" y="6" width="1" height="1" fill="#3f678f"/>
<rect x="15" y="6" width="1" height="1" fill="#416990"/>
<rect x="16" y="6" width="1" height="1" fill="#436a91"/>
<rect x="17" y="6" width="1" height="1" fill="#4b7196"/>
<rect x="18" y="6" width="1" height="1" fill="#7b9cba"/>
<rect x="19" y="6" width="2" height="1" fill="#85a4c1"/>
<rect x="21" y="6" width="1" height="1" fill="#86a5c1"/>
<rect x="22" y="6" width="2" height="1" fill="#85a4c1"/>
<rect x="24" y="6" width="1" height="1" fill="#9bafc1"/>
<rect x="8" y="7" width="1" height="1" fill="#98adc1"/>
<rect x="9" y="7" width="2" height="1" fill="#85a4c1"/>
<rect x="11" y="7" width="1" height="1" fill="#7e9ebc"/>
<rect x="12" y="7" width="1" height="1" fill="#476e94"/>
<rect x="13" y="7" width="1" height="1" fill="#3e668d"/>
<rect x="14" y="7" width="1" height="1" fill="#3f678f"/>
<rect x="15" y="7" width="1" height="1" fill="#416990"/>
<rect x="16" y="7" width="1" height="1" fill="#436a91"/>
<rect x="17" y="7" width="1" height="1" fill="#456c92"/>
<rect x="18" y="7" width="1" height="1" fill="#4d7399"/>
<rect x="19" y="7" width="1" height="1" fill="#7d9dbc"/>
<rect x="20" y="7" width="4" height="1" fill="#85a4c1"/>
<rect x="24" y="7" width="1" height="1" fill="#9bafc1"/>
<rect x="7" y="8" width="1" height="1" fill="#99aec1"/>
<rect x="8" y="8" width="2" height="1" fill="#85a4c1"/>
<rect x="10" y="8" width="1" height="1" fill="#7f9fbd"/>
<rect x="11" y="8" width="1" height="1" fill="#476e95"/>
<rect x="12" y="8" width="1" height="1" fill="#3c648c"/>
<rect x="13" y="8" width="1" height="1" fill="#3e668d"/>
<rect x="14" y="8" width="1" height="1" fill="#3f678f"/>
<rect x="15" y="8" width="1" height="1" fill="#416990"/>
<rect x="16" y="8" width="1" height="1" fill="#436a91"/>
<rect x="17" y="8" width="1" height="1" fill="#456c92"/>
<rect x="18" y="8" width="1" height="1" fill="#466d94"/>
<rect x="19" y="8" width="1" height="1" fill="#50769b"/>
<rect x="20" y="8" width="1" height="1" fill="#7f9ebd"/>
<rect x="21" y="8" width="3" height="1" fill="#85a4c1"/>
<rect x="24" y="8" width="1" height="1" fill="#9bafc1"/>
<rect x="6" y="9" width="1" height="1" fill="#9bafc1"/>
<rect x="7" y="9" width="2" height="1" fill="#85a4c1"/>
<rect x="9" y="9" width="1" height="1" fill="#80a0be"/>
<rect x="10" y="9" width="1" height="1" fill="#476e95"/>
<rect x="11" y="9" width="1" height="1" fill="#3a628b"/>
<rect x="12" y="9" width="1" height="1" fill="#3b648c"/>
<rect x="13" y="9" width="1" height="1" fill="#3d658d"/>
<rect x="14" y="9" width="1" height="1" fill="#3f678e"/>
<rect x="15" y="9" width="1" height="1" fill="#406890"/>
<rect x="16" y="9" width="1" height="1" fill="#426a91"/>
<rect x="17" y="9" width="1" height="1" fill="#446b92"/>
<rect x="18" y="9" width="1" height="1" fill="#466d93"/>
<rect x="19" y="9" width="1" height="1" fill="#476e95"/>
<rect x="20" y="9" width="1" height="1" fill="#52789d"/>
<rect x="21" y="9" width="1" height="1" fill="#809fbd"/>
<rect x="22" y="9" width="2" height="1" fill="#85a4c1"/>
<rect x="24" y="9" width="1" height="1" fill="#97adc1"/>
<rect x="5" y="10" width="1" height="1" fill="#9cafc1"/>
<rect x="6" y="10" width="2" height="1" fill="#85a4c1"/>
<rect x="8" y="10" width="1" height="1" fill="#81a1bf"/>
<rect x="9" y="10" width="1" height="1" fill="#486f95"/>
<rect x="10" y="10" width="1" height="1" fill="#38618a"/>
<rect x="11" y="10" width="1" height="1" fill="#3a628b"/>
<rect x="12" y="10" width="1" height="1" fill="#3b648c"/>
<rect x="13" y="10" width="1" height="1" fill="#3d658d"/>
<rect x="14" y="10" width="1" height="1" fill="#3f678e"/>
<rect x="15" y="10" width="1" height="1" fill="#406890"/>
<rect x="16" y="10" width="1" height="1" fill="#426a91"/>
<rect x="17" y="10" width="1" height="1" fill="#446b92"/>
<rect x="18" y="10" width="1" height="1" fill="#466d93"/>
<rect x="19" y="10" width="1" height="1" fill="#476e95"/>
<rect x="20" y="10" width="1" height="1" fill="#497096"/>
<rect x="21" y="10" width="1" height="1" fill="#557a9f"/>
<rect x="22" y="10" width="1" height="1" fill="#81a0be"/>
<rect x="23" y="10" width="2" height="1" fill="#85a4c1"/>
<rect x="4" y="11" width="1" height="1" fill="#9eb0c1"/>
<rect x="5" y="11" width="2" height="1" fill="#85a4c1"/>
<rect x="7" y="11" width="1" height="1" fill="#82a2bf"/>
<rect x="8" y="11" width="1" height="1" fill="#486f95"/>
<rect x="9" y="11" width="1" height="1" fill="#355e87"/>
<rect x="10" y="11" width="1" height="1" fill="#376089"/>
<rect x="11" y="11" width="1" height="1" fill="#39618a"/>
<rect x="12" y="11" width="1" height="1" fill="#3a638b"/>
<rect x="13" y="11" width="1" height="1" fill="#3c648c"/>
<rect x="14" y="11" width="1" height="1" fill="#3e668d"/>
<rect x="15" y="11" width="1" height="1" fill="#3f678f"/>
<rect x="16" y="11" width="1" height="1" fill="#416990"/>
<rect x="17" y="11" width="1" height="1" fill="#436a91"/>
<rect x="18" y="11" width="1" height="1" fill="#456c92"/>
<rect x="19" y="11" width="1" height="1" fill="#466d94"/>
<rect x="20" y="11" width="1" height="1" fill="#486f95"/>
<rect x="21" y="11" width="1" height="1" fill="#4a7096"/>
<rect x="22" y="11" width="1" height="1" fill="#567ca0"/>
<rect x="23" y="11" width="1" height="1" fill="#81a1bf"/>
<rect x="24" y="11" width="2" height="1" fill="#85a4c1"/>
<rect x="3" y="12" width="1" height="1" fill="#a0b1c1"/>
<rect x="4" y="12" width="2" height="1" fill="#85a4c1"/>
<rect x="6" y="12" width="1" height="1" fill="#83a2c0"/>
<rect x="7" y="12" width="1" height="1" fill="#497096"/>
<rect x="8" y="12" width="1" height="1" fill="#335d86"/>
<rect x="9" y="12" width="1" height="1" fill="#355e87"/>
<rect x="10" y="12" width="1" height="1" fill="#376089"/>
<rect x="11" y="12" width="1" height="1" fill="#39618a"/>
<rect x="12" y="12" width="1" height="1" fill="#3a638b"/>
<rect x="13" y="12" width="1" height="1" fill="#3c648c"/>
<rect x="14" y="12" width="1" height="1" fill="#3e668d"/>
<rect x="15" y="12" width="1" height="1" fill="#3f678f"/>
<rect x="16" y="12" width="1" height="1" fill="#416990"/>
<rect x="17" y="12" width="1" height="1" fill="#436a91"/>
<rect x="18" y="12" width="1" height="1" fill="#456c92"/>
<rect x="19" y="12" width="1" height="1" fill="#466d94"/>
<rect x="20" y="12" width="1" height="1" fill="#486f95"/>
<rect x="21" y="12" width="1" height="1" fill="#4a7096"/>
<rect x="22" y="12" width="1" height="1" fill="#4b7297"/>
<rect x="23" y="12" width="1" height="1" fill="#5a7ea2"/>
<rect x="24" y="12" width="1" height="1" fill="#82a2bf"/>
<rect x="25" y="12" width="2" height="1" fill="#85a4c1"/>
<rect x="2" y="13" width="1" height="1" fill="#a2b2c1"/>
<rect x="3" y="13" width="2" height="1" fill="#85a4c1"/>
<rect x="5" y="13" width="1" height="1" fill="#84a3c0"/>
<rect x="6" y="13" width="1" height="1" fill="#4a7197"/>
<rect x="7" y="13" width="1" height="1" fill="#315b85"/>
<rect x="8" y="13" width="1" height="1" fill="#335c86"/>
<rect x="9" y="13" width="1" height="1" fill="#345e87"/>
<rect x="10" y="13" width="1" height="1" fill="#365f88"/>
<rect x="11" y="13" width="1" height="1" fill="#38618a"/>
<rect x="12" y="13" width="1" height="1" fill="#3a628b"/>
<rect x="13" y="13" width="1" height="1" fill="#3b648c"/>
<rect x="14" y="13" width="1" height="1" fill="#3d658d"/>
<rect x="15" y="13" width="1" height="1" fill="#3f678e"/>
<rect x="16" y="13" width="1" height="1" fill="#406890"/>
<rect x="17" y="13" width="1" height="1" fill="#426a91"/>
<rect x="18" y="13" width="1" height="1" fill="#446b92"/>
<rect x="19" y="13" width="1" height="1" fill="#466d93"/>
<rect x="20" y="13" width="1" height="1" fill="#476e95"/>
<rect x="21" y="13" width="1" height="1" fill="#497096"/>
<rect x="22" y="13" width="1" height="1" fill="#4b7197"/>
<rect x="23" y="13" width="1" height="1" fill="#4c7398"/>
<rect x="24" y="13" width="1" height="1" fill="#5c80a4"/>
<rect x="25" y="13" width="1" height="1" fill="#83a3c0"/>
<rect x="26" y="13" width="1" height="1" fill="#85a4c1"/>
<rect x="27" y="13" width="1" height="1" fill="#86a5c1"/>
<rect x="2" y="14" width="1" height="1" fill="#92aac1"/>
<rect x="3" y="14" width="1" height="1" fill="#85a4c1"/>
<rect x="4" y="14" width="1" height="1" fill="#84a3c1"/>
<rect x="5" y="14" width="1" height="1" fill="#4d7398"/>
<rect x="6" y="14" width="1" height="1" fill="#2f5983"/>
<rect x="7" y="14" width="1" height="1" fill="#315b85"/>
<rect x="8" y="14" width="1" height="1" fill="#335c86"/>
<rect x="9" y="14" width="1" height="1" fill="#345e87"/>
<rect x="10" y="14" width="1" height="1" fill="#365f88"/>
<rect x="11" y="14" width="1" height="1" fill="#38618a"/>
<rect x="12" y="14" width="1" height="1" fill="#3a628b"/>
<rect x="13" y="14" width="1" height="1" fill="#3b648c"/>
<rect x="14" y="14" width="1" height="1" fill="#3d658d"/>
<rect x="15" y="14" width="1" height="1" fill="#3f678e"/>
<rect x="16" y="14" width="1" height="1" fill="#406890"/>
<rect x="17" y="14" width="1" height="1" fill="#426a91"/>
<rect x="18" y="14" width="1" height="1" fill="#446b92"/>
<rect x="19" y="14" width="1" height="1" fill="#466d93"/>
<rect x="20" y="14" width="1" height="1" fill="#476e95"/>
<rect x="21" y="14" width="1" height="1" fill="#497096"/>
<rect x="22" y="14" width="1" height="1" fill="#4b7197"/>
<rect x="23" y="14" width="1" height="1" fill="#4c7398"/>
<rect x="24" y="14" width="1" height="1" fill="#4e749a"/>
<rect x="25" y="14" width="1" height="1" fill="#5f83a6"/>
<rect x="26" y="14" width="1" height="1" fill="#84a3c0"/>
<rect x="27" y="14" width="1" height="1" fill="#85a4c1"/>
<rect x="28" y="14" width="1" height="1" fill="#9aaec1"/>
<rect x="3" y="15" width="1" height="1" fill="#9dafc1"/>
<rect x="4" y="15" width="1" height="1" fill="#55779a"/>
<rect x="5" y="15" width="1" height="1" fill="#2e5882"/>
<rect x="6" y="15" width="1" height="1" fill="#2f5983"/>
<rect x="7" y="15" width="1" height="1" fill="#315b85"/>
<rect x="8" y="15" width="1" height="1" fill="#335c86"/>
<rect x="9" y="15" width="1" height="1" fill="#345e87"/>
<rect x="10" y="15" width="1" height="1" fill="#365f88"/>
<rect x="11" y="15" width="1" height="1" fill="#38618a"/>
<rect x="12" y="15" width="1" height="1" fill="#3a628b"/>
<rect x="13" y="15" width="1" height="1" fill="#3b648c"/>
<rect x="14" y="15" width="1" height="1" fill="#3d658d"/>
<rect x="15" y="15" width="1" height="1" fill="#3f678e"/>
<rect x="16" y="15" width="1" height="1" fill="#406890"/>
<rect x="17" y="15" width="1" height="1" fill="#426a91"/>
<rect x="18" y="15" width="1" height="1" fill="#446b92"/>
<rect x="19" y="15" width="1" height="1" fill="#466d93"/>
<rect x="20" y="15" width="1" height="1" fill="#476e95"/>
<rect x="21" y="15" width="1" height="1" fill="#497096"/>
<rect x="22" y="15" width="1" height="1" fill="#4b7197"/>
<rect x="23" y="15" width="1" height="1" fill="#4c7398"/>
<rect x="24" y="15" width="1" height="1" fill="#4e749a"/>
<rect x="25" y="15" width="1" height="1" fill="#50769b"/>
<rect x="26" y="15" width="1" height="1" fill="#708daa"/>
<rect x="27" y="15" width="1" height="1" fill="#a0b1c1"/>
<rect x="4" y="16" width="1" height="1" fill="#355c83"/>
<rect x="5" y="16" width="1" height="1" fill="#2d5781"/>
<rect x="6" y="16" width="1" height="1" fill="#2e5882"/>
<rect x="7" y="16" width="1" height="1" fill="#305a84"/>
<rect x="8" y="16" width="1" height="1" fill="#325b85"/>
<rect x="9" y="16" width="1" height="1" fill="#335d86"/>
<rect x="10" y="16" width="1" height="1" fill="#355e87"/>
<rect x="11" y="16" width="1" height="1" fill="#376089"/>
<rect x="12" y="16" width="1" height="1" fill="#39618a"/>
<rect x="13" y="16" width="1" height="1" fill="#3a638b"/>
<rect x="14" y="16" width="1" height="1" fill="#3c648c"/>
<rect x="15" y="16" width="1" height="1" fill="#3e668d"/>
<rect x="16" y="16" width="1" height="1" fill="#3f6890"/>
<rect x="17" y="16" width="1" height="1" fill="#497095"/>
<rect x="18" y="16" width="1" height="1" fill="#4c7297"/>
<rect x="19" y="16" width="1" height="1" fill="#4f7498"/>
<rect x="20" y="16" width="1" height="1" fill="#50759a"/>
<rect x="21" y="16" width="1" height="1" fill="#53789c"/>
<rect x="22" y="16" width="1" height="1" fill="#4b7197"/>
<rect x="23" y="16" width="1" height="1" fill="#4b7297"/>
<rect x="24" y="16" width="1" height="1" fill="#4d7399"/>
<rect x="25" y="16" width="1" height="1" fill="#4f759a"/>
<rect x="26" y="16" width="1" height="1" fill="#63819f"/>
<rect x="4" y="17" width="1" height="1" fill="#355c83"/>
<rect x="5" y="17" width="1" height="1" fill="#2d5781"/>
<rect x="6" y="17" width="1" height="1" fill="#2e5882"/>
<rect x="7" y="17" width="1" height="1" fill="#305a84"/>
<rect x="8" y="17" width="1" height="1" fill="#325b85"/>
<rect x="9" y="17" width="1" height="1" fill="#335d86"/>
<rect x="10" y="17" width="1" height="1" fill="#355e87"/>
<rect x="11" y="17" width="1" height="1" fill="#376089"/>
<rect x="12" y="17" width="1" height="1" fill="#39618a"/>
<rect x="13" y="17" width="1" height="1" fill="#3a638b"/>
<rect x="14" y="17" width="1" height="1" fill="#3c648c"/>
<rect x="15" y="17" width="1" height="1" fill="#3e668d"/>
<rect x="16" y="17" width="1" height="1" fill="#476e95"/>
<rect x="17" y="17" width="1" height="1" fill="#9cb5cd"/>
<rect x="18" y="17" width="1" height="1" fill="#adc1d5"/>
<rect x="19" y="17" width="1" height="1" fill="#bdcddd"/>
<rect x="20" y="17" width="1" height="1" fill="#c6d4e2"/>
<rect x="21" y="17" width="1" height="1" fill="#cdd9e5"/>
<rect x="22" y="17" width="1" height="1" fill="#567a9e"/>
<rect x="23" y="17" width="1" height="1" fill="#4b7297"/>
<rect x="24" y="17" width="1" height="1" fill="#4d7399"/>
<rect x="25" y="17" width="1" height="1" fill="#4f759a"/>
<rect x="26" y="17" width="1" height="1" fill="#63819f"/>
<rect x="4" y="18" width="1" height="1" fill="#345c83"/>
<rect x="5" y="18" width="1" height="1" fill="#2c5681"/>
<rect x="6" y="18" width="1" height="1" fill="#2e5882"/>
<rect x="7" y="18" width="1" height="1" fill="#2f5983"/>
<rect x="8" y="18" width="1" height="1" fill="#315b85"/>
<rect x="9" y="18" width="1" height="1" fill="#335c86"/>
<rect x="10" y="18" width="1" height="1" fill="#345e87"/>
<rect x="11" y="18" width="1" height="1" fill="#365f88"/>
<rect x="12" y="18" width="1" height="1" fill="#38618a"/>
<rect x="13" y="18" width="1" height="1" fill="#3a628b"/>
<rect x="14" y="18" width="1" height="1" fill="#3b648c"/>
<rect x="15" y="18" width="1" height="1" fill="#3d658d"/>
<rect x="16" y="18" width="1" height="1" fill="#466d94"/>
<rect x="17" y="18" width="1" height="1" fill="#8fabc7"/>
<rect x="18" y="18" width="1" height="1" fill="#9fb7cf"/>
<rect x="19" y="18" width="1" height="1" fill="#b0c3d7"/>
<rect x="20" y="18" width="1" height="1" fill="#c0cfdf"/>
<rect x="21" y="18" width="1" height="1" fill="#c6d4e2"/>
<rect x="22" y="18" width="1" height="1" fill="#557a9d"/>
<rect x="23" y="18" width="1" height="1" fill="#4b7197"/>
<rect x="24" y="18" width="1" height="1" fill="#4c7398"/>
<rect x="25" y="18" width="1" height="1" fill="#4e749a"/>
<rect x="26" y="18" width="1" height="1" fill="#63819f"/>
<rect x="4" y="19" width="1" height="1" fill="#345c83"/>
<rect x="5" y="19" width="1" height="1" fill="#2c5681"/>
<rect x="6" y="19" width="1" height="1" fill="#2e5882"/>
<rect x="7" y="19" width="1" height="1" fill="#2f5983"/>
<rect x="8" y="19" width="1" height="1" fill="#315b85"/>
<rect x="9" y="19" width="1" height="1" fill="#335c86"/>
<rect x="10" y="19" width="1" height="1" fill="#345e87"/>
<rect x="11" y="19" width="1" height="1" fill="#365f88"/>
<rect x="12" y="19" width="1" height="1" fill="#38618a"/>
<rect x="13" y="19" width="1" height="1" fill="#3a628b"/>
<rect x="14" y="19" width="1" height="1" fill="#3b648c"/>
<rect x="15" y="19" width="1" height="1" fill="#3d658d"/>
<rect x="16" y="19" width="1" height="1" fill="#446c93"/>
<rect x="17" y="19" width="1" height="1" fill="#85a3c2"/>
<rect x="18" y="19" width="1" height="1" fill="#92adc8"/>
<rect x="19" y="19" width="1" height="1" fill="#a2b9d0"/>
<rect x="20" y="19" width="1" height="1" fill="#b3c5d8"/>
<rect x="21" y="19" width="1" height="1" fill="#c3d1e0"/>
<rect x="22" y="19" width="1" height="1" fill="#54799d"/>
<rect x="23" y="19" width="1" height="1" fill="#4b7197"/>
<rect x="24" y="19" width="1" height="1" fill="#4c7398"/>
<rect x="25" y="19" width="1" height="1" fill="#4e749a"/>
<rect x="26" y="19" width="1" height="1" fill="#63819f"/>
<rect x="4" y="20" width="1" height="1" fill="#345c83"/>
<rect x="5" y="20" width="1" height="1" fill="#2b5580"/>
<rect x="6" y="20" width="1" height="1" fill="#2d5781"/>
<rect x="7" y="20" width="1" height="1" fill="#2e5882"/>
<rect x="8" y="20" width="1" height="1" fill="#305a84"/>
<rect x="9" y="20" width="1" height="1" fill="#325b85"/>
<rect x="10" y="20" width="1" height="1" fill="#335d86"/>
<rect x="11" y="20" width="1" height="1" fill="#355e87"/>
<rect x="12" y="20" width="1" height="1" fill="#376089"/>
<rect x="13" y="20" width="1" height="1" fill="#39618a"/>
<rect x="14" y="20" width="1" height="1" fill="#3a638b"/>
<rect x="15" y="20" width="1" height="1" fill="#3c648c"/>
<rect x="16" y="20" width="1" height="1" fill="#3d668e"/>
<rect x="17" y="20" width="1" height="1" fill="#7e9dbd"/>
<rect x="18" y="20" width="1" height="1" fill="#7f9ebe"/>
<rect x="19" y="20" width="1" height="1" fill="#8daac5"/>
<rect x="20" y="20" width="1" height="1" fill="#9db5cc"/>
<rect x="21" y="20" width="1" height="1" fill="#acc0d4"/>
<rect x="22" y="20" width="1" height="1" fill="#52779b"/>
<rect x="23" y="20" width="1" height="1" fill="#4a7096"/>
<rect x="24" y="20" width="1" height="1" fill="#4b7297"/>
<rect x="25" y="20" width="1" height="1" fill="#4d7399"/>
<rect x="26" y="20" width="1" height="1" fill="#62809e"/>
<rect x="4" y="21" width="1" height="1" fill="#345c83"/>
<rect x="5" y="21" width="1" height="1" fill="#2b5580"/>
<rect x="6" y="21" width="1" height="1" fill="#2d5781"/>
<rect x="7" y="21" width="1" height="1" fill="#2e5882"/>
<rect x="8" y="21" width="1" height="1" fill="#305a84"/>
<rect x="9" y="21" width="1" height="1" fill="#325b85"/>
<rect x="10" y="21" width="1" height="1" fill="#335d86"/>
<rect x="11" y="21" width="1" height="1" fill="#355e87"/>
<rect x="12" y="21" width="1" height="1" fill="#376089"/>
<rect x="13" y="21" width="1" height="1" fill="#39618a"/>
<rect x="14" y="21" width="1" height="1" fill="#3a638b"/>
<rect x="15" y="21" width="1" height="1" fill="#3c648c"/>
<rect x="16" y="21" width="1" height="1" fill="#3e668d"/>
<rect x="17" y="21" width="1" height="1" fill="#3f678f"/>
<rect x="18" y="21" width="1" height="1" fill="#416990"/>
<rect x="19" y="21" width="1" height="1" fill="#436a91"/>
<rect x="20" y="21" width="1" height="1" fill="#456c92"/>
<rect x="21" y="21" width="1" height="1" fill="#466d94"/>
<rect x="22" y="21" width="1" height="1" fill="#486f95"/>
<rect x="23" y="21" width="1" height="1" fill="#4a7096"/>
<rect x="24" y="21" width="1" height="1" fill="#4b7297"/>
<rect x="25" y="21" width="1" height="1" fill="#4d7399"/>
<rect x="26" y="21" width="1" height="1" fill="#62809e"/>
<rect x="4" y="22" width="1" height="1" fill="#345c83"/>
<rect x="5" y="22" width="1" height="1" fill="#2b5580"/>
<rect x="6" y="22" width="1" height="1" fill="#2d5781"/>
<rect x="7" y="22" width="1" height="1" fill="#2e5882"/>
<rect x="8" y="22" width="1" height="1" fill="#305a84"/>
<rect x="9" y="22" width="1" height="1" fill="#325b85"/>
<rect x="10" y="22" width="1" height="1" fill="#335d86"/>
<rect x="11" y="22" width="1" height="1" fill="#355e87"/>
<rect x="12" y="22" width="1" height="1" fill="#376089"/>
<rect x="13" y="22" width="1" height="1" fill="#39618a"/>
<rect x="14" y="22" width="1" height="1" fill="#3a638b"/>
<rect x="15" y="22" width="1" height="1" fill="#3c648c"/>
<rect x="16" y="22" width="1" height="1" fill="#426a91"/>
<rect x="17" y="22" width="1" height="1" fill="#698db1"/>
<rect x="18" y="22" width="1" height="1" fill="#7192b5"/>
<rect x="19" y="22" width="1" height="1" fill="#7798b7"/>
<rect x="20" y="22" width="1" height="1" fill="#7999b8"/>
<rect x="21" y="22" width="1" height="1" fill="#7e9dbb"/>
<rect x="22" y="22" width="1" height="1" fill="#4c7298"/>
<rect x="23" y="22" width="1" height="1" fill="#4a7096"/>
<rect x="24" y="22" width="1" height="1" fill="#4b7297"/>
<rect x="25" y="22" width="1" height="1" fill="#4d7399"/>
<rect x="26" y="22" width="1" height="1" fill="#62809e"/>
<rect x="4" y="23" width="1" height="1" fill="#335b82"/>
<rect x="5" y="23" width="1" height="1" fill="#2a5580"/>
<rect x="6" y="23" width="1" height="1" fill="#2c5681"/>
<rect x="7" y="23" width="1" height="1" fill="#2e5882"/>
<rect x="8" y="23" width="1" height="1" fill="#2f5983"/>
<rect x="9" y="23" width="1" height="1" fill="#315b85"/>
<rect x="10" y="23" width="1" height="1" fill="#335c86"/>
<rect x="11" y="23" width="1" height="1" fill="#345e87"/>
<rect x="12" y="23" width="1" height="1" fill="#365f88"/>
<rect x="13" y="23" width="1" height="1" fill="#38618a"/>
<rect x="14" y="23" width="1" height="1" fill="#3a628b"/>
<rect x="15" y="23" width="1" height="1" fill="#3b648c"/>
<rect x="16" y="23" width="1" height="1" fill="#416991"/>
<rect x="17" y="23" width="1" height="1" fill="#6b91b5"/>
<rect x="18" y="23" width="1" height="1" fill="#7497b9"/>
<rect x="19" y="23" width="1" height="1" fill="#7d9ebd"/>
<rect x="20" y="23" width="1" height="1" fill="#83a2c0"/>
<rect x="21" y="23" width="1" height="1" fill="#86a4c1"/>
<rect x="22" y="23" width="1" height="1" fill="#4c7298"/>
<rect x="23" y="23" width="1" height="1" fill="#497096"/>
<rect x="24" y="23" width="1" height="1" fill="#4b7197"/>
<rect x="25" y="23" width="1" height="1" fill="#4c7398"/>
<rect x="26" y="23" width="1" height="1" fill="#61809e"/>
<rect x="4" y="24" width="1" height="1" fill="#335b82"/>
<rect x="5" y="24" width="1" height="1" fill="#2a5580"/>
<rect x="6" y="24" width="1" height="1" fill="#2c5681"/>
<rect x="7" y="24" width="1" height="1" fill="#2e5882"/>
<rect x="8" y="24" width="1" height="1" fill="#2f5983"/>
<rect x="9" y="24" width="1" height="1" fill="#315b85"/>
<rect x="10" y="24" width="1" height="1" fill="#335c86"/>
<rect x="11" y="24" width="1" height="1" fill="#345e87"/>
<rect x="12" y="24" width="1" height="1" fill="#365f88"/>
<rect x="13" y="24" width="1" height="1" fill="#38618a"/>
<rect x="14" y="24" width="1" height="1" fill="#3a628b"/>
<rect x="15" y="24" width="1" height="1" fill="#3b648c"/>
<rect x="16" y="24" width="1" height="1" fill="#416991"/>
<rect x="17" y="24" width="1" height="1" fill="#648bb1"/>
<rect x="18" y="24" width="1" height="1" fill="#6d92b6"/>
<rect x="19" y="24" width="1" height="1" fill="#7698ba"/>
<rect x="20" y="24" width="1" height="1" fill="#7f9fbe"/>
<rect x="21" y="24" width="1" height="1" fill="#83a2c0"/>
<rect x="22" y="24" width="1" height="1" fill="#4b7298"/>
<rect x="23" y="24" width="1" height="1" fill="#497096"/>
<rect x="24" y="24" width="1" height="1" fill="#4b7197"/>
<rect x="25" y="24" width="1" height="1" fill="#4c7398"/>
<rect x="26" y="24" width="1" height="1" fill="#61809e"/>
<rect x="4" y="25" width="1" height="1" fill="#335b82"/>
<rect x="5" y="25" width="1" height="1" fill="#29547f"/>
<rect x="6" y="25" width="1" height="1" fill="#2b5580"/>
<rect x="7" y="25" width="1" height="1" fill="#2d5781"/>
<rect x="8" y="25" width="1" height="1" fill="#2e5882"/>
<rect x="9" y="25" width="1" height="1" fill="#305a84"/>
<rect x="10" y="25" width="1" height="1" fill="#325b85"/>
<rect x="11" y="25" width="1" height="1" fill="#335d86"/>
<rect x="12" y="25" width="1" height="1" fill="#355e87"/>
<rect x="13" y="25" width="1" height="1" fill="#376089"/>
<rect x="14" y="25" width="1" height="1" fill="#39618a"/>
<rect x="15" y="25" width="1" height="1" fill="#3a638b"/>
<rect x="16" y="25" width="1" height="1" fill="#3f6790"/>
<rect x="17" y="25" width="1" height="1" fill="#5f87af"/>
<rect x="18" y="25" width="1" height="1" fill="#668cb2"/>
<rect x="19" y="25" width="1" height="1" fill="#6f93b7"/>
<rect x="20" y="25" width="1" height="1" fill="#7899bb"/>
<rect x="21" y="25" width="1" height="1" fill="#81a0bf"/>
<rect x="22" y="25" width="1" height="1" fill="#4a7197"/>
<rect x="23" y="25" width="1" height="1" fill="#486f95"/>
<rect x="24" y="25" width="1" height="1" fill="#4a7096"/>
<rect x="25" y="25" width="1" height="1" fill="#4b7297"/>
<rect x="26" y="25" width="1" height="1" fill="#617f9d"/>
<rect x="4" y="26" width="1" height="1" fill="#335b82"/>
<rect x="5" y="26" width="1" height="1" fill="#29547f"/>
<rect x="6" y="26" width="1" height="1" fill="#2b5580"/>
<rect x="7" y="26" width="1" height="1" fill="#2d5781"/>
<rect x="8" y="26" width="1" height="1" fill="#2e5882"/>
<rect x="9" y="26" width="1" height="1" fill="#305a84"/>
<rect x="10" y="26" width="1" height="1" fill="#325b85"/>
<rect x="11" y="26" width="1" height="1" fill="#335d86"/>
<rect x="12" y="26" width="1" height="1" fill="#355e87"/>
<rect x="13" y="26" width="1" height="1" fill="#376089"/>
<rect x="14" y="26" width="1" height="1" fill="#39618a"/>
<rect x="15" y="26" width="1" height="1" fill="#3a638b"/>
<rect x="16" y="26" width="1" height="1" fill="#3c648c"/>
<rect x="17" y="26" width="1" height="1" fill="#436c93"/>
<rect x="18" y="26" width="1" height="1" fill="#446c95"/>
<rect x="19" y="26" width="1" height="1" fill="#486f96"/>
<rect x="20" y="26" width="1" height="1" fill="#4b7198"/>
<rect x="21" y="26" width="1" height="1" fill="#4e7499"/>
<rect x="22" y="26" width="1" height="1" fill="#466e95"/>
<rect x="23" y="26" width="1" height="1" fill="#486f95"/>
<rect x="24" y="26" width="1" height="1" fill="#4a7096"/>
<rect x="25" y="26" width="1" height="1" fill="#4b7297"/>
<rect x="26" y="26" width="1" height="1" fill="#617f9d"/>
<rect x="4" y="27" width="1" height="1" fill="#335b82"/>
<rect x="5" y="27" width="1" height="1" fill="#28537e"/>
<rect x="6" y="27" width="1" height="1" fill="#2a5580"/>
<rect x="7" y="27" width="1" height="1" fill="#2c5681"/>
<rect x="8" y="27" width="1" height="1" fill="#2e5882"/>
<rect x="9" y="27" width="1" height="1" fill="#2f5983"/>
<rect x="10" y="27" width="1" height="1" fill="#315b85"/>
<rect x="11" y="27" width="1" height="1" fill="#335c86"/>
<rect x="12" y="27" width="1" height="1" fill="#345e87"/>
<rect x="13" y="27" width="1" height="1" fill="#365f88"/>
<rect x="14" y="27" width="1" height="1" fill="#38618a"/>
<rect x="15" y="27" width="1" height="1" fill="#3a628b"/>
<rect x="16" y="27" width="1" height="1" fill="#3b648c"/>
<rect x="17" y="27" width="1" height="1" fill="#3d658d"/>
<rect x="18" y="27" width="1" height="1" fill="#3f678e"/>
<rect x="19" y="27" width="1" height="1" fill="#406890"/>
<rect x="20" y="27" width="1" height="1" fill="#426a91"/>
<rect x="21" y="27" width="1" height="1" fill="#446b92"/>
<rect x="22" y="27" width="1" height="1" fill="#466d93"/>
<rect x="23" y="27" width="1" height="1" fill="#476e95"/>
<rect x="24" y="27" width="1" height="1" fill="#497096"/>
<rect x="25" y="27" width="1" height="1" fill="#4b7197"/>
<rect x="26" y="27" width="1" height="1" fill="#607f9d"/>
<rect x="4" y="28" width="1" height="1" fill="#335b82"/>
<rect x="5" y="28" width="1" height="1" fill="#28537e"/>
<rect x="6" y="28" width="1" height="1" fill="#2a5580"/>
<rect x="7" y="28" width="1" height="1" fill="#2c5681"/>
<rect x="8" y="28" width="1" height="1" fill="#2e5882"/>
<rect x="9" y="28" width="1" height="1" fill="#2f5983"/>
<rect x="10" y="28" width="1" height="1" fill="#315b85"/>
<rect x="11" y="28" width="1" height="1" fill="#335c86"/>
<rect x="12" y="28" width="1" height="1" fill="#345e87"/>
<rect x="13" y="28" width="1" height="1" fill="#365f88"/>
<rect x="14" y="28" width="1" height="1" fill="#38618a"/>
<rect x="15" y="28" width="1" height="1" fill="#3a628b"/>
<rect x="16" y="28" width="1" height="1" fill="#3b648c"/>
<rect x="17" y="28" width="1" height="1" fill="#3d658d"/>
<rect x="18" y="28" width="1" height="1" fill="#3f678e"/>
<rect x="19" y="28" width="1" height="1" fill="#406890"/>
<rect x="20" y="28" width="1" height="1" fill="#426a91"/>
<rect x="21" y="28" width="1" height="1" fill="#446b92"/>
<rect x="22" y="28" width="1" height="1" fill="#466d93"/>
<rect x="23" y="28" width="1" height="1" fill="#476e95"/>
<rect x="24" y="28" width="1" height="1" fill="#497096"/>
<rect x="25" y="28" width="1" height="1" fill="#4b7197"/>
<rect x="26" y="28" width="1" height="1" fill="#607f9d"/>
<rect x="4" y="29" width="1" height="1" fill="#345b82"/>
<rect x="5" y="29" width="1" height="1" fill="#27527e"/>
<rect x="6" y="29" width="1" height="1" fill="#295480"/>
<rect x="7" y="29" width="1" height="1" fill="#2b5580"/>
<rect x="8" y="29" width="1" height="1" fill="#2d5781"/>
<rect x="9" y="29" width="1" height="1" fill="#2e5882"/>
<rect x="10" y="29" width="1" height="1" fill="#305a84"/>
<rect x="11" y="29" width="1" height="1" fill="#315b85"/>
<rect x="12" y="29" width="1" height="1" fill="#325d86"/>
<rect x="13" y="29" width="1" height="1" fill="#345e87"/>
<rect x="14" y="29" width="1" height="1" fill="#365f89"/>
<rect x="15" y="29" width="1" height="1" fill="#38608a"/>
<rect x="16" y="29" width="1" height="1" fill="#39628b"/>
<rect x="17" y="29" width="1" height="1" fill="#3b638c"/>
<rect x="18" y="29" width="1" height="1" fill="#3c658c"/>
<rect x="19" y="29" width="1" height="1" fill="#3d668e"/>
<rect x="20" y="29" width="1" height="1" fill="#3f688f"/>
<rect x="21" y="29" width="1" height="1" fill="#416990"/>
<rect x="22" y="29" width="1" height="1" fill="#436a91"/>
<rect x="23" y="29" width="1" height="1" fill="#446b93"/>
<rect x="24" y="29" width="1" height="1" fill="#466d94"/>
<rect x="25" y="29" width="1" height="1" fill="#486e95"/>
<rect x="26" y="29" width="1" height="1" fill="#63809d"/>
<rect x="4" y="30" width="1" height="1" fill="#919eab"/>
<rect x="5" y="30" width="21" height="1" fill="#8797a7"/>
</svg>