<svg xmlns="http://www.w3.org/2000/svg" width="32" height="32" viewBox="0 0 32 32" shape-rendering="crispEdges">
<rect x="9" y="2" width="1" height="1" fill="#99a4af"/>
<rect x="10" y="2" width="1" height="1" fill="#7f91a3"/>
<rect x="11" y="2" width="1" height="1" fill="#74899e"/>
<rect x="12" y="2" width="1" height="1" fill="#7a8ea1"/>
<rect x="13" y="2" width="1" height="1" fill="#909dab"/>
<rect x="7" y="3" width="1" height="1" fill="#678099"/>
<rect x="8" y="3" width="1" height="1" fill="#2c557f"/>
<rect x="9" y="3" width="5" height="1" fill="#224e7a"/>
<rect x="14" y="3" width="1" height="1" fill="#24507b"/>
<rect x="15" y="3" width="1" height="1" fill="#537290"/>
<rect x="16" y="3" width="1" height="1" fill="#a1a9b2"/>
<rect x="5" y="4" width="1" height="1" fill="#8e9caa"/>
<rect x="6" y="4" width="1" height="1" fill="#2c557e"/>
<rect x="7" y="4" width="1" height="1" fill="#234f7b"/>
<rect x="8" y="4" width="1" height="1" fill="#4f7295"/>
<rect x="9" y="4" width="1" height="1" fill="#89a0b7"/>
<rect x="10" y="4" width="1" height="1" fill="#acbccd"/>
<rect x="11" y="4" width="1" height="1" fill="#b9c7d5"/>
<rect x="12" y="4" width="1" height="1" fill="#b1c1d0"/>
<rect x="13" y="4" width="1" height="1" fill="#94a9be"/>
<rect x="14" y="4" width="1" height="1" fill="#5e7e9f"/>
<rect x="15" y="4" width="1" height="1" fill="#29537e"/>
<rect x="16" y="4" width="1" height="1" fill="#234f7b"/>
<rect x="17" y="4" width="1" height="1" fill="#6c839b"/>
<rect x="4" y="5" width="1" height="1" fill="#8293a5"/>
<rect x="5" y="5" width="1" height="1" fill="#234f7b"/>
<rect x="6" y="5" width="1" height="1" fill="#396088"/>
<rect x="7" y="5" width="1" height="1" fill="#96aac0"/>
<rect x="8" y="5" width="1" height="1" fill="#c2ceda"/>
<rect x="9" y="5" width="1" height="1" fill="#cbd5df"/>
<rect x="10" y="5" width="3" height="1" fill="#d3dbe4"/>
<rect x="13" y="5" width="1" height="1" fill="#cbd5df"/>
<rect x="14" y="5" width="1" height="1" fill="#c2ceda"/>
<rect x="15" y="5" width="1" height="1" fill="#a6b7ca"/>
<rect x="16" y="5" width="1" height="1" fill="#4f7295"/>
<rect x="17" y="5" width="1" height="1" fill="#224e7a"/>
<rect x="18" y="5" width="1" height="1" fill="#587592"/>
<rect x="3" y="6" width="1" height="1" fill="#99a4af"/>
<rect x="4" y="6" width="1" height="1" fill="#234f7b"/>
<rect x="5" y="6" width="1" height="1" fill="#3f658c"/>
<rect x="6" y="6" width="1" height="1" fill="#a7b8c9"/>
<rect x="7" y="6" width="1" height="1" fill="#becad7"/>
<rect x="8" y="6" width="1" height="1" fill="#cbd5df"/>
<rect x="9" y="6" width="1" height="1" fill="#d7dee6"/>
<rect x="10" y="6" width="3" height="1" fill="#e4e9ee"/>
<rect x="13" y="6" width="1" height="1" fill="#d7dee6"/>
<rect x="14" y="6" width="1" height="1" fill="#cbd5df"/>
<rect x="15" y="6" width="1" height="1" fill="#becad7"/>
<rect x="16" y="6" width="1" height="1" fill="#adbdcd"/>
<rect x="17" y="6" width="1" height="1" fill="#5c7c9d"/>
<rect x="18" y="6" width="1" height="1" fill="#224e7a"/>
<rect x="19" y="6" width="1" height="1" fill="#6f859c"/>
<rect x="3" y="7" width="1" height="1" fill="#375e84"/>
<rect x="4" y="7" width="1" height="1" fill="#2f5882"/>
<rect x="5" y="7" width="1" height="1" fill="#98acc1"/>
<rect x="6" y="7" width="1" height="1" fill="#b1c0d0"/>
<rect x="7" y="7" width="1" height="1" fill="#c2ceda"/>
<rect x="8" y="7" width="1" height="1" fill="#d3dbe4"/>
<rect x="9" y="7" width="1" height="1" fill="#e4e9ee"/>
<rect x="10" y="7" width="1" height="1" fill="#f1f3f5"/>
<rect x="11" y="7" width="1" height="1" fill="#f5f7f8"/>
<rect x="12" y="7" width="1" height="1" fill="#f1f3f5"/>
<rect x="13" y="7" width="1" height="1" fill="#e4e9ee"/>
<rect x="14" y="7" width="1" height="1" fill="#d3dbe4"/>
<rect x="15" y="7" width="1" height="1" fill="#c2ceda"/>
<rect x="16" y="7" width="1" height="1" fill="#b1c0d0"/>
<rect x="17" y="7" width="1" height="1" fill="#a0b3c6"/>
<rect x="18" y="7" width="1" height="1" fill="#466b8f"/>
<rect x="19" y="7" width="1" height="1" fill="#24507b"/>
<rect x="20" y="7" width="1" height="1" fill="#a4acb4"/>
<rect x="2" y="8" width="1" height="1" fill="#8495a6"/>
<rect x="3" y="8" width="1" height="1" fill="#224e7a"/>
<rect x="4" y="8" width="1" height="1" fill="#6a88a5"/>
<rect x="5" y="8" width="1" height="1" fill="#a0b3c6"/>
<rect x="6" y="8" width="1" height="1" fill="#b1c0d0"/>
<rect x="7" y="8" width="1" height="1" fill="#c2ceda"/>
<rect x="8" y="8" width="1" height="1" fill="#d3dbe4"/>
<rect x="9" y="8" width="1" height="1" fill="#e4e9ee"/>
<rect x="10" y="8" width="1" height="1" fill="#f5f7f8"/>
<rect x="11" y="8" width="1" height="1" fill="#fefefe"/>
<rect x="12" y="8" width="1" height="1" fill="#f5f7f8"/>
<rect x="13" y="8" width="1" height="1" fill="#e4e9ee"/>
<rect x="14" y="8" width="1" height="1" fill="#d3dbe4"/>
<rect x="15" y="8" width="1" height="1" fill="#c2ceda"/>
<rect x="16" y="8" width="1" height="1" fill="#b1c0d0"/>
<rect x="17" y="8" width="1" height="1" fill="#a0b3c6"/>
<rect x="18" y="8" width="1" height="1" fill="#859db5"/>
<rect x="19" y="8" width="1" height="1" fill="#25517c"/>
<rect x="20" y="8" width="1" height="1" fill="#587592"/>
<rect x="2" y="9" width="1" height="1" fill="#4b6c8c"/>
<rect x="3" y="9" width="1" height="1" fill="#2c5780"/>
<rect x="4" y="9" width="1" height="1" fill="#8ea4bb"/>
<rect x="5" y="9" width="1" height="1" fill="#a0b3c6"/>
<rect x="6" y="9" width="1" height="1" fill="#b1c0d0"/>
<rect x="7" y="9" width="1" height="1" fill="#c2ceda"/>
<rect x="8" y="9" width="1" height="1" fill="#d3dbe4"/>
<rect x="9" y="9" width="1" height="1" fill="#e4e9ee"/>
<rect x="10" y="9" width="1" height="1" fill="#f1f3f5"/>
<rect x="11" y="9" width="1" height="1" fill="#f5f7f8"/>
<rect x="12" y="9" width="1" height="1" fill="#f1f3f5"/>
<rect x="13" y="9" width="1" height="1" fill="#e4e9ee"/>
<rect x="14" y="9" width="1" height="1" fill="#d3dbe4"/>
<rect x="15" y="9" width="1" height="1" fill="#c2ceda"/>
<rect x="16" y="9" width="1" height="1" fill="#b1c0d0"/>
<rect x="17" y="9" width="1" height="1" fill="#a0b3c6"/>
<rect x="18" y="9" width="1" height="1" fill="#8fa5bb"/>
<rect x="19" y="9" width="1" height="1" fill="#456b8f"/>
<rect x="20" y="9" width="1" height="1" fill="#26517c"/>
<rect x="2" y="10" width="1" height="1" fill="#27527c"/>
<rect x="3" y="10" width="1" height="1" fill="#466b90"/>
<rect x="4" y="10" width="1" height="1" fill="#8ba2b8"/>
<rect x="5" y="10" width="1" height="1" fill="#9cafc3"/>
<rect x="6" y="10" width="1" height="1" fill="#adbdcd"/>
<rect x="7" y="10" width="1" height="1" fill="#becad7"/>
<rect x="8" y="10" width="1" height="1" fill="#cbd5df"/>
<rect x="9" y="10" width="1" height="1" fill="#d7dee6"/>
<rect x="10" y="10" width="3" height="1" fill="#e4e9ee"/>
<rect x="13" y="10" width="1" height="1" fill="#d7dee6"/>
<rect x="14" y="10" width="1" height="1" fill="#cbd5df"/>
<rect x="15" y="10" width="1" height="1" fill="#becad7"/>
<rect x="16" y="10" width="1" height="1" fill="#adbdcd"/>
<rect x="17" y="10" width="1" height="1" fill="#9cafc3"/>
<rect x="18" y="10" width="1" height="1" fill="#8ba2b8"/>
<rect x="19" y="10" width="1" height="1" fill="#60809f"/>
<rect x="20" y="10" width="1" height="1" fill="#224e7a"/>
<rect x="21" y="10" width="1" height="1" fill="#97a3ae"/>
<rect x="2" y="11" width="1" height="1" fill="#224e7a"/>
<rect x="3" y="11" width="1" height="1" fill="#517396"/>
<rect x="4" y="11" width="1" height="1" fill="#879fb6"/>
<rect x="5" y="11" width="1" height="1" fill="#98acc1"/>
<rect x="6" y="11" width="1" height="1" fill="#a4b6c8"/>
<rect x="7" y="11" width="1" height="1" fill="#b1c0d0"/>
<rect x="8" y="11" width="1" height="1" fill="#c2ceda"/>
<rect x="9" y="11" width="1" height="1" fill="#cbd5df"/>
<rect x="10" y="11" width="3" height="1" fill="#d3dbe4"/>
<rect x="13" y="11" width="1" height="1" fill="#cbd5df"/>
<rect x="14" y="11" width="1" height="1" fill="#c2ceda"/>
<rect x="15" y="11" width="1" height="1" fill="#b1c0d0"/>
<rect x="16" y="11" width="1" height="1" fill="#a4b6c8"/>
<rect x="17" y="11" width="1" height="1" fill="#98acc1"/>
<rect x="18" y="11" width="1" height="1" fill="#879fb6"/>
<rect x="19" y="11" width="1" height="1" fill="#6886a4"/>
<rect x="20" y="11" width="1" height="1" fill="#224e7a"/>
<rect x="21" y="11" width="1" height="1" fill="#8293a5"/>
<rect x="2" y="12" width="1" height="1" fill="#224e7a"/>
<rect x="3" y="12" width="1" height="1" fill="#517396"/>
<rect x="4" y="12" width="1" height="1" fill="#7e98b1"/>
<rect x="5" y="12" width="1" height="1" fill="#8fa5bb"/>
<rect x="6" y="12" width="1" height="1" fill="#9cafc3"/>
<rect x="7" y="12" width="1" height="1" fill="#a9bacb"/>
<rect x="8" y="12" width="1" height="1" fill="#b1c0d0"/>
<rect x="9" y="12" width="1" height="1" fill="#becad7"/>
<rect x="10" y="12" width="3" height="1" fill="#c2ceda"/>
<rect x="13" y="12" width="1" height="1" fill="#becad7"/>
<rect x="14" y="12" width="1" height="1" fill="#b1c0d0"/>
<rect x="15" y="12" width="1" height="1" fill="#a9bacb"/>
<rect x="16" y="12" width="1" height="1" fill="#9cafc3"/>
<rect x="17" y="12" width="1" height="1" fill="#8fa5bb"/>
<rect x="18" y="12" width="1" height="1" fill="#7e98b1"/>
<rect x="19" y="12" width="1" height="1" fill="#6785a3"/>
<rect x="20" y="12" width="1" height="1" fill="#224e7a"/>
<rect x="21" y="12" width="1" height="1" fill="#7d90a2"/>
<rect x="2" y="13" width="1" height="1" fill="#224e7a"/>
<rect x="3" y="13" width="1" height="1" fill="#466b8f"/>
<rect x="4" y="13" width="1" height="1" fill="#7691ac"/>
<rect x="5" y="13" width="1" height="1" fill="#829bb3"/>
<rect x="6" y="13" width="1" height="1" fill="#8fa5bb"/>
<rect x="7" y="13" width="1" height="1" fill="#9cafc3"/>
<rect x="8" y="13" width="1" height="1" fill="#a4b6c8"/>
<rect x="9" y="13" width="1" height="1" fill="#adbdcd"/>
<rect x="10" y="13" width="3" height="1" fill="#b1c0d0"/>
<rect x="13" y="13" width="1" height="1" fill="#adbdcd"/>
<rect x="14" y="13" width="1" height="1" fill="#a4b6c8"/>
<rect x="15" y="13" width="1" height="1" fill="#9cafc3"/>
<rect x="16" y="13" width="1" height="1" fill="#8fa5bb"/>
<rect x="17" y="13" width="1" height="1" fill="#829bb3"/>
<rect x="18" y="13" width="1" height="1" fill="#7691ac"/>
<rect x="19" y="13" width="1" height="1" fill="#5a7b9b"/>
<rect x="20" y="13" width="1" height="1" fill="#224e7a"/>
<rect x="21" y="13" width="1" height="1" fill="#8898a7"/>
<rect x="2" y="14" width="1" height="1" fill="#325981"/>
<rect x="3" y="14" width="1" height="1" fill="#335c84"/>
<rect x="4" y="14" width="1" height="1" fill="#718da9"/>
<rect x="5" y="14" width="1" height="1" fill="#7a94ae"/>
<rect x="6" y="14" width="1" height="1" fill="#829bb3"/>
<rect x="7" y="14" width="1" height="1" fill="#8fa5bb"/>
<rect x="8" y="14" width="1" height="1" fill="#98acc1"/>
<rect x="9" y="14" width="1" height="1" fill="#9cafc3"/>
<rect x="10" y="14" width="3" height="1" fill="#a0b3c6"/>
<rect x="13" y="14" width="1" height="1" fill="#9cafc3"/>
<rect x="14" y="14" width="1" height="1" fill="#98acc1"/>
<rect x="15" y="14" width="1" height="1" fill="#8fa5bb"/>
<rect x="16" y="14" width="1" height="1" fill="#829bb3"/>
<rect x="17" y="14" width="1" height="1" fill="#7a94ae"/>
<rect x="18" y="14" width="1" height="1" fill="#7792ad"/>
<rect x="19" y="14" width="1" height="1" fill="#4f7395"/>
<rect x="20" y="14" width="1" height="1" fill="#224e7a"/>
<rect x="21" y="14" width="1" height="1" fill="#a4acb4"/>
<rect x="2" y="15" width="1" height="1" fill="#607b96"/>
<rect x="3" y="15" width="1" height="1" fill="#234f7b"/>
<rect x="4" y="15" width="1" height="1" fill="#6282a0"/>
<rect x="5" y="15" width="1" height="1" fill="#829bb4"/>
<rect x="6" y="15" width="1" height="1" fill="#7893ad"/>
<rect x="7" y="15" width="1" height="1" fill="#7e98b1"/>
<rect x="8" y="15" width="1" height="1" fill="#879fb6"/>
<rect x="9" y="15" width="1" height="1" fill="#8ba2b8"/>
<rect x="10" y="15" width="3" height="1" fill="#8fa5bb"/>
<rect x="13" y="15" width="1" height="1" fill="#8ba2b8"/>
<rect x="14" y="15" width="1" height="1" fill="#879fb6"/>
<rect x="15" y="15" width="1" height="1" fill="#7e98b1"/>
<rect x="16" y="15" width="1" height="1" fill="#7691ac"/>
<rect x="17" y="15" width="1" height="1" fill="#7b95af"/>
<rect x="18" y="15" width="1" height="1" fill="#859db5"/>
<rect x="19" y="15" width="1" height="1" fill="#2e5882"/>
<rect x="20" y="15" width="1" height="1" fill="#345b82"/>
<rect x="2" y="16" width="1" height="1" fill="#a1a9b2"/>
<rect x="3" y="16" width="1" height="1" fill="#224e7a"/>
<rect x="4" y="16" width="1" height="1" fill="#386087"/>
<rect x="5" y="16" width="1" height="1" fill="#7a95af"/>
<rect x="6" y="16" width="1" height="1" fill="#88a0b7"/>
<rect x="7" y="16" width="1" height="1" fill="#7e98b1"/>
<rect x="8" y="16" width="1" height="1" fill="#7994ae"/>
<rect x="9" y="16" width="5" height="1" fill="#7e98b1"/>
<rect x="14" y="16" width="1" height="1" fill="#7792ad"/>
<rect x="15" y="16" width="1" height="1" fill="#7a95af"/>
<rect x="16" y="16" width="1" height="1" fill="#859db5"/>
<rect x="17" y="16" width="1" height="1" fill="#8aa1b8"/>
<rect x="18" y="16" width="1" height="1" fill="#6281a1"/>
<rect x="19" y="16" width="1" height="1" fill="#224e7a"/>
<rect x="20" y="16" width="1" height="1" fill="#74899f"/>
<rect x="3" y="17" width="1" height="1" fill="#597693"/>
<rect x="4" y="17" width="1" height="1" fill="#224e7a"/>
<rect x="5" y="17" width="1" height="1" fill="#486c91"/>
<rect x="6" y="17" width="1" height="1" fill="#839bb4"/>
<rect x="7" y="17" width="2" height="1" fill="#8aa1b8"/>
<rect x="9" y="17" width="1" height="1" fill="#879eb6"/>
<rect x="10" y="17" width="1" height="1" fill="#829bb3"/>
<rect x="11" y="17" width="1" height="1" fill="#8099b2"/>
<rect x="12" y="17" width="1" height="1" fill="#819ab3"/>
<rect x="13" y="17" width="1" height="1" fill="#859db5"/>
<rect x="14" y="17" width="3" height="1" fill="#8aa1b8"/>
<rect x="17" y="17" width="1" height="1" fill="#7691ac"/>
<rect x="18" y="17" width="1" height="1" fill="#26517c"/>
<rect x="19" y="17" width="1" height="1" fill="#305a84"/>
<rect x="4" y="18" width="1" height="1" fill="#395e84"/>
<rect x="5" y="18" width="1" height="1" fill="#234f7b"/>
<rect x="6" y="18" width="1" height="1" fill="#466b90"/>
<rect x="7" y="18" width="1" height="1" fill="#7a95af"/>
<rect x="8" y="18" width="8" height="1" fill="#8aa1b8"/>
<rect x="16" y="18" width="1" height="1" fill="#6d8aa7"/>
<rect x="17" y="18" width="1" height="1" fill="#29547e"/>
<rect x="18" y="18" width="1" height="1" fill="#24507c"/>
<rect x="19" y="18" width="1" height="1" fill="#7c9bb8"/>
<rect x="20" y="18" width="1" height="1" fill="#9fb5cb"/>
<rect x="5" y="19" width="1" height="1" fill="#395f84"/>
<rect x="6" y="19" width="1" height="1" fill="#224e7a"/>
<rect x="7" y="19" width="1" height="1" fill="#2f5982"/>
<rect x="8" y="19" width="1" height="1" fill="#58799a"/>
<rect x="9" y="19" width="1" height="1" fill="#7691ac"/>
<rect x="10" y="19" width="1" height="1" fill="#859db5"/>
<rect x="11" y="19" width="1" height="1" fill="#8aa1b8"/>
<rect x="12" y="19" width="1" height="1" fill="#89a1b8"/>
<rect x="13" y="19" width="1" height="1" fill="#819ab3"/>
<rect x="14" y="19" width="1" height="1" fill="#6e8ba7"/>
<rect x="15" y="19" width="1" height="1" fill="#43698e"/>
<rect x="16" y="19" width="2" height="1" fill="#234f7b"/>
<rect x="18" y="19" width="1" height="1" fill="#4b7196"/>
<rect x="19" y="19" width="1" height="1" fill="#7a98b6"/>
<rect x="20" y="19" width="1" height="1" fill="#98b2cb"/>
<rect x="21" y="19" width="1" height="1" fill="#9fb5cb"/>
<rect x="6" y="20" width="1" height="1" fill="#5d7994"/>
<rect x="7" y="20" width="1" height="1" fill="#234f7b"/>
<rect x="8" y="20" width="1" height="1" fill="#224e7a"/>
<rect x="9" y="20" width="1" height="1" fill="#28537e"/>
<rect x="10" y="20" width="1" height="1" fill="#2c5781"/>
<rect x="11" y="20" width="1" height="1" fill="#2f5a83"/>
<rect x="12" y="20" width="1" height="1" fill="#2d5881"/>
<rect x="13" y="20" width="1" height="1" fill="#29547f"/>
<rect x="14" y="20" width="1" height="1" fill="#234f7b"/>
<rect x="15" y="20" width="1" height="1" fill="#224e7a"/>
<rect x="16" y="20" width="1" height="1" fill="#436689"/>
<rect x="17" y="20" width="1" height="1" fill="#4b6c8c"/>
<rect x="18" y="20" width="1" height="1" fill="#3e668d"/>
<rect x="19" y="20" width="1" height="1" fill="#5c7fa2"/>
<rect x="20" y="20" width="1" height="1" fill="#7a98b6"/>
<rect x="21" y="20" width="1" height="1" fill="#98b2cb"/>
<rect x="22" y="20" width="1" height="1" fill="#9fb5cb"/>
<rect x="7" y="21" width="1" height="1" fill="#a5adb4"/>
<rect x="8" y="21" width="1" height="1" fill="#667f98"/>
<rect x="9" y="21" width="1" height="1" fill="#3b6085"/>
<rect x="10" y="21" width="1" height="1" fill="#234f7b"/>
<rect x="11" y="21" width="2" height="1" fill="#224e7a"/>
<rect x="13" y="21" width="1" height="1" fill="#315981"/>
<rect x="14" y="21" width="1" height="1" fill="#587592"/>
<rect x="15" y="21" width="1" height="1" fill="#929fac"/>
<rect x="18" y="21" width="1" height="1" fill="#547290"/>
<rect x="19" y="21" width="1" height="1" fill="#3e668d"/>
<rect x="20" y="21" width="1" height="1" fill="#5c7fa2"/>
<rect x="21" y="21" width="1" height="1" fill="#7a98b6"/>
<rect x="22" y="21" width="1" height="1" fill="#98b2cb"/>
<rect x="23" y="21" width="1" height="1" fill="#9fb5cb"/>
<rect x="19" y="22" width="1" height="1" fill="#547290"/>
<rect x="20" y="22" width="1" height="1" fill="#3e668d"/>
<rect x="21" y="22" width="1" height="1" fill="#5c7fa2"/>
<rect x="22" y="22" width="1" height="1" fill="#7a98b6"/>
<rect x="23" y="22" width="1" height="1" fill="#98b2cb"/>
<rect x="24" y="22" width="1" height="1" fill="#9fb5cb"/>
<rect x="20" y="23" width="1" height="1" fill="#547290"/>
<rect x="21" y="23" width="1" height="1" fill="#3e668d"/>
<rect x="22" y="23" width="1" height="1" fill="#5c7fa2"/>
<rect x="23" y="23" width="1" height="1" fill="#7a98b6"/>
<rect x="24" y="23" width="1" height="1" fill="#98b2cb"/>
<rect x="25" y="23" width="1" height="1" fill="#9fb5cb"/>
<rect x="21" y="24" width="1" height="1" fill="#547290"/>
<rect x="22" y="24" width="1" height="1" fill="#3e668d"/>
<rect x="23" y="24" width="1" height="1" fill="#5c7fa2"/>
<rect x="24" y="24" width="1" height="1" fill="#7a98b6"/>
<rect x="25" y="24" width="1" height="1" fill="#98b2cb"/>
<rect x="26" y="24" width="1" height="1" fill="#9fb5cb"/>
<rect x="22" y="25" width="1" height="1" fill="#547290"/>
<rect x="23" y="25" width="1" height="1" fill="#3e668d"/>
<rect x="24" y="25" width="1" height="1" fill="#5c7fa2"/>
<rect x="25" y="25" width="1" height="1" fill="#7a98b6"/>
<rect x="26" y="25" width="1" height="1" fill="#98b2cb"/>
<rect x="27" y="25" width="1" height="1" fill="#9fb5cb"/>
<rect x="23" y="26" width="1" height="1" fill="#547290"/>
<rect x="24" y="26" width="1" height="1" fill="#3e668d"/>
<rect x="25" y="26" width="1" height="1" fill="#5c7fa2"/>
<rect x="26" y="26" width="1" height="1" fill="#7a98b6"/>
<rect x="27" y="26" width="1" height="1" fill="#98b2cb"/>
<rect x="28" y="26" width="1" height="1" fill="#9fb5cb"/>
<rect x="24" y="27" width="1" height="1" fill="#547290"/>
<rect x="25" y="27" width="1" height="1" fill="#3e668d"/>
<rect x="26" y="27" width="1" height="1" fill="#5c7fa2"/>
<rect x="27" y="27" width="1" height="1" fill="#7a98b6"/>
<rect x="28" y="27" width="1" height="1" fill="#98b2cb"/>
<rect x="29" y="27" width="1" height="1" fill="#9fb5cb"/>
<rect x="25" y="28" width="1" height="1" fill="#547290"/>
<rect x="26" y="28" width="1" height="1" fill="#3e668d"/>
<rect x="27" y="28" width="1" height="1" fill="#5c7fa2"/>
<rect x="28" y="28" width="1" height="1" fill="#7a98b6"/>
<rect x="29" y="28" width="1" height="1" fill="#98b2cb"/>
<rect x="26" y="29" width="1" height="1" fill="#537290"/>
<rect x="27" y="29" width="1" height="1" fill="#3e668d"/>
<rect x="28" y="29" width="1" height="1" fill="#5c7fa2"/>
<rect x="29" y="29" width="1" height="1" fill="#839db8"/>
<rect x="27" y="30" width="1" height="1" fill="#537290"/>
<rect x="28" y="30" width="1" height="1" fill="#4f7294"/>
</svg>