<svg xmlns="http://www.w3.org/2000/svg" width="32" height="32" viewBox="0 0 32 32" shape-rendering="crispEdges">
<rect x="1" y="2" width="1" height="1" fill="#99a6b2"/>
<rect x="2" y="2" width="1" height="1" fill="#4b7196"/>
<rect x="3" y="2" width="1" height="1" fill="#4e7499"/>
<rect x="4" y="2" width="1" height="1" fill="#53789c"/>
<rect x="5" y="2" width="1" height="1" fill="#54799d"/>
<rect x="6" y="2" width="1" height="1" fill="#577b9f"/>
<rect x="7" y="2" width="1" height="1" fill="#5c7fa2"/>
<rect x="8" y="2" width="1" height="1" fill="#6083a6"/>
<rect x="9" y="2" width="1" height="1" fill="#6184a7"/>
<rect x="10" y="2" width="1" height="1" fill="#6587a9"/>
<rect x="11" y="2" width="1" height="1" fill="#6a8bac"/>
<rect x="12" y="2" width="1" height="1" fill="#6e8faf"/>
<rect x="13" y="2" width="1" height="1" fill="#6f90b0"/>
<rect x="14" y="2" width="1" height="1" fill="#7393b2"/>
<rect x="15" y="2" width="1" height="1" fill="#7797b6"/>
<rect x="16" y="2" width="1" height="1" fill="#7898b7"/>
<rect x="17" y="2" width="1" height="1" fill="#7c9bb9"/>
<rect x="18" y="2" width="1" height="1" fill="#809fbc"/>
<rect x="19" y="2" width="1" height="1" fill="#85a3bf"/>
<rect x="20" y="2" width="1" height="1" fill="#86a4c0"/>
<rect x="21" y="2" width="1" height="1" fill="#8aa7c3"/>
<rect x="22" y="2" width="8" height="1" fill="#8ba8c4"/>
<rect x="1" y="3" width="1" height="1" fill="#98a4b1"/>
<rect x="2" y="3" width="1" height="1" fill="#4a7095"/>
<rect x="3" y="3" width="1" height="1" fill="#4b7196"/>
<rect x="4" y="3" width="1" height="1" fill="#4e7499"/>
<rect x="5" y="3" width="1" height="1" fill="#53789c"/>
<rect x="6" y="3" width="1" height="1" fill="#54799d"/>
<rect x="7" y="3" width="1" height="1" fill="#577b9f"/>
<rect x="8" y="3" width="1" height="1" fill="#5c7fa2"/>
<rect x="9" y="3" width="1" height="1" fill="#6083a6"/>
<rect x="10" y="3" width="1" height="1" fill="#6184a7"/>
<rect x="11" y="3" width="1" height="1" fill="#6587a9"/>
<rect x="12" y="3" width="1" height="1" fill="#6a8bac"/>
<rect x="13" y="3" width="1" height="1" fill="#6e8faf"/>
<rect x="14" y="3" width="1" height="1" fill="#6f90b0"/>
<rect x="15" y="3" width="1" height="1" fill="#7393b2"/>
<rect x="16" y="3" width="1" height="1" fill="#7797b6"/>
<rect x="17" y="3" width="1" height="1" fill="#7898b7"/>
<rect x="18" y="3" width="1" height="1" fill="#7c9bb9"/>
<rect x="19" y="3" width="1" height="1" fill="#809fbc"/>
<rect x="20" y="3" width="1" height="1" fill="#85a3bf"/>
<rect x="21" y="3" width="1" height="1" fill="#86a4c0"/>
<rect x="22" y="3" width="1" height="1" fill="#8aa7c3"/>
<rect x="23" y="3" width="7" height="1" fill="#8ba8c4"/>
<rect x="1" y="4" width="1" height="1" fill="#96a3b0"/>
<rect x="2" y="4" width="1" height="1" fill="#456c92"/>
<rect x="3" y="4" width="1" height="1" fill="#4a7095"/>
<rect x="4" y="4" width="1" height="1" fill="#51769a"/>
<rect x="5" y="4" width="1" height="1" fill="#7191af"/>
<rect x="6" y="4" width="1" height="1" fill="#7694b1"/>
<rect x="7" y="4" width="1" height="1" fill="#7d9bb7"/>
<rect x="8" y="4" width="1" height="1" fill="#86a0bb"/>
<rect x="9" y="4" width="1" height="1" fill="#8aa3be"/>
<rect x="10" y="4" width="1" height="1" fill="#8ea7c1"/>
<rect x="11" y="4" width="1" height="1" fill="#8fa8c2"/>
<rect x="12" y="4" width="1" height="1" fill="#92aac4"/>
<rect x="13" y="4" width="1" height="1" fill="#96aec6"/>
<rect x="14" y="4" width="1" height="1" fill="#9ab2c8"/>
<rect x="15" y="4" width="1" height="1" fill="#9bb3c9"/>
<rect x="16" y="4" width="1" height="1" fill="#9fb5cb"/>
<rect x="17" y="4" width="1" height="1" fill="#a3b9ce"/>
<rect x="18" y="4" width="1" height="1" fill="#a5bbd0"/>
<rect x="19" y="4" width="1" height="1" fill="#a8bed2"/>
<rect x="20" y="4" width="1" height="1" fill="#adc1d3"/>
<rect x="21" y="4" width="1" height="1" fill="#b1c4d6"/>
<rect x="22" y="4" width="1" height="1" fill="#b2c5d7"/>
<rect x="23" y="4" width="1" height="1" fill="#b6c9da"/>
<rect x="24" y="4" width="1" height="1" fill="#b9cbdc"/>
<rect x="25" y="4" width="1" height="1" fill="#bbccdd"/>
<rect x="26" y="4" width="1" height="1" fill="#bcccdd"/>
<rect x="27" y="4" width="1" height="1" fill="#90acc7"/>
<rect x="28" y="4" width="2" height="1" fill="#8ba8c4"/>
<rect x="1" y="5" width="1" height="1" fill="#95a2af"/>
<rect x="2" y="5" width="1" height="1" fill="#40688f"/>
<rect x="3" y="5" width="1" height="1" fill="#456c92"/>
<rect x="4" y="5" width="1" height="1" fill="#53779b"/>
<rect x="5" y="5" width="1" height="1" fill="#7d9ab6"/>
<rect x="6" y="5" width="1" height="1" fill="#7f9cb8"/>
<rect x="7" y="5" width="1" height="1" fill="#839fba"/>
<rect x="8" y="5" width="1" height="1" fill="#86a2bc"/>
<rect x="9" y="5" width="1" height="1" fill="#8ea7c1"/>
<rect x="10" y="5" width="1" height="1" fill="#98afc6"/>
<rect x="11" y="5" width="1" height="1" fill="#9eb4ca"/>
<rect x="12" y="5" width="1" height="1" fill="#a0b6cb"/>
<rect x="13" y="5" width="1" height="1" fill="#a2b8cd"/>
<rect x="14" y="5" width="1" height="1" fill="#a6bace"/>
<rect x="15" y="5" width="1" height="1" fill="#aabed1"/>
<rect x="16" y="5" width="1" height="1" fill="#abbfd2"/>
<rect x="17" y="5" width="1" height="1" fill="#afc1d4"/>
<rect x="18" y="5" width="1" height="1" fill="#b3c5d6"/>
<rect x="19" y="5" width="1" height="1" fill="#b6c8d8"/>
<rect x="20" y="5" width="1" height="1" fill="#b8c9da"/>
<rect x="21" y="5" width="1" height="1" fill="#bcccdb"/>
<rect x="22" y="5" width="1" height="1" fill="#c1d0de"/>
<rect x="23" y="5" width="1" height="1" fill="#c2d1df"/>
<rect x="24" y="5" width="1" height="1" fill="#c6d4e2"/>
<rect x="25" y="5" width="1" height="1" fill="#c8d6e3"/>
<rect x="26" y="5" width="1" height="1" fill="#cbd8e4"/>
<rect x="27" y="5" width="1" height="1" fill="#93adc8"/>
<rect x="28" y="5" width="2" height="1" fill="#8ba8c4"/>
<rect x="1" y="6" width="1" height="1" fill="#95a2af"/>
<rect x="2" y="6" width="1" height="1" fill="#3d658d"/>
<rect x="3" y="6" width="1" height="1" fill="#40688f"/>
<rect x="4" y="6" width="1" height="1" fill="#4e7398"/>
<rect x="5" y="6" width="1" height="1" fill="#7c99b5"/>
<rect x="6" y="6" width="1" height="1" fill="#7d9ab6"/>
<rect x="7" y="6" width="1" height="1" fill="#7f9cb8"/>
<rect x="8" y="6" width="1" height="1" fill="#839fba"/>
<rect x="9" y="6" width="1" height="1" fill="#85a1bb"/>
<rect x="10" y="6" width="1" height="1" fill="#87a2bd"/>
<rect x="11" y="6" width="1" height="1" fill="#8fa8c1"/>
<rect x="12" y="6" width="1" height="1" fill="#99b0c7"/>
<rect x="13" y="6" width="1" height="1" fill="#a0b6cb"/>
<rect x="14" y="6" width="1" height="1" fill="#a2b8cd"/>
<rect x="15" y="6" width="1" height="1" fill="#a6bace"/>
<rect x="16" y="6" width="1" height="1" fill="#aabed1"/>
<rect x="17" y="6" width="1" height="1" fill="#abbfd2"/>
<rect x="18" y="6" width="1" height="1" fill="#afc2d4"/>
<rect x="19" y="6" width="1" height="1" fill="#b3c5d6"/>
<rect x="20" y="6" width="1" height="1" fill="#b6c8d8"/>
<rect x="21" y="6" width="1" height="1" fill="#b8c9da"/>
<rect x="22" y="6" width="1" height="1" fill="#bcccdb"/>
<rect x="23" y="6" width="1" height="1" fill="#c1d0de"/>
<rect x="24" y="6" width="1" height="1" fill="#c2d1df"/>
<rect x="25" y="6" width="1" height="1" fill="#c6d4e2"/>
<rect x="26" y="6" width="1" height="1" fill="#c9d6e4"/>
<rect x="27" y="6" width="1" height="1" fill="#93adc8"/>
<rect x="28" y="6" width="2" height="1" fill="#8ba8c4"/>
<rect x="1" y="7" width="1" height="1" fill="#93a1ae"/>
<rect x="2" y="7" width="1" height="1" fill="#3c648c"/>
<rect x="3" y="7" width="1" height="1" fill="#3d658d"/>
<rect x="4" y="7" width="1" height="1" fill="#497095"/>
<rect x="5" y="7" width="1" height="1" fill="#7795b3"/>
<rect x="6" y="7" width="1" height="1" fill="#7c99b5"/>
<rect x="7" y="7" width="1" height="1" fill="#7d9ab6"/>
<rect x="8" y="7" width="1" height="1" fill="#7f9cb8"/>
<rect x="9" y="7" width="1" height="1" fill="#839fba"/>
<rect x="10" y="7" width="1" height="1" fill="#85a1bb"/>
<rect x="11" y="7" width="1" height="1" fill="#87a2bd"/>
<rect x="12" y="7" width="1" height="1" fill="#8ba5bf"/>
<rect x="13" y="7" width="1" height="1" fill="#90a9c2"/>
<rect x="14" y="7" width="1" height="1" fill="#98afc7"/>
<rect x="15" y="7" width="1" height="1" fill="#a0b6cb"/>
<rect x="16" y="7" width="1" height="1" fill="#a6bace"/>
<rect x="17" y="7" width="1" height="1" fill="#aabed1"/>
<rect x="18" y="7" width="1" height="1" fill="#abbfd2"/>
<rect x="19" y="7" width="1" height="1" fill="#afc2d4"/>
<rect x="20" y="7" width="1" height="1" fill="#b3c5d6"/>
<rect x="21" y="7" width="1" height="1" fill="#b6c8d8"/>
<rect x="22" y="7" width="1" height="1" fill="#b9cada"/>
<rect x="23" y="7" width="1" height="1" fill="#bcccdc"/>
<rect x="24" y="7" width="1" height="1" fill="#c1d0de"/>
<rect x="25" y="7" width="1" height="1" fill="#c2d1df"/>
<rect x="26" y="7" width="1" height="1" fill="#c6d4e2"/>
<rect x="27" y="7" width="1" height="1" fill="#92adc8"/>
<rect x="28" y="7" width="2" height="1" fill="#8ba8c4"/>
<rect x="1" y="8" width="1" height="1" fill="#92a0ad"/>
<rect x="2" y="8" width="1" height="1" fill="#376089"/>
<rect x="3" y="8" width="1" height="1" fill="#3c648c"/>
<rect x="4" y="8" width="1" height="1" fill="#466d93"/>
<rect x="5" y="8" width="1" height="1" fill="#7493b1"/>
<rect x="6" y="8" width="1" height="1" fill="#7795b3"/>
<rect x="7" y="8" width="1" height="1" fill="#7c99b5"/>
<rect x="8" y="8" width="1" height="1" fill="#7d9ab6"/>
<rect x="9" y="8" width="1" height="1" fill="#7f9cb8"/>
<rect x="10" y="8" width="1" height="1" fill="#839fba"/>
<rect x="11" y="8" width="1" height="1" fill="#85a1bb"/>
<rect x="12" y="8" width="1" height="1" fill="#87a2bd"/>
<rect x="13" y="8" width="1" height="1" fill="#8ba5bf"/>
<rect x="14" y="8" width="1" height="1" fill="#8fa8c1"/>
<rect x="15" y="8" width="1" height="1" fill="#91aac3"/>
<rect x="16" y="8" width="1" height="1" fill="#97afc6"/>
<rect x="17" y="8" width="1" height="1" fill="#a1b7cc"/>
<rect x="18" y="8" width="1" height="1" fill="#aabed1"/>
<rect x="19" y="8" width="1" height="1" fill="#abbfd2"/>
<rect x="20" y="8" width="1" height="1" fill="#afc2d4"/>
<rect x="21" y="8" width="1" height="1" fill="#b3c5d6"/>
<rect x="22" y="8" width="1" height="1" fill="#b6c8d8"/>
<rect x="23" y="8" width="1" height="1" fill="#b9cada"/>
<rect x="24" y="8" width="1" height="1" fill="#bcccdc"/>
<rect x="25" y="8" width="1" height="1" fill="#c2d0de"/>
<rect x="26" y="8" width="1" height="1" fill="#c3d1df"/>
<rect x="27" y="8" width="1" height="1" fill="#91acc7"/>
<rect x="28" y="8" width="2" height="1" fill="#8ba8c4"/>
<rect x="1" y="9" width="1" height="1" fill="#929fad"/>
<rect x="2" y="9" width="1" height="1" fill="#345d86"/>
<rect x="3" y="9" width="1" height="1" fill="#376089"/>
<rect x="4" y="9" width="1" height="1" fill="#456c92"/>
<rect x="5" y="9" width="1" height="1" fill="#7291af"/>
<rect x="6" y="9" width="1" height="1" fill="#7493b1"/>
<rect x="7" y="9" width="1" height="1" fill="#7795b3"/>
<rect x="8" y="9" width="1" height="1" fill="#7c99b5"/>
<rect x="9" y="9" width="1" height="1" fill="#7d9ab6"/>
<rect x="10" y="9" width="1" height="1" fill="#7f9cb8"/>
<rect x="11" y="9" width="1" height="1" fill="#839fba"/>
<rect x="12" y="9" width="1" height="1" fill="#85a1bb"/>
<rect x="13" y="9" width="1" height="1" fill="#87a2bd"/>
<rect x="14" y="9" width="1" height="1" fill="#8ba5bf"/>
<rect x="15" y="9" width="1" height="1" fill="#8fa8c1"/>
<rect x="16" y="9" width="1" height="1" fill="#91aac3"/>
<rect x="17" y="9" width="1" height="1" fill="#93acc4"/>
<rect x="18" y="9" width="1" height="1" fill="#98b0c7"/>
<rect x="19" y="9" width="1" height="1" fill="#a3b8cd"/>
<rect x="20" y="9" width="1" height="1" fill="#aabed1"/>
<rect x="21" y="9" width="1" height="1" fill="#afc2d4"/>
<rect x="22" y="9" width="1" height="1" fill="#b4c5d6"/>
<rect x="23" y="9" width="1" height="1" fill="#b6c8d8"/>
<rect x="24" y="9" width="1" height="1" fill="#b9cada"/>
<rect x="25" y="9" width="1" height="1" fill="#bccddc"/>
<rect x="26" y="9" width="1" height="1" fill="#c2d0de"/>
<rect x="27" y="9" width="1" height="1" fill="#8daac4"/>
<rect x="28" y="9" width="1" height="1" fill="#8aa7c3"/>
<rect x="29" y="9" width="1" height="1" fill="#8ba8c4"/>
<rect x="1" y="10" width="1" height="1" fill="#909eac"/>
<rect x="2" y="10" width="1" height="1" fill="#335c85"/>
<rect x="3" y="10" width="1" height="1" fill="#345d86"/>
<rect x="4" y="10" width="1" height="1" fill="#40688f"/>
<rect x="5" y="10" width="1" height="1" fill="#708fae"/>
<rect x="6" y="10" width="1" height="1" fill="#7291af"/>
<rect x="7" y="10" width="1" height="1" fill="#7493b1"/>
<rect x="8" y="10" width="1" height="1" fill="#7795b3"/>
<rect x="9" y="10" width="1" height="1" fill="#7c99b5"/>
<rect x="10" y="10" width="1" height="1" fill="#7d9ab6"/>
<rect x="11" y="10" width="1" height="1" fill="#7f9cb8"/>
<rect x="12" y="10" width="1" height="1" fill="#839fba"/>
<rect x="13" y="10" width="1" height="1" fill="#85a1bb"/>
<rect x="14" y="10" width="1" height="1" fill="#87a2bd"/>
<rect x="15" y="10" width="1" height="1" fill="#8ba5bf"/>
<rect x="16" y="10" width="1" height="1" fill="#8fa8c1"/>
<rect x="17" y="10" width="1" height="1" fill="#91aac3"/>
<rect x="18" y="10" width="1" height="1" fill="#93acc4"/>
<rect x="19" y="10" width="1" height="1" fill="#97afc6"/>
<rect x="20" y="10" width="1" height="1" fill="#9cb3c9"/>
<rect x="21" y="10" width="1" height="1" fill="#a1b7cc"/>
<rect x="22" y="10" width="1" height="1" fill="#aabed1"/>
<rect x="23" y="10" width="1" height="1" fill="#b3c5d6"/>
<rect x="24" y="10" width="1" height="1" fill="#b6c8d8"/>
<rect x="25" y="10" width="1" height="1" fill="#b9cada"/>
<rect x="26" y="10" width="1" height="1" fill="#bdcddc"/>
<rect x="27" y="10" width="1" height="1" fill="#8ca9c3"/>
<rect x="28" y="10" width="1" height="1" fill="#86a4c0"/>
<rect x="29" y="10" width="1" height="1" fill="#8aa7c3"/>
<rect x="1" y="11" width="1" height="1" fill="#8f9dab"/>
<rect x="2" y="11" width="1" height="1" fill="#2e5882"/>
<rect x="3" y="11" width="1" height="1" fill="#335c85"/>
<rect x="4" y="11" width="1" height="1" fill="#3d658c"/>
<rect x="5" y="11" width="1" height="1" fill="#6c8cac"/>
<rect x="6" y="11" width="1" height="1" fill="#708fae"/>
<rect x="7" y="11" width="1" height="1" fill="#7291af"/>
<rect x="8" y="11" width="1" height="1" fill="#7493b1"/>
<rect x="9" y="11" width="1" height="1" fill="#7795b3"/>
<rect x="10" y="11" width="1" height="1" fill="#7c99b5"/>
<rect x="11" y="11" width="1" height="1" fill="#7d9ab6"/>
<rect x="12" y="11" width="1" height="1" fill="#7f9cb8"/>
<rect x="13" y="11" width="1" height="1" fill="#839fba"/>
<rect x="14" y="11" width="1" height="1" fill="#85a1bb"/>
<rect x="15" y="11" width="1" height="1" fill="#87a2bd"/>
<rect x="16" y="11" width="1" height="1" fill="#8ba5bf"/>
<rect x="17" y="11" width="1" height="1" fill="#8fa8c1"/>
<rect x="18" y="11" width="1" height="1" fill="#91aac3"/>
<rect x="19" y="11" width="1" height="1" fill="#93acc4"/>
<rect x="20" y="11" width="1" height="1" fill="#97afc6"/>
<rect x="21" y="11" width="1" height="1" fill="#9cb3c9"/>
<rect x="22" y="11" width="1" height="1" fill="#9db4ca"/>
<rect x="23" y="11" width="1" height="1" fill="#a3b8cd"/>
<rect x="24" y="11" width="1" height="1" fill="#adc0d3"/>
<rect x="25" y="11" width="1" height="1" fill="#b5c7d8"/>
<rect x="26" y="11" width="1" height="1" fill="#b9cada"/>
<rect x="27" y="11" width="1" height="1" fill="#87a5c0"/>
<rect x="28" y="11" width="1" height="1" fill="#85a3bf"/>
<rect x="29" y="11" width="1" height="1" fill="#86a4c0"/>
<rect x="1" y="12" width="1" height="1" fill="#8d9caa"/>
<rect x="2" y="12" width="1" height="1" fill="#2a547f"/>
<rect x="3" y="12" width="1" height="1" fill="#2e5882"/>
<rect x="4" y="12" width="1" height="1" fill="#3c648b"/>
<rect x="5" y="12" width="1" height="1" fill="#698aaa"/>
<rect x="6" y="12" width="1" height="1" fill="#6c8cac"/>
<rect x="7" y="12" width="1" height="1" fill="#708fae"/>
<rect x="8" y="12" width="1" height="1" fill="#7291af"/>
<rect x="9" y="12" width="1" height="1" fill="#7493b1"/>
<rect x="10" y="12" width="1" height="1" fill="#7795b3"/>
<rect x="11" y="12" width="1" height="1" fill="#7c99b5"/>
<rect x="12" y="12" width="1" height="1" fill="#7d9ab6"/>
<rect x="13" y="12" width="1" height="1" fill="#7f9cb8"/>
<rect x="14" y="12" width="1" height="1" fill="#839fba"/>
<rect x="15" y="12" width="1" height="1" fill="#85a1bb"/>
<rect x="16" y="12" width="1" height="1" fill="#87a2bd"/>
<rect x="17" y="12" width="1" height="1" fill="#8ba5bf"/>
<rect x="18" y="12" width="1" height="1" fill="#8fa8c1"/>
<rect x="19" y="12" width="1" height="1" fill="#91aac3"/>
<rect x="20" y="12" width="1" height="1" fill="#93acc4"/>
<rect x="21" y="12" width="1" height="1" fill="#97afc6"/>
<rect x="22" y="12" width="1" height="1" fill="#9cb3c9"/>
<rect x="23" y="12" width="1" height="1" fill="#9db4ca"/>
<rect x="24" y="12" width="1" height="1" fill="#a1b7cc"/>
<rect x="25" y="12" width="1" height="1" fill="#a6bbcf"/>
<rect x="26" y="12" width="1" height="1" fill="#adc1d3"/>
<rect x="27" y="12" width="1" height="1" fill="#82a0bd"/>
<rect x="28" y="12" width="1" height="1" fill="#809fbc"/>
<rect x="29" y="12" width="1" height="1" fill="#85a3bf"/>
<rect x="1" y="13" width="1" height="1" fill="#8d9baa"/>
<rect x="2" y="13" width="1" height="1" fill="#26517d"/>
<rect x="3" y="13" width="1" height="1" fill="#2a547f"/>
<rect x="4" y="13" width="1" height="1" fill="#376089"/>
<rect x="5" y="13" width="1" height="1" fill="#6889a9"/>
<rect x="6" y="13" width="1" height="1" fill="#698aaa"/>
<rect x="7" y="13" width="1" height="1" fill="#6c8cac"/>
<rect x="8" y="13" width="1" height="1" fill="#708fae"/>
<rect x="9" y="13" width="1" height="1" fill="#7291af"/>
<rect x="10" y="13" width="1" height="1" fill="#7493b1"/>
<rect x="11" y="13" width="1" height="1" fill="#7795b3"/>
<rect x="12" y="13" width="1" height="1" fill="#7c99b5"/>
<rect x="13" y="13" width="1" height="1" fill="#7d9ab6"/>
<rect x="14" y="13" width="1" height="1" fill="#7f9cb8"/>
<rect x="15" y="13" width="1" height="1" fill="#839fba"/>
<rect x="16" y="13" width="1" height="1" fill="#85a1bb"/>
<rect x="17" y="13" width="1" height="1" fill="#87a2bd"/>
<rect x="18" y="13" width="1" height="1" fill="#8ba5bf"/>
<rect x="19" y="13" width="1" height="1" fill="#8fa8c1"/>
<rect x="20" y="13" width="1" height="1" fill="#91aac3"/>
<rect x="21" y="13" width="1" height="1" fill="#93acc4"/>
<rect x="22" y="13" width="1" height="1" fill="#97afc6"/>
<rect x="23" y="13" width="1" height="1" fill="#9cb3c9"/>
<rect x="24" y="13" width="1" height="1" fill="#9db4ca"/>
<rect x="25" y="13" width="1" height="1" fill="#a1b7cc"/>
<rect x="26" y="13" width="1" height="1" fill="#a6bbcf"/>
<rect x="27" y="13" width="1" height="1" fill="#7d9cba"/>
<rect x="28" y="13" width="1" height="1" fill="#7c9bb9"/>
<rect x="29" y="13" width="1" height="1" fill="#809fbc"/>
<rect x="1" y="14" width="1" height="1" fill="#8c9ba9"/>
<rect x="2" y="14" width="1" height="1" fill="#25507c"/>
<rect x="3" y="14" width="1" height="1" fill="#26517d"/>
<rect x="4" y="14" width="1" height="1" fill="#345c86"/>
<rect x="5" y="14" width="1" height="1" fill="#6485a7"/>
<rect x="6" y="14" width="1" height="1" fill="#6889a9"/>
<rect x="7" y="14" width="1" height="1" fill="#698aaa"/>
<rect x="8" y="14" width="1" height="1" fill="#6c8cac"/>
<rect x="9" y="14" width="1" height="1" fill="#708fae"/>
<rect x="10" y="14" width="1" height="1" fill="#7291af"/>
<rect x="11" y="14" width="1" height="1" fill="#7493b1"/>
<rect x="12" y="14" width="1" height="1" fill="#7795b3"/>
<rect x="13" y="14" width="1" height="1" fill="#7c99b5"/>
<rect x="14" y="14" width="1" height="1" fill="#7d9ab6"/>
<rect x="15" y="14" width="1" height="1" fill="#7f9cb8"/>
<rect x="16" y="14" width="1" height="1" fill="#839fba"/>
<rect x="17" y="14" width="1" height="1" fill="#85a1bb"/>
<rect x="18" y="14" width="1" height="1" fill="#87a2bd"/>
<rect x="19" y="14" width="1" height="1" fill="#8ba5bf"/>
<rect x="20" y="14" width="1" height="1" fill="#8fa8c1"/>
<rect x="21" y="14" width="1" height="1" fill="#91aac3"/>
<rect x="22" y="14" width="1" height="1" fill="#93acc4"/>
<rect x="23" y="14" width="1" height="1" fill="#97afc6"/>
<rect x="24" y="14" width="1" height="1" fill="#9cb3c9"/>
<rect x="25" y="14" width="1" height="1" fill="#9db4ca"/>
<rect x="26" y="14" width="1" height="1" fill="#a1b7cc"/>
<rect x="27" y="14" width="1" height="1" fill="#7c9bb9"/>
<rect x="28" y="14" width="1" height="1" fill="#7898b7"/>
<rect x="29" y="14" width="1" height="1" fill="#7c9bb9"/>
<rect x="1" y="15" width="1" height="1" fill="#8c9ba9"/>
<rect x="2" y="15" width="1" height="1" fill="#224e7a"/>
<rect x="3" y="15" width="1" height="1" fill="#25507c"/>
<rect x="4" y="15" width="1" height="1" fill="#305984"/>
<rect x="5" y="15" width="1" height="1" fill="#6183a5"/>
<rect x="6" y="15" width="1" height="1" fill="#6485a7"/>
<rect x="7" y="15" width="1" height="1" fill="#6889a9"/>
<rect x="8" y="15" width="1" height="1" fill="#698aaa"/>
<rect x="9" y="15" width="1" height="1" fill="#6c8cac"/>
<rect x="10" y="15" width="1" height="1" fill="#708fae"/>
<rect x="11" y="15" width="1" height="1" fill="#7291af"/>
<rect x="12" y="15" width="1" height="1" fill="#7493b1"/>
<rect x="13" y="15" width="1" height="1" fill="#7795b3"/>
<rect x="14" y="15" width="1" height="1" fill="#7c99b5"/>
<rect x="15" y="15" width="1" height="1" fill="#7d9ab6"/>
<rect x="16" y="15" width="1" height="1" fill="#7f9cb8"/>
<rect x="17" y="15" width="1" height="1" fill="#839fba"/>
<rect x="18" y="15" width="1" height="1" fill="#85a1bb"/>
<rect x="19" y="15" width="1" height="1" fill="#87a2bd"/>
<rect x="20" y="15" width="1" height="1" fill="#8ba5bf"/>
<rect x="21" y="15" width="1" height="1" fill="#8fa8c1"/>
<rect x="22" y="15" width="1" height="1" fill="#91aac3"/>
<rect x="23" y="15" width="1" height="1" fill="#93acc4"/>
<rect x="24" y="15" width="1" height="1" fill="#97afc6"/>
<rect x="25" y="15" width="1" height="1" fill="#9cb3c9"/>
<rect x="26" y="15" width="1" height="1" fill="#9db4ca"/>
<rect x="27" y="15" width="1" height="1" fill="#7897b5"/>
<rect x="28" y="15" width="1" height="1" fill="#7797b6"/>
<rect x="29" y="15" width="1" height="1" fill="#7898b7"/>
<rect x="1" y="16" width="1" height="1" fill="#8c9ba9"/>
<rect x="2" y="16" width="2" height="1" fill="#224e7a"/>
<rect x="4" y="16" width="1" height="1" fill="#2f5883"/>
<rect x="5" y="16" width="1" height="1" fill="#5e81a3"/>
<rect x="6" y="16" width="1" height="1" fill="#6183a5"/>
<rect x="7" y="16" width="1" height="1" fill="#6485a7"/>
<rect x="8" y="16" width="1" height="1" fill="#6889a9"/>
<rect x="9" y="16" width="1" height="1" fill="#698aaa"/>
<rect x="10" y="16" width="1" height="1" fill="#6c8cac"/>
<rect x="11" y="16" width="1" height="1" fill="#708fae"/>
<rect x="12" y="16" width="1" height="1" fill="#7291af"/>
<rect x="13" y="16" width="1" height="1" fill="#7493b1"/>
<rect x="14" y="16" width="1" height="1" fill="#7795b3"/>
<rect x="15" y="16" width="1" height="1" fill="#7c99b5"/>
<rect x="16" y="16" width="1" height="1" fill="#7d9ab6"/>
<rect x="17" y="16" width="1" height="1" fill="#7f9cb8"/>
<rect x="18" y="16" width="1" height="1" fill="#839fba"/>
<rect x="19" y="16" width="1" height="1" fill="#85a1bb"/>
<rect x="20" y="16" width="1" height="1" fill="#87a2bd"/>
<rect x="21" y="16" width="1" height="1" fill="#8ba5bf"/>
<rect x="22" y="16" width="1" height="1" fill="#8fa8c1"/>
<rect x="23" y="16" width="1" height="1" fill="#91aac3"/>
<rect x="24" y="16" width="1" height="1" fill="#93acc4"/>
<rect x="25" y="16" width="1" height="1" fill="#97afc6"/>
<rect x="26" y="16" width="1" height="1" fill="#9cb3c9"/>
<rect x="27" y="16" width="1" height="1" fill="#7494b3"/>
<rect x="28" y="16" width="1" height="1" fill="#7393b2"/>
<rect x="29" y="16" width="1" height="1" fill="#7797b6"/>
<rect x="1" y="17" width="1" height="1" fill="#8c9ba9"/>
<rect x="2" y="17" width="2" height="1" fill="#224e7a"/>
<rect x="4" y="17" width="1" height="1" fill="#2c5681"/>
<rect x="5" y="17" width="1" height="1" fill="#5c7fa2"/>
<rect x="6" y="17" width="1" height="1" fill="#5e81a3"/>
<rect x="7" y="17" width="1" height="1" fill="#6183a5"/>
<rect x="8" y="17" width="1" height="1" fill="#6485a7"/>
<rect x="9" y="17" width="1" height="1" fill="#6889a9"/>
<rect x="10" y="17" width="1" height="1" fill="#698aaa"/>
<rect x="11" y="17" width="1" height="1" fill="#6c8cac"/>
<rect x="12" y="17" width="1" height="1" fill="#708fae"/>
<rect x="13" y="17" width="1" height="1" fill="#7291af"/>
<rect x="14" y="17" width="1" height="1" fill="#7493b1"/>
<rect x="15" y="17" width="1" height="1" fill="#7795b3"/>
<rect x="16" y="17" width="1" height="1" fill="#7c99b5"/>
<rect x="17" y="17" width="1" height="1" fill="#7d9ab6"/>
<rect x="18" y="17" width="1" height="1" fill="#7f9cb8"/>
<rect x="19" y="17" width="1" height="1" fill="#839fba"/>
<rect x="20" y="17" width="1" height="1" fill="#85a1bb"/>
<rect x="21" y="17" width="1" height="1" fill="#87a2bd"/>
<rect x="22" y="17" width="1" height="1" fill="#8ba5bf"/>
<rect x="23" y="17" width="1" height="1" fill="#8fa8c1"/>
<rect x="24" y="17" width="1" height="1" fill="#91aac3"/>
<rect x="25" y="17" width="1" height="1" fill="#93acc4"/>
<rect x="26" y="17" width="1" height="1" fill="#97afc6"/>
<rect x="27" y="17" width="1" height="1" fill="#7393b2"/>
<rect x="28" y="17" width="1" height="1" fill="#6f90b0"/>
<rect x="29" y="17" width="1" height="1" fill="#7393b2"/>
<rect x="1" y="18" width="1" height="1" fill="#8c9ba9"/>
<rect x="2" y="18" width="2" height="1" fill="#224e7a"/>
<rect x="4" y="18" width="1" height="1" fill="#2b5681"/>
<rect x="5" y="18" width="1" height="1" fill="#597da0"/>
<rect x="6" y="18" width="1" height="1" fill="#5c7fa2"/>
<rect x="7" y="18" width="1" height="1" fill="#5e81a3"/>
<rect x="8" y="18" width="1" height="1" fill="#6183a5"/>
<rect x="9" y="18" width="1" height="1" fill="#6485a7"/>
<rect x="10" y="18" width="1" height="1" fill="#6889a9"/>
<rect x="11" y="18" width="1" height="1" fill="#698aaa"/>
<rect x="12" y="18" width="1" height="1" fill="#6c8cac"/>
<rect x="13" y="18" width="1" height="1" fill="#708fae"/>
<rect x="14" y="18" width="1" height="1" fill="#7291af"/>
<rect x="15" y="18" width="1" height="1" fill="#7493b1"/>
<rect x="16" y="18" width="1" height="1" fill="#7795b3"/>
<rect x="17" y="18" width="1" height="1" fill="#7c99b5"/>
<rect x="18" y="18" width="1" height="1" fill="#7d9ab6"/>
<rect x="19" y="18" width="1" height="1" fill="#7f9cb8"/>
<rect x="20" y="18" width="1" height="1" fill="#839fba"/>
<rect x="21" y="18" width="1" height="1" fill="#85a1bb"/>
<rect x="22" y="18" width="1" height="1" fill="#87a2bd"/>
<rect x="23" y="18" width="1" height="1" fill="#8ba5bf"/>
<rect x="24" y="18" width="1" height="1" fill="#8fa8c1"/>
<rect x="25" y="18" width="1" height="1" fill="#91aac3"/>
<rect x="26" y="18" width="1" height="1" fill="#93acc4"/>
<rect x="27" y="18" width="2" height="1" fill="#6e8faf"/>
<rect x="29" y="18" width="1" height="1" fill="#6f90b0"/>
<rect x="1" y="19" width="1" height="1" fill="#8c9ba9"/>
<rect x="2" y="19" width="2" height="1" fill="#224e7a"/>
<rect x="4" y="19" width="1" height="1" fill="#2b5681"/>
<rect x="5" y="19" width="1" height="1" fill="#587ca0"/>
<rect x="6" y="19" width="1" height="1" fill="#597da0"/>
<rect x="7" y="19" width="1" height="1" fill="#5c7fa2"/>
<rect x="8" y="19" width="1" height="1" fill="#5e81a3"/>
<rect x="9" y="19" width="1" height="1" fill="#6183a5"/>
<rect x="10" y="19" width="1" height="1" fill="#6485a7"/>
<rect x="11" y="19" width="1" height="1" fill="#6889a9"/>
<rect x="12" y="19" width="1" height="1" fill="#698aaa"/>
<rect x="13" y="19" width="1" height="1" fill="#6c8cac"/>
<rect x="14" y="19" width="1" height="1" fill="#708fae"/>
<rect x="15" y="19" width="1" height="1" fill="#7291af"/>
<rect x="16" y="19" width="1" height="1" fill="#7493b1"/>
<rect x="17" y="19" width="1" height="1" fill="#7795b3"/>
<rect x="18" y="19" width="1" height="1" fill="#7c99b5"/>
<rect x="19" y="19" width="1" height="1" fill="#7d9ab6"/>
<rect x="20" y="19" width="1" height="1" fill="#7f9cb8"/>
<rect x="21" y="19" width="1" height="1" fill="#839fba"/>
<rect x="22" y="19" width="1" height="1" fill="#85a1bb"/>
<rect x="23" y="19" width="1" height="1" fill="#87a2bd"/>
<rect x="24" y="19" width="1" height="1" fill="#8ba5bf"/>
<rect x="25" y="19" width="1" height="1" fill="#8fa8c1"/>
<rect x="26" y="19" width="1" height="1" fill="#91aac3"/>
<rect x="27" y="19" width="2" height="1" fill="#6a8bac"/>
<rect x="29" y="19" width="1" height="1" fill="#6e8faf"/>
<rect x="1" y="20" width="1" height="1" fill="#8c9ba9"/>
<rect x="2" y="20" width="2" height="1" fill="#224e7a"/>
<rect x="4" y="20" width="1" height="1" fill="#2a5580"/>
<rect x="5" y="20" width="2" height="1" fill="#51769b"/>
<rect x="7" y="20" width="1" height="1" fill="#53779c"/>
<rect x="8" y="20" width="1" height="1" fill="#567a9d"/>
<rect x="9" y="20" width="1" height="1" fill="#577b9f"/>
<rect x="10" y="20" width="1" height="1" fill="#5a7da0"/>
<rect x="11" y="20" width="1" height="1" fill="#5d80a3"/>
<rect x="12" y="20" width="2" height="1" fill="#6284a5"/>
<rect x="14" y="20" width="1" height="1" fill="#6587a8"/>
<rect x="15" y="20" width="1" height="1" fill="#6a8aaa"/>
<rect x="16" y="20" width="1" height="1" fill="#6b8cab"/>
<rect x="17" y="20" width="1" height="1" fill="#6d8dad"/>
<rect x="18" y="20" width="1" height="1" fill="#7191af"/>
<rect x="19" y="20" width="1" height="1" fill="#7694b1"/>
<rect x="20" y="20" width="1" height="1" fill="#7695b2"/>
<rect x="21" y="20" width="1" height="1" fill="#7997b4"/>
<rect x="22" y="20" width="1" height="1" fill="#7e9bb7"/>
<rect x="23" y="20" width="1" height="1" fill="#7f9cb8"/>
<rect x="24" y="20" width="1" height="1" fill="#819db9"/>
<rect x="25" y="20" width="1" height="1" fill="#85a1bc"/>
<rect x="26" y="20" width="1" height="1" fill="#89a4be"/>
<rect x="27" y="20" width="1" height="1" fill="#6587aa"/>
<rect x="28" y="20" width="1" height="1" fill="#6587a9"/>
<rect x="29" y="20" width="1" height="1" fill="#6a8bac"/>
<rect x="1" y="21" width="1" height="1" fill="#8c9ba9"/>
<rect x="2" y="21" width="7" height="1" fill="#224e7a"/>
<rect x="9" y="21" width="1" height="1" fill="#25507c"/>
<rect x="10" y="21" width="1" height="1" fill="#26517d"/>
<rect x="11" y="21" width="1" height="1" fill="#2a547f"/>
<rect x="12" y="21" width="1" height="1" fill="#2e5882"/>
<rect x="13" y="21" width="1" height="1" fill="#335c85"/>
<rect x="14" y="21" width="1" height="1" fill="#345d86"/>
<rect x="15" y="21" width="1" height="1" fill="#376089"/>
<rect x="16" y="21" width="1" height="1" fill="#3c648c"/>
<rect x="17" y="21" width="1" height="1" fill="#3d658d"/>
<rect x="18" y="21" width="1" height="1" fill="#40688f"/>
<rect x="19" y="21" width="1" height="1" fill="#456c92"/>
<rect x="20" y="21" width="1" height="1" fill="#4a7095"/>
<rect x="21" y="21" width="1" height="1" fill="#4b7196"/>
<rect x="22" y="21" width="1" height="1" fill="#4e7499"/>
<rect x="23" y="21" width="1" height="1" fill="#53789c"/>
<rect x="24" y="21" width="1" height="1" fill="#54799d"/>
<rect x="25" y="21" width="1" height="1" fill="#577b9f"/>
<rect x="26" y="21" width="1" height="1" fill="#5c7fa2"/>
<rect x="27" y="21" width="1" height="1" fill="#6083a6"/>
<rect x="28" y="21" width="1" height="1" fill="#6184a7"/>
<rect x="29" y="21" width="1" height="1" fill="#6587a9"/>
<rect x="1" y="22" width="1" height="1" fill="#8c9ba9"/>
<rect x="2" y="22" width="8" height="1" fill="#224e7a"/>
<rect x="10" y="22" width="1" height="1" fill="#25507c"/>
<rect x="11" y="22" width="1" height="1" fill="#26517d"/>
<rect x="12" y="22" width="1" height="1" fill="#2a547f"/>
<rect x="13" y="22" width="1" height="1" fill="#2e5882"/>
<rect x="14" y="22" width="1" height="1" fill="#335c85"/>
<rect x="15" y="22" width="1" height="1" fill="#345d86"/>
<rect x="16" y="22" width="1" height="1" fill="#376089"/>
<rect x="17" y="22" width="1" height="1" fill="#3c648c"/>
<rect x="18" y="22" width="1" height="1" fill="#3d658d"/>
<rect x="19" y="22" width="1" height="1" fill="#40688f"/>
<rect x="20" y="22" width="1" height="1" fill="#456c92"/>
<rect x="21" y="22" width="1" height="1" fill="#4a7095"/>
<rect x="22" y="22" width="1" height="1" fill="#4b7196"/>
<rect x="23" y="22" width="1" height="1" fill="#4e7499"/>
<rect x="24" y="22" width="1" height="1" fill="#53789c"/>
<rect x="25" y="22" width="1" height="1" fill="#54799d"/>
<rect x="26" y="22" width="1" height="1" fill="#577b9f"/>
<rect x="27" y="22" width="1" height="1" fill="#5c7fa2"/>
<rect x="28" y="22" width="1" height="1" fill="#6083a6"/>
<rect x="29" y="22" width="1" height="1" fill="#6184a7"/>
<rect x="1" y="23" width="1" height="1" fill="#8c9ba9"/>
<rect x="2" y="23" width="9" height="1" fill="#224e7a"/>
<rect x="11" y="23" width="1" height="1" fill="#25507c"/>
<rect x="12" y="23" width="1" height="1" fill="#26517d"/>
<rect x="13" y="23" width="1" height="1" fill="#2a547f"/>
<rect x="14" y="23" width="1" height="1" fill="#2e5882"/>
<rect x="15" y="23" width="1" height="1" fill="#335c85"/>
<rect x="16" y="23" width="1" height="1" fill="#345d86"/>
<rect x="17" y="23" width="1" height="1" fill="#376089"/>
<rect x="18" y="23" width="1" height="1" fill="#3c648c"/>
<rect x="19" y="23" width="1" height="1" fill="#3d658d"/>
<rect x="20" y="23" width="1" height="1" fill="#40688f"/>
<rect x="21" y="23" width="1" height="1" fill="#456c92"/>
<rect x="22" y="23" width="1" height="1" fill="#4a7095"/>
<rect x="23" y="23" width="1" height="1" fill="#4b7196"/>
<rect x="24" y="23" width="1" height="1" fill="#4e7499"/>
<rect x="25" y="23" width="1" height="1" fill="#53789c"/>
<rect x="26" y="23" width="1" height="1" fill="#54799d"/>
<rect x="27" y="23" width="1" height="1" fill="#577b9f"/>
<rect x="28" y="23" width="1" height="1" fill="#5c7fa2"/>
<rect x="29" y="23" width="1" height="1" fill="#6083a6"/>
<rect x="2" y="24" width="10" height="1" fill="#7b8ea1"/>
<rect x="12" y="24" width="2" height="1" fill="#7c8fa3"/>
<rect x="14" y="24" width="1" height="1" fill="#7b8fa3"/>
<rect x="15" y="24" width="1" height="1" fill="#47709a"/>
<rect x="16" y="24" width="1" height="1" fill="#346291"/>
<rect x="17" y="24" width="1" height="1" fill="#8395a7"/>
<rect x="18" y="24" width="1" height="1" fill="#8496a8"/>
<rect x="19" y="24" width="2" height="1" fill="#8698aa"/>
<rect x="21" y="24" width="1" height="1" fill="#889aab"/>
<rect x="22" y="24" width="1" height="1" fill="#8a9cac"/>
<rect x="23" y="24" width="2" height="1" fill="#8d9dae"/>
<rect x="25" y="24" width="1" height="1" fill="#8e9faf"/>
<rect x="26" y="24" width="2" height="1" fill="#91a1b1"/>
<rect x="28" y="24" width="1" height="1" fill="#92a2b2"/>
<rect x="29" y="24" width="1" height="1" fill="#95a4b3"/>
<rect x="15" y="25" width="1" height="1" fill="#5a83ac"/>
<rect x="16" y="25" width="1" height="1" fill="#34679a"/>
<rect x="15" y="26" width="1" height="1" fill="#5a83ac"/>
<rect x="16" y="26" width="1" height="1" fill="#34679a"/>
<rect x="15" y="27" width="1" height="1" fill="#5a83ac"/>
<rect x="16" y="27" width="1" height="1" fill="#34679a"/>
<rect x="5" y="28" width="1" height="1" fill="#d3d3d3"/>
<rect x="6" y="28" width="6" height="1" fill="#e5e5e5"/>
<rect x="13" y="28" width="1" height="1" fill="#718ca6"/>
<rect x="14" y="28" width="1" height="1" fill="#708ba6"/>
<rect x="15" y="28" width="1" height="1" fill="#6081a3"/>
<rect x="16" y="28" width="1" height="1" fill="#5a7da0"/>
<rect x="17" y="28" width="2" height="1" fill="#718ca6"/>
<rect x="20" y="28" width="6" height="1" fill="#e5e5e5"/>
<rect x="5" y="29" width="1" height="1" fill="#70869d"/>
<rect x="6" y="29" width="20" height="1" fill="#224e7a"/>
<rect x="26" y="29" width="1" height="1" fill="#7d90a2"/>
<rect x="5" y="30" width="1" height="1" fill="#909eab"/>
<rect x="6" y="30" width="6" height="1" fill="#627c97"/>
<rect x="12" y="30" width="1" height="1" fill="#527190"/>
<rect x="13" y="30" width="6" height="1" fill="#3c6186"/>
<rect x="19" y="30" width="1" height="1" fill="#557391"/>
<rect x="20" y="30" width="6" height="1" fill="#627c97"/>
<rect x="26" y="30" width="1" height="1" fill="#98a4af"/>
</svg>