<svg xmlns="http://www.w3.org/2000/svg" width="32" height="32" viewBox="0 0 32 32" shape-rendering="crispEdges">
<rect x="13" y="3" width="1" height="1" fill="#a4aeb7"/>
<rect x="14" y="3" width="2" height="1" fill="#7790a9"/>
<rect x="16" y="3" width="1" height="1" fill="#7c94ac"/>
<rect x="9" y="4" width="1" height="1" fill="#95a3b1"/>
<rect x="10" y="4" width="1" height="1" fill="#7f95aa"/>
<rect x="13" y="4" width="1" height="1" fill="#8b9daf"/>
<rect x="14" y="4" width="1" height="1" fill="#6383a2"/>
<rect x="15" y="4" width="1" height="1" fill="#6685a4"/>
<rect x="16" y="4" width="1" height="1" fill="#6887a6"/>
<rect x="20" y="4" width="1" height="1" fill="#8b9fb3"/>
<rect x="8" y="5" width="1" height="1" fill="#6784a1"/>
<rect x="9" y="5" width="1" height="1" fill="#57799b"/>
<rect x="10" y="5" width="1" height="1" fill="#597a9c"/>
<rect x="11" y="5" width="1" height="1" fill="#7f94aa"/>
<rect x="13" y="5" width="1" height="1" fill="#738da6"/>
<rect x="14" y="5" width="1" height="1" fill="#6383a2"/>
<rect x="15" y="5" width="1" height="1" fill="#6685a4"/>
<rect x="16" y="5" width="1" height="1" fill="#6987a6"/>
<rect x="17" y="5" width="1" height="1" fill="#92a2b3"/>
<rect x="19" y="5" width="1" height="1" fill="#8299b0"/>
<rect x="20" y="5" width="1" height="1" fill="#7390ad"/>
<rect x="21" y="5" width="1" height="1" fill="#9db2c7"/>
<rect x="8" y="6" width="1" height="1" fill="#54779a"/>
<rect x="9" y="6" width="1" height="1" fill="#55789a"/>
<rect x="10" y="6" width="1" height="1" fill="#57799b"/>
<rect x="11" y="6" width="1" height="1" fill="#5a7b9c"/>
<rect x="12" y="6" width="1" height="1" fill="#5d7e9f"/>
<rect x="13" y="6" width="1" height="1" fill="#5f7fa0"/>
<rect x="14" y="6" width="1" height="1" fill="#6282a1"/>
<rect x="15" y="6" width="1" height="1" fill="#6584a4"/>
<rect x="16" y="6" width="1" height="1" fill="#6987a6"/>
<rect x="17" y="6" width="1" height="1" fill="#6c8aa8"/>
<rect x="18" y="6" width="1" height="1" fill="#6f8daa"/>
<rect x="19" y="6" width="1" height="1" fill="#728fac"/>
<rect x="20" y="6" width="1" height="1" fill="#7592ae"/>
<rect x="21" y="6" width="1" height="1" fill="#bbcbda"/>
<rect x="22" y="6" width="1" height="1" fill="#7994ae"/>
<rect x="8" y="7" width="1" height="1" fill="#64829f"/>
<rect x="9" y="7" width="1" height="1" fill="#54779a"/>
<rect x="10" y="7" width="1" height="1" fill="#55789a"/>
<rect x="11" y="7" width="1" height="1" fill="#587a9c"/>
<rect x="12" y="7" width="1" height="1" fill="#5b7c9d"/>
<rect x="13" y="7" width="1" height="1" fill="#5f809f"/>
<rect x="14" y="7" width="1" height="1" fill="#6d89a5"/>
<rect x="15" y="7" width="1" height="1" fill="#738da8"/>
<rect x="16" y="7" width="1" height="1" fill="#6f8ba8"/>
<rect x="17" y="7" width="1" height="1" fill="#6c8aa8"/>
<rect x="18" y="7" width="1" height="1" fill="#6f8daa"/>
<rect x="19" y="7" width="1" height="1" fill="#7390ac"/>
<rect x="20" y="7" width="1" height="1" fill="#a1b6ca"/>
<rect x="21" y="7" width="1" height="1" fill="#86a0b9"/>
<rect x="22" y="7" width="1" height="1" fill="#8fa1b4"/>
<rect x="5" y="8" width="1" height="1" fill="#768ea5"/>
<rect x="6" y="8" width="1" height="1" fill="#9ba7b3"/>
<rect x="8" y="8" width="1" height="1" fill="#5e7e9d"/>
<rect x="9" y="8" width="1" height="1" fill="#527598"/>
<rect x="10" y="8" width="1" height="1" fill="#54779a"/>
<rect x="11" y="8" width="1" height="1" fill="#6c88a3"/>
<rect x="12" y="8" width="1" height="1" fill="#9da8b4"/>
<rect x="13" y="8" width="1" height="1" fill="#babcbe"/>
<rect x="14" y="8" width="3" height="1" fill="#c0c0c0"/>
<rect x="17" y="8" width="1" height="1" fill="#b5b9bd"/>
<rect x="18" y="8" width="1" height="1" fill="#9aa8b6"/>
<rect x="19" y="8" width="1" height="1" fill="#7f99b2"/>
<rect x="20" y="8" width="1" height="1" fill="#a5b9cc"/>
<rect x="21" y="8" width="1" height="1" fill="#7390ad"/>
<rect x="22" y="8" width="1" height="1" fill="#899db1"/>
<rect x="24" y="8" width="1" height="1" fill="#9eabb7"/>
<rect x="25" y="8" width="1" height="1" fill="#8ea0b2"/>
<rect x="4" y="9" width="1" height="1" fill="#69849f"/>
<rect x="5" y="9" width="1" height="1" fill="#4b6f93"/>
<rect x="6" y="9" width="1" height="1" fill="#4d7195"/>
<rect x="7" y="9" width="1" height="1" fill="#4e7296"/>
<rect x="8" y="9" width="1" height="1" fill="#507397"/>
<rect x="9" y="9" width="1" height="1" fill="#537698"/>
<rect x="10" y="9" width="1" height="1" fill="#92a1b0"/>
<rect x="11" y="9" width="8" height="1" fill="#c0c0c0"/>
<rect x="19" y="9" width="1" height="1" fill="#bec0c1"/>
<rect x="20" y="9" width="1" height="1" fill="#8ea1b4"/>
<rect x="21" y="9" width="2" height="1" fill="#718eab"/>
<rect x="23" y="9" width="1" height="1" fill="#6e8ca9"/>
<rect x="24" y="9" width="1" height="1" fill="#6d8ba9"/>
<rect x="25" y="9" width="1" height="1" fill="#6b89a8"/>
<rect x="26" y="9" width="1" height="1" fill="#9aa7b5"/>
<rect x="3" y="10" width="1" height="1" fill="#9da8b3"/>
<rect x="4" y="10" width="1" height="1" fill="#486d92"/>
<rect x="5" y="10" width="1" height="1" fill="#496e92"/>
<rect x="6" y="10" width="1" height="1" fill="#4a6f93"/>
<rect x="7" y="10" width="1" height="1" fill="#4c7094"/>
<rect x="8" y="10" width="1" height="1" fill="#4e7296"/>
<rect x="9" y="10" width="1" height="1" fill="#9ea9b4"/>
<rect x="10" y="10" width="5" height="1" fill="#c0c0c0"/>
<rect x="15" y="10" width="1" height="1" fill="#8596a6"/>
<rect x="16" y="10" width="1" height="1" fill="#b3b7ba"/>
<rect x="17" y="10" width="4" height="1" fill="#c0c0c0"/>
<rect x="21" y="10" width="1" height="1" fill="#91a2b4"/>
<rect x="22" y="10" width="1" height="1" fill="#6e8ca9"/>
<rect x="23" y="10" width="1" height="1" fill="#6c8aa8"/>
<rect x="24" y="10" width="1" height="1" fill="#6a88a7"/>
<rect x="25" y="10" width="1" height="1" fill="#6988a6"/>
<rect x="26" y="10" width="1" height="1" fill="#6e8aa7"/>
<rect x="4" y="11" width="1" height="1" fill="#557597"/>
<rect x="5" y="11" width="1" height="1" fill="#476c91"/>
<rect x="6" y="11" width="1" height="1" fill="#486d92"/>
<rect x="7" y="11" width="1" height="1" fill="#496e92"/>
<rect x="8" y="11" width="1" height="1" fill="#8597a9"/>
<rect x="9" y="11" width="6" height="1" fill="#c0c0c0"/>
<rect x="15" y="11" width="1" height="1" fill="#506f8f"/>
<rect x="16" y="11" width="5" height="1" fill="#c0c0c0"/>
<rect x="21" y="11" width="1" height="1" fill="#bfbfc0"/>
<rect x="22" y="11" width="1" height="1" fill="#7d95ad"/>
<rect x="23" y="11" width="1" height="1" fill="#6988a6"/>
<rect x="24" y="11" width="1" height="1" fill="#6887a5"/>
<rect x="25" y="11" width="1" height="1" fill="#6685a4"/>
<rect x="26" y="11" width="1" height="1" fill="#899caf"/>
<rect x="5" y="12" width="1" height="1" fill="#557596"/>
<rect x="6" y="12" width="1" height="1" fill="#466b91"/>
<rect x="7" y="12" width="1" height="1" fill="#537596"/>
<rect x="8" y="12" width="1" height="1" fill="#bcbebf"/>
<rect x="9" y="12" width="5" height="1" fill="#c0c0c0"/>
<rect x="14" y="12" width="1" height="1" fill="#b8babc"/>
<rect x="15" y="12" width="1" height="1" fill="#29537d"/>
<rect x="16" y="12" width="6" height="1" fill="#c0c0c0"/>
<rect x="22" y="12" width="1" height="1" fill="#abb3ba"/>
<rect x="23" y="12" width="1" height="1" fill="#6685a4"/>
<rect x="24" y="12" width="1" height="1" fill="#6886a4"/>
<rect x="25" y="12" width="1" height="1" fill="#97a5b3"/>
<rect x="5" y="13" width="1" height="1" fill="#517394"/>
<rect x="6" y="13" width="1" height="1" fill="#43698e"/>
<rect x="7" y="13" width="1" height="1" fill="#7f93a6"/>
<rect x="8" y="13" width="6" height="1" fill="#c0c0c0"/>
<rect x="14" y="13" width="1" height="1" fill="#8e9caa"/>
<rect x="15" y="13" width="1" height="1" fill="#244f7b"/>
<rect x="16" y="13" width="1" height="1" fill="#acb1b7"/>
<rect x="17" y="13" width="6" height="1" fill="#c0c0c0"/>
<rect x="23" y="13" width="1" height="1" fill="#8d9fb0"/>
<rect x="2" y="14" width="1" height="1" fill="#99a5b1"/>
<rect x="3" y="14" width="1" height="1" fill="#5c7a98"/>
<rect x="4" y="14" width="1" height="1" fill="#43688e"/>
<rect x="5" y="14" width="2" height="1" fill="#40668d"/>
<rect x="7" y="14" width="1" height="1" fill="#9fa9b3"/>
<rect x="8" y="14" width="6" height="1" fill="#c0c0c0"/>
<rect x="14" y="14" width="1" height="1" fill="#8595a6"/>
<rect x="15" y="14" width="1" height="1" fill="#26517d"/>
<rect x="16" y="14" width="1" height="1" fill="#788ca1"/>
<rect x="17" y="14" width="6" height="1" fill="#c0c0c0"/>
<rect x="23" y="14" width="1" height="1" fill="#a4acb4"/>
<rect x="2" y="15" width="1" height="1" fill="#7b90a4"/>
<rect x="3" y="15" width="1" height="1" fill="#3e658b"/>
<rect x="4" y="15" width="2" height="1" fill="#3d648b"/>
<rect x="6" y="15" width="1" height="1" fill="#3e648b"/>
<rect x="7" y="15" width="1" height="1" fill="#afb4b9"/>
<rect x="8" y="15" width="6" height="1" fill="#c0c0c0"/>
<rect x="14" y="15" width="1" height="1" fill="#8495a6"/>
<rect x="15" y="15" width="1" height="1" fill="#26517d"/>
<rect x="16" y="15" width="1" height="1" fill="#2f5881"/>
<rect x="17" y="15" width="1" height="1" fill="#a8afb6"/>
<rect x="18" y="15" width="5" height="1" fill="#c0c0c0"/>
<rect x="23" y="15" width="1" height="1" fill="#71879d"/>
<rect x="24" y="15" width="1" height="1" fill="#4b6b8c"/>
<rect x="2" y="16" width="1" height="1" fill="#798ea3"/>
<rect x="3" y="16" width="1" height="1" fill="#3c638a"/>
<rect x="4" y="16" width="3" height="1" fill="#3b6289"/>
<rect x="7" y="16" width="1" height="1" fill="#b0b5ba"/>
<rect x="8" y="16" width="6" height="1" fill="#c0c0c0"/>
<rect x="14" y="16" width="1" height="1" fill="#919eac"/>
<rect x="15" y="16" width="1" height="1" fill="#26517d"/>
<rect x="16" y="16" width="1" height="1" fill="#2a5580"/>
<rect x="17" y="16" width="1" height="1" fill="#355d86"/>
<rect x="18" y="16" width="1" height="1" fill="#8898a9"/>
<rect x="19" y="16" width="1" height="1" fill="#babcbe"/>
<rect x="20" y="16" width="3" height="1" fill="#c0c0c0"/>
<rect x="23" y="16" width="1" height="1" fill="#909dab"/>
<rect x="24" y="16" width="1" height="1" fill="#224e7a"/>
<rect x="25" y="16" width="1" height="1" fill="#27527c"/>
<rect x="26" y="16" width="1" height="1" fill="#778ba0"/>
<rect x="2" y="17" width="1" height="1" fill="#8f9dac"/>
<rect x="3" y="17" width="1" height="1" fill="#4a6c90"/>
<rect x="4" y="17" width="1" height="1" fill="#396088"/>
<rect x="5" y="17" width="2" height="1" fill="#386088"/>
<rect x="7" y="17" width="1" height="1" fill="#a0a9b3"/>
<rect x="8" y="17" width="6" height="1" fill="#c0c0c0"/>
<rect x="14" y="17" width="1" height="1" fill="#bdbebf"/>
<rect x="15" y="17" width="1" height="1" fill="#365e85"/>
<rect x="16" y="17" width="1" height="1" fill="#2d5782"/>
<rect x="17" y="17" width="1" height="1" fill="#315b85"/>
<rect x="18" y="17" width="1" height="1" fill="#355f88"/>
<rect x="19" y="17" width="1" height="1" fill="#3c648d"/>
<rect x="20" y="17" width="1" height="1" fill="#607e9b"/>
<rect x="21" y="17" width="1" height="1" fill="#708aa2"/>
<rect x="22" y="17" width="1" height="1" fill="#728ba3"/>
<rect x="23" y="17" width="1" height="1" fill="#6c86a0"/>
<rect x="24" y="17" width="2" height="1" fill="#224e7a"/>
<rect x="26" y="17" width="1" height="1" fill="#26517d"/>
<rect x="27" y="17" width="1" height="1" fill="#4b6e90"/>
<rect x="28" y="17" width="1" height="1" fill="#a5adb6"/>
<rect x="5" y="18" width="1" height="1" fill="#43688c"/>
<rect x="6" y="18" width="1" height="1" fill="#355d85"/>
<rect x="7" y="18" width="1" height="1" fill="#7d90a4"/>
<rect x="8" y="18" width="7" height="1" fill="#c0c0c0"/>
<rect x="15" y="18" width="1" height="1" fill="#8092a5"/>
<rect x="16" y="18" width="1" height="1" fill="#2f5983"/>
<rect x="17" y="18" width="1" height="1" fill="#335d86"/>
<rect x="18" y="18" width="1" height="1" fill="#376089"/>
<rect x="19" y="18" width="1" height="1" fill="#3b648c"/>
<rect x="20" y="18" width="1" height="1" fill="#3f688f"/>
<rect x="21" y="18" width="1" height="1" fill="#436b92"/>
<rect x="22" y="18" width="1" height="1" fill="#446b92"/>
<rect x="23" y="18" width="1" height="1" fill="#486f95"/>
<rect x="24" y="18" width="1" height="1" fill="#26517d"/>
<rect x="25" y="18" width="1" height="1" fill="#224e7a"/>
<rect x="26" y="18" width="1" height="1" fill="#2d5882"/>
<rect x="27" y="18" width="1" height="1" fill="#38628a"/>
<rect x="28" y="18" width="1" height="1" fill="#466d94"/>
<rect x="5" y="19" width="1" height="1" fill="#4a6c8f"/>
<rect x="6" y="19" width="1" height="1" fill="#335b84"/>
<rect x="7" y="19" width="1" height="1" fill="#476a8d"/>
<rect x="8" y="19" width="1" height="1" fill="#bfbfc0"/>
<rect x="9" y="19" width="7" height="1" fill="#c0c0c0"/>
<rect x="16" y="19" width="1" height="1" fill="#8093a6"/>
<rect x="17" y="19" width="1" height="1" fill="#366088"/>
<rect x="18" y="19" width="1" height="1" fill="#39628b"/>
<rect x="19" y="19" width="1" height="1" fill="#3d668e"/>
<rect x="20" y="19" width="1" height="1" fill="#416a91"/>
<rect x="21" y="19" width="1" height="1" fill="#436b92"/>
<rect x="22" y="19" width="1" height="1" fill="#466d94"/>
<rect x="23" y="19" width="1" height="1" fill="#4a7197"/>
<rect x="24" y="19" width="1" height="1" fill="#2e5983"/>
<rect x="25" y="19" width="1" height="1" fill="#28547f"/>
<rect x="26" y="19" width="1" height="1" fill="#335e87"/>
<rect x="27" y="19" width="1" height="1" fill="#3f688f"/>
<rect x="28" y="19" width="1" height="1" fill="#7a92a8"/>
<rect x="4" y="20" width="1" height="1" fill="#4e6e90"/>
<rect x="5" y="20" width="1" height="1" fill="#325b84"/>
<rect x="6" y="20" width="1" height="1" fill="#315a83"/>
<rect x="7" y="20" width="1" height="1" fill="#2f5881"/>
<rect x="8" y="20" width="1" height="1" fill="#8596a7"/>
<rect x="9" y="20" width="8" height="1" fill="#c0c0c0"/>
<rect x="17" y="20" width="1" height="1" fill="#abb1b8"/>
<rect x="18" y="20" width="1" height="1" fill="#718aa1"/>
<rect x="19" y="20" width="1" height="1" fill="#486e93"/>
<rect x="20" y="20" width="1" height="1" fill="#436b92"/>
<rect x="21" y="20" width="1" height="1" fill="#446b92"/>
<rect x="22" y="20" width="1" height="1" fill="#486f95"/>
<rect x="23" y="20" width="1" height="1" fill="#4c7398"/>
<rect x="24" y="20" width="1" height="1" fill="#3e678f"/>
<rect x="25" y="20" width="1" height="1" fill="#2f5a84"/>
<rect x="26" y="20" width="1" height="1" fill="#3b648c"/>
<rect x="27" y="20" width="1" height="1" fill="#567a9c"/>
<rect x="3" y="21" width="1" height="1" fill="#8f9dab"/>
<rect x="4" y="21" width="1" height="1" fill="#315a83"/>
<rect x="5" y="21" width="1" height="1" fill="#305982"/>
<rect x="6" y="21" width="1" height="1" fill="#2e5781"/>
<rect x="7" y="21" width="1" height="1" fill="#2d5680"/>
<rect x="8" y="21" width="1" height="1" fill="#315982"/>
<rect x="9" y="21" width="1" height="1" fill="#a2aab3"/>
<rect x="10" y="21" width="10" height="1" fill="#c0c0c0"/>
<rect x="20" y="21" width="1" height="1" fill="#b4b8bc"/>
<rect x="21" y="21" width="2" height="1" fill="#a3acb6"/>
<rect x="24" y="21" width="1" height="1" fill="#8698aa"/>
<rect x="25" y="21" width="1" height="1" fill="#355f88"/>
<rect x="26" y="21" width="1" height="1" fill="#446b91"/>
<rect x="4" y="22" width="1" height="1" fill="#4a6b8d"/>
<rect x="5" y="22" width="1" height="1" fill="#2e5781"/>
<rect x="6" y="22" width="1" height="1" fill="#2d5680"/>
<rect x="7" y="22" width="1" height="1" fill="#2b557f"/>
<rect x="8" y="22" width="1" height="1" fill="#2a547f"/>
<rect x="9" y="22" width="1" height="1" fill="#325981"/>
<rect x="10" y="22" width="1" height="1" fill="#95a1ad"/>
<rect x="11" y="22" width="8" height="1" fill="#c0c0c0"/>
<rect x="19" y="22" width="1" height="1" fill="#bfbfc0"/>
<rect x="20" y="22" width="1" height="1" fill="#7f93a6"/>
<rect x="21" y="22" width="1" height="1" fill="#9ea8b3"/>
<rect x="25" y="22" width="1" height="1" fill="#3c658d"/>
<rect x="26" y="22" width="1" height="1" fill="#899bad"/>
<rect x="4" y="23" width="1" height="1" fill="#a0a9b2"/>
<rect x="5" y="23" width="1" height="1" fill="#4f6f8f"/>
<rect x="6" y="23" width="1" height="1" fill="#8092a4"/>
<rect x="7" y="23" width="1" height="1" fill="#9aa5b0"/>
<rect x="8" y="23" width="1" height="1" fill="#355c83"/>
<rect x="9" y="23" width="1" height="1" fill="#28527d"/>
<rect x="10" y="23" width="1" height="1" fill="#26507c"/>
<rect x="11" y="23" width="1" height="1" fill="#5a7693"/>
<rect x="12" y="23" width="1" height="1" fill="#a1aab2"/>
<rect x="13" y="23" width="4" height="1" fill="#c0c0c0"/>
<rect x="17" y="23" width="1" height="1" fill="#bdbebf"/>
<rect x="18" y="23" width="1" height="1" fill="#95a2ae"/>
<rect x="19" y="23" width="1" height="1" fill="#557494"/>
<rect x="20" y="23" width="1" height="1" fill="#3d648a"/>
<rect x="21" y="23" width="1" height="1" fill="#4c6e91"/>
<rect x="25" y="23" width="1" height="1" fill="#6d88a2"/>
<rect x="8" y="24" width="1" height="1" fill="#44678a"/>
<rect x="9" y="24" width="1" height="1" fill="#26517c"/>
<rect x="10" y="24" width="1" height="1" fill="#244f7b"/>
<rect x="11" y="24" width="1" height="1" fill="#224e7a"/>
<rect x="12" y="24" width="1" height="1" fill="#244f7b"/>
<rect x="13" y="24" width="1" height="1" fill="#355c83"/>
<rect x="14" y="24" width="1" height="1" fill="#517090"/>
<rect x="15" y="24" width="1" height="1" fill="#587693"/>
<rect x="16" y="24" width="1" height="1" fill="#517190"/>
<rect x="17" y="24" width="1" height="1" fill="#3a6087"/>
<rect x="18" y="24" width="1" height="1" fill="#365e86"/>
<rect x="19" y="24" width="1" height="1" fill="#396088"/>
<rect x="20" y="24" width="1" height="1" fill="#3b6289"/>
<rect x="21" y="24" width="1" height="1" fill="#3e658b"/>
<rect x="22" y="24" width="1" height="1" fill="#8194a7"/>
<rect x="8" y="25" width="1" height="1" fill="#26517c"/>
<rect x="9" y="25" width="1" height="1" fill="#244f7b"/>
<rect x="10" y="25" width="2" height="1" fill="#234e7a"/>
<rect x="12" y="25" width="1" height="1" fill="#25507b"/>
<rect x="13" y="25" width="1" height="1" fill="#27517c"/>
<rect x="14" y="25" width="1" height="1" fill="#2a547f"/>
<rect x="15" y="25" width="1" height="1" fill="#2d5680"/>
<rect x="16" y="25" width="1" height="1" fill="#305982"/>
<rect x="17" y="25" width="1" height="1" fill="#325b84"/>
<rect x="18" y="25" width="1" height="1" fill="#355d85"/>
<rect x="19" y="25" width="1" height="1" fill="#386088"/>
<rect x="20" y="25" width="1" height="1" fill="#3a6189"/>
<rect x="21" y="25" width="1" height="1" fill="#3c638a"/>
<rect x="22" y="25" width="1" height="1" fill="#577696"/>
<rect x="7" y="26" width="1" height="1" fill="#9ea8b1"/>
<rect x="8" y="26" width="1" height="1" fill="#315981"/>
<rect x="9" y="26" width="1" height="1" fill="#234e7a"/>
<rect x="10" y="26" width="1" height="1" fill="#224e7a"/>
<rect x="11" y="26" width="1" height="1" fill="#5f7a95"/>
<rect x="12" y="26" width="1" height="1" fill="#a6adb5"/>
<rect x="13" y="26" width="1" height="1" fill="#4d6d8d"/>
<rect x="14" y="26" width="1" height="1" fill="#2a547f"/>
<rect x="15" y="26" width="1" height="1" fill="#2d5680"/>
<rect x="16" y="26" width="1" height="1" fill="#305982"/>
<rect x="17" y="26" width="1" height="1" fill="#6a839c"/>
<rect x="19" y="26" width="1" height="1" fill="#4a6d8f"/>
<rect x="20" y="26" width="1" height="1" fill="#396088"/>
<rect x="21" y="26" width="1" height="1" fill="#3b6289"/>
<rect x="22" y="26" width="1" height="1" fill="#5b7996"/>
<rect x="9" y="27" width="1" height="1" fill="#698199"/>
<rect x="10" y="27" width="1" height="1" fill="#557391"/>
<rect x="13" y="27" width="1" height="1" fill="#788ca1"/>
<rect x="14" y="27" width="1" height="1" fill="#2b557f"/>
<rect x="15" y="27" width="1" height="1" fill="#2d5680"/>
<rect x="16" y="27" width="1" height="1" fill="#305982"/>
<rect x="17" y="27" width="1" height="1" fill="#99a4af"/>
<rect x="20" y="27" width="1" height="1" fill="#527393"/>
<rect x="21" y="27" width="1" height="1" fill="#8c9bab"/>
<rect x="13" y="28" width="1" height="1" fill="#99a4af"/>
<rect x="14" y="28" width="1" height="1" fill="#365d85"/>
<rect x="15" y="28" width="1" height="1" fill="#345b84"/>
<rect x="16" y="28" width="1" height="1" fill="#3d6388"/>
</svg>