<svg xmlns="http://www.w3.org/2000/svg" width="32" height="32" viewBox="0 0 32 32" shape-rendering="crispEdges">
<rect x="11" y="5" width="1" height="1" fill="#a1aab3"/>
<rect x="12" y="5" width="1" height="1" fill="#71889f"/>
<rect x="13" y="5" width="1" height="1" fill="#4f7193"/>
<rect x="14" y="5" width="4" height="1" fill="#41678d"/>
<rect x="18" y="5" width="1" height="1" fill="#517293"/>
<rect x="19" y="5" width="1" height="1" fill="#748ba1"/>
<rect x="10" y="6" width="1" height="1" fill="#637e9a"/>
<rect x="11" y="6" width="1" height="1" fill="#43698e"/>
<rect x="12" y="6" width="1" height="1" fill="#486c91"/>
<rect x="13" y="6" width="5" height="1" fill="#4b6e92"/>
<rect x="18" y="6" width="1" height="1" fill="#486c91"/>
<rect x="19" y="6" width="1" height="1" fill="#43698e"/>
<rect x="20" y="6" width="1" height="1" fill="#40668b"/>
<rect x="21" y="6" width="1" height="1" fill="#6d869d"/>
<rect x="6" y="7" width="1" height="1" fill="#8a9aa9"/>
<rect x="7" y="7" width="1" height="1" fill="#8596a6"/>
<rect x="8" y="7" width="1" height="1" fill="#9da7b2"/>
<rect x="9" y="7" width="1" height="1" fill="#486c90"/>
<rect x="10" y="7" width="1" height="1" fill="#486c91"/>
<rect x="11" y="7" width="1" height="1" fill="#4d7093"/>
<rect x="12" y="7" width="1" height="1" fill="#507295"/>
<rect x="13" y="7" width="5" height="1" fill="#547698"/>
<rect x="18" y="7" width="1" height="1" fill="#507295"/>
<rect x="19" y="7" width="1" height="1" fill="#4d7093"/>
<rect x="20" y="7" width="1" height="1" fill="#486c91"/>
<rect x="21" y="7" width="1" height="1" fill="#41678d"/>
<rect x="22" y="7" width="1" height="1" fill="#4d6f91"/>
<rect x="23" y="7" width="1" height="1" fill="#a7aeb6"/>
<rect x="24" y="7" width="1" height="1" fill="#798ea2"/>
<rect x="25" y="7" width="1" height="1" fill="#a3acb5"/>
<rect x="5" y="8" width="1" height="1" fill="#607d99"/>
<rect x="6" y="8" width="1" height="1" fill="#66809a"/>
<rect x="7" y="8" width="1" height="1" fill="#9fa9b2"/>
<rect x="8" y="8" width="1" height="1" fill="#466b8f"/>
<rect x="9" y="8" width="1" height="1" fill="#4b6e92"/>
<rect x="10" y="8" width="1" height="1" fill="#507295"/>
<rect x="11" y="8" width="1" height="1" fill="#547698"/>
<rect x="12" y="8" width="1" height="1" fill="#597a9b"/>
<rect x="13" y="8" width="1" height="1" fill="#5b7b9c"/>
<rect x="14" y="8" width="3" height="1" fill="#5d7d9d"/>
<rect x="17" y="8" width="1" height="1" fill="#5b7b9c"/>
<rect x="18" y="8" width="1" height="1" fill="#597a9b"/>
<rect x="19" y="8" width="1" height="1" fill="#547698"/>
<rect x="20" y="8" width="1" height="1" fill="#507295"/>
<rect x="21" y="8" width="1" height="1" fill="#4b6e92"/>
<rect x="22" y="8" width="1" height="1" fill="#43698e"/>
<rect x="23" y="8" width="1" height="1" fill="#486b8f"/>
<rect x="24" y="8" width="1" height="1" fill="#a8afb6"/>
<rect x="25" y="8" width="1" height="1" fill="#577797"/>
<rect x="26" y="8" width="1" height="1" fill="#8095a9"/>
<rect x="4" y="9" width="1" height="1" fill="#537597"/>
<rect x="5" y="9" width="1" height="1" fill="#486c8f"/>
<rect x="6" y="9" width="1" height="1" fill="#adb3b9"/>
<rect x="7" y="9" width="1" height="1" fill="#4b6e91"/>
<rect x="8" y="9" width="1" height="1" fill="#4b6e92"/>
<rect x="9" y="9" width="1" height="1" fill="#527496"/>
<rect x="10" y="9" width="1" height="1" fill="#567899"/>
<rect x="11" y="9" width="1" height="1" fill="#5d7d9d"/>
<rect x="12" y="9" width="1" height="1" fill="#6281a0"/>
<rect x="13" y="9" width="1" height="1" fill="#6483a1"/>
<rect x="14" y="9" width="3" height="1" fill="#6685a3"/>
<rect x="17" y="9" width="1" height="1" fill="#6483a1"/>
<rect x="18" y="9" width="1" height="1" fill="#6281a0"/>
<rect x="19" y="9" width="1" height="1" fill="#5d7d9d"/>
<rect x="20" y="9" width="1" height="1" fill="#567899"/>
<rect x="21" y="9" width="1" height="1" fill="#527496"/>
<rect x="22" y="9" width="1" height="1" fill="#4b6e92"/>
<rect x="23" y="9" width="1" height="1" fill="#41678d"/>
<rect x="24" y="9" width="1" height="1" fill="#517392"/>
<rect x="25" y="9" width="1" height="1" fill="#a7aeb7"/>
<rect x="26" y="9" width="1" height="1" fill="#4b7196"/>
<rect x="27" y="9" width="1" height="1" fill="#7891aa"/>
<rect x="2" y="10" width="1" height="1" fill="#7c8fa2"/>
<rect x="3" y="10" width="1" height="1" fill="#8598aa"/>
<rect x="4" y="10" width="1" height="1" fill="#416990"/>
<rect x="5" y="10" width="1" height="1" fill="#8f9dac"/>
<rect x="6" y="10" width="1" height="1" fill="#6d869e"/>
<rect x="7" y="10" width="1" height="1" fill="#486c91"/>
<rect x="8" y="10" width="1" height="1" fill="#507295"/>
<rect x="9" y="10" width="1" height="1" fill="#567899"/>
<rect x="10" y="10" width="1" height="1" fill="#5d7d9d"/>
<rect x="11" y="10" width="1" height="1" fill="#6483a1"/>
<rect x="12" y="10" width="1" height="1" fill="#6887a4"/>
<rect x="13" y="10" width="1" height="1" fill="#6d8aa7"/>
<rect x="14" y="10" width="3" height="1" fill="#6f8ca8"/>
<rect x="17" y="10" width="1" height="1" fill="#6d8aa7"/>
<rect x="18" y="10" width="1" height="1" fill="#6887a4"/>
<rect x="19" y="10" width="1" height="1" fill="#6483a1"/>
<rect x="20" y="10" width="1" height="1" fill="#5d7d9d"/>
<rect x="21" y="10" width="1" height="1" fill="#567899"/>
<rect x="22" y="10" width="1" height="1" fill="#507295"/>
<rect x="23" y="10" width="1" height="1" fill="#486c91"/>
<rect x="24" y="10" width="1" height="1" fill="#3f658b"/>
<rect x="25" y="10" width="1" height="1" fill="#7f93a5"/>
<rect x="26" y="10" width="1" height="1" fill="#7a90a7"/>
<rect x="27" y="10" width="1" height="1" fill="#567b9f"/>
<rect x="28" y="10" width="1" height="1" fill="#9ba7b4"/>
<rect x="29" y="10" width="1" height="1" fill="#9ca9b5"/>
<rect x="1" y="11" width="1" height="1" fill="#728aa1"/>
<rect x="2" y="11" width="1" height="1" fill="#8697a7"/>
<rect x="3" y="11" width="1" height="1" fill="#60809e"/>
<rect x="4" y="11" width="1" height="1" fill="#4e7295"/>
<rect x="5" y="11" width="1" height="1" fill="#acb3b8"/>
<rect x="6" y="11" width="1" height="1" fill="#446a8f"/>
<rect x="7" y="11" width="1" height="1" fill="#4d7093"/>
<rect x="8" y="11" width="1" height="1" fill="#547698"/>
<rect x="9" y="11" width="1" height="1" fill="#5d7d9d"/>
<rect x="10" y="11" width="1" height="1" fill="#6483a1"/>
<rect x="11" y="11" width="1" height="1" fill="#6b89a6"/>
<rect x="12" y="11" width="1" height="1" fill="#6f8ca8"/>
<rect x="13" y="11" width="1" height="1" fill="#7691ac"/>
<rect x="14" y="11" width="3" height="1" fill="#7993ae"/>
<rect x="17" y="11" width="1" height="1" fill="#7691ac"/>
<rect x="18" y="11" width="1" height="1" fill="#6f8ca8"/>
<rect x="19" y="11" width="1" height="1" fill="#6b89a6"/>
<rect x="20" y="11" width="1" height="1" fill="#6483a1"/>
<rect x="21" y="11" width="1" height="1" fill="#5d7d9d"/>
<rect x="22" y="11" width="1" height="1" fill="#547698"/>
<rect x="23" y="11" width="1" height="1" fill="#4d7093"/>
<rect x="24" y="11" width="1" height="1" fill="#43698e"/>
<rect x="25" y="11" width="1" height="1" fill="#44698c"/>
<rect x="26" y="11" width="1" height="1" fill="#abb1b8"/>
<rect x="27" y="11" width="1" height="1" fill="#567b9f"/>
<rect x="28" y="11" width="1" height="1" fill="#a1b2c3"/>
<rect x="29" y="11" width="1" height="1" fill="#8197ad"/>
<rect x="1" y="12" width="1" height="1" fill="#4b6f92"/>
<rect x="2" y="12" width="1" height="1" fill="#b0b6bb"/>
<rect x="3" y="12" width="1" height="1" fill="#4c7297"/>
<rect x="4" y="12" width="1" height="1" fill="#778ea4"/>
<rect x="5" y="12" width="1" height="1" fill="#8194a6"/>
<rect x="6" y="12" width="1" height="1" fill="#486c91"/>
<rect x="7" y="12" width="1" height="1" fill="#507295"/>
<rect x="8" y="12" width="1" height="1" fill="#597a9b"/>
<rect x="9" y="12" width="1" height="1" fill="#6281a0"/>
<rect x="10" y="12" width="1" height="1" fill="#6887a4"/>
<rect x="11" y="12" width="1" height="1" fill="#6f8ca8"/>
<rect x="12" y="12" width="1" height="1" fill="#7993ae"/>
<rect x="13" y="12" width="1" height="1" fill="#7e97b1"/>
<rect x="14" y="12" width="1" height="1" fill="#829bb3"/>
<rect x="15" y="12" width="1" height="1" fill="#869fb6"/>
<rect x="16" y="12" width="1" height="1" fill="#849db5"/>
<rect x="17" y="12" width="1" height="1" fill="#7e97b1"/>
<rect x="18" y="12" width="1" height="1" fill="#7993ae"/>
<rect x="19" y="12" width="1" height="1" fill="#6f8ca8"/>
<rect x="20" y="12" width="1" height="1" fill="#6887a4"/>
<rect x="21" y="12" width="1" height="1" fill="#6281a0"/>
<rect x="22" y="12" width="1" height="1" fill="#597a9b"/>
<rect x="23" y="12" width="1" height="1" fill="#507295"/>
<rect x="24" y="12" width="1" height="1" fill="#486c91"/>
<rect x="25" y="12" width="1" height="1" fill="#3f658b"/>
<rect x="26" y="12" width="1" height="1" fill="#94a1ae"/>
<rect x="27" y="12" width="1" height="1" fill="#6a88a5"/>
<rect x="28" y="12" width="1" height="1" fill="#90abc4"/>
<rect x="30" y="12" width="1" height="1" fill="#95adc4"/>
<rect x="0" y="13" width="1" height="1" fill="#9eaab6"/>
<rect x="1" y="13" width="1" height="1" fill="#7088a1"/>
<rect x="2" y="13" width="1" height="1" fill="#9ca9b5"/>
<rect x="3" y="13" width="1" height="1" fill="#4c7297"/>
<rect x="4" y="13" width="1" height="1" fill="#97a4b1"/>
<rect x="5" y="13" width="1" height="1" fill="#627e9a"/>
<rect x="6" y="13" width="1" height="1" fill="#4b6e92"/>
<rect x="7" y="13" width="1" height="1" fill="#547698"/>
<rect x="8" y="13" width="1" height="1" fill="#5b7b9c"/>
<rect x="9" y="13" width="1" height="1" fill="#6483a1"/>
<rect x="10" y="13" width="1" height="1" fill="#6d8aa7"/>
<rect x="11" y="13" width="1" height="1" fill="#7691ac"/>
<rect x="12" y="13" width="1" height="1" fill="#7e97b1"/>
<rect x="13" y="13" width="1" height="1" fill="#8aa2b8"/>
<rect x="14" y="13" width="1" height="1" fill="#b3c2d2"/>
<rect x="15" y="13" width="1" height="1" fill="#c7d2de"/>
<rect x="16" y="13" width="1" height="1" fill="#c6d2dd"/>
<rect x="17" y="13" width="1" height="1" fill="#c8d3de"/>
<rect x="18" y="13" width="1" height="1" fill="#7f98b2"/>
<rect x="19" y="13" width="1" height="1" fill="#7691ac"/>
<rect x="20" y="13" width="1" height="1" fill="#6d8aa7"/>
<rect x="21" y="13" width="1" height="1" fill="#6483a1"/>
<rect x="22" y="13" width="1" height="1" fill="#5b7b9c"/>
<rect x="23" y="13" width="1" height="1" fill="#547698"/>
<rect x="24" y="13" width="1" height="1" fill="#4b6e92"/>
<rect x="25" y="13" width="1" height="1" fill="#41678d"/>
<rect x="26" y="13" width="1" height="1" fill="#72899f"/>
<rect x="27" y="13" width="1" height="1" fill="#859aae"/>
<rect x="28" y="13" width="1" height="1" fill="#8ba8c4"/>
<rect x="30" y="13" width="1" height="1" fill="#94acc4"/>
<rect x="0" y="14" width="1" height="1" fill="#8d9fb0"/>
<rect x="1" y="14" width="1" height="1" fill="#8999aa"/>
<rect x="2" y="14" width="1" height="1" fill="#8d9fb0"/>
<rect x="3" y="14" width="1" height="1" fill="#4c7297"/>
<rect x="4" y="14" width="1" height="1" fill="#abb2b8"/>
<rect x="5" y="14" width="1" height="1" fill="#4e7092"/>
<rect x="6" y="14" width="1" height="1" fill="#4b6e92"/>
<rect x="7" y="14" width="1" height="1" fill="#547698"/>
<rect x="8" y="14" width="1" height="1" fill="#5d7d9d"/>
<rect x="9" y="14" width="1" height="1" fill="#6685a3"/>
<rect x="10" y="14" width="1" height="1" fill="#6f8ca8"/>
<rect x="11" y="14" width="1" height="1" fill="#7993ae"/>
<rect x="12" y="14" width="1" height="1" fill="#829bb3"/>
<rect x="13" y="14" width="1" height="1" fill="#adbece"/>
<rect x="14" y="14" width="3" height="1" fill="#597a9b"/>
<rect x="17" y="14" width="1" height="1" fill="#c8d3de"/>
<rect x="18" y="14" width="1" height="1" fill="#b4c3d1"/>
<rect x="19" y="14" width="1" height="1" fill="#7993ae"/>
<rect x="20" y="14" width="1" height="1" fill="#6f8ca8"/>
<rect x="21" y="14" width="1" height="1" fill="#6685a3"/>
<rect x="22" y="14" width="1" height="1" fill="#5d7d9d"/>
<rect x="23" y="14" width="1" height="1" fill="#547698"/>
<rect x="24" y="14" width="1" height="1" fill="#4b6e92"/>
<rect x="25" y="14" width="1" height="1" fill="#41678d"/>
<rect x="26" y="14" width="1" height="1" fill="#5c7a96"/>
<rect x="27" y="14" width="1" height="1" fill="#96a5b3"/>
<rect x="28" y="14" width="1" height="1" fill="#8ba8c4"/>
<rect x="30" y="14" width="1" height="1" fill="#9db0c3"/>
<rect x="0" y="15" width="1" height="1" fill="#869aae"/>
<rect x="1" y="15" width="1" height="1" fill="#93a0ae"/>
<rect x="2" y="15" width="1" height="1" fill="#859aae"/>
<rect x="3" y="15" width="1" height="1" fill="#4c7297"/>
<rect x="4" y="15" width="1" height="1" fill="#b5b8bc"/>
<rect x="5" y="15" width="1" height="1" fill="#456a8f"/>
<rect x="6" y="15" width="1" height="1" fill="#4b6e92"/>
<rect x="7" y="15" width="1" height="1" fill="#547698"/>
<rect x="8" y="15" width="1" height="1" fill="#5d7d9d"/>
<rect x="9" y="15" width="1" height="1" fill="#6685a3"/>
<rect x="10" y="15" width="1" height="1" fill="#6f8ca8"/>
<rect x="11" y="15" width="1" height="1" fill="#7993ae"/>
<rect x="12" y="15" width="1" height="1" fill="#829bb3"/>
<rect x="13" y="15" width="1" height="1" fill="#becbd8"/>
<rect x="14" y="15" width="1" height="1" fill="#597a9b"/>
<rect x="15" y="15" width="1" height="1" fill="#224e7a"/>
<rect x="16" y="15" width="1" height="1" fill="#597a9b"/>
<rect x="17" y="15" width="1" height="1" fill="#c8d3de"/>
<rect x="18" y="15" width="1" height="1" fill="#d7dfe7"/>
<rect x="19" y="15" width="1" height="1" fill="#7993ae"/>
<rect x="20" y="15" width="1" height="1" fill="#6f8ca8"/>
<rect x="21" y="15" width="1" height="1" fill="#6685a3"/>
<rect x="22" y="15" width="1" height="1" fill="#5d7d9d"/>
<rect x="23" y="15" width="1" height="1" fill="#547698"/>
<rect x="24" y="15" width="1" height="1" fill="#4b6e92"/>
<rect x="25" y="15" width="1" height="1" fill="#41678d"/>
<rect x="26" y="15" width="1" height="1" fill="#537392"/>
<rect x="27" y="15" width="1" height="1" fill="#9eaab6"/>
<rect x="28" y="15" width="1" height="1" fill="#8ba8c4"/>
<rect x="30" y="15" width="1" height="1" fill="#a1b2c3"/>
<rect x="0" y="16" width="1" height="1" fill="#889caf"/>
<rect x="1" y="16" width="1" height="1" fill="#8e9dac"/>
<rect x="2" y="16" width="1" height="1" fill="#869aae"/>
<rect x="3" y="16" width="1" height="1" fill="#4c7297"/>
<rect x="4" y="16" width="1" height="1" fill="#b3b7bb"/>
<rect x="5" y="16" width="1" height="1" fill="#496d90"/>
<rect x="6" y="16" width="1" height="1" fill="#4b6e92"/>
<rect x="7" y="16" width="1" height="1" fill="#547698"/>
<rect x="8" y="16" width="1" height="1" fill="#5d7d9d"/>
<rect x="9" y="16" width="1" height="1" fill="#6685a3"/>
<rect x="10" y="16" width="1" height="1" fill="#6f8ca8"/>
<rect x="11" y="16" width="1" height="1" fill="#7993ae"/>
<rect x="12" y="16" width="1" height="1" fill="#829bb3"/>
<rect x="13" y="16" width="1" height="1" fill="#b8c6d4"/>
<rect x="14" y="16" width="3" height="1" fill="#597a9b"/>
<rect x="17" y="16" width="1" height="1" fill="#c8d3de"/>
<rect x="18" y="16" width="1" height="1" fill="#c9d4df"/>
<rect x="19" y="16" width="1" height="1" fill="#7993ae"/>
<rect x="20" y="16" width="1" height="1" fill="#6f8ca8"/>
<rect x="21" y="16" width="1" height="1" fill="#6685a3"/>
<rect x="22" y="16" width="1" height="1" fill="#5d7d9d"/>
<rect x="23" y="16" width="1" height="1" fill="#547698"/>
<rect x="24" y="16" width="1" height="1" fill="#4b6e92"/>
<rect x="25" y="16" width="1" height="1" fill="#41678d"/>
<rect x="26" y="16" width="1" height="1" fill="#577694"/>
<rect x="27" y="16" width="1" height="1" fill="#9da9b5"/>
<rect x="28" y="16" width="1" height="1" fill="#8ba8c4"/>
<rect x="30" y="16" width="1" height="1" fill="#a0b2c3"/>
<rect x="0" y="17" width="1" height="1" fill="#96a5b3"/>
<rect x="1" y="17" width="1" height="1" fill="#7c90a5"/>
<rect x="2" y="17" width="1" height="1" fill="#8d9fb0"/>
<rect x="3" y="17" width="1" height="1" fill="#4c7297"/>
<rect x="4" y="17" width="1" height="1" fill="#aab1b8"/>
<rect x="5" y="17" width="1" height="1" fill="#587796"/>
<rect x="6" y="17" width="1" height="1" fill="#4b6e92"/>
<rect x="7" y="17" width="1" height="1" fill="#547698"/>
<rect x="8" y="17" width="1" height="1" fill="#5b7b9c"/>
<rect x="9" y="17" width="1" height="1" fill="#6483a1"/>
<rect x="10" y="17" width="1" height="1" fill="#6d8aa7"/>
<rect x="11" y="17" width="1" height="1" fill="#7691ac"/>
<rect x="12" y="17" width="1" height="1" fill="#7e97b1"/>
<rect x="13" y="17" width="1" height="1" fill="#9fb3c5"/>
<rect x="14" y="17" width="1" height="1" fill="#c5d1dd"/>
<rect x="15" y="17" width="2" height="1" fill="#c8d3de"/>
<rect x="17" y="17" width="1" height="1" fill="#f3f6f8"/>
<rect x="18" y="17" width="1" height="1" fill="#8ca3ba"/>
<rect x="19" y="17" width="1" height="1" fill="#7691ac"/>
<rect x="20" y="17" width="1" height="1" fill="#6d8aa7"/>
<rect x="21" y="17" width="1" height="1" fill="#6483a1"/>
<rect x="22" y="17" width="1" height="1" fill="#5b7b9c"/>
<rect x="23" y="17" width="1" height="1" fill="#547698"/>
<rect x="24" y="17" width="1" height="1" fill="#4b6e92"/>
<rect x="25" y="17" width="1" height="1" fill="#41678d"/>
<rect x="26" y="17" width="1" height="1" fill="#67819b"/>
<rect x="27" y="17" width="1" height="1" fill="#94a4b3"/>
<rect x="28" y="17" width="1" height="1" fill="#8ba8c4"/>
<rect x="30" y="17" width="1" height="1" fill="#98aec3"/>
<rect x="1" y="18" width="1" height="1" fill="#7088a1"/>
<rect x="2" y="18" width="1" height="1" fill="#9eaab6"/>
<rect x="3" y="18" width="1" height="1" fill="#4c7297"/>
<rect x="4" y="18" width="1" height="1" fill="#93a1af"/>
<rect x="5" y="18" width="1" height="1" fill="#7289a0"/>
<rect x="6" y="18" width="1" height="1" fill="#486c91"/>
<rect x="7" y="18" width="1" height="1" fill="#507295"/>
<rect x="8" y="18" width="1" height="1" fill="#597a9b"/>
<rect x="9" y="18" width="1" height="1" fill="#6281a0"/>
<rect x="10" y="18" width="1" height="1" fill="#6887a4"/>
<rect x="11" y="18" width="1" height="1" fill="#6f8ca8"/>
<rect x="12" y="18" width="1" height="1" fill="#7993ae"/>
<rect x="13" y="18" width="1" height="1" fill="#7e97b1"/>
<rect x="14" y="18" width="1" height="1" fill="#92a8bd"/>
<rect x="15" y="18" width="1" height="1" fill="#bac8d5"/>
<rect x="16" y="18" width="1" height="1" fill="#b6c5d3"/>
<rect x="17" y="18" width="1" height="1" fill="#889fb7"/>
<rect x="18" y="18" width="1" height="1" fill="#7993ae"/>
<rect x="19" y="18" width="1" height="1" fill="#6f8ca8"/>
<rect x="20" y="18" width="1" height="1" fill="#6887a4"/>
<rect x="21" y="18" width="1" height="1" fill="#6281a0"/>
<rect x="22" y="18" width="1" height="1" fill="#597a9b"/>
<rect x="23" y="18" width="1" height="1" fill="#507295"/>
<rect x="24" y="18" width="1" height="1" fill="#486c91"/>
<rect x="25" y="18" width="1" height="1" fill="#3f658b"/>
<rect x="26" y="18" width="1" height="1" fill="#8395a7"/>
<rect x="27" y="18" width="1" height="1" fill="#8298ad"/>
<rect x="28" y="18" width="1" height="1" fill="#8ba8c4"/>
<rect x="30" y="18" width="1" height="1" fill="#a0b2c3"/>
<rect x="3" y="19" width="1" height="1" fill="#597b9c"/>
<rect x="4" y="19" width="1" height="1" fill="#738ca3"/>
<rect x="5" y="19" width="1" height="1" fill="#9aa5b0"/>
<rect x="6" y="19" width="1" height="1" fill="#43698e"/>
<rect x="7" y="19" width="1" height="1" fill="#4d7093"/>
<rect x="8" y="19" width="1" height="1" fill="#547698"/>
<rect x="9" y="19" width="1" height="1" fill="#5d7d9d"/>
<rect x="10" y="19" width="1" height="1" fill="#6483a1"/>
<rect x="11" y="19" width="1" height="1" fill="#6b89a6"/>
<rect x="12" y="19" width="1" height="1" fill="#6f8ca8"/>
<rect x="13" y="19" width="1" height="1" fill="#7691ac"/>
<rect x="14" y="19" width="3" height="1" fill="#7993ae"/>
<rect x="17" y="19" width="1" height="1" fill="#7691ac"/>
<rect x="18" y="19" width="1" height="1" fill="#6f8ca8"/>
<rect x="19" y="19" width="1" height="1" fill="#6b89a6"/>
<rect x="20" y="19" width="1" height="1" fill="#6483a1"/>
<rect x="21" y="19" width="1" height="1" fill="#5d7d9d"/>
<rect x="22" y="19" width="1" height="1" fill="#547698"/>
<rect x="23" y="19" width="1" height="1" fill="#4d7093"/>
<rect x="24" y="19" width="1" height="1" fill="#43698e"/>
<rect x="25" y="19" width="1" height="1" fill="#3a6288"/>
<rect x="26" y="19" width="1" height="1" fill="#aeb3b9"/>
<rect x="27" y="19" width="1" height="1" fill="#6786a5"/>
<rect x="28" y="19" width="1" height="1" fill="#9aafc3"/>
<rect x="4" y="20" width="1" height="1" fill="#517496"/>
<rect x="5" y="20" width="1" height="1" fill="#bcbdbf"/>
<rect x="6" y="20" width="1" height="1" fill="#537393"/>
<rect x="7" y="20" width="1" height="1" fill="#486c91"/>
<rect x="8" y="20" width="1" height="1" fill="#507295"/>
<rect x="9" y="20" width="1" height="1" fill="#567899"/>
<rect x="10" y="20" width="1" height="1" fill="#5d7d9d"/>
<rect x="11" y="20" width="1" height="1" fill="#6483a1"/>
<rect x="12" y="20" width="1" height="1" fill="#6887a4"/>
<rect x="13" y="20" width="1" height="1" fill="#6d8aa7"/>
<rect x="14" y="20" width="3" height="1" fill="#6f8ca8"/>
<rect x="17" y="20" width="1" height="1" fill="#6d8aa7"/>
<rect x="18" y="20" width="1" height="1" fill="#6887a4"/>
<rect x="19" y="20" width="1" height="1" fill="#6483a1"/>
<rect x="20" y="20" width="1" height="1" fill="#5d7d9d"/>
<rect x="21" y="20" width="1" height="1" fill="#567899"/>
<rect x="22" y="20" width="1" height="1" fill="#507295"/>
<rect x="23" y="20" width="1" height="1" fill="#486c91"/>
<rect x="24" y="20" width="1" height="1" fill="#3f658b"/>
<rect x="25" y="20" width="1" height="1" fill="#617d99"/>
<rect x="26" y="20" width="1" height="1" fill="#aab1b8"/>
<rect x="27" y="20" width="1" height="1" fill="#6786a4"/>
<rect x="4" y="21" width="1" height="1" fill="#a6aeb6"/>
<rect x="5" y="21" width="1" height="1" fill="#95a2af"/>
<rect x="6" y="21" width="1" height="1" fill="#98a4af"/>
<rect x="7" y="21" width="1" height="1" fill="#41678d"/>
<rect x="8" y="21" width="1" height="1" fill="#4b6e92"/>
<rect x="9" y="21" width="1" height="1" fill="#527496"/>
<rect x="10" y="21" width="1" height="1" fill="#567899"/>
<rect x="11" y="21" width="1" height="1" fill="#5d7d9d"/>
<rect x="12" y="21" width="1" height="1" fill="#6281a0"/>
<rect x="13" y="21" width="1" height="1" fill="#6483a1"/>
<rect x="14" y="21" width="3" height="1" fill="#6685a3"/>
<rect x="17" y="21" width="1" height="1" fill="#6483a1"/>
<rect x="18" y="21" width="1" height="1" fill="#6281a0"/>
<rect x="19" y="21" width="1" height="1" fill="#5d7d9d"/>
<rect x="20" y="21" width="1" height="1" fill="#567899"/>
<rect x="21" y="21" width="1" height="1" fill="#527496"/>
<rect x="22" y="21" width="1" height="1" fill="#4b6e92"/>
<rect x="23" y="21" width="1" height="1" fill="#41678d"/>
<rect x="24" y="21" width="1" height="1" fill="#3d648a"/>
<rect x="25" y="21" width="1" height="1" fill="#97a4af"/>
<rect x="26" y="21" width="1" height="1" fill="#768da3"/>
<rect x="7" y="22" width="1" height="1" fill="#738aa1"/>
<rect x="8" y="22" width="1" height="1" fill="#43698e"/>
<rect x="9" y="22" width="1" height="1" fill="#4b6e92"/>
<rect x="10" y="22" width="1" height="1" fill="#507295"/>
<rect x="11" y="22" width="1" height="1" fill="#547698"/>
<rect x="12" y="22" width="1" height="1" fill="#597a9b"/>
<rect x="13" y="22" width="1" height="1" fill="#5b7b9c"/>
<rect x="14" y="22" width="3" height="1" fill="#5d7d9d"/>
<rect x="17" y="22" width="1" height="1" fill="#5b7b9c"/>
<rect x="18" y="22" width="1" height="1" fill="#597a9b"/>
<rect x="19" y="22" width="1" height="1" fill="#547698"/>
<rect x="20" y="22" width="1" height="1" fill="#507295"/>
<rect x="21" y="22" width="1" height="1" fill="#4b6e92"/>
<rect x="22" y="22" width="1" height="1" fill="#43698e"/>
<rect x="23" y="22" width="1" height="1" fill="#3d648a"/>
<rect x="24" y="22" width="1" height="1" fill="#8697a8"/>
<rect x="25" y="22" width="1" height="1" fill="#375d83"/>
<rect x="26" y="22" width="1" height="1" fill="#224e7a"/>
<rect x="27" y="22" width="1" height="1" fill="#5c7894"/>
<rect x="8" y="23" width="1" height="1" fill="#69839c"/>
<rect x="9" y="23" width="1" height="1" fill="#41678d"/>
<rect x="10" y="23" width="1" height="1" fill="#486c91"/>
<rect x="11" y="23" width="1" height="1" fill="#4d7093"/>
<rect x="12" y="23" width="1" height="1" fill="#507295"/>
<rect x="13" y="23" width="5" height="1" fill="#547698"/>
<rect x="18" y="23" width="1" height="1" fill="#507295"/>
<rect x="19" y="23" width="1" height="1" fill="#4d7093"/>
<rect x="20" y="23" width="1" height="1" fill="#486c91"/>
<rect x="21" y="23" width="1" height="1" fill="#41678d"/>
<rect x="22" y="23" width="1" height="1" fill="#3d648a"/>
<rect x="23" y="23" width="1" height="1" fill="#798da2"/>
<rect x="24" y="23" width="1" height="1" fill="#bfbfc0"/>
<rect x="25" y="23" width="1" height="1" fill="#547290"/>
<rect x="26" y="23" width="2" height="1" fill="#224e7a"/>
<rect x="28" y="23" width="1" height="1" fill="#6e859c"/>
<rect x="9" y="24" width="1" height="1" fill="#7c90a4"/>
<rect x="10" y="24" width="1" height="1" fill="#41668c"/>
<rect x="11" y="24" width="1" height="1" fill="#43698e"/>
<rect x="12" y="24" width="1" height="1" fill="#486c91"/>
<rect x="13" y="24" width="5" height="1" fill="#4b6e92"/>
<rect x="18" y="24" width="1" height="1" fill="#486c91"/>
<rect x="19" y="24" width="1" height="1" fill="#43698e"/>
<rect x="20" y="24" width="1" height="1" fill="#3f658b"/>
<rect x="21" y="24" width="1" height="1" fill="#41678b"/>
<rect x="22" y="24" width="1" height="1" fill="#8b9aaa"/>
<rect x="23" y="24" width="1" height="1" fill="#c0c0c0"/>
<rect x="24" y="24" width="1" height="1" fill="#b7babc"/>
<rect x="25" y="24" width="1" height="1" fill="#406487"/>
<rect x="26" y="24" width="1" height="1" fill="#224e7a"/>
<rect x="27" y="24" width="1" height="1" fill="#28537d"/>
<rect x="11" y="25" width="1" height="1" fill="#68829b"/>
<rect x="12" y="25" width="1" height="1" fill="#42678d"/>
<rect x="13" y="25" width="5" height="1" fill="#41678d"/>
<rect x="18" y="25" width="1" height="1" fill="#3f658b"/>
<rect x="19" y="25" width="1" height="1" fill="#41678b"/>
<rect x="20" y="25" width="1" height="1" fill="#70889f"/>
<rect x="21" y="25" width="1" height="1" fill="#b1b5ba"/>
<rect x="22" y="25" width="1" height="1" fill="#c0c0c0"/>
<rect x="23" y="25" width="1" height="1" fill="#b9bbbd"/>
<rect x="24" y="25" width="1" height="1" fill="#47698b"/>
<rect x="25" y="25" width="1" height="1" fill="#224e7a"/>
<rect x="26" y="25" width="1" height="1" fill="#28537d"/>
<rect x="27" y="25" width="1" height="1" fill="#96a2ae"/>
<rect x="13" y="26" width="1" height="1" fill="#93a1ad"/>
<rect x="14" y="26" width="1" height="1" fill="#7b8fa3"/>
<rect x="15" y="26" width="1" height="1" fill="#70889f"/>
<rect x="16" y="26" width="1" height="1" fill="#72899f"/>
<rect x="17" y="26" width="1" height="1" fill="#7f92a5"/>
<rect x="18" y="26" width="1" height="1" fill="#99a4b0"/>
<rect x="19" y="26" width="1" height="1" fill="#bbbcbe"/>
<rect x="20" y="26" width="2" height="1" fill="#c0c0c0"/>
<rect x="22" y="26" width="1" height="1" fill="#b3b7ba"/>
<rect x="23" y="26" width="1" height="1" fill="#436689"/>
<rect x="24" y="26" width="1" height="1" fill="#224e7a"/>
<rect x="25" y="26" width="1" height="1" fill="#2a547e"/>
<rect x="26" y="26" width="1" height="1" fill="#9ba5b0"/>
<rect x="8" y="27" width="1" height="1" fill="#7e91a3"/>
<rect x="9" y="27" width="13" height="1" fill="#6a829a"/>
<rect x="22" y="27" width="1" height="1" fill="#395e84"/>
<rect x="23" y="27" width="1" height="1" fill="#224e7a"/>
<rect x="24" y="27" width="1" height="1" fill="#2d567f"/>
<rect x="25" y="27" width="1" height="1" fill="#9fa8b2"/>
<rect x="8" y="28" width="1" height="1" fill="#486a8b"/>
<rect x="9" y="28" width="14" height="1" fill="#224e7a"/>
<rect x="23" y="28" width="1" height="1" fill="#2d567f"/>
<rect x="24" y="28" width="1" height="1" fill="#a4acb4"/>
<rect x="8" y="29" width="1" height="1" fill="#486a8b"/>
<rect x="9" y="29" width="14" height="1" fill="#224e7a"/>
<rect x="23" y="29" width="1" height="1" fill="#47698b"/>
<rect x="8" y="30" width="1" height="1" fill="#647e97"/>
<rect x="9" y="30" width="14" height="1" fill="#47698b"/>
<rect x="23" y="30" width="1" height="1" fill="#647d97"/>
</svg>