<svg xmlns="http://www.w3.org/2000/svg" width="32" height="32" viewBox="0 0 32 32" shape-rendering="crispEdges">
<rect x="9" y="7" width="1" height="1" fill="#a3acb4"/>
<rect x="10" y="7" width="1" height="1" fill="#8093a6"/>
<rect x="11" y="7" width="1" height="1" fill="#6a849d"/>
<rect x="12" y="7" width="1" height="1" fill="#607d9a"/>
<rect x="13" y="7" width="1" height="1" fill="#5f7d99"/>
<rect x="14" y="7" width="1" height="1" fill="#607d9b"/>
<rect x="15" y="7" width="1" height="1" fill="#627f9c"/>
<rect x="16" y="7" width="1" height="1" fill="#637f9c"/>
<rect x="17" y="7" width="1" height="1" fill="#64819d"/>
<rect x="18" y="7" width="1" height="1" fill="#65829e"/>
<rect x="19" y="7" width="1" height="1" fill="#67839f"/>
<rect x="20" y="7" width="1" height="1" fill="#6884a0"/>
<rect x="21" y="7" width="1" height="1" fill="#6a85a1"/>
<rect x="22" y="7" width="1" height="1" fill="#6b87a2"/>
<rect x="23" y="7" width="1" height="1" fill="#6c87a3"/>
<rect x="24" y="7" width="1" height="1" fill="#6d89a4"/>
<rect x="25" y="7" width="1" height="1" fill="#6f89a5"/>
<rect x="26" y="7" width="1" height="1" fill="#708ba6"/>
<rect x="27" y="7" width="1" height="1" fill="#718ca6"/>
<rect x="28" y="7" width="1" height="1" fill="#728da8"/>
<rect x="29" y="7" width="1" height="1" fill="#748fa8"/>
<rect x="30" y="7" width="1" height="1" fill="#9aafc4"/>
<rect x="7" y="8" width="1" height="1" fill="#8395a7"/>
<rect x="8" y="8" width="1" height="1" fill="#44688d"/>
<rect x="9" y="8" width="1" height="1" fill="#325b85"/>
<rect x="10" y="8" width="1" height="1" fill="#345d86"/>
<rect x="11" y="8" width="1" height="1" fill="#355f88"/>
<rect x="12" y="8" width="1" height="1" fill="#376089"/>
<rect x="13" y="8" width="1" height="1" fill="#39628a"/>
<rect x="14" y="8" width="1" height="1" fill="#3b638c"/>
<rect x="15" y="8" width="1" height="1" fill="#3d658d"/>
<rect x="16" y="8" width="1" height="1" fill="#3e668e"/>
<rect x="17" y="8" width="1" height="1" fill="#40688f"/>
<rect x="18" y="8" width="1" height="1" fill="#426991"/>
<rect x="19" y="8" width="1" height="1" fill="#446b92"/>
<rect x="20" y="8" width="1" height="1" fill="#466d93"/>
<rect x="21" y="8" width="1" height="1" fill="#486e95"/>
<rect x="22" y="8" width="1" height="1" fill="#497096"/>
<rect x="23" y="8" width="1" height="1" fill="#4b7197"/>
<rect x="24" y="8" width="1" height="1" fill="#4d7399"/>
<rect x="25" y="8" width="1" height="1" fill="#4f749a"/>
<rect x="26" y="8" width="1" height="1" fill="#51769b"/>
<rect x="27" y="8" width="1" height="1" fill="#52779c"/>
<rect x="28" y="8" width="1" height="1" fill="#54799e"/>
<rect x="29" y="8" width="1" height="1" fill="#567b9f"/>
<rect x="30" y="8" width="1" height="1" fill="#8ba8c5"/>
<rect x="5" y="9" width="1" height="1" fill="#a7aeb5"/>
<rect x="6" y="9" width="1" height="1" fill="#466a8c"/>
<rect x="7" y="9" width="1" height="1" fill="#2e5883"/>
<rect x="8" y="9" width="1" height="1" fill="#305a84"/>
<rect x="9" y="9" width="1" height="1" fill="#325b85"/>
<rect x="10" y="9" width="1" height="1" fill="#345d86"/>
<rect x="11" y="9" width="1" height="1" fill="#355f88"/>
<rect x="12" y="9" width="1" height="1" fill="#376089"/>
<rect x="13" y="9" width="1" height="1" fill="#39628a"/>
<rect x="14" y="9" width="1" height="1" fill="#3b638c"/>
<rect x="15" y="9" width="1" height="1" fill="#3d658d"/>
<rect x="16" y="9" width="1" height="1" fill="#3e668e"/>
<rect x="17" y="9" width="1" height="1" fill="#40688f"/>
<rect x="18" y="9" width="1" height="1" fill="#426991"/>
<rect x="19" y="9" width="1" height="1" fill="#446b92"/>
<rect x="20" y="9" width="1" height="1" fill="#466d93"/>
<rect x="21" y="9" width="1" height="1" fill="#486e95"/>
<rect x="22" y="9" width="1" height="1" fill="#497096"/>
<rect x="23" y="9" width="1" height="1" fill="#4b7197"/>
<rect x="24" y="9" width="1" height="1" fill="#4d7399"/>
<rect x="25" y="9" width="1" height="1" fill="#4f749a"/>
<rect x="26" y="9" width="1" height="1" fill="#51769b"/>
<rect x="27" y="9" width="1" height="1" fill="#52779c"/>
<rect x="28" y="9" width="1" height="1" fill="#54799e"/>
<rect x="29" y="9" width="1" height="1" fill="#567b9f"/>
<rect x="30" y="9" width="1" height="1" fill="#8ba8c5"/>
<rect x="4" y="10" width="1" height="1" fill="#97a3af"/>
<rect x="5" y="10" width="1" height="1" fill="#325a83"/>
<rect x="6" y="10" width="1" height="1" fill="#2c5781"/>
<rect x="7" y="10" width="1" height="1" fill="#2e5883"/>
<rect x="8" y="10" width="1" height="1" fill="#305a84"/>
<rect x="9" y="10" width="1" height="1" fill="#325b85"/>
<rect x="10" y="10" width="1" height="1" fill="#345d86"/>
<rect x="11" y="10" width="1" height="1" fill="#355f88"/>
<rect x="12" y="10" width="1" height="1" fill="#376089"/>
<rect x="13" y="10" width="1" height="1" fill="#39628a"/>
<rect x="14" y="10" width="1" height="1" fill="#3b638c"/>
<rect x="15" y="10" width="1" height="1" fill="#3d658d"/>
<rect x="16" y="10" width="1" height="1" fill="#3e668e"/>
<rect x="17" y="10" width="1" height="1" fill="#40688f"/>
<rect x="18" y="10" width="1" height="1" fill="#426991"/>
<rect x="19" y="10" width="1" height="1" fill="#446b92"/>
<rect x="20" y="10" width="1" height="1" fill="#466d93"/>
<rect x="21" y="10" width="1" height="1" fill="#486e95"/>
<rect x="22" y="10" width="1" height="1" fill="#497096"/>
<rect x="23" y="10" width="1" height="1" fill="#4b7197"/>
<rect x="24" y="10" width="1" height="1" fill="#4d7399"/>
<rect x="25" y="10" width="1" height="1" fill="#4f749a"/>
<rect x="26" y="10" width="1" height="1" fill="#51769b"/>
<rect x="27" y="10" width="1" height="1" fill="#52779c"/>
<rect x="28" y="10" width="1" height="1" fill="#54799e"/>
<rect x="29" y="10" width="1" height="1" fill="#567b9f"/>
<rect x="30" y="10" width="1" height="1" fill="#8ba8c5"/>
<rect x="3" y="11" width="1" height="1" fill="#9fa8b1"/>
<rect x="4" y="11" width="1" height="1" fill="#2e5881"/>
<rect x="5" y="11" width="1" height="1" fill="#2b5580"/>
<rect x="6" y="11" width="1" height="1" fill="#2c5781"/>
<rect x="7" y="11" width="1" height="1" fill="#2e5883"/>
<rect x="8" y="11" width="1" height="1" fill="#305a84"/>
<rect x="9" y="11" width="1" height="1" fill="#325b85"/>
<rect x="10" y="11" width="1" height="1" fill="#345d86"/>
<rect x="11" y="11" width="1" height="1" fill="#355f88"/>
<rect x="12" y="11" width="1" height="1" fill="#376089"/>
<rect x="13" y="11" width="1" height="1" fill="#39628a"/>
<rect x="14" y="11" width="1" height="1" fill="#3b638c"/>
<rect x="15" y="11" width="1" height="1" fill="#3d658d"/>
<rect x="16" y="11" width="1" height="1" fill="#3e668e"/>
<rect x="17" y="11" width="1" height="1" fill="#40688f"/>
<rect x="18" y="11" width="1" height="1" fill="#426991"/>
<rect x="19" y="11" width="1" height="1" fill="#446b92"/>
<rect x="20" y="11" width="1" height="1" fill="#466d93"/>
<rect x="21" y="11" width="1" height="1" fill="#486e95"/>
<rect x="22" y="11" width="1" height="1" fill="#497096"/>
<rect x="23" y="11" width="1" height="1" fill="#4b7197"/>
<rect x="24" y="11" width="1" height="1" fill="#4d7399"/>
<rect x="25" y="11" width="1" height="1" fill="#4f749a"/>
<rect x="26" y="11" width="1" height="1" fill="#51769b"/>
<rect x="27" y="11" width="1" height="1" fill="#52779c"/>
<rect x="28" y="11" width="1" height="1" fill="#54799e"/>
<rect x="29" y="11" width="1" height="1" fill="#567b9f"/>
<rect x="30" y="11" width="1" height="1" fill="#8ba8c5"/>
<rect x="3" y="12" width="1" height="1" fill="#385e85"/>
<rect x="4" y="12" width="1" height="1" fill="#29547f"/>
<rect x="5" y="12" width="1" height="1" fill="#2b5580"/>
<rect x="6" y="12" width="1" height="1" fill="#2c5781"/>
<rect x="7" y="12" width="1" height="1" fill="#2e5883"/>
<rect x="8" y="12" width="1" height="1" fill="#305a84"/>
<rect x="9" y="12" width="1" height="1" fill="#325b85"/>
<rect x="10" y="12" width="1" height="1" fill="#345d86"/>
<rect x="11" y="12" width="1" height="1" fill="#355f88"/>
<rect x="12" y="12" width="1" height="1" fill="#376089"/>
<rect x="13" y="12" width="1" height="1" fill="#39628a"/>
<rect x="14" y="12" width="1" height="1" fill="#3b638c"/>
<rect x="15" y="12" width="1" height="1" fill="#3d658d"/>
<rect x="16" y="12" width="1" height="1" fill="#3e668e"/>
<rect x="17" y="12" width="1" height="1" fill="#40688f"/>
<rect x="18" y="12" width="1" height="1" fill="#426991"/>
<rect x="19" y="12" width="1" height="1" fill="#446b92"/>
<rect x="20" y="12" width="1" height="1" fill="#466d93"/>
<rect x="21" y="12" width="1" height="1" fill="#486e95"/>
<rect x="22" y="12" width="1" height="1" fill="#497096"/>
<rect x="23" y="12" width="1" height="1" fill="#4b7197"/>
<rect x="24" y="12" width="1" height="1" fill="#4d7399"/>
<rect x="25" y="12" width="1" height="1" fill="#4f749a"/>
<rect x="26" y="12" width="1" height="1" fill="#51769b"/>
<rect x="27" y="12" width="1" height="1" fill="#52779c"/>
<rect x="28" y="12" width="1" height="1" fill="#54799e"/>
<rect x="29" y="12" width="1" height="1" fill="#567b9f"/>
<rect x="30" y="12" width="1" height="1" fill="#8ba8c5"/>
<rect x="2" y="13" width="1" height="1" fill="#68819a"/>
<rect x="3" y="13" width="1" height="1" fill="#27527d"/>
<rect x="4" y="13" width="1" height="1" fill="#29547f"/>
<rect x="5" y="13" width="1" height="1" fill="#2b5580"/>
<rect x="6" y="13" width="1" height="1" fill="#2c5781"/>
<rect x="7" y="13" width="1" height="1" fill="#2e5883"/>
<rect x="8" y="13" width="1" height="1" fill="#305a84"/>
<rect x="9" y="13" width="1" height="1" fill="#325b85"/>
<rect x="10" y="13" width="1" height="1" fill="#496e93"/>
<rect x="11" y="13" width="1" height="1" fill="#91a8be"/>
<rect x="12" y="13" width="1" height="1" fill="#bac8d6"/>
<rect x="13" y="13" width="1" height="1" fill="#c0cdda"/>
<rect x="14" y="13" width="1" height="1" fill="#abbcce"/>
<rect x="15" y="13" width="1" height="1" fill="#6e8caa"/>
<rect x="16" y="13" width="1" height="1" fill="#3e668e"/>
<rect x="17" y="13" width="1" height="1" fill="#40688f"/>
<rect x="18" y="13" width="1" height="1" fill="#426991"/>
<rect x="19" y="13" width="1" height="1" fill="#446b92"/>
<rect x="20" y="13" width="1" height="1" fill="#466d93"/>
<rect x="21" y="13" width="1" height="1" fill="#486e95"/>
<rect x="22" y="13" width="1" height="1" fill="#497096"/>
<rect x="23" y="13" width="1" height="1" fill="#4b7197"/>
<rect x="24" y="13" width="1" height="1" fill="#4d7399"/>
<rect x="25" y="13" width="1" height="1" fill="#4f749a"/>
<rect x="26" y="13" width="1" height="1" fill="#51769b"/>
<rect x="27" y="13" width="1" height="1" fill="#52779c"/>
<rect x="28" y="13" width="1" height="1" fill="#54799e"/>
<rect x="29" y="13" width="1" height="1" fill="#567b9f"/>
<rect x="30" y="13" width="1" height="1" fill="#8ba8c5"/>
<rect x="2" y="14" width="1" height="1" fill="#2a547e"/>
<rect x="3" y="14" width="1" height="1" fill="#27527d"/>
<rect x="4" y="14" width="1" height="1" fill="#29547f"/>
<rect x="5" y="14" width="1" height="1" fill="#2b5580"/>
<rect x="6" y="14" width="1" height="1" fill="#2c5781"/>
<rect x="7" y="14" width="1" height="1" fill="#2e5883"/>
<rect x="8" y="14" width="1" height="1" fill="#305a84"/>
<rect x="9" y="14" width="1" height="1" fill="#7591ad"/>
<rect x="10" y="14" width="1" height="1" fill="#ccd6e0"/>
<rect x="11" y="14" width="3" height="1" fill="#c8d3de"/>
<rect x="14" y="14" width="1" height="1" fill="#d1dae3"/>
<rect x="15" y="14" width="1" height="1" fill="#e4e9ee"/>
<rect x="16" y="14" width="1" height="1" fill="#b8c6d5"/>
<rect x="17" y="14" width="1" height="1" fill="#476e93"/>
<rect x="18" y="14" width="1" height="1" fill="#426991"/>
<rect x="19" y="14" width="1" height="1" fill="#446b92"/>
<rect x="20" y="14" width="1" height="1" fill="#466d93"/>
<rect x="21" y="14" width="1" height="1" fill="#486e95"/>
<rect x="22" y="14" width="1" height="1" fill="#497096"/>
<rect x="23" y="14" width="1" height="1" fill="#4b7197"/>
<rect x="24" y="14" width="1" height="1" fill="#4d7399"/>
<rect x="25" y="14" width="1" height="1" fill="#4f749a"/>
<rect x="26" y="14" width="1" height="1" fill="#51769b"/>
<rect x="27" y="14" width="1" height="1" fill="#52779c"/>
<rect x="28" y="14" width="1" height="1" fill="#54799e"/>
<rect x="29" y="14" width="1" height="1" fill="#567b9f"/>
<rect x="30" y="14" width="1" height="1" fill="#8ba8c5"/>
<rect x="1" y="15" width="1" height="1" fill="#7c8fa2"/>
<rect x="2" y="15" width="1" height="1" fill="#25517c"/>
<rect x="3" y="15" width="1" height="1" fill="#27527d"/>
<rect x="4" y="15" width="1" height="1" fill="#29547f"/>
<rect x="5" y="15" width="1" height="1" fill="#2b5580"/>
<rect x="6" y="15" width="1" height="1" fill="#2c5781"/>
<rect x="7" y="15" width="1" height="1" fill="#2e5883"/>
<rect x="8" y="15" width="1" height="1" fill="#6484a3"/>
<rect x="9" y="15" width="1" height="1" fill="#c7d2de"/>
<rect x="10" y="15" width="1" height="1" fill="#acbccd"/>
<rect x="11" y="15" width="3" height="1" fill="#a3b5c8"/>
<rect x="14" y="15" width="1" height="1" fill="#acbccd"/>
<rect x="15" y="15" width="1" height="1" fill="#c8d3de"/>
<rect x="16" y="15" width="1" height="1" fill="#dbe2e9"/>
<rect x="17" y="15" width="1" height="1" fill="#b8c6d5"/>
<rect x="18" y="15" width="1" height="1" fill="#426991"/>
<rect x="19" y="15" width="1" height="1" fill="#446b92"/>
<rect x="20" y="15" width="1" height="1" fill="#466d93"/>
<rect x="21" y="15" width="1" height="1" fill="#486e95"/>
<rect x="22" y="15" width="1" height="1" fill="#497096"/>
<rect x="23" y="15" width="1" height="1" fill="#4b7197"/>
<rect x="24" y="15" width="1" height="1" fill="#4d7399"/>
<rect x="25" y="15" width="1" height="1" fill="#4f749a"/>
<rect x="26" y="15" width="1" height="1" fill="#51769b"/>
<rect x="27" y="15" width="1" height="1" fill="#52779c"/>
<rect x="28" y="15" width="1" height="1" fill="#54799e"/>
<rect x="29" y="15" width="1" height="1" fill="#567b9f"/>
<rect x="30" y="15" width="1" height="1" fill="#8ba8c5"/>
<rect x="1" y="16" width="1" height="1" fill="#4f6f8f"/>
<rect x="2" y="16" width="1" height="1" fill="#25517c"/>
<rect x="3" y="16" width="1" height="1" fill="#27527d"/>
<rect x="4" y="16" width="1" height="1" fill="#29547f"/>
<rect x="5" y="16" width="1" height="1" fill="#2b5580"/>
<rect x="6" y="16" width="1" height="1" fill="#2c5781"/>
<rect x="7" y="16" width="1" height="1" fill="#315a85"/>
<rect x="8" y="16" width="1" height="1" fill="#b6c5d3"/>
<rect x="9" y="16" width="1" height="1" fill="#a3b5c8"/>
<rect x="10" y="16" width="1" height="1" fill="#91a7bd"/>
<rect x="11" y="16" width="3" height="1" fill="#7e98b2"/>
<rect x="14" y="16" width="1" height="1" fill="#91a7bd"/>
<rect x="15" y="16" width="1" height="1" fill="#a3b5c8"/>
<rect x="16" y="16" width="1" height="1" fill="#c8d3de"/>
<rect x="17" y="16" width="1" height="1" fill="#e4e9ee"/>
<rect x="18" y="16" width="1" height="1" fill="#728fad"/>
<rect x="19" y="16" width="1" height="1" fill="#446b92"/>
<rect x="20" y="16" width="1" height="1" fill="#466d93"/>
<rect x="21" y="16" width="1" height="1" fill="#486e95"/>
<rect x="22" y="16" width="1" height="1" fill="#497096"/>
<rect x="23" y="16" width="1" height="1" fill="#4b7197"/>
<rect x="24" y="16" width="1" height="1" fill="#4d7399"/>
<rect x="25" y="16" width="1" height="1" fill="#4f749a"/>
<rect x="26" y="16" width="1" height="1" fill="#51769b"/>
<rect x="27" y="16" width="1" height="1" fill="#52779c"/>
<rect x="28" y="16" width="1" height="1" fill="#54799e"/>
<rect x="29" y="16" width="1" height="1" fill="#567b9f"/>
<rect x="30" y="16" width="1" height="1" fill="#8ba8c5"/>
<rect x="1" y="17" width="1" height="1" fill="#315982"/>
<rect x="2" y="17" width="1" height="1" fill="#25517c"/>
<rect x="3" y="17" width="1" height="1" fill="#27527d"/>
<rect x="4" y="17" width="1" height="1" fill="#29547f"/>
<rect x="5" y="17" width="1" height="1" fill="#2b5580"/>
<rect x="6" y="17" width="1" height="1" fill="#2c5781"/>
<rect x="7" y="17" width="1" height="1" fill="#55789a"/>
<rect x="8" y="17" width="1" height="1" fill="#acbccd"/>
<rect x="9" y="17" width="1" height="1" fill="#91a7bd"/>
<rect x="10" y="17" width="1" height="1" fill="#7590ac"/>
<rect x="11" y="17" width="3" height="1" fill="#597a9c"/>
<rect x="14" y="17" width="1" height="1" fill="#7590ac"/>
<rect x="15" y="17" width="1" height="1" fill="#91a7bd"/>
<rect x="16" y="17" width="1" height="1" fill="#acbccd"/>
<rect x="17" y="17" width="1" height="1" fill="#d1dae3"/>
<rect x="18" y="17" width="1" height="1" fill="#afbfd0"/>
<rect x="19" y="17" width="1" height="1" fill="#446b92"/>
<rect x="20" y="17" width="1" height="1" fill="#466d93"/>
<rect x="21" y="17" width="1" height="1" fill="#486e95"/>
<rect x="22" y="17" width="1" height="1" fill="#497096"/>
<rect x="23" y="17" width="1" height="1" fill="#4b7197"/>
<rect x="24" y="17" width="1" height="1" fill="#4d7399"/>
<rect x="25" y="17" width="1" height="1" fill="#4f749a"/>
<rect x="26" y="17" width="1" height="1" fill="#51769b"/>
<rect x="27" y="17" width="1" height="1" fill="#52779c"/>
<rect x="28" y="17" width="1" height="1" fill="#54799e"/>
<rect x="29" y="17" width="1" height="1" fill="#567b9f"/>
<rect x="30" y="17" width="1" height="1" fill="#8ba8c5"/>
<rect x="1" y="18" width="1" height="1" fill="#234f7b"/>
<rect x="2" y="18" width="1" height="1" fill="#25517c"/>
<rect x="3" y="18" width="1" height="1" fill="#27527d"/>
<rect x="4" y="18" width="1" height="1" fill="#29547f"/>
<rect x="5" y="18" width="1" height="1" fill="#2b5580"/>
<rect x="6" y="18" width="1" height="1" fill="#2c5781"/>
<rect x="7" y="18" width="1" height="1" fill="#6a88a7"/>
<rect x="8" y="18" width="1" height="1" fill="#a3b5c8"/>
<rect x="9" y="18" width="1" height="1" fill="#7e98b2"/>
<rect x="10" y="18" width="1" height="1" fill="#597a9c"/>
<rect x="11" y="18" width="1" height="1" fill="#3d648b"/>
<rect x="12" y="18" width="1" height="1" fill="#345d85"/>
<rect x="13" y="18" width="1" height="1" fill="#3d648b"/>
<rect x="14" y="18" width="1" height="1" fill="#597a9c"/>
<rect x="15" y="18" width="1" height="1" fill="#7e98b2"/>
<rect x="16" y="18" width="1" height="1" fill="#a3b5c8"/>
<rect x="17" y="18" width="1" height="1" fill="#c8d3de"/>
<rect x="18" y="18" width="1" height="1" fill="#c3cfdc"/>
<rect x="19" y="18" width="1" height="1" fill="#446b92"/>
<rect x="20" y="18" width="1" height="1" fill="#466d93"/>
<rect x="21" y="18" width="1" height="1" fill="#486e95"/>
<rect x="22" y="18" width="1" height="1" fill="#497096"/>
<rect x="23" y="18" width="1" height="1" fill="#4b7197"/>
<rect x="24" y="18" width="1" height="1" fill="#4d7399"/>
<rect x="25" y="18" width="1" height="1" fill="#4f749a"/>
<rect x="26" y="18" width="1" height="1" fill="#51769b"/>
<rect x="27" y="18" width="1" height="1" fill="#52779c"/>
<rect x="28" y="18" width="1" height="1" fill="#54799e"/>
<rect x="29" y="18" width="1" height="1" fill="#567b9f"/>
<rect x="30" y="18" width="1" height="1" fill="#8ba8c5"/>
<rect x="1" y="19" width="1" height="1" fill="#234f7b"/>
<rect x="2" y="19" width="1" height="1" fill="#25517c"/>
<rect x="3" y="19" width="1" height="1" fill="#27527d"/>
<rect x="4" y="19" width="1" height="1" fill="#29547f"/>
<rect x="5" y="19" width="1" height="1" fill="#2b5580"/>
<rect x="6" y="19" width="1" height="1" fill="#2c5781"/>
<rect x="7" y="19" width="1" height="1" fill="#6584a4"/>
<rect x="8" y="19" width="1" height="1" fill="#a3b5c8"/>
<rect x="9" y="19" width="1" height="1" fill="#7e98b2"/>
<rect x="10" y="19" width="1" height="1" fill="#597a9c"/>
<rect x="11" y="19" width="1" height="1" fill="#345d85"/>
<rect x="12" y="19" width="1" height="1" fill="#224e7a"/>
<rect x="13" y="19" width="1" height="1" fill="#345d85"/>
<rect x="14" y="19" width="1" height="1" fill="#597a9c"/>
<rect x="15" y="19" width="1" height="1" fill="#7e98b2"/>
<rect x="16" y="19" width="1" height="1" fill="#a3b5c8"/>
<rect x="17" y="19" width="1" height="1" fill="#c8d3de"/>
<rect x="18" y="19" width="1" height="1" fill="#bdcad8"/>
<rect x="19" y="19" width="1" height="1" fill="#446b92"/>
<rect x="20" y="19" width="1" height="1" fill="#466d93"/>
<rect x="21" y="19" width="1" height="1" fill="#486e95"/>
<rect x="22" y="19" width="1" height="1" fill="#497096"/>
<rect x="23" y="19" width="1" height="1" fill="#4b7197"/>
<rect x="24" y="19" width="1" height="1" fill="#5a7c9e"/>
<rect x="25" y="19" width="1" height="1" fill="#a6aeb7"/>
<rect x="26" y="19" width="2" height="1" fill="#a6afb8"/>
<rect x="1" y="20" width="1" height="1" fill="#28527d"/>
<rect x="2" y="20" width="1" height="1" fill="#25517c"/>
<rect x="3" y="20" width="1" height="1" fill="#27527d"/>
<rect x="4" y="20" width="1" height="1" fill="#29547f"/>
<rect x="5" y="20" width="1" height="1" fill="#2b5580"/>
<rect x="6" y="20" width="1" height="1" fill="#2c5781"/>
<rect x="7" y="20" width="1" height="1" fill="#446990"/>
<rect x="8" y="20" width="1" height="1" fill="#a3b5c8"/>
<rect x="9" y="20" width="1" height="1" fill="#7e98b2"/>
<rect x="10" y="20" width="1" height="1" fill="#597a9c"/>
<rect x="11" y="20" width="1" height="1" fill="#3d648b"/>
<rect x="12" y="20" width="1" height="1" fill="#345d85"/>
<rect x="13" y="20" width="1" height="1" fill="#3d648b"/>
<rect x="14" y="20" width="1" height="1" fill="#597a9c"/>
<rect x="15" y="20" width="1" height="1" fill="#7e98b2"/>
<rect x="16" y="20" width="1" height="1" fill="#a3b5c8"/>
<rect x="17" y="20" width="1" height="1" fill="#c8d3de"/>
<rect x="18" y="20" width="1" height="1" fill="#97acc3"/>
<rect x="19" y="20" width="1" height="1" fill="#446b92"/>
<rect x="20" y="20" width="1" height="1" fill="#466d93"/>
<rect x="21" y="20" width="1" height="1" fill="#486e95"/>
<rect x="22" y="20" width="1" height="1" fill="#497096"/>
<rect x="23" y="20" width="1" height="1" fill="#4b7197"/>
<rect x="24" y="20" width="1" height="1" fill="#6583a1"/>
<rect x="1" y="21" width="1" height="1" fill="#3f6387"/>
<rect x="2" y="21" width="1" height="1" fill="#25517c"/>
<rect x="3" y="21" width="1" height="1" fill="#27527d"/>
<rect x="4" y="21" width="1" height="1" fill="#29547f"/>
<rect x="5" y="21" width="1" height="1" fill="#2b5580"/>
<rect x="6" y="21" width="1" height="1" fill="#2c5781"/>
<rect x="7" y="21" width="1" height="1" fill="#2e5883"/>
<rect x="8" y="21" width="1" height="1" fill="#89a0b8"/>
<rect x="9" y="21" width="1" height="1" fill="#91a7bd"/>
<rect x="10" y="21" width="1" height="1" fill="#7590ac"/>
<rect x="11" y="21" width="3" height="1" fill="#597a9c"/>
<rect x="14" y="21" width="1" height="1" fill="#7590ac"/>
<rect x="15" y="21" width="1" height="1" fill="#91a7bd"/>
<rect x="16" y="21" width="1" height="1" fill="#acbccd"/>
<rect x="17" y="21" width="1" height="1" fill="#ccd6e0"/>
<rect x="18" y="21" width="1" height="1" fill="#56799d"/>
<rect x="19" y="21" width="1" height="1" fill="#446b92"/>
<rect x="20" y="21" width="1" height="1" fill="#466d93"/>
<rect x="21" y="21" width="1" height="1" fill="#486e95"/>
<rect x="22" y="21" width="1" height="1" fill="#497096"/>
<rect x="23" y="21" width="1" height="1" fill="#4b7197"/>
<rect x="24" y="21" width="1" height="1" fill="#768fa7"/>
<rect x="1" y="22" width="1" height="1" fill="#647e98"/>
<rect x="2" y="22" width="1" height="1" fill="#25517c"/>
<rect x="3" y="22" width="1" height="1" fill="#27527d"/>
<rect x="4" y="22" width="1" height="1" fill="#29547f"/>
<rect x="5" y="22" width="1" height="1" fill="#2b5580"/>
<rect x="6" y="22" width="1" height="1" fill="#2c5781"/>
<rect x="7" y="22" width="1" height="1" fill="#2e5883"/>
<rect x="8" y="22" width="1" height="1" fill="#40678e"/>
<rect x="9" y="22" width="1" height="1" fill="#97acc1"/>
<rect x="10" y="22" width="1" height="1" fill="#91a7bd"/>
<rect x="11" y="22" width="3" height="1" fill="#7e98b2"/>
<rect x="14" y="22" width="1" height="1" fill="#91a7bd"/>
<rect x="15" y="22" width="1" height="1" fill="#a3b5c8"/>
<rect x="16" y="22" width="1" height="1" fill="#c8d3de"/>
<rect x="17" y="22" width="1" height="1" fill="#7d98b3"/>
<rect x="18" y="22" width="1" height="1" fill="#426991"/>
<rect x="19" y="22" width="1" height="1" fill="#446b92"/>
<rect x="20" y="22" width="1" height="1" fill="#466d93"/>
<rect x="21" y="22" width="1" height="1" fill="#486e95"/>
<rect x="22" y="22" width="1" height="1" fill="#497096"/>
<rect x="23" y="22" width="1" height="1" fill="#4b7197"/>
<rect x="24" y="22" width="1" height="1" fill="#92a1b0"/>
<rect x="1" y="23" width="1" height="1" fill="#99a4af"/>
<rect x="2" y="23" width="1" height="1" fill="#25517c"/>
<rect x="3" y="23" width="1" height="1" fill="#27527d"/>
<rect x="4" y="23" width="1" height="1" fill="#29547f"/>
<rect x="5" y="23" width="1" height="1" fill="#2b5580"/>
<rect x="6" y="23" width="1" height="1" fill="#2c5781"/>
<rect x="7" y="23" width="1" height="1" fill="#2e5883"/>
<rect x="8" y="23" width="1" height="1" fill="#305a84"/>
<rect x="9" y="23" width="1" height="1" fill="#43698f"/>
<rect x="10" y="23" width="1" height="1" fill="#8aa1b9"/>
<rect x="11" y="23" width="3" height="1" fill="#a3b5c8"/>
<rect x="14" y="23" width="1" height="1" fill="#acbccd"/>
<rect x="15" y="23" width="1" height="1" fill="#b7c6d4"/>
<rect x="16" y="23" width="1" height="1" fill="#6e8caa"/>
<rect x="17" y="23" width="1" height="1" fill="#40688f"/>
<rect x="18" y="23" width="1" height="1" fill="#426991"/>
<rect x="19" y="23" width="1" height="1" fill="#446b92"/>
<rect x="20" y="23" width="1" height="1" fill="#466d93"/>
<rect x="21" y="23" width="1" height="1" fill="#486e95"/>
<rect x="22" y="23" width="1" height="1" fill="#497096"/>
<rect x="23" y="23" width="1" height="1" fill="#4d7298"/>
<rect x="2" y="24" width="1" height="1" fill="#426689"/>
<rect x="3" y="24" width="1" height="1" fill="#27527d"/>
<rect x="4" y="24" width="1" height="1" fill="#29547f"/>
<rect x="5" y="24" width="1" height="1" fill="#2b5580"/>
<rect x="6" y="24" width="1" height="1" fill="#2c5781"/>
<rect x="7" y="24" width="1" height="1" fill="#2e5883"/>
<rect x="8" y="24" width="1" height="1" fill="#305a84"/>
<rect x="9" y="24" width="1" height="1" fill="#325b85"/>
<rect x="10" y="24" width="1" height="1" fill="#345d86"/>
<rect x="11" y="24" width="1" height="1" fill="#4a6f94"/>
<rect x="12" y="24" width="1" height="1" fill="#6b89a7"/>
<rect x="13" y="24" width="1" height="1" fill="#708eab"/>
<rect x="14" y="24" width="1" height="1" fill="#5f80a1"/>
<rect x="15" y="24" width="1" height="1" fill="#3f678f"/>
<rect x="16" y="24" width="1" height="1" fill="#3e668e"/>
<rect x="17" y="24" width="1" height="1" fill="#40688f"/>
<rect x="18" y="24" width="1" height="1" fill="#426991"/>
<rect x="19" y="24" width="1" height="1" fill="#446b92"/>
<rect x="20" y="24" width="1" height="1" fill="#466d93"/>
<rect x="21" y="24" width="1" height="1" fill="#486e95"/>
<rect x="22" y="24" width="1" height="1" fill="#497096"/>
<rect x="23" y="24" width="1" height="1" fill="#768ea6"/>
<rect x="2" y="25" width="1" height="1" fill="#97a3ae"/>
<rect x="3" y="25" width="1" height="1" fill="#27527d"/>
<rect x="4" y="25" width="1" height="1" fill="#29547f"/>
<rect x="5" y="25" width="1" height="1" fill="#2b5580"/>
<rect x="6" y="25" width="1" height="1" fill="#2c5781"/>
<rect x="7" y="25" width="1" height="1" fill="#2e5883"/>
<rect x="8" y="25" width="1" height="1" fill="#305a84"/>
<rect x="9" y="25" width="1" height="1" fill="#325b85"/>
<rect x="10" y="25" width="1" height="1" fill="#345d86"/>
<rect x="11" y="25" width="1" height="1" fill="#355f88"/>
<rect x="12" y="25" width="1" height="1" fill="#376089"/>
<rect x="13" y="25" width="1" height="1" fill="#39628a"/>
<rect x="14" y="25" width="1" height="1" fill="#3b638c"/>
<rect x="15" y="25" width="1" height="1" fill="#3d658d"/>
<rect x="16" y="25" width="1" height="1" fill="#3e668e"/>
<rect x="17" y="25" width="1" height="1" fill="#40688f"/>
<rect x="18" y="25" width="1" height="1" fill="#426991"/>
<rect x="19" y="25" width="1" height="1" fill="#446b92"/>
<rect x="20" y="25" width="1" height="1" fill="#466d93"/>
<rect x="21" y="25" width="1" height="1" fill="#486e95"/>
<rect x="22" y="25" width="1" height="1" fill="#4d7398"/>
<rect x="3" y="26" width="1" height="1" fill="#68819a"/>
<rect x="4" y="26" width="1" height="1" fill="#29547f"/>
<rect x="5" y="26" width="1" height="1" fill="#2b5580"/>
<rect x="6" y="26" width="1" height="1" fill="#2c5781"/>
<rect x="7" y="26" width="1" height="1" fill="#2e5883"/>
<rect x="8" y="26" width="1" height="1" fill="#305a84"/>
<rect x="9" y="26" width="1" height="1" fill="#325b85"/>
<rect x="10" y="26" width="1" height="1" fill="#345d86"/>
<rect x="11" y="26" width="1" height="1" fill="#355f88"/>
<rect x="12" y="26" width="1" height="1" fill="#376089"/>
<rect x="13" y="26" width="1" height="1" fill="#39628a"/>
<rect x="14" y="26" width="1" height="1" fill="#3b638c"/>
<rect x="15" y="26" width="1" height="1" fill="#3d658d"/>
<rect x="16" y="26" width="1" height="1" fill="#3e668e"/>
<rect x="17" y="26" width="1" height="1" fill="#40688f"/>
<rect x="18" y="26" width="1" height="1" fill="#426991"/>
<rect x="19" y="26" width="1" height="1" fill="#446b92"/>
<rect x="20" y="26" width="1" height="1" fill="#466d93"/>
<rect x="21" y="26" width="1" height="1" fill="#486e95"/>
<rect x="22" y="26" width="1" height="1" fill="#91a1b0"/>
<rect x="4" y="27" width="1" height="1" fill="#587593"/>
<rect x="5" y="27" width="1" height="1" fill="#2b5580"/>
<rect x="6" y="27" width="1" height="1" fill="#2c5781"/>
<rect x="7" y="27" width="1" height="1" fill="#2e5883"/>
<rect x="8" y="27" width="1" height="1" fill="#305a84"/>
<rect x="9" y="27" width="1" height="1" fill="#325b85"/>
<rect x="10" y="27" width="1" height="1" fill="#345d86"/>
<rect x="11" y="27" width="1" height="1" fill="#355f88"/>
<rect x="12" y="27" width="1" height="1" fill="#376089"/>
<rect x="13" y="27" width="1" height="1" fill="#39628a"/>
<rect x="14" y="27" width="1" height="1" fill="#3b638c"/>
<rect x="15" y="27" width="1" height="1" fill="#3d658d"/>
<rect x="16" y="27" width="1" height="1" fill="#3e668e"/>
<rect x="17" y="27" width="1" height="1" fill="#40688f"/>
<rect x="18" y="27" width="1" height="1" fill="#426991"/>
<rect x="19" y="27" width="1" height="1" fill="#446b92"/>
<rect x="20" y="27" width="1" height="1" fill="#466d93"/>
<rect x="21" y="27" width="1" height="1" fill="#8095a9"/>
<rect x="5" y="28" width="1" height="1" fill="#667f99"/>
<rect x="6" y="28" width="1" height="1" fill="#2c5781"/>
<rect x="7" y="28" width="1" height="1" fill="#2e5883"/>
<rect x="8" y="28" width="1" height="1" fill="#305a84"/>
<rect x="9" y="28" width="1" height="1" fill="#325b85"/>
<rect x="10" y="28" width="1" height="1" fill="#345d86"/>
<rect x="11" y="28" width="1" height="1" fill="#355f88"/>
<rect x="12" y="28" width="1" height="1" fill="#376089"/>
<rect x="13" y="28" width="1" height="1" fill="#39628a"/>
<rect x="14" y="28" width="1" height="1" fill="#3b638c"/>
<rect x="15" y="28" width="1" height="1" fill="#3d658d"/>
<rect x="16" y="28" width="1" height="1" fill="#3e668e"/>
<rect x="17" y="28" width="1" height="1" fill="#40688f"/>
<rect x="18" y="28" width="1" height="1" fill="#426991"/>
<rect x="19" y="28" width="1" height="1" fill="#456c93"/>
<rect x="20" y="28" width="1" height="1" fill="#889aab"/>
<rect x="6" y="29" width="1" height="1" fill="#919fac"/>
<rect x="7" y="29" width="1" height="1" fill="#41668b"/>
<rect x="8" y="29" width="1" height="1" fill="#305a84"/>
<rect x="9" y="29" width="1" height="1" fill="#325b85"/>
<rect x="10" y="29" width="1" height="1" fill="#345d86"/>
<rect x="11" y="29" width="1" height="1" fill="#355f88"/>
<rect x="12" y="29" width="1" height="1" fill="#376089"/>
<rect x="13" y="29" width="1" height="1" fill="#39628a"/>
<rect x="14" y="29" width="1" height="1" fill="#3b638c"/>
<rect x="15" y="29" width="1" height="1" fill="#3d658d"/>
<rect x="16" y="29" width="1" height="1" fill="#3e668e"/>
<rect x="17" y="29" width="1" height="1" fill="#40688f"/>
<rect x="18" y="29" width="1" height="1" fill="#5c7b9b"/>
<rect x="19" y="29" width="1" height="1" fill="#a5aeb6"/>
<rect x="8" y="30" width="1" height="1" fill="#8f9eac"/>
<rect x="9" y="30" width="1" height="1" fill="#5e7a97"/>
<rect x="10" y="30" width="1" height="1" fill="#3d638a"/>
<rect x="11" y="30" width="1" height="1" fill="#355f88"/>
<rect x="12" y="30" width="1" height="1" fill="#376089"/>
<rect x="13" y="30" width="1" height="1" fill="#39628a"/>
<rect x="14" y="30" width="1" height="1" fill="#3b638c"/>
<rect x="15" y="30" width="1" height="1" fill="#4a6e92"/>
<rect x="16" y="30" width="1" height="1" fill="#6e87a1"/>
<rect x="17" y="30" width="1" height="1" fill="#9ea9b3"/>
</svg>