<svg xmlns="http://www.w3.org/2000/svg" width="32" height="32" viewBox="0 0 32 32" shape-rendering="crispEdges">
<rect x="6" y="5" width="1" height="1" fill="#6687a8"/>
<rect x="7" y="5" width="1" height="1" fill="#90a2b3"/>
<rect x="24" y="5" width="1" height="1" fill="#43709e"/>
<rect x="25" y="5" width="1" height="1" fill="#90a2b3"/>
<rect x="2" y="6" width="4" height="1" fill="#899eb3"/>
<rect x="6" y="6" width="1" height="1" fill="#3b6b9c"/>
<rect x="7" y="6" width="1" height="1" fill="#5e82a7"/>
<rect x="8" y="6" width="15" height="1" fill="#899eb3"/>
<rect x="23" y="6" width="1" height="1" fill="#839ab2"/>
<rect x="24" y="6" width="1" height="1" fill="#37699b"/>
<rect x="25" y="6" width="1" height="1" fill="#6889a9"/>
<rect x="26" y="6" width="3" height="1" fill="#899eb3"/>
<rect x="29" y="6" width="1" height="1" fill="#91a2b3"/>
<rect x="1" y="7" width="1" height="1" fill="#6b85a1"/>
<rect x="2" y="7" width="4" height="1" fill="#5e80a3"/>
<rect x="6" y="7" width="1" height="1" fill="#396a9b"/>
<rect x="7" y="7" width="1" height="1" fill="#49749f"/>
<rect x="8" y="7" width="15" height="1" fill="#5e80a3"/>
<rect x="23" y="7" width="1" height="1" fill="#5b7ea3"/>
<rect x="24" y="7" width="1" height="1" fill="#37699b"/>
<rect x="25" y="7" width="1" height="1" fill="#4e77a0"/>
<rect x="26" y="7" width="3" height="1" fill="#5e80a3"/>
<rect x="29" y="7" width="1" height="1" fill="#577a9e"/>
<rect x="1" y="8" width="1" height="1" fill="#6984a0"/>
<rect x="2" y="8" width="1" height="1" fill="#8fa9c4"/>
<rect x="3" y="8" width="3" height="1" fill="#95aec8"/>
<rect x="6" y="8" width="1" height="1" fill="#3b6c9d"/>
<rect x="7" y="8" width="1" height="1" fill="#638ab1"/>
<rect x="8" y="8" width="15" height="1" fill="#95aec8"/>
<rect x="23" y="8" width="1" height="1" fill="#8ea9c5"/>
<rect x="24" y="8" width="1" height="1" fill="#37699b"/>
<rect x="25" y="8" width="1" height="1" fill="#6f92b6"/>
<rect x="26" y="8" width="3" height="1" fill="#95aec8"/>
<rect x="29" y="8" width="1" height="1" fill="#6b8bac"/>
<rect x="1" y="9" width="1" height="1" fill="#68839f"/>
<rect x="2" y="9" width="1" height="1" fill="#97b0c9"/>
<rect x="3" y="9" width="3" height="1" fill="#9bb3cc"/>
<rect x="6" y="9" width="1" height="1" fill="#648ab1"/>
<rect x="7" y="9" width="1" height="1" fill="#7e9dbe"/>
<rect x="8" y="9" width="15" height="1" fill="#9bb3cc"/>
<rect x="23" y="9" width="1" height="1" fill="#99b1cb"/>
<rect x="24" y="9" width="1" height="1" fill="#688eb3"/>
<rect x="25" y="9" width="1" height="1" fill="#89a6c3"/>
<rect x="26" y="9" width="3" height="1" fill="#9bb3cc"/>
<rect x="29" y="9" width="1" height="1" fill="#708faf"/>
<rect x="1" y="10" width="1" height="1" fill="#67829e"/>
<rect x="2" y="10" width="1" height="1" fill="#97b0c9"/>
<rect x="3" y="10" width="26" height="1" fill="#9bb3cc"/>
<rect x="29" y="10" width="1" height="1" fill="#6f8eae"/>
<rect x="1" y="11" width="1" height="1" fill="#66819d"/>
<rect x="2" y="11" width="1" height="1" fill="#97afc9"/>
<rect x="3" y="11" width="1" height="1" fill="#6e8dac"/>
<rect x="4" y="11" width="1" height="1" fill="#6d8cab"/>
<rect x="5" y="11" width="1" height="1" fill="#6e8dac"/>
<rect x="6" y="11" width="1" height="1" fill="#6f8dac"/>
<rect x="7" y="11" width="1" height="1" fill="#7b98b5"/>
<rect x="8" y="11" width="1" height="1" fill="#7f9bb8"/>
<rect x="9" y="11" width="2" height="1" fill="#7694b1"/>
<rect x="11" y="11" width="1" height="1" fill="#7996b3"/>
<rect x="12" y="11" width="1" height="1" fill="#7e9bb6"/>
<rect x="13" y="11" width="1" height="1" fill="#8aa4bf"/>
<rect x="14" y="11" width="1" height="1" fill="#7f9bb6"/>
<rect x="15" y="11" width="1" height="1" fill="#809bb7"/>
<rect x="16" y="11" width="1" height="1" fill="#829db9"/>
<rect x="17" y="11" width="1" height="1" fill="#859fba"/>
<rect x="18" y="11" width="1" height="1" fill="#91abc4"/>
<rect x="19" y="11" width="2" height="1" fill="#93abc3"/>
<rect x="21" y="11" width="1" height="1" fill="#9bb2c8"/>
<rect x="22" y="11" width="1" height="1" fill="#a5bace"/>
<rect x="23" y="11" width="1" height="1" fill="#a6bbd1"/>
<rect x="24" y="11" width="1" height="1" fill="#b5c7d8"/>
<rect x="25" y="11" width="1" height="1" fill="#b8c9da"/>
<rect x="26" y="11" width="2" height="1" fill="#c1d0e0"/>
<rect x="28" y="11" width="1" height="1" fill="#adc0d5"/>
<rect x="29" y="11" width="1" height="1" fill="#6d8dad"/>
<rect x="1" y="12" width="1" height="1" fill="#65819d"/>
<rect x="2" y="12" width="1" height="1" fill="#96afc9"/>
<rect x="3" y="12" width="1" height="1" fill="#507498"/>
<rect x="4" y="12" width="1" height="1" fill="#4e7295"/>
<rect x="5" y="12" width="1" height="1" fill="#527698"/>
<rect x="6" y="12" width="1" height="1" fill="#547799"/>
<rect x="7" y="12" width="1" height="1" fill="#6e8cab"/>
<rect x="8" y="12" width="1" height="1" fill="#7492b1"/>
<rect x="9" y="12" width="1" height="1" fill="#5e7f9f"/>
<rect x="10" y="12" width="2" height="1" fill="#6182a2"/>
<rect x="12" y="12" width="1" height="1" fill="#6d8ba9"/>
<rect x="13" y="12" width="1" height="1" fill="#88a3be"/>
<rect x="14" y="12" width="1" height="1" fill="#6d8ba8"/>
<rect x="15" y="12" width="1" height="1" fill="#6f8daa"/>
<rect x="16" y="12" width="1" height="1" fill="#708eab"/>
<rect x="17" y="12" width="1" height="1" fill="#7491ad"/>
<rect x="18" y="12" width="1" height="1" fill="#92acc5"/>
<rect x="19" y="12" width="1" height="1" fill="#7c97b2"/>
<rect x="20" y="12" width="1" height="1" fill="#8ba4bc"/>
<rect x="21" y="12" width="1" height="1" fill="#8ea6be"/>
<rect x="22" y="12" width="1" height="1" fill="#99afc4"/>
<rect x="23" y="12" width="1" height="1" fill="#9fb5cd"/>
<rect x="24" y="12" width="1" height="1" fill="#b8c8d8"/>
<rect x="25" y="12" width="1" height="1" fill="#c4d2df"/>
<rect x="26" y="12" width="1" height="1" fill="#c6d3e0"/>
<rect x="27" y="12" width="1" height="1" fill="#d6e0ea"/>
<rect x="28" y="12" width="1" height="1" fill="#b6c8da"/>
<rect x="29" y="12" width="1" height="1" fill="#6c8cac"/>
<rect x="1" y="13" width="1" height="1" fill="#647f9c"/>
<rect x="2" y="13" width="1" height="1" fill="#96afc9"/>
<rect x="3" y="13" width="1" height="1" fill="#4c7195"/>
<rect x="4" y="13" width="1" height="1" fill="#4a6e93"/>
<rect x="5" y="13" width="1" height="1" fill="#4e7295"/>
<rect x="6" y="13" width="1" height="1" fill="#527597"/>
<rect x="7" y="13" width="1" height="1" fill="#6c8cab"/>
<rect x="8" y="13" width="1" height="1" fill="#7290af"/>
<rect x="9" y="13" width="1" height="1" fill="#597b9c"/>
<rect x="10" y="13" width="1" height="1" fill="#5d7e9f"/>
<rect x="11" y="13" width="1" height="1" fill="#6182a2"/>
<rect x="12" y="13" width="1" height="1" fill="#6989a8"/>
<rect x="13" y="13" width="1" height="1" fill="#86a1bc"/>
<rect x="14" y="13" width="1" height="1" fill="#6887a5"/>
<rect x="15" y="13" width="1" height="1" fill="#6c8ba8"/>
<rect x="16" y="13" width="1" height="1" fill="#6f8daa"/>
<rect x="17" y="13" width="1" height="1" fill="#708daa"/>
<rect x="18" y="13" width="1" height="1" fill="#91abc5"/>
<rect x="19" y="13" width="1" height="1" fill="#7894b0"/>
<rect x="20" y="13" width="1" height="1" fill="#7b96b1"/>
<rect x="21" y="13" width="1" height="1" fill="#89a2bb"/>
<rect x="22" y="13" width="1" height="1" fill="#8ea6be"/>
<rect x="23" y="13" width="1" height="1" fill="#9ab2ca"/>
<rect x="24" y="13" width="1" height="1" fill="#a6bacd"/>
<rect x="25" y="13" width="1" height="1" fill="#b6c6d6"/>
<rect x="26" y="13" width="2" height="1" fill="#c4d2df"/>
<rect x="28" y="13" width="1" height="1" fill="#b5c7d9"/>
<rect x="29" y="13" width="1" height="1" fill="#6b8aab"/>
<rect x="1" y="14" width="1" height="1" fill="#637e9b"/>
<rect x="2" y="14" width="1" height="1" fill="#96afc9"/>
<rect x="3" y="14" width="1" height="1" fill="#84a0bc"/>
<rect x="4" y="14" width="1" height="1" fill="#85a1bd"/>
<rect x="5" y="14" width="1" height="1" fill="#86a2be"/>
<rect x="6" y="14" width="1" height="1" fill="#87a3be"/>
<rect x="7" y="14" width="1" height="1" fill="#8fa9c3"/>
<rect x="8" y="14" width="1" height="1" fill="#91aac5"/>
<rect x="9" y="14" width="1" height="1" fill="#89a4bf"/>
<rect x="10" y="14" width="1" height="1" fill="#8aa5c0"/>
<rect x="11" y="14" width="1" height="1" fill="#8ba6c1"/>
<rect x="12" y="14" width="1" height="1" fill="#8ea8c3"/>
<rect x="13" y="14" width="1" height="1" fill="#96aec8"/>
<rect x="14" y="14" width="1" height="1" fill="#8da7c2"/>
<rect x="15" y="14" width="1" height="1" fill="#8ea8c2"/>
<rect x="16" y="14" width="1" height="1" fill="#8fa9c3"/>
<rect x="17" y="14" width="1" height="1" fill="#90aac4"/>
<rect x="18" y="14" width="1" height="1" fill="#98b1ca"/>
<rect x="19" y="14" width="1" height="1" fill="#91aac4"/>
<rect x="20" y="14" width="1" height="1" fill="#92abc5"/>
<rect x="21" y="14" width="1" height="1" fill="#93acc5"/>
<rect x="22" y="14" width="1" height="1" fill="#96aec8"/>
<rect x="23" y="14" width="1" height="1" fill="#9ab2cc"/>
<rect x="24" y="14" width="1" height="1" fill="#99b1ca"/>
<rect x="25" y="14" width="1" height="1" fill="#9db4cc"/>
<rect x="26" y="14" width="1" height="1" fill="#a1b7cf"/>
<rect x="27" y="14" width="1" height="1" fill="#a5bbd1"/>
<rect x="28" y="14" width="1" height="1" fill="#a8bcd2"/>
<rect x="29" y="14" width="1" height="1" fill="#6a89aa"/>
<rect x="1" y="15" width="1" height="1" fill="#617e9a"/>
<rect x="2" y="15" width="1" height="1" fill="#96afc9"/>
<rect x="3" y="15" width="1" height="1" fill="#486d92"/>
<rect x="4" y="15" width="1" height="1" fill="#42688e"/>
<rect x="5" y="15" width="1" height="1" fill="#456b90"/>
<rect x="6" y="15" width="1" height="1" fill="#496d92"/>
<rect x="7" y="15" width="1" height="1" fill="#6888a8"/>
<rect x="8" y="15" width="1" height="1" fill="#6f8ead"/>
<rect x="9" y="15" width="2" height="1" fill="#547799"/>
<rect x="11" y="15" width="1" height="1" fill="#587a9c"/>
<rect x="12" y="15" width="1" height="1" fill="#6585a5"/>
<rect x="13" y="15" width="1" height="1" fill="#84a0bc"/>
<rect x="14" y="15" width="1" height="1" fill="#6182a2"/>
<rect x="15" y="15" width="1" height="1" fill="#6383a3"/>
<rect x="16" y="15" width="1" height="1" fill="#6786a5"/>
<rect x="17" y="15" width="1" height="1" fill="#6b8aa7"/>
<rect x="18" y="15" width="1" height="1" fill="#90aac4"/>
<rect x="19" y="15" width="1" height="1" fill="#6f8daa"/>
<rect x="20" y="15" width="1" height="1" fill="#728fac"/>
<rect x="21" y="15" width="1" height="1" fill="#7693af"/>
<rect x="22" y="15" width="1" height="1" fill="#7a95b1"/>
<rect x="23" y="15" width="1" height="1" fill="#96aec7"/>
<rect x="24" y="15" width="1" height="1" fill="#8ea6be"/>
<rect x="25" y="15" width="1" height="1" fill="#92a9c0"/>
<rect x="26" y="15" width="1" height="1" fill="#a2b6ca"/>
<rect x="27" y="15" width="1" height="1" fill="#b2c3d4"/>
<rect x="28" y="15" width="1" height="1" fill="#acc0d4"/>
<rect x="29" y="15" width="1" height="1" fill="#6888a9"/>
<rect x="1" y="16" width="1" height="1" fill="#607c9a"/>
<rect x="2" y="16" width="1" height="1" fill="#96afc9"/>
<rect x="3" y="16" width="1" height="1" fill="#436990"/>
<rect x="4" y="16" width="1" height="1" fill="#41678d"/>
<rect x="5" y="16" width="1" height="1" fill="#42688e"/>
<rect x="6" y="16" width="1" height="1" fill="#446a8f"/>
<rect x="7" y="16" width="1" height="1" fill="#6585a6"/>
<rect x="8" y="16" width="1" height="1" fill="#6c8cab"/>
<rect x="9" y="16" width="1" height="1" fill="#507496"/>
<rect x="10" y="16" width="2" height="1" fill="#547799"/>
<rect x="12" y="16" width="1" height="1" fill="#6081a2"/>
<rect x="13" y="16" width="1" height="1" fill="#829ebb"/>
<rect x="14" y="16" width="1" height="1" fill="#5f80a0"/>
<rect x="15" y="16" width="1" height="1" fill="#6182a2"/>
<rect x="16" y="16" width="1" height="1" fill="#6283a2"/>
<rect x="17" y="16" width="1" height="1" fill="#6786a4"/>
<rect x="18" y="16" width="1" height="1" fill="#8fa9c3"/>
<rect x="19" y="16" width="2" height="1" fill="#6f8daa"/>
<rect x="21" y="16" width="1" height="1" fill="#728fac"/>
<rect x="22" y="16" width="1" height="1" fill="#7692ae"/>
<rect x="23" y="16" width="1" height="1" fill="#93acc6"/>
<rect x="24" y="16" width="1" height="1" fill="#829cb6"/>
<rect x="25" y="16" width="1" height="1" fill="#8ea6be"/>
<rect x="26" y="16" width="1" height="1" fill="#90a7bf"/>
<rect x="27" y="16" width="1" height="1" fill="#a0b5c9"/>
<rect x="28" y="16" width="1" height="1" fill="#a4bacf"/>
<rect x="29" y="16" width="1" height="1" fill="#6787a8"/>
<rect x="1" y="17" width="1" height="1" fill="#5f7b99"/>
<rect x="2" y="17" width="1" height="1" fill="#96afc9"/>
<rect x="3" y="17" width="1" height="1" fill="#5f81a3"/>
<rect x="4" y="17" width="1" height="1" fill="#5e80a2"/>
<rect x="5" y="17" width="1" height="1" fill="#6182a4"/>
<rect x="6" y="17" width="1" height="1" fill="#6283a5"/>
<rect x="7" y="17" width="1" height="1" fill="#7794b3"/>
<rect x="8" y="17" width="1" height="1" fill="#7c99b6"/>
<rect x="9" y="17" width="1" height="1" fill="#6888a8"/>
<rect x="10" y="17" width="1" height="1" fill="#6a8aaa"/>
<rect x="11" y="17" width="1" height="1" fill="#6e8dac"/>
<rect x="12" y="17" width="1" height="1" fill="#7492b0"/>
<rect x="13" y="17" width="1" height="1" fill="#8aa5c0"/>
<rect x="14" y="17" width="1" height="1" fill="#7290ae"/>
<rect x="15" y="17" width="1" height="1" fill="#7592b0"/>
<rect x="16" y="17" width="1" height="1" fill="#7694b1"/>
<rect x="17" y="17" width="1" height="1" fill="#7794b1"/>
<rect x="18" y="17" width="1" height="1" fill="#93acc6"/>
<rect x="19" y="17" width="1" height="1" fill="#7c98b5"/>
<rect x="20" y="17" width="1" height="1" fill="#7e9ab6"/>
<rect x="21" y="17" width="1" height="1" fill="#7f9bb6"/>
<rect x="22" y="17" width="1" height="1" fill="#809bb7"/>
<rect x="23" y="17" width="1" height="1" fill="#95aec8"/>
<rect x="24" y="17" width="1" height="1" fill="#85a0ba"/>
<rect x="25" y="17" width="1" height="1" fill="#8aa3be"/>
<rect x="26" y="17" width="2" height="1" fill="#93abc3"/>
<rect x="28" y="17" width="1" height="1" fill="#9cb3cb"/>
<rect x="29" y="17" width="1" height="1" fill="#6586a8"/>
<rect x="1" y="18" width="1" height="1" fill="#5e7b98"/>
<rect x="2" y="18" width="1" height="1" fill="#95aec8"/>
<rect x="3" y="18" width="1" height="1" fill="#5f81a4"/>
<rect x="4" y="18" width="1" height="1" fill="#5f81a2"/>
<rect x="5" y="18" width="1" height="1" fill="#6182a4"/>
<rect x="6" y="18" width="1" height="1" fill="#6484a5"/>
<rect x="7" y="18" width="1" height="1" fill="#7895b4"/>
<rect x="8" y="18" width="1" height="1" fill="#7b99b6"/>
<rect x="9" y="18" width="1" height="1" fill="#6888a8"/>
<rect x="10" y="18" width="1" height="1" fill="#6a8aaa"/>
<rect x="11" y="18" width="1" height="1" fill="#6d8cab"/>
<rect x="12" y="18" width="1" height="1" fill="#7593b1"/>
<rect x="13" y="18" width="1" height="1" fill="#8ba5c1"/>
<rect x="14" y="18" width="1" height="1" fill="#718fae"/>
<rect x="15" y="18" width="1" height="1" fill="#7392b0"/>
<rect x="16" y="18" width="1" height="1" fill="#7693b1"/>
<rect x="17" y="18" width="1" height="1" fill="#7895b3"/>
<rect x="18" y="18" width="1" height="1" fill="#93acc6"/>
<rect x="19" y="18" width="1" height="1" fill="#7b97b4"/>
<rect x="20" y="18" width="1" height="1" fill="#7d99b5"/>
<rect x="21" y="18" width="1" height="1" fill="#7f9bb7"/>
<rect x="22" y="18" width="1" height="1" fill="#809cb8"/>
<rect x="23" y="18" width="1" height="1" fill="#95aec7"/>
<rect x="24" y="18" width="1" height="1" fill="#839eba"/>
<rect x="25" y="18" width="1" height="1" fill="#86a0bb"/>
<rect x="26" y="18" width="1" height="1" fill="#89a3bd"/>
<rect x="27" y="18" width="1" height="1" fill="#93abc4"/>
<rect x="28" y="18" width="1" height="1" fill="#96aec7"/>
<rect x="29" y="18" width="1" height="1" fill="#6485a7"/>
<rect x="1" y="19" width="1" height="1" fill="#5d7997"/>
<rect x="2" y="19" width="1" height="1" fill="#95aec8"/>
<rect x="3" y="19" width="1" height="1" fill="#3b638b"/>
<rect x="4" y="19" width="1" height="1" fill="#345d86"/>
<rect x="5" y="19" width="1" height="1" fill="#376087"/>
<rect x="6" y="19" width="1" height="1" fill="#3b6289"/>
<rect x="7" y="19" width="1" height="1" fill="#5f81a2"/>
<rect x="8" y="19" width="1" height="1" fill="#6787a8"/>
<rect x="9" y="19" width="1" height="1" fill="#43698e"/>
<rect x="10" y="19" width="1" height="1" fill="#466c91"/>
<rect x="11" y="19" width="1" height="1" fill="#4b6f94"/>
<rect x="12" y="19" width="1" height="1" fill="#597b9d"/>
<rect x="13" y="19" width="1" height="1" fill="#7f9cb8"/>
<rect x="14" y="19" width="1" height="1" fill="#547799"/>
<rect x="15" y="19" width="1" height="1" fill="#56789a"/>
<rect x="16" y="19" width="1" height="1" fill="#597b9d"/>
<rect x="17" y="19" width="1" height="1" fill="#5e7f9f"/>
<rect x="18" y="19" width="1" height="1" fill="#8da7c2"/>
<rect x="19" y="19" width="1" height="1" fill="#6182a2"/>
<rect x="20" y="19" width="1" height="1" fill="#6584a3"/>
<rect x="21" y="19" width="1" height="1" fill="#6988a6"/>
<rect x="22" y="19" width="1" height="1" fill="#6d8ba8"/>
<rect x="23" y="19" width="1" height="1" fill="#90aac4"/>
<rect x="24" y="19" width="1" height="1" fill="#708eab"/>
<rect x="25" y="19" width="1" height="1" fill="#7491ad"/>
<rect x="26" y="19" width="1" height="1" fill="#7894b0"/>
<rect x="27" y="19" width="1" height="1" fill="#7c97b2"/>
<rect x="28" y="19" width="1" height="1" fill="#94acc5"/>
<rect x="29" y="19" width="1" height="1" fill="#6283a5"/>
<rect x="1" y="20" width="1" height="1" fill="#5b7896"/>
<rect x="2" y="20" width="1" height="1" fill="#95aec8"/>
<rect x="3" y="20" width="1" height="1" fill="#375f88"/>
<rect x="4" y="20" width="1" height="1" fill="#335c85"/>
<rect x="5" y="20" width="1" height="1" fill="#345d86"/>
<rect x="6" y="20" width="1" height="1" fill="#375f87"/>
<rect x="7" y="20" width="1" height="1" fill="#5c7ea0"/>
<rect x="8" y="20" width="1" height="1" fill="#6485a7"/>
<rect x="9" y="20" width="2" height="1" fill="#42688e"/>
<rect x="11" y="20" width="1" height="1" fill="#466c91"/>
<rect x="12" y="20" width="1" height="1" fill="#55789b"/>
<rect x="13" y="20" width="1" height="1" fill="#7d9ab7"/>
<rect x="14" y="20" width="1" height="1" fill="#527597"/>
<rect x="15" y="20" width="1" height="1" fill="#547799"/>
<rect x="16" y="20" width="1" height="1" fill="#55789a"/>
<rect x="17" y="20" width="1" height="1" fill="#597b9c"/>
<rect x="18" y="20" width="1" height="1" fill="#8ca6c1"/>
<rect x="19" y="20" width="2" height="1" fill="#6182a2"/>
<rect x="21" y="20" width="1" height="1" fill="#6484a3"/>
<rect x="22" y="20" width="1" height="1" fill="#6887a5"/>
<rect x="23" y="20" width="1" height="1" fill="#8fa9c3"/>
<rect x="24" y="20" width="1" height="1" fill="#6f8daa"/>
<rect x="25" y="20" width="1" height="1" fill="#708daa"/>
<rect x="26" y="20" width="1" height="1" fill="#7390ad"/>
<rect x="27" y="20" width="1" height="1" fill="#7894b0"/>
<rect x="28" y="20" width="1" height="1" fill="#8ca6c0"/>
<rect x="29" y="20" width="1" height="1" fill="#6182a5"/>
<rect x="1" y="21" width="1" height="1" fill="#5a7895"/>
<rect x="2" y="21" width="1" height="1" fill="#95aec8"/>
<rect x="3" y="21" width="1" height="1" fill="#7e9bb8"/>
<rect x="4" y="21" width="1" height="1" fill="#809cba"/>
<rect x="5" y="21" width="1" height="1" fill="#819dba"/>
<rect x="6" y="21" width="1" height="1" fill="#819ebb"/>
<rect x="7" y="21" width="1" height="1" fill="#8aa5c1"/>
<rect x="8" y="21" width="1" height="1" fill="#8da7c2"/>
<rect x="9" y="21" width="1" height="1" fill="#84a0bc"/>
<rect x="10" y="21" width="2" height="1" fill="#85a0bd"/>
<rect x="12" y="21" width="1" height="1" fill="#88a4bf"/>
<rect x="13" y="21" width="1" height="1" fill="#93adc7"/>
<rect x="14" y="21" width="1" height="1" fill="#87a3be"/>
<rect x="15" y="21" width="1" height="1" fill="#88a4bf"/>
<rect x="16" y="21" width="2" height="1" fill="#89a4bf"/>
<rect x="18" y="21" width="1" height="1" fill="#97b0c9"/>
<rect x="19" y="21" width="1" height="1" fill="#8ba6c1"/>
<rect x="20" y="21" width="1" height="1" fill="#8ca7c1"/>
<rect x="21" y="21" width="1" height="1" fill="#8ca7c2"/>
<rect x="22" y="21" width="1" height="1" fill="#8da7c2"/>
<rect x="23" y="21" width="1" height="1" fill="#98b0ca"/>
<rect x="24" y="21" width="1" height="1" fill="#8fa9c3"/>
<rect x="25" y="21" width="2" height="1" fill="#90aac4"/>
<rect x="27" y="21" width="2" height="1" fill="#91aac4"/>
<rect x="29" y="21" width="1" height="1" fill="#6082a4"/>
<rect x="1" y="22" width="1" height="1" fill="#597795"/>
<rect x="2" y="22" width="1" height="1" fill="#95aec8"/>
<rect x="3" y="22" width="1" height="1" fill="#2f5983"/>
<rect x="4" y="22" width="1" height="1" fill="#2a557f"/>
<rect x="5" y="22" width="1" height="1" fill="#2e5882"/>
<rect x="6" y="22" width="1" height="1" fill="#325b84"/>
<rect x="7" y="22" width="1" height="1" fill="#577b9e"/>
<rect x="8" y="22" width="1" height="1" fill="#5f81a3"/>
<rect x="9" y="22" width="1" height="1" fill="#3a6188"/>
<rect x="10" y="22" width="1" height="1" fill="#3d648b"/>
<rect x="11" y="22" width="1" height="1" fill="#42688e"/>
<rect x="12" y="22" width="1" height="1" fill="#4e7397"/>
<rect x="13" y="22" width="1" height="1" fill="#7a97b5"/>
<rect x="14" y="22" width="1" height="1" fill="#496d92"/>
<rect x="15" y="22" width="1" height="1" fill="#4d7195"/>
<rect x="16" y="22" width="1" height="1" fill="#507497"/>
<rect x="17" y="22" width="1" height="1" fill="#547799"/>
<rect x="18" y="22" width="1" height="1" fill="#89a4c0"/>
<rect x="19" y="22" width="1" height="1" fill="#587a9c"/>
<rect x="20" y="22" width="1" height="1" fill="#5c7d9e"/>
<rect x="21" y="22" width="1" height="1" fill="#6081a1"/>
<rect x="22" y="22" width="1" height="1" fill="#6182a2"/>
<rect x="23" y="22" width="1" height="1" fill="#8da7c2"/>
<rect x="24" y="22" width="1" height="1" fill="#6786a5"/>
<rect x="25" y="22" width="1" height="1" fill="#6b8aa7"/>
<rect x="26" y="22" width="1" height="1" fill="#728fac"/>
<rect x="27" y="22" width="1" height="1" fill="#89a4be"/>
<rect x="28" y="22" width="1" height="1" fill="#9bb3cc"/>
<rect x="29" y="22" width="1" height="1" fill="#5e80a3"/>
<rect x="1" y="23" width="1" height="1" fill="#587594"/>
<rect x="2" y="23" width="1" height="1" fill="#94aec8"/>
<rect x="3" y="23" width="1" height="1" fill="#2f5983"/>
<rect x="4" y="23" width="1" height="1" fill="#27527d"/>
<rect x="5" y="23" width="1" height="1" fill="#2a557f"/>
<rect x="6" y="23" width="1" height="1" fill="#2e5781"/>
<rect x="7" y="23" width="1" height="1" fill="#56799d"/>
<rect x="8" y="23" width="1" height="1" fill="#5e80a3"/>
<rect x="9" y="23" width="1" height="1" fill="#355e86"/>
<rect x="10" y="23" width="1" height="1" fill="#396188"/>
<rect x="11" y="23" width="1" height="1" fill="#3d648b"/>
<rect x="12" y="23" width="1" height="1" fill="#4e7296"/>
<rect x="13" y="23" width="1" height="1" fill="#7996b4"/>
<rect x="14" y="23" width="1" height="1" fill="#446a8f"/>
<rect x="15" y="23" width="1" height="1" fill="#486d92"/>
<rect x="16" y="23" width="1" height="1" fill="#4c7094"/>
<rect x="17" y="23" width="1" height="1" fill="#507496"/>
<rect x="18" y="23" width="1" height="1" fill="#89a4c0"/>
<rect x="19" y="23" width="1" height="1" fill="#547799"/>
<rect x="20" y="23" width="1" height="1" fill="#57799b"/>
<rect x="21" y="23" width="1" height="1" fill="#5b7d9e"/>
<rect x="22" y="23" width="1" height="1" fill="#5f80a0"/>
<rect x="23" y="23" width="1" height="1" fill="#8da7c2"/>
<rect x="24" y="23" width="1" height="1" fill="#6283a2"/>
<rect x="25" y="23" width="1" height="1" fill="#7996b2"/>
<rect x="26" y="23" width="1" height="1" fill="#96afc9"/>
<rect x="27" y="23" width="2" height="1" fill="#9bb3cc"/>
<rect x="29" y="23" width="1" height="1" fill="#5d7fa2"/>
<rect x="1" y="24" width="1" height="1" fill="#577593"/>
<rect x="2" y="24" width="1" height="1" fill="#94aec8"/>
<rect x="3" y="24" width="1" height="1" fill="#567a9d"/>
<rect x="4" y="24" width="1" height="1" fill="#54779b"/>
<rect x="5" y="24" width="1" height="1" fill="#54789c"/>
<rect x="6" y="24" width="1" height="1" fill="#56799d"/>
<rect x="7" y="24" width="1" height="1" fill="#6788aa"/>
<rect x="8" y="24" width="1" height="1" fill="#6c8cac"/>
<rect x="9" y="24" width="2" height="1" fill="#5c7fa2"/>
<rect x="11" y="24" width="1" height="1" fill="#5f81a3"/>
<rect x="12" y="24" width="1" height="1" fill="#6687a8"/>
<rect x="13" y="24" width="1" height="1" fill="#7b98b6"/>
<rect x="14" y="24" width="1" height="1" fill="#6585a6"/>
<rect x="15" y="24" width="1" height="1" fill="#6687a7"/>
<rect x="16" y="24" width="1" height="1" fill="#6888a9"/>
<rect x="17" y="24" width="1" height="1" fill="#6b8aaa"/>
<rect x="18" y="24" width="1" height="1" fill="#84a0bc"/>
<rect x="19" y="24" width="2" height="1" fill="#708fad"/>
<rect x="21" y="24" width="1" height="1" fill="#7290ae"/>
<rect x="22" y="24" width="1" height="1" fill="#7492b0"/>
<rect x="23" y="24" width="1" height="1" fill="#89a4bf"/>
<rect x="24" y="24" width="1" height="1" fill="#8ca7c2"/>
<rect x="25" y="24" width="4" height="1" fill="#9bb3cc"/>
<rect x="29" y="24" width="1" height="1" fill="#5b7ea1"/>
<rect x="1" y="25" width="1" height="1" fill="#567492"/>
<rect x="2" y="25" width="1" height="1" fill="#7c99b7"/>
<rect x="3" y="25" width="26" height="1" fill="#86a2be"/>
<rect x="29" y="25" width="1" height="1" fill="#4d7297"/>
<rect x="1" y="26" width="1" height="1" fill="#547392"/>
<rect x="2" y="26" width="27" height="1" fill="#2a547f"/>
<rect x="29" y="26" width="1" height="1" fill="#2b557f"/>
<rect x="1" y="27" width="1" height="1" fill="#537291"/>
<rect x="2" y="27" width="27" height="1" fill="#27527d"/>
<rect x="29" y="27" width="1" height="1" fill="#28537e"/>
<rect x="1" y="28" width="1" height="1" fill="#547290"/>
<rect x="2" y="28" width="27" height="1" fill="#24507b"/>
<rect x="29" y="28" width="1" height="1" fill="#26517c"/>
<rect x="2" y="29" width="27" height="1" fill="#778ba0"/>
<rect x="29" y="29" width="1" height="1" fill="#8696a6"/>
</svg>