<svg xmlns="http://www.w3.org/2000/svg" width="32" height="32" viewBox="0 0 32 32" shape-rendering="crispEdges">
<rect x="13" y="3" width="1" height="1" fill="#a3aeb9"/>
<rect x="14" y="3" width="1" height="1" fill="#6a89a9"/>
<rect x="15" y="3" width="1" height="1" fill="#6a8aa9"/>
<rect x="16" y="3" width="1" height="1" fill="#6e8cab"/>
<rect x="9" y="4" width="1" height="1" fill="#859ab0"/>
<rect x="10" y="4" width="1" height="1" fill="#6b89a7"/>
<rect x="13" y="4" width="1" height="1" fill="#839ab1"/>
<rect x="14" y="4" width="1" height="1" fill="#6383a3"/>
<rect x="15" y="4" width="1" height="1" fill="#6685a4"/>
<rect x="16" y="4" width="1" height="1" fill="#6887a6"/>
<rect x="17" y="4" width="1" height="1" fill="#91a3b6"/>
<rect x="20" y="4" width="1" height="1" fill="#7c97b2"/>
<rect x="21" y="4" width="1" height="1" fill="#9babbb"/>
<rect x="8" y="5" width="1" height="1" fill="#5d7fa0"/>
<rect x="9" y="5" width="1" height="1" fill="#587a9c"/>
<rect x="10" y="5" width="1" height="1" fill="#597a9c"/>
<rect x="11" y="5" width="1" height="1" fill="#6d8aa8"/>
<rect x="13" y="5" width="1" height="1" fill="#6a88a8"/>
<rect x="14" y="5" width="1" height="1" fill="#6383a3"/>
<rect x="15" y="5" width="1" height="1" fill="#6585a4"/>
<rect x="16" y="5" width="1" height="1" fill="#6887a6"/>
<rect x="17" y="5" width="1" height="1" fill="#7893af"/>
<rect x="19" y="5" width="1" height="1" fill="#7592af"/>
<rect x="20" y="5" width="1" height="1" fill="#7390ad"/>
<rect x="21" y="5" width="1" height="1" fill="#a1b5c9"/>
<rect x="7" y="6" width="1" height="1" fill="#a2adb8"/>
<rect x="8" y="6" width="1" height="1" fill="#547799"/>
<rect x="9" y="6" width="1" height="1" fill="#55789a"/>
<rect x="10" y="6" width="1" height="1" fill="#587a9c"/>
<rect x="11" y="6" width="1" height="1" fill="#5a7b9d"/>
<rect x="12" y="6" width="1" height="1" fill="#5c7d9e"/>
<rect x="13" y="6" width="1" height="1" fill="#5f80a0"/>
<rect x="14" y="6" width="1" height="1" fill="#6282a2"/>
<rect x="15" y="6" width="1" height="1" fill="#6585a4"/>
<rect x="16" y="6" width="1" height="1" fill="#6887a6"/>
<rect x="17" y="6" width="1" height="1" fill="#6c8aa8"/>
<rect x="18" y="6" width="1" height="1" fill="#6e8caa"/>
<rect x="19" y="6" width="1" height="1" fill="#728fac"/>
<rect x="20" y="6" width="1" height="1" fill="#7894b0"/>
<rect x="21" y="6" width="1" height="1" fill="#bfcedc"/>
<rect x="22" y="6" width="1" height="1" fill="#7592ae"/>
<rect x="8" y="7" width="1" height="1" fill="#577a9d"/>
<rect x="9" y="7" width="1" height="1" fill="#547799"/>
<rect x="10" y="7" width="1" height="1" fill="#56799b"/>
<rect x="11" y="7" width="1" height="1" fill="#597a9c"/>
<rect x="12" y="7" width="1" height="1" fill="#5b7c9d"/>
<rect x="13" y="7" width="1" height="1" fill="#5e7fa0"/>
<rect x="14" y="7" width="1" height="1" fill="#6484a4"/>
<rect x="15" y="7" width="1" height="1" fill="#6988a7"/>
<rect x="16" y="7" width="1" height="1" fill="#6989a8"/>
<rect x="17" y="7" width="1" height="1" fill="#6c8aa8"/>
<rect x="18" y="7" width="1" height="1" fill="#6f8daa"/>
<rect x="19" y="7" width="1" height="1" fill="#7390ad"/>
<rect x="20" y="7" width="1" height="1" fill="#a5b9cc"/>
<rect x="21" y="7" width="1" height="1" fill="#8aa3bb"/>
<rect x="22" y="7" width="1" height="1" fill="#809ab4"/>
<rect x="5" y="8" width="1" height="1" fill="#5f7fa0"/>
<rect x="6" y="8" width="1" height="1" fill="#8197ad"/>
<rect x="8" y="8" width="1" height="1" fill="#56799c"/>
<rect x="9" y="8" width="1" height="1" fill="#537699"/>
<rect x="10" y="8" width="1" height="1" fill="#547799"/>
<rect x="11" y="8" width="1" height="1" fill="#5b7d9f"/>
<rect x="12" y="8" width="1" height="1" fill="#8298af"/>
<rect x="18" y="8" width="1" height="1" fill="#8da2b7"/>
<rect x="19" y="8" width="1" height="1" fill="#7f9ab5"/>
<rect x="20" y="8" width="1" height="1" fill="#a8bcce"/>
<rect x="21" y="8" width="1" height="1" fill="#7390ad"/>
<rect x="22" y="8" width="1" height="1" fill="#7693af"/>
<rect x="24" y="8" width="1" height="1" fill="#8fa3b7"/>
<rect x="25" y="8" width="1" height="1" fill="#7a95b0"/>
<rect x="4" y="9" width="1" height="1" fill="#5b7d9e"/>
<rect x="5" y="9" width="1" height="1" fill="#4c7094"/>
<rect x="6" y="9" width="1" height="1" fill="#4d7094"/>
<rect x="7" y="9" width="1" height="1" fill="#4f7296"/>
<rect x="8" y="9" width="1" height="1" fill="#507396"/>
<rect x="9" y="9" width="1" height="1" fill="#527598"/>
<rect x="10" y="9" width="1" height="1" fill="#728da9"/>
<rect x="20" y="9" width="1" height="1" fill="#849db5"/>
<rect x="21" y="9" width="1" height="1" fill="#718eab"/>
<rect x="22" y="9" width="1" height="1" fill="#708eab"/>
<rect x="23" y="9" width="1" height="1" fill="#6e8caa"/>
<rect x="24" y="9" width="1" height="1" fill="#6c8aa8"/>
<rect x="25" y="9" width="1" height="1" fill="#6b89a7"/>
<rect x="26" y="9" width="1" height="1" fill="#7f98b1"/>
<rect x="3" y="10" width="1" height="1" fill="#99a7b4"/>
<rect x="4" y="10" width="1" height="1" fill="#496e93"/>
<rect x="5" y="10" width="1" height="1" fill="#4a6f93"/>
<rect x="6" y="10" width="1" height="1" fill="#4b6f93"/>
<rect x="7" y="10" width="1" height="1" fill="#4c7094"/>
<rect x="8" y="10" width="1" height="1" fill="#4e7195"/>
<rect x="9" y="10" width="1" height="1" fill="#7b93ab"/>
<rect x="21" y="10" width="1" height="1" fill="#879eb5"/>
<rect x="22" y="10" width="1" height="1" fill="#6e8caa"/>
<rect x="23" y="10" width="1" height="1" fill="#6c8aa8"/>
<rect x="24" y="10" width="1" height="1" fill="#6a88a7"/>
<rect x="25" y="10" width="1" height="1" fill="#6987a6"/>
<rect x="26" y="10" width="1" height="1" fill="#6786a6"/>
<rect x="4" y="11" width="1" height="1" fill="#517599"/>
<rect x="5" y="11" width="2" height="1" fill="#486d92"/>
<rect x="7" y="11" width="1" height="1" fill="#496e92"/>
<rect x="8" y="11" width="1" height="1" fill="#6080a0"/>
<rect x="22" y="11" width="1" height="1" fill="#7491ae"/>
<rect x="23" y="11" width="1" height="1" fill="#6987a6"/>
<rect x="24" y="11" width="1" height="1" fill="#6786a5"/>
<rect x="25" y="11" width="1" height="1" fill="#6685a4"/>
<rect x="26" y="11" width="1" height="1" fill="#6c8ba9"/>
<rect x="5" y="12" width="1" height="1" fill="#5c7d9e"/>
<rect x="6" y="12" width="1" height="1" fill="#466b90"/>
<rect x="7" y="12" width="1" height="1" fill="#486d92"/>
<rect x="12" y="12" width="1" height="1" fill="#6784a0"/>
<rect x="13" y="12" width="1" height="1" fill="#9da9b5"/>
<rect x="23" y="12" width="1" height="1" fill="#6685a4"/>
<rect x="24" y="12" width="1" height="1" fill="#6484a3"/>
<rect x="25" y="12" width="1" height="1" fill="#6c8aa9"/>
<rect x="6" y="13" width="1" height="1" fill="#92a2b2"/>
<rect x="7" y="13" width="1" height="1" fill="#6d88a4"/>
<rect x="12" y="13" width="1" height="1" fill="#476d91"/>
<rect x="13" y="13" width="1" height="1" fill="#517599"/>
<rect x="23" y="13" width="1" height="1" fill="#6a8aa8"/>
<rect x="24" y="13" width="1" height="1" fill="#6181a1"/>
<rect x="25" y="13" width="1" height="1" fill="#6c8aa9"/>
<rect x="6" y="14" width="1" height="1" fill="#a1abb4"/>
<rect x="7" y="14" width="1" height="1" fill="#8b9cad"/>
<rect x="8" y="14" width="1" height="1" fill="#7a91a7"/>
<rect x="9" y="14" width="1" height="1" fill="#758ea6"/>
<rect x="10" y="14" width="1" height="1" fill="#7a92a9"/>
<rect x="11" y="14" width="1" height="1" fill="#879eb4"/>
<rect x="12" y="14" width="1" height="1" fill="#38628a"/>
<rect x="13" y="14" width="1" height="1" fill="#416990"/>
<rect x="14" y="14" width="1" height="1" fill="#6a87a4"/>
<rect x="23" y="14" width="1" height="1" fill="#7c95ae"/>
<rect x="24" y="14" width="2" height="1" fill="#5d7e9f"/>
<rect x="26" y="14" width="1" height="1" fill="#5e7fa0"/>
<rect x="27" y="14" width="1" height="1" fill="#6585a5"/>
<rect x="28" y="14" width="1" height="1" fill="#a3aeb9"/>
<rect x="4" y="15" width="1" height="1" fill="#8a9aaa"/>
<rect x="5" y="15" width="1" height="1" fill="#4f7193"/>
<rect x="6" y="15" width="1" height="1" fill="#3d658d"/>
<rect x="7" y="15" width="1" height="1" fill="#416990"/>
<rect x="8" y="15" width="1" height="1" fill="#446c93"/>
<rect x="9" y="15" width="1" height="1" fill="#486f95"/>
<rect x="10" y="15" width="1" height="1" fill="#4c7398"/>
<rect x="11" y="15" width="1" height="1" fill="#4d749a"/>
<rect x="12" y="15" width="1" height="1" fill="#38628a"/>
<rect x="13" y="15" width="1" height="1" fill="#3b648c"/>
<rect x="14" y="15" width="1" height="1" fill="#466e95"/>
<rect x="15" y="15" width="1" height="1" fill="#93a4b3"/>
<rect x="23" y="15" width="1" height="1" fill="#899db1"/>
<rect x="24" y="15" width="4" height="1" fill="#5a7b9d"/>
<rect x="28" y="15" width="1" height="1" fill="#8c9eb2"/>
<rect x="3" y="16" width="1" height="1" fill="#738aa0"/>
<rect x="4" y="16" width="1" height="1" fill="#345e87"/>
<rect x="5" y="16" width="1" height="1" fill="#376189"/>
<rect x="6" y="16" width="1" height="1" fill="#3b648c"/>
<rect x="7" y="16" width="1" height="1" fill="#3f678f"/>
<rect x="8" y="16" width="1" height="1" fill="#436b92"/>
<rect x="9" y="16" width="1" height="1" fill="#466e94"/>
<rect x="10" y="16" width="1" height="1" fill="#4a7197"/>
<rect x="11" y="16" width="1" height="1" fill="#3b648c"/>
<rect x="12" y="16" width="1" height="1" fill="#335e87"/>
<rect x="13" y="16" width="1" height="1" fill="#38628a"/>
<rect x="14" y="16" width="1" height="1" fill="#3f688f"/>
<rect x="15" y="16" width="1" height="1" fill="#4d7499"/>
<rect x="23" y="16" width="1" height="1" fill="#889db1"/>
<rect x="24" y="16" width="2" height="1" fill="#57799b"/>
<rect x="26" y="16" width="2" height="1" fill="#587a9c"/>
<rect x="28" y="16" width="1" height="1" fill="#8a9db2"/>
<rect x="2" y="17" width="1" height="1" fill="#8899a9"/>
<rect x="3" y="17" width="1" height="1" fill="#315b85"/>
<rect x="4" y="17" width="1" height="1" fill="#345e87"/>
<rect x="5" y="17" width="1" height="1" fill="#355f87"/>
<rect x="6" y="17" width="1" height="1" fill="#39628a"/>
<rect x="7" y="17" width="1" height="1" fill="#3d658d"/>
<rect x="8" y="17" width="1" height="1" fill="#416990"/>
<rect x="9" y="17" width="1" height="1" fill="#446c93"/>
<rect x="10" y="17" width="1" height="1" fill="#486f95"/>
<rect x="11" y="17" width="1" height="1" fill="#335c85"/>
<rect x="12" y="17" width="1" height="1" fill="#2d5882"/>
<rect x="13" y="17" width="2" height="1" fill="#38628a"/>
<rect x="15" y="17" width="1" height="1" fill="#4e7397"/>
<rect x="16" y="17" width="1" height="1" fill="#9eaab5"/>
<rect x="23" y="17" width="1" height="1" fill="#7790aa"/>
<rect x="24" y="17" width="1" height="1" fill="#537699"/>
<rect x="25" y="17" width="2" height="1" fill="#547799"/>
<rect x="27" y="17" width="1" height="1" fill="#597c9e"/>
<rect x="28" y="17" width="1" height="1" fill="#9aa8b6"/>
<rect x="2" y="18" width="1" height="1" fill="#4b6d8e"/>
<rect x="3" y="18" width="1" height="1" fill="#305a84"/>
<rect x="4" y="18" width="1" height="1" fill="#335d86"/>
<rect x="5" y="18" width="1" height="1" fill="#366088"/>
<rect x="6" y="18" width="1" height="1" fill="#5e7c99"/>
<rect x="7" y="18" width="1" height="1" fill="#8698a9"/>
<rect x="8" y="18" width="1" height="1" fill="#9fa9b4"/>
<rect x="9" y="18" width="1" height="1" fill="#a1abb5"/>
<rect x="10" y="18" width="1" height="1" fill="#a2acb6"/>
<rect x="11" y="18" width="1" height="1" fill="#325a81"/>
<rect x="12" y="18" width="1" height="1" fill="#26517d"/>
<rect x="13" y="18" width="1" height="1" fill="#315b85"/>
<rect x="14" y="18" width="1" height="1" fill="#69849e"/>
<rect x="23" y="18" width="1" height="1" fill="#5d7e9f"/>
<rect x="24" y="18" width="1" height="1" fill="#507396"/>
<rect x="25" y="18" width="1" height="1" fill="#5c7d9f"/>
<rect x="2" y="19" width="1" height="1" fill="#29547f"/>
<rect x="3" y="19" width="1" height="1" fill="#2d5882"/>
<rect x="4" y="19" width="1" height="1" fill="#43688d"/>
<rect x="5" y="19" width="1" height="1" fill="#a2abb4"/>
<rect x="11" y="19" width="1" height="1" fill="#224e7a"/>
<rect x="12" y="19" width="1" height="1" fill="#365d83"/>
<rect x="13" y="19" width="1" height="1" fill="#96a2ae"/>
<rect x="23" y="19" width="1" height="1" fill="#4b6f94"/>
<rect x="24" y="19" width="1" height="1" fill="#4d7094"/>
<rect x="25" y="19" width="1" height="1" fill="#5d7e9f"/>
<rect x="2" y="20" width="1" height="1" fill="#27527d"/>
<rect x="3" y="20" width="1" height="1" fill="#2f5982"/>
<rect x="10" y="20" width="1" height="1" fill="#96a2ae"/>
<rect x="11" y="20" width="1" height="1" fill="#6a829a"/>
<rect x="22" y="20" width="1" height="1" fill="#5b7c9d"/>
<rect x="23" y="20" width="1" height="1" fill="#486d92"/>
<rect x="24" y="20" width="1" height="1" fill="#4a6f93"/>
<rect x="25" y="20" width="1" height="1" fill="#4b6f93"/>
<rect x="26" y="20" width="1" height="1" fill="#5d7d9f"/>
<rect x="2" y="21" width="1" height="1" fill="#25517c"/>
<rect x="3" y="21" width="1" height="1" fill="#657f99"/>
<rect x="21" y="21" width="1" height="1" fill="#7890a8"/>
<rect x="22" y="21" width="2" height="1" fill="#466b90"/>
<rect x="24" y="21" width="1" height="1" fill="#486d92"/>
<rect x="25" y="21" width="1" height="1" fill="#496e92"/>
<rect x="26" y="21" width="1" height="1" fill="#4b6f93"/>
<rect x="27" y="21" width="1" height="1" fill="#a1acb7"/>
<rect x="2" y="22" width="1" height="1" fill="#305881"/>
<rect x="3" y="22" width="1" height="1" fill="#8c9ba9"/>
<rect x="9" y="22" width="1" height="1" fill="#5c7b9a"/>
<rect x="10" y="22" width="1" height="1" fill="#6e88a2"/>
<rect x="20" y="22" width="1" height="1" fill="#6b88a3"/>
<rect x="21" y="22" width="1" height="1" fill="#41678d"/>
<rect x="22" y="22" width="1" height="1" fill="#44698f"/>
<rect x="23" y="22" width="2" height="1" fill="#466b90"/>
<rect x="25" y="22" width="1" height="1" fill="#486d92"/>
<rect x="26" y="22" width="1" height="1" fill="#5e7f9f"/>
<rect x="2" y="23" width="1" height="1" fill="#5d7994"/>
<rect x="3" y="23" width="1" height="1" fill="#99a4af"/>
<rect x="8" y="23" width="1" height="1" fill="#8a9bad"/>
<rect x="9" y="23" width="1" height="1" fill="#27527e"/>
<rect x="10" y="23" width="1" height="1" fill="#25507b"/>
<rect x="11" y="23" width="1" height="1" fill="#355e87"/>
<rect x="12" y="23" width="1" height="1" fill="#8397a9"/>
<rect x="18" y="23" width="1" height="1" fill="#8095aa"/>
<rect x="19" y="23" width="1" height="1" fill="#436a90"/>
<rect x="20" y="23" width="1" height="1" fill="#3d648b"/>
<rect x="21" y="23" width="1" height="1" fill="#3f658c"/>
<rect x="22" y="23" width="1" height="1" fill="#486e93"/>
<rect x="23" y="23" width="1" height="1" fill="#94a3b2"/>
<rect x="24" y="23" width="1" height="1" fill="#6785a3"/>
<rect x="25" y="23" width="1" height="1" fill="#4e7397"/>
<rect x="2" y="24" width="1" height="1" fill="#8d9baa"/>
<rect x="3" y="24" width="1" height="1" fill="#919eab"/>
<rect x="8" y="24" width="1" height="1" fill="#386089"/>
<rect x="9" y="24" width="1" height="1" fill="#26517c"/>
<rect x="10" y="24" width="1" height="1" fill="#244f7b"/>
<rect x="11" y="24" width="1" height="1" fill="#224e7a"/>
<rect x="12" y="24" width="1" height="1" fill="#244f7b"/>
<rect x="13" y="24" width="1" height="1" fill="#28547f"/>
<rect x="14" y="24" width="1" height="1" fill="#365f88"/>
<rect x="15" y="24" width="1" height="1" fill="#3d658c"/>
<rect x="16" y="24" width="1" height="1" fill="#3a638b"/>
<rect x="17" y="24" width="1" height="1" fill="#335d86"/>
<rect x="18" y="24" width="1" height="1" fill="#365e86"/>
<rect x="19" y="24" width="1" height="1" fill="#386088"/>
<rect x="20" y="24" width="1" height="1" fill="#3b638a"/>
<rect x="21" y="24" width="1" height="1" fill="#3e648b"/>
<rect x="22" y="24" width="1" height="1" fill="#57799a"/>
<rect x="3" y="25" width="1" height="1" fill="#a3abb3"/>
<rect x="8" y="25" width="1" height="1" fill="#26527d"/>
<rect x="9" y="25" width="1" height="1" fill="#244f7b"/>
<rect x="10" y="25" width="2" height="1" fill="#224e7a"/>
<rect x="12" y="25" width="1" height="1" fill="#25507b"/>
<rect x="13" y="25" width="1" height="1" fill="#27527d"/>
<rect x="14" y="25" width="1" height="1" fill="#2a547e"/>
<rect x="15" y="25" width="1" height="1" fill="#2d5781"/>
<rect x="16" y="25" width="1" height="1" fill="#2f5982"/>
<rect x="17" y="25" width="1" height="1" fill="#325b84"/>
<rect x="18" y="25" width="1" height="1" fill="#355d85"/>
<rect x="19" y="25" width="1" height="1" fill="#386088"/>
<rect x="20" y="25" width="1" height="1" fill="#3a6289"/>
<rect x="21" y="25" width="1" height="1" fill="#3d648b"/>
<rect x="22" y="25" width="1" height="1" fill="#40678e"/>
<rect x="7" y="26" width="1" height="1" fill="#9da8b3"/>
<rect x="8" y="26" width="1" height="1" fill="#295480"/>
<rect x="9" y="26" width="1" height="1" fill="#234e7a"/>
<rect x="10" y="26" width="1" height="1" fill="#224e7a"/>
<rect x="11" y="26" width="1" height="1" fill="#345d87"/>
<rect x="12" y="26" width="1" height="1" fill="#98a4b2"/>
<rect x="13" y="26" width="1" height="1" fill="#325c86"/>
<rect x="14" y="26" width="1" height="1" fill="#2b557f"/>
<rect x="15" y="26" width="1" height="1" fill="#2d5781"/>
<rect x="16" y="26" width="1" height="1" fill="#2f5982"/>
<rect x="17" y="26" width="1" height="1" fill="#4b6f94"/>
<rect x="18" y="26" width="1" height="1" fill="#9ba7b3"/>
<rect x="19" y="26" width="1" height="1" fill="#3f678e"/>
<rect x="20" y="26" width="1" height="1" fill="#396188"/>
<rect x="21" y="26" width="1" height="1" fill="#3c638a"/>
<rect x="22" y="26" width="1" height="1" fill="#436990"/>
<rect x="9" y="27" width="1" height="1" fill="#4d7093"/>
<rect x="10" y="27" width="1" height="1" fill="#2f5a85"/>
<rect x="13" y="27" width="1" height="1" fill="#547697"/>
<rect x="14" y="27" width="1" height="1" fill="#2b5680"/>
<rect x="15" y="27" width="1" height="1" fill="#2d5881"/>
<rect x="16" y="27" width="1" height="1" fill="#2f5982"/>
<rect x="17" y="27" width="1" height="1" fill="#8196aa"/>
<rect x="20" y="27" width="1" height="1" fill="#426990"/>
<rect x="21" y="27" width="1" height="1" fill="#6684a1"/>
<rect x="13" y="28" width="1" height="1" fill="#8195a9"/>
<rect x="14" y="28" width="1" height="1" fill="#2e5883"/>
<rect x="15" y="28" width="1" height="1" fill="#2e5982"/>
<rect x="16" y="28" width="1" height="1" fill="#315b85"/>
</svg>