<svg xmlns="http://www.w3.org/2000/svg" width="32" height="32" viewBox="0 0 32 32" shape-rendering="crispEdges">
<rect x="11" y="1" width="1" height="1" fill="#a2abb3"/>
<rect x="12" y="1" width="1" height="1" fill="#798da1"/>
<rect x="13" y="1" width="1" height="1" fill="#587693"/>
<rect x="14" y="1" width="1" height="1" fill="#44688a"/>
<rect x="15" y="1" width="1" height="1" fill="#3e6387"/>
<rect x="16" y="1" width="1" height="1" fill="#416489"/>
<rect x="17" y="1" width="1" height="1" fill="#4b6c8d"/>
<rect x="18" y="1" width="1" height="1" fill="#627d97"/>
<rect x="19" y="1" width="1" height="1" fill="#8898a7"/>
<rect x="9" y="2" width="1" height="1" fill="#7e91a3"/>
<rect x="10" y="2" width="1" height="1" fill="#3b6086"/>
<rect x="11" y="2" width="1" height="1" fill="#2c5681"/>
<rect x="12" y="2" width="1" height="1" fill="#325b84"/>
<rect x="13" y="2" width="1" height="1" fill="#365e86"/>
<rect x="14" y="2" width="1" height="1" fill="#375e86"/>
<rect x="15" y="2" width="3" height="1" fill="#375f87"/>
<rect x="18" y="2" width="1" height="1" fill="#375e86"/>
<rect x="19" y="2" width="1" height="1" fill="#345c85"/>
<rect x="20" y="2" width="1" height="1" fill="#2e5881"/>
<rect x="21" y="2" width="1" height="1" fill="#507090"/>
<rect x="22" y="2" width="1" height="1" fill="#9ca6b0"/>
<rect x="7" y="3" width="1" height="1" fill="#94a0ad"/>
<rect x="8" y="3" width="1" height="1" fill="#375e85"/>
<rect x="9" y="3" width="1" height="1" fill="#2d5781"/>
<rect x="10" y="3" width="1" height="1" fill="#355d85"/>
<rect x="11" y="3" width="1" height="1" fill="#375f87"/>
<rect x="12" y="3" width="1" height="1" fill="#396087"/>
<rect x="13" y="3" width="1" height="1" fill="#3a6188"/>
<rect x="14" y="3" width="1" height="1" fill="#3b6289"/>
<rect x="15" y="3" width="3" height="1" fill="#3b6389"/>
<rect x="18" y="3" width="1" height="1" fill="#3b6289"/>
<rect x="19" y="3" width="1" height="1" fill="#3a6188"/>
<rect x="20" y="3" width="1" height="1" fill="#396087"/>
<rect x="21" y="3" width="1" height="1" fill="#375f87"/>
<rect x="22" y="3" width="1" height="1" fill="#2f5882"/>
<rect x="23" y="3" width="1" height="1" fill="#537391"/>
<rect x="6" y="4" width="1" height="1" fill="#6c849b"/>
<rect x="7" y="4" width="1" height="1" fill="#26527d"/>
<rect x="8" y="4" width="1" height="1" fill="#325b84"/>
<rect x="9" y="4" width="1" height="1" fill="#375f86"/>
<rect x="10" y="4" width="1" height="1" fill="#396188"/>
<rect x="11" y="4" width="1" height="1" fill="#3b6389"/>
<rect x="12" y="4" width="1" height="1" fill="#3c638a"/>
<rect x="13" y="4" width="1" height="1" fill="#3e658b"/>
<rect x="14" y="4" width="1" height="1" fill="#3f658c"/>
<rect x="15" y="4" width="3" height="1" fill="#40668c"/>
<rect x="18" y="4" width="1" height="1" fill="#3f658c"/>
<rect x="19" y="4" width="1" height="1" fill="#3e658b"/>
<rect x="20" y="4" width="1" height="1" fill="#3c638a"/>
<rect x="21" y="4" width="1" height="1" fill="#3b6389"/>
<rect x="22" y="4" width="1" height="1" fill="#396188"/>
<rect x="23" y="4" width="1" height="1" fill="#355d86"/>
<rect x="24" y="4" width="1" height="1" fill="#345c84"/>
<rect x="25" y="4" width="1" height="1" fill="#9aa5af"/>
<rect x="5" y="5" width="1" height="1" fill="#5b7894"/>
<rect x="6" y="5" width="1" height="1" fill="#27527d"/>
<rect x="7" y="5" width="1" height="1" fill="#335c84"/>
<rect x="8" y="5" width="1" height="1" fill="#385f87"/>
<rect x="9" y="5" width="1" height="1" fill="#3a6188"/>
<rect x="10" y="5" width="1" height="1" fill="#3c638a"/>
<rect x="11" y="5" width="1" height="1" fill="#3f658c"/>
<rect x="12" y="5" width="1" height="1" fill="#41678c"/>
<rect x="13" y="5" width="1" height="1" fill="#42688e"/>
<rect x="14" y="5" width="1" height="1" fill="#44698e"/>
<rect x="15" y="5" width="3" height="1" fill="#446a8e"/>
<rect x="18" y="5" width="1" height="1" fill="#44698e"/>
<rect x="19" y="5" width="1" height="1" fill="#42688e"/>
<rect x="20" y="5" width="1" height="1" fill="#41678c"/>
<rect x="21" y="5" width="1" height="1" fill="#3f658c"/>
<rect x="22" y="5" width="1" height="1" fill="#3c638a"/>
<rect x="23" y="5" width="1" height="1" fill="#3a6188"/>
<rect x="24" y="5" width="1" height="1" fill="#375f87"/>
<rect x="25" y="5" width="1" height="1" fill="#305881"/>
<rect x="26" y="5" width="1" height="1" fill="#929fac"/>
<rect x="4" y="6" width="1" height="1" fill="#678099"/>
<rect x="5" y="6" width="1" height="1" fill="#26517c"/>
<rect x="6" y="6" width="1" height="1" fill="#325b83"/>
<rect x="7" y="6" width="1" height="1" fill="#385f87"/>
<rect x="8" y="6" width="1" height="1" fill="#3a6289"/>
<rect x="9" y="6" width="1" height="1" fill="#3d648a"/>
<rect x="10" y="6" width="1" height="1" fill="#40668c"/>
<rect x="11" y="6" width="1" height="1" fill="#43688e"/>
<rect x="12" y="6" width="1" height="1" fill="#456a8f"/>
<rect x="13" y="6" width="1" height="1" fill="#476c90"/>
<rect x="14" y="6" width="1" height="1" fill="#486d91"/>
<rect x="15" y="6" width="3" height="1" fill="#496e92"/>
<rect x="18" y="6" width="1" height="1" fill="#486d91"/>
<rect x="19" y="6" width="1" height="1" fill="#476c90"/>
<rect x="20" y="6" width="1" height="1" fill="#456a8f"/>
<rect x="21" y="6" width="1" height="1" fill="#43688e"/>
<rect x="22" y="6" width="1" height="1" fill="#40668c"/>
<rect x="23" y="6" width="1" height="1" fill="#3d648a"/>
<rect x="24" y="6" width="1" height="1" fill="#3a6289"/>
<rect x="25" y="6" width="1" height="1" fill="#385f87"/>
<rect x="26" y="6" width="1" height="1" fill="#2f5981"/>
<rect x="27" y="6" width="1" height="1" fill="#9da7b1"/>
<rect x="3" y="7" width="1" height="1" fill="#8c9ba9"/>
<rect x="4" y="7" width="1" height="1" fill="#234f7b"/>
<rect x="5" y="7" width="1" height="1" fill="#2e5882"/>
<rect x="6" y="7" width="1" height="1" fill="#375f86"/>
<rect x="7" y="7" width="1" height="1" fill="#3a6288"/>
<rect x="8" y="7" width="1" height="1" fill="#3d648b"/>
<rect x="9" y="7" width="1" height="1" fill="#41678c"/>
<rect x="10" y="7" width="1" height="1" fill="#446a8e"/>
<rect x="11" y="7" width="1" height="1" fill="#476c90"/>
<rect x="12" y="7" width="1" height="1" fill="#496e92"/>
<rect x="13" y="7" width="1" height="1" fill="#4b7093"/>
<rect x="14" y="7" width="1" height="1" fill="#4c7094"/>
<rect x="15" y="7" width="3" height="1" fill="#4d7194"/>
<rect x="18" y="7" width="1" height="1" fill="#4c7094"/>
<rect x="19" y="7" width="1" height="1" fill="#4b7093"/>
<rect x="20" y="7" width="1" height="1" fill="#496e92"/>
<rect x="21" y="7" width="1" height="1" fill="#476c90"/>
<rect x="22" y="7" width="1" height="1" fill="#446a8e"/>
<rect x="23" y="7" width="1" height="1" fill="#41678c"/>
<rect x="24" y="7" width="1" height="1" fill="#3d648b"/>
<rect x="25" y="7" width="1" height="1" fill="#3a6288"/>
<rect x="26" y="7" width="1" height="1" fill="#375e86"/>
<rect x="27" y="7" width="1" height="1" fill="#365d84"/>
<rect x="3" y="8" width="1" height="1" fill="#305880"/>
<rect x="4" y="8" width="1" height="1" fill="#29537e"/>
<rect x="5" y="8" width="1" height="1" fill="#345d85"/>
<rect x="6" y="8" width="1" height="1" fill="#396188"/>
<rect x="7" y="8" width="1" height="1" fill="#446a8f"/>
<rect x="8" y="8" width="1" height="1" fill="#486d91"/>
<rect x="9" y="8" width="1" height="1" fill="#446a8e"/>
<rect x="10" y="8" width="1" height="1" fill="#476c90"/>
<rect x="11" y="8" width="1" height="1" fill="#4a6f93"/>
<rect x="12" y="8" width="1" height="1" fill="#4d7094"/>
<rect x="13" y="8" width="1" height="1" fill="#4f7295"/>
<rect x="14" y="8" width="1" height="1" fill="#517496"/>
<rect x="15" y="8" width="3" height="1" fill="#527497"/>
<rect x="18" y="8" width="1" height="1" fill="#517496"/>
<rect x="19" y="8" width="1" height="1" fill="#4f7295"/>
<rect x="20" y="8" width="1" height="1" fill="#4d7094"/>
<rect x="21" y="8" width="1" height="1" fill="#4a6f93"/>
<rect x="22" y="8" width="1" height="1" fill="#476c90"/>
<rect x="23" y="8" width="1" height="1" fill="#446a8e"/>
<rect x="24" y="8" width="1" height="1" fill="#41668c"/>
<rect x="25" y="8" width="1" height="1" fill="#3d648a"/>
<rect x="26" y="8" width="1" height="1" fill="#396188"/>
<rect x="27" y="8" width="1" height="1" fill="#345d85"/>
<rect x="28" y="8" width="1" height="1" fill="#617c96"/>
<rect x="2" y="9" width="1" height="1" fill="#71879d"/>
<rect x="3" y="9" width="1" height="1" fill="#234f7b"/>
<rect x="4" y="9" width="1" height="1" fill="#2f5882"/>
<rect x="5" y="9" width="1" height="1" fill="#386087"/>
<rect x="6" y="9" width="1" height="1" fill="#4a6f93"/>
<rect x="7" y="9" width="1" height="1" fill="#849eba"/>
<rect x="8" y="9" width="1" height="1" fill="#89a2bd"/>
<rect x="9" y="9" width="1" height="1" fill="#6182a2"/>
<rect x="10" y="9" width="1" height="1" fill="#4a6f93"/>
<rect x="11" y="9" width="1" height="1" fill="#4e7195"/>
<rect x="12" y="9" width="1" height="1" fill="#507396"/>
<rect x="13" y="9" width="1" height="1" fill="#537597"/>
<rect x="14" y="9" width="1" height="1" fill="#547799"/>
<rect x="15" y="9" width="3" height="1" fill="#567899"/>
<rect x="18" y="9" width="1" height="1" fill="#547799"/>
<rect x="19" y="9" width="1" height="1" fill="#537597"/>
<rect x="20" y="9" width="1" height="1" fill="#507396"/>
<rect x="21" y="9" width="1" height="1" fill="#4e7195"/>
<rect x="22" y="9" width="1" height="1" fill="#4a6f93"/>
<rect x="23" y="9" width="1" height="1" fill="#476c90"/>
<rect x="24" y="9" width="1" height="1" fill="#43698e"/>
<rect x="25" y="9" width="1" height="1" fill="#3f668c"/>
<rect x="26" y="9" width="1" height="1" fill="#3b6389"/>
<rect x="27" y="9" width="1" height="1" fill="#386087"/>
<rect x="28" y="9" width="1" height="1" fill="#2e5881"/>
<rect x="2" y="10" width="1" height="1" fill="#2e577f"/>
<rect x="3" y="10" width="1" height="1" fill="#27527d"/>
<rect x="4" y="10" width="1" height="1" fill="#325c84"/>
<rect x="5" y="10" width="1" height="1" fill="#396288"/>
<rect x="6" y="10" width="1" height="1" fill="#55789a"/>
<rect x="7" y="10" width="1" height="1" fill="#829eb8"/>
<rect x="8" y="10" width="1" height="1" fill="#87a1bb"/>
<rect x="9" y="10" width="1" height="1" fill="#8ba4be"/>
<rect x="10" y="10" width="1" height="1" fill="#5f80a0"/>
<rect x="11" y="10" width="1" height="1" fill="#517396"/>
<rect x="12" y="10" width="1" height="1" fill="#547698"/>
<rect x="13" y="10" width="1" height="1" fill="#57789a"/>
<rect x="14" y="10" width="1" height="1" fill="#5a7a9b"/>
<rect x="15" y="10" width="3" height="1" fill="#5b7b9c"/>
<rect x="18" y="10" width="1" height="1" fill="#5a7a9b"/>
<rect x="19" y="10" width="1" height="1" fill="#57789a"/>
<rect x="20" y="10" width="1" height="1" fill="#547698"/>
<rect x="21" y="10" width="1" height="1" fill="#517396"/>
<rect x="22" y="10" width="1" height="1" fill="#4d7194"/>
<rect x="23" y="10" width="1" height="1" fill="#4a6e92"/>
<rect x="24" y="10" width="1" height="1" fill="#466b8f"/>
<rect x="25" y="10" width="1" height="1" fill="#42688d"/>
<rect x="26" y="10" width="1" height="1" fill="#3d648b"/>
<rect x="27" y="10" width="1" height="1" fill="#396288"/>
<rect x="28" y="10" width="1" height="1" fill="#345d85"/>
<rect x="29" y="10" width="1" height="1" fill="#657f98"/>
<rect x="1" y="11" width="1" height="1" fill="#909dab"/>
<rect x="2" y="11" width="1" height="1" fill="#224e7a"/>
<rect x="3" y="11" width="1" height="1" fill="#2a557f"/>
<rect x="4" y="11" width="1" height="1" fill="#355d85"/>
<rect x="5" y="11" width="1" height="1" fill="#3b6289"/>
<rect x="6" y="11" width="1" height="1" fill="#42688e"/>
<rect x="7" y="11" width="1" height="1" fill="#7794b1"/>
<rect x="8" y="11" width="1" height="1" fill="#849fb9"/>
<rect x="9" y="11" width="1" height="1" fill="#89a3bc"/>
<rect x="10" y="11" width="1" height="1" fill="#8aa4bd"/>
<rect x="11" y="11" width="1" height="1" fill="#5e7e9f"/>
<rect x="12" y="11" width="1" height="1" fill="#57789a"/>
<rect x="13" y="11" width="1" height="1" fill="#5b7b9c"/>
<rect x="14" y="11" width="1" height="1" fill="#5d7d9e"/>
<rect x="15" y="11" width="1" height="1" fill="#6282a1"/>
<rect x="16" y="11" width="1" height="1" fill="#6483a2"/>
<rect x="17" y="11" width="1" height="1" fill="#6282a1"/>
<rect x="18" y="11" width="1" height="1" fill="#5d7d9e"/>
<rect x="19" y="11" width="1" height="1" fill="#5b7b9c"/>
<rect x="20" y="11" width="1" height="1" fill="#57789a"/>
<rect x="21" y="11" width="1" height="1" fill="#537598"/>
<rect x="22" y="11" width="1" height="1" fill="#4f7395"/>
<rect x="23" y="11" width="1" height="1" fill="#4c7093"/>
<rect x="24" y="11" width="1" height="1" fill="#486d91"/>
<rect x="25" y="11" width="1" height="1" fill="#44698e"/>
<rect x="26" y="11" width="1" height="1" fill="#3f658b"/>
<rect x="27" y="11" width="1" height="1" fill="#3b6289"/>
<rect x="28" y="11" width="1" height="1" fill="#375f86"/>
<rect x="29" y="11" width="1" height="1" fill="#335b83"/>
<rect x="1" y="12" width="1" height="1" fill="#647e97"/>
<rect x="2" y="12" width="1" height="1" fill="#224e7a"/>
<rect x="3" y="12" width="1" height="1" fill="#2d5781"/>
<rect x="4" y="12" width="1" height="1" fill="#385f87"/>
<rect x="5" y="12" width="1" height="1" fill="#3c6389"/>
<rect x="6" y="12" width="1" height="1" fill="#40678c"/>
<rect x="7" y="12" width="1" height="1" fill="#4e7295"/>
<rect x="8" y="12" width="1" height="1" fill="#7d99b5"/>
<rect x="9" y="12" width="1" height="1" fill="#859fba"/>
<rect x="10" y="12" width="1" height="1" fill="#8aa4bd"/>
<rect x="11" y="12" width="1" height="1" fill="#88a2bc"/>
<rect x="12" y="12" width="1" height="1" fill="#607fa0"/>
<rect x="13" y="12" width="1" height="1" fill="#5e7e9e"/>
<rect x="14" y="12" width="1" height="1" fill="#6886a4"/>
<rect x="15" y="12" width="1" height="1" fill="#738fab"/>
<rect x="16" y="12" width="1" height="1" fill="#7591ad"/>
<rect x="17" y="12" width="1" height="1" fill="#738fab"/>
<rect x="18" y="12" width="1" height="1" fill="#6886a4"/>
<rect x="19" y="12" width="1" height="1" fill="#5e7e9e"/>
<rect x="20" y="12" width="1" height="1" fill="#6e8caa"/>
<rect x="21" y="12" width="1" height="1" fill="#96aec4"/>
<rect x="22" y="12" width="1" height="1" fill="#94acc4"/>
<rect x="23" y="12" width="1" height="1" fill="#597a9c"/>
<rect x="24" y="12" width="1" height="1" fill="#496e92"/>
<rect x="25" y="12" width="1" height="1" fill="#456a8f"/>
<rect x="26" y="12" width="1" height="1" fill="#40678c"/>
<rect x="27" y="12" width="1" height="1" fill="#3c6389"/>
<rect x="28" y="12" width="1" height="1" fill="#386087"/>
<rect x="29" y="12" width="1" height="1" fill="#2f5882"/>
<rect x="30" y="12" width="1" height="1" fill="#a1a9b2"/>
<rect x="1" y="13" width="1" height="1" fill="#446689"/>
<rect x="2" y="13" width="1" height="1" fill="#224e7a"/>
<rect x="3" y="13" width="1" height="1" fill="#2f5882"/>
<rect x="4" y="13" width="1" height="1" fill="#386087"/>
<rect x="5" y="13" width="1" height="1" fill="#3c648a"/>
<rect x="6" y="13" width="1" height="1" fill="#41678d"/>
<rect x="7" y="13" width="1" height="1" fill="#456b8f"/>
<rect x="8" y="13" width="1" height="1" fill="#57789a"/>
<rect x="9" y="13" width="1" height="1" fill="#7f9bb7"/>
<rect x="10" y="13" width="1" height="1" fill="#86a0bb"/>
<rect x="11" y="13" width="1" height="1" fill="#8ba4be"/>
<rect x="12" y="13" width="1" height="1" fill="#87a0ba"/>
<rect x="13" y="13" width="1" height="1" fill="#6684a3"/>
<rect x="14" y="13" width="1" height="1" fill="#7591ac"/>
<rect x="15" y="13" width="1" height="1" fill="#849db5"/>
<rect x="16" y="13" width="1" height="1" fill="#8aa1b9"/>
<rect x="17" y="13" width="1" height="1" fill="#849db5"/>
<rect x="18" y="13" width="1" height="1" fill="#7591ac"/>
<rect x="19" y="13" width="1" height="1" fill="#7e99b4"/>
<rect x="20" y="13" width="2" height="1" fill="#a2b7cc"/>
<rect x="22" y="13" width="1" height="1" fill="#a1b7cc"/>
<rect x="23" y="13" width="1" height="1" fill="#7391ae"/>
<rect x="24" y="13" width="1" height="1" fill="#4a6e92"/>
<rect x="25" y="13" width="1" height="1" fill="#456b8f"/>
<rect x="26" y="13" width="1" height="1" fill="#41678d"/>
<rect x="27" y="13" width="1" height="1" fill="#3c648a"/>
<rect x="28" y="13" width="1" height="1" fill="#386087"/>
<rect x="29" y="13" width="1" height="1" fill="#325b84"/>
<rect x="30" y="13" width="1" height="1" fill="#8092a4"/>
<rect x="1" y="14" width="1" height="1" fill="#2e577f"/>
<rect x="2" y="14" width="1" height="1" fill="#224e7a"/>
<rect x="3" y="14" width="1" height="1" fill="#2f5982"/>
<rect x="4" y="14" width="1" height="1" fill="#386087"/>
<rect x="5" y="14" width="1" height="1" fill="#3d648a"/>
<rect x="6" y="14" width="1" height="1" fill="#41688d"/>
<rect x="7" y="14" width="1" height="1" fill="#466b90"/>
<rect x="8" y="14" width="1" height="1" fill="#4a6e92"/>
<rect x="9" y="14" width="1" height="1" fill="#5f7fa0"/>
<rect x="10" y="14" width="1" height="1" fill="#829cb7"/>
<rect x="11" y="14" width="1" height="1" fill="#86a0bb"/>
<rect x="12" y="14" width="1" height="1" fill="#8ca5be"/>
<rect x="13" y="14" width="1" height="1" fill="#88a2bb"/>
<rect x="14" y="14" width="1" height="1" fill="#7d97b1"/>
<rect x="15" y="14" width="1" height="1" fill="#8fa5bb"/>
<rect x="16" y="14" width="1" height="1" fill="#98adc1"/>
<rect x="17" y="14" width="1" height="1" fill="#8fa5bb"/>
<rect x="18" y="14" width="1" height="1" fill="#96adc3"/>
<rect x="19" y="14" width="1" height="1" fill="#a3b9cd"/>
<rect x="20" y="14" width="1" height="1" fill="#9eb4c9"/>
<rect x="21" y="14" width="1" height="1" fill="#9db3ca"/>
<rect x="22" y="14" width="1" height="1" fill="#98afc7"/>
<rect x="23" y="14" width="1" height="1" fill="#5a7b9d"/>
<rect x="24" y="14" width="1" height="1" fill="#4a6e92"/>
<rect x="25" y="14" width="1" height="1" fill="#466b90"/>
<rect x="26" y="14" width="1" height="1" fill="#41688d"/>
<rect x="27" y="14" width="1" height="1" fill="#3d648a"/>
<rect x="28" y="14" width="1" height="1" fill="#386187"/>
<rect x="29" y="14" width="1" height="1" fill="#345d85"/>
<rect x="30" y="14" width="1" height="1" fill="#678199"/>
<rect x="1" y="15" width="1" height="1" fill="#25507b"/>
<rect x="2" y="15" width="1" height="1" fill="#224e7a"/>
<rect x="3" y="15" width="1" height="1" fill="#2f5882"/>
<rect x="4" y="15" width="1" height="1" fill="#386087"/>
<rect x="5" y="15" width="1" height="1" fill="#3d648a"/>
<rect x="6" y="15" width="1" height="1" fill="#41688d"/>
<rect x="7" y="15" width="1" height="1" fill="#466b90"/>
<rect x="8" y="15" width="1" height="1" fill="#4a6e92"/>
<rect x="9" y="15" width="1" height="1" fill="#4f7295"/>
<rect x="10" y="15" width="1" height="1" fill="#6786a5"/>
<rect x="11" y="15" width="1" height="1" fill="#829db8"/>
<rect x="12" y="15" width="1" height="1" fill="#87a1bb"/>
<rect x="13" y="15" width="1" height="1" fill="#8fa8c0"/>
<rect x="14" y="15" width="1" height="1" fill="#90a7bf"/>
<rect x="15" y="15" width="1" height="1" fill="#8da4ba"/>
<rect x="16" y="15" width="1" height="1" fill="#97acc1"/>
<rect x="17" y="15" width="1" height="1" fill="#a3b8cb"/>
<rect x="18" y="15" width="1" height="1" fill="#a7bbce"/>
<rect x="19" y="15" width="1" height="1" fill="#9db3c9"/>
<rect x="20" y="15" width="1" height="1" fill="#99b0c7"/>
<rect x="21" y="15" width="1" height="1" fill="#90a9c1"/>
<rect x="22" y="15" width="1" height="1" fill="#5f7f9f"/>
<rect x="23" y="15" width="1" height="1" fill="#4f7295"/>
<rect x="24" y="15" width="1" height="1" fill="#4a6e92"/>
<rect x="25" y="15" width="1" height="1" fill="#466b90"/>
<rect x="26" y="15" width="1" height="1" fill="#41688d"/>
<rect x="27" y="15" width="1" height="1" fill="#3d648a"/>
<rect x="28" y="15" width="1" height="1" fill="#386187"/>
<rect x="29" y="15" width="1" height="1" fill="#345d85"/>
<rect x="30" y="15" width="1" height="1" fill="#5d7995"/>
<rect x="1" y="16" width="1" height="1" fill="#25507c"/>
<rect x="2" y="16" width="1" height="1" fill="#224e7a"/>
<rect x="3" y="16" width="1" height="1" fill="#2d5781"/>
<rect x="4" y="16" width="1" height="1" fill="#365f86"/>
<rect x="5" y="16" width="1" height="1" fill="#3d648a"/>
<rect x="6" y="16" width="1" height="1" fill="#41678c"/>
<rect x="7" y="16" width="1" height="1" fill="#466b8f"/>
<rect x="8" y="16" width="1" height="1" fill="#4a6e92"/>
<rect x="9" y="16" width="1" height="1" fill="#4e7195"/>
<rect x="10" y="16" width="1" height="1" fill="#537597"/>
<rect x="11" y="16" width="1" height="1" fill="#6d8ba9"/>
<rect x="12" y="16" width="1" height="1" fill="#829cb7"/>
<rect x="13" y="16" width="1" height="1" fill="#87a1ba"/>
<rect x="14" y="16" width="1" height="1" fill="#92a9c1"/>
<rect x="15" y="16" width="1" height="1" fill="#8fa6be"/>
<rect x="16" y="16" width="1" height="1" fill="#9ab0c6"/>
<rect x="17" y="16" width="1" height="1" fill="#a0b6ca"/>
<rect x="18" y="16" width="1" height="1" fill="#9bb2c7"/>
<rect x="19" y="16" width="1" height="1" fill="#94acc3"/>
<rect x="20" y="16" width="1" height="1" fill="#88a1bb"/>
<rect x="21" y="16" width="1" height="1" fill="#5d7c9d"/>
<rect x="22" y="16" width="1" height="1" fill="#537597"/>
<rect x="23" y="16" width="1" height="1" fill="#4e7195"/>
<rect x="24" y="16" width="1" height="1" fill="#4a6e92"/>
<rect x="25" y="16" width="1" height="1" fill="#466b8f"/>
<rect x="26" y="16" width="1" height="1" fill="#41678c"/>
<rect x="27" y="16" width="1" height="1" fill="#3d648a"/>
<rect x="28" y="16" width="1" height="1" fill="#386087"/>
<rect x="29" y="16" width="1" height="1" fill="#345d85"/>
<rect x="30" y="16" width="1" height="1" fill="#5e7a95"/>
<rect x="1" y="17" width="1" height="1" fill="#2f5880"/>
<rect x="2" y="17" width="1" height="1" fill="#224e7a"/>
<rect x="3" y="17" width="1" height="1" fill="#2a557f"/>
<rect x="4" y="17" width="1" height="1" fill="#345d85"/>
<rect x="5" y="17" width="1" height="1" fill="#3b638a"/>
<rect x="6" y="17" width="1" height="1" fill="#40668c"/>
<rect x="7" y="17" width="1" height="1" fill="#446a8e"/>
<rect x="8" y="17" width="1" height="1" fill="#496d91"/>
<rect x="9" y="17" width="1" height="1" fill="#4d7194"/>
<rect x="10" y="17" width="1" height="1" fill="#517497"/>
<rect x="11" y="17" width="1" height="1" fill="#567799"/>
<rect x="12" y="17" width="1" height="1" fill="#718eac"/>
<rect x="13" y="17" width="1" height="1" fill="#809bb6"/>
<rect x="14" y="17" width="1" height="1" fill="#859fb9"/>
<rect x="15" y="17" width="1" height="1" fill="#8ba4bd"/>
<rect x="16" y="17" width="1" height="1" fill="#8fa7bf"/>
<rect x="17" y="17" width="1" height="1" fill="#8fa8c0"/>
<rect x="18" y="17" width="1" height="1" fill="#8da6bf"/>
<rect x="19" y="17" width="1" height="1" fill="#7e99b4"/>
<rect x="20" y="17" width="1" height="1" fill="#5b7b9d"/>
<rect x="21" y="17" width="1" height="1" fill="#567799"/>
<rect x="22" y="17" width="1" height="1" fill="#517497"/>
<rect x="23" y="17" width="1" height="1" fill="#4d7194"/>
<rect x="24" y="17" width="1" height="1" fill="#496d91"/>
<rect x="25" y="17" width="1" height="1" fill="#446a8e"/>
<rect x="26" y="17" width="1" height="1" fill="#40668c"/>
<rect x="27" y="17" width="1" height="1" fill="#3b638a"/>
<rect x="28" y="17" width="1" height="1" fill="#385f87"/>
<rect x="29" y="17" width="1" height="1" fill="#335b85"/>
<rect x="30" y="17" width="1" height="1" fill="#6a829b"/>
<rect x="1" y="18" width="1" height="1" fill="#46688a"/>
<rect x="2" y="18" width="1" height="1" fill="#224e7a"/>
<rect x="3" y="18" width="1" height="1" fill="#27527d"/>
<rect x="4" y="18" width="1" height="1" fill="#325b84"/>
<rect x="5" y="18" width="1" height="1" fill="#3b6289"/>
<rect x="6" y="18" width="1" height="1" fill="#3e658b"/>
<rect x="7" y="18" width="1" height="1" fill="#43698e"/>
<rect x="8" y="18" width="1" height="1" fill="#476c91"/>
<rect x="9" y="18" width="1" height="1" fill="#4c6f93"/>
<rect x="10" y="18" width="1" height="1" fill="#4f7295"/>
<rect x="11" y="18" width="1" height="1" fill="#537598"/>
<rect x="12" y="18" width="1" height="1" fill="#58799a"/>
<rect x="13" y="18" width="1" height="1" fill="#7290ad"/>
<rect x="14" y="18" width="1" height="1" fill="#7e98b4"/>
<rect x="15" y="18" width="1" height="1" fill="#819bb7"/>
<rect x="16" y="18" width="1" height="1" fill="#839db8"/>
<rect x="17" y="18" width="1" height="1" fill="#859fb9"/>
<rect x="18" y="18" width="1" height="1" fill="#7390ad"/>
<rect x="19" y="18" width="1" height="1" fill="#5a7a9b"/>
<rect x="20" y="18" width="1" height="1" fill="#57789a"/>
<rect x="21" y="18" width="1" height="1" fill="#537598"/>
<rect x="22" y="18" width="1" height="1" fill="#4f7295"/>
<rect x="23" y="18" width="1" height="1" fill="#4c6f93"/>
<rect x="24" y="18" width="1" height="1" fill="#476c91"/>
<rect x="25" y="18" width="1" height="1" fill="#43698e"/>
<rect x="26" y="18" width="1" height="1" fill="#3e658b"/>
<rect x="27" y="18" width="1" height="1" fill="#3b6289"/>
<rect x="28" y="18" width="1" height="1" fill="#365f86"/>
<rect x="29" y="18" width="1" height="1" fill="#315a83"/>
<rect x="30" y="18" width="1" height="1" fill="#8293a5"/>
<rect x="1" y="19" width="1" height="1" fill="#678099"/>
<rect x="2" y="19" width="2" height="1" fill="#224e7a"/>
<rect x="4" y="19" width="1" height="1" fill="#305982"/>
<rect x="5" y="19" width="1" height="1" fill="#375f87"/>
<rect x="6" y="19" width="1" height="1" fill="#3d648a"/>
<rect x="7" y="19" width="1" height="1" fill="#41678d"/>
<rect x="8" y="19" width="1" height="1" fill="#456a8f"/>
<rect x="9" y="19" width="1" height="1" fill="#496d91"/>
<rect x="10" y="19" width="1" height="1" fill="#4c7093"/>
<rect x="11" y="19" width="1" height="1" fill="#507396"/>
<rect x="12" y="19" width="1" height="1" fill="#537598"/>
<rect x="13" y="19" width="1" height="1" fill="#59799b"/>
<rect x="14" y="19" width="1" height="1" fill="#708dac"/>
<rect x="15" y="19" width="1" height="1" fill="#7996b2"/>
<rect x="16" y="19" width="1" height="1" fill="#7a96b2"/>
<rect x="17" y="19" width="1" height="1" fill="#6886a5"/>
<rect x="18" y="19" width="1" height="1" fill="#58799b"/>
<rect x="19" y="19" width="1" height="1" fill="#567799"/>
<rect x="20" y="19" width="1" height="1" fill="#537598"/>
<rect x="21" y="19" width="1" height="1" fill="#507396"/>
<rect x="22" y="19" width="1" height="1" fill="#4c7093"/>
<rect x="23" y="19" width="1" height="1" fill="#496d91"/>
<rect x="24" y="19" width="1" height="1" fill="#456a8f"/>
<rect x="25" y="19" width="1" height="1" fill="#41678d"/>
<rect x="26" y="19" width="1" height="1" fill="#3d648a"/>
<rect x="27" y="19" width="1" height="1" fill="#396188"/>
<rect x="28" y="19" width="1" height="1" fill="#355d85"/>
<rect x="29" y="19" width="1" height="1" fill="#2d5781"/>
<rect x="30" y="19" width="1" height="1" fill="#a3abb3"/>
<rect x="1" y="20" width="1" height="1" fill="#939fac"/>
<rect x="2" y="20" width="2" height="1" fill="#224e7a"/>
<rect x="4" y="20" width="1" height="1" fill="#2a547f"/>
<rect x="5" y="20" width="1" height="1" fill="#325c84"/>
<rect x="6" y="20" width="1" height="1" fill="#3b6289"/>
<rect x="7" y="20" width="1" height="1" fill="#3f658b"/>
<rect x="8" y="20" width="1" height="1" fill="#43688d"/>
<rect x="9" y="20" width="1" height="1" fill="#466c90"/>
<rect x="10" y="20" width="1" height="1" fill="#4a6e92"/>
<rect x="11" y="20" width="1" height="1" fill="#4d7094"/>
<rect x="12" y="20" width="1" height="1" fill="#4f7296"/>
<rect x="13" y="20" width="1" height="1" fill="#527597"/>
<rect x="14" y="20" width="1" height="1" fill="#547698"/>
<rect x="15" y="20" width="1" height="1" fill="#5a7a9c"/>
<rect x="16" y="20" width="1" height="1" fill="#57789a"/>
<rect x="17" y="20" width="1" height="1" fill="#567799"/>
<rect x="18" y="20" width="1" height="1" fill="#547698"/>
<rect x="19" y="20" width="1" height="1" fill="#527597"/>
<rect x="20" y="20" width="1" height="1" fill="#4f7296"/>
<rect x="21" y="20" width="1" height="1" fill="#4d7094"/>
<rect x="22" y="20" width="1" height="1" fill="#4a6e92"/>
<rect x="23" y="20" width="1" height="1" fill="#466c90"/>
<rect x="24" y="20" width="1" height="1" fill="#43688d"/>
<rect x="25" y="20" width="1" height="1" fill="#3f658b"/>
<rect x="26" y="20" width="1" height="1" fill="#3b6289"/>
<rect x="27" y="20" width="1" height="1" fill="#376087"/>
<rect x="28" y="20" width="1" height="1" fill="#335c84"/>
<rect x="29" y="20" width="1" height="1" fill="#345b83"/>
<rect x="2" y="21" width="1" height="1" fill="#315981"/>
<rect x="3" y="21" width="1" height="1" fill="#224e7a"/>
<rect x="4" y="21" width="1" height="1" fill="#234f7b"/>
<rect x="5" y="21" width="1" height="1" fill="#305982"/>
<rect x="6" y="21" width="1" height="1" fill="#365f87"/>
<rect x="7" y="21" width="1" height="1" fill="#3c638a"/>
<rect x="8" y="21" width="1" height="1" fill="#3f668c"/>
<rect x="9" y="21" width="1" height="1" fill="#43698e"/>
<rect x="10" y="21" width="1" height="1" fill="#466c90"/>
<rect x="11" y="21" width="1" height="1" fill="#4a6e92"/>
<rect x="12" y="21" width="1" height="1" fill="#4c7093"/>
<rect x="13" y="21" width="1" height="1" fill="#4e7295"/>
<rect x="14" y="21" width="1" height="1" fill="#4f7396"/>
<rect x="15" y="21" width="3" height="1" fill="#507396"/>
<rect x="18" y="21" width="1" height="1" fill="#4f7396"/>
<rect x="19" y="21" width="1" height="1" fill="#4e7295"/>
<rect x="20" y="21" width="1" height="1" fill="#4c7093"/>
<rect x="21" y="21" width="1" height="1" fill="#4a6e92"/>
<rect x="22" y="21" width="1" height="1" fill="#466c90"/>
<rect x="23" y="21" width="1" height="1" fill="#43698e"/>
<rect x="24" y="21" width="1" height="1" fill="#3f668c"/>
<rect x="25" y="21" width="1" height="1" fill="#3c638a"/>
<rect x="26" y="21" width="1" height="1" fill="#396088"/>
<rect x="27" y="21" width="1" height="1" fill="#355e86"/>
<rect x="28" y="21" width="1" height="1" fill="#305982"/>
<rect x="29" y="21" width="1" height="1" fill="#69819a"/>
<rect x="2" y="22" width="1" height="1" fill="#768a9f"/>
<rect x="3" y="22" width="2" height="1" fill="#224e7a"/>
<rect x="5" y="22" width="1" height="1" fill="#28537e"/>
<rect x="6" y="22" width="1" height="1" fill="#315a83"/>
<rect x="7" y="22" width="1" height="1" fill="#396188"/>
<rect x="8" y="22" width="1" height="1" fill="#3d648a"/>
<rect x="9" y="22" width="1" height="1" fill="#40668c"/>
<rect x="10" y="22" width="1" height="1" fill="#43688d"/>
<rect x="11" y="22" width="1" height="1" fill="#466b90"/>
<rect x="12" y="22" width="1" height="1" fill="#486c91"/>
<rect x="13" y="22" width="1" height="1" fill="#4a6e92"/>
<rect x="14" y="22" width="1" height="1" fill="#4b6f93"/>
<rect x="15" y="22" width="3" height="1" fill="#4c7094"/>
<rect x="18" y="22" width="1" height="1" fill="#4b6f93"/>
<rect x="19" y="22" width="1" height="1" fill="#4a6e92"/>
<rect x="20" y="22" width="1" height="1" fill="#486c91"/>
<rect x="21" y="22" width="1" height="1" fill="#466b90"/>
<rect x="22" y="22" width="1" height="1" fill="#43688d"/>
<rect x="23" y="22" width="1" height="1" fill="#40668c"/>
<rect x="24" y="22" width="1" height="1" fill="#3d648a"/>
<rect x="25" y="22" width="1" height="1" fill="#3a6188"/>
<rect x="26" y="22" width="1" height="1" fill="#365e86"/>
<rect x="27" y="22" width="1" height="1" fill="#335c84"/>
<rect x="28" y="22" width="1" height="1" fill="#2a547f"/>
<rect x="3" y="23" width="1" height="1" fill="#345b82"/>
<rect x="4" y="23" width="2" height="1" fill="#224e7a"/>
<rect x="6" y="23" width="1" height="1" fill="#2b5580"/>
<rect x="7" y="23" width="1" height="1" fill="#325c84"/>
<rect x="8" y="23" width="1" height="1" fill="#396188"/>
<rect x="9" y="23" width="1" height="1" fill="#3d638a"/>
<rect x="10" y="23" width="1" height="1" fill="#3f668b"/>
<rect x="11" y="23" width="1" height="1" fill="#42688d"/>
<rect x="12" y="23" width="1" height="1" fill="#446a8e"/>
<rect x="13" y="23" width="1" height="1" fill="#466b90"/>
<rect x="14" y="23" width="5" height="1" fill="#476c90"/>
<rect x="19" y="23" width="1" height="1" fill="#466b90"/>
<rect x="20" y="23" width="1" height="1" fill="#446a8e"/>
<rect x="21" y="23" width="1" height="1" fill="#42688d"/>
<rect x="22" y="23" width="1" height="1" fill="#3f668b"/>
<rect x="23" y="23" width="1" height="1" fill="#3d638a"/>
<rect x="24" y="23" width="1" height="1" fill="#3a6189"/>
<rect x="25" y="23" width="1" height="1" fill="#365f86"/>
<rect x="26" y="23" width="1" height="1" fill="#345c84"/>
<rect x="27" y="23" width="1" height="1" fill="#2d5781"/>
<rect x="28" y="23" width="1" height="1" fill="#68819a"/>
<rect x="3" y="24" width="1" height="1" fill="#929fac"/>
<rect x="4" y="24" width="3" height="1" fill="#224e7a"/>
<rect x="7" y="24" width="1" height="1" fill="#2c5680"/>
<rect x="8" y="24" width="1" height="1" fill="#325c84"/>
<rect x="9" y="24" width="1" height="1" fill="#386087"/>
<rect x="10" y="24" width="1" height="1" fill="#3b6389"/>
<rect x="11" y="24" width="1" height="1" fill="#3e658b"/>
<rect x="12" y="24" width="1" height="1" fill="#40668c"/>
<rect x="13" y="24" width="1" height="1" fill="#42678d"/>
<rect x="14" y="24" width="1" height="1" fill="#42688d"/>
<rect x="15" y="24" width="3" height="1" fill="#43698e"/>
<rect x="18" y="24" width="1" height="1" fill="#42688d"/>
<rect x="19" y="24" width="1" height="1" fill="#42678d"/>
<rect x="20" y="24" width="1" height="1" fill="#40668c"/>
<rect x="21" y="24" width="1" height="1" fill="#3e658b"/>
<rect x="22" y="24" width="1" height="1" fill="#3b6389"/>
<rect x="23" y="24" width="1" height="1" fill="#396188"/>
<rect x="24" y="24" width="1" height="1" fill="#365f86"/>
<rect x="25" y="24" width="1" height="1" fill="#345c84"/>
<rect x="26" y="24" width="1" height="1" fill="#2f5882"/>
<rect x="27" y="24" width="1" height="1" fill="#395f85"/>
<rect x="4" y="25" width="1" height="1" fill="#6f859c"/>
<rect x="5" y="25" width="3" height="1" fill="#224e7a"/>
<rect x="8" y="25" width="1" height="1" fill="#2b5580"/>
<rect x="9" y="25" width="1" height="1" fill="#315a83"/>
<rect x="10" y="25" width="1" height="1" fill="#365e86"/>
<rect x="11" y="25" width="1" height="1" fill="#3a6189"/>
<rect x="12" y="25" width="1" height="1" fill="#3b6389"/>
<rect x="13" y="25" width="1" height="1" fill="#3d648a"/>
<rect x="14" y="25" width="1" height="1" fill="#3e658b"/>
<rect x="15" y="25" width="3" height="1" fill="#3e668b"/>
<rect x="18" y="25" width="1" height="1" fill="#3e658b"/>
<rect x="19" y="25" width="1" height="1" fill="#3d648a"/>
<rect x="20" y="25" width="1" height="1" fill="#3b6389"/>
<rect x="21" y="25" width="1" height="1" fill="#3a6189"/>
<rect x="22" y="25" width="1" height="1" fill="#386087"/>
<rect x="23" y="25" width="1" height="1" fill="#355e86"/>
<rect x="24" y="25" width="1" height="1" fill="#335c84"/>
<rect x="25" y="25" width="1" height="1" fill="#2e5881"/>
<rect x="26" y="25" width="1" height="1" fill="#2c567f"/>
<rect x="27" y="25" width="1" height="1" fill="#a3abb3"/>
<rect x="5" y="26" width="1" height="1" fill="#637d97"/>
<rect x="6" y="26" width="3" height="1" fill="#224e7a"/>
<rect x="9" y="26" width="1" height="1" fill="#27527d"/>
<rect x="10" y="26" width="1" height="1" fill="#2f5982"/>
<rect x="11" y="26" width="1" height="1" fill="#325c84"/>
<rect x="12" y="26" width="1" height="1" fill="#365e86"/>
<rect x="13" y="26" width="1" height="1" fill="#396088"/>
<rect x="14" y="26" width="1" height="1" fill="#396188"/>
<rect x="15" y="26" width="3" height="1" fill="#3a6289"/>
<rect x="18" y="26" width="2" height="1" fill="#396188"/>
<rect x="20" y="26" width="1" height="1" fill="#375f87"/>
<rect x="21" y="26" width="1" height="1" fill="#355e86"/>
<rect x="22" y="26" width="1" height="1" fill="#345c85"/>
<rect x="23" y="26" width="1" height="1" fill="#315a83"/>
<rect x="24" y="26" width="1" height="1" fill="#2c5680"/>
<rect x="25" y="26" width="1" height="1" fill="#29547e"/>
<rect x="26" y="26" width="1" height="1" fill="#97a3ae"/>
<rect x="6" y="27" width="1" height="1" fill="#74899f"/>
<rect x="7" y="27" width="1" height="1" fill="#234f7b"/>
<rect x="8" y="27" width="2" height="1" fill="#224e7a"/>
<rect x="10" y="27" width="1" height="1" fill="#234f7b"/>
<rect x="11" y="27" width="1" height="1" fill="#29547e"/>
<rect x="12" y="27" width="1" height="1" fill="#2f5882"/>
<rect x="13" y="27" width="1" height="1" fill="#315a83"/>
<rect x="14" y="27" width="1" height="1" fill="#335b84"/>
<rect x="15" y="27" width="1" height="1" fill="#345d85"/>
<rect x="16" y="27" width="1" height="1" fill="#345e85"/>
<rect x="17" y="27" width="1" height="1" fill="#355e85"/>
<rect x="18" y="27" width="1" height="1" fill="#355d85"/>
<rect x="19" y="27" width="1" height="1" fill="#345c85"/>
<rect x="20" y="27" width="1" height="1" fill="#325b83"/>
<rect x="21" y="27" width="1" height="1" fill="#305a83"/>
<rect x="22" y="27" width="1" height="1" fill="#2d5681"/>
<rect x="23" y="27" width="1" height="1" fill="#27527d"/>
<rect x="24" y="27" width="1" height="1" fill="#355c83"/>
<rect x="25" y="27" width="1" height="1" fill="#a0a9b2"/>
<rect x="7" y="28" width="1" height="1" fill="#9ca6b0"/>
<rect x="8" y="28" width="1" height="1" fill="#3c6186"/>
<rect x="9" y="28" width="4" height="1" fill="#224e7a"/>
<rect x="13" y="28" width="1" height="1" fill="#26517c"/>
<rect x="14" y="28" width="1" height="1" fill="#29547e"/>
<rect x="15" y="28" width="1" height="1" fill="#2c5680"/>
<rect x="16" y="28" width="1" height="1" fill="#2d5781"/>
<rect x="17" y="28" width="1" height="1" fill="#2e5881"/>
<rect x="18" y="28" width="1" height="1" fill="#2d5781"/>
<rect x="19" y="28" width="1" height="1" fill="#2b5580"/>
<rect x="20" y="28" width="1" height="1" fill="#28537e"/>
<rect x="21" y="28" width="1" height="1" fill="#25507c"/>
<rect x="22" y="28" width="1" height="1" fill="#224e7a"/>
<rect x="23" y="28" width="1" height="1" fill="#5f7a95"/>
<rect x="9" y="29" width="1" height="1" fill="#8696a6"/>
<rect x="10" y="29" width="1" height="1" fill="#436689"/>
<rect x="11" y="29" width="9" height="1" fill="#224e7a"/>
<rect x="20" y="29" width="1" height="1" fill="#27527c"/>
<rect x="21" y="29" width="1" height="1" fill="#5a7793"/>
<rect x="22" y="29" width="1" height="1" fill="#a3abb3"/>
<rect x="12" y="30" width="1" height="1" fill="#8092a4"/>
<rect x="13" y="30" width="1" height="1" fill="#647d97"/>
<rect x="14" y="30" width="1" height="1" fill="#506f8f"/>
<rect x="15" y="30" width="1" height="1" fill="#48698b"/>
<rect x="16" y="30" width="1" height="1" fill="#4b6b8c"/>
<rect x="17" y="30" width="1" height="1" fill="#557391"/>
<rect x="18" y="30" width="1" height="1" fill="#6c849b"/>
<rect x="19" y="30" width="1" height="1" fill="#909dab"/>
</svg>