<svg xmlns="http://www.w3.org/2000/svg" width="32" height="32" viewBox="0 0 32 32" shape-rendering="crispEdges">
<rect x="15" y="0" width="2" height="1" fill="#a1acb7"/>
<rect x="17" y="0" width="1" height="1" fill="#a4aeb8"/>
<rect x="14" y="1" width="1" height="1" fill="#7690aa"/>
<rect x="15" y="1" width="1" height="1" fill="#6686a5"/>
<rect x="16" y="1" width="1" height="1" fill="#6887a6"/>
<rect x="17" y="1" width="1" height="1" fill="#6b89a8"/>
<rect x="18" y="1" width="1" height="1" fill="#a3adb8"/>
<rect x="9" y="2" width="1" height="1" fill="#728ba5"/>
<rect x="10" y="2" width="1" height="1" fill="#6885a2"/>
<rect x="14" y="2" width="1" height="1" fill="#6684a4"/>
<rect x="15" y="2" width="1" height="1" fill="#6685a5"/>
<rect x="16" y="2" width="1" height="1" fill="#6887a6"/>
<rect x="17" y="2" width="1" height="1" fill="#6a88a7"/>
<rect x="18" y="2" width="1" height="1" fill="#92a2b3"/>
<rect x="21" y="2" width="1" height="1" fill="#90a2b4"/>
<rect x="22" y="2" width="1" height="1" fill="#7894ae"/>
<rect x="7" y="3" width="1" height="1" fill="#8598ab"/>
<rect x="8" y="3" width="1" height="1" fill="#587a9b"/>
<rect x="9" y="3" width="1" height="1" fill="#597b9d"/>
<rect x="10" y="3" width="1" height="1" fill="#5b7c9e"/>
<rect x="11" y="3" width="1" height="1" fill="#708ba5"/>
<rect x="13" y="3" width="1" height="1" fill="#98a6b3"/>
<rect x="14" y="3" width="1" height="1" fill="#6383a3"/>
<rect x="15" y="3" width="1" height="1" fill="#6685a5"/>
<rect x="16" y="3" width="1" height="1" fill="#6887a6"/>
<rect x="17" y="3" width="1" height="1" fill="#6b89a7"/>
<rect x="18" y="3" width="1" height="1" fill="#7c94ad"/>
<rect x="20" y="3" width="1" height="1" fill="#97a6b6"/>
<rect x="21" y="3" width="1" height="1" fill="#7390ad"/>
<rect x="22" y="3" width="1" height="1" fill="#94abc1"/>
<rect x="24" y="3" width="1" height="1" fill="#7e97b0"/>
<rect x="7" y="4" width="1" height="1" fill="#748da5"/>
<rect x="8" y="4" width="1" height="1" fill="#56789a"/>
<rect x="9" y="4" width="1" height="1" fill="#587a9c"/>
<rect x="10" y="4" width="1" height="1" fill="#5a7b9d"/>
<rect x="11" y="4" width="1" height="1" fill="#5c7d9e"/>
<rect x="12" y="4" width="1" height="1" fill="#5f7fa0"/>
<rect x="13" y="4" width="1" height="1" fill="#6181a1"/>
<rect x="14" y="4" width="1" height="1" fill="#6383a3"/>
<rect x="15" y="4" width="1" height="1" fill="#6585a4"/>
<rect x="16" y="4" width="1" height="1" fill="#6887a6"/>
<rect x="17" y="4" width="1" height="1" fill="#6b89a7"/>
<rect x="18" y="4" width="1" height="1" fill="#6e8ba9"/>
<rect x="19" y="4" width="1" height="1" fill="#6f8dab"/>
<rect x="20" y="4" width="1" height="1" fill="#728fac"/>
<rect x="21" y="4" width="1" height="1" fill="#7491ad"/>
<rect x="22" y="4" width="1" height="1" fill="#c0cfdd"/>
<rect x="23" y="4" width="1" height="1" fill="#7995b0"/>
<rect x="24" y="4" width="1" height="1" fill="#7390ad"/>
<rect x="7" y="5" width="1" height="1" fill="#96a3b1"/>
<rect x="8" y="5" width="1" height="1" fill="#55789a"/>
<rect x="9" y="5" width="1" height="1" fill="#57799b"/>
<rect x="10" y="5" width="1" height="1" fill="#597b9d"/>
<rect x="11" y="5" width="1" height="1" fill="#5b7c9e"/>
<rect x="12" y="5" width="1" height="1" fill="#5e7e9f"/>
<rect x="13" y="5" width="1" height="1" fill="#6080a0"/>
<rect x="14" y="5" width="1" height="1" fill="#6282a2"/>
<rect x="15" y="5" width="1" height="1" fill="#6584a4"/>
<rect x="16" y="5" width="1" height="1" fill="#6887a6"/>
<rect x="17" y="5" width="1" height="1" fill="#6b89a7"/>
<rect x="18" y="5" width="1" height="1" fill="#6e8ba9"/>
<rect x="19" y="5" width="1" height="1" fill="#708dab"/>
<rect x="20" y="5" width="1" height="1" fill="#7390ad"/>
<rect x="21" y="5" width="1" height="1" fill="#9ab0c5"/>
<rect x="22" y="5" width="1" height="1" fill="#99afc4"/>
<rect x="23" y="5" width="1" height="1" fill="#7390ad"/>
<rect x="24" y="5" width="1" height="1" fill="#8399b1"/>
<rect x="4" y="6" width="1" height="1" fill="#a0aab4"/>
<rect x="8" y="6" width="1" height="1" fill="#547699"/>
<rect x="9" y="6" width="1" height="1" fill="#55789a"/>
<rect x="10" y="6" width="1" height="1" fill="#57799b"/>
<rect x="11" y="6" width="1" height="1" fill="#5a7b9d"/>
<rect x="12" y="6" width="1" height="1" fill="#5f80a0"/>
<rect x="13" y="6" width="1" height="1" fill="#6a88a7"/>
<rect x="14" y="6" width="1" height="1" fill="#6f8dab"/>
<rect x="15" y="6" width="1" height="1" fill="#7390ad"/>
<rect x="16" y="6" width="1" height="1" fill="#7391ad"/>
<rect x="17" y="6" width="1" height="1" fill="#7390ad"/>
<rect x="18" y="6" width="1" height="1" fill="#7290ad"/>
<rect x="19" y="6" width="1" height="1" fill="#728fad"/>
<rect x="20" y="6" width="1" height="1" fill="#7491ad"/>
<rect x="21" y="6" width="1" height="1" fill="#b6c6d7"/>
<rect x="22" y="6" width="1" height="1" fill="#7491ad"/>
<rect x="23" y="6" width="1" height="1" fill="#728fac"/>
<rect x="24" y="6" width="1" height="1" fill="#8d9fb3"/>
<rect x="3" y="7" width="1" height="1" fill="#8e9dad"/>
<rect x="4" y="7" width="1" height="1" fill="#4e7296"/>
<rect x="5" y="7" width="1" height="1" fill="#547698"/>
<rect x="6" y="7" width="1" height="1" fill="#768ea5"/>
<rect x="7" y="7" width="1" height="1" fill="#617f9e"/>
<rect x="8" y="7" width="2" height="1" fill="#547699"/>
<rect x="10" y="7" width="1" height="1" fill="#587a9c"/>
<rect x="11" y="7" width="1" height="1" fill="#6a89a8"/>
<rect x="12" y="7" width="8" height="1" fill="#7592ae"/>
<rect x="20" y="7" width="1" height="1" fill="#7a96b1"/>
<rect x="21" y="7" width="1" height="1" fill="#7f9ab4"/>
<rect x="22" y="7" width="1" height="1" fill="#728fac"/>
<rect x="23" y="7" width="1" height="1" fill="#708dab"/>
<rect x="24" y="7" width="1" height="1" fill="#6f8dab"/>
<rect x="25" y="7" width="1" height="1" fill="#899db2"/>
<rect x="26" y="7" width="1" height="1" fill="#7c94ad"/>
<rect x="27" y="7" width="1" height="1" fill="#6c8aa8"/>
<rect x="28" y="7" width="1" height="1" fill="#758faa"/>
<rect x="3" y="8" width="1" height="1" fill="#507295"/>
<rect x="4" y="8" width="1" height="1" fill="#4c7094"/>
<rect x="5" y="8" width="1" height="1" fill="#4d7195"/>
<rect x="6" y="8" width="1" height="1" fill="#4f7296"/>
<rect x="7" y="8" width="1" height="1" fill="#507397"/>
<rect x="8" y="8" width="1" height="1" fill="#527598"/>
<rect x="9" y="8" width="1" height="1" fill="#5b7c9d"/>
<rect x="10" y="8" width="1" height="1" fill="#728fac"/>
<rect x="11" y="8" width="11" height="1" fill="#7592ae"/>
<rect x="22" y="8" width="1" height="1" fill="#7390ad"/>
<rect x="23" y="8" width="1" height="1" fill="#6f8dab"/>
<rect x="24" y="8" width="1" height="1" fill="#6e8caa"/>
<rect x="25" y="8" width="1" height="1" fill="#6d8aa8"/>
<rect x="26" y="8" width="1" height="1" fill="#6b89a7"/>
<rect x="27" y="8" width="1" height="1" fill="#6a88a7"/>
<rect x="28" y="8" width="1" height="1" fill="#6987a6"/>
<rect x="29" y="8" width="1" height="1" fill="#90a1b2"/>
<rect x="2" y="9" width="1" height="1" fill="#8093a7"/>
<rect x="3" y="9" width="1" height="1" fill="#496e92"/>
<rect x="4" y="9" width="1" height="1" fill="#4a6f93"/>
<rect x="5" y="9" width="1" height="1" fill="#4b6f93"/>
<rect x="6" y="9" width="1" height="1" fill="#4d7195"/>
<rect x="7" y="9" width="1" height="1" fill="#4e7296"/>
<rect x="8" y="9" width="1" height="1" fill="#56789b"/>
<rect x="9" y="9" width="1" height="1" fill="#7390ad"/>
<rect x="10" y="9" width="4" height="1" fill="#7592ae"/>
<rect x="14" y="9" width="1" height="1" fill="#7390ad"/>
<rect x="15" y="9" width="1" height="1" fill="#6786a5"/>
<rect x="16" y="9" width="1" height="1" fill="#6383a3"/>
<rect x="17" y="9" width="1" height="1" fill="#6d8ca9"/>
<rect x="18" y="9" width="5" height="1" fill="#7592ae"/>
<rect x="23" y="9" width="1" height="1" fill="#7290ad"/>
<rect x="24" y="9" width="1" height="1" fill="#6d8aa8"/>
<rect x="25" y="9" width="1" height="1" fill="#6b89a7"/>
<rect x="26" y="9" width="1" height="1" fill="#6987a6"/>
<rect x="27" y="9" width="1" height="1" fill="#6887a6"/>
<rect x="28" y="9" width="1" height="1" fill="#6786a5"/>
<rect x="29" y="9" width="1" height="1" fill="#6987a6"/>
<rect x="3" y="10" width="1" height="1" fill="#5d7b9a"/>
<rect x="4" y="10" width="1" height="1" fill="#486d92"/>
<rect x="5" y="10" width="1" height="1" fill="#496e92"/>
<rect x="6" y="10" width="1" height="1" fill="#4a6f93"/>
<rect x="7" y="10" width="1" height="1" fill="#4d7195"/>
<rect x="8" y="10" width="1" height="1" fill="#6e8daa"/>
<rect x="9" y="10" width="3" height="1" fill="#7592ae"/>
<rect x="12" y="10" width="1" height="1" fill="#6f8eab"/>
<rect x="13" y="10" width="1" height="1" fill="#466c91"/>
<rect x="14" y="10" width="1" height="1" fill="#27527d"/>
<rect x="15" y="10" width="3" height="1" fill="#224e7a"/>
<rect x="18" y="10" width="1" height="1" fill="#345d85"/>
<rect x="19" y="10" width="1" height="1" fill="#5e7fa0"/>
<rect x="20" y="10" width="4" height="1" fill="#7592ae"/>
<rect x="24" y="10" width="1" height="1" fill="#6e8caa"/>
<rect x="25" y="10" width="1" height="1" fill="#6887a6"/>
<rect x="26" y="10" width="1" height="1" fill="#6786a5"/>
<rect x="27" y="10" width="1" height="1" fill="#6685a5"/>
<rect x="28" y="10" width="1" height="1" fill="#6584a4"/>
<rect x="29" y="10" width="1" height="1" fill="#8c9eb0"/>
<rect x="4" y="11" width="1" height="1" fill="#63809c"/>
<rect x="5" y="11" width="1" height="1" fill="#476c91"/>
<rect x="6" y="11" width="1" height="1" fill="#486d92"/>
<rect x="7" y="11" width="1" height="1" fill="#5c7e9e"/>
<rect x="8" y="11" width="3" height="1" fill="#7592ae"/>
<rect x="11" y="11" width="1" height="1" fill="#6b8aa8"/>
<rect x="12" y="11" width="1" height="1" fill="#2e5882"/>
<rect x="13" y="11" width="7" height="1" fill="#224e7a"/>
<rect x="20" y="11" width="1" height="1" fill="#4e7296"/>
<rect x="21" y="11" width="3" height="1" fill="#7592ae"/>
<rect x="24" y="11" width="1" height="1" fill="#7491ad"/>
<rect x="25" y="11" width="1" height="1" fill="#6685a5"/>
<rect x="26" y="11" width="1" height="1" fill="#6584a4"/>
<rect x="27" y="11" width="1" height="1" fill="#6383a3"/>
<rect x="28" y="11" width="1" height="1" fill="#95a4b3"/>
<rect x="4" y="12" width="1" height="1" fill="#6c859f"/>
<rect x="5" y="12" width="1" height="1" fill="#456a90"/>
<rect x="6" y="12" width="1" height="1" fill="#466b90"/>
<rect x="7" y="12" width="1" height="1" fill="#6e8daa"/>
<rect x="8" y="12" width="2" height="1" fill="#7592ae"/>
<rect x="10" y="12" width="1" height="1" fill="#7492ae"/>
<rect x="11" y="12" width="1" height="1" fill="#335c85"/>
<rect x="12" y="12" width="9" height="1" fill="#224e7a"/>
<rect x="21" y="12" width="1" height="1" fill="#5c7e9f"/>
<rect x="22" y="12" width="3" height="1" fill="#7592ae"/>
<rect x="25" y="12" width="1" height="1" fill="#6988a7"/>
<rect x="26" y="12" width="1" height="1" fill="#6282a2"/>
<rect x="27" y="12" width="1" height="1" fill="#6181a1"/>
<rect x="2" y="13" width="1" height="1" fill="#93a0ae"/>
<rect x="3" y="13" width="1" height="1" fill="#778da3"/>
<rect x="4" y="13" width="1" height="1" fill="#486c90"/>
<rect x="5" y="13" width="1" height="1" fill="#43698f"/>
<rect x="6" y="13" width="1" height="1" fill="#4b7094"/>
<rect x="7" y="13" width="3" height="1" fill="#7592ae"/>
<rect x="10" y="13" width="1" height="1" fill="#597b9d"/>
<rect x="11" y="13" width="10" height="1" fill="#224e7a"/>
<rect x="21" y="13" width="1" height="1" fill="#305a83"/>
<rect x="22" y="13" width="3" height="1" fill="#7592ae"/>
<rect x="25" y="13" width="1" height="1" fill="#6e8caa"/>
<rect x="26" y="13" width="1" height="1" fill="#6080a0"/>
<rect x="27" y="13" width="1" height="1" fill="#5f7fa0"/>
<rect x="28" y="13" width="1" height="1" fill="#728ca6"/>
<rect x="29" y="13" width="1" height="1" fill="#8e9faf"/>
<rect x="30" y="13" width="1" height="1" fill="#a3adb7"/>
<rect x="1" y="14" width="1" height="1" fill="#4e7192"/>
<rect x="2" y="14" width="1" height="1" fill="#40668c"/>
<rect x="3" y="14" width="1" height="1" fill="#3f668c"/>
<rect x="4" y="14" width="2" height="1" fill="#40668c"/>
<rect x="6" y="14" width="1" height="1" fill="#537698"/>
<rect x="7" y="14" width="3" height="1" fill="#7592ae"/>
<rect x="10" y="14" width="1" height="1" fill="#3f668c"/>
<rect x="11" y="14" width="11" height="1" fill="#224e7a"/>
<rect x="22" y="14" width="1" height="1" fill="#6988a7"/>
<rect x="23" y="14" width="2" height="1" fill="#7592ae"/>
<rect x="25" y="14" width="1" height="1" fill="#718fac"/>
<rect x="26" y="14" width="1" height="1" fill="#5d7e9f"/>
<rect x="27" y="14" width="1" height="1" fill="#5d7d9f"/>
<rect x="28" y="14" width="2" height="1" fill="#5c7d9e"/>
<rect x="30" y="14" width="1" height="1" fill="#5c7d9f"/>
<rect x="31" y="14" width="1" height="1" fill="#9aa6b4"/>
<rect x="1" y="15" width="1" height="1" fill="#466a8f"/>
<rect x="2" y="15" width="4" height="1" fill="#3d648b"/>
<rect x="6" y="15" width="1" height="1" fill="#56789b"/>
<rect x="7" y="15" width="3" height="1" fill="#7592ae"/>
<rect x="10" y="15" width="1" height="1" fill="#345d85"/>
<rect x="11" y="15" width="11" height="1" fill="#224e7a"/>
<rect x="22" y="15" width="1" height="1" fill="#5e7fa0"/>
<rect x="23" y="15" width="2" height="1" fill="#7592ae"/>
<rect x="25" y="15" width="1" height="1" fill="#7391ad"/>
<rect x="26" y="15" width="4" height="1" fill="#5a7b9d"/>
<rect x="30" y="15" width="1" height="1" fill="#5a7c9e"/>
<rect x="31" y="15" width="1" height="1" fill="#95a3b2"/>
<rect x="1" y="16" width="1" height="1" fill="#466b8f"/>
<rect x="2" y="16" width="3" height="1" fill="#3b638a"/>
<rect x="5" y="16" width="1" height="1" fill="#3b6289"/>
<rect x="6" y="16" width="1" height="1" fill="#537699"/>
<rect x="7" y="16" width="3" height="1" fill="#7592ae"/>
<rect x="10" y="16" width="1" height="1" fill="#365f87"/>
<rect x="11" y="16" width="11" height="1" fill="#224e7a"/>
<rect x="22" y="16" width="1" height="1" fill="#6181a1"/>
<rect x="23" y="16" width="2" height="1" fill="#7592ae"/>
<rect x="25" y="16" width="1" height="1" fill="#7290ad"/>
<rect x="26" y="16" width="3" height="1" fill="#57799b"/>
<rect x="29" y="16" width="2" height="1" fill="#587a9c"/>
<rect x="31" y="16" width="1" height="1" fill="#94a3b2"/>
<rect x="1" y="17" width="1" height="1" fill="#68829c"/>
<rect x="2" y="17" width="1" height="1" fill="#43678d"/>
<rect x="3" y="17" width="1" height="1" fill="#396189"/>
<rect x="4" y="17" width="2" height="1" fill="#396088"/>
<rect x="6" y="17" width="1" height="1" fill="#4a6f94"/>
<rect x="7" y="17" width="3" height="1" fill="#7592ae"/>
<rect x="10" y="17" width="1" height="1" fill="#476c91"/>
<rect x="11" y="17" width="10" height="1" fill="#224e7a"/>
<rect x="21" y="17" width="1" height="1" fill="#234f7b"/>
<rect x="22" y="17" width="1" height="1" fill="#708eab"/>
<rect x="23" y="17" width="2" height="1" fill="#7592ae"/>
<rect x="25" y="17" width="1" height="1" fill="#6e8caa"/>
<rect x="26" y="17" width="2" height="1" fill="#547799"/>
<rect x="28" y="17" width="2" height="1" fill="#55789a"/>
<rect x="30" y="17" width="1" height="1" fill="#62819f"/>
<rect x="31" y="17" width="1" height="1" fill="#a2acb6"/>
<rect x="4" y="18" width="1" height="1" fill="#4c6e90"/>
<rect x="5" y="18" width="1" height="1" fill="#365e86"/>
<rect x="6" y="18" width="1" height="1" fill="#3a6188"/>
<rect x="7" y="18" width="1" height="1" fill="#7491ae"/>
<rect x="8" y="18" width="2" height="1" fill="#7592ae"/>
<rect x="10" y="18" width="1" height="1" fill="#6786a5"/>
<rect x="11" y="18" width="1" height="1" fill="#234f7b"/>
<rect x="12" y="18" width="9" height="1" fill="#224e7a"/>
<rect x="21" y="18" width="1" height="1" fill="#3e658c"/>
<rect x="22" y="18" width="3" height="1" fill="#7592ae"/>
<rect x="25" y="18" width="1" height="1" fill="#6585a4"/>
<rect x="26" y="18" width="1" height="1" fill="#527598"/>
<rect x="27" y="18" width="1" height="1" fill="#537598"/>
<rect x="28" y="18" width="1" height="1" fill="#8b9bad"/>
<rect x="4" y="19" width="1" height="1" fill="#68829b"/>
<rect x="5" y="19" width="1" height="1" fill="#345c85"/>
<rect x="6" y="19" width="1" height="1" fill="#335c84"/>
<rect x="7" y="19" width="1" height="1" fill="#6282a2"/>
<rect x="8" y="19" width="3" height="1" fill="#7592ae"/>
<rect x="11" y="19" width="1" height="1" fill="#486d92"/>
<rect x="12" y="19" width="8" height="1" fill="#224e7a"/>
<rect x="20" y="19" width="1" height="1" fill="#29547e"/>
<rect x="21" y="19" width="1" height="1" fill="#6b8aa8"/>
<rect x="22" y="19" width="3" height="1" fill="#7592ae"/>
<rect x="25" y="19" width="1" height="1" fill="#56799b"/>
<rect x="26" y="19" width="1" height="1" fill="#4f7296"/>
<rect x="27" y="19" width="1" height="1" fill="#507397"/>
<rect x="3" y="20" width="1" height="1" fill="#8294a6"/>
<rect x="4" y="20" width="1" height="1" fill="#335c84"/>
<rect x="5" y="20" width="1" height="1" fill="#315a83"/>
<rect x="6" y="20" width="1" height="1" fill="#305a83"/>
<rect x="7" y="20" width="1" height="1" fill="#40678d"/>
<rect x="8" y="20" width="3" height="1" fill="#7592ae"/>
<rect x="11" y="20" width="1" height="1" fill="#7491ae"/>
<rect x="12" y="20" width="1" height="1" fill="#476d92"/>
<rect x="13" y="20" width="6" height="1" fill="#224e7a"/>
<rect x="19" y="20" width="1" height="1" fill="#2d5781"/>
<rect x="20" y="20" width="1" height="1" fill="#6686a5"/>
<rect x="21" y="20" width="3" height="1" fill="#7592ae"/>
<rect x="24" y="20" width="1" height="1" fill="#6989a7"/>
<rect x="25" y="20" width="1" height="1" fill="#4b6f93"/>
<rect x="26" y="20" width="1" height="1" fill="#4d7195"/>
<rect x="27" y="20" width="1" height="1" fill="#4e7296"/>
<rect x="28" y="20" width="1" height="1" fill="#64809e"/>
<rect x="2" y="21" width="1" height="1" fill="#7e91a4"/>
<rect x="3" y="21" width="1" height="1" fill="#315a83"/>
<rect x="4" y="21" width="1" height="1" fill="#305a83"/>
<rect x="5" y="21" width="1" height="1" fill="#2f5982"/>
<rect x="6" y="21" width="1" height="1" fill="#2e5882"/>
<rect x="7" y="21" width="1" height="1" fill="#2d5781"/>
<rect x="8" y="21" width="1" height="1" fill="#587a9c"/>
<rect x="9" y="21" width="4" height="1" fill="#7592ae"/>
<rect x="13" y="21" width="1" height="1" fill="#6484a4"/>
<rect x="14" y="21" width="1" height="1" fill="#43698f"/>
<rect x="15" y="21" width="1" height="1" fill="#315b84"/>
<rect x="16" y="21" width="1" height="1" fill="#2e5882"/>
<rect x="17" y="21" width="1" height="1" fill="#386088"/>
<rect x="18" y="21" width="1" height="1" fill="#527598"/>
<rect x="19" y="21" width="1" height="1" fill="#7290ad"/>
<rect x="20" y="21" width="3" height="1" fill="#7592ae"/>
<rect x="23" y="21" width="1" height="1" fill="#7390ad"/>
<rect x="24" y="21" width="1" height="1" fill="#4e7295"/>
<rect x="25" y="21" width="1" height="1" fill="#496e92"/>
<rect x="26" y="21" width="1" height="1" fill="#4a6f93"/>
<rect x="27" y="21" width="1" height="1" fill="#4c7094"/>
<rect x="28" y="21" width="1" height="1" fill="#4d7195"/>
<rect x="29" y="21" width="1" height="1" fill="#5e7d9c"/>
<rect x="2" y="22" width="1" height="1" fill="#8c9baa"/>
<rect x="3" y="22" width="1" height="1" fill="#2f5982"/>
<rect x="4" y="22" width="1" height="1" fill="#2e5882"/>
<rect x="5" y="22" width="2" height="1" fill="#2d5781"/>
<rect x="7" y="22" width="1" height="1" fill="#2b557f"/>
<rect x="8" y="22" width="1" height="1" fill="#2b567f"/>
<rect x="9" y="22" width="1" height="1" fill="#6182a2"/>
<rect x="10" y="22" width="12" height="1" fill="#7592ae"/>
<rect x="22" y="22" width="1" height="1" fill="#7491ad"/>
<rect x="23" y="22" width="1" height="1" fill="#537599"/>
<rect x="24" y="22" width="1" height="1" fill="#466b90"/>
<rect x="25" y="22" width="1" height="1" fill="#476c91"/>
<rect x="26" y="22" width="1" height="1" fill="#486d92"/>
<rect x="27" y="22" width="1" height="1" fill="#4a6f93"/>
<rect x="28" y="22" width="1" height="1" fill="#4b6f93"/>
<rect x="29" y="22" width="1" height="1" fill="#5d7c9b"/>
<rect x="3" y="23" width="1" height="1" fill="#486b8d"/>
<rect x="4" y="23" width="1" height="1" fill="#2d5781"/>
<rect x="5" y="23" width="1" height="1" fill="#2c5680"/>
<rect x="6" y="23" width="1" height="1" fill="#2b557f"/>
<rect x="7" y="23" width="2" height="1" fill="#29547e"/>
<rect x="9" y="23" width="1" height="1" fill="#29547f"/>
<rect x="10" y="23" width="1" height="1" fill="#577a9b"/>
<rect x="11" y="23" width="10" height="1" fill="#7592ae"/>
<rect x="21" y="23" width="1" height="1" fill="#6f8eab"/>
<rect x="22" y="23" width="1" height="1" fill="#4f7296"/>
<rect x="23" y="23" width="1" height="1" fill="#44698f"/>
<rect x="24" y="23" width="1" height="1" fill="#456a90"/>
<rect x="25" y="23" width="1" height="1" fill="#466b90"/>
<rect x="26" y="23" width="1" height="1" fill="#476c91"/>
<rect x="27" y="23" width="1" height="1" fill="#486d92"/>
<rect x="28" y="23" width="1" height="1" fill="#496e92"/>
<rect x="29" y="23" width="1" height="1" fill="#9aa6b2"/>
<rect x="3" y="24" width="1" height="1" fill="#a1aab3"/>
<rect x="4" y="24" width="1" height="1" fill="#46698c"/>
<rect x="5" y="24" width="1" height="1" fill="#788ca1"/>
<rect x="7" y="24" width="1" height="1" fill="#72899e"/>
<rect x="8" y="24" width="1" height="1" fill="#27527d"/>
<rect x="9" y="24" width="1" height="1" fill="#25517c"/>
<rect x="10" y="24" width="1" height="1" fill="#234f7b"/>
<rect x="11" y="24" width="1" height="1" fill="#386088"/>
<rect x="12" y="24" width="1" height="1" fill="#6182a2"/>
<rect x="13" y="24" width="6" height="1" fill="#7592ae"/>
<rect x="19" y="24" width="1" height="1" fill="#718fab"/>
<rect x="20" y="24" width="1" height="1" fill="#5a7c9d"/>
<rect x="21" y="24" width="1" height="1" fill="#40678d"/>
<rect x="22" y="24" width="1" height="1" fill="#40668c"/>
<rect x="23" y="24" width="1" height="1" fill="#42688e"/>
<rect x="24" y="24" width="1" height="1" fill="#507294"/>
<rect x="25" y="24" width="1" height="1" fill="#a4acb5"/>
<rect x="26" y="24" width="1" height="1" fill="#8c9cac"/>
<rect x="27" y="24" width="1" height="1" fill="#64809d"/>
<rect x="28" y="24" width="1" height="1" fill="#6d86a0"/>
<rect x="8" y="25" width="1" height="1" fill="#27527d"/>
<rect x="9" y="25" width="1" height="1" fill="#24507b"/>
<rect x="10" y="25" width="2" height="1" fill="#224e7a"/>
<rect x="12" y="25" width="1" height="1" fill="#24507b"/>
<rect x="13" y="25" width="1" height="1" fill="#305983"/>
<rect x="14" y="25" width="1" height="1" fill="#456a8f"/>
<rect x="15" y="25" width="1" height="1" fill="#4f7396"/>
<rect x="16" y="25" width="1" height="1" fill="#527698"/>
<rect x="17" y="25" width="1" height="1" fill="#4e7296"/>
<rect x="18" y="25" width="1" height="1" fill="#446a8f"/>
<rect x="19" y="25" width="1" height="1" fill="#396189"/>
<rect x="20" y="25" width="1" height="1" fill="#3a6289"/>
<rect x="21" y="25" width="1" height="1" fill="#3c638a"/>
<rect x="22" y="25" width="1" height="1" fill="#3e658b"/>
<rect x="23" y="25" width="1" height="1" fill="#40668c"/>
<rect x="24" y="25" width="1" height="1" fill="#758ca2"/>
<rect x="7" y="26" width="1" height="1" fill="#8293a5"/>
<rect x="8" y="26" width="1" height="1" fill="#24507b"/>
<rect x="9" y="26" width="2" height="1" fill="#224e7a"/>
<rect x="11" y="26" width="1" height="1" fill="#234f7b"/>
<rect x="12" y="26" width="1" height="1" fill="#25517c"/>
<rect x="13" y="26" width="1" height="1" fill="#28537d"/>
<rect x="14" y="26" width="1" height="1" fill="#2a547e"/>
<rect x="15" y="26" width="1" height="1" fill="#2d5781"/>
<rect x="16" y="26" width="1" height="1" fill="#2f5982"/>
<rect x="17" y="26" width="1" height="1" fill="#325b84"/>
<rect x="18" y="26" width="1" height="1" fill="#345d85"/>
<rect x="19" y="26" width="1" height="1" fill="#375f87"/>
<rect x="20" y="26" width="1" height="1" fill="#396188"/>
<rect x="21" y="26" width="1" height="1" fill="#3b638a"/>
<rect x="22" y="26" width="1" height="1" fill="#3d648b"/>
<rect x="23" y="26" width="1" height="1" fill="#3f668c"/>
<rect x="24" y="26" width="1" height="1" fill="#4a6e91"/>
<rect x="7" y="27" width="1" height="1" fill="#4f6f8f"/>
<rect x="8" y="27" width="1" height="1" fill="#234f7b"/>
<rect x="9" y="27" width="2" height="1" fill="#224e7a"/>
<rect x="11" y="27" width="1" height="1" fill="#24507b"/>
<rect x="12" y="27" width="1" height="1" fill="#597693"/>
<rect x="13" y="27" width="1" height="1" fill="#3d6286"/>
<rect x="14" y="27" width="1" height="1" fill="#2b557f"/>
<rect x="15" y="27" width="1" height="1" fill="#2d5781"/>
<rect x="16" y="27" width="1" height="1" fill="#2f5982"/>
<rect x="17" y="27" width="1" height="1" fill="#315a83"/>
<rect x="18" y="27" width="1" height="1" fill="#396187"/>
<rect x="19" y="27" width="1" height="1" fill="#5d7a96"/>
<rect x="20" y="27" width="1" height="1" fill="#4f6f91"/>
<rect x="21" y="27" width="1" height="1" fill="#3a6289"/>
<rect x="22" y="27" width="1" height="1" fill="#3c638a"/>
<rect x="23" y="27" width="1" height="1" fill="#3e658b"/>
<rect x="24" y="27" width="1" height="1" fill="#40668c"/>
<rect x="25" y="27" width="1" height="1" fill="#9ba6b1"/>
<rect x="7" y="28" width="1" height="1" fill="#9ea7b1"/>
<rect x="8" y="28" width="1" height="1" fill="#3c6186"/>
<rect x="9" y="28" width="1" height="1" fill="#224e7a"/>
<rect x="10" y="28" width="1" height="1" fill="#234f7b"/>
<rect x="11" y="28" width="1" height="1" fill="#6e859c"/>
<rect x="13" y="28" width="1" height="1" fill="#a5adb4"/>
<rect x="14" y="28" width="1" height="1" fill="#2b557f"/>
<rect x="15" y="28" width="1" height="1" fill="#2d5781"/>
<rect x="16" y="28" width="1" height="1" fill="#2f5982"/>
<rect x="17" y="28" width="1" height="1" fill="#315a83"/>
<rect x="18" y="28" width="1" height="1" fill="#738a9f"/>
<rect x="21" y="28" width="1" height="1" fill="#496c8f"/>
<rect x="22" y="28" width="1" height="1" fill="#3b638a"/>
<rect x="23" y="28" width="1" height="1" fill="#3f658c"/>
<rect x="24" y="28" width="1" height="1" fill="#7b90a4"/>
<rect x="9" y="29" width="1" height="1" fill="#8294a5"/>
<rect x="10" y="29" width="1" height="1" fill="#657f98"/>
<rect x="14" y="29" width="1" height="1" fill="#325a83"/>
<rect x="15" y="29" width="1" height="1" fill="#2d5782"/>
<rect x="16" y="29" width="1" height="1" fill="#305a83"/>
<rect x="17" y="29" width="1" height="1" fill="#315b84"/>
<rect x="18" y="29" width="1" height="1" fill="#8f9dac"/>
<rect x="22" y="29" width="1" height="1" fill="#6c859e"/>
<rect x="14" y="30" width="1" height="1" fill="#577593"/>
<rect x="15" y="30" width="1" height="1" fill="#305a83"/>
<rect x="16" y="30" width="1" height="1" fill="#315b83"/>
<rect x="17" y="30" width="1" height="1" fill="#396087"/>
</svg>