<svg xmlns="http://www.w3.org/2000/svg" width="32" height="32" viewBox="0 0 32 32" shape-rendering="crispEdges">
<rect x="1" y="6" width="1" height="1" fill="#97a2ae"/>
<rect x="2" y="6" width="28" height="1" fill="#93a0ac"/>
<rect x="30" y="6" width="1" height="1" fill="#95a1ad"/>
<rect x="0" y="7" width="1" height="1" fill="#8f9daa"/>
<rect x="1" y="7" width="19" height="1" fill="#224e7a"/>
<rect x="20" y="7" width="1" height="1" fill="#27537e"/>
<rect x="21" y="7" width="1" height="1" fill="#386088"/>
<rect x="22" y="7" width="1" height="1" fill="#2d5781"/>
<rect x="23" y="7" width="8" height="1" fill="#224e7a"/>
<rect x="31" y="7" width="1" height="1" fill="#8595a6"/>
<rect x="0" y="8" width="1" height="1" fill="#8b9aa9"/>
<rect x="1" y="8" width="19" height="1" fill="#224e7a"/>
<rect x="20" y="8" width="1" height="1" fill="#234f7b"/>
<rect x="21" y="8" width="1" height="1" fill="#85a0ba"/>
<rect x="22" y="8" width="1" height="1" fill="#b6c8d9"/>
<rect x="23" y="8" width="1" height="1" fill="#b7c8da"/>
<rect x="24" y="8" width="1" height="1" fill="#afc1d4"/>
<rect x="25" y="8" width="1" height="1" fill="#a4b9cd"/>
<rect x="26" y="8" width="1" height="1" fill="#a5b8cc"/>
<rect x="27" y="8" width="1" height="1" fill="#2d5781"/>
<rect x="28" y="8" width="3" height="1" fill="#224e7a"/>
<rect x="31" y="8" width="1" height="1" fill="#8192a4"/>
<rect x="0" y="9" width="1" height="1" fill="#8b9aa9"/>
<rect x="1" y="9" width="20" height="1" fill="#224e7a"/>
<rect x="21" y="9" width="1" height="1" fill="#28537e"/>
<rect x="22" y="9" width="1" height="1" fill="#95adc6"/>
<rect x="23" y="9" width="1" height="1" fill="#b2c5d7"/>
<rect x="24" y="9" width="1" height="1" fill="#b6c8d9"/>
<rect x="25" y="9" width="1" height="1" fill="#b9cadb"/>
<rect x="26" y="9" width="1" height="1" fill="#bcccdd"/>
<rect x="27" y="9" width="1" height="1" fill="#234f7b"/>
<rect x="28" y="9" width="3" height="1" fill="#224e7a"/>
<rect x="31" y="9" width="1" height="1" fill="#8192a4"/>
<rect x="0" y="10" width="1" height="1" fill="#8b9aa9"/>
<rect x="1" y="10" width="21" height="1" fill="#224e7a"/>
<rect x="22" y="10" width="1" height="1" fill="#4b7197"/>
<rect x="23" y="10" width="1" height="1" fill="#a7bdd2"/>
<rect x="24" y="10" width="1" height="1" fill="#aec2d6"/>
<rect x="25" y="10" width="1" height="1" fill="#b2c5d7"/>
<rect x="26" y="10" width="1" height="1" fill="#a6bbcf"/>
<rect x="27" y="10" width="4" height="1" fill="#224e7a"/>
<rect x="31" y="10" width="1" height="1" fill="#8192a4"/>
<rect x="0" y="11" width="1" height="1" fill="#8b9aa9"/>
<rect x="1" y="11" width="20" height="1" fill="#224e7a"/>
<rect x="21" y="11" width="1" height="1" fill="#53789d"/>
<rect x="22" y="11" width="1" height="1" fill="#8aa7c3"/>
<rect x="23" y="11" width="1" height="1" fill="#91acc7"/>
<rect x="24" y="11" width="1" height="1" fill="#a6bcd2"/>
<rect x="25" y="11" width="1" height="1" fill="#aabfd4"/>
<rect x="26" y="11" width="1" height="1" fill="#91aac2"/>
<rect x="27" y="11" width="4" height="1" fill="#224e7a"/>
<rect x="31" y="11" width="1" height="1" fill="#8192a4"/>
<rect x="0" y="12" width="1" height="1" fill="#8b9aa9"/>
<rect x="1" y="12" width="18" height="1" fill="#224e7a"/>
<rect x="19" y="12" width="1" height="1" fill="#27537e"/>
<rect x="20" y="12" width="1" height="1" fill="#6a8cad"/>
<rect x="21" y="12" width="2" height="1" fill="#8ba8c4"/>
<rect x="23" y="12" width="1" height="1" fill="#6285a7"/>
<rect x="24" y="12" width="1" height="1" fill="#54789b"/>
<rect x="25" y="12" width="1" height="1" fill="#a3bad0"/>
<rect x="26" y="12" width="1" height="1" fill="#7d9ab7"/>
<rect x="27" y="12" width="4" height="1" fill="#224e7a"/>
<rect x="31" y="12" width="1" height="1" fill="#8192a4"/>
<rect x="0" y="13" width="1" height="1" fill="#8b9aa9"/>
<rect x="1" y="13" width="9" height="1" fill="#224e7a"/>
<rect x="10" y="13" width="1" height="1" fill="#234f7b"/>
<rect x="11" y="13" width="1" height="1" fill="#587da0"/>
<rect x="12" y="13" width="1" height="1" fill="#7393b3"/>
<rect x="13" y="13" width="1" height="1" fill="#2d5782"/>
<rect x="14" y="13" width="4" height="1" fill="#224e7a"/>
<rect x="18" y="13" width="1" height="1" fill="#335d87"/>
<rect x="19" y="13" width="1" height="1" fill="#7b9bb9"/>
<rect x="20" y="13" width="1" height="1" fill="#8ba8c4"/>
<rect x="21" y="13" width="1" height="1" fill="#88a5c2"/>
<rect x="22" y="13" width="1" height="1" fill="#4b7197"/>
<rect x="23" y="13" width="2" height="1" fill="#224e7a"/>
<rect x="25" y="13" width="1" height="1" fill="#6889a9"/>
<rect x="26" y="13" width="1" height="1" fill="#6b8bab"/>
<rect x="27" y="13" width="4" height="1" fill="#224e7a"/>
<rect x="31" y="13" width="1" height="1" fill="#8192a4"/>
<rect x="0" y="14" width="1" height="1" fill="#8b9aa9"/>
<rect x="1" y="14" width="8" height="1" fill="#224e7a"/>
<rect x="9" y="14" width="1" height="1" fill="#295580"/>
<rect x="10" y="14" width="1" height="1" fill="#6e8fb0"/>
<rect x="11" y="14" width="2" height="1" fill="#8ba8c4"/>
<rect x="13" y="14" width="1" height="1" fill="#82a0be"/>
<rect x="14" y="14" width="1" height="1" fill="#3c648c"/>
<rect x="15" y="14" width="2" height="1" fill="#224e7a"/>
<rect x="17" y="14" width="1" height="1" fill="#466d94"/>
<rect x="18" y="14" width="1" height="1" fill="#86a4c1"/>
<rect x="19" y="14" width="1" height="1" fill="#8ba8c4"/>
<rect x="20" y="14" width="1" height="1" fill="#7e9dbb"/>
<rect x="21" y="14" width="1" height="1" fill="#376089"/>
<rect x="22" y="14" width="3" height="1" fill="#224e7a"/>
<rect x="25" y="14" width="1" height="1" fill="#234f7b"/>
<rect x="26" y="14" width="1" height="1" fill="#3d658c"/>
<rect x="27" y="14" width="4" height="1" fill="#224e7a"/>
<rect x="31" y="14" width="1" height="1" fill="#8192a4"/>
<rect x="0" y="15" width="1" height="1" fill="#8b9aa9"/>
<rect x="1" y="15" width="7" height="1" fill="#224e7a"/>
<rect x="8" y="15" width="1" height="1" fill="#376089"/>
<rect x="9" y="15" width="1" height="1" fill="#7e9dbb"/>
<rect x="10" y="15" width="1" height="1" fill="#8ba8c4"/>
<rect x="11" y="15" width="1" height="1" fill="#86a4c1"/>
<rect x="12" y="15" width="1" height="1" fill="#7a99b8"/>
<rect x="13" y="15" width="1" height="1" fill="#8ba8c4"/>
<rect x="14" y="15" width="1" height="1" fill="#89a7c3"/>
<rect x="15" y="15" width="1" height="1" fill="#52779c"/>
<rect x="16" y="15" width="1" height="1" fill="#5d80a4"/>
<rect x="17" y="15" width="2" height="1" fill="#8ba8c4"/>
<rect x="19" y="15" width="1" height="1" fill="#6e8fb0"/>
<rect x="20" y="15" width="1" height="1" fill="#295580"/>
<rect x="21" y="15" width="10" height="1" fill="#224e7a"/>
<rect x="31" y="15" width="1" height="1" fill="#8192a4"/>
<rect x="0" y="16" width="1" height="1" fill="#8b9aa9"/>
<rect x="1" y="16" width="6" height="1" fill="#224e7a"/>
<rect x="7" y="16" width="1" height="1" fill="#497096"/>
<rect x="8" y="16" width="1" height="1" fill="#87a5c2"/>
<rect x="9" y="16" width="1" height="1" fill="#8ba8c4"/>
<rect x="10" y="16" width="1" height="1" fill="#7b9bb9"/>
<rect x="11" y="16" width="1" height="1" fill="#345d87"/>
<rect x="12" y="16" width="1" height="1" fill="#25517d"/>
<rect x="13" y="16" width="1" height="1" fill="#6486a9"/>
<rect x="14" y="16" width="4" height="1" fill="#8ba8c4"/>
<rect x="18" y="16" width="1" height="1" fill="#587ca0"/>
<rect x="19" y="16" width="1" height="1" fill="#234f7b"/>
<rect x="20" y="16" width="2" height="1" fill="#224e7a"/>
<rect x="22" y="16" width="1" height="1" fill="#305a84"/>
<rect x="23" y="16" width="2" height="1" fill="#597ea1"/>
<rect x="25" y="16" width="1" height="1" fill="#416990"/>
<rect x="26" y="16" width="5" height="1" fill="#224e7a"/>
<rect x="31" y="16" width="1" height="1" fill="#8192a4"/>
<rect x="0" y="17" width="1" height="1" fill="#8b9aa9"/>
<rect x="1" y="17" width="4" height="1" fill="#224e7a"/>
<rect x="5" y="17" width="1" height="1" fill="#25507c"/>
<rect x="6" y="17" width="1" height="1" fill="#6083a6"/>
<rect x="7" y="17" width="2" height="1" fill="#8ba8c4"/>
<rect x="9" y="17" width="1" height="1" fill="#6a8cad"/>
<rect x="10" y="17" width="1" height="1" fill="#28537e"/>
<rect x="11" y="17" width="3" height="1" fill="#224e7a"/>
<rect x="14" y="17" width="1" height="1" fill="#4e7499"/>
<rect x="15" y="17" width="1" height="1" fill="#89a6c3"/>
<rect x="16" y="17" width="1" height="1" fill="#84a2c0"/>
<rect x="17" y="17" width="1" height="1" fill="#426991"/>
<rect x="18" y="17" width="4" height="1" fill="#224e7a"/>
<rect x="22" y="17" width="1" height="1" fill="#3b648c"/>
<rect x="23" y="17" width="3" height="1" fill="#87a5c2"/>
<rect x="26" y="17" width="1" height="1" fill="#577ba0"/>
<rect x="27" y="17" width="4" height="1" fill="#224e7a"/>
<rect x="31" y="17" width="1" height="1" fill="#8192a4"/>
<rect x="0" y="18" width="1" height="1" fill="#8b9aa9"/>
<rect x="1" y="18" width="3" height="1" fill="#224e7a"/>
<rect x="4" y="18" width="1" height="1" fill="#26517d"/>
<rect x="5" y="18" width="1" height="1" fill="#7495b4"/>
<rect x="6" y="18" width="1" height="1" fill="#8ba8c4"/>
<rect x="7" y="18" width="1" height="1" fill="#8aa7c3"/>
<rect x="8" y="18" width="1" height="1" fill="#53789d"/>
<rect x="9" y="18" width="6" height="1" fill="#224e7a"/>
<rect x="15" y="18" width="1" height="1" fill="#38618a"/>
<rect x="16" y="18" width="1" height="1" fill="#315b85"/>
<rect x="17" y="18" width="5" height="1" fill="#224e7a"/>
<rect x="22" y="18" width="1" height="1" fill="#3a638c"/>
<rect x="23" y="18" width="4" height="1" fill="#83a2c0"/>
<rect x="27" y="18" width="4" height="1" fill="#224e7a"/>
<rect x="31" y="18" width="1" height="1" fill="#8192a4"/>
<rect x="0" y="19" width="1" height="1" fill="#8b9aa9"/>
<rect x="1" y="19" width="4" height="1" fill="#224e7a"/>
<rect x="5" y="19" width="1" height="1" fill="#6083a6"/>
<rect x="6" y="19" width="1" height="1" fill="#83a1be"/>
<rect x="7" y="19" width="1" height="1" fill="#3e668e"/>
<rect x="8" y="19" width="5" height="1" fill="#224e7a"/>
<rect x="13" y="19" width="1" height="1" fill="#3d658d"/>
<rect x="14" y="19" width="1" height="1" fill="#6386a8"/>
<rect x="15" y="19" width="1" height="1" fill="#335d86"/>
<rect x="16" y="19" width="1" height="1" fill="#3f678f"/>
<rect x="17" y="19" width="1" height="1" fill="#5a7ea2"/>
<rect x="18" y="19" width="4" height="1" fill="#224e7a"/>
<rect x="22" y="19" width="1" height="1" fill="#39638b"/>
<rect x="23" y="19" width="4" height="1" fill="#7f9fbe"/>
<rect x="27" y="19" width="4" height="1" fill="#224e7a"/>
<rect x="31" y="19" width="1" height="1" fill="#8192a4"/>
<rect x="0" y="20" width="1" height="1" fill="#8b9aa9"/>
<rect x="1" y="20" width="3" height="1" fill="#224e7a"/>
<rect x="4" y="20" width="2" height="1" fill="#376089"/>
<rect x="6" y="20" width="1" height="1" fill="#2d5882"/>
<rect x="7" y="20" width="1" height="1" fill="#416990"/>
<rect x="8" y="20" width="1" height="1" fill="#3a638b"/>
<rect x="9" y="20" width="4" height="1" fill="#224e7a"/>
<rect x="13" y="20" width="1" height="1" fill="#4a7197"/>
<rect x="14" y="20" width="1" height="1" fill="#85a4c1"/>
<rect x="15" y="20" width="1" height="1" fill="#7c9cbb"/>
<rect x="16" y="20" width="1" height="1" fill="#82a1bf"/>
<rect x="17" y="20" width="1" height="1" fill="#7798b7"/>
<rect x="18" y="20" width="4" height="1" fill="#224e7a"/>
<rect x="22" y="20" width="1" height="1" fill="#38628b"/>
<rect x="23" y="20" width="4" height="1" fill="#7b9cbc"/>
<rect x="27" y="20" width="4" height="1" fill="#224e7a"/>
<rect x="31" y="20" width="1" height="1" fill="#8192a4"/>
<rect x="0" y="21" width="1" height="1" fill="#8b9aa9"/>
<rect x="1" y="21" width="3" height="1" fill="#224e7a"/>
<rect x="4" y="21" width="1" height="1" fill="#537a9f"/>
<rect x="5" y="21" width="1" height="1" fill="#7195b6"/>
<rect x="6" y="21" width="1" height="1" fill="#52799e"/>
<rect x="7" y="21" width="1" height="1" fill="#799bbb"/>
<rect x="8" y="21" width="1" height="1" fill="#5d83a6"/>
<rect x="9" y="21" width="4" height="1" fill="#224e7a"/>
<rect x="13" y="21" width="1" height="1" fill="#486f96"/>
<rect x="14" y="21" width="3" height="1" fill="#80a0be"/>
<rect x="17" y="21" width="1" height="1" fill="#7294b4"/>
<rect x="18" y="21" width="4" height="1" fill="#224e7a"/>
<rect x="22" y="21" width="1" height="1" fill="#37618a"/>
<rect x="23" y="21" width="4" height="1" fill="#7799ba"/>
<rect x="27" y="21" width="4" height="1" fill="#224e7a"/>
<rect x="31" y="21" width="1" height="1" fill="#8192a4"/>
<rect x="0" y="22" width="1" height="1" fill="#8b9aa9"/>
<rect x="1" y="22" width="3" height="1" fill="#224e7a"/>
<rect x="4" y="22" width="1" height="1" fill="#51789e"/>
<rect x="5" y="22" width="3" height="1" fill="#7195b7"/>
<rect x="8" y="22" width="1" height="1" fill="#577da3"/>
<rect x="9" y="22" width="4" height="1" fill="#224e7a"/>
<rect x="13" y="22" width="1" height="1" fill="#466e95"/>
<rect x="14" y="22" width="3" height="1" fill="#7a9cbb"/>
<rect x="17" y="22" width="1" height="1" fill="#6d91b2"/>
<rect x="18" y="22" width="4" height="1" fill="#224e7a"/>
<rect x="22" y="22" width="1" height="1" fill="#36608a"/>
<rect x="23" y="22" width="4" height="1" fill="#7396b8"/>
<rect x="27" y="22" width="4" height="1" fill="#224e7a"/>
<rect x="31" y="22" width="1" height="1" fill="#8192a4"/>
<rect x="0" y="23" width="1" height="1" fill="#8b9aa9"/>
<rect x="1" y="23" width="3" height="1" fill="#224e7a"/>
<rect x="4" y="23" width="1" height="1" fill="#4f769d"/>
<rect x="5" y="23" width="3" height="1" fill="#6e92b5"/>
<rect x="8" y="23" width="1" height="1" fill="#547ba1"/>
<rect x="9" y="23" width="4" height="1" fill="#224e7a"/>
<rect x="13" y="23" width="1" height="1" fill="#446c94"/>
<rect x="14" y="23" width="3" height="1" fill="#7598b9"/>
<rect x="17" y="23" width="1" height="1" fill="#698db0"/>
<rect x="18" y="23" width="4" height="1" fill="#224e7a"/>
<rect x="22" y="23" width="1" height="1" fill="#355f89"/>
<rect x="23" y="23" width="4" height="1" fill="#6f93b6"/>
<rect x="27" y="23" width="4" height="1" fill="#224e7a"/>
<rect x="31" y="23" width="1" height="1" fill="#8192a4"/>
<rect x="0" y="24" width="1" height="1" fill="#8b9aa9"/>
<rect x="1" y="24" width="3" height="1" fill="#224e7a"/>
<rect x="4" y="24" width="1" height="1" fill="#4c759c"/>
<rect x="5" y="24" width="3" height="1" fill="#6a90b3"/>
<rect x="8" y="24" width="1" height="1" fill="#527aa0"/>
<rect x="9" y="24" width="4" height="1" fill="#224e7a"/>
<rect x="13" y="24" width="1" height="1" fill="#426a93"/>
<rect x="14" y="24" width="3" height="1" fill="#7094b6"/>
<rect x="17" y="24" width="1" height="1" fill="#658aad"/>
<rect x="18" y="24" width="4" height="1" fill="#224e7a"/>
<rect x="22" y="24" width="1" height="1" fill="#345f89"/>
<rect x="23" y="24" width="4" height="1" fill="#6b90b4"/>
<rect x="27" y="24" width="4" height="1" fill="#224e7a"/>
<rect x="31" y="24" width="1" height="1" fill="#8192a4"/>
<rect x="0" y="25" width="1" height="1" fill="#8b9aa9"/>
<rect x="1" y="25" width="3" height="1" fill="#224e7a"/>
<rect x="4" y="25" width="1" height="1" fill="#4b739b"/>
<rect x="5" y="25" width="3" height="1" fill="#678db1"/>
<rect x="8" y="25" width="1" height="1" fill="#50789f"/>
<rect x="9" y="25" width="4" height="1" fill="#224e7a"/>
<rect x="13" y="25" width="1" height="1" fill="#3f6991"/>
<rect x="14" y="25" width="3" height="1" fill="#6a90b3"/>
<rect x="17" y="25" width="1" height="1" fill="#5f86ab"/>
<rect x="18" y="25" width="4" height="1" fill="#224e7a"/>
<rect x="22" y="25" width="1" height="1" fill="#335e88"/>
<rect x="23" y="25" width="4" height="1" fill="#678db2"/>
<rect x="27" y="25" width="4" height="1" fill="#224e7a"/>
<rect x="31" y="25" width="1" height="1" fill="#8192a4"/>
<rect x="0" y="26" width="1" height="1" fill="#8b9aa9"/>
<rect x="1" y="26" width="3" height="1" fill="#224e7a"/>
<rect x="4" y="26" width="1" height="1" fill="#467099"/>
<rect x="5" y="26" width="2" height="1" fill="#6088ae"/>
<rect x="7" y="26" width="1" height="1" fill="#6188ae"/>
<rect x="8" y="26" width="1" height="1" fill="#4c759d"/>
<rect x="9" y="26" width="4" height="1" fill="#224e7a"/>
<rect x="13" y="26" width="1" height="1" fill="#3d6790"/>
<rect x="14" y="26" width="3" height="1" fill="#658cb0"/>
<rect x="17" y="26" width="1" height="1" fill="#5b83a8"/>
<rect x="18" y="26" width="4" height="1" fill="#224e7a"/>
<rect x="22" y="26" width="1" height="1" fill="#325d88"/>
<rect x="23" y="26" width="4" height="1" fill="#638ab0"/>
<rect x="27" y="26" width="4" height="1" fill="#224e7a"/>
<rect x="31" y="26" width="1" height="1" fill="#8192a4"/>
<rect x="0" y="27" width="1" height="1" fill="#8b9aa9"/>
<rect x="1" y="27" width="3" height="1" fill="#224e7a"/>
<rect x="4" y="27" width="1" height="1" fill="#325d88"/>
<rect x="5" y="27" width="3" height="1" fill="#3e6892"/>
<rect x="8" y="27" width="1" height="1" fill="#345f8a"/>
<rect x="9" y="27" width="4" height="1" fill="#224e7a"/>
<rect x="13" y="27" width="1" height="1" fill="#2e5a85"/>
<rect x="14" y="27" width="3" height="1" fill="#416b94"/>
<rect x="17" y="27" width="1" height="1" fill="#3c6790"/>
<rect x="18" y="27" width="4" height="1" fill="#224e7a"/>
<rect x="22" y="27" width="1" height="1" fill="#2a5581"/>
<rect x="23" y="27" width="4" height="1" fill="#416b94"/>
<rect x="27" y="27" width="4" height="1" fill="#224e7a"/>
<rect x="31" y="27" width="1" height="1" fill="#8192a4"/>
<rect x="0" y="28" width="1" height="1" fill="#8b9aa9"/>
<rect x="1" y="28" width="30" height="1" fill="#224e7a"/>
<rect x="31" y="28" width="1" height="1" fill="#8192a4"/>
<rect x="1" y="29" width="30" height="1" fill="#7d90a2"/>
<rect x="31" y="29" width="1" height="1" fill="#a6adb4"/>
</svg>