<svg xmlns="http://www.w3.org/2000/svg" width="32" height="32" viewBox="0 0 32 32" shape-rendering="crispEdges">
<rect x="18" y="1" width="1" height="1" fill="#a0aab4"/>
<rect x="19" y="1" width="1" height="1" fill="#9faab4"/>
<rect x="20" y="1" width="1" height="1" fill="#a4adb6"/>
<rect x="13" y="2" width="1" height="1" fill="#8899aa"/>
<rect x="14" y="2" width="1" height="1" fill="#637f9c"/>
<rect x="15" y="2" width="1" height="1" fill="#4b6f93"/>
<rect x="16" y="2" width="1" height="1" fill="#436a91"/>
<rect x="17" y="2" width="1" height="1" fill="#456c93"/>
<rect x="18" y="2" width="1" height="1" fill="#486e94"/>
<rect x="19" y="2" width="1" height="1" fill="#4a7096"/>
<rect x="20" y="2" width="1" height="1" fill="#4c7298"/>
<rect x="21" y="2" width="1" height="1" fill="#4f7499"/>
<rect x="22" y="2" width="1" height="1" fill="#54789c"/>
<rect x="23" y="2" width="1" height="1" fill="#6c88a5"/>
<rect x="24" y="2" width="1" height="1" fill="#8d9fb0"/>
<rect x="10" y="3" width="1" height="1" fill="#9da7b2"/>
<rect x="11" y="3" width="1" height="1" fill="#607d99"/>
<rect x="12" y="3" width="1" height="1" fill="#3a638a"/>
<rect x="13" y="3" width="1" height="1" fill="#3c648c"/>
<rect x="14" y="3" width="1" height="1" fill="#3e668e"/>
<rect x="15" y="3" width="1" height="1" fill="#41688f"/>
<rect x="16" y="3" width="1" height="1" fill="#436a91"/>
<rect x="17" y="3" width="1" height="1" fill="#456c93"/>
<rect x="18" y="3" width="1" height="1" fill="#486e94"/>
<rect x="19" y="3" width="1" height="1" fill="#4a7096"/>
<rect x="20" y="3" width="1" height="1" fill="#4c7298"/>
<rect x="21" y="3" width="1" height="1" fill="#4f7499"/>
<rect x="22" y="3" width="1" height="1" fill="#51769b"/>
<rect x="23" y="3" width="1" height="1" fill="#54789d"/>
<rect x="24" y="3" width="1" height="1" fill="#567b9f"/>
<rect x="25" y="3" width="1" height="1" fill="#6487a8"/>
<rect x="26" y="3" width="1" height="1" fill="#8ca2b7"/>
<rect x="9" y="4" width="1" height="1" fill="#5d7b97"/>
<rect x="10" y="4" width="1" height="1" fill="#355e87"/>
<rect x="11" y="4" width="1" height="1" fill="#376089"/>
<rect x="12" y="4" width="1" height="1" fill="#3a638b"/>
<rect x="13" y="4" width="1" height="1" fill="#557596"/>
<rect x="14" y="4" width="1" height="1" fill="#6a849f"/>
<rect x="15" y="4" width="1" height="1" fill="#798fa5"/>
<rect x="16" y="4" width="1" height="1" fill="#7d92a7"/>
<rect x="17" y="4" width="1" height="1" fill="#7b91a7"/>
<rect x="18" y="4" width="1" height="1" fill="#708aa3"/>
<rect x="19" y="4" width="1" height="1" fill="#617f9e"/>
<rect x="20" y="4" width="1" height="1" fill="#4e7399"/>
<rect x="21" y="4" width="1" height="1" fill="#4f7499"/>
<rect x="22" y="4" width="1" height="1" fill="#51769b"/>
<rect x="23" y="4" width="1" height="1" fill="#54789d"/>
<rect x="24" y="4" width="1" height="1" fill="#567b9f"/>
<rect x="25" y="4" width="1" height="1" fill="#6386a8"/>
<rect x="26" y="4" width="1" height="1" fill="#7091b1"/>
<rect x="27" y="4" width="1" height="1" fill="#819ebb"/>
<rect x="7" y="5" width="1" height="1" fill="#94a1ad"/>
<rect x="8" y="5" width="1" height="1" fill="#375f87"/>
<rect x="9" y="5" width="1" height="1" fill="#325c85"/>
<rect x="10" y="5" width="1" height="1" fill="#587795"/>
<rect x="11" y="5" width="1" height="1" fill="#909ead"/>
<rect x="21" y="5" width="1" height="1" fill="#9ea9b4"/>
<rect x="22" y="5" width="1" height="1" fill="#768fa8"/>
<rect x="23" y="5" width="1" height="1" fill="#577a9e"/>
<rect x="24" y="5" width="1" height="1" fill="#567b9f"/>
<rect x="25" y="5" width="1" height="1" fill="#6386a8"/>
<rect x="26" y="5" width="1" height="1" fill="#7091b1"/>
<rect x="27" y="5" width="1" height="1" fill="#7e9cba"/>
<rect x="6" y="6" width="1" height="1" fill="#8092a5"/>
<rect x="7" y="6" width="1" height="1" fill="#2e5982"/>
<rect x="8" y="6" width="1" height="1" fill="#4f7091"/>
<rect x="9" y="6" width="1" height="1" fill="#a2abb4"/>
<rect x="10" y="6" width="1" height="1" fill="#c0c0c0"/>
<rect x="11" y="6" width="1" height="1" fill="#bfbfc0"/>
<rect x="12" y="6" width="1" height="1" fill="#98a3ae"/>
<rect x="13" y="6" width="1" height="1" fill="#6d849b"/>
<rect x="14" y="6" width="1" height="1" fill="#506f8f"/>
<rect x="15" y="6" width="1" height="1" fill="#406388"/>
<rect x="16" y="6" width="1" height="1" fill="#3b6086"/>
<rect x="17" y="6" width="1" height="1" fill="#45688a"/>
<rect x="18" y="6" width="1" height="1" fill="#5d7994"/>
<rect x="19" y="6" width="1" height="1" fill="#8293a5"/>
<rect x="24" y="6" width="1" height="1" fill="#8096ac"/>
<rect x="25" y="6" width="1" height="1" fill="#6487a8"/>
<rect x="26" y="6" width="1" height="1" fill="#7091b1"/>
<rect x="27" y="6" width="1" height="1" fill="#96aabc"/>
<rect x="5" y="7" width="1" height="1" fill="#8a9aa9"/>
<rect x="6" y="7" width="1" height="1" fill="#2c5781"/>
<rect x="7" y="7" width="1" height="1" fill="#778da1"/>
<rect x="8" y="7" width="1" height="1" fill="#c0c0c0"/>
<rect x="9" y="7" width="1" height="1" fill="#bebfbf"/>
<rect x="10" y="7" width="1" height="1" fill="#8092a4"/>
<rect x="11" y="7" width="1" height="1" fill="#355c83"/>
<rect x="12" y="7" width="1" height="1" fill="#27527e"/>
<rect x="13" y="7" width="1" height="1" fill="#2a5681"/>
<rect x="14" y="7" width="1" height="1" fill="#2d5883"/>
<rect x="15" y="7" width="2" height="1" fill="#2d5984"/>
<rect x="17" y="7" width="1" height="1" fill="#2d5884"/>
<rect x="18" y="7" width="1" height="1" fill="#2b5682"/>
<rect x="19" y="7" width="1" height="1" fill="#28537f"/>
<rect x="20" y="7" width="1" height="1" fill="#25517d"/>
<rect x="21" y="7" width="1" height="1" fill="#5a7693"/>
<rect x="26" y="7" width="1" height="1" fill="#7e99b4"/>
<rect x="4" y="8" width="1" height="1" fill="#a6adb5"/>
<rect x="5" y="8" width="1" height="1" fill="#2e5881"/>
<rect x="6" y="8" width="1" height="1" fill="#8e9cab"/>
<rect x="7" y="8" width="1" height="1" fill="#c0c0c0"/>
<rect x="8" y="8" width="1" height="1" fill="#a7aeb5"/>
<rect x="9" y="8" width="1" height="1" fill="#3f6387"/>
<rect x="10" y="8" width="1" height="1" fill="#28547f"/>
<rect x="11" y="8" width="1" height="1" fill="#2e5984"/>
<rect x="12" y="8" width="1" height="1" fill="#305a86"/>
<rect x="13" y="8" width="5" height="1" fill="#315b86"/>
<rect x="18" y="8" width="1" height="1" fill="#305a86"/>
<rect x="19" y="8" width="1" height="1" fill="#2e5985"/>
<rect x="20" y="8" width="1" height="1" fill="#2d5984"/>
<rect x="21" y="8" width="1" height="1" fill="#2d5783"/>
<rect x="22" y="8" width="1" height="1" fill="#486e94"/>
<rect x="23" y="8" width="1" height="1" fill="#768b9f"/>
<rect x="4" y="9" width="1" height="1" fill="#496b8c"/>
<rect x="5" y="9" width="1" height="1" fill="#8394a6"/>
<rect x="6" y="9" width="1" height="1" fill="#c0c0c0"/>
<rect x="7" y="9" width="1" height="1" fill="#9aa5af"/>
<rect x="8" y="9" width="1" height="1" fill="#2b567f"/>
<rect x="9" y="9" width="1" height="1" fill="#2c5883"/>
<rect x="10" y="9" width="1" height="1" fill="#305a86"/>
<rect x="11" y="9" width="1" height="1" fill="#315c87"/>
<rect x="12" y="9" width="1" height="1" fill="#335e89"/>
<rect x="13" y="9" width="5" height="1" fill="#345e8a"/>
<rect x="18" y="9" width="1" height="1" fill="#335e89"/>
<rect x="19" y="9" width="1" height="1" fill="#315c87"/>
<rect x="20" y="9" width="1" height="1" fill="#4b7199"/>
<rect x="21" y="9" width="1" height="1" fill="#7d9bba"/>
<rect x="22" y="9" width="1" height="1" fill="#698cac"/>
<rect x="23" y="9" width="1" height="1" fill="#26527d"/>
<rect x="24" y="9" width="1" height="1" fill="#5a7793"/>
<rect x="3" y="10" width="1" height="1" fill="#909eab"/>
<rect x="4" y="10" width="1" height="1" fill="#597793"/>
<rect x="5" y="10" width="1" height="1" fill="#c0c0c0"/>
<rect x="6" y="10" width="1" height="1" fill="#a4acb4"/>
<rect x="7" y="10" width="1" height="1" fill="#2a557f"/>
<rect x="8" y="10" width="1" height="1" fill="#2e5985"/>
<rect x="9" y="10" width="1" height="1" fill="#315b86"/>
<rect x="10" y="10" width="1" height="1" fill="#335e89"/>
<rect x="11" y="10" width="1" height="1" fill="#355f8b"/>
<rect x="12" y="10" width="1" height="1" fill="#35608b"/>
<rect x="13" y="10" width="5" height="1" fill="#37628d"/>
<rect x="18" y="10" width="1" height="1" fill="#3c6690"/>
<rect x="19" y="10" width="1" height="1" fill="#6588aa"/>
<rect x="20" y="10" width="1" height="1" fill="#7a99b7"/>
<rect x="21" y="10" width="1" height="1" fill="#7f9ebb"/>
<rect x="22" y="10" width="1" height="1" fill="#6487a9"/>
<rect x="23" y="10" width="1" height="1" fill="#2c5883"/>
<rect x="24" y="10" width="1" height="1" fill="#27527e"/>
<rect x="25" y="10" width="1" height="1" fill="#607b96"/>
<rect x="3" y="11" width="1" height="1" fill="#577492"/>
<rect x="4" y="11" width="1" height="1" fill="#b2b6ba"/>
<rect x="5" y="11" width="1" height="1" fill="#babcbd"/>
<rect x="6" y="11" width="1" height="1" fill="#385f84"/>
<rect x="7" y="11" width="1" height="1" fill="#2d5984"/>
<rect x="8" y="11" width="1" height="1" fill="#315c87"/>
<rect x="9" y="11" width="1" height="1" fill="#345e8a"/>
<rect x="10" y="11" width="1" height="1" fill="#35608b"/>
<rect x="11" y="11" width="1" height="1" fill="#37628d"/>
<rect x="12" y="11" width="1" height="1" fill="#39638f"/>
<rect x="13" y="11" width="1" height="1" fill="#3a648f"/>
<rect x="14" y="11" width="3" height="1" fill="#3a658f"/>
<rect x="17" y="11" width="1" height="1" fill="#52789e"/>
<rect x="18" y="11" width="1" height="1" fill="#6d8eaf"/>
<rect x="19" y="11" width="1" height="1" fill="#7595b4"/>
<rect x="20" y="11" width="1" height="1" fill="#7696b5"/>
<rect x="21" y="11" width="1" height="1" fill="#7a99b7"/>
<rect x="22" y="11" width="1" height="1" fill="#5b80a3"/>
<rect x="23" y="11" width="1" height="1" fill="#2f5a86"/>
<rect x="24" y="11" width="1" height="1" fill="#2c5883"/>
<rect x="25" y="11" width="1" height="1" fill="#25517d"/>
<rect x="26" y="11" width="1" height="1" fill="#8696a6"/>
<rect x="3" y="12" width="1" height="1" fill="#688199"/>
<rect x="4" y="12" width="1" height="1" fill="#c0c0c0"/>
<rect x="5" y="12" width="1" height="1" fill="#70869d"/>
<rect x="6" y="12" width="1" height="1" fill="#295581"/>
<rect x="7" y="12" width="1" height="1" fill="#315b86"/>
<rect x="8" y="12" width="1" height="1" fill="#345e8a"/>
<rect x="9" y="12" width="1" height="1" fill="#36618c"/>
<rect x="10" y="12" width="1" height="1" fill="#38628e"/>
<rect x="11" y="12" width="1" height="1" fill="#3a658f"/>
<rect x="12" y="12" width="1" height="1" fill="#3c6791"/>
<rect x="13" y="12" width="1" height="1" fill="#3d6792"/>
<rect x="14" y="12" width="1" height="1" fill="#3e6893"/>
<rect x="15" y="12" width="1" height="1" fill="#426b96"/>
<rect x="16" y="12" width="1" height="1" fill="#5f82a6"/>
<rect x="17" y="12" width="1" height="1" fill="#6688aa"/>
<rect x="18" y="12" width="1" height="1" fill="#6a8cac"/>
<rect x="19" y="12" width="1" height="1" fill="#6f90b0"/>
<rect x="20" y="12" width="1" height="1" fill="#7595b4"/>
<rect x="21" y="12" width="1" height="1" fill="#7696b5"/>
<rect x="22" y="12" width="1" height="1" fill="#54799f"/>
<rect x="23" y="12" width="1" height="1" fill="#315b86"/>
<rect x="24" y="12" width="1" height="1" fill="#2e5985"/>
<rect x="25" y="12" width="1" height="1" fill="#2b5782"/>
<rect x="26" y="12" width="1" height="1" fill="#2c567f"/>
<rect x="2" y="13" width="1" height="1" fill="#95a1ad"/>
<rect x="3" y="13" width="1" height="1" fill="#a4acb4"/>
<rect x="4" y="13" width="1" height="1" fill="#b6b9bc"/>
<rect x="5" y="13" width="1" height="1" fill="#2b557f"/>
<rect x="6" y="13" width="1" height="1" fill="#305a85"/>
<rect x="7" y="13" width="1" height="1" fill="#335e89"/>
<rect x="8" y="13" width="1" height="1" fill="#35608b"/>
<rect x="9" y="13" width="1" height="1" fill="#38628e"/>
<rect x="10" y="13" width="1" height="1" fill="#3a658f"/>
<rect x="11" y="13" width="1" height="1" fill="#3d6792"/>
<rect x="12" y="13" width="1" height="1" fill="#3f6994"/>
<rect x="13" y="13" width="1" height="1" fill="#406a94"/>
<rect x="14" y="13" width="1" height="1" fill="#416b95"/>
<rect x="15" y="13" width="1" height="1" fill="#53799e"/>
<rect x="16" y="13" width="1" height="1" fill="#6083a5"/>
<rect x="17" y="13" width="1" height="1" fill="#6587a9"/>
<rect x="18" y="13" width="1" height="1" fill="#6688aa"/>
<rect x="19" y="13" width="1" height="1" fill="#6a8cac"/>
<rect x="20" y="13" width="1" height="1" fill="#6f90b0"/>
<rect x="21" y="13" width="1" height="1" fill="#7595b4"/>
<rect x="22" y="13" width="1" height="1" fill="#4d749b"/>
<rect x="23" y="13" width="1" height="1" fill="#335e89"/>
<rect x="24" y="13" width="1" height="1" fill="#305a86"/>
<rect x="25" y="13" width="1" height="1" fill="#2d5984"/>
<rect x="26" y="13" width="1" height="1" fill="#27537e"/>
<rect x="27" y="13" width="1" height="1" fill="#72889e"/>
<rect x="2" y="14" width="1" height="1" fill="#8a99a8"/>
<rect x="4" y="14" width="1" height="1" fill="#8193a4"/>
<rect x="5" y="14" width="1" height="1" fill="#295580"/>
<rect x="6" y="14" width="1" height="1" fill="#315c87"/>
<rect x="7" y="14" width="1" height="1" fill="#355f8b"/>
<rect x="8" y="14" width="1" height="1" fill="#37628d"/>
<rect x="9" y="14" width="1" height="1" fill="#3a658f"/>
<rect x="10" y="14" width="1" height="1" fill="#3d6792"/>
<rect x="11" y="14" width="1" height="1" fill="#3f6a94"/>
<rect x="12" y="14" width="1" height="1" fill="#416b95"/>
<rect x="13" y="14" width="1" height="1" fill="#446d98"/>
<rect x="14" y="14" width="1" height="1" fill="#4a739b"/>
<rect x="15" y="14" width="1" height="1" fill="#567b9f"/>
<rect x="16" y="14" width="1" height="1" fill="#5a7ea1"/>
<rect x="17" y="14" width="1" height="1" fill="#6083a5"/>
<rect x="18" y="14" width="1" height="1" fill="#6587a9"/>
<rect x="19" y="14" width="1" height="1" fill="#6688aa"/>
<rect x="20" y="14" width="1" height="1" fill="#6a8cac"/>
<rect x="21" y="14" width="1" height="1" fill="#6f90b0"/>
<rect x="22" y="14" width="1" height="1" fill="#487098"/>
<rect x="23" y="14" width="1" height="1" fill="#355f8b"/>
<rect x="24" y="14" width="1" height="1" fill="#315c87"/>
<rect x="25" y="14" width="1" height="1" fill="#2e5985"/>
<rect x="26" y="14" width="1" height="1" fill="#2b5782"/>
<rect x="27" y="14" width="1" height="1" fill="#355b83"/>
<rect x="2" y="15" width="1" height="1" fill="#a2abb3"/>
<rect x="4" y="15" width="1" height="1" fill="#537290"/>
<rect x="5" y="15" width="1" height="1" fill="#2e5985"/>
<rect x="6" y="15" width="1" height="1" fill="#335e89"/>
<rect x="7" y="15" width="1" height="1" fill="#35608b"/>
<rect x="8" y="15" width="1" height="1" fill="#39638f"/>
<rect x="9" y="15" width="1" height="1" fill="#3c6791"/>
<rect x="10" y="15" width="1" height="1" fill="#3f6994"/>
<rect x="11" y="15" width="1" height="1" fill="#416b95"/>
<rect x="12" y="15" width="1" height="1" fill="#446e99"/>
<rect x="13" y="15" width="1" height="1" fill="#46709a"/>
<rect x="14" y="15" width="1" height="1" fill="#486f97"/>
<rect x="15" y="15" width="1" height="1" fill="#557a9e"/>
<rect x="16" y="15" width="1" height="1" fill="#567b9f"/>
<rect x="17" y="15" width="1" height="1" fill="#5a7ea1"/>
<rect x="18" y="15" width="1" height="1" fill="#6083a5"/>
<rect x="19" y="15" width="1" height="1" fill="#6587a9"/>
<rect x="20" y="15" width="1" height="1" fill="#6688aa"/>
<rect x="21" y="15" width="1" height="1" fill="#6a8cac"/>
<rect x="22" y="15" width="1" height="1" fill="#436b95"/>
<rect x="23" y="15" width="1" height="1" fill="#35608b"/>
<rect x="24" y="15" width="1" height="1" fill="#335e89"/>
<rect x="25" y="15" width="1" height="1" fill="#305a86"/>
<rect x="26" y="15" width="1" height="1" fill="#2c5883"/>
<rect x="27" y="15" width="1" height="1" fill="#25507c"/>
<rect x="28" y="15" width="1" height="1" fill="#a6adb4"/>
<rect x="4" y="16" width="1" height="1" fill="#325a82"/>
<rect x="5" y="16" width="1" height="1" fill="#315b86"/>
<rect x="6" y="16" width="1" height="1" fill="#345e8a"/>
<rect x="7" y="16" width="1" height="1" fill="#37628d"/>
<rect x="8" y="16" width="1" height="1" fill="#3a648f"/>
<rect x="9" y="16" width="1" height="1" fill="#3d6792"/>
<rect x="10" y="16" width="1" height="1" fill="#406a94"/>
<rect x="11" y="16" width="1" height="1" fill="#446d98"/>
<rect x="12" y="16" width="1" height="1" fill="#46709a"/>
<rect x="13" y="16" width="1" height="1" fill="#48729c"/>
<rect x="14" y="16" width="1" height="1" fill="#4b759e"/>
<rect x="15" y="16" width="1" height="1" fill="#4a739b"/>
<rect x="16" y="16" width="1" height="1" fill="#53799e"/>
<rect x="17" y="16" width="1" height="1" fill="#567b9f"/>
<rect x="18" y="16" width="1" height="1" fill="#5a7ea1"/>
<rect x="19" y="16" width="1" height="1" fill="#6083a5"/>
<rect x="20" y="16" width="1" height="1" fill="#6587a9"/>
<rect x="21" y="16" width="1" height="1" fill="#6486a9"/>
<rect x="22" y="16" width="1" height="1" fill="#3c6590"/>
<rect x="23" y="16" width="1" height="1" fill="#37628d"/>
<rect x="24" y="16" width="1" height="1" fill="#345e8a"/>
<rect x="25" y="16" width="1" height="1" fill="#315b86"/>
<rect x="26" y="16" width="1" height="1" fill="#2d5984"/>
<rect x="27" y="16" width="1" height="1" fill="#27527e"/>
<rect x="28" y="16" width="1" height="1" fill="#8596a6"/>
<rect x="4" y="17" width="1" height="1" fill="#25517c"/>
<rect x="5" y="17" width="1" height="1" fill="#315b86"/>
<rect x="6" y="17" width="1" height="1" fill="#345e8a"/>
<rect x="7" y="17" width="1" height="1" fill="#37628d"/>
<rect x="8" y="17" width="1" height="1" fill="#3a658f"/>
<rect x="9" y="17" width="1" height="1" fill="#3e6893"/>
<rect x="10" y="17" width="1" height="1" fill="#416b95"/>
<rect x="11" y="17" width="1" height="1" fill="#446e99"/>
<rect x="12" y="17" width="1" height="1" fill="#48719b"/>
<rect x="13" y="17" width="1" height="1" fill="#4b759e"/>
<rect x="14" y="17" width="1" height="1" fill="#4d77a1"/>
<rect x="15" y="17" width="1" height="1" fill="#4e78a2"/>
<rect x="16" y="17" width="1" height="1" fill="#4d77a1"/>
<rect x="17" y="17" width="1" height="1" fill="#50779e"/>
<rect x="18" y="17" width="1" height="1" fill="#557b9f"/>
<rect x="19" y="17" width="1" height="1" fill="#5a7ea1"/>
<rect x="20" y="17" width="1" height="1" fill="#6083a5"/>
<rect x="21" y="17" width="1" height="1" fill="#4e759d"/>
<rect x="22" y="17" width="1" height="1" fill="#3a658f"/>
<rect x="23" y="17" width="1" height="1" fill="#37628d"/>
<rect x="24" y="17" width="1" height="1" fill="#345e8a"/>
<rect x="25" y="17" width="1" height="1" fill="#315b86"/>
<rect x="26" y="17" width="1" height="1" fill="#2d5984"/>
<rect x="27" y="17" width="1" height="1" fill="#28537f"/>
<rect x="28" y="17" width="1" height="1" fill="#72889e"/>
<rect x="4" y="18" width="1" height="1" fill="#25517d"/>
<rect x="5" y="18" width="1" height="1" fill="#315b86"/>
<rect x="6" y="18" width="1" height="1" fill="#345e8a"/>
<rect x="7" y="18" width="1" height="1" fill="#37628d"/>
<rect x="8" y="18" width="1" height="1" fill="#3a658f"/>
<rect x="9" y="18" width="1" height="1" fill="#3e6893"/>
<rect x="10" y="18" width="1" height="1" fill="#416b95"/>
<rect x="11" y="18" width="1" height="1" fill="#446e99"/>
<rect x="12" y="18" width="1" height="1" fill="#48719b"/>
<rect x="13" y="18" width="1" height="1" fill="#4b759e"/>
<rect x="14" y="18" width="1" height="1" fill="#4e78a2"/>
<rect x="15" y="18" width="1" height="1" fill="#507aa3"/>
<rect x="16" y="18" width="1" height="1" fill="#4e78a2"/>
<rect x="17" y="18" width="1" height="1" fill="#4b759e"/>
<rect x="18" y="18" width="1" height="1" fill="#49729b"/>
<rect x="19" y="18" width="1" height="1" fill="#50779d"/>
<rect x="20" y="18" width="1" height="1" fill="#547a9e"/>
<rect x="21" y="18" width="1" height="1" fill="#3e6893"/>
<rect x="22" y="18" width="1" height="1" fill="#3a658f"/>
<rect x="23" y="18" width="1" height="1" fill="#37628d"/>
<rect x="24" y="18" width="1" height="1" fill="#345e8a"/>
<rect x="25" y="18" width="1" height="1" fill="#315b86"/>
<rect x="26" y="18" width="1" height="1" fill="#2d5984"/>
<rect x="27" y="18" width="1" height="1" fill="#28547f"/>
<rect x="28" y="18" width="1" height="1" fill="#6c849b"/>
<rect x="4" y="19" width="1" height="1" fill="#25517d"/>
<rect x="5" y="19" width="1" height="1" fill="#315b86"/>
<rect x="6" y="19" width="1" height="1" fill="#345e8a"/>
<rect x="7" y="19" width="1" height="1" fill="#37628d"/>
<rect x="8" y="19" width="1" height="1" fill="#3a658f"/>
<rect x="9" y="19" width="1" height="1" fill="#3e6893"/>
<rect x="10" y="19" width="1" height="1" fill="#416b95"/>
<rect x="11" y="19" width="1" height="1" fill="#446e99"/>
<rect x="12" y="19" width="1" height="1" fill="#48719b"/>
<rect x="13" y="19" width="1" height="1" fill="#4b759e"/>
<rect x="14" y="19" width="1" height="1" fill="#4d77a1"/>
<rect x="15" y="19" width="1" height="1" fill="#4e78a2"/>
<rect x="16" y="19" width="1" height="1" fill="#4d77a1"/>
<rect x="17" y="19" width="1" height="1" fill="#4b759e"/>
<rect x="18" y="19" width="1" height="1" fill="#48719b"/>
<rect x="19" y="19" width="1" height="1" fill="#446e99"/>
<rect x="20" y="19" width="1" height="1" fill="#426c95"/>
<rect x="21" y="19" width="1" height="1" fill="#3e6893"/>
<rect x="22" y="19" width="1" height="1" fill="#3a658f"/>
<rect x="23" y="19" width="1" height="1" fill="#37628d"/>
<rect x="24" y="19" width="1" height="1" fill="#345e8a"/>
<rect x="25" y="19" width="1" height="1" fill="#315b86"/>
<rect x="26" y="19" width="1" height="1" fill="#2d5984"/>
<rect x="27" y="19" width="1" height="1" fill="#28537f"/>
<rect x="28" y="19" width="1" height="1" fill="#74899e"/>
<rect x="4" y="20" width="1" height="1" fill="#355c83"/>
<rect x="5" y="20" width="1" height="1" fill="#315b86"/>
<rect x="6" y="20" width="1" height="1" fill="#345e8a"/>
<rect x="7" y="20" width="1" height="1" fill="#37628d"/>
<rect x="8" y="20" width="1" height="1" fill="#3a648f"/>
<rect x="9" y="20" width="1" height="1" fill="#3d6792"/>
<rect x="10" y="20" width="1" height="1" fill="#406a94"/>
<rect x="11" y="20" width="1" height="1" fill="#446d98"/>
<rect x="12" y="20" width="1" height="1" fill="#46709a"/>
<rect x="13" y="20" width="1" height="1" fill="#48729c"/>
<rect x="14" y="20" width="3" height="1" fill="#4b759e"/>
<rect x="17" y="20" width="1" height="1" fill="#48729c"/>
<rect x="18" y="20" width="1" height="1" fill="#46709a"/>
<rect x="19" y="20" width="1" height="1" fill="#446d98"/>
<rect x="20" y="20" width="1" height="1" fill="#406a94"/>
<rect x="21" y="20" width="1" height="1" fill="#3d6792"/>
<rect x="22" y="20" width="1" height="1" fill="#3a648f"/>
<rect x="23" y="20" width="1" height="1" fill="#37628d"/>
<rect x="24" y="20" width="1" height="1" fill="#345e8a"/>
<rect x="25" y="20" width="1" height="1" fill="#315b86"/>
<rect x="26" y="20" width="1" height="1" fill="#2d5984"/>
<rect x="27" y="20" width="1" height="1" fill="#27527e"/>
<rect x="28" y="20" width="1" height="1" fill="#8898a7"/>
<rect x="4" y="21" width="1" height="1" fill="#577492"/>
<rect x="5" y="21" width="1" height="1" fill="#2e5984"/>
<rect x="6" y="21" width="1" height="1" fill="#335e89"/>
<rect x="7" y="21" width="1" height="1" fill="#35608b"/>
<rect x="8" y="21" width="1" height="1" fill="#39638f"/>
<rect x="9" y="21" width="1" height="1" fill="#3c6791"/>
<rect x="10" y="21" width="1" height="1" fill="#3f6994"/>
<rect x="11" y="21" width="1" height="1" fill="#416b95"/>
<rect x="12" y="21" width="1" height="1" fill="#446e99"/>
<rect x="13" y="21" width="1" height="1" fill="#46709a"/>
<rect x="14" y="21" width="3" height="1" fill="#48719b"/>
<rect x="17" y="21" width="1" height="1" fill="#46709a"/>
<rect x="18" y="21" width="1" height="1" fill="#446e99"/>
<rect x="19" y="21" width="1" height="1" fill="#416b95"/>
<rect x="20" y="21" width="1" height="1" fill="#3f6994"/>
<rect x="21" y="21" width="1" height="1" fill="#3c6791"/>
<rect x="22" y="21" width="1" height="1" fill="#39638f"/>
<rect x="23" y="21" width="1" height="1" fill="#35608b"/>
<rect x="24" y="21" width="1" height="1" fill="#335e89"/>
<rect x="25" y="21" width="1" height="1" fill="#305a86"/>
<rect x="26" y="21" width="1" height="1" fill="#2c5883"/>
<rect x="27" y="21" width="1" height="1" fill="#24507c"/>
<rect x="4" y="22" width="1" height="1" fill="#8797a7"/>
<rect x="5" y="22" width="1" height="1" fill="#295480"/>
<rect x="6" y="22" width="1" height="1" fill="#315c87"/>
<rect x="7" y="22" width="1" height="1" fill="#355f8b"/>
<rect x="8" y="22" width="1" height="1" fill="#37628d"/>
<rect x="9" y="22" width="1" height="1" fill="#3a658f"/>
<rect x="10" y="22" width="1" height="1" fill="#3d6792"/>
<rect x="11" y="22" width="1" height="1" fill="#3f6a94"/>
<rect x="12" y="22" width="1" height="1" fill="#416b95"/>
<rect x="13" y="22" width="1" height="1" fill="#446d98"/>
<rect x="14" y="22" width="3" height="1" fill="#446e99"/>
<rect x="17" y="22" width="1" height="1" fill="#446d98"/>
<rect x="18" y="22" width="1" height="1" fill="#416b95"/>
<rect x="19" y="22" width="1" height="1" fill="#3f6a94"/>
<rect x="20" y="22" width="1" height="1" fill="#3d6792"/>
<rect x="21" y="22" width="1" height="1" fill="#3a658f"/>
<rect x="22" y="22" width="1" height="1" fill="#37628d"/>
<rect x="23" y="22" width="1" height="1" fill="#355f8b"/>
<rect x="24" y="22" width="1" height="1" fill="#315c87"/>
<rect x="25" y="22" width="1" height="1" fill="#2e5985"/>
<rect x="26" y="22" width="1" height="1" fill="#2b5782"/>
<rect x="27" y="22" width="1" height="1" fill="#3a5f85"/>
<rect x="5" y="23" width="1" height="1" fill="#2e5780"/>
<rect x="6" y="23" width="1" height="1" fill="#305a85"/>
<rect x="7" y="23" width="1" height="1" fill="#335e89"/>
<rect x="8" y="23" width="1" height="1" fill="#35608b"/>
<rect x="9" y="23" width="1" height="1" fill="#38628e"/>
<rect x="10" y="23" width="1" height="1" fill="#3a658f"/>
<rect x="11" y="23" width="1" height="1" fill="#3d6792"/>
<rect x="12" y="23" width="1" height="1" fill="#3f6994"/>
<rect x="13" y="23" width="1" height="1" fill="#406a94"/>
<rect x="14" y="23" width="3" height="1" fill="#416b95"/>
<rect x="17" y="23" width="1" height="1" fill="#406a94"/>
<rect x="18" y="23" width="1" height="1" fill="#3f6994"/>
<rect x="19" y="23" width="1" height="1" fill="#3d6792"/>
<rect x="20" y="23" width="1" height="1" fill="#3a658f"/>
<rect x="21" y="23" width="1" height="1" fill="#38628e"/>
<rect x="22" y="23" width="1" height="1" fill="#35608b"/>
<rect x="23" y="23" width="1" height="1" fill="#335e89"/>
<rect x="24" y="23" width="1" height="1" fill="#305a86"/>
<rect x="25" y="23" width="1" height="1" fill="#2d5984"/>
<rect x="26" y="23" width="1" height="1" fill="#27527e"/>
<rect x="27" y="23" width="1" height="1" fill="#7a8ea1"/>
<rect x="5" y="24" width="1" height="1" fill="#788ca0"/>
<rect x="6" y="24" width="1" height="1" fill="#295580"/>
<rect x="7" y="24" width="1" height="1" fill="#315b86"/>
<rect x="8" y="24" width="1" height="1" fill="#345e8a"/>
<rect x="9" y="24" width="1" height="1" fill="#36618c"/>
<rect x="10" y="24" width="1" height="1" fill="#38628e"/>
<rect x="11" y="24" width="1" height="1" fill="#3a658f"/>
<rect x="12" y="24" width="1" height="1" fill="#3c6791"/>
<rect x="13" y="24" width="1" height="1" fill="#3d6792"/>
<rect x="14" y="24" width="3" height="1" fill="#3e6893"/>
<rect x="17" y="24" width="1" height="1" fill="#3d6792"/>
<rect x="18" y="24" width="1" height="1" fill="#3c6791"/>
<rect x="19" y="24" width="1" height="1" fill="#3a658f"/>
<rect x="20" y="24" width="1" height="1" fill="#38628e"/>
<rect x="21" y="24" width="1" height="1" fill="#36618c"/>
<rect x="22" y="24" width="1" height="1" fill="#345e8a"/>
<rect x="23" y="24" width="1" height="1" fill="#315b86"/>
<rect x="24" y="24" width="1" height="1" fill="#2e5985"/>
<rect x="25" y="24" width="1" height="1" fill="#2b5682"/>
<rect x="26" y="24" width="1" height="1" fill="#315981"/>
<rect x="6" y="25" width="1" height="1" fill="#406588"/>
<rect x="7" y="25" width="1" height="1" fill="#2d5884"/>
<rect x="8" y="25" width="1" height="1" fill="#315c87"/>
<rect x="9" y="25" width="1" height="1" fill="#345e8a"/>
<rect x="10" y="25" width="1" height="1" fill="#35608b"/>
<rect x="11" y="25" width="1" height="1" fill="#37628d"/>
<rect x="12" y="25" width="1" height="1" fill="#39638f"/>
<rect x="13" y="25" width="1" height="1" fill="#3a648f"/>
<rect x="14" y="25" width="3" height="1" fill="#3a658f"/>
<rect x="17" y="25" width="1" height="1" fill="#3a648f"/>
<rect x="18" y="25" width="1" height="1" fill="#39638f"/>
<rect x="19" y="25" width="1" height="1" fill="#37628d"/>
<rect x="20" y="25" width="1" height="1" fill="#35608b"/>
<rect x="21" y="25" width="1" height="1" fill="#345e8a"/>
<rect x="22" y="25" width="1" height="1" fill="#315c87"/>
<rect x="23" y="25" width="1" height="1" fill="#2f5a86"/>
<rect x="24" y="25" width="1" height="1" fill="#2c5883"/>
<rect x="25" y="25" width="1" height="1" fill="#25517c"/>
<rect x="26" y="25" width="1" height="1" fill="#909dab"/>
<rect x="7" y="26" width="1" height="1" fill="#305981"/>
<rect x="8" y="26" width="1" height="1" fill="#2d5984"/>
<rect x="9" y="26" width="1" height="1" fill="#315b86"/>
<rect x="10" y="26" width="1" height="1" fill="#335e89"/>
<rect x="11" y="26" width="1" height="1" fill="#355f8b"/>
<rect x="12" y="26" width="1" height="1" fill="#35608b"/>
<rect x="13" y="26" width="5" height="1" fill="#37628d"/>
<rect x="18" y="26" width="1" height="1" fill="#35608b"/>
<rect x="19" y="26" width="1" height="1" fill="#355f8b"/>
<rect x="20" y="26" width="1" height="1" fill="#335e89"/>
<rect x="21" y="26" width="1" height="1" fill="#315b86"/>
<rect x="22" y="26" width="1" height="1" fill="#2f5a86"/>
<rect x="23" y="26" width="1" height="1" fill="#2c5883"/>
<rect x="24" y="26" width="1" height="1" fill="#26517d"/>
<rect x="25" y="26" width="1" height="1" fill="#6f859c"/>
<rect x="7" y="27" width="1" height="1" fill="#a6adb4"/>
<rect x="8" y="27" width="1" height="1" fill="#315a81"/>
<rect x="9" y="27" width="1" height="1" fill="#2b5782"/>
<rect x="10" y="27" width="1" height="1" fill="#305a86"/>
<rect x="11" y="27" width="1" height="1" fill="#315c87"/>
<rect x="12" y="27" width="1" height="1" fill="#335e89"/>
<rect x="13" y="27" width="5" height="1" fill="#345e8a"/>
<rect x="18" y="27" width="1" height="1" fill="#335e89"/>
<rect x="19" y="27" width="1" height="1" fill="#315c87"/>
<rect x="20" y="27" width="1" height="1" fill="#305a86"/>
<rect x="21" y="27" width="1" height="1" fill="#2e5985"/>
<rect x="22" y="27" width="1" height="1" fill="#2c5783"/>
<rect x="23" y="27" width="1" height="1" fill="#25517d"/>
<rect x="24" y="27" width="1" height="1" fill="#6a829a"/>
<rect x="9" y="28" width="1" height="1" fill="#4e6f8e"/>
<rect x="10" y="28" width="1" height="1" fill="#27537e"/>
<rect x="11" y="28" width="1" height="1" fill="#2d5884"/>
<rect x="12" y="28" width="1" height="1" fill="#305a86"/>
<rect x="13" y="28" width="5" height="1" fill="#315b86"/>
<rect x="18" y="28" width="1" height="1" fill="#305a86"/>
<rect x="19" y="28" width="1" height="1" fill="#2e5985"/>
<rect x="20" y="28" width="1" height="1" fill="#2d5984"/>
<rect x="21" y="28" width="1" height="1" fill="#295480"/>
<rect x="22" y="28" width="1" height="1" fill="#2c557f"/>
<rect x="23" y="28" width="1" height="1" fill="#8897a7"/>
<rect x="10" y="29" width="1" height="1" fill="#8e9caa"/>
<rect x="11" y="29" width="1" height="1" fill="#426589"/>
<rect x="12" y="29" width="1" height="1" fill="#25517d"/>
<rect x="13" y="29" width="1" height="1" fill="#295580"/>
<rect x="14" y="29" width="1" height="1" fill="#2b5782"/>
<rect x="15" y="29" width="1" height="1" fill="#2d5883"/>
<rect x="16" y="29" width="1" height="1" fill="#2d5884"/>
<rect x="17" y="29" width="1" height="1" fill="#2c5783"/>
<rect x="18" y="29" width="1" height="1" fill="#2a5581"/>
<rect x="19" y="29" width="1" height="1" fill="#27527e"/>
<rect x="20" y="29" width="1" height="1" fill="#2b557f"/>
<rect x="21" y="29" width="1" height="1" fill="#698199"/>
<rect x="13" y="30" width="1" height="1" fill="#7c8fa2"/>
<rect x="14" y="30" width="1" height="1" fill="#5f7a95"/>
<rect x="15" y="30" width="1" height="1" fill="#506f8e"/>
<rect x="16" y="30" width="1" height="1" fill="#4b6c8c"/>
<rect x="17" y="30" width="1" height="1" fill="#557391"/>
<rect x="18" y="30" width="1" height="1" fill="#6c849b"/>
<rect x="19" y="30" width="1" height="1" fill="#929fac"/>
</svg>