<svg xmlns="http://www.w3.org/2000/svg" width="32" height="32" viewBox="0 0 32 32" shape-rendering="crispEdges">
<rect x="12" y="1" width="1" height="1" fill="#9ca6aa"/>
<rect x="13" y="1" width="1" height="1" fill="#7b9198"/>
<rect x="14" y="1" width="1" height="1" fill="#67818b"/>
<rect x="15" y="1" width="1" height="1" fill="#5f7c85"/>
<rect x="16" y="1" width="1" height="1" fill="#647d85"/>
<rect x="17" y="1" width="1" height="1" fill="#6f858d"/>
<rect x="18" y="1" width="1" height="1" fill="#85989e"/>
<rect x="9" y="2" width="1" height="1" fill="#a0aaae"/>
<rect x="10" y="2" width="1" height="1" fill="#5d7982"/>
<rect x="11" y="2" width="1" height="1" fill="#4e6c77"/>
<rect x="12" y="2" width="1" height="1" fill="#54727d"/>
<rect x="13" y="2" width="1" height="1" fill="#577782"/>
<rect x="14" y="2" width="1" height="1" fill="#587781"/>
<rect x="15" y="2" width="3" height="1" fill="#587883"/>
<rect x="18" y="2" width="1" height="1" fill="#587781"/>
<rect x="19" y="2" width="1" height="1" fill="#557580"/>
<rect x="20" y="2" width="1" height="1" fill="#4e6e7a"/>
<rect x="21" y="2" width="1" height="1" fill="#768990"/>
<rect x="8" y="3" width="1" height="1" fill="#577782"/>
<rect x="9" y="3" width="1" height="1" fill="#4d6e79"/>
<rect x="10" y="3" width="1" height="1" fill="#567681"/>
<rect x="11" y="3" width="1" height="1" fill="#587883"/>
<rect x="12" y="3" width="1" height="1" fill="#5d7882"/>
<rect x="13" y="3" width="1" height="1" fill="#5e7983"/>
<rect x="14" y="3" width="1" height="1" fill="#5f7a84"/>
<rect x="15" y="3" width="3" height="1" fill="#5d7c86"/>
<rect x="18" y="3" width="1" height="1" fill="#5f7a84"/>
<rect x="19" y="3" width="1" height="1" fill="#5e7983"/>
<rect x="20" y="3" width="1" height="1" fill="#5d7882"/>
<rect x="21" y="3" width="1" height="1" fill="#587883"/>
<rect x="22" y="3" width="1" height="1" fill="#506e79"/>
<rect x="23" y="3" width="1" height="1" fill="#768f97"/>
<rect x="6" y="4" width="1" height="1" fill="#8f9fa4"/>
<rect x="7" y="4" width="1" height="1" fill="#456875"/>
<rect x="8" y="4" width="1" height="1" fill="#54727d"/>
<rect x="9" y="4" width="1" height="1" fill="#577883"/>
<rect x="10" y="4" width="1" height="1" fill="#5b7a84"/>
<rect x="11" y="4" width="1" height="1" fill="#5d7c86"/>
<rect x="12" y="4" width="1" height="1" fill="#607b85"/>
<rect x="13" y="4" width="1" height="1" fill="#607e88"/>
<rect x="14" y="4" width="1" height="1" fill="#627e87"/>
<rect x="15" y="4" width="3" height="1" fill="#637f88"/>
<rect x="18" y="4" width="1" height="1" fill="#627e87"/>
<rect x="19" y="4" width="1" height="1" fill="#607e88"/>
<rect x="20" y="4" width="1" height="1" fill="#607b85"/>
<rect x="21" y="4" width="1" height="1" fill="#5d7c86"/>
<rect x="22" y="4" width="1" height="1" fill="#5b7a84"/>
<rect x="23" y="4" width="1" height="1" fill="#567681"/>
<rect x="24" y="4" width="1" height="1" fill="#557580"/>
<rect x="5" y="5" width="1" height="1" fill="#7f9399"/>
<rect x="6" y="5" width="1" height="1" fill="#456975"/>
<rect x="7" y="5" width="1" height="1" fill="#537580"/>
<rect x="8" y="5" width="1" height="1" fill="#5b7881"/>
<rect x="9" y="5" width="1" height="1" fill="#5e7983"/>
<rect x="10" y="5" width="1" height="1" fill="#607b85"/>
<rect x="11" y="5" width="1" height="1" fill="#627e87"/>
<rect x="12" y="5" width="1" height="1" fill="#63818b"/>
<rect x="13" y="5" width="1" height="1" fill="#67818b"/>
<rect x="14" y="5" width="1" height="1" fill="#67838c"/>
<rect x="15" y="5" width="3" height="1" fill="#67838d"/>
<rect x="18" y="5" width="1" height="1" fill="#67838c"/>
<rect x="19" y="5" width="1" height="1" fill="#67818b"/>
<rect x="20" y="5" width="1" height="1" fill="#63818b"/>
<rect x="21" y="5" width="1" height="1" fill="#627e87"/>
<rect x="22" y="5" width="1" height="1" fill="#607b85"/>
<rect x="23" y="5" width="1" height="1" fill="#5e7983"/>
<rect x="24" y="5" width="1" height="1" fill="#587883"/>
<rect x="25" y="5" width="1" height="1" fill="#526e78"/>
<rect x="4" y="6" width="1" height="1" fill="#8b9ca1"/>
<rect x="5" y="6" width="1" height="1" fill="#446875"/>
<rect x="6" y="6" width="1" height="1" fill="#53727e"/>
<rect x="7" y="6" width="1" height="1" fill="#5b7881"/>
<rect x="8" y="6" width="1" height="1" fill="#5c7b85"/>
<rect x="9" y="6" width="1" height="1" fill="#5f7d87"/>
<rect x="10" y="6" width="1" height="1" fill="#637f88"/>
<rect x="11" y="6" width="1" height="1" fill="#68818a"/>
<rect x="12" y="6" width="1" height="1" fill="#68848d"/>
<rect x="13" y="6" width="1" height="1" fill="#6c858e"/>
<rect x="14" y="6" width="1" height="1" fill="#6d868f"/>
<rect x="15" y="6" width="3" height="1" fill="#6e8790"/>
<rect x="18" y="6" width="1" height="1" fill="#6d868f"/>
<rect x="19" y="6" width="1" height="1" fill="#6c858e"/>
<rect x="20" y="6" width="1" height="1" fill="#68848d"/>
<rect x="21" y="6" width="1" height="1" fill="#68818a"/>
<rect x="22" y="6" width="1" height="1" fill="#637f88"/>
<rect x="23" y="6" width="1" height="1" fill="#5f7d87"/>
<rect x="24" y="6" width="1" height="1" fill="#5c7b85"/>
<rect x="25" y="6" width="1" height="1" fill="#5b7881"/>
<rect x="26" y="6" width="1" height="1" fill="#4f6f7b"/>
<rect x="4" y="7" width="1" height="1" fill="#416470"/>
<rect x="5" y="7" width="1" height="1" fill="#4e6f7a"/>
<rect x="6" y="7" width="1" height="1" fill="#577883"/>
<rect x="7" y="7" width="1" height="1" fill="#5c7b85"/>
<rect x="8" y="7" width="1" height="1" fill="#617c86"/>
<rect x="9" y="7" width="1" height="1" fill="#63818b"/>
<rect x="10" y="7" width="1" height="1" fill="#67838d"/>
<rect x="11" y="7" width="1" height="1" fill="#6c858e"/>
<rect x="12" y="7" width="1" height="1" fill="#6e8790"/>
<rect x="13" y="7" width="1" height="1" fill="#6f8993"/>
<rect x="14" y="7" width="1" height="1" fill="#718992"/>
<rect x="15" y="7" width="3" height="1" fill="#718a93"/>
<rect x="18" y="7" width="1" height="1" fill="#718992"/>
<rect x="19" y="7" width="1" height="1" fill="#6f8993"/>
<rect x="20" y="7" width="1" height="1" fill="#6e8790"/>
<rect x="21" y="7" width="1" height="1" fill="#6c858e"/>
<rect x="22" y="7" width="1" height="1" fill="#67838d"/>
<rect x="23" y="7" width="1" height="1" fill="#63818b"/>
<rect x="24" y="7" width="1" height="1" fill="#617c86"/>
<rect x="25" y="7" width="1" height="1" fill="#5c7b85"/>
<rect x="26" y="7" width="1" height="1" fill="#587781"/>
<rect x="27" y="7" width="1" height="1" fill="#567681"/>
<rect x="3" y="8" width="1" height="1" fill="#526e78"/>
<rect x="4" y="8" width="1" height="1" fill="#476a76"/>
<rect x="5" y="8" width="1" height="1" fill="#547681"/>
<rect x="6" y="8" width="1" height="1" fill="#5b7a84"/>
<rect x="7" y="8" width="1" height="1" fill="#68838d"/>
<rect x="8" y="8" width="1" height="1" fill="#6d868f"/>
<rect x="9" y="8" width="1" height="1" fill="#67838d"/>
<rect x="10" y="8" width="1" height="1" fill="#6c858e"/>
<rect x="11" y="8" width="1" height="1" fill="#6f8891"/>
<rect x="12" y="8" width="1" height="1" fill="#718a92"/>
<rect x="13" y="8" width="1" height="1" fill="#758b93"/>
<rect x="14" y="8" width="1" height="1" fill="#768f97"/>
<rect x="15" y="8" width="3" height="1" fill="#788f96"/>
<rect x="18" y="8" width="1" height="1" fill="#768f97"/>
<rect x="19" y="8" width="1" height="1" fill="#758b93"/>
<rect x="20" y="8" width="1" height="1" fill="#718a92"/>
<rect x="21" y="8" width="1" height="1" fill="#6f8891"/>
<rect x="22" y="8" width="1" height="1" fill="#6c858e"/>
<rect x="23" y="8" width="1" height="1" fill="#67838d"/>
<rect x="24" y="8" width="1" height="1" fill="#667f87"/>
<rect x="25" y="8" width="1" height="1" fill="#5f7d87"/>
<rect x="26" y="8" width="1" height="1" fill="#5b7a84"/>
<rect x="27" y="8" width="1" height="1" fill="#547681"/>
<rect x="28" y="8" width="1" height="1" fill="#84979d"/>
<rect x="2" y="9" width="1" height="1" fill="#94a2a6"/>
<rect x="3" y="9" width="1" height="1" fill="#416470"/>
<rect x="4" y="9" width="1" height="1" fill="#506e79"/>
<rect x="5" y="9" width="1" height="1" fill="#597984"/>
<rect x="6" y="9" width="1" height="1" fill="#6f8891"/>
<rect x="7" y="9" width="1" height="1" fill="#a7b6ba"/>
<rect x="8" y="9" width="1" height="1" fill="#acbabe"/>
<rect x="9" y="9" width="1" height="1" fill="#869da4"/>
<rect x="10" y="9" width="1" height="1" fill="#6f8891"/>
<rect x="11" y="9" width="1" height="1" fill="#728b93"/>
<rect x="12" y="9" width="1" height="1" fill="#778c94"/>
<rect x="13" y="9" width="1" height="1" fill="#7a8e95"/>
<rect x="14" y="9" width="1" height="1" fill="#7a9098"/>
<rect x="15" y="9" width="3" height="1" fill="#7c9199"/>
<rect x="18" y="9" width="1" height="1" fill="#7a9098"/>
<rect x="19" y="9" width="1" height="1" fill="#7a8e95"/>
<rect x="20" y="9" width="1" height="1" fill="#778c94"/>
<rect x="21" y="9" width="1" height="1" fill="#728b93"/>
<rect x="22" y="9" width="1" height="1" fill="#6f8891"/>
<rect x="23" y="9" width="1" height="1" fill="#6c858e"/>
<rect x="24" y="9" width="1" height="1" fill="#67828c"/>
<rect x="25" y="9" width="1" height="1" fill="#617f89"/>
<rect x="26" y="9" width="1" height="1" fill="#5d7c86"/>
<rect x="27" y="9" width="1" height="1" fill="#597984"/>
<rect x="28" y="9" width="1" height="1" fill="#4e6e7a"/>
<rect x="2" y="10" width="1" height="1" fill="#4e6d79"/>
<rect x="3" y="10" width="1" height="1" fill="#456975"/>
<rect x="4" y="10" width="1" height="1" fill="#527581"/>
<rect x="5" y="10" width="1" height="1" fill="#597b86"/>
<rect x="6" y="10" width="1" height="1" fill="#7b9199"/>
<rect x="7" y="10" width="1" height="1" fill="#a6b5bb"/>
<rect x="8" y="10" width="1" height="1" fill="#a9b9be"/>
<rect x="9" y="10" width="1" height="1" fill="#adbcc0"/>
<rect x="10" y="10" width="1" height="1" fill="#839ca4"/>
<rect x="11" y="10" width="1" height="1" fill="#788c93"/>
<rect x="12" y="10" width="1" height="1" fill="#7a8f97"/>
<rect x="13" y="10" width="1" height="1" fill="#7d9198"/>
<rect x="14" y="10" width="1" height="1" fill="#81939a"/>
<rect x="15" y="10" width="3" height="1" fill="#82949b"/>
<rect x="18" y="10" width="1" height="1" fill="#81939a"/>
<rect x="19" y="10" width="1" height="1" fill="#7d9198"/>
<rect x="20" y="10" width="1" height="1" fill="#7a8f97"/>
<rect x="21" y="10" width="1" height="1" fill="#788c93"/>
<rect x="22" y="10" width="1" height="1" fill="#718a93"/>
<rect x="23" y="10" width="1" height="1" fill="#6f8790"/>
<rect x="24" y="10" width="1" height="1" fill="#6a848e"/>
<rect x="25" y="10" width="1" height="1" fill="#64828c"/>
<rect x="26" y="10" width="1" height="1" fill="#617c86"/>
<rect x="27" y="10" width="1" height="1" fill="#597b86"/>
<rect x="28" y="10" width="1" height="1" fill="#547681"/>
<rect x="29" y="10" width="1" height="1" fill="#889a9f"/>
<rect x="2" y="11" width="1" height="1" fill="#40636f"/>
<rect x="3" y="11" width="1" height="1" fill="#4a6b77"/>
<rect x="4" y="11" width="1" height="1" fill="#567681"/>
<rect x="5" y="11" width="1" height="1" fill="#5f7a84"/>
<rect x="6" y="11" width="1" height="1" fill="#67818b"/>
<rect x="7" y="11" width="1" height="1" fill="#9baeb4"/>
<rect x="8" y="11" width="1" height="1" fill="#a6b7bc"/>
<rect x="9" y="11" width="1" height="1" fill="#abbbc0"/>
<rect x="10" y="11" width="1" height="1" fill="#acbcc1"/>
<rect x="11" y="11" width="1" height="1" fill="#85979e"/>
<rect x="12" y="11" width="1" height="1" fill="#7d9198"/>
<rect x="13" y="11" width="1" height="1" fill="#82949b"/>
<rect x="14" y="11" width="1" height="1" fill="#84969d"/>
<rect x="15" y="11" width="1" height="1" fill="#879da4"/>
<rect x="16" y="11" width="1" height="1" fill="#899ea5"/>
<rect x="17" y="11" width="1" height="1" fill="#879da4"/>
<rect x="18" y="11" width="1" height="1" fill="#84969d"/>
<rect x="19" y="11" width="1" height="1" fill="#82949b"/>
<rect x="20" y="11" width="1" height="1" fill="#7d9198"/>
<rect x="21" y="11" width="1" height="1" fill="#7a8e95"/>
<rect x="22" y="11" width="1" height="1" fill="#738c95"/>
<rect x="23" y="11" width="1" height="1" fill="#708992"/>
<rect x="24" y="11" width="1" height="1" fill="#6d868f"/>
<rect x="25" y="11" width="1" height="1" fill="#67838c"/>
<rect x="26" y="11" width="1" height="1" fill="#617e87"/>
<rect x="27" y="11" width="1" height="1" fill="#5f7a84"/>
<rect x="28" y="11" width="1" height="1" fill="#577883"/>
<rect x="29" y="11" width="1" height="1" fill="#55727d"/>
<rect x="1" y="12" width="1" height="1" fill="#87999e"/>
<rect x="2" y="12" width="1" height="1" fill="#40636f"/>
<rect x="3" y="12" width="1" height="1" fill="#4d6e79"/>
<rect x="4" y="12" width="1" height="1" fill="#5b7881"/>
<rect x="5" y="12" width="1" height="1" fill="#5e7c86"/>
<rect x="6" y="12" width="1" height="1" fill="#62818b"/>
<rect x="7" y="12" width="1" height="1" fill="#728b94"/>
<rect x="8" y="12" width="1" height="1" fill="#a1b3b8"/>
<rect x="9" y="12" width="1" height="1" fill="#a9b6bb"/>
<rect x="10" y="12" width="1" height="1" fill="#acbcc1"/>
<rect x="11" y="12" width="1" height="1" fill="#aababf"/>
<rect x="12" y="12" width="1" height="1" fill="#87989e"/>
<rect x="13" y="12" width="1" height="1" fill="#8399a0"/>
<rect x="14" y="12" width="1" height="1" fill="#8ea1a7"/>
<rect x="15" y="12" width="1" height="1" fill="#97a9ae"/>
<rect x="16" y="12" width="1" height="1" fill="#99abb0"/>
<rect x="17" y="12" width="1" height="1" fill="#97a9ae"/>
<rect x="18" y="12" width="1" height="1" fill="#8ea1a7"/>
<rect x="19" y="12" width="1" height="1" fill="#8399a0"/>
<rect x="20" y="12" width="1" height="1" fill="#93a7ad"/>
<rect x="21" y="12" width="1" height="1" fill="#b6c2c7"/>
<rect x="22" y="12" width="1" height="1" fill="#b5c2c6"/>
<rect x="23" y="12" width="1" height="1" fill="#7f939a"/>
<rect x="24" y="12" width="1" height="1" fill="#6e8790"/>
<rect x="25" y="12" width="1" height="1" fill="#68848d"/>
<rect x="26" y="12" width="1" height="1" fill="#62818b"/>
<rect x="27" y="12" width="1" height="1" fill="#5e7c86"/>
<rect x="28" y="12" width="1" height="1" fill="#597984"/>
<rect x="29" y="12" width="1" height="1" fill="#506e79"/>
<rect x="1" y="13" width="1" height="1" fill="#687e86"/>
<rect x="2" y="13" width="1" height="1" fill="#40636f"/>
<rect x="3" y="13" width="1" height="1" fill="#506e79"/>
<rect x="4" y="13" width="1" height="1" fill="#597984"/>
<rect x="5" y="13" width="1" height="1" fill="#5e7d87"/>
<rect x="6" y="13" width="1" height="1" fill="#65808a"/>
<rect x="7" y="13" width="1" height="1" fill="#67858f"/>
<rect x="8" y="13" width="1" height="1" fill="#7d9198"/>
<rect x="9" y="13" width="1" height="1" fill="#a5b2b7"/>
<rect x="10" y="13" width="1" height="1" fill="#a9b8bc"/>
<rect x="11" y="13" width="1" height="1" fill="#adbcc0"/>
<rect x="12" y="13" width="1" height="1" fill="#a9b8bc"/>
<rect x="13" y="13" width="1" height="1" fill="#8b9fa5"/>
<rect x="14" y="13" width="1" height="1" fill="#9aaab0"/>
<rect x="15" y="13" width="1" height="1" fill="#a7b4b9"/>
<rect x="16" y="13" width="1" height="1" fill="#acb9bd"/>
<rect x="17" y="13" width="1" height="1" fill="#a7b4b9"/>
<rect x="18" y="13" width="1" height="1" fill="#9aaab0"/>
<rect x="19" y="13" width="1" height="1" fill="#a1b3b8"/>
<rect x="20" y="13" width="2" height="1" fill="#c0c9cd"/>
<rect x="22" y="13" width="1" height="1" fill="#bfc9cd"/>
<rect x="23" y="13" width="1" height="1" fill="#98abb1"/>
<rect x="24" y="13" width="1" height="1" fill="#6f8790"/>
<rect x="25" y="13" width="1" height="1" fill="#67858f"/>
<rect x="26" y="13" width="1" height="1" fill="#65808a"/>
<rect x="27" y="13" width="1" height="1" fill="#5e7d87"/>
<rect x="28" y="13" width="1" height="1" fill="#597984"/>
<rect x="29" y="13" width="1" height="1" fill="#54727d"/>
<rect x="30" y="13" width="1" height="1" fill="#a2acaf"/>
<rect x="1" y="14" width="1" height="1" fill="#4e6d79"/>
<rect x="2" y="14" width="1" height="1" fill="#40636f"/>
<rect x="3" y="14" width="1" height="1" fill="#4f6f7b"/>
<rect x="4" y="14" width="1" height="1" fill="#597984"/>
<rect x="5" y="14" width="1" height="1" fill="#5f7d87"/>
<rect x="6" y="14" width="1" height="1" fill="#63828c"/>
<rect x="7" y="14" width="1" height="1" fill="#6a848e"/>
<rect x="8" y="14" width="1" height="1" fill="#6f8790"/>
<rect x="9" y="14" width="1" height="1" fill="#86989f"/>
<rect x="10" y="14" width="1" height="1" fill="#a6b4b8"/>
<rect x="11" y="14" width="1" height="1" fill="#a9b8bc"/>
<rect x="12" y="14" width="1" height="1" fill="#afbbc0"/>
<rect x="13" y="14" width="1" height="1" fill="#aababf"/>
<rect x="14" y="14" width="1" height="1" fill="#a0b1b6"/>
<rect x="15" y="14" width="1" height="1" fill="#b1bbbf"/>
<rect x="16" y="14" width="1" height="1" fill="#b7c3c6"/>
<rect x="17" y="14" width="1" height="1" fill="#b1bbbf"/>
<rect x="18" y="14" width="1" height="1" fill="#b6c3c7"/>
<rect x="19" y="14" width="1" height="1" fill="#c1cace"/>
<rect x="20" y="14" width="1" height="1" fill="#bbc8cc"/>
<rect x="21" y="14" width="1" height="1" fill="#bbc7ca"/>
<rect x="22" y="14" width="1" height="1" fill="#bac3c7"/>
<rect x="23" y="14" width="1" height="1" fill="#81949b"/>
<rect x="24" y="14" width="1" height="1" fill="#6f8790"/>
<rect x="25" y="14" width="1" height="1" fill="#6a848e"/>
<rect x="26" y="14" width="1" height="1" fill="#63828c"/>
<rect x="27" y="14" width="1" height="1" fill="#5f7d87"/>
<rect x="28" y="14" width="1" height="1" fill="#587a85"/>
<rect x="29" y="14" width="1" height="1" fill="#547681"/>
<rect x="30" y="14" width="1" height="1" fill="#8b9ca1"/>
<rect x="1" y="15" width="1" height="1" fill="#436774"/>
<rect x="2" y="15" width="1" height="1" fill="#40636f"/>
<rect x="3" y="15" width="1" height="1" fill="#506e79"/>
<rect x="4" y="15" width="1" height="1" fill="#597984"/>
<rect x="5" y="15" width="1" height="1" fill="#5f7d87"/>
<rect x="6" y="15" width="1" height="1" fill="#63828c"/>
<rect x="7" y="15" width="1" height="1" fill="#6a848e"/>
<rect x="8" y="15" width="1" height="1" fill="#6f8790"/>
<rect x="9" y="15" width="1" height="1" fill="#758b93"/>
<rect x="10" y="15" width="1" height="1" fill="#8ea1a7"/>
<rect x="11" y="15" width="1" height="1" fill="#a7b4b9"/>
<rect x="12" y="15" width="1" height="1" fill="#a9b9be"/>
<rect x="13" y="15" width="1" height="1" fill="#b2bdc1"/>
<rect x="14" y="15" width="1" height="1" fill="#b3bcc0"/>
<rect x="15" y="15" width="1" height="1" fill="#adbcc0"/>
<rect x="16" y="15" width="1" height="1" fill="#b6c2c5"/>
<rect x="17" y="15" width="1" height="1" fill="#c0cace"/>
<rect x="18" y="15" width="1" height="1" fill="#c2cdd0"/>
<rect x="19" y="15" width="1" height="1" fill="#bbc7ca"/>
<rect x="20" y="15" width="1" height="1" fill="#bac4c8"/>
<rect x="21" y="15" width="1" height="1" fill="#b1bfc3"/>
<rect x="22" y="15" width="1" height="1" fill="#849aa1"/>
<rect x="23" y="15" width="1" height="1" fill="#758b93"/>
<rect x="24" y="15" width="1" height="1" fill="#6f8790"/>
<rect x="25" y="15" width="1" height="1" fill="#6a848e"/>
<rect x="26" y="15" width="1" height="1" fill="#63828c"/>
<rect x="27" y="15" width="1" height="1" fill="#5f7d87"/>
<rect x="28" y="15" width="1" height="1" fill="#587a85"/>
<rect x="29" y="15" width="1" height="1" fill="#547681"/>
<rect x="30" y="15" width="1" height="1" fill="#81949a"/>
<rect x="1" y="16" width="1" height="1" fill="#446773"/>
<rect x="2" y="16" width="1" height="1" fill="#40636f"/>
<rect x="3" y="16" width="1" height="1" fill="#4d6e79"/>
<rect x="4" y="16" width="1" height="1" fill="#567883"/>
<rect x="5" y="16" width="1" height="1" fill="#5f7d87"/>
<rect x="6" y="16" width="1" height="1" fill="#63818b"/>
<rect x="7" y="16" width="1" height="1" fill="#6a848e"/>
<rect x="8" y="16" width="1" height="1" fill="#6f8790"/>
<rect x="9" y="16" width="1" height="1" fill="#728b93"/>
<rect x="10" y="16" width="1" height="1" fill="#7a8e95"/>
<rect x="11" y="16" width="1" height="1" fill="#92a6ac"/>
<rect x="12" y="16" width="1" height="1" fill="#a6b4b8"/>
<rect x="13" y="16" width="1" height="1" fill="#a9b9be"/>
<rect x="14" y="16" width="1" height="1" fill="#b4bec2"/>
<rect x="15" y="16" width="1" height="1" fill="#b2bcc0"/>
<rect x="16" y="16" width="1" height="1" fill="#bac4c8"/>
<rect x="17" y="16" width="1" height="1" fill="#bdcace"/>
<rect x="18" y="16" width="1" height="1" fill="#bbc5c9"/>
<rect x="19" y="16" width="1" height="1" fill="#b4c2c6"/>
<rect x="20" y="16" width="1" height="1" fill="#aab9bd"/>
<rect x="21" y="16" width="1" height="1" fill="#84959b"/>
<rect x="22" y="16" width="1" height="1" fill="#7a8e95"/>
<rect x="23" y="16" width="1" height="1" fill="#728b93"/>
<rect x="24" y="16" width="1" height="1" fill="#6f8790"/>
<rect x="25" y="16" width="1" height="1" fill="#6a848e"/>
<rect x="26" y="16" width="1" height="1" fill="#63818b"/>
<rect x="27" y="16" width="1" height="1" fill="#5f7d87"/>
<rect x="28" y="16" width="1" height="1" fill="#597984"/>
<rect x="29" y="16" width="1" height="1" fill="#547681"/>
<rect x="30" y="16" width="1" height="1" fill="#82959b"/>
<rect x="1" y="17" width="1" height="1" fill="#506e79"/>
<rect x="2" y="17" width="1" height="1" fill="#40636f"/>
<rect x="3" y="17" width="1" height="1" fill="#4a6b77"/>
<rect x="4" y="17" width="1" height="1" fill="#547681"/>
<rect x="5" y="17" width="1" height="1" fill="#5d7c86"/>
<rect x="6" y="17" width="1" height="1" fill="#637f88"/>
<rect x="7" y="17" width="1" height="1" fill="#67838d"/>
<rect x="8" y="17" width="1" height="1" fill="#6e868f"/>
<rect x="9" y="17" width="1" height="1" fill="#718a93"/>
<rect x="10" y="17" width="1" height="1" fill="#778f97"/>
<rect x="11" y="17" width="1" height="1" fill="#7d9097"/>
<rect x="12" y="17" width="1" height="1" fill="#96a8ad"/>
<rect x="13" y="17" width="1" height="1" fill="#a5b3b7"/>
<rect x="14" y="17" width="1" height="1" fill="#a7b7bc"/>
<rect x="15" y="17" width="1" height="1" fill="#adbcc0"/>
<rect x="16" y="17" width="1" height="1" fill="#b2bcc0"/>
<rect x="17" y="17" width="1" height="1" fill="#b2bdc1"/>
<rect x="18" y="17" width="1" height="1" fill="#b0bcc1"/>
<rect x="19" y="17" width="1" height="1" fill="#a1b3b8"/>
<rect x="20" y="17" width="1" height="1" fill="#83949a"/>
<rect x="21" y="17" width="1" height="1" fill="#7d9097"/>
<rect x="22" y="17" width="1" height="1" fill="#778f97"/>
<rect x="23" y="17" width="1" height="1" fill="#718a93"/>
<rect x="24" y="17" width="1" height="1" fill="#6e868f"/>
<rect x="25" y="17" width="1" height="1" fill="#67838d"/>
<rect x="26" y="17" width="1" height="1" fill="#637f88"/>
<rect x="27" y="17" width="1" height="1" fill="#5d7c86"/>
<rect x="28" y="17" width="1" height="1" fill="#5b7881"/>
<rect x="29" y="17" width="1" height="1" fill="#56727c"/>
<rect x="30" y="17" width="1" height="1" fill="#8e9da1"/>
<rect x="1" y="18" width="1" height="1" fill="#69818a"/>
<rect x="2" y="18" width="1" height="1" fill="#40636f"/>
<rect x="3" y="18" width="1" height="1" fill="#456975"/>
<rect x="4" y="18" width="1" height="1" fill="#54727d"/>
<rect x="5" y="18" width="1" height="1" fill="#5f7a84"/>
<rect x="6" y="18" width="1" height="1" fill="#607e88"/>
<rect x="7" y="18" width="1" height="1" fill="#67828c"/>
<rect x="8" y="18" width="1" height="1" fill="#6c858e"/>
<rect x="9" y="18" width="1" height="1" fill="#708991"/>
<rect x="10" y="18" width="1" height="1" fill="#758b93"/>
<rect x="11" y="18" width="1" height="1" fill="#7a8e95"/>
<rect x="12" y="18" width="1" height="1" fill="#7e9299"/>
<rect x="13" y="18" width="1" height="1" fill="#97aab0"/>
<rect x="14" y="18" width="1" height="1" fill="#a2b2b7"/>
<rect x="15" y="18" width="1" height="1" fill="#a6b3b7"/>
<rect x="16" y="18" width="1" height="1" fill="#a6b5b9"/>
<rect x="17" y="18" width="1" height="1" fill="#a7b7bc"/>
<rect x="18" y="18" width="1" height="1" fill="#99a9af"/>
<rect x="19" y="18" width="1" height="1" fill="#81939a"/>
<rect x="20" y="18" width="1" height="1" fill="#7d9198"/>
<rect x="21" y="18" width="1" height="1" fill="#7a8e95"/>
<rect x="22" y="18" width="1" height="1" fill="#758b93"/>
<rect x="23" y="18" width="1" height="1" fill="#708991"/>
<rect x="24" y="18" width="1" height="1" fill="#6c858e"/>
<rect x="25" y="18" width="1" height="1" fill="#67828c"/>
<rect x="26" y="18" width="1" height="1" fill="#607e88"/>
<rect x="27" y="18" width="1" height="1" fill="#5f7a84"/>
<rect x="28" y="18" width="1" height="1" fill="#567883"/>
<rect x="29" y="18" width="1" height="1" fill="#53717c"/>
<rect x="30" y="18" width="1" height="1" fill="#a4acaf"/>
<rect x="1" y="19" width="1" height="1" fill="#8b9ca1"/>
<rect x="2" y="19" width="2" height="1" fill="#40636f"/>
<rect x="4" y="19" width="1" height="1" fill="#526f7a"/>
<rect x="5" y="19" width="1" height="1" fill="#587883"/>
<rect x="6" y="19" width="1" height="1" fill="#5f7d87"/>
<rect x="7" y="19" width="1" height="1" fill="#65808a"/>
<rect x="8" y="19" width="1" height="1" fill="#68848d"/>
<rect x="9" y="19" width="1" height="1" fill="#6e868f"/>
<rect x="10" y="19" width="1" height="1" fill="#708992"/>
<rect x="11" y="19" width="1" height="1" fill="#778c94"/>
<rect x="12" y="19" width="1" height="1" fill="#7a8e95"/>
<rect x="13" y="19" width="1" height="1" fill="#7f9299"/>
<rect x="14" y="19" width="1" height="1" fill="#96a7ac"/>
<rect x="15" y="19" width="1" height="1" fill="#9db0b6"/>
<rect x="16" y="19" width="1" height="1" fill="#9eb0b5"/>
<rect x="17" y="19" width="1" height="1" fill="#8ea1a7"/>
<rect x="18" y="19" width="1" height="1" fill="#7e9299"/>
<rect x="19" y="19" width="1" height="1" fill="#7d9097"/>
<rect x="20" y="19" width="1" height="1" fill="#7a8e95"/>
<rect x="21" y="19" width="1" height="1" fill="#778c94"/>
<rect x="22" y="19" width="1" height="1" fill="#708992"/>
<rect x="23" y="19" width="1" height="1" fill="#6e868f"/>
<rect x="24" y="19" width="1" height="1" fill="#68848d"/>
<rect x="25" y="19" width="1" height="1" fill="#65808a"/>
<rect x="26" y="19" width="1" height="1" fill="#5f7d87"/>
<rect x="27" y="19" width="1" height="1" fill="#5b7a84"/>
<rect x="28" y="19" width="1" height="1" fill="#567681"/>
<rect x="29" y="19" width="1" height="1" fill="#4d6e79"/>
<rect x="2" y="20" width="2" height="1" fill="#40636f"/>
<rect x="4" y="20" width="1" height="1" fill="#4a6a76"/>
<rect x="5" y="20" width="1" height="1" fill="#527581"/>
<rect x="6" y="20" width="1" height="1" fill="#5f7a84"/>
<rect x="7" y="20" width="1" height="1" fill="#617e87"/>
<rect x="8" y="20" width="1" height="1" fill="#66828b"/>
<rect x="9" y="20" width="1" height="1" fill="#688690"/>
<rect x="10" y="20" width="1" height="1" fill="#6f8790"/>
<rect x="11" y="20" width="1" height="1" fill="#718a92"/>
<rect x="12" y="20" width="1" height="1" fill="#758b93"/>
<rect x="13" y="20" width="1" height="1" fill="#788e96"/>
<rect x="14" y="20" width="1" height="1" fill="#7a8f97"/>
<rect x="15" y="20" width="1" height="1" fill="#829399"/>
<rect x="16" y="20" width="1" height="1" fill="#7d9198"/>
<rect x="17" y="20" width="1" height="1" fill="#7d9097"/>
<rect x="18" y="20" width="1" height="1" fill="#7a8f97"/>
<rect x="19" y="20" width="1" height="1" fill="#788e96"/>
<rect x="20" y="20" width="1" height="1" fill="#758b93"/>
<rect x="21" y="20" width="1" height="1" fill="#718a92"/>
<rect x="22" y="20" width="1" height="1" fill="#6f8790"/>
<rect x="23" y="20" width="1" height="1" fill="#688690"/>
<rect x="24" y="20" width="1" height="1" fill="#66828b"/>
<rect x="25" y="20" width="1" height="1" fill="#617e87"/>
<rect x="26" y="20" width="1" height="1" fill="#5f7a84"/>
<rect x="27" y="20" width="1" height="1" fill="#577984"/>
<rect x="28" y="20" width="1" height="1" fill="#537580"/>
<rect x="29" y="20" width="1" height="1" fill="#56727c"/>
<rect x="2" y="21" width="1" height="1" fill="#546f79"/>
<rect x="3" y="21" width="1" height="1" fill="#40636f"/>
<rect x="4" y="21" width="1" height="1" fill="#416470"/>
<rect x="5" y="21" width="1" height="1" fill="#526f7a"/>
<rect x="6" y="21" width="1" height="1" fill="#567883"/>
<rect x="7" y="21" width="1" height="1" fill="#607b85"/>
<rect x="8" y="21" width="1" height="1" fill="#617f89"/>
<rect x="9" y="21" width="1" height="1" fill="#67828c"/>
<rect x="10" y="21" width="1" height="1" fill="#688690"/>
<rect x="11" y="21" width="1" height="1" fill="#6f8790"/>
<rect x="12" y="21" width="1" height="1" fill="#708992"/>
<rect x="13" y="21" width="1" height="1" fill="#728b94"/>
<rect x="14" y="21" width="1" height="1" fill="#738c95"/>
<rect x="15" y="21" width="3" height="1" fill="#778c94"/>
<rect x="18" y="21" width="1" height="1" fill="#738c95"/>
<rect x="19" y="21" width="1" height="1" fill="#728b94"/>
<rect x="20" y="21" width="1" height="1" fill="#708992"/>
<rect x="21" y="21" width="1" height="1" fill="#6f8790"/>
<rect x="22" y="21" width="1" height="1" fill="#688690"/>
<rect x="23" y="21" width="1" height="1" fill="#67828c"/>
<rect x="24" y="21" width="1" height="1" fill="#617f89"/>
<rect x="25" y="21" width="1" height="1" fill="#607b85"/>
<rect x="26" y="21" width="1" height="1" fill="#5c7982"/>
<rect x="27" y="21" width="1" height="1" fill="#557782"/>
<rect x="28" y="21" width="1" height="1" fill="#526f7a"/>
<rect x="29" y="21" width="1" height="1" fill="#8e9ca0"/>
<rect x="2" y="22" width="1" height="1" fill="#98a5a9"/>
<rect x="3" y="22" width="2" height="1" fill="#40636f"/>
<rect x="5" y="22" width="1" height="1" fill="#466a76"/>
<rect x="6" y="22" width="1" height="1" fill="#53717c"/>
<rect x="7" y="22" width="1" height="1" fill="#5b7a84"/>
<rect x="8" y="22" width="1" height="1" fill="#5f7d87"/>
<rect x="9" y="22" width="1" height="1" fill="#637f88"/>
<rect x="10" y="22" width="1" height="1" fill="#66828b"/>
<rect x="11" y="22" width="1" height="1" fill="#6a848e"/>
<rect x="12" y="22" width="1" height="1" fill="#6e858e"/>
<rect x="13" y="22" width="1" height="1" fill="#6f8790"/>
<rect x="14" y="22" width="1" height="1" fill="#708891"/>
<rect x="15" y="22" width="3" height="1" fill="#718992"/>
<rect x="18" y="22" width="1" height="1" fill="#708891"/>
<rect x="19" y="22" width="1" height="1" fill="#6f8790"/>
<rect x="20" y="22" width="1" height="1" fill="#6e858e"/>
<rect x="21" y="22" width="1" height="1" fill="#6a848e"/>
<rect x="22" y="22" width="1" height="1" fill="#66828b"/>
<rect x="23" y="22" width="1" height="1" fill="#637f88"/>
<rect x="24" y="22" width="1" height="1" fill="#5f7d87"/>
<rect x="25" y="22" width="1" height="1" fill="#5e7983"/>
<rect x="26" y="22" width="1" height="1" fill="#577782"/>
<rect x="27" y="22" width="1" height="1" fill="#537580"/>
<rect x="28" y="22" width="1" height="1" fill="#4a6a76"/>
<rect x="3" y="23" width="1" height="1" fill="#55727d"/>
<rect x="4" y="23" width="2" height="1" fill="#40636f"/>
<rect x="6" y="23" width="1" height="1" fill="#4d6b76"/>
<rect x="7" y="23" width="1" height="1" fill="#527581"/>
<rect x="8" y="23" width="1" height="1" fill="#5b7a84"/>
<rect x="9" y="23" width="1" height="1" fill="#607c85"/>
<rect x="10" y="23" width="1" height="1" fill="#607f89"/>
<rect x="11" y="23" width="1" height="1" fill="#64828c"/>
<rect x="12" y="23" width="1" height="1" fill="#67838d"/>
<rect x="13" y="23" width="1" height="1" fill="#6a848e"/>
<rect x="14" y="23" width="5" height="1" fill="#6c858e"/>
<rect x="19" y="23" width="1" height="1" fill="#6a848e"/>
<rect x="20" y="23" width="1" height="1" fill="#67838d"/>
<rect x="21" y="23" width="1" height="1" fill="#64828c"/>
<rect x="22" y="23" width="1" height="1" fill="#607f89"/>
<rect x="23" y="23" width="1" height="1" fill="#607c85"/>
<rect x="24" y="23" width="1" height="1" fill="#5d7a83"/>
<rect x="25" y="23" width="1" height="1" fill="#567883"/>
<rect x="26" y="23" width="1" height="1" fill="#557580"/>
<rect x="27" y="23" width="1" height="1" fill="#4d6e79"/>
<rect x="28" y="23" width="1" height="1" fill="#8c9ca1"/>
<rect x="4" y="24" width="3" height="1" fill="#40636f"/>
<rect x="7" y="24" width="1" height="1" fill="#4e6c77"/>
<rect x="8" y="24" width="1" height="1" fill="#527581"/>
<rect x="9" y="24" width="1" height="1" fill="#597984"/>
<rect x="10" y="24" width="1" height="1" fill="#5d7c86"/>
<rect x="11" y="24" width="1" height="1" fill="#607e88"/>
<rect x="12" y="24" width="1" height="1" fill="#637f88"/>
<rect x="13" y="24" width="1" height="1" fill="#678189"/>
<rect x="14" y="24" width="1" height="1" fill="#64828c"/>
<rect x="15" y="24" width="3" height="1" fill="#67828c"/>
<rect x="18" y="24" width="1" height="1" fill="#64828c"/>
<rect x="19" y="24" width="1" height="1" fill="#678189"/>
<rect x="20" y="24" width="1" height="1" fill="#637f88"/>
<rect x="21" y="24" width="1" height="1" fill="#607e88"/>
<rect x="22" y="24" width="1" height="1" fill="#5d7c86"/>
<rect x="23" y="24" width="1" height="1" fill="#5b7a84"/>
<rect x="24" y="24" width="1" height="1" fill="#567883"/>
<rect x="25" y="24" width="1" height="1" fill="#557580"/>
<rect x="26" y="24" width="1" height="1" fill="#506e79"/>
<rect x="27" y="24" width="1" height="1" fill="#5b7881"/>
<rect x="4" y="25" width="1" height="1" fill="#92a0a4"/>
<rect x="5" y="25" width="3" height="1" fill="#40636f"/>
<rect x="8" y="25" width="1" height="1" fill="#4d6b76"/>
<rect x="9" y="25" width="1" height="1" fill="#53717c"/>
<rect x="10" y="25" width="1" height="1" fill="#577782"/>
<rect x="11" y="25" width="1" height="1" fill="#5d7a83"/>
<rect x="12" y="25" width="1" height="1" fill="#5d7c86"/>
<rect x="13" y="25" width="1" height="1" fill="#5f7d87"/>
<rect x="14" y="25" width="1" height="1" fill="#607e88"/>
<rect x="15" y="25" width="3" height="1" fill="#607e89"/>
<rect x="18" y="25" width="1" height="1" fill="#607e88"/>
<rect x="19" y="25" width="1" height="1" fill="#5f7d87"/>
<rect x="20" y="25" width="1" height="1" fill="#5d7c86"/>
<rect x="21" y="25" width="1" height="1" fill="#5d7a83"/>
<rect x="22" y="25" width="1" height="1" fill="#597984"/>
<rect x="23" y="25" width="1" height="1" fill="#557782"/>
<rect x="24" y="25" width="1" height="1" fill="#537580"/>
<rect x="25" y="25" width="1" height="1" fill="#4e6e7a"/>
<rect x="26" y="25" width="1" height="1" fill="#4c6c78"/>
<rect x="5" y="26" width="1" height="1" fill="#87989d"/>
<rect x="6" y="26" width="3" height="1" fill="#40636f"/>
<rect x="9" y="26" width="1" height="1" fill="#456975"/>
<rect x="10" y="26" width="1" height="1" fill="#4f6f7b"/>
<rect x="11" y="26" width="1" height="1" fill="#527581"/>
<rect x="12" y="26" width="1" height="1" fill="#577782"/>
<rect x="13" y="26" width="1" height="1" fill="#5c7982"/>
<rect x="14" y="26" width="1" height="1" fill="#5b7a84"/>
<rect x="15" y="26" width="3" height="1" fill="#5c7b85"/>
<rect x="18" y="26" width="2" height="1" fill="#5b7a84"/>
<rect x="20" y="26" width="1" height="1" fill="#587883"/>
<rect x="21" y="26" width="1" height="1" fill="#557782"/>
<rect x="22" y="26" width="1" height="1" fill="#557580"/>
<rect x="23" y="26" width="1" height="1" fill="#53717c"/>
<rect x="24" y="26" width="1" height="1" fill="#4e6c77"/>
<rect x="25" y="26" width="1" height="1" fill="#486a77"/>
<rect x="6" y="27" width="1" height="1" fill="#97a4a8"/>
<rect x="7" y="27" width="1" height="1" fill="#416470"/>
<rect x="8" y="27" width="2" height="1" fill="#40636f"/>
<rect x="10" y="27" width="1" height="1" fill="#416470"/>
<rect x="11" y="27" width="1" height="1" fill="#486a77"/>
<rect x="12" y="27" width="1" height="1" fill="#506e79"/>
<rect x="13" y="27" width="1" height="1" fill="#53717c"/>
<rect x="14" y="27" width="1" height="1" fill="#55727d"/>
<rect x="15" y="27" width="1" height="1" fill="#547681"/>
<rect x="16" y="27" width="1" height="1" fill="#547783"/>
<rect x="17" y="27" width="1" height="1" fill="#557782"/>
<rect x="18" y="27" width="1" height="1" fill="#567681"/>
<rect x="19" y="27" width="1" height="1" fill="#557580"/>
<rect x="20" y="27" width="1" height="1" fill="#53727e"/>
<rect x="21" y="27" width="1" height="1" fill="#50717d"/>
<rect x="22" y="27" width="1" height="1" fill="#4f6c77"/>
<rect x="23" y="27" width="1" height="1" fill="#456975"/>
<rect x="24" y="27" width="1" height="1" fill="#557580"/>
<rect x="8" y="28" width="1" height="1" fill="#5e7a83"/>
<rect x="9" y="28" width="4" height="1" fill="#40636f"/>
<rect x="13" y="28" width="1" height="1" fill="#446875"/>
<rect x="14" y="28" width="1" height="1" fill="#486a77"/>
<rect x="15" y="28" width="1" height="1" fill="#4e6c77"/>
<rect x="16" y="28" width="1" height="1" fill="#4d6e79"/>
<rect x="17" y="28" width="1" height="1" fill="#4e6e7a"/>
<rect x="18" y="28" width="1" height="1" fill="#4d6e79"/>
<rect x="19" y="28" width="1" height="1" fill="#4d6b76"/>
<rect x="20" y="28" width="1" height="1" fill="#466a76"/>
<rect x="21" y="28" width="1" height="1" fill="#446773"/>
<rect x="22" y="28" width="1" height="1" fill="#40636f"/>
<rect x="23" y="28" width="1" height="1" fill="#83959a"/>
<rect x="9" y="29" width="1" height="1" fill="#a7afb2"/>
<rect x="10" y="29" width="1" height="1" fill="#667f87"/>
<rect x="11" y="29" width="9" height="1" fill="#40636f"/>
<rect x="20" y="29" width="1" height="1" fill="#466875"/>
<rect x="21" y="29" width="1" height="1" fill="#7e9298"/>
<rect x="12" y="30" width="1" height="1" fill="#a2acaf"/>
<rect x="13" y="30" width="1" height="1" fill="#88989d"/>
<rect x="14" y="30" width="1" height="1" fill="#76888f"/>
<rect x="15" y="30" width="1" height="1" fill="#6c828a"/>
<rect x="16" y="30" width="1" height="1" fill="#6f848c"/>
<rect x="17" y="30" width="1" height="1" fill="#788f96"/>
<rect x="18" y="30" width="1" height="1" fill="#8f9fa4"/>
</svg>