<svg xmlns="http://www.w3.org/2000/svg" width="32" height="32" viewBox="0 0 32 32" shape-rendering="crispEdges">
<rect x="10" y="7" width="1" height="1" fill="#a4acaf"/>
<rect x="11" y="7" width="1" height="1" fill="#8e9fa4"/>
<rect x="12" y="7" width="1" height="1" fill="#84989e"/>
<rect x="13" y="7" width="1" height="1" fill="#83989f"/>
<rect x="14" y="7" width="1" height="1" fill="#85989e"/>
<rect x="15" y="7" width="1" height="1" fill="#869aa0"/>
<rect x="16" y="7" width="1" height="1" fill="#879aa0"/>
<rect x="17" y="7" width="1" height="1" fill="#889ca2"/>
<rect x="18" y="7" width="1" height="1" fill="#899da3"/>
<rect x="19" y="7" width="1" height="1" fill="#8c9ea3"/>
<rect x="20" y="7" width="1" height="1" fill="#8e9fa4"/>
<rect x="21" y="7" width="1" height="1" fill="#8fa0a5"/>
<rect x="22" y="7" width="1" height="1" fill="#8fa2a8"/>
<rect x="23" y="7" width="1" height="1" fill="#91a2a7"/>
<rect x="24" y="7" width="1" height="1" fill="#90a4aa"/>
<rect x="25" y="7" width="1" height="1" fill="#93a4a9"/>
<rect x="26" y="7" width="1" height="1" fill="#95a6ab"/>
<rect x="27" y="7" width="1" height="1" fill="#94a7ad"/>
<rect x="28" y="7" width="1" height="1" fill="#96a7ac"/>
<rect x="29" y="7" width="1" height="1" fill="#98a8ae"/>
<rect x="7" y="8" width="1" height="1" fill="#a4aeb2"/>
<rect x="8" y="8" width="1" height="1" fill="#68818a"/>
<rect x="9" y="8" width="1" height="1" fill="#55727d"/>
<rect x="10" y="8" width="1" height="1" fill="#557681"/>
<rect x="11" y="8" width="1" height="1" fill="#567883"/>
<rect x="12" y="8" width="1" height="1" fill="#587984"/>
<rect x="13" y="8" width="1" height="1" fill="#5c7b85"/>
<rect x="14" y="8" width="1" height="1" fill="#5f7c85"/>
<rect x="15" y="8" width="1" height="1" fill="#607e88"/>
<rect x="16" y="8" width="1" height="1" fill="#617f89"/>
<rect x="17" y="8" width="1" height="1" fill="#63828c"/>
<rect x="18" y="8" width="1" height="1" fill="#68828c"/>
<rect x="19" y="8" width="1" height="1" fill="#69848e"/>
<rect x="20" y="8" width="1" height="1" fill="#698791"/>
<rect x="21" y="8" width="1" height="1" fill="#6e8790"/>
<rect x="22" y="8" width="1" height="1" fill="#6f8993"/>
<rect x="23" y="8" width="1" height="1" fill="#718a93"/>
<rect x="24" y="8" width="1" height="1" fill="#738c95"/>
<rect x="25" y="8" width="1" height="1" fill="#748f98"/>
<rect x="26" y="8" width="1" height="1" fill="#788f98"/>
<rect x="27" y="8" width="1" height="1" fill="#799098"/>
<rect x="28" y="8" width="1" height="1" fill="#7b929a"/>
<rect x="29" y="8" width="1" height="1" fill="#7c949d"/>
<rect x="6" y="9" width="1" height="1" fill="#69838c"/>
<rect x="7" y="9" width="1" height="1" fill="#506e79"/>
<rect x="8" y="9" width="1" height="1" fill="#4f727e"/>
<rect x="9" y="9" width="1" height="1" fill="#55727d"/>
<rect x="10" y="9" width="1" height="1" fill="#557681"/>
<rect x="11" y="9" width="1" height="1" fill="#567883"/>
<rect x="12" y="9" width="1" height="1" fill="#587984"/>
<rect x="13" y="9" width="1" height="1" fill="#5c7b85"/>
<rect x="14" y="9" width="1" height="1" fill="#5f7c85"/>
<rect x="15" y="9" width="1" height="1" fill="#607e88"/>
<rect x="16" y="9" width="1" height="1" fill="#617f89"/>
<rect x="17" y="9" width="1" height="1" fill="#63828c"/>
<rect x="18" y="9" width="1" height="1" fill="#68828c"/>
<rect x="19" y="9" width="1" height="1" fill="#69848e"/>
<rect x="20" y="9" width="1" height="1" fill="#698791"/>
<rect x="21" y="9" width="1" height="1" fill="#6e8790"/>
<rect x="22" y="9" width="1" height="1" fill="#6f8993"/>
<rect x="23" y="9" width="1" height="1" fill="#718a93"/>
<rect x="24" y="9" width="1" height="1" fill="#738c95"/>
<rect x="25" y="9" width="1" height="1" fill="#748f98"/>
<rect x="26" y="9" width="1" height="1" fill="#788f98"/>
<rect x="27" y="9" width="1" height="1" fill="#799098"/>
<rect x="28" y="9" width="1" height="1" fill="#7b929a"/>
<rect x="29" y="9" width="1" height="1" fill="#7c949d"/>
<rect x="5" y="10" width="1" height="1" fill="#54717c"/>
<rect x="6" y="10" width="1" height="1" fill="#4d6d79"/>
<rect x="7" y="10" width="1" height="1" fill="#506e79"/>
<rect x="8" y="10" width="1" height="1" fill="#4f727e"/>
<rect x="9" y="10" width="1" height="1" fill="#55727d"/>
<rect x="10" y="10" width="1" height="1" fill="#557681"/>
<rect x="11" y="10" width="1" height="1" fill="#567883"/>
<rect x="12" y="10" width="1" height="1" fill="#587984"/>
<rect x="13" y="10" width="1" height="1" fill="#5c7b85"/>
<rect x="14" y="10" width="1" height="1" fill="#5f7c85"/>
<rect x="15" y="10" width="1" height="1" fill="#607e88"/>
<rect x="16" y="10" width="1" height="1" fill="#617f89"/>
<rect x="17" y="10" width="1" height="1" fill="#63828c"/>
<rect x="18" y="10" width="1" height="1" fill="#68828c"/>
<rect x="19" y="10" width="1" height="1" fill="#69848e"/>
<rect x="20" y="10" width="1" height="1" fill="#698791"/>
<rect x="21" y="10" width="1" height="1" fill="#6e8790"/>
<rect x="22" y="10" width="1" height="1" fill="#6f8993"/>
<rect x="23" y="10" width="1" height="1" fill="#718a93"/>
<rect x="24" y="10" width="1" height="1" fill="#738c95"/>
<rect x="25" y="10" width="1" height="1" fill="#748f98"/>
<rect x="26" y="10" width="1" height="1" fill="#788f98"/>
<rect x="27" y="10" width="1" height="1" fill="#799098"/>
<rect x="28" y="10" width="1" height="1" fill="#7b929a"/>
<rect x="29" y="10" width="1" height="1" fill="#7c949d"/>
<rect x="4" y="11" width="1" height="1" fill="#4e6e7a"/>
<rect x="5" y="11" width="1" height="1" fill="#4d6b76"/>
<rect x="6" y="11" width="1" height="1" fill="#4d6d79"/>
<rect x="7" y="11" width="1" height="1" fill="#506e79"/>
<rect x="8" y="11" width="1" height="1" fill="#4f727e"/>
<rect x="9" y="11" width="1" height="1" fill="#55727d"/>
<rect x="10" y="11" width="1" height="1" fill="#557681"/>
<rect x="11" y="11" width="1" height="1" fill="#567883"/>
<rect x="12" y="11" width="1" height="1" fill="#587984"/>
<rect x="13" y="11" width="1" height="1" fill="#5c7b85"/>
<rect x="14" y="11" width="1" height="1" fill="#5f7c85"/>
<rect x="15" y="11" width="1" height="1" fill="#607e88"/>
<rect x="16" y="11" width="1" height="1" fill="#617f89"/>
<rect x="17" y="11" width="1" height="1" fill="#63828c"/>
<rect x="18" y="11" width="1" height="1" fill="#68828c"/>
<rect x="19" y="11" width="1" height="1" fill="#69848e"/>
<rect x="20" y="11" width="1" height="1" fill="#698791"/>
<rect x="21" y="11" width="1" height="1" fill="#6e8790"/>
<rect x="22" y="11" width="1" height="1" fill="#6f8993"/>
<rect x="23" y="11" width="1" height="1" fill="#718a93"/>
<rect x="24" y="11" width="1" height="1" fill="#738c95"/>
<rect x="25" y="11" width="1" height="1" fill="#748f98"/>
<rect x="26" y="11" width="1" height="1" fill="#788f98"/>
<rect x="27" y="11" width="1" height="1" fill="#799098"/>
<rect x="28" y="11" width="1" height="1" fill="#7b929a"/>
<rect x="29" y="11" width="1" height="1" fill="#7c949d"/>
<rect x="3" y="12" width="1" height="1" fill="#5b7780"/>
<rect x="4" y="12" width="1" height="1" fill="#476b77"/>
<rect x="5" y="12" width="1" height="1" fill="#4d6b76"/>
<rect x="6" y="12" width="1" height="1" fill="#4d6d79"/>
<rect x="7" y="12" width="1" height="1" fill="#506e79"/>
<rect x="8" y="12" width="1" height="1" fill="#4f727e"/>
<rect x="9" y="12" width="1" height="1" fill="#55727d"/>
<rect x="10" y="12" width="1" height="1" fill="#557681"/>
<rect x="11" y="12" width="1" height="1" fill="#567883"/>
<rect x="12" y="12" width="1" height="1" fill="#587984"/>
<rect x="13" y="12" width="1" height="1" fill="#5c7b85"/>
<rect x="14" y="12" width="1" height="1" fill="#5f7c85"/>
<rect x="15" y="12" width="1" height="1" fill="#607e88"/>
<rect x="16" y="12" width="1" height="1" fill="#617f89"/>
<rect x="17" y="12" width="1" height="1" fill="#63828c"/>
<rect x="18" y="12" width="1" height="1" fill="#68828c"/>
<rect x="19" y="12" width="1" height="1" fill="#69848e"/>
<rect x="20" y="12" width="1" height="1" fill="#698791"/>
<rect x="21" y="12" width="1" height="1" fill="#6e8790"/>
<rect x="22" y="12" width="1" height="1" fill="#6f8993"/>
<rect x="23" y="12" width="1" height="1" fill="#718a93"/>
<rect x="24" y="12" width="1" height="1" fill="#738c95"/>
<rect x="25" y="12" width="1" height="1" fill="#748f98"/>
<rect x="26" y="12" width="1" height="1" fill="#788f98"/>
<rect x="27" y="12" width="1" height="1" fill="#799098"/>
<rect x="28" y="12" width="1" height="1" fill="#7b929a"/>
<rect x="29" y="12" width="1" height="1" fill="#7c949d"/>
<rect x="2" y="13" width="1" height="1" fill="#8c9ca1"/>
<rect x="3" y="13" width="1" height="1" fill="#456975"/>
<rect x="4" y="13" width="1" height="1" fill="#476b77"/>
<rect x="5" y="13" width="1" height="1" fill="#4d6b76"/>
<rect x="6" y="13" width="1" height="1" fill="#4d6d79"/>
<rect x="7" y="13" width="1" height="1" fill="#506e79"/>
<rect x="8" y="13" width="1" height="1" fill="#4f727e"/>
<rect x="9" y="13" width="1" height="1" fill="#55727d"/>
<rect x="10" y="13" width="1" height="1" fill="#6e8790"/>
<rect x="11" y="13" width="1" height="1" fill="#b3bdc1"/>
<rect x="12" y="13" width="1" height="1" fill="#d0d5d7"/>
<rect x="13" y="13" width="1" height="1" fill="#d5dbdc"/>
<rect x="14" y="13" width="1" height="1" fill="#c6ced0"/>
<rect x="15" y="13" width="1" height="1" fill="#93a7ad"/>
<rect x="16" y="13" width="1" height="1" fill="#617f89"/>
<rect x="17" y="13" width="1" height="1" fill="#63828c"/>
<rect x="18" y="13" width="1" height="1" fill="#68828c"/>
<rect x="19" y="13" width="1" height="1" fill="#69848e"/>
<rect x="20" y="13" width="1" height="1" fill="#698791"/>
<rect x="21" y="13" width="1" height="1" fill="#6e8790"/>
<rect x="22" y="13" width="1" height="1" fill="#6f8993"/>
<rect x="23" y="13" width="1" height="1" fill="#718a93"/>
<rect x="24" y="13" width="1" height="1" fill="#738c95"/>
<rect x="25" y="13" width="1" height="1" fill="#748f98"/>
<rect x="26" y="13" width="1" height="1" fill="#788f98"/>
<rect x="27" y="13" width="1" height="1" fill="#799098"/>
<rect x="28" y="13" width="1" height="1" fill="#7b929a"/>
<rect x="29" y="13" width="1" height="1" fill="#7c949d"/>
<rect x="2" y="14" width="1" height="1" fill="#4a6a76"/>
<rect x="3" y="14" width="1" height="1" fill="#456975"/>
<rect x="4" y="14" width="1" height="1" fill="#476b77"/>
<rect x="5" y="14" width="1" height="1" fill="#4d6b76"/>
<rect x="6" y="14" width="1" height="1" fill="#4d6d79"/>
<rect x="7" y="14" width="1" height="1" fill="#506e79"/>
<rect x="8" y="14" width="1" height="1" fill="#4f727e"/>
<rect x="9" y="14" width="1" height="1" fill="#99abb0"/>
<rect x="10" y="14" width="1" height="1" fill="#dce1e2"/>
<rect x="11" y="14" width="3" height="1" fill="#dadee0"/>
<rect x="14" y="14" width="1" height="1" fill="#e0e3e5"/>
<rect x="15" y="14" width="1" height="1" fill="#ecedee"/>
<rect x="16" y="14" width="1" height="1" fill="#cfd6d8"/>
<rect x="17" y="14" width="1" height="1" fill="#6c8791"/>
<rect x="18" y="14" width="1" height="1" fill="#68828c"/>
<rect x="19" y="14" width="1" height="1" fill="#69848e"/>
<rect x="20" y="14" width="1" height="1" fill="#698791"/>
<rect x="21" y="14" width="1" height="1" fill="#6e8790"/>
<rect x="22" y="14" width="1" height="1" fill="#6f8993"/>
<rect x="23" y="14" width="1" height="1" fill="#718a93"/>
<rect x="24" y="14" width="1" height="1" fill="#738c95"/>
<rect x="25" y="14" width="1" height="1" fill="#748f98"/>
<rect x="26" y="14" width="1" height="1" fill="#788f98"/>
<rect x="27" y="14" width="1" height="1" fill="#799098"/>
<rect x="28" y="14" width="1" height="1" fill="#7b929a"/>
<rect x="29" y="14" width="1" height="1" fill="#7c949d"/>
<rect x="1" y="15" width="1" height="1" fill="#9ea8ac"/>
<rect x="2" y="15" width="1" height="1" fill="#446774"/>
<rect x="3" y="15" width="1" height="1" fill="#456975"/>
<rect x="4" y="15" width="1" height="1" fill="#476b77"/>
<rect x="5" y="15" width="1" height="1" fill="#4d6b76"/>
<rect x="6" y="15" width="1" height="1" fill="#4d6d79"/>
<rect x="7" y="15" width="1" height="1" fill="#506e79"/>
<rect x="8" y="15" width="1" height="1" fill="#899fa6"/>
<rect x="9" y="15" width="1" height="1" fill="#dbddde"/>
<rect x="10" y="15" width="1" height="1" fill="#c8cdcf"/>
<rect x="11" y="15" width="3" height="1" fill="#c0c9cb"/>
<rect x="14" y="15" width="1" height="1" fill="#c8cdcf"/>
<rect x="15" y="15" width="1" height="1" fill="#dadee0"/>
<rect x="16" y="15" width="1" height="1" fill="#e7e8e9"/>
<rect x="17" y="15" width="1" height="1" fill="#cfd6d8"/>
<rect x="18" y="15" width="1" height="1" fill="#68828c"/>
<rect x="19" y="15" width="1" height="1" fill="#69848e"/>
<rect x="20" y="15" width="1" height="1" fill="#698791"/>
<rect x="21" y="15" width="1" height="1" fill="#6e8790"/>
<rect x="22" y="15" width="1" height="1" fill="#6f8993"/>
<rect x="23" y="15" width="1" height="1" fill="#718a93"/>
<rect x="24" y="15" width="1" height="1" fill="#738c95"/>
<rect x="25" y="15" width="1" height="1" fill="#748f98"/>
<rect x="26" y="15" width="1" height="1" fill="#788f98"/>
<rect x="27" y="15" width="1" height="1" fill="#799098"/>
<rect x="28" y="15" width="1" height="1" fill="#7b929a"/>
<rect x="29" y="15" width="1" height="1" fill="#7c949d"/>
<rect x="1" y="16" width="1" height="1" fill="#718a92"/>
<rect x="2" y="16" width="1" height="1" fill="#446774"/>
<rect x="3" y="16" width="1" height="1" fill="#456975"/>
<rect x="4" y="16" width="1" height="1" fill="#476b77"/>
<rect x="5" y="16" width="1" height="1" fill="#4d6b76"/>
<rect x="6" y="16" width="1" height="1" fill="#4d6d79"/>
<rect x="7" y="16" width="1" height="1" fill="#54717c"/>
<rect x="8" y="16" width="1" height="1" fill="#cdd5d7"/>
<rect x="9" y="16" width="1" height="1" fill="#c0c9cb"/>
<rect x="10" y="16" width="1" height="1" fill="#b3bcc0"/>
<rect x="11" y="16" width="3" height="1" fill="#a1b2b7"/>
<rect x="14" y="16" width="1" height="1" fill="#b3bcc0"/>
<rect x="15" y="16" width="1" height="1" fill="#c0c9cb"/>
<rect x="16" y="16" width="1" height="1" fill="#dadee0"/>
<rect x="17" y="16" width="1" height="1" fill="#ecedee"/>
<rect x="18" y="16" width="1" height="1" fill="#97a9ae"/>
<rect x="19" y="16" width="1" height="1" fill="#69848e"/>
<rect x="20" y="16" width="1" height="1" fill="#698791"/>
<rect x="21" y="16" width="1" height="1" fill="#6e8790"/>
<rect x="22" y="16" width="1" height="1" fill="#6f8993"/>
<rect x="23" y="16" width="1" height="1" fill="#718a93"/>
<rect x="24" y="16" width="1" height="1" fill="#738c95"/>
<rect x="25" y="16" width="1" height="1" fill="#748f98"/>
<rect x="26" y="16" width="1" height="1" fill="#788f98"/>
<rect x="27" y="16" width="1" height="1" fill="#799098"/>
<rect x="28" y="16" width="1" height="1" fill="#7b929a"/>
<rect x="29" y="16" width="1" height="1" fill="#7c949d"/>
<rect x="1" y="17" width="1" height="1" fill="#546f79"/>
<rect x="2" y="17" width="1" height="1" fill="#446774"/>
<rect x="3" y="17" width="1" height="1" fill="#456975"/>
<rect x="4" y="17" width="1" height="1" fill="#476b77"/>
<rect x="5" y="17" width="1" height="1" fill="#4d6b76"/>
<rect x="6" y="17" width="1" height="1" fill="#4d6d79"/>
<rect x="7" y="17" width="1" height="1" fill="#7b9199"/>
<rect x="8" y="17" width="1" height="1" fill="#c8cdcf"/>
<rect x="9" y="17" width="1" height="1" fill="#b3bcc0"/>
<rect x="10" y="17" width="1" height="1" fill="#9aaaaf"/>
<rect x="11" y="17" width="3" height="1" fill="#7f939a"/>
<rect x="14" y="17" width="1" height="1" fill="#9aaaaf"/>
<rect x="15" y="17" width="1" height="1" fill="#b3bcc0"/>
<rect x="16" y="17" width="1" height="1" fill="#c8cdcf"/>
<rect x="17" y="17" width="1" height="1" fill="#e0e3e5"/>
<rect x="18" y="17" width="1" height="1" fill="#cacfd1"/>
<rect x="19" y="17" width="1" height="1" fill="#69848e"/>
<rect x="20" y="17" width="1" height="1" fill="#698791"/>
<rect x="21" y="17" width="1" height="1" fill="#6e8790"/>
<rect x="22" y="17" width="1" height="1" fill="#6f8993"/>
<rect x="23" y="17" width="1" height="1" fill="#718a93"/>
<rect x="24" y="17" width="1" height="1" fill="#738c95"/>
<rect x="25" y="17" width="1" height="1" fill="#748f98"/>
<rect x="26" y="17" width="1" height="1" fill="#788f98"/>
<rect x="27" y="17" width="1" height="1" fill="#799098"/>
<rect x="28" y="17" width="1" height="1" fill="#7b929a"/>
<rect x="29" y="17" width="1" height="1" fill="#7c949d"/>
<rect x="1" y="18" width="1" height="1" fill="#416470"/>
<rect x="2" y="18" width="1" height="1" fill="#446774"/>
<rect x="3" y="18" width="1" height="1" fill="#456975"/>
<rect x="4" y="18" width="1" height="1" fill="#476b77"/>
<rect x="5" y="18" width="1" height="1" fill="#4d6b76"/>
<rect x="6" y="18" width="1" height="1" fill="#4d6d79"/>
<rect x="7" y="18" width="1" height="1" fill="#90a3a9"/>
<rect x="8" y="18" width="1" height="1" fill="#c0c9cb"/>
<rect x="9" y="18" width="1" height="1" fill="#a1b2b7"/>
<rect x="10" y="18" width="1" height="1" fill="#7f939a"/>
<rect x="11" y="18" width="1" height="1" fill="#617c86"/>
<rect x="12" y="18" width="1" height="1" fill="#547681"/>
<rect x="13" y="18" width="1" height="1" fill="#617c86"/>
<rect x="14" y="18" width="1" height="1" fill="#7f939a"/>
<rect x="15" y="18" width="1" height="1" fill="#a1b2b7"/>
<rect x="16" y="18" width="1" height="1" fill="#c0c9cb"/>
<rect x="17" y="18" width="1" height="1" fill="#dadee0"/>
<rect x="18" y="18" width="1" height="1" fill="#d6dcdd"/>
<rect x="19" y="18" width="1" height="1" fill="#69848e"/>
<rect x="20" y="18" width="1" height="1" fill="#698791"/>
<rect x="21" y="18" width="1" height="1" fill="#6e8790"/>
<rect x="22" y="18" width="1" height="1" fill="#6f8993"/>
<rect x="23" y="18" width="1" height="1" fill="#718a93"/>
<rect x="24" y="18" width="1" height="1" fill="#738c95"/>
<rect x="25" y="18" width="1" height="1" fill="#748f98"/>
<rect x="26" y="18" width="1" height="1" fill="#788f98"/>
<rect x="27" y="18" width="1" height="1" fill="#799098"/>
<rect x="28" y="18" width="1" height="1" fill="#7b929a"/>
<rect x="29" y="18" width="1" height="1" fill="#7c949d"/>
<rect x="1" y="19" width="1" height="1" fill="#416470"/>
<rect x="2" y="19" width="1" height="1" fill="#446774"/>
<rect x="3" y="19" width="1" height="1" fill="#456975"/>
<rect x="4" y="19" width="1" height="1" fill="#476b77"/>
<rect x="5" y="19" width="1" height="1" fill="#4d6b76"/>
<rect x="6" y="19" width="1" height="1" fill="#4d6d79"/>
<rect x="7" y="19" width="1" height="1" fill="#8c9da3"/>
<rect x="8" y="19" width="1" height="1" fill="#c0c9cb"/>
<rect x="9" y="19" width="1" height="1" fill="#a1b2b7"/>
<rect x="10" y="19" width="1" height="1" fill="#7f939a"/>
<rect x="11" y="19" width="1" height="1" fill="#547681"/>
<rect x="12" y="19" width="1" height="1" fill="#40636f"/>
<rect x="13" y="19" width="1" height="1" fill="#547681"/>
<rect x="14" y="19" width="1" height="1" fill="#7f939a"/>
<rect x="15" y="19" width="1" height="1" fill="#a1b2b7"/>
<rect x="16" y="19" width="1" height="1" fill="#c0c9cb"/>
<rect x="17" y="19" width="1" height="1" fill="#dadee0"/>
<rect x="18" y="19" width="1" height="1" fill="#d3d7d9"/>
<rect x="19" y="19" width="1" height="1" fill="#69848e"/>
<rect x="20" y="19" width="1" height="1" fill="#698791"/>
<rect x="21" y="19" width="1" height="1" fill="#6e8790"/>
<rect x="22" y="19" width="1" height="1" fill="#6f8993"/>
<rect x="23" y="19" width="1" height="1" fill="#718a93"/>
<rect x="24" y="19" width="1" height="1" fill="#81959c"/>
<rect x="1" y="20" width="1" height="1" fill="#466975"/>
<rect x="2" y="20" width="1" height="1" fill="#446774"/>
<rect x="3" y="20" width="1" height="1" fill="#456975"/>
<rect x="4" y="20" width="1" height="1" fill="#476b77"/>
<rect x="5" y="20" width="1" height="1" fill="#4d6b76"/>
<rect x="6" y="20" width="1" height="1" fill="#4d6d79"/>
<rect x="7" y="20" width="1" height="1" fill="#69838b"/>
<rect x="8" y="20" width="1" height="1" fill="#c0c9cb"/>
<rect x="9" y="20" width="1" height="1" fill="#a1b2b7"/>
<rect x="10" y="20" width="1" height="1" fill="#7f939a"/>
<rect x="11" y="20" width="1" height="1" fill="#617c86"/>
<rect x="12" y="20" width="1" height="1" fill="#547681"/>
<rect x="13" y="20" width="1" height="1" fill="#617c86"/>
<rect x="14" y="20" width="1" height="1" fill="#7f939a"/>
<rect x="15" y="20" width="1" height="1" fill="#a1b2b7"/>
<rect x="16" y="20" width="1" height="1" fill="#c0c9cb"/>
<rect x="17" y="20" width="1" height="1" fill="#dadee0"/>
<rect x="18" y="20" width="1" height="1" fill="#b8c2c5"/>
<rect x="19" y="20" width="1" height="1" fill="#69848e"/>
<rect x="20" y="20" width="1" height="1" fill="#698791"/>
<rect x="21" y="20" width="1" height="1" fill="#6e8790"/>
<rect x="22" y="20" width="1" height="1" fill="#6f8993"/>
<rect x="23" y="20" width="1" height="1" fill="#718a93"/>
<rect x="24" y="20" width="1" height="1" fill="#8a9ea4"/>
<rect x="1" y="21" width="1" height="1" fill="#607c85"/>
<rect x="2" y="21" width="1" height="1" fill="#446774"/>
<rect x="3" y="21" width="1" height="1" fill="#456975"/>
<rect x="4" y="21" width="1" height="1" fill="#476b77"/>
<rect x="5" y="21" width="1" height="1" fill="#4d6b76"/>
<rect x="6" y="21" width="1" height="1" fill="#4d6d79"/>
<rect x="7" y="21" width="1" height="1" fill="#506e79"/>
<rect x="8" y="21" width="1" height="1" fill="#abb8bc"/>
<rect x="9" y="21" width="1" height="1" fill="#b3bcc0"/>
<rect x="10" y="21" width="1" height="1" fill="#9aaaaf"/>
<rect x="11" y="21" width="3" height="1" fill="#7f939a"/>
<rect x="14" y="21" width="1" height="1" fill="#9aaaaf"/>
<rect x="15" y="21" width="1" height="1" fill="#b3bcc0"/>
<rect x="16" y="21" width="1" height="1" fill="#c8cdcf"/>
<rect x="17" y="21" width="1" height="1" fill="#dce1e2"/>
<rect x="18" y="21" width="1" height="1" fill="#7d929a"/>
<rect x="19" y="21" width="1" height="1" fill="#69848e"/>
<rect x="20" y="21" width="1" height="1" fill="#698791"/>
<rect x="21" y="21" width="1" height="1" fill="#6e8790"/>
<rect x="22" y="21" width="1" height="1" fill="#6f8993"/>
<rect x="23" y="21" width="1" height="1" fill="#718a93"/>
<rect x="24" y="21" width="1" height="1" fill="#99a9ae"/>
<rect x="1" y="22" width="1" height="1" fill="#88999e"/>
<rect x="2" y="22" width="1" height="1" fill="#446774"/>
<rect x="3" y="22" width="1" height="1" fill="#456975"/>
<rect x="4" y="22" width="1" height="1" fill="#476b77"/>
<rect x="5" y="22" width="1" height="1" fill="#4d6b76"/>
<rect x="6" y="22" width="1" height="1" fill="#4d6d79"/>
<rect x="7" y="22" width="1" height="1" fill="#506e79"/>
<rect x="8" y="22" width="1" height="1" fill="#63818b"/>
<rect x="9" y="22" width="1" height="1" fill="#b6c2c5"/>
<rect x="10" y="22" width="1" height="1" fill="#b3bcc0"/>
<rect x="11" y="22" width="3" height="1" fill="#a1b2b7"/>
<rect x="14" y="22" width="1" height="1" fill="#b3bcc0"/>
<rect x="15" y="22" width="1" height="1" fill="#c0c9cb"/>
<rect x="16" y="22" width="1" height="1" fill="#dadee0"/>
<rect x="17" y="22" width="1" height="1" fill="#a0b2b7"/>
<rect x="18" y="22" width="1" height="1" fill="#68828c"/>
<rect x="19" y="22" width="1" height="1" fill="#69848e"/>
<rect x="20" y="22" width="1" height="1" fill="#698791"/>
<rect x="21" y="22" width="1" height="1" fill="#6e8790"/>
<rect x="22" y="22" width="1" height="1" fill="#6f8993"/>
<rect x="23" y="22" width="1" height="1" fill="#718a93"/>
<rect x="2" y="23" width="1" height="1" fill="#446774"/>
<rect x="3" y="23" width="1" height="1" fill="#456975"/>
<rect x="4" y="23" width="1" height="1" fill="#476b77"/>
<rect x="5" y="23" width="1" height="1" fill="#4d6b76"/>
<rect x="6" y="23" width="1" height="1" fill="#4d6d79"/>
<rect x="7" y="23" width="1" height="1" fill="#506e79"/>
<rect x="8" y="23" width="1" height="1" fill="#4f727e"/>
<rect x="9" y="23" width="1" height="1" fill="#68828c"/>
<rect x="10" y="23" width="1" height="1" fill="#acb9bd"/>
<rect x="11" y="23" width="3" height="1" fill="#c0c9cb"/>
<rect x="14" y="23" width="1" height="1" fill="#c8cdcf"/>
<rect x="15" y="23" width="1" height="1" fill="#ced6d8"/>
<rect x="16" y="23" width="1" height="1" fill="#93a7ad"/>
<rect x="17" y="23" width="1" height="1" fill="#63828c"/>
<rect x="18" y="23" width="1" height="1" fill="#68828c"/>
<rect x="19" y="23" width="1" height="1" fill="#69848e"/>
<rect x="20" y="23" width="1" height="1" fill="#698791"/>
<rect x="21" y="23" width="1" height="1" fill="#6e8790"/>
<rect x="22" y="23" width="1" height="1" fill="#6f8993"/>
<rect x="23" y="23" width="1" height="1" fill="#738b94"/>
<rect x="2" y="24" width="1" height="1" fill="#647f88"/>
<rect x="3" y="24" width="1" height="1" fill="#456975"/>
<rect x="4" y="24" width="1" height="1" fill="#476b77"/>
<rect x="5" y="24" width="1" height="1" fill="#4d6b76"/>
<rect x="6" y="24" width="1" height="1" fill="#4d6d79"/>
<rect x="7" y="24" width="1" height="1" fill="#506e79"/>
<rect x="8" y="24" width="1" height="1" fill="#4f727e"/>
<rect x="9" y="24" width="1" height="1" fill="#55727d"/>
<rect x="10" y="24" width="1" height="1" fill="#557681"/>
<rect x="11" y="24" width="1" height="1" fill="#6f8891"/>
<rect x="12" y="24" width="1" height="1" fill="#90a4aa"/>
<rect x="13" y="24" width="1" height="1" fill="#95a8ae"/>
<rect x="14" y="24" width="1" height="1" fill="#849ca4"/>
<rect x="15" y="24" width="1" height="1" fill="#61818c"/>
<rect x="16" y="24" width="1" height="1" fill="#617f89"/>
<rect x="17" y="24" width="1" height="1" fill="#63828c"/>
<rect x="18" y="24" width="1" height="1" fill="#68828c"/>
<rect x="19" y="24" width="1" height="1" fill="#69848e"/>
<rect x="20" y="24" width="1" height="1" fill="#698791"/>
<rect x="21" y="24" width="1" height="1" fill="#6e8790"/>
<rect x="22" y="24" width="1" height="1" fill="#6f8993"/>
<rect x="23" y="24" width="1" height="1" fill="#9aa7ac"/>
<rect x="3" y="25" width="1" height="1" fill="#456975"/>
<rect x="4" y="25" width="1" height="1" fill="#476b77"/>
<rect x="5" y="25" width="1" height="1" fill="#4d6b76"/>
<rect x="6" y="25" width="1" height="1" fill="#4d6d79"/>
<rect x="7" y="25" width="1" height="1" fill="#506e79"/>
<rect x="8" y="25" width="1" height="1" fill="#4f727e"/>
<rect x="9" y="25" width="1" height="1" fill="#55727d"/>
<rect x="10" y="25" width="1" height="1" fill="#557681"/>
<rect x="11" y="25" width="1" height="1" fill="#567883"/>
<rect x="12" y="25" width="1" height="1" fill="#587984"/>
<rect x="13" y="25" width="1" height="1" fill="#5c7b85"/>
<rect x="14" y="25" width="1" height="1" fill="#5f7c85"/>
<rect x="15" y="25" width="1" height="1" fill="#607e88"/>
<rect x="16" y="25" width="1" height="1" fill="#617f89"/>
<rect x="17" y="25" width="1" height="1" fill="#63828c"/>
<rect x="18" y="25" width="1" height="1" fill="#68828c"/>
<rect x="19" y="25" width="1" height="1" fill="#69848e"/>
<rect x="20" y="25" width="1" height="1" fill="#698791"/>
<rect x="21" y="25" width="1" height="1" fill="#6e8790"/>
<rect x="22" y="25" width="1" height="1" fill="#718d96"/>
<rect x="3" y="26" width="1" height="1" fill="#8c9ca1"/>
<rect x="4" y="26" width="1" height="1" fill="#476b77"/>
<rect x="5" y="26" width="1" height="1" fill="#4d6b76"/>
<rect x="6" y="26" width="1" height="1" fill="#4d6d79"/>
<rect x="7" y="26" width="1" height="1" fill="#506e79"/>
<rect x="8" y="26" width="1" height="1" fill="#4f727e"/>
<rect x="9" y="26" width="1" height="1" fill="#55727d"/>
<rect x="10" y="26" width="1" height="1" fill="#557681"/>
<rect x="11" y="26" width="1" height="1" fill="#567883"/>
<rect x="12" y="26" width="1" height="1" fill="#587984"/>
<rect x="13" y="26" width="1" height="1" fill="#5c7b85"/>
<rect x="14" y="26" width="1" height="1" fill="#5f7c85"/>
<rect x="15" y="26" width="1" height="1" fill="#607e88"/>
<rect x="16" y="26" width="1" height="1" fill="#617f89"/>
<rect x="17" y="26" width="1" height="1" fill="#63828c"/>
<rect x="18" y="26" width="1" height="1" fill="#68828c"/>
<rect x="19" y="26" width="1" height="1" fill="#69848e"/>
<rect x="20" y="26" width="1" height="1" fill="#698791"/>
<rect x="21" y="26" width="1" height="1" fill="#6e8790"/>
<rect x="4" y="27" width="1" height="1" fill="#7c9096"/>
<rect x="5" y="27" width="1" height="1" fill="#4d6b76"/>
<rect x="6" y="27" width="1" height="1" fill="#4d6d79"/>
<rect x="7" y="27" width="1" height="1" fill="#506e79"/>
<rect x="8" y="27" width="1" height="1" fill="#4f727e"/>
<rect x="9" y="27" width="1" height="1" fill="#55727d"/>
<rect x="10" y="27" width="1" height="1" fill="#557681"/>
<rect x="11" y="27" width="1" height="1" fill="#567883"/>
<rect x="12" y="27" width="1" height="1" fill="#587984"/>
<rect x="13" y="27" width="1" height="1" fill="#5c7b85"/>
<rect x="14" y="27" width="1" height="1" fill="#5f7c85"/>
<rect x="15" y="27" width="1" height="1" fill="#607e88"/>
<rect x="16" y="27" width="1" height="1" fill="#617f89"/>
<rect x="17" y="27" width="1" height="1" fill="#63828c"/>
<rect x="18" y="27" width="1" height="1" fill="#68828c"/>
<rect x="19" y="27" width="1" height="1" fill="#69848e"/>
<rect x="20" y="27" width="1" height="1" fill="#698791"/>
<rect x="21" y="27" width="1" height="1" fill="#a3afb2"/>
<rect x="5" y="28" width="1" height="1" fill="#8a9a9f"/>
<rect x="6" y="28" width="1" height="1" fill="#4d6d79"/>
<rect x="7" y="28" width="1" height="1" fill="#506e79"/>
<rect x="8" y="28" width="1" height="1" fill="#4f727e"/>
<rect x="9" y="28" width="1" height="1" fill="#55727d"/>
<rect x="10" y="28" width="1" height="1" fill="#557681"/>
<rect x="11" y="28" width="1" height="1" fill="#567883"/>
<rect x="12" y="28" width="1" height="1" fill="#587984"/>
<rect x="13" y="28" width="1" height="1" fill="#5c7b85"/>
<rect x="14" y="28" width="1" height="1" fill="#5f7c85"/>
<rect x="15" y="28" width="1" height="1" fill="#607e88"/>
<rect x="16" y="28" width="1" height="1" fill="#617f89"/>
<rect x="17" y="28" width="1" height="1" fill="#63828c"/>
<rect x="18" y="28" width="1" height="1" fill="#68828c"/>
<rect x="19" y="28" width="1" height="1" fill="#6a858f"/>
<rect x="7" y="29" width="1" height="1" fill="#647f88"/>
<rect x="8" y="29" width="1" height="1" fill="#4f727e"/>
<rect x="9" y="29" width="1" height="1" fill="#55727d"/>
<rect x="10" y="29" width="1" height="1" fill="#557681"/>
<rect x="11" y="29" width="1" height="1" fill="#567883"/>
<rect x="12" y="29" width="1" height="1" fill="#587984"/>
<rect x="13" y="29" width="1" height="1" fill="#5c7b85"/>
<rect x="14" y="29" width="1" height="1" fill="#5f7c85"/>
<rect x="15" y="29" width="1" height="1" fill="#607e88"/>
<rect x="16" y="29" width="1" height="1" fill="#617f89"/>
<rect x="17" y="29" width="1" height="1" fill="#63828c"/>
<rect x="18" y="29" width="1" height="1" fill="#83949a"/>
<rect x="9" y="30" width="1" height="1" fill="#83959a"/>
<rect x="10" y="30" width="1" height="1" fill="#607c85"/>
<rect x="11" y="30" width="1" height="1" fill="#567883"/>
<rect x="12" y="30" width="1" height="1" fill="#587984"/>
<rect x="13" y="30" width="1" height="1" fill="#5c7b85"/>
<rect x="14" y="30" width="1" height="1" fill="#5f7c85"/>
<rect x="15" y="30" width="1" height="1" fill="#6f8790"/>
<rect x="16" y="30" width="1" height="1" fill="#92a2a7"/>
</svg>