<svg xmlns="http://www.w3.org/2000/svg" width="32" height="32" viewBox="0 0 32 32" shape-rendering="crispEdges">
<rect x="6" y="10" width="16" height="1" fill="#40636f"/>
<rect x="22" y="10" width="1" height="1" fill="#647e86"/>
<rect x="23" y="10" width="1" height="1" fill="#a5b0b3"/>
<rect x="6" y="11" width="18" height="1" fill="#40636f"/>
<rect x="24" y="11" width="1" height="1" fill="#6f848c"/>
<rect x="6" y="12" width="19" height="1" fill="#40636f"/>
<rect x="25" y="12" width="1" height="1" fill="#698089"/>
<rect x="5" y="13" width="1" height="1" fill="#7c9096"/>
<rect x="6" y="13" width="20" height="1" fill="#40636f"/>
<rect x="26" y="13" width="1" height="1" fill="#95a3a7"/>
<rect x="1" y="14" width="1" height="1" fill="#9ab0b7"/>
<rect x="2" y="14" width="1" height="1" fill="#92a7ad"/>
<rect x="3" y="14" width="1" height="1" fill="#889da5"/>
<rect x="4" y="14" width="1" height="1" fill="#7e949c"/>
<rect x="5" y="14" width="21" height="1" fill="#40636f"/>
<rect x="26" y="14" width="1" height="1" fill="#4d6b76"/>
<rect x="2" y="15" width="1" height="1" fill="#a1b1b6"/>
<rect x="3" y="15" width="1" height="1" fill="#98aaaf"/>
<rect x="4" y="15" width="1" height="1" fill="#90a4aa"/>
<rect x="5" y="15" width="1" height="1" fill="#577680"/>
<rect x="6" y="15" width="21" height="1" fill="#40636f"/>
<rect x="6" y="16" width="21" height="1" fill="#40636f"/>
<rect x="27" y="16" width="1" height="1" fill="#8c9ca1"/>
<rect x="6" y="17" width="21" height="1" fill="#40636f"/>
<rect x="27" y="17" width="1" height="1" fill="#526e78"/>
<rect x="28" y="17" width="1" height="1" fill="#5f7d87"/>
<rect x="29" y="17" width="1" height="1" fill="#7c949d"/>
<rect x="6" y="18" width="21" height="1" fill="#40636f"/>
<rect x="27" y="18" width="1" height="1" fill="#546f79"/>
<rect x="28" y="18" width="1" height="1" fill="#5f7d87"/>
<rect x="29" y="18" width="1" height="1" fill="#7c949d"/>
<rect x="6" y="19" width="21" height="1" fill="#40636f"/>
<rect x="27" y="19" width="1" height="1" fill="#8c9da2"/>
<rect x="5" y="20" width="1" height="1" fill="#a6b1b4"/>
<rect x="6" y="20" width="21" height="1" fill="#40636f"/>
<rect x="1" y="21" width="1" height="1" fill="#9ab0b7"/>
<rect x="2" y="21" width="1" height="1" fill="#92a7ad"/>
<rect x="3" y="21" width="1" height="1" fill="#889da5"/>
<rect x="4" y="21" width="1" height="1" fill="#7e949c"/>
<rect x="5" y="21" width="21" height="1" fill="#40636f"/>
<rect x="26" y="21" width="1" height="1" fill="#546f79"/>
<rect x="1" y="22" width="1" height="1" fill="#9ab0b7"/>
<rect x="2" y="22" width="1" height="1" fill="#92a7ad"/>
<rect x="3" y="22" width="1" height="1" fill="#889da5"/>
<rect x="4" y="22" width="1" height="1" fill="#7e949c"/>
<rect x="5" y="22" width="21" height="1" fill="#40636f"/>
<rect x="26" y="22" width="1" height="1" fill="#a1aaac"/>
<rect x="5" y="23" width="1" height="1" fill="#93a0a4"/>
<rect x="6" y="23" width="19" height="1" fill="#40636f"/>
<rect x="25" y="23" width="1" height="1" fill="#718a92"/>
<rect x="6" y="24" width="18" height="1" fill="#40636f"/>
<rect x="24" y="24" width="1" height="1" fill="#788f96"/>
<rect x="6" y="25" width="15" height="1" fill="#40636f"/>
<rect x="21" y="25" width="1" height="1" fill="#416470"/>
<rect x="22" y="25" width="1" height="1" fill="#6e848c"/>
</svg>