<svg xmlns="http://www.w3.org/2000/svg" width="32" height="32" viewBox="0 0 32 32" shape-rendering="crispEdges">
<rect x="14" y="3" width="1" height="1" fill="#90a4aa"/>
<rect x="15" y="3" width="1" height="1" fill="#8ea5ac"/>
<rect x="16" y="3" width="1" height="1" fill="#94a7ad"/>
<rect x="10" y="4" width="1" height="1" fill="#90a4aa"/>
<rect x="14" y="4" width="1" height="1" fill="#889ea5"/>
<rect x="15" y="4" width="1" height="1" fill="#8ba0a6"/>
<rect x="16" y="4" width="1" height="1" fill="#8ea2a8"/>
<rect x="20" y="4" width="1" height="1" fill="#9fb1b6"/>
<rect x="8" y="5" width="1" height="1" fill="#84989f"/>
<rect x="9" y="5" width="1" height="1" fill="#7e939b"/>
<rect x="10" y="5" width="1" height="1" fill="#7f939a"/>
<rect x="11" y="5" width="1" height="1" fill="#91a5ab"/>
<rect x="13" y="5" width="1" height="1" fill="#8fa3a9"/>
<rect x="14" y="5" width="1" height="1" fill="#889ea5"/>
<rect x="15" y="5" width="1" height="1" fill="#8aa0a7"/>
<rect x="16" y="5" width="1" height="1" fill="#8ea2a8"/>
<rect x="17" y="5" width="1" height="1" fill="#9dadb2"/>
<rect x="19" y="5" width="1" height="1" fill="#9babb1"/>
<rect x="20" y="5" width="1" height="1" fill="#99a9af"/>
<rect x="8" y="6" width="1" height="1" fill="#7a9098"/>
<rect x="9" y="6" width="1" height="1" fill="#7b9199"/>
<rect x="10" y="6" width="1" height="1" fill="#7e939b"/>
<rect x="11" y="6" width="1" height="1" fill="#81949b"/>
<rect x="12" y="6" width="1" height="1" fill="#83969d"/>
<rect x="13" y="6" width="1" height="1" fill="#839ca4"/>
<rect x="14" y="6" width="1" height="1" fill="#879da4"/>
<rect x="15" y="6" width="1" height="1" fill="#8aa0a7"/>
<rect x="16" y="6" width="1" height="1" fill="#8ea2a8"/>
<rect x="17" y="6" width="1" height="1" fill="#91a5ab"/>
<rect x="18" y="6" width="1" height="1" fill="#93a7ad"/>
<rect x="19" y="6" width="1" height="1" fill="#98a8ae"/>
<rect x="20" y="6" width="1" height="1" fill="#9caeb3"/>
<rect x="21" y="6" width="1" height="1" fill="#d3dcde"/>
<rect x="22" y="6" width="1" height="1" fill="#99acb2"/>
<rect x="8" y="7" width="1" height="1" fill="#7d939b"/>
<rect x="9" y="7" width="1" height="1" fill="#7a9098"/>
<rect x="10" y="7" width="1" height="1" fill="#7c929a"/>
<rect x="11" y="7" width="1" height="1" fill="#7f939a"/>
<rect x="12" y="7" width="1" height="1" fill="#82959c"/>
<rect x="13" y="7" width="1" height="1" fill="#85989f"/>
<rect x="14" y="7" width="1" height="1" fill="#899fa6"/>
<rect x="15" y="7" width="1" height="1" fill="#8fa3a9"/>
<rect x="16" y="7" width="1" height="1" fill="#8da4ab"/>
<rect x="17" y="7" width="1" height="1" fill="#91a5ab"/>
<rect x="18" y="7" width="1" height="1" fill="#94a7ad"/>
<rect x="19" y="7" width="1" height="1" fill="#99a9af"/>
<rect x="5" y="8" width="1" height="1" fill="#86989f"/>
<rect x="6" y="8" width="1" height="1" fill="#a3b1b5"/>
<rect x="8" y="8" width="1" height="1" fill="#7c929a"/>
<rect x="9" y="8" width="1" height="1" fill="#7a8f97"/>
<rect x="10" y="8" width="1" height="1" fill="#7a9098"/>
<rect x="11" y="8" width="1" height="1" fill="#82969d"/>
<rect x="12" y="8" width="1" height="1" fill="#a5b2b6"/>
<rect x="19" y="8" width="1" height="1" fill="#a3b3b8"/>
<rect x="21" y="8" width="1" height="1" fill="#99a9af"/>
<rect x="22" y="8" width="1" height="1" fill="#9aadb3"/>
<rect x="25" y="8" width="1" height="1" fill="#9eafb4"/>
<rect x="4" y="9" width="1" height="1" fill="#82969d"/>
<rect x="5" y="9" width="1" height="1" fill="#718992"/>
<rect x="6" y="9" width="1" height="1" fill="#718a92"/>
<rect x="7" y="9" width="1" height="1" fill="#758b93"/>
<rect x="8" y="9" width="1" height="1" fill="#778c94"/>
<rect x="9" y="9" width="1" height="1" fill="#798e96"/>
<rect x="10" y="9" width="1" height="1" fill="#97a7ac"/>
<rect x="21" y="9" width="1" height="1" fill="#97a7ad"/>
<rect x="22" y="9" width="1" height="1" fill="#95a8ae"/>
<rect x="23" y="9" width="1" height="1" fill="#93a7ad"/>
<rect x="24" y="9" width="1" height="1" fill="#91a5ab"/>
<rect x="25" y="9" width="1" height="1" fill="#90a4aa"/>
<rect x="26" y="9" width="1" height="1" fill="#a2b2b7"/>
<rect x="4" y="10" width="1" height="1" fill="#6e8790"/>
<rect x="5" y="10" width="1" height="1" fill="#6f8891"/>
<rect x="6" y="10" width="1" height="1" fill="#708891"/>
<rect x="7" y="10" width="1" height="1" fill="#718992"/>
<rect x="8" y="10" width="1" height="1" fill="#728b93"/>
<rect x="9" y="10" width="1" height="1" fill="#9facb1"/>
<rect x="22" y="10" width="1" height="1" fill="#93a7ad"/>
<rect x="23" y="10" width="1" height="1" fill="#91a5ab"/>
<rect x="24" y="10" width="1" height="1" fill="#90a3a9"/>
<rect x="25" y="10" width="1" height="1" fill="#8fa2a8"/>
<rect x="26" y="10" width="1" height="1" fill="#8f9fa5"/>
<rect x="4" y="11" width="1" height="1" fill="#788e96"/>
<rect x="5" y="11" width="2" height="1" fill="#6d868f"/>
<rect x="7" y="11" width="1" height="1" fill="#6e8790"/>
<rect x="8" y="11" width="1" height="1" fill="#859ca3"/>
<rect x="22" y="11" width="1" height="1" fill="#9aaab0"/>
<rect x="23" y="11" width="1" height="1" fill="#8fa2a8"/>
<rect x="24" y="11" width="1" height="1" fill="#8ea1a7"/>
<rect x="25" y="11" width="1" height="1" fill="#8ba0a6"/>
<rect x="26" y="11" width="1" height="1" fill="#90a6ad"/>
<rect x="5" y="12" width="1" height="1" fill="#83969d"/>
<rect x="6" y="12" width="1" height="1" fill="#6a848e"/>
<rect x="7" y="12" width="1" height="1" fill="#6d868f"/>
<rect x="12" y="12" width="1" height="1" fill="#8c9fa5"/>
<rect x="23" y="12" width="1" height="1" fill="#8ba0a6"/>
<rect x="24" y="12" width="1" height="1" fill="#899fa6"/>
<rect x="25" y="12" width="1" height="1" fill="#92a5ab"/>
<rect x="7" y="13" width="1" height="1" fill="#92a3a8"/>
<rect x="12" y="13" width="1" height="1" fill="#6c8690"/>
<rect x="13" y="13" width="1" height="1" fill="#788e96"/>
<rect x="23" y="13" width="1" height="1" fill="#8fa5ac"/>
<rect x="24" y="13" width="1" height="1" fill="#869ca3"/>
<rect x="25" y="13" width="1" height="1" fill="#92a5ab"/>
<rect x="8" y="14" width="1" height="1" fill="#9daaaf"/>
<rect x="9" y="14" width="1" height="1" fill="#98a8ad"/>
<rect x="10" y="14" width="1" height="1" fill="#9cacb1"/>
<rect x="12" y="14" width="1" height="1" fill="#597b86"/>
<rect x="13" y="14" width="1" height="1" fill="#64838d"/>
<rect x="14" y="14" width="1" height="1" fill="#8fa2a8"/>
<rect x="23" y="14" width="1" height="1" fill="#9fafb4"/>
<rect x="24" y="14" width="2" height="1" fill="#84979e"/>
<rect x="26" y="14" width="1" height="1" fill="#85989f"/>
<rect x="27" y="14" width="1" height="1" fill="#8aa0a7"/>
<rect x="5" y="15" width="1" height="1" fill="#728b93"/>
<rect x="6" y="15" width="1" height="1" fill="#607e88"/>
<rect x="7" y="15" width="1" height="1" fill="#64838d"/>
<rect x="8" y="15" width="1" height="1" fill="#688690"/>
<rect x="9" y="15" width="1" height="1" fill="#6e8892"/>
<rect x="10" y="15" width="1" height="1" fill="#718c96"/>
<rect x="11" y="15" width="1" height="1" fill="#718f99"/>
<rect x="12" y="15" width="1" height="1" fill="#597b86"/>
<rect x="13" y="15" width="1" height="1" fill="#5e7d87"/>
<rect x="14" y="15" width="1" height="1" fill="#6a8892"/>
<rect x="24" y="15" width="4" height="1" fill="#81949b"/>
<rect x="3" y="16" width="1" height="1" fill="#95a5aa"/>
<rect x="4" y="16" width="1" height="1" fill="#557782"/>
<rect x="5" y="16" width="1" height="1" fill="#577a86"/>
<rect x="6" y="16" width="1" height="1" fill="#5e7d87"/>
<rect x="7" y="16" width="1" height="1" fill="#61818c"/>
<rect x="8" y="16" width="1" height="1" fill="#67858f"/>
<rect x="9" y="16" width="1" height="1" fill="#6a8792"/>
<rect x="10" y="16" width="1" height="1" fill="#708a94"/>
<rect x="11" y="16" width="1" height="1" fill="#5e7d87"/>
<rect x="12" y="16" width="1" height="1" fill="#547783"/>
<rect x="13" y="16" width="1" height="1" fill="#597b86"/>
<rect x="14" y="16" width="1" height="1" fill="#60828d"/>
<rect x="15" y="16" width="1" height="1" fill="#718f99"/>
<rect x="24" y="16" width="2" height="1" fill="#7d929a"/>
<rect x="26" y="16" width="2" height="1" fill="#7e939b"/>
<rect x="3" y="17" width="1" height="1" fill="#53727e"/>
<rect x="4" y="17" width="1" height="1" fill="#557782"/>
<rect x="5" y="17" width="1" height="1" fill="#557884"/>
<rect x="6" y="17" width="1" height="1" fill="#5c7b85"/>
<rect x="7" y="17" width="1" height="1" fill="#607e88"/>
<rect x="8" y="17" width="1" height="1" fill="#64838d"/>
<rect x="9" y="17" width="1" height="1" fill="#688690"/>
<rect x="10" y="17" width="1" height="1" fill="#6e8892"/>
<rect x="11" y="17" width="1" height="1" fill="#547580"/>
<rect x="12" y="17" width="1" height="1" fill="#4e6e7a"/>
<rect x="13" y="17" width="2" height="1" fill="#597b86"/>
<rect x="15" y="17" width="1" height="1" fill="#738c95"/>
<rect x="23" y="17" width="1" height="1" fill="#9ca9ae"/>
<rect x="24" y="17" width="1" height="1" fill="#7a8f97"/>
<rect x="25" y="17" width="2" height="1" fill="#7a9098"/>
<rect x="27" y="17" width="1" height="1" fill="#7f959d"/>
<rect x="2" y="18" width="1" height="1" fill="#6f868f"/>
<rect x="3" y="18" width="1" height="1" fill="#4f727e"/>
<rect x="4" y="18" width="1" height="1" fill="#547681"/>
<rect x="5" y="18" width="1" height="1" fill="#567985"/>
<rect x="6" y="18" width="1" height="1" fill="#83979d"/>
<rect x="11" y="18" width="1" height="1" fill="#53717c"/>
<rect x="12" y="18" width="1" height="1" fill="#456874"/>
<rect x="13" y="18" width="1" height="1" fill="#53727e"/>
<rect x="14" y="18" width="1" height="1" fill="#8e9fa4"/>
<rect x="23" y="18" width="1" height="1" fill="#84979e"/>
<rect x="24" y="18" width="1" height="1" fill="#778c94"/>
<rect x="25" y="18" width="1" height="1" fill="#83969d"/>
<rect x="2" y="19" width="1" height="1" fill="#476b77"/>
<rect x="3" y="19" width="1" height="1" fill="#4e6e7a"/>
<rect x="4" y="19" width="1" height="1" fill="#66828b"/>
<rect x="11" y="19" width="1" height="1" fill="#40636f"/>
<rect x="12" y="19" width="1" height="1" fill="#567681"/>
<rect x="23" y="19" width="1" height="1" fill="#708991"/>
<rect x="24" y="19" width="1" height="1" fill="#718a92"/>
<rect x="25" y="19" width="1" height="1" fill="#84979e"/>
<rect x="2" y="20" width="1" height="1" fill="#456975"/>
<rect x="3" y="20" width="1" height="1" fill="#4f6f7b"/>
<rect x="11" y="20" width="1" height="1" fill="#8f9ca1"/>
<rect x="22" y="20" width="1" height="1" fill="#82959c"/>
<rect x="23" y="20" width="1" height="1" fill="#6d868f"/>
<rect x="24" y="20" width="1" height="1" fill="#6f8891"/>
<rect x="25" y="20" width="1" height="1" fill="#708891"/>
<rect x="26" y="20" width="1" height="1" fill="#85969c"/>
<rect x="2" y="21" width="1" height="1" fill="#446774"/>
<rect x="3" y="21" width="1" height="1" fill="#899a9f"/>
<rect x="21" y="21" width="1" height="1" fill="#9ca9ae"/>
<rect x="22" y="21" width="2" height="1" fill="#6a848e"/>
<rect x="24" y="21" width="1" height="1" fill="#6d868f"/>
<rect x="25" y="21" width="1" height="1" fill="#6e8790"/>
<rect x="26" y="21" width="1" height="1" fill="#708891"/>
<rect x="2" y="22" width="1" height="1" fill="#526e78"/>
<rect x="9" y="22" width="1" height="1" fill="#81969d"/>
<rect x="10" y="22" width="1" height="1" fill="#92a3a8"/>
<rect x="20" y="22" width="1" height="1" fill="#8fa3a9"/>
<rect x="21" y="22" width="1" height="1" fill="#65808a"/>
<rect x="22" y="22" width="1" height="1" fill="#69838b"/>
<rect x="23" y="22" width="2" height="1" fill="#6a848e"/>
<rect x="25" y="22" width="1" height="1" fill="#6d868f"/>
<rect x="26" y="22" width="1" height="1" fill="#839aa1"/>
<rect x="2" y="23" width="1" height="1" fill="#81949a"/>
<rect x="9" y="23" width="1" height="1" fill="#466975"/>
<rect x="10" y="23" width="1" height="1" fill="#436774"/>
<rect x="11" y="23" width="1" height="1" fill="#567782"/>
<rect x="12" y="23" width="1" height="1" fill="#a3b1b5"/>
<rect x="18" y="23" width="1" height="1" fill="#a4aeb2"/>
<rect x="19" y="23" width="1" height="1" fill="#67838d"/>
<rect x="20" y="23" width="1" height="1" fill="#617c86"/>
<rect x="21" y="23" width="1" height="1" fill="#627e87"/>
<rect x="22" y="23" width="1" height="1" fill="#6c8891"/>
<rect x="24" y="23" width="1" height="1" fill="#8f9fa5"/>
<rect x="25" y="23" width="1" height="1" fill="#738c95"/>
<rect x="8" y="24" width="1" height="1" fill="#5c7982"/>
<rect x="9" y="24" width="1" height="1" fill="#446875"/>
<rect x="10" y="24" width="1" height="1" fill="#44646f"/>
<rect x="11" y="24" width="1" height="1" fill="#40636f"/>
<rect x="12" y="24" width="1" height="1" fill="#44646f"/>
<rect x="13" y="24" width="1" height="1" fill="#476a77"/>
<rect x="14" y="24" width="1" height="1" fill="#577883"/>
<rect x="15" y="24" width="1" height="1" fill="#5f7e88"/>
<rect x="16" y="24" width="1" height="1" fill="#5d7c86"/>
<rect x="17" y="24" width="1" height="1" fill="#547681"/>
<rect x="18" y="24" width="1" height="1" fill="#577782"/>
<rect x="19" y="24" width="1" height="1" fill="#5b7983"/>
<rect x="20" y="24" width="1" height="1" fill="#5d7c86"/>
<rect x="21" y="24" width="1" height="1" fill="#617d86"/>
<rect x="22" y="24" width="1" height="1" fill="#7b949c"/>
<rect x="8" y="25" width="1" height="1" fill="#456875"/>
<rect x="9" y="25" width="1" height="1" fill="#44646f"/>
<rect x="10" y="25" width="2" height="1" fill="#40636f"/>
<rect x="12" y="25" width="1" height="1" fill="#436774"/>
<rect x="13" y="25" width="1" height="1" fill="#456975"/>
<rect x="14" y="25" width="1" height="1" fill="#4a6a76"/>
<rect x="15" y="25" width="1" height="1" fill="#4d6e79"/>
<rect x="16" y="25" width="1" height="1" fill="#4f6f7b"/>
<rect x="17" y="25" width="1" height="1" fill="#54727d"/>
<rect x="18" y="25" width="1" height="1" fill="#567681"/>
<rect x="19" y="25" width="1" height="1" fill="#5b7983"/>
<rect x="20" y="25" width="1" height="1" fill="#5c7b85"/>
<rect x="21" y="25" width="1" height="1" fill="#617c86"/>
<rect x="22" y="25" width="1" height="1" fill="#63818b"/>
<rect x="8" y="26" width="1" height="1" fill="#4a6a76"/>
<rect x="9" y="26" width="1" height="1" fill="#42626e"/>
<rect x="10" y="26" width="1" height="1" fill="#40636f"/>
<rect x="11" y="26" width="1" height="1" fill="#567681"/>
<rect x="13" y="26" width="1" height="1" fill="#537580"/>
<rect x="14" y="26" width="1" height="1" fill="#4b6c77"/>
<rect x="15" y="26" width="1" height="1" fill="#4d6e79"/>
<rect x="16" y="26" width="1" height="1" fill="#4f6f7b"/>
<rect x="17" y="26" width="1" height="1" fill="#708991"/>
<rect x="19" y="26" width="1" height="1" fill="#62808b"/>
<rect x="20" y="26" width="1" height="1" fill="#5b7a84"/>
<rect x="21" y="26" width="1" height="1" fill="#607b85"/>
<rect x="22" y="26" width="1" height="1" fill="#67838c"/>
<rect x="9" y="27" width="1" height="1" fill="#728991"/>
<rect x="10" y="27" width="1" height="1" fill="#4f727e"/>
<rect x="13" y="27" width="1" height="1" fill="#7a8f97"/>
<rect x="14" y="27" width="1" height="1" fill="#4c6c78"/>
<rect x="15" y="27" width="1" height="1" fill="#4c6f7b"/>
<rect x="16" y="27" width="1" height="1" fill="#4f6f7b"/>
<rect x="17" y="27" width="1" height="1" fill="#a2b0b4"/>
<rect x="20" y="27" width="1" height="1" fill="#67828c"/>
<rect x="21" y="27" width="1" height="1" fill="#8a9fa5"/>
<rect x="13" y="28" width="1" height="1" fill="#a3afb2"/>
<rect x="14" y="28" width="1" height="1" fill="#506e79"/>
<rect x="15" y="28" width="1" height="1" fill="#4d707c"/>
<rect x="16" y="28" width="1" height="1" fill="#53727e"/>
</svg>