<svg xmlns="http://www.w3.org/2000/svg" width="32" height="32" viewBox="0 0 32 32" shape-rendering="crispEdges">
<rect x="12" y="5" width="1" height="1" fill="#94a3a7"/>
<rect x="13" y="5" width="1" height="1" fill="#728b93"/>
<rect x="14" y="5" width="4" height="1" fill="#65808a"/>
<rect x="18" y="5" width="1" height="1" fill="#778b92"/>
<rect x="19" y="5" width="1" height="1" fill="#96a6ab"/>
<rect x="10" y="6" width="1" height="1" fill="#87999e"/>
<rect x="11" y="6" width="1" height="1" fill="#67828c"/>
<rect x="12" y="6" width="1" height="1" fill="#6e858e"/>
<rect x="13" y="6" width="5" height="1" fill="#6f8890"/>
<rect x="18" y="6" width="1" height="1" fill="#6e858e"/>
<rect x="19" y="6" width="1" height="1" fill="#67828c"/>
<rect x="20" y="6" width="1" height="1" fill="#637f88"/>
<rect x="21" y="6" width="1" height="1" fill="#90a1a6"/>
<rect x="7" y="7" width="1" height="1" fill="#a5b0b3"/>
<rect x="9" y="7" width="1" height="1" fill="#6d858e"/>
<rect x="10" y="7" width="1" height="1" fill="#6e858e"/>
<rect x="11" y="7" width="1" height="1" fill="#728991"/>
<rect x="12" y="7" width="1" height="1" fill="#778b92"/>
<rect x="13" y="7" width="5" height="1" fill="#7a8f97"/>
<rect x="18" y="7" width="1" height="1" fill="#778b92"/>
<rect x="19" y="7" width="1" height="1" fill="#728991"/>
<rect x="20" y="7" width="1" height="1" fill="#6e858e"/>
<rect x="21" y="7" width="1" height="1" fill="#65808a"/>
<rect x="22" y="7" width="1" height="1" fill="#708991"/>
<rect x="24" y="7" width="1" height="1" fill="#9ca8ab"/>
<rect x="5" y="8" width="1" height="1" fill="#84989e"/>
<rect x="6" y="8" width="1" height="1" fill="#889ca2"/>
<rect x="7" y="8" width="1" height="1" fill="#babec0"/>
<rect x="8" y="8" width="1" height="1" fill="#6a848e"/>
<rect x="9" y="8" width="1" height="1" fill="#6f8890"/>
<rect x="10" y="8" width="1" height="1" fill="#778b92"/>
<rect x="11" y="8" width="1" height="1" fill="#7a8f97"/>
<rect x="12" y="8" width="1" height="1" fill="#7f939a"/>
<rect x="13" y="8" width="1" height="1" fill="#82949b"/>
<rect x="14" y="8" width="3" height="1" fill="#82989f"/>
<rect x="17" y="8" width="1" height="1" fill="#82949b"/>
<rect x="18" y="8" width="1" height="1" fill="#7f939a"/>
<rect x="19" y="8" width="1" height="1" fill="#7a8f97"/>
<rect x="20" y="8" width="1" height="1" fill="#778b92"/>
<rect x="21" y="8" width="1" height="1" fill="#6f8890"/>
<rect x="22" y="8" width="1" height="1" fill="#67828c"/>
<rect x="23" y="8" width="1" height="1" fill="#6c858d"/>
<rect x="24" y="8" width="1" height="1" fill="#c1c3c4"/>
<rect x="25" y="8" width="1" height="1" fill="#7d9097"/>
<rect x="26" y="8" width="1" height="1" fill="#a3afb2"/>
<rect x="4" y="9" width="1" height="1" fill="#7a8e95"/>
<rect x="5" y="9" width="1" height="1" fill="#6c858e"/>
<rect x="6" y="9" width="1" height="1" fill="#c4c6c7"/>
<rect x="7" y="9" width="1" height="1" fill="#708790"/>
<rect x="8" y="9" width="1" height="1" fill="#6f8890"/>
<rect x="9" y="9" width="1" height="1" fill="#778f97"/>
<rect x="10" y="9" width="1" height="1" fill="#7c9199"/>
<rect x="11" y="9" width="1" height="1" fill="#82989f"/>
<rect x="12" y="9" width="1" height="1" fill="#879ca3"/>
<rect x="13" y="9" width="1" height="1" fill="#889ea5"/>
<rect x="14" y="9" width="3" height="1" fill="#8aa0a7"/>
<rect x="17" y="9" width="1" height="1" fill="#889ea5"/>
<rect x="18" y="9" width="1" height="1" fill="#879ca3"/>
<rect x="19" y="9" width="1" height="1" fill="#82989f"/>
<rect x="20" y="9" width="1" height="1" fill="#7c9199"/>
<rect x="21" y="9" width="1" height="1" fill="#778f97"/>
<rect x="22" y="9" width="1" height="1" fill="#6f8890"/>
<rect x="23" y="9" width="1" height="1" fill="#65808a"/>
<rect x="24" y="9" width="1" height="1" fill="#758f98"/>
<rect x="25" y="9" width="1" height="1" fill="#c1c2c3"/>
<rect x="26" y="9" width="1" height="1" fill="#6f8b94"/>
<rect x="27" y="9" width="1" height="1" fill="#9babb0"/>
<rect x="2" y="10" width="1" height="1" fill="#9ea8ac"/>
<rect x="3" y="10" width="1" height="1" fill="#a5b2b6"/>
<rect x="4" y="10" width="1" height="1" fill="#64838d"/>
<rect x="5" y="10" width="1" height="1" fill="#afb4b6"/>
<rect x="6" y="10" width="1" height="1" fill="#90a1a6"/>
<rect x="7" y="10" width="1" height="1" fill="#6e858e"/>
<rect x="8" y="10" width="1" height="1" fill="#778b92"/>
<rect x="9" y="10" width="1" height="1" fill="#7c9199"/>
<rect x="10" y="10" width="1" height="1" fill="#82989f"/>
<rect x="11" y="10" width="1" height="1" fill="#889ea5"/>
<rect x="12" y="10" width="1" height="1" fill="#8ea2a8"/>
<rect x="13" y="10" width="1" height="1" fill="#92a5ab"/>
<rect x="14" y="10" width="3" height="1" fill="#93a7ad"/>
<rect x="17" y="10" width="1" height="1" fill="#92a5ab"/>
<rect x="18" y="10" width="1" height="1" fill="#8ea2a8"/>
<rect x="19" y="10" width="1" height="1" fill="#889ea5"/>
<rect x="20" y="10" width="1" height="1" fill="#82989f"/>
<rect x="21" y="10" width="1" height="1" fill="#7c9199"/>
<rect x="22" y="10" width="1" height="1" fill="#778b92"/>
<rect x="23" y="10" width="1" height="1" fill="#6e858e"/>
<rect x="24" y="10" width="1" height="1" fill="#617e87"/>
<rect x="25" y="10" width="1" height="1" fill="#a1acb0"/>
<rect x="26" y="10" width="1" height="1" fill="#9daaae"/>
<rect x="27" y="10" width="1" height="1" fill="#7c949d"/>
<rect x="1" y="11" width="1" height="1" fill="#95a5aa"/>
<rect x="2" y="11" width="1" height="1" fill="#a5b1b4"/>
<rect x="3" y="11" width="1" height="1" fill="#839ca4"/>
<rect x="4" y="11" width="1" height="1" fill="#728b94"/>
<rect x="5" y="11" width="1" height="1" fill="#c3c6c8"/>
<rect x="6" y="11" width="1" height="1" fill="#68838d"/>
<rect x="7" y="11" width="1" height="1" fill="#728991"/>
<rect x="8" y="11" width="1" height="1" fill="#7a8f97"/>
<rect x="9" y="11" width="1" height="1" fill="#82989f"/>
<rect x="10" y="11" width="1" height="1" fill="#889ea5"/>
<rect x="11" y="11" width="1" height="1" fill="#90a4aa"/>
<rect x="12" y="11" width="1" height="1" fill="#93a7ad"/>
<rect x="13" y="11" width="1" height="1" fill="#9aabb0"/>
<rect x="14" y="11" width="3" height="1" fill="#9dadb2"/>
<rect x="17" y="11" width="1" height="1" fill="#9aabb0"/>
<rect x="18" y="11" width="1" height="1" fill="#93a7ad"/>
<rect x="19" y="11" width="1" height="1" fill="#90a4aa"/>
<rect x="20" y="11" width="1" height="1" fill="#889ea5"/>
<rect x="21" y="11" width="1" height="1" fill="#82989f"/>
<rect x="22" y="11" width="1" height="1" fill="#7a8f97"/>
<rect x="23" y="11" width="1" height="1" fill="#728991"/>
<rect x="24" y="11" width="2" height="1" fill="#67828c"/>
<rect x="26" y="11" width="1" height="1" fill="#c4c4c5"/>
<rect x="27" y="11" width="1" height="1" fill="#7c949d"/>
<rect x="29" y="11" width="1" height="1" fill="#a3b1b5"/>
<rect x="1" y="12" width="1" height="1" fill="#6f8891"/>
<rect x="3" y="12" width="1" height="1" fill="#708c95"/>
<rect x="4" y="12" width="1" height="1" fill="#9aa7ac"/>
<rect x="5" y="12" width="1" height="1" fill="#a3adb1"/>
<rect x="6" y="12" width="1" height="1" fill="#6e858e"/>
<rect x="7" y="12" width="1" height="1" fill="#778b92"/>
<rect x="8" y="12" width="1" height="1" fill="#7f939a"/>
<rect x="9" y="12" width="1" height="1" fill="#879ca3"/>
<rect x="10" y="12" width="1" height="1" fill="#8ea2a8"/>
<rect x="11" y="12" width="1" height="1" fill="#93a7ad"/>
<rect x="12" y="12" width="1" height="1" fill="#9dadb2"/>
<rect x="13" y="12" width="1" height="1" fill="#a1b1b6"/>
<rect x="14" y="12" width="1" height="1" fill="#a6b2b7"/>
<rect x="15" y="12" width="1" height="1" fill="#a7b7bc"/>
<rect x="16" y="12" width="1" height="1" fill="#a7b4b9"/>
<rect x="17" y="12" width="1" height="1" fill="#a1b1b6"/>
<rect x="18" y="12" width="1" height="1" fill="#9dadb2"/>
<rect x="19" y="12" width="1" height="1" fill="#93a7ad"/>
<rect x="20" y="12" width="1" height="1" fill="#8ea2a8"/>
<rect x="21" y="12" width="1" height="1" fill="#879ca3"/>
<rect x="22" y="12" width="1" height="1" fill="#7f939a"/>
<rect x="23" y="12" width="1" height="1" fill="#778b92"/>
<rect x="24" y="12" width="1" height="1" fill="#6e858e"/>
<rect x="25" y="12" width="1" height="1" fill="#617e87"/>
<rect x="26" y="12" width="1" height="1" fill="#b2b9bb"/>
<rect x="27" y="12" width="1" height="1" fill="#8fa3a9"/>
<rect x="1" y="13" width="1" height="1" fill="#94a3a7"/>
<rect x="3" y="13" width="1" height="1" fill="#708c95"/>
<rect x="4" y="13" width="1" height="1" fill="#b4bcbe"/>
<rect x="5" y="13" width="1" height="1" fill="#86999f"/>
<rect x="6" y="13" width="1" height="1" fill="#6f8890"/>
<rect x="7" y="13" width="1" height="1" fill="#7a8f97"/>
<rect x="8" y="13" width="1" height="1" fill="#82949b"/>
<rect x="9" y="13" width="1" height="1" fill="#889ea5"/>
<rect x="10" y="13" width="1" height="1" fill="#92a5ab"/>
<rect x="11" y="13" width="1" height="1" fill="#9aabb0"/>
<rect x="12" y="13" width="1" height="1" fill="#a1b1b6"/>
<rect x="13" y="13" width="1" height="1" fill="#abbabe"/>
<rect x="14" y="13" width="1" height="1" fill="#ccd1d3"/>
<rect x="15" y="13" width="1" height="1" fill="#dbddde"/>
<rect x="16" y="13" width="1" height="1" fill="#d9dddf"/>
<rect x="17" y="13" width="1" height="1" fill="#dadee0"/>
<rect x="18" y="13" width="1" height="1" fill="#a2b2b7"/>
<rect x="19" y="13" width="1" height="1" fill="#9aabb0"/>
<rect x="20" y="13" width="1" height="1" fill="#92a5ab"/>
<rect x="21" y="13" width="1" height="1" fill="#889ea5"/>
<rect x="22" y="13" width="1" height="1" fill="#82949b"/>
<rect x="23" y="13" width="1" height="1" fill="#7a8f97"/>
<rect x="24" y="13" width="1" height="1" fill="#6f8890"/>
<rect x="25" y="13" width="1" height="1" fill="#65808a"/>
<rect x="26" y="13" width="1" height="1" fill="#94a4a9"/>
<rect x="3" y="14" width="1" height="1" fill="#708c95"/>
<rect x="4" y="14" width="1" height="1" fill="#c3c5c6"/>
<rect x="5" y="14" width="1" height="1" fill="#718a92"/>
<rect x="6" y="14" width="1" height="1" fill="#6f8890"/>
<rect x="7" y="14" width="1" height="1" fill="#7a8f97"/>
<rect x="8" y="14" width="1" height="1" fill="#82989f"/>
<rect x="9" y="14" width="1" height="1" fill="#8aa0a7"/>
<rect x="10" y="14" width="1" height="1" fill="#93a7ad"/>
<rect x="11" y="14" width="1" height="1" fill="#9dadb2"/>
<rect x="12" y="14" width="1" height="1" fill="#a6b2b7"/>
<rect x="13" y="14" width="1" height="1" fill="#c7d0d2"/>
<rect x="14" y="14" width="3" height="1" fill="#7f939a"/>
<rect x="17" y="14" width="1" height="1" fill="#dadee0"/>
<rect x="18" y="14" width="1" height="1" fill="#ccd2d5"/>
<rect x="19" y="14" width="1" height="1" fill="#9dadb2"/>
<rect x="20" y="14" width="1" height="1" fill="#93a7ad"/>
<rect x="21" y="14" width="1" height="1" fill="#8aa0a7"/>
<rect x="22" y="14" width="1" height="1" fill="#82989f"/>
<rect x="23" y="14" width="1" height="1" fill="#7a8f97"/>
<rect x="24" y="14" width="1" height="1" fill="#6f8890"/>
<rect x="25" y="14" width="1" height="1" fill="#65808a"/>
<rect x="26" y="14" width="1" height="1" fill="#80959b"/>
<rect x="3" y="15" width="1" height="1" fill="#708c95"/>
<rect x="4" y="15" width="1" height="1" fill="#cacacb"/>
<rect x="5" y="15" width="1" height="1" fill="#68848d"/>
<rect x="6" y="15" width="1" height="1" fill="#6f8890"/>
<rect x="7" y="15" width="1" height="1" fill="#7a8f97"/>
<rect x="8" y="15" width="1" height="1" fill="#82989f"/>
<rect x="9" y="15" width="1" height="1" fill="#8aa0a7"/>
<rect x="10" y="15" width="1" height="1" fill="#93a7ad"/>
<rect x="11" y="15" width="1" height="1" fill="#9dadb2"/>
<rect x="12" y="15" width="1" height="1" fill="#a6b2b7"/>
<rect x="13" y="15" width="1" height="1" fill="#d4d8da"/>
<rect x="14" y="15" width="1" height="1" fill="#7f939a"/>
<rect x="15" y="15" width="1" height="1" fill="#40636f"/>
<rect x="16" y="15" width="1" height="1" fill="#7f939a"/>
<rect x="17" y="15" width="1" height="1" fill="#dadee0"/>
<rect x="18" y="15" width="1" height="1" fill="#e4e6e7"/>
<rect x="19" y="15" width="1" height="1" fill="#9dadb2"/>
<rect x="20" y="15" width="1" height="1" fill="#93a7ad"/>
<rect x="21" y="15" width="1" height="1" fill="#8aa0a7"/>
<rect x="22" y="15" width="1" height="1" fill="#82989f"/>
<rect x="23" y="15" width="1" height="1" fill="#7a8f97"/>
<rect x="24" y="15" width="1" height="1" fill="#6f8890"/>
<rect x="25" y="15" width="1" height="1" fill="#65808a"/>
<rect x="26" y="15" width="1" height="1" fill="#768f97"/>
<rect x="3" y="16" width="1" height="1" fill="#708c95"/>
<rect x="4" y="16" width="1" height="1" fill="#c9c9ca"/>
<rect x="5" y="16" width="1" height="1" fill="#6d868f"/>
<rect x="6" y="16" width="1" height="1" fill="#6f8890"/>
<rect x="7" y="16" width="1" height="1" fill="#7a8f97"/>
<rect x="8" y="16" width="1" height="1" fill="#82989f"/>
<rect x="9" y="16" width="1" height="1" fill="#8aa0a7"/>
<rect x="10" y="16" width="1" height="1" fill="#93a7ad"/>
<rect x="11" y="16" width="1" height="1" fill="#9dadb2"/>
<rect x="12" y="16" width="1" height="1" fill="#a6b2b7"/>
<rect x="13" y="16" width="1" height="1" fill="#cfd6d8"/>
<rect x="14" y="16" width="3" height="1" fill="#7f939a"/>
<rect x="17" y="16" width="1" height="1" fill="#dadee0"/>
<rect x="18" y="16" width="1" height="1" fill="#dae0e1"/>
<rect x="19" y="16" width="1" height="1" fill="#9dadb2"/>
<rect x="20" y="16" width="1" height="1" fill="#93a7ad"/>
<rect x="21" y="16" width="1" height="1" fill="#8aa0a7"/>
<rect x="22" y="16" width="1" height="1" fill="#82989f"/>
<rect x="23" y="16" width="1" height="1" fill="#7a8f97"/>
<rect x="24" y="16" width="1" height="1" fill="#6f8890"/>
<rect x="25" y="16" width="1" height="1" fill="#65808a"/>
<rect x="26" y="16" width="1" height="1" fill="#7b9198"/>
<rect x="1" y="17" width="1" height="1" fill="#9fa9ad"/>
<rect x="3" y="17" width="1" height="1" fill="#708c95"/>
<rect x="4" y="17" width="1" height="1" fill="#c3c4c5"/>
<rect x="5" y="17" width="1" height="1" fill="#7c9299"/>
<rect x="6" y="17" width="1" height="1" fill="#6f8890"/>
<rect x="7" y="17" width="1" height="1" fill="#7a8f97"/>
<rect x="8" y="17" width="1" height="1" fill="#82949b"/>
<rect x="9" y="17" width="1" height="1" fill="#889ea5"/>
<rect x="10" y="17" width="1" height="1" fill="#92a5ab"/>
<rect x="11" y="17" width="1" height="1" fill="#9aabb0"/>
<rect x="12" y="17" width="1" height="1" fill="#a1b1b6"/>
<rect x="13" y="17" width="1" height="1" fill="#bbc7ca"/>
<rect x="14" y="17" width="1" height="1" fill="#d8dcde"/>
<rect x="15" y="17" width="2" height="1" fill="#dadee0"/>
<rect x="17" y="17" width="1" height="1" fill="#f6f6f7"/>
<rect x="18" y="17" width="1" height="1" fill="#adbbbf"/>
<rect x="19" y="17" width="1" height="1" fill="#9aabb0"/>
<rect x="20" y="17" width="1" height="1" fill="#92a5ab"/>
<rect x="21" y="17" width="1" height="1" fill="#889ea5"/>
<rect x="22" y="17" width="1" height="1" fill="#82949b"/>
<rect x="23" y="17" width="1" height="1" fill="#7a8f97"/>
<rect x="24" y="17" width="1" height="1" fill="#6f8890"/>
<rect x="25" y="17" width="1" height="1" fill="#65808a"/>
<rect x="26" y="17" width="1" height="1" fill="#8b9ca1"/>
<rect x="1" y="18" width="1" height="1" fill="#94a3a7"/>
<rect x="3" y="18" width="1" height="1" fill="#708c95"/>
<rect x="4" y="18" width="1" height="1" fill="#b3b8ba"/>
<rect x="5" y="18" width="1" height="1" fill="#94a4a9"/>
<rect x="6" y="18" width="1" height="1" fill="#6e858e"/>
<rect x="7" y="18" width="1" height="1" fill="#778b92"/>
<rect x="8" y="18" width="1" height="1" fill="#7f939a"/>
<rect x="9" y="18" width="1" height="1" fill="#879ca3"/>
<rect x="10" y="18" width="1" height="1" fill="#8ea2a8"/>
<rect x="11" y="18" width="1" height="1" fill="#93a7ad"/>
<rect x="12" y="18" width="1" height="1" fill="#9dadb2"/>
<rect x="13" y="18" width="1" height="1" fill="#a1b1b6"/>
<rect x="14" y="18" width="1" height="1" fill="#b3bdc1"/>
<rect x="15" y="18" width="1" height="1" fill="#d0d5d7"/>
<rect x="16" y="18" width="1" height="1" fill="#cdd5d7"/>
<rect x="17" y="18" width="1" height="1" fill="#aab7bb"/>
<rect x="18" y="18" width="1" height="1" fill="#9dadb2"/>
<rect x="19" y="18" width="1" height="1" fill="#93a7ad"/>
<rect x="20" y="18" width="1" height="1" fill="#8ea2a8"/>
<rect x="21" y="18" width="1" height="1" fill="#879ca3"/>
<rect x="22" y="18" width="1" height="1" fill="#7f939a"/>
<rect x="23" y="18" width="1" height="1" fill="#778b92"/>
<rect x="24" y="18" width="1" height="1" fill="#6e858e"/>
<rect x="25" y="18" width="1" height="1" fill="#617e87"/>
<rect x="26" y="18" width="1" height="1" fill="#a4aeb2"/>
<rect x="27" y="18" width="1" height="1" fill="#a3b2b6"/>
<rect x="3" y="19" width="1" height="1" fill="#7d969e"/>
<rect x="4" y="19" width="1" height="1" fill="#96a7ac"/>
<rect x="6" y="19" width="1" height="1" fill="#67828c"/>
<rect x="7" y="19" width="1" height="1" fill="#728991"/>
<rect x="8" y="19" width="1" height="1" fill="#7a8f97"/>
<rect x="9" y="19" width="1" height="1" fill="#82989f"/>
<rect x="10" y="19" width="1" height="1" fill="#889ea5"/>
<rect x="11" y="19" width="1" height="1" fill="#90a4aa"/>
<rect x="12" y="19" width="1" height="1" fill="#93a7ad"/>
<rect x="13" y="19" width="1" height="1" fill="#9aabb0"/>
<rect x="14" y="19" width="3" height="1" fill="#9dadb2"/>
<rect x="17" y="19" width="1" height="1" fill="#9aabb0"/>
<rect x="18" y="19" width="1" height="1" fill="#93a7ad"/>
<rect x="19" y="19" width="1" height="1" fill="#90a4aa"/>
<rect x="20" y="19" width="1" height="1" fill="#889ea5"/>
<rect x="21" y="19" width="1" height="1" fill="#82989f"/>
<rect x="22" y="19" width="1" height="1" fill="#7a8f97"/>
<rect x="23" y="19" width="1" height="1" fill="#728991"/>
<rect x="24" y="19" width="1" height="1" fill="#67828c"/>
<rect x="25" y="19" width="1" height="1" fill="#5c7b85"/>
<rect x="26" y="19" width="1" height="1" fill="#c6c6c7"/>
<rect x="27" y="19" width="1" height="1" fill="#8ea1a7"/>
<rect x="4" y="20" width="1" height="1" fill="#768f97"/>
<rect x="6" y="20" width="1" height="1" fill="#798c93"/>
<rect x="7" y="20" width="1" height="1" fill="#6e858e"/>
<rect x="8" y="20" width="1" height="1" fill="#778b92"/>
<rect x="9" y="20" width="1" height="1" fill="#7c9199"/>
<rect x="10" y="20" width="1" height="1" fill="#82989f"/>
<rect x="11" y="20" width="1" height="1" fill="#889ea5"/>
<rect x="12" y="20" width="1" height="1" fill="#8ea2a8"/>
<rect x="13" y="20" width="1" height="1" fill="#92a5ab"/>
<rect x="14" y="20" width="3" height="1" fill="#93a7ad"/>
<rect x="17" y="20" width="1" height="1" fill="#92a5ab"/>
<rect x="18" y="20" width="1" height="1" fill="#8ea2a8"/>
<rect x="19" y="20" width="1" height="1" fill="#889ea5"/>
<rect x="20" y="20" width="1" height="1" fill="#82989f"/>
<rect x="21" y="20" width="1" height="1" fill="#7c9199"/>
<rect x="22" y="20" width="1" height="1" fill="#778b92"/>
<rect x="23" y="20" width="1" height="1" fill="#6e858e"/>
<rect x="24" y="20" width="1" height="1" fill="#617e87"/>
<rect x="25" y="20" width="1" height="1" fill="#85989e"/>
<rect x="26" y="20" width="1" height="1" fill="#c3c4c5"/>
<rect x="27" y="20" width="1" height="1" fill="#8ea1a7"/>
<rect x="7" y="21" width="1" height="1" fill="#65808a"/>
<rect x="8" y="21" width="1" height="1" fill="#6f8890"/>
<rect x="9" y="21" width="1" height="1" fill="#778f97"/>
<rect x="10" y="21" width="1" height="1" fill="#7c9199"/>
<rect x="11" y="21" width="1" height="1" fill="#82989f"/>
<rect x="12" y="21" width="1" height="1" fill="#879ca3"/>
<rect x="13" y="21" width="1" height="1" fill="#889ea5"/>
<rect x="14" y="21" width="3" height="1" fill="#8aa0a7"/>
<rect x="17" y="21" width="1" height="1" fill="#889ea5"/>
<rect x="18" y="21" width="1" height="1" fill="#879ca3"/>
<rect x="19" y="21" width="1" height="1" fill="#82989f"/>
<rect x="20" y="21" width="1" height="1" fill="#7c9199"/>
<rect x="21" y="21" width="1" height="1" fill="#778f97"/>
<rect x="22" y="21" width="1" height="1" fill="#6f8890"/>
<rect x="23" y="21" width="1" height="1" fill="#65808a"/>
<rect x="24" y="21" width="1" height="1" fill="#5f7d87"/>
<rect x="25" y="21" width="1" height="1" fill="#b3bcbe"/>
<rect x="26" y="21" width="1" height="1" fill="#99a6ab"/>
<rect x="7" y="22" width="1" height="1" fill="#95a5aa"/>
<rect x="8" y="22" width="1" height="1" fill="#67828c"/>
<rect x="9" y="22" width="1" height="1" fill="#6f8890"/>
<rect x="10" y="22" width="1" height="1" fill="#778b92"/>
<rect x="11" y="22" width="1" height="1" fill="#7a8f97"/>
<rect x="12" y="22" width="1" height="1" fill="#7f939a"/>
<rect x="13" y="22" width="1" height="1" fill="#82949b"/>
<rect x="14" y="22" width="3" height="1" fill="#82989f"/>
<rect x="17" y="22" width="1" height="1" fill="#82949b"/>
<rect x="18" y="22" width="1" height="1" fill="#7f939a"/>
<rect x="19" y="22" width="1" height="1" fill="#7a8f97"/>
<rect x="20" y="22" width="1" height="1" fill="#778b92"/>
<rect x="21" y="22" width="1" height="1" fill="#6f8890"/>
<rect x="22" y="22" width="1" height="1" fill="#67828c"/>
<rect x="23" y="22" width="1" height="1" fill="#5f7d87"/>
<rect x="24" y="22" width="1" height="1" fill="#a6b1b4"/>
<rect x="25" y="22" width="1" height="1" fill="#577680"/>
<rect x="26" y="22" width="1" height="1" fill="#40636f"/>
<rect x="27" y="22" width="1" height="1" fill="#809399"/>
<rect x="8" y="23" width="1" height="1" fill="#8e9ea3"/>
<rect x="9" y="23" width="1" height="1" fill="#65808a"/>
<rect x="10" y="23" width="1" height="1" fill="#6e858e"/>
<rect x="11" y="23" width="1" height="1" fill="#728991"/>
<rect x="12" y="23" width="1" height="1" fill="#778b92"/>
<rect x="13" y="23" width="5" height="1" fill="#7a8f97"/>
<rect x="18" y="23" width="1" height="1" fill="#778b92"/>
<rect x="19" y="23" width="1" height="1" fill="#728991"/>
<rect x="20" y="23" width="1" height="1" fill="#6e858e"/>
<rect x="21" y="23" width="1" height="1" fill="#65808a"/>
<rect x="22" y="23" width="1" height="1" fill="#5f7d87"/>
<rect x="23" y="23" width="1" height="1" fill="#9ca6aa"/>
<rect x="24" y="23" width="1" height="1" fill="#d1cfcf"/>
<rect x="25" y="23" width="1" height="1" fill="#788d94"/>
<rect x="26" y="23" width="2" height="1" fill="#40636f"/>
<rect x="28" y="23" width="1" height="1" fill="#91a0a4"/>
<rect x="9" y="24" width="1" height="1" fill="#9fa9ad"/>
<rect x="10" y="24" width="1" height="1" fill="#667f87"/>
<rect x="11" y="24" width="1" height="1" fill="#67828c"/>
<rect x="12" y="24" width="1" height="1" fill="#6e858e"/>
<rect x="13" y="24" width="5" height="1" fill="#6f8890"/>
<rect x="18" y="24" width="1" height="1" fill="#6e858e"/>
<rect x="19" y="24" width="1" height="1" fill="#67828c"/>
<rect x="20" y="24" width="1" height="1" fill="#617e87"/>
<rect x="21" y="24" width="1" height="1" fill="#62818b"/>
<rect x="22" y="24" width="1" height="1" fill="#abb3b5"/>
<rect x="23" y="24" width="1" height="1" fill="#d1d2d2"/>
<rect x="24" y="24" width="1" height="1" fill="#cbcbcc"/>
<rect x="25" y="24" width="1" height="1" fill="#627d86"/>
<rect x="26" y="24" width="1" height="1" fill="#40636f"/>
<rect x="27" y="24" width="1" height="1" fill="#476976"/>
<rect x="11" y="25" width="1" height="1" fill="#8c9da2"/>
<rect x="12" y="25" width="1" height="1" fill="#678189"/>
<rect x="13" y="25" width="5" height="1" fill="#65808a"/>
<rect x="18" y="25" width="1" height="1" fill="#617e87"/>
<rect x="19" y="25" width="1" height="1" fill="#62818b"/>
<rect x="20" y="25" width="1" height="1" fill="#93a3a8"/>
<rect x="21" y="25" width="1" height="1" fill="#c7c8c9"/>
<rect x="22" y="25" width="1" height="1" fill="#d1d2d2"/>
<rect x="23" y="25" width="1" height="1" fill="#cccccd"/>
<rect x="24" y="25" width="1" height="1" fill="#6a838b"/>
<rect x="25" y="25" width="1" height="1" fill="#40636f"/>
<rect x="26" y="25" width="1" height="1" fill="#476976"/>
<rect x="14" y="26" width="1" height="1" fill="#9ea8ac"/>
<rect x="15" y="26" width="1" height="1" fill="#93a3a8"/>
<rect x="16" y="26" width="1" height="1" fill="#94a4a9"/>
<rect x="17" y="26" width="1" height="1" fill="#a1abaf"/>
<rect x="18" y="26" width="1" height="1" fill="#b6bcbd"/>
<rect x="19" y="26" width="1" height="1" fill="#cecdcd"/>
<rect x="20" y="26" width="2" height="1" fill="#d1d2d2"/>
<rect x="22" y="26" width="1" height="1" fill="#c8c9ca"/>
<rect x="23" y="26" width="1" height="1" fill="#667f87"/>
<rect x="24" y="26" width="1" height="1" fill="#40636f"/>
<rect x="25" y="26" width="1" height="1" fill="#4a6a76"/>
<rect x="8" y="27" width="1" height="1" fill="#a0aaae"/>
<rect x="9" y="27" width="13" height="1" fill="#8f9ca1"/>
<rect x="22" y="27" width="1" height="1" fill="#5b7780"/>
<rect x="23" y="27" width="1" height="1" fill="#40636f"/>
<rect x="24" y="27" width="1" height="1" fill="#4e6c77"/>
<rect x="8" y="28" width="1" height="1" fill="#6c838c"/>
<rect x="9" y="28" width="14" height="1" fill="#40636f"/>
<rect x="23" y="28" width="1" height="1" fill="#4e6c77"/>
<rect x="8" y="29" width="1" height="1" fill="#6c838c"/>
<rect x="9" y="29" width="14" height="1" fill="#40636f"/>
<rect x="23" y="29" width="1" height="1" fill="#6a838b"/>
<rect x="8" y="30" width="1" height="1" fill="#87999e"/>
<rect x="9" y="30" width="14" height="1" fill="#6a838b"/>
<rect x="23" y="30" width="1" height="1" fill="#88989d"/>
</svg>