<svg xmlns="http://www.w3.org/2000/svg" width="32" height="32" viewBox="0 0 32 32" shape-rendering="crispEdges">
<rect x="14" y="4" width="1" height="1" fill="#a0b2b9"/>
<rect x="15" y="4" width="1" height="1" fill="#718c96"/>
<rect x="16" y="4" width="1" height="1" fill="#9db3ba"/>
<rect x="13" y="5" width="1" height="1" fill="#a1b4ba"/>
<rect x="14" y="5" width="1" height="1" fill="#6b8993"/>
<rect x="15" y="5" width="1" height="1" fill="#67838d"/>
<rect x="16" y="5" width="1" height="1" fill="#6f8891"/>
<rect x="17" y="5" width="1" height="1" fill="#9fb3b9"/>
<rect x="12" y="6" width="1" height="1" fill="#a2b4bb"/>
<rect x="13" y="6" width="1" height="1" fill="#6d8791"/>
<rect x="14" y="6" width="1" height="1" fill="#61818c"/>
<rect x="15" y="6" width="1" height="1" fill="#64838d"/>
<rect x="16" y="6" width="1" height="1" fill="#68838d"/>
<rect x="17" y="6" width="1" height="1" fill="#6f8b94"/>
<rect x="18" y="6" width="1" height="1" fill="#a0b3ba"/>
<rect x="12" y="7" width="1" height="1" fill="#6d8791"/>
<rect x="13" y="7" width="1" height="1" fill="#607f89"/>
<rect x="14" y="7" width="1" height="1" fill="#61818c"/>
<rect x="15" y="7" width="1" height="1" fill="#64838d"/>
<rect x="16" y="7" width="1" height="1" fill="#68838d"/>
<rect x="17" y="7" width="1" height="1" fill="#688690"/>
<rect x="18" y="7" width="1" height="1" fill="#738c95"/>
<rect x="19" y="7" width="1" height="1" fill="#a2b5bb"/>
<rect x="11" y="8" width="1" height="1" fill="#6c8891"/>
<rect x="12" y="8" width="1" height="1" fill="#5f7d87"/>
<rect x="13" y="8" width="1" height="1" fill="#607f89"/>
<rect x="14" y="8" width="1" height="1" fill="#61818c"/>
<rect x="15" y="8" width="1" height="1" fill="#64838d"/>
<rect x="16" y="8" width="1" height="1" fill="#68838d"/>
<rect x="17" y="8" width="1" height="1" fill="#688690"/>
<rect x="18" y="8" width="1" height="1" fill="#6b8690"/>
<rect x="19" y="8" width="1" height="1" fill="#778f98"/>
<rect x="10" y="9" width="1" height="1" fill="#6c8891"/>
<rect x="11" y="9" width="1" height="1" fill="#5e7b84"/>
<rect x="12" y="9" width="1" height="1" fill="#5e7d87"/>
<rect x="13" y="9" width="1" height="1" fill="#607e88"/>
<rect x="14" y="9" width="1" height="1" fill="#62808b"/>
<rect x="15" y="9" width="1" height="1" fill="#63828c"/>
<rect x="16" y="9" width="1" height="1" fill="#67838d"/>
<rect x="17" y="9" width="1" height="1" fill="#69848e"/>
<rect x="18" y="9" width="1" height="1" fill="#698791"/>
<rect x="19" y="9" width="1" height="1" fill="#6c8891"/>
<rect x="20" y="9" width="1" height="1" fill="#79919a"/>
<rect x="9" y="10" width="1" height="1" fill="#6e8892"/>
<rect x="10" y="10" width="1" height="1" fill="#5b7a84"/>
<rect x="11" y="10" width="1" height="1" fill="#5e7b84"/>
<rect x="12" y="10" width="1" height="1" fill="#5e7d87"/>
<rect x="13" y="10" width="1" height="1" fill="#607e88"/>
<rect x="14" y="10" width="1" height="1" fill="#62808b"/>
<rect x="15" y="10" width="1" height="1" fill="#63828c"/>
<rect x="16" y="10" width="1" height="1" fill="#67838d"/>
<rect x="17" y="10" width="1" height="1" fill="#69848e"/>
<rect x="18" y="10" width="1" height="1" fill="#698791"/>
<rect x="19" y="10" width="1" height="1" fill="#6c8891"/>
<rect x="20" y="10" width="1" height="1" fill="#6f8993"/>
<rect x="21" y="10" width="1" height="1" fill="#7c939b"/>
<rect x="8" y="11" width="1" height="1" fill="#6e8892"/>
<rect x="9" y="11" width="1" height="1" fill="#567782"/>
<rect x="10" y="11" width="1" height="1" fill="#587984"/>
<rect x="11" y="11" width="1" height="1" fill="#5d7a83"/>
<rect x="12" y="11" width="1" height="1" fill="#5d7c86"/>
<rect x="13" y="11" width="1" height="1" fill="#5f7d87"/>
<rect x="14" y="11" width="1" height="1" fill="#607f89"/>
<rect x="15" y="11" width="1" height="1" fill="#61818c"/>
<rect x="16" y="11" width="1" height="1" fill="#64838d"/>
<rect x="17" y="11" width="1" height="1" fill="#68838d"/>
<rect x="18" y="11" width="1" height="1" fill="#688690"/>
<rect x="19" y="11" width="1" height="1" fill="#6b8690"/>
<rect x="20" y="11" width="1" height="1" fill="#6e8892"/>
<rect x="21" y="11" width="1" height="1" fill="#708992"/>
<rect x="22" y="11" width="1" height="1" fill="#7c959e"/>
<rect x="7" y="12" width="1" height="1" fill="#6f8993"/>
<rect x="8" y="12" width="1" height="1" fill="#547681"/>
<rect x="9" y="12" width="1" height="1" fill="#567782"/>
<rect x="10" y="12" width="1" height="1" fill="#587984"/>
<rect x="11" y="12" width="1" height="1" fill="#5d7a83"/>
<rect x="12" y="12" width="1" height="1" fill="#5d7c86"/>
<rect x="13" y="12" width="1" height="1" fill="#5f7d87"/>
<rect x="14" y="12" width="1" height="1" fill="#607f89"/>
<rect x="15" y="12" width="1" height="1" fill="#61818c"/>
<rect x="16" y="12" width="1" height="1" fill="#64838d"/>
<rect x="17" y="12" width="1" height="1" fill="#68838d"/>
<rect x="18" y="12" width="1" height="1" fill="#688690"/>
<rect x="19" y="12" width="1" height="1" fill="#6b8690"/>
<rect x="20" y="12" width="1" height="1" fill="#6e8892"/>
<rect x="21" y="12" width="1" height="1" fill="#708992"/>
<rect x="22" y="12" width="1" height="1" fill="#708b95"/>
<rect x="23" y="12" width="1" height="1" fill="#82979f"/>
<rect x="6" y="13" width="1" height="1" fill="#708a94"/>
<rect x="7" y="13" width="1" height="1" fill="#53727e"/>
<rect x="8" y="13" width="1" height="1" fill="#557580"/>
<rect x="9" y="13" width="1" height="1" fill="#557782"/>
<rect x="10" y="13" width="1" height="1" fill="#577883"/>
<rect x="11" y="13" width="1" height="1" fill="#5b7a84"/>
<rect x="12" y="13" width="1" height="1" fill="#5e7b84"/>
<rect x="13" y="13" width="1" height="1" fill="#5e7d87"/>
<rect x="14" y="13" width="1" height="1" fill="#607e88"/>
<rect x="15" y="13" width="1" height="1" fill="#62808b"/>
<rect x="16" y="13" width="1" height="1" fill="#63828c"/>
<rect x="17" y="13" width="1" height="1" fill="#67838d"/>
<rect x="18" y="13" width="1" height="1" fill="#69848e"/>
<rect x="19" y="13" width="1" height="1" fill="#698791"/>
<rect x="20" y="13" width="1" height="1" fill="#6c8891"/>
<rect x="21" y="13" width="1" height="1" fill="#6f8993"/>
<rect x="22" y="13" width="1" height="1" fill="#718a93"/>
<rect x="23" y="13" width="1" height="1" fill="#718c96"/>
<rect x="24" y="13" width="1" height="1" fill="#839aa2"/>
<rect x="5" y="14" width="1" height="1" fill="#718d96"/>
<rect x="6" y="14" width="1" height="1" fill="#4f707b"/>
<rect x="7" y="14" width="1" height="1" fill="#53727e"/>
<rect x="8" y="14" width="1" height="1" fill="#557580"/>
<rect x="9" y="14" width="1" height="1" fill="#557782"/>
<rect x="10" y="14" width="1" height="1" fill="#577883"/>
<rect x="11" y="14" width="1" height="1" fill="#5b7a84"/>
<rect x="12" y="14" width="1" height="1" fill="#5e7b84"/>
<rect x="13" y="14" width="1" height="1" fill="#5e7d87"/>
<rect x="14" y="14" width="1" height="1" fill="#607e88"/>
<rect x="15" y="14" width="1" height="1" fill="#62808b"/>
<rect x="16" y="14" width="1" height="1" fill="#63828c"/>
<rect x="17" y="14" width="1" height="1" fill="#67838d"/>
<rect x="18" y="14" width="1" height="1" fill="#69848e"/>
<rect x="19" y="14" width="1" height="1" fill="#698791"/>
<rect x="20" y="14" width="1" height="1" fill="#6c8891"/>
<rect x="21" y="14" width="1" height="1" fill="#6f8993"/>
<rect x="22" y="14" width="1" height="1" fill="#718a93"/>
<rect x="23" y="14" width="1" height="1" fill="#718c96"/>
<rect x="24" y="14" width="1" height="1" fill="#718f99"/>
<rect x="25" y="14" width="1" height="1" fill="#869ca4"/>
<rect x="4" y="15" width="1" height="1" fill="#7b9098"/>
<rect x="5" y="15" width="1" height="1" fill="#4e6f7a"/>
<rect x="6" y="15" width="1" height="1" fill="#4f707b"/>
<rect x="7" y="15" width="1" height="1" fill="#53727e"/>
<rect x="8" y="15" width="1" height="1" fill="#557580"/>
<rect x="9" y="15" width="1" height="1" fill="#557782"/>
<rect x="10" y="15" width="1" height="1" fill="#577883"/>
<rect x="11" y="15" width="1" height="1" fill="#5b7a84"/>
<rect x="12" y="15" width="1" height="1" fill="#5e7b84"/>
<rect x="13" y="15" width="1" height="1" fill="#5e7d87"/>
<rect x="14" y="15" width="1" height="1" fill="#607e88"/>
<rect x="15" y="15" width="1" height="1" fill="#62808b"/>
<rect x="16" y="15" width="1" height="1" fill="#63828c"/>
<rect x="17" y="15" width="1" height="1" fill="#67838d"/>
<rect x="18" y="15" width="1" height="1" fill="#69848e"/>
<rect x="19" y="15" width="1" height="1" fill="#698791"/>
<rect x="20" y="15" width="1" height="1" fill="#6c8891"/>
<rect x="21" y="15" width="1" height="1" fill="#6f8993"/>
<rect x="22" y="15" width="1" height="1" fill="#718a93"/>
<rect x="23" y="15" width="1" height="1" fill="#718c96"/>
<rect x="24" y="15" width="1" height="1" fill="#718f99"/>
<rect x="25" y="15" width="1" height="1" fill="#778f98"/>
<rect x="26" y="15" width="1" height="1" fill="#96a6ac"/>
<rect x="4" y="16" width="1" height="1" fill="#557580"/>
<rect x="5" y="16" width="1" height="1" fill="#4d6e79"/>
<rect x="6" y="16" width="1" height="1" fill="#4e6f7a"/>
<rect x="7" y="16" width="1" height="1" fill="#4f727e"/>
<rect x="8" y="16" width="1" height="1" fill="#55727d"/>
<rect x="9" y="16" width="1" height="1" fill="#547681"/>
<rect x="10" y="16" width="1" height="1" fill="#567782"/>
<rect x="11" y="16" width="1" height="1" fill="#587984"/>
<rect x="12" y="16" width="1" height="1" fill="#5d7a83"/>
<rect x="13" y="16" width="1" height="1" fill="#5d7c86"/>
<rect x="14" y="16" width="1" height="1" fill="#5f7d87"/>
<rect x="15" y="16" width="1" height="1" fill="#607f89"/>
<rect x="16" y="16" width="1" height="1" fill="#61828d"/>
<rect x="17" y="16" width="1" height="1" fill="#6e8993"/>
<rect x="18" y="16" width="1" height="1" fill="#708c95"/>
<rect x="19" y="16" width="1" height="1" fill="#748f98"/>
<rect x="20" y="16" width="1" height="1" fill="#778e96"/>
<rect x="21" y="16" width="1" height="1" fill="#79919a"/>
<rect x="22" y="16" width="1" height="1" fill="#718a93"/>
<rect x="23" y="16" width="1" height="1" fill="#708b95"/>
<rect x="24" y="16" width="1" height="1" fill="#738c95"/>
<rect x="25" y="16" width="1" height="1" fill="#758e97"/>
<rect x="26" y="16" width="1" height="1" fill="#889ca2"/>
<rect x="4" y="17" width="1" height="1" fill="#557580"/>
<rect x="5" y="17" width="1" height="1" fill="#4d6e79"/>
<rect x="6" y="17" width="1" height="1" fill="#4e6f7a"/>
<rect x="7" y="17" width="1" height="1" fill="#4f727e"/>
<rect x="8" y="17" width="1" height="1" fill="#55727d"/>
<rect x="9" y="17" width="1" height="1" fill="#547681"/>
<rect x="10" y="17" width="1" height="1" fill="#567782"/>
<rect x="11" y="17" width="1" height="1" fill="#587984"/>
<rect x="12" y="17" width="1" height="1" fill="#5d7a83"/>
<rect x="13" y="17" width="1" height="1" fill="#5d7c86"/>
<rect x="14" y="17" width="1" height="1" fill="#5f7d87"/>
<rect x="15" y="17" width="1" height="1" fill="#607f89"/>
<rect x="16" y="17" width="1" height="1" fill="#6c8891"/>
<rect x="17" y="17" width="1" height="1" fill="#bbc9cd"/>
<rect x="18" y="17" width="1" height="1" fill="#cad0d3"/>
<rect x="19" y="17" width="1" height="1" fill="#d2dbdd"/>
<rect x="20" y="17" width="1" height="1" fill="#dadfe1"/>
<rect x="21" y="17" width="1" height="1" fill="#dee2e4"/>
<rect x="22" y="17" width="1" height="1" fill="#7d939b"/>
<rect x="23" y="17" width="1" height="1" fill="#708b95"/>
<rect x="24" y="17" width="1" height="1" fill="#738c95"/>
<rect x="25" y="17" width="1" height="1" fill="#758e97"/>
<rect x="26" y="17" width="1" height="1" fill="#889ca2"/>
<rect x="4" y="18" width="1" height="1" fill="#547580"/>
<rect x="5" y="18" width="1" height="1" fill="#4e6c77"/>
<rect x="6" y="18" width="1" height="1" fill="#4e6f7a"/>
<rect x="7" y="18" width="1" height="1" fill="#4f707b"/>
<rect x="8" y="18" width="1" height="1" fill="#53727e"/>
<rect x="9" y="18" width="1" height="1" fill="#557580"/>
<rect x="10" y="18" width="1" height="1" fill="#557782"/>
<rect x="11" y="18" width="1" height="1" fill="#577883"/>
<rect x="12" y="18" width="1" height="1" fill="#5b7a84"/>
<rect x="13" y="18" width="1" height="1" fill="#5e7b84"/>
<rect x="14" y="18" width="1" height="1" fill="#5e7d87"/>
<rect x="15" y="18" width="1" height="1" fill="#607e88"/>
<rect x="16" y="18" width="1" height="1" fill="#6b8690"/>
<rect x="17" y="18" width="1" height="1" fill="#b2c1c5"/>
<rect x="18" y="18" width="1" height="1" fill="#bec9cd"/>
<rect x="19" y="18" width="1" height="1" fill="#cbd2d5"/>
<rect x="20" y="18" width="1" height="1" fill="#d5dcde"/>
<rect x="21" y="18" width="1" height="1" fill="#dadfe1"/>
<rect x="22" y="18" width="1" height="1" fill="#7b939c"/>
<rect x="23" y="18" width="1" height="1" fill="#718a93"/>
<rect x="24" y="18" width="1" height="1" fill="#718c96"/>
<rect x="25" y="18" width="1" height="1" fill="#718f99"/>
<rect x="26" y="18" width="1" height="1" fill="#889ca2"/>
<rect x="4" y="19" width="1" height="1" fill="#547580"/>
<rect x="5" y="19" width="1" height="1" fill="#4e6c77"/>
<rect x="6" y="19" width="1" height="1" fill="#4e6f7a"/>
<rect x="7" y="19" width="1" height="1" fill="#4f707b"/>
<rect x="8" y="19" width="1" height="1" fill="#53727e"/>
<rect x="9" y="19" width="1" height="1" fill="#557580"/>
<rect x="10" y="19" width="1" height="1" fill="#557782"/>
<rect x="11" y="19" width="1" height="1" fill="#577883"/>
<rect x="12" y="19" width="1" height="1" fill="#5b7a84"/>
<rect x="13" y="19" width="1" height="1" fill="#5e7b84"/>
<rect x="14" y="19" width="1" height="1" fill="#5e7d87"/>
<rect x="15" y="19" width="1" height="1" fill="#607e88"/>
<rect x="16" y="19" width="1" height="1" fill="#688690"/>
<rect x="17" y="19" width="1" height="1" fill="#a9bbc0"/>
<rect x="18" y="19" width="1" height="1" fill="#b3c3c8"/>
<rect x="19" y="19" width="1" height="1" fill="#c1cace"/>
<rect x="20" y="19" width="1" height="1" fill="#ccd5d7"/>
<rect x="21" y="19" width="1" height="1" fill="#d8dcde"/>
<rect x="22" y="19" width="1" height="1" fill="#7a929b"/>
<rect x="23" y="19" width="1" height="1" fill="#718a93"/>
<rect x="24" y="19" width="1" height="1" fill="#718c96"/>
<rect x="25" y="19" width="1" height="1" fill="#718f99"/>
<rect x="26" y="19" width="1" height="1" fill="#889ca2"/>
<rect x="4" y="20" width="1" height="1" fill="#547580"/>
<rect x="5" y="20" width="1" height="1" fill="#4d6b76"/>
<rect x="6" y="20" width="1" height="1" fill="#4d6e79"/>
<rect x="7" y="20" width="1" height="1" fill="#4e6f7a"/>
<rect x="8" y="20" width="1" height="1" fill="#4f727e"/>
<rect x="9" y="20" width="1" height="1" fill="#55727d"/>
<rect x="10" y="20" width="1" height="1" fill="#547681"/>
<rect x="11" y="20" width="1" height="1" fill="#567782"/>
<rect x="12" y="20" width="1" height="1" fill="#587984"/>
<rect x="13" y="20" width="1" height="1" fill="#5d7a83"/>
<rect x="14" y="20" width="1" height="1" fill="#5d7c86"/>
<rect x="15" y="20" width="1" height="1" fill="#5f7d87"/>
<rect x="16" y="20" width="1" height="1" fill="#607f89"/>
<rect x="17" y="20" width="1" height="1" fill="#a5b4ba"/>
<rect x="18" y="20" width="1" height="1" fill="#a6b5bb"/>
<rect x="19" y="20" width="1" height="1" fill="#afc0c5"/>
<rect x="20" y="20" width="1" height="1" fill="#bbc9cd"/>
<rect x="21" y="20" width="1" height="1" fill="#c8d0d3"/>
<rect x="22" y="20" width="1" height="1" fill="#789099"/>
<rect x="23" y="20" width="1" height="1" fill="#708992"/>
<rect x="24" y="20" width="1" height="1" fill="#708b95"/>
<rect x="25" y="20" width="1" height="1" fill="#738c95"/>
<rect x="26" y="20" width="1" height="1" fill="#869ca3"/>
<rect x="4" y="21" width="1" height="1" fill="#547580"/>
<rect x="5" y="21" width="1" height="1" fill="#4d6b76"/>
<rect x="6" y="21" width="1" height="1" fill="#4d6e79"/>
<rect x="7" y="21" width="1" height="1" fill="#4e6f7a"/>
<rect x="8" y="21" width="1" height="1" fill="#4f727e"/>
<rect x="9" y="21" width="1" height="1" fill="#55727d"/>
<rect x="10" y="21" width="1" height="1" fill="#547681"/>
<rect x="11" y="21" width="1" height="1" fill="#567782"/>
<rect x="12" y="21" width="1" height="1" fill="#587984"/>
<rect x="13" y="21" width="1" height="1" fill="#5d7a83"/>
<rect x="14" y="21" width="1" height="1" fill="#5d7c86"/>
<rect x="15" y="21" width="1" height="1" fill="#5f7d87"/>
<rect x="16" y="21" width="1" height="1" fill="#607f89"/>
<rect x="17" y="21" width="1" height="1" fill="#61818c"/>
<rect x="18" y="21" width="1" height="1" fill="#64838d"/>
<rect x="19" y="21" width="1" height="1" fill="#68838d"/>
<rect x="20" y="21" width="1" height="1" fill="#688690"/>
<rect x="21" y="21" width="1" height="1" fill="#6b8690"/>
<rect x="22" y="21" width="1" height="1" fill="#6e8892"/>
<rect x="23" y="21" width="1" height="1" fill="#708992"/>
<rect x="24" y="21" width="1" height="1" fill="#708b95"/>
<rect x="25" y="21" width="1" height="1" fill="#738c95"/>
<rect x="26" y="21" width="1" height="1" fill="#869ca3"/>
<rect x="4" y="22" width="1" height="1" fill="#547580"/>
<rect x="5" y="22" width="1" height="1" fill="#4d6b76"/>
<rect x="6" y="22" width="1" height="1" fill="#4d6e79"/>
<rect x="7" y="22" width="1" height="1" fill="#4e6f7a"/>
<rect x="8" y="22" width="1" height="1" fill="#4f727e"/>
<rect x="9" y="22" width="1" height="1" fill="#55727d"/>
<rect x="10" y="22" width="1" height="1" fill="#547681"/>
<rect x="11" y="22" width="1" height="1" fill="#567782"/>
<rect x="12" y="22" width="1" height="1" fill="#587984"/>
<rect x="13" y="22" width="1" height="1" fill="#5d7a83"/>
<rect x="14" y="22" width="1" height="1" fill="#5d7c86"/>
<rect x="15" y="22" width="1" height="1" fill="#5f7d87"/>
<rect x="16" y="22" width="1" height="1" fill="#67838d"/>
<rect x="17" y="22" width="1" height="1" fill="#90a7ae"/>
<rect x="18" y="22" width="1" height="1" fill="#99aab0"/>
<rect x="19" y="22" width="1" height="1" fill="#9cb2b9"/>
<rect x="20" y="22" width="1" height="1" fill="#9eb3b9"/>
<rect x="21" y="22" width="1" height="1" fill="#a4b4ba"/>
<rect x="22" y="22" width="1" height="1" fill="#728b94"/>
<rect x="23" y="22" width="1" height="1" fill="#708992"/>
<rect x="24" y="22" width="1" height="1" fill="#708b95"/>
<rect x="25" y="22" width="1" height="1" fill="#738c95"/>
<rect x="26" y="22" width="1" height="1" fill="#869ca3"/>
<rect x="4" y="23" width="1" height="1" fill="#54727d"/>
<rect x="5" y="23" width="1" height="1" fill="#4b6b77"/>
<rect x="6" y="23" width="1" height="1" fill="#4e6c77"/>
<rect x="7" y="23" width="1" height="1" fill="#4e6f7a"/>
<rect x="8" y="23" width="1" height="1" fill="#4f707b"/>
<rect x="9" y="23" width="1" height="1" fill="#53727e"/>
<rect x="10" y="23" width="1" height="1" fill="#557580"/>
<rect x="11" y="23" width="1" height="1" fill="#557782"/>
<rect x="12" y="23" width="1" height="1" fill="#577883"/>
<rect x="13" y="23" width="1" height="1" fill="#5b7a84"/>
<rect x="14" y="23" width="1" height="1" fill="#5e7b84"/>
<rect x="15" y="23" width="1" height="1" fill="#5e7d87"/>
<rect x="16" y="23" width="1" height="1" fill="#64838d"/>
<rect x="17" y="23" width="1" height="1" fill="#93a9b1"/>
<rect x="18" y="23" width="1" height="1" fill="#99b1b9"/>
<rect x="19" y="23" width="1" height="1" fill="#a2b6bc"/>
<rect x="20" y="23" width="1" height="1" fill="#a7bac0"/>
<rect x="21" y="23" width="1" height="1" fill="#a9bcc2"/>
<rect x="22" y="23" width="1" height="1" fill="#728b94"/>
<rect x="23" y="23" width="1" height="1" fill="#6f8993"/>
<rect x="24" y="23" width="1" height="1" fill="#718a93"/>
<rect x="25" y="23" width="1" height="1" fill="#718c96"/>
<rect x="26" y="23" width="1" height="1" fill="#859ca3"/>
<rect x="4" y="24" width="1" height="1" fill="#54727d"/>
<rect x="5" y="24" width="1" height="1" fill="#4b6b77"/>
<rect x="6" y="24" width="1" height="1" fill="#4e6c77"/>
<rect x="7" y="24" width="1" height="1" fill="#4e6f7a"/>
<rect x="8" y="24" width="1" height="1" fill="#4f707b"/>
<rect x="9" y="24" width="1" height="1" fill="#53727e"/>
<rect x="10" y="24" width="1" height="1" fill="#557580"/>
<rect x="11" y="24" width="1" height="1" fill="#557782"/>
<rect x="12" y="24" width="1" height="1" fill="#577883"/>
<rect x="13" y="24" width="1" height="1" fill="#5b7a84"/>
<rect x="14" y="24" width="1" height="1" fill="#5e7b84"/>
<rect x="15" y="24" width="1" height="1" fill="#5e7d87"/>
<rect x="16" y="24" width="1" height="1" fill="#64838d"/>
<rect x="17" y="24" width="1" height="1" fill="#8aa5ae"/>
<rect x="18" y="24" width="1" height="1" fill="#95aab2"/>
<rect x="19" y="24" width="1" height="1" fill="#9cb2b9"/>
<rect x="20" y="24" width="1" height="1" fill="#a4b7bd"/>
<rect x="21" y="24" width="1" height="1" fill="#a7bac0"/>
<rect x="22" y="24" width="1" height="1" fill="#718b95"/>
<rect x="23" y="24" width="1" height="1" fill="#6f8993"/>
<rect x="24" y="24" width="1" height="1" fill="#718a93"/>
<rect x="25" y="24" width="1" height="1" fill="#718c96"/>
<rect x="26" y="24" width="1" height="1" fill="#859ca3"/>
<rect x="4" y="25" width="1" height="1" fill="#54727d"/>
<rect x="5" y="25" width="1" height="1" fill="#476b77"/>
<rect x="6" y="25" width="1" height="1" fill="#4d6b76"/>
<rect x="7" y="25" width="1" height="1" fill="#4d6e79"/>
<rect x="8" y="25" width="1" height="1" fill="#4e6f7a"/>
<rect x="9" y="25" width="1" height="1" fill="#4f727e"/>
<rect x="10" y="25" width="1" height="1" fill="#55727d"/>
<rect x="11" y="25" width="1" height="1" fill="#547681"/>
<rect x="12" y="25" width="1" height="1" fill="#567782"/>
<rect x="13" y="25" width="1" height="1" fill="#587984"/>
<rect x="14" y="25" width="1" height="1" fill="#5d7a83"/>
<rect x="15" y="25" width="1" height="1" fill="#5d7c86"/>
<rect x="16" y="25" width="1" height="1" fill="#62818b"/>
<rect x="17" y="25" width="1" height="1" fill="#87a1a9"/>
<rect x="18" y="25" width="1" height="1" fill="#8ca6ae"/>
<rect x="19" y="25" width="1" height="1" fill="#96acb3"/>
<rect x="20" y="25" width="1" height="1" fill="#9eb3b9"/>
<rect x="21" y="25" width="1" height="1" fill="#a6b8bd"/>
<rect x="22" y="25" width="1" height="1" fill="#708a94"/>
<rect x="23" y="25" width="1" height="1" fill="#6e8892"/>
<rect x="24" y="25" width="1" height="1" fill="#708992"/>
<rect x="25" y="25" width="1" height="1" fill="#708b95"/>
<rect x="26" y="25" width="1" height="1" fill="#869aa0"/>
<rect x="4" y="26" width="1" height="1" fill="#54727d"/>
<rect x="5" y="26" width="1" height="1" fill="#476b77"/>
<rect x="6" y="26" width="1" height="1" fill="#4d6b76"/>
<rect x="7" y="26" width="1" height="1" fill="#4d6e79"/>
<rect x="8" y="26" width="1" height="1" fill="#4e6f7a"/>
<rect x="9" y="26" width="1" height="1" fill="#4f727e"/>
<rect x="10" y="26" width="1" height="1" fill="#55727d"/>
<rect x="11" y="26" width="1" height="1" fill="#547681"/>
<rect x="12" y="26" width="1" height="1" fill="#567782"/>
<rect x="13" y="26" width="1" height="1" fill="#587984"/>
<rect x="14" y="26" width="1" height="1" fill="#5d7a83"/>
<rect x="15" y="26" width="1" height="1" fill="#5d7c86"/>
<rect x="16" y="26" width="1" height="1" fill="#5f7d87"/>
<rect x="17" y="26" width="1" height="1" fill="#688590"/>
<rect x="18" y="26" width="1" height="1" fill="#6a858f"/>
<rect x="19" y="26" width="1" height="1" fill="#6d8992"/>
<rect x="20" y="26" width="1" height="1" fill="#718a93"/>
<rect x="21" y="26" width="1" height="1" fill="#718f99"/>
<rect x="22" y="26" width="1" height="1" fill="#6a8892"/>
<rect x="23" y="26" width="1" height="1" fill="#6e8892"/>
<rect x="24" y="26" width="1" height="1" fill="#708992"/>
<rect x="25" y="26" width="1" height="1" fill="#708b95"/>
<rect x="26" y="26" width="1" height="1" fill="#869aa0"/>
<rect x="4" y="27" width="1" height="1" fill="#54727d"/>
<rect x="5" y="27" width="1" height="1" fill="#466a76"/>
<rect x="6" y="27" width="1" height="1" fill="#4b6b77"/>
<rect x="7" y="27" width="1" height="1" fill="#4e6c77"/>
<rect x="8" y="27" width="1" height="1" fill="#4e6f7a"/>
<rect x="9" y="27" width="1" height="1" fill="#4f707b"/>
<rect x="10" y="27" width="1" height="1" fill="#53727e"/>
<rect x="11" y="27" width="1" height="1" fill="#557580"/>
<rect x="12" y="27" width="1" height="1" fill="#557782"/>
<rect x="13" y="27" width="1" height="1" fill="#577883"/>
<rect x="14" y="27" width="1" height="1" fill="#5b7a84"/>
<rect x="15" y="27" width="1" height="1" fill="#5e7b84"/>
<rect x="16" y="27" width="1" height="1" fill="#5e7d87"/>
<rect x="17" y="27" width="1" height="1" fill="#607e88"/>
<rect x="18" y="27" width="1" height="1" fill="#62808b"/>
<rect x="19" y="27" width="1" height="1" fill="#63828c"/>
<rect x="20" y="27" width="1" height="1" fill="#67838d"/>
<rect x="21" y="27" width="1" height="1" fill="#69848e"/>
<rect x="22" y="27" width="1" height="1" fill="#698791"/>
<rect x="23" y="27" width="1" height="1" fill="#6c8891"/>
<rect x="24" y="27" width="1" height="1" fill="#6f8993"/>
<rect x="25" y="27" width="1" height="1" fill="#718a93"/>
<rect x="26" y="27" width="1" height="1" fill="#849aa1"/>
<rect x="4" y="28" width="1" height="1" fill="#54727d"/>
<rect x="5" y="28" width="1" height="1" fill="#466a76"/>
<rect x="6" y="28" width="1" height="1" fill="#4b6b77"/>
<rect x="7" y="28" width="1" height="1" fill="#4e6c77"/>
<rect x="8" y="28" width="1" height="1" fill="#4e6f7a"/>
<rect x="9" y="28" width="1" height="1" fill="#4f707b"/>
<rect x="10" y="28" width="1" height="1" fill="#53727e"/>
<rect x="11" y="28" width="1" height="1" fill="#557580"/>
<rect x="12" y="28" width="1" height="1" fill="#557782"/>
<rect x="13" y="28" width="1" height="1" fill="#577883"/>
<rect x="14" y="28" width="1" height="1" fill="#5b7a84"/>
<rect x="15" y="28" width="1" height="1" fill="#5e7b84"/>
<rect x="16" y="28" width="1" height="1" fill="#5e7d87"/>
<rect x="17" y="28" width="1" height="1" fill="#607e88"/>
<rect x="18" y="28" width="1" height="1" fill="#62808b"/>
<rect x="19" y="28" width="1" height="1" fill="#63828c"/>
<rect x="20" y="28" width="1" height="1" fill="#67838d"/>
<rect x="21" y="28" width="1" height="1" fill="#69848e"/>
<rect x="22" y="28" width="1" height="1" fill="#698791"/>
<rect x="23" y="28" width="1" height="1" fill="#6c8891"/>
<rect x="24" y="28" width="1" height="1" fill="#6f8993"/>
<rect x="25" y="28" width="1" height="1" fill="#718a93"/>
<rect x="26" y="28" width="1" height="1" fill="#849aa1"/>
<rect x="4" y="29" width="1" height="1" fill="#55727d"/>
<rect x="5" y="29" width="1" height="1" fill="#466975"/>
<rect x="6" y="29" width="1" height="1" fill="#4a6a76"/>
<rect x="7" y="29" width="1" height="1" fill="#4d6b76"/>
<rect x="8" y="29" width="1" height="1" fill="#4d6e79"/>
<rect x="9" y="29" width="1" height="1" fill="#4e6f7a"/>
<rect x="10" y="29" width="1" height="1" fill="#4f727e"/>
<rect x="11" y="29" width="1" height="1" fill="#53727e"/>
<rect x="12" y="29" width="1" height="1" fill="#537682"/>
<rect x="13" y="29" width="1" height="1" fill="#557782"/>
<rect x="14" y="29" width="1" height="1" fill="#587883"/>
<rect x="15" y="29" width="1" height="1" fill="#5c7982"/>
<rect x="16" y="29" width="1" height="1" fill="#5c7b85"/>
<rect x="17" y="29" width="1" height="1" fill="#5f7c85"/>
<rect x="18" y="29" width="1" height="1" fill="#5f7d88"/>
<rect x="19" y="29" width="1" height="1" fill="#607f89"/>
<rect x="20" y="29" width="1" height="1" fill="#60828d"/>
<rect x="21" y="29" width="1" height="1" fill="#64838d"/>
<rect x="22" y="29" width="1" height="1" fill="#68838d"/>
<rect x="23" y="29" width="1" height="1" fill="#6a848e"/>
<rect x="24" y="29" width="1" height="1" fill="#6b8690"/>
<rect x="25" y="29" width="1" height="1" fill="#6e8790"/>
<rect x="26" y="29" width="1" height="1" fill="#869ca3"/>
<rect x="5" y="30" width="21" height="1" fill="#a6b1b4"/>
</svg>