<svg xmlns="http://www.w3.org/2000/svg" width="32" height="32" viewBox="0 0 32 32" shape-rendering="crispEdges">
<rect x="6" y="5" width="1" height="1" fill="#8ba2a9"/>
<rect x="24" y="5" width="1" height="1" fill="#698a95"/>
<rect x="6" y="6" width="1" height="1" fill="#608591"/>
<rect x="7" y="6" width="1" height="1" fill="#869ba3"/>
<rect x="24" y="6" width="1" height="1" fill="#5b8391"/>
<rect x="25" y="6" width="1" height="1" fill="#8ea4ab"/>
<rect x="1" y="7" width="1" height="1" fill="#90a0a5"/>
<rect x="2" y="7" width="4" height="1" fill="#859aa2"/>
<rect x="6" y="7" width="1" height="1" fill="#5e8491"/>
<rect x="7" y="7" width="1" height="1" fill="#6e8f9a"/>
<rect x="8" y="7" width="15" height="1" fill="#859aa2"/>
<rect x="23" y="7" width="1" height="1" fill="#84979e"/>
<rect x="24" y="7" width="1" height="1" fill="#5b8391"/>
<rect x="25" y="7" width="1" height="1" fill="#75909a"/>
<rect x="26" y="7" width="3" height="1" fill="#859aa2"/>
<rect x="29" y="7" width="1" height="1" fill="#7e939b"/>
<rect x="1" y="8" width="1" height="1" fill="#8e9fa4"/>
<rect x="2" y="8" width="1" height="1" fill="#b3bfc2"/>
<rect x="3" y="8" width="3" height="1" fill="#b7c2c6"/>
<rect x="6" y="8" width="1" height="1" fill="#608693"/>
<rect x="7" y="8" width="1" height="1" fill="#8aa4ac"/>
<rect x="8" y="8" width="15" height="1" fill="#b7c2c6"/>
<rect x="23" y="8" width="1" height="1" fill="#b1bfc3"/>
<rect x="24" y="8" width="1" height="1" fill="#5b8391"/>
<rect x="25" y="8" width="1" height="1" fill="#97aab1"/>
<rect x="26" y="8" width="3" height="1" fill="#b7c2c6"/>
<rect x="29" y="8" width="1" height="1" fill="#92a5ab"/>
<rect x="1" y="9" width="1" height="1" fill="#8e9ea3"/>
<rect x="2" y="9" width="1" height="1" fill="#b8c4c9"/>
<rect x="3" y="9" width="3" height="1" fill="#bbc7ca"/>
<rect x="6" y="9" width="1" height="1" fill="#8ba4ac"/>
<rect x="7" y="9" width="1" height="1" fill="#a4b5ba"/>
<rect x="8" y="9" width="15" height="1" fill="#bbc7ca"/>
<rect x="23" y="9" width="1" height="1" fill="#bcc4c7"/>
<rect x="24" y="9" width="1" height="1" fill="#90a6ae"/>
<rect x="25" y="9" width="1" height="1" fill="#adbcc2"/>
<rect x="26" y="9" width="3" height="1" fill="#bbc7ca"/>
<rect x="29" y="9" width="1" height="1" fill="#96a9af"/>
<rect x="1" y="10" width="1" height="1" fill="#8c9da2"/>
<rect x="2" y="10" width="1" height="1" fill="#b8c4c9"/>
<rect x="3" y="10" width="26" height="1" fill="#bbc7ca"/>
<rect x="29" y="10" width="1" height="1" fill="#95a8ae"/>
<rect x="1" y="11" width="1" height="1" fill="#8a9ca1"/>
<rect x="2" y="11" width="1" height="1" fill="#b9c3c7"/>
<rect x="3" y="11" width="1" height="1" fill="#94a7ad"/>
<rect x="4" y="11" width="1" height="1" fill="#93a7ad"/>
<rect x="5" y="11" width="1" height="1" fill="#94a7ad"/>
<rect x="6" y="11" width="1" height="1" fill="#96a6ac"/>
<rect x="7" y="11" width="1" height="1" fill="#9fb2b8"/>
<rect x="8" y="11" width="1" height="1" fill="#a5b2b7"/>
<rect x="9" y="11" width="2" height="1" fill="#9aaeb4"/>
<rect x="11" y="11" width="1" height="1" fill="#9db0b6"/>
<rect x="12" y="11" width="1" height="1" fill="#a3b2b8"/>
<rect x="13" y="11" width="1" height="1" fill="#adbcc0"/>
<rect x="14" y="11" width="1" height="1" fill="#a3b3b8"/>
<rect x="15" y="11" width="1" height="1" fill="#a6b3b7"/>
<rect x="16" y="11" width="1" height="1" fill="#a7b4b9"/>
<rect x="17" y="11" width="1" height="1" fill="#a9b6bb"/>
<rect x="18" y="11" width="1" height="1" fill="#b2c1c5"/>
<rect x="19" y="11" width="2" height="1" fill="#b4c1c5"/>
<rect x="21" y="11" width="1" height="1" fill="#bbc5c9"/>
<rect x="22" y="11" width="1" height="1" fill="#c3cbce"/>
<rect x="23" y="11" width="1" height="1" fill="#c4cccf"/>
<rect x="24" y="11" width="1" height="1" fill="#ced5d8"/>
<rect x="25" y="11" width="1" height="1" fill="#d1d6d8"/>
<rect x="26" y="11" width="2" height="1" fill="#d6dbdd"/>
<rect x="28" y="11" width="1" height="1" fill="#cad0d3"/>
<rect x="29" y="11" width="1" height="1" fill="#93a7ad"/>
<rect x="1" y="12" width="1" height="1" fill="#899ca2"/>
<rect x="2" y="12" width="1" height="1" fill="#b8c3c7"/>
<rect x="3" y="12" width="1" height="1" fill="#768f97"/>
<rect x="4" y="12" width="1" height="1" fill="#728b94"/>
<rect x="5" y="12" width="1" height="1" fill="#788f98"/>
<rect x="6" y="12" width="1" height="1" fill="#7a9098"/>
<rect x="7" y="12" width="1" height="1" fill="#94a7ad"/>
<rect x="8" y="12" width="1" height="1" fill="#99acb2"/>
<rect x="9" y="12" width="1" height="1" fill="#839aa1"/>
<rect x="10" y="12" width="2" height="1" fill="#869da4"/>
<rect x="12" y="12" width="1" height="1" fill="#92a6ac"/>
<rect x="13" y="12" width="1" height="1" fill="#abbbc0"/>
<rect x="14" y="12" width="1" height="1" fill="#92a6ac"/>
<rect x="15" y="12" width="1" height="1" fill="#94a7ad"/>
<rect x="16" y="12" width="1" height="1" fill="#95a8ae"/>
<rect x="17" y="12" width="1" height="1" fill="#98abb1"/>
<rect x="18" y="12" width="1" height="1" fill="#b3c2c6"/>
<rect x="19" y="12" width="1" height="1" fill="#9fb1b6"/>
<rect x="20" y="12" width="1" height="1" fill="#acbcc1"/>
<rect x="21" y="12" width="1" height="1" fill="#b0bcc1"/>
<rect x="22" y="12" width="1" height="1" fill="#b9c3c7"/>
<rect x="23" y="12" width="1" height="1" fill="#bec9cc"/>
<rect x="24" y="12" width="1" height="1" fill="#d0d5d7"/>
<rect x="25" y="12" width="1" height="1" fill="#d8dddf"/>
<rect x="26" y="12" width="1" height="1" fill="#dadee0"/>
<rect x="27" y="12" width="1" height="1" fill="#e4e7e9"/>
<rect x="28" y="12" width="1" height="1" fill="#d0d5d7"/>
<rect x="29" y="12" width="1" height="1" fill="#91a7ae"/>
<rect x="1" y="13" width="1" height="1" fill="#899a9f"/>
<rect x="2" y="13" width="1" height="1" fill="#b8c3c7"/>
<rect x="3" y="13" width="1" height="1" fill="#718a93"/>
<rect x="4" y="13" width="1" height="1" fill="#6f8890"/>
<rect x="5" y="13" width="1" height="1" fill="#728b94"/>
<rect x="6" y="13" width="1" height="1" fill="#788e96"/>
<rect x="7" y="13" width="1" height="1" fill="#90a7ae"/>
<rect x="8" y="13" width="1" height="1" fill="#99a9af"/>
<rect x="9" y="13" width="1" height="1" fill="#7d969e"/>
<rect x="10" y="13" width="1" height="1" fill="#84979e"/>
<rect x="11" y="13" width="1" height="1" fill="#869da4"/>
<rect x="12" y="13" width="1" height="1" fill="#8da4ab"/>
<rect x="13" y="13" width="1" height="1" fill="#a9b9be"/>
<rect x="14" y="13" width="1" height="1" fill="#8ea2a8"/>
<rect x="15" y="13" width="1" height="1" fill="#90a6ad"/>
<rect x="16" y="13" width="1" height="1" fill="#94a7ad"/>
<rect x="17" y="13" width="1" height="1" fill="#96a6ac"/>
<rect x="18" y="13" width="1" height="1" fill="#b2c1c5"/>
<rect x="19" y="13" width="1" height="1" fill="#9caeb3"/>
<rect x="20" y="13" width="1" height="1" fill="#9eb0b5"/>
<rect x="21" y="13" width="1" height="1" fill="#abbabe"/>
<rect x="22" y="13" width="1" height="1" fill="#b0bcc1"/>
<rect x="23" y="13" width="1" height="1" fill="#bbc5c9"/>
<rect x="24" y="13" width="1" height="1" fill="#c3cbce"/>
<rect x="25" y="13" width="1" height="1" fill="#cdd6d8"/>
<rect x="26" y="13" width="2" height="1" fill="#d8dddf"/>
<rect x="28" y="13" width="1" height="1" fill="#ced5d8"/>
<rect x="29" y="13" width="1" height="1" fill="#92a4a9"/>
<rect x="1" y="14" width="1" height="1" fill="#88999e"/>
<rect x="2" y="14" width="1" height="1" fill="#b8c3c7"/>
<rect x="3" y="14" width="1" height="1" fill="#a7b8bd"/>
<rect x="4" y="14" width="1" height="1" fill="#a8b9be"/>
<rect x="5" y="14" width="1" height="1" fill="#a9babf"/>
<rect x="6" y="14" width="1" height="1" fill="#a9bbc0"/>
<rect x="7" y="14" width="1" height="1" fill="#b1bfc3"/>
<rect x="8" y="14" width="1" height="1" fill="#b3c0c4"/>
<rect x="9" y="14" width="1" height="1" fill="#acbcc1"/>
<rect x="10" y="14" width="1" height="1" fill="#aebbc0"/>
<rect x="11" y="14" width="1" height="1" fill="#adbdc2"/>
<rect x="12" y="14" width="1" height="1" fill="#b2bdc1"/>
<rect x="13" y="14" width="1" height="1" fill="#b8c2c6"/>
<rect x="14" y="14" width="1" height="1" fill="#b0bdc1"/>
<rect x="15" y="14" width="1" height="1" fill="#b1bdc2"/>
<rect x="16" y="14" width="1" height="1" fill="#b1bfc3"/>
<rect x="17" y="14" width="1" height="1" fill="#b2c0c4"/>
<rect x="18" y="14" width="1" height="1" fill="#bac4c8"/>
<rect x="19" y="14" width="1" height="1" fill="#b3c0c4"/>
<rect x="20" y="14" width="1" height="1" fill="#b4c1c5"/>
<rect x="21" y="14" width="1" height="1" fill="#b4c2c6"/>
<rect x="22" y="14" width="1" height="1" fill="#b8c2c6"/>
<rect x="23" y="14" width="1" height="1" fill="#bcc5c9"/>
<rect x="24" y="14" width="1" height="1" fill="#bbc4c8"/>
<rect x="25" y="14" width="1" height="1" fill="#bcc8cb"/>
<rect x="26" y="14" width="1" height="1" fill="#c0c9cd"/>
<rect x="27" y="14" width="1" height="1" fill="#c2cdd0"/>
<rect x="28" y="14" width="1" height="1" fill="#c4ced1"/>
<rect x="29" y="14" width="1" height="1" fill="#91a3a8"/>
<rect x="1" y="15" width="1" height="1" fill="#85999f"/>
<rect x="2" y="15" width="1" height="1" fill="#b8c3c7"/>
<rect x="3" y="15" width="1" height="1" fill="#6d868f"/>
<rect x="4" y="15" width="1" height="1" fill="#67818b"/>
<rect x="5" y="15" width="1" height="1" fill="#69848e"/>
<rect x="6" y="15" width="1" height="1" fill="#6e878f"/>
<rect x="7" y="15" width="1" height="1" fill="#8da3aa"/>
<rect x="8" y="15" width="1" height="1" fill="#95a8ae"/>
<rect x="9" y="15" width="2" height="1" fill="#7a9098"/>
<rect x="11" y="15" width="1" height="1" fill="#7e939b"/>
<rect x="12" y="15" width="1" height="1" fill="#8aa0a7"/>
<rect x="13" y="15" width="1" height="1" fill="#a7b8bd"/>
<rect x="14" y="15" width="1" height="1" fill="#869da4"/>
<rect x="15" y="15" width="1" height="1" fill="#889ea5"/>
<rect x="16" y="15" width="1" height="1" fill="#8ea1a7"/>
<rect x="17" y="15" width="1" height="1" fill="#8fa5ac"/>
<rect x="18" y="15" width="1" height="1" fill="#b2c0c4"/>
<rect x="19" y="15" width="1" height="1" fill="#94a7ad"/>
<rect x="20" y="15" width="1" height="1" fill="#98a8ae"/>
<rect x="21" y="15" width="1" height="1" fill="#9aadb3"/>
<rect x="22" y="15" width="1" height="1" fill="#9eafb4"/>
<rect x="23" y="15" width="1" height="1" fill="#b8c2c6"/>
<rect x="24" y="15" width="1" height="1" fill="#b0bcc1"/>
<rect x="25" y="15" width="1" height="1" fill="#b4bec2"/>
<rect x="26" y="15" width="1" height="1" fill="#bfcacd"/>
<rect x="27" y="15" width="1" height="1" fill="#cbd2d5"/>
<rect x="28" y="15" width="1" height="1" fill="#c8d0d3"/>
<rect x="29" y="15" width="1" height="1" fill="#8fa2a8"/>
<rect x="1" y="16" width="1" height="1" fill="#85979c"/>
<rect x="2" y="16" width="1" height="1" fill="#b8c3c7"/>
<rect x="3" y="16" width="1" height="1" fill="#67838c"/>
<rect x="4" y="16" width="1" height="1" fill="#65808a"/>
<rect x="5" y="16" width="1" height="1" fill="#67818b"/>
<rect x="6" y="16" width="1" height="1" fill="#68838d"/>
<rect x="7" y="16" width="1" height="1" fill="#8c9ea5"/>
<rect x="8" y="16" width="1" height="1" fill="#90a7ae"/>
<rect x="9" y="16" width="1" height="1" fill="#758f97"/>
<rect x="10" y="16" width="2" height="1" fill="#7a9098"/>
<rect x="12" y="16" width="1" height="1" fill="#879aa1"/>
<rect x="13" y="16" width="1" height="1" fill="#a6b6bb"/>
<rect x="14" y="16" width="1" height="1" fill="#839ca4"/>
<rect x="15" y="16" width="1" height="1" fill="#869da4"/>
<rect x="16" y="16" width="1" height="1" fill="#879ea5"/>
<rect x="17" y="16" width="1" height="1" fill="#8ea1a7"/>
<rect x="18" y="16" width="1" height="1" fill="#b1bfc3"/>
<rect x="19" y="16" width="2" height="1" fill="#94a7ad"/>
<rect x="21" y="16" width="1" height="1" fill="#98a8ae"/>
<rect x="22" y="16" width="1" height="1" fill="#9aacb1"/>
<rect x="23" y="16" width="1" height="1" fill="#b5c2c6"/>
<rect x="24" y="16" width="1" height="1" fill="#a7b3b8"/>
<rect x="25" y="16" width="1" height="1" fill="#b0bcc1"/>
<rect x="26" y="16" width="1" height="1" fill="#b3bcc0"/>
<rect x="27" y="16" width="1" height="1" fill="#bdc9cc"/>
<rect x="28" y="16" width="1" height="1" fill="#c2cbcf"/>
<rect x="29" y="16" width="1" height="1" fill="#8ea1a7"/>
<rect x="1" y="17" width="1" height="1" fill="#869499"/>
<rect x="2" y="17" width="1" height="1" fill="#b8c3c7"/>
<rect x="3" y="17" width="1" height="1" fill="#869aa1"/>
<rect x="4" y="17" width="1" height="1" fill="#839ca4"/>
<rect x="5" y="17" width="1" height="1" fill="#889ba2"/>
<rect x="6" y="17" width="1" height="1" fill="#899ca3"/>
<rect x="7" y="17" width="1" height="1" fill="#9caeb3"/>
<rect x="8" y="17" width="1" height="1" fill="#a0b3b9"/>
<rect x="9" y="17" width="1" height="1" fill="#8da3aa"/>
<rect x="10" y="17" width="1" height="1" fill="#8fa5ac"/>
<rect x="11" y="17" width="1" height="1" fill="#94a7ad"/>
<rect x="12" y="17" width="1" height="1" fill="#99acb2"/>
<rect x="13" y="17" width="1" height="1" fill="#aebbc0"/>
<rect x="14" y="17" width="1" height="1" fill="#97aab0"/>
<rect x="15" y="17" width="1" height="1" fill="#9aacb1"/>
<rect x="16" y="17" width="1" height="1" fill="#9aaeb4"/>
<rect x="17" y="17" width="1" height="1" fill="#9baeb4"/>
<rect x="18" y="17" width="1" height="1" fill="#b5c2c6"/>
<rect x="19" y="17" width="1" height="1" fill="#a0b2b7"/>
<rect x="20" y="17" width="2" height="1" fill="#a3b3b8"/>
<rect x="22" y="17" width="1" height="1" fill="#a6b3b7"/>
<rect x="23" y="17" width="1" height="1" fill="#b7c2c6"/>
<rect x="24" y="17" width="1" height="1" fill="#a7b8bd"/>
<rect x="25" y="17" width="1" height="1" fill="#adbbbf"/>
<rect x="26" y="17" width="2" height="1" fill="#b4c1c5"/>
<rect x="28" y="17" width="1" height="1" fill="#bbc7ca"/>
<rect x="29" y="17" width="1" height="1" fill="#8c9fa6"/>
<rect x="1" y="18" width="1" height="1" fill="#83969c"/>
<rect x="2" y="18" width="1" height="1" fill="#b7c2c6"/>
<rect x="3" y="18" width="1" height="1" fill="#879aa1"/>
<rect x="4" y="18" width="1" height="1" fill="#869aa1"/>
<rect x="5" y="18" width="1" height="1" fill="#889ba2"/>
<rect x="6" y="18" width="1" height="1" fill="#8b9da4"/>
<rect x="7" y="18" width="1" height="1" fill="#9cafb5"/>
<rect x="8" y="18" width="1" height="1" fill="#9fb3b9"/>
<rect x="9" y="18" width="1" height="1" fill="#8da3aa"/>
<rect x="10" y="18" width="1" height="1" fill="#8fa5ac"/>
<rect x="11" y="18" width="1" height="1" fill="#93a7ad"/>
<rect x="12" y="18" width="1" height="1" fill="#9aadb3"/>
<rect x="13" y="18" width="1" height="1" fill="#afbbc0"/>
<rect x="14" y="18" width="1" height="1" fill="#98a8ae"/>
<rect x="15" y="18" width="1" height="1" fill="#98acb2"/>
<rect x="16" y="18" width="1" height="1" fill="#9cacb2"/>
<rect x="17" y="18" width="1" height="1" fill="#9dafb4"/>
<rect x="18" y="18" width="1" height="1" fill="#b5c2c6"/>
<rect x="19" y="18" width="1" height="1" fill="#9eb1b7"/>
<rect x="20" y="18" width="1" height="1" fill="#a1b3b8"/>
<rect x="21" y="18" width="1" height="1" fill="#a5b2b7"/>
<rect x="22" y="18" width="1" height="1" fill="#a7b3b8"/>
<rect x="23" y="18" width="1" height="1" fill="#b7c2c6"/>
<rect x="24" y="18" width="1" height="1" fill="#a6b6bb"/>
<rect x="25" y="18" width="1" height="1" fill="#a9b8bc"/>
<rect x="26" y="18" width="1" height="1" fill="#abbbc0"/>
<rect x="27" y="18" width="1" height="1" fill="#b4c1c5"/>
<rect x="28" y="18" width="1" height="1" fill="#b8c2c6"/>
<rect x="29" y="18" width="1" height="1" fill="#8b9ea5"/>
<rect x="1" y="19" width="1" height="1" fill="#849297"/>
<rect x="2" y="19" width="1" height="1" fill="#b7c2c6"/>
<rect x="3" y="19" width="1" height="1" fill="#5e7c86"/>
<rect x="4" y="19" width="1" height="1" fill="#557681"/>
<rect x="5" y="19" width="1" height="1" fill="#577984"/>
<rect x="6" y="19" width="1" height="1" fill="#5f7a84"/>
<rect x="7" y="19" width="1" height="1" fill="#869aa1"/>
<rect x="8" y="19" width="1" height="1" fill="#8ea1a7"/>
<rect x="9" y="19" width="1" height="1" fill="#67828c"/>
<rect x="10" y="19" width="1" height="1" fill="#6a858f"/>
<rect x="11" y="19" width="1" height="1" fill="#708991"/>
<rect x="12" y="19" width="1" height="1" fill="#7f949c"/>
<rect x="13" y="19" width="1" height="1" fill="#a3b4b9"/>
<rect x="14" y="19" width="1" height="1" fill="#7a9098"/>
<rect x="15" y="19" width="1" height="1" fill="#7c9199"/>
<rect x="16" y="19" width="1" height="1" fill="#7f949c"/>
<rect x="17" y="19" width="1" height="1" fill="#839aa1"/>
<rect x="18" y="19" width="1" height="1" fill="#b0bdc1"/>
<rect x="19" y="19" width="1" height="1" fill="#869da4"/>
<rect x="20" y="19" width="1" height="1" fill="#8a9fa5"/>
<rect x="21" y="19" width="1" height="1" fill="#8fa3a9"/>
<rect x="22" y="19" width="1" height="1" fill="#92a6ac"/>
<rect x="23" y="19" width="1" height="1" fill="#b2c0c4"/>
<rect x="24" y="19" width="1" height="1" fill="#95a8ae"/>
<rect x="25" y="19" width="1" height="1" fill="#98abb1"/>
<rect x="26" y="19" width="1" height="1" fill="#9caeb3"/>
<rect x="27" y="19" width="1" height="1" fill="#9fb1b6"/>
<rect x="28" y="19" width="1" height="1" fill="#b5c2c6"/>
<rect x="29" y="19" width="1" height="1" fill="#899ca3"/>
<rect x="1" y="20" width="1" height="1" fill="#809399"/>
<rect x="2" y="20" width="1" height="1" fill="#b7c2c6"/>
<rect x="3" y="20" width="1" height="1" fill="#587883"/>
<rect x="4" y="20" width="1" height="1" fill="#547580"/>
<rect x="5" y="20" width="1" height="1" fill="#557681"/>
<rect x="6" y="20" width="1" height="1" fill="#587883"/>
<rect x="7" y="20" width="1" height="1" fill="#83979e"/>
<rect x="8" y="20" width="1" height="1" fill="#8b9ea5"/>
<rect x="9" y="20" width="2" height="1" fill="#67818b"/>
<rect x="11" y="20" width="1" height="1" fill="#6a858f"/>
<rect x="12" y="20" width="1" height="1" fill="#7b9199"/>
<rect x="13" y="20" width="1" height="1" fill="#a2b3b8"/>
<rect x="14" y="20" width="1" height="1" fill="#788e96"/>
<rect x="15" y="20" width="1" height="1" fill="#7a9098"/>
<rect x="16" y="20" width="1" height="1" fill="#7b9199"/>
<rect x="17" y="20" width="1" height="1" fill="#7d969e"/>
<rect x="18" y="20" width="1" height="1" fill="#afbcc1"/>
<rect x="19" y="20" width="2" height="1" fill="#869da4"/>
<rect x="21" y="20" width="1" height="1" fill="#899fa6"/>
<rect x="22" y="20" width="1" height="1" fill="#8ea2a8"/>
<rect x="23" y="20" width="1" height="1" fill="#b1bfc3"/>
<rect x="24" y="20" width="1" height="1" fill="#94a7ad"/>
<rect x="25" y="20" width="1" height="1" fill="#96a6ac"/>
<rect x="26" y="20" width="1" height="1" fill="#99a9af"/>
<rect x="27" y="20" width="1" height="1" fill="#9caeb3"/>
<rect x="28" y="20" width="1" height="1" fill="#afbcc1"/>
<rect x="29" y="20" width="1" height="1" fill="#899ba2"/>
<rect x="1" y="21" width="1" height="1" fill="#7f9399"/>
<rect x="2" y="21" width="1" height="1" fill="#b7c2c6"/>
<rect x="3" y="21" width="1" height="1" fill="#a3b3b8"/>
<rect x="4" y="21" width="1" height="1" fill="#a6b4b8"/>
<rect x="5" y="21" width="1" height="1" fill="#a7b4b9"/>
<rect x="6" y="21" width="1" height="1" fill="#a5b6bb"/>
<rect x="7" y="21" width="1" height="1" fill="#aebbc0"/>
<rect x="8" y="21" width="1" height="1" fill="#b0bdc1"/>
<rect x="9" y="21" width="1" height="1" fill="#a7b8bd"/>
<rect x="10" y="21" width="2" height="1" fill="#a9b8bc"/>
<rect x="12" y="21" width="1" height="1" fill="#aabcc1"/>
<rect x="13" y="21" width="1" height="1" fill="#b4c3c7"/>
<rect x="14" y="21" width="1" height="1" fill="#a9bbc0"/>
<rect x="15" y="21" width="1" height="1" fill="#aabcc1"/>
<rect x="16" y="21" width="2" height="1" fill="#acbcc1"/>
<rect x="18" y="21" width="1" height="1" fill="#b8c4c9"/>
<rect x="19" y="21" width="1" height="1" fill="#adbdc2"/>
<rect x="20" y="21" width="1" height="1" fill="#afbcc1"/>
<rect x="21" y="21" width="1" height="1" fill="#b0bcc1"/>
<rect x="22" y="21" width="1" height="1" fill="#b0bdc1"/>
<rect x="23" y="21" width="1" height="1" fill="#bac4c8"/>
<rect x="24" y="21" width="1" height="1" fill="#b1bfc3"/>
<rect x="25" y="21" width="2" height="1" fill="#b2c0c4"/>
<rect x="27" y="21" width="2" height="1" fill="#b3c0c4"/>
<rect x="29" y="21" width="1" height="1" fill="#879ba2"/>
<rect x="1" y="22" width="1" height="1" fill="#7d9299"/>
<rect x="2" y="22" width="1" height="1" fill="#b7c2c6"/>
<rect x="3" y="22" width="1" height="1" fill="#4f707b"/>
<rect x="4" y="22" width="1" height="1" fill="#4a6b77"/>
<rect x="5" y="22" width="1" height="1" fill="#4e6f7a"/>
<rect x="6" y="22" width="1" height="1" fill="#54727d"/>
<rect x="7" y="22" width="1" height="1" fill="#7d949c"/>
<rect x="8" y="22" width="1" height="1" fill="#869aa1"/>
<rect x="9" y="22" width="1" height="1" fill="#5e7983"/>
<rect x="10" y="22" width="1" height="1" fill="#617c86"/>
<rect x="11" y="22" width="1" height="1" fill="#67818b"/>
<rect x="12" y="22" width="1" height="1" fill="#738c95"/>
<rect x="13" y="22" width="1" height="1" fill="#9fb1b6"/>
<rect x="14" y="22" width="1" height="1" fill="#6e878f"/>
<rect x="15" y="22" width="1" height="1" fill="#728a93"/>
<rect x="16" y="22" width="1" height="1" fill="#768f97"/>
<rect x="17" y="22" width="1" height="1" fill="#7a9098"/>
<rect x="18" y="22" width="1" height="1" fill="#acbcc1"/>
<rect x="19" y="22" width="1" height="1" fill="#7e939b"/>
<rect x="20" y="22" width="1" height="1" fill="#83969d"/>
<rect x="21" y="22" width="1" height="1" fill="#859ca3"/>
<rect x="22" y="22" width="1" height="1" fill="#869da4"/>
<rect x="23" y="22" width="1" height="1" fill="#b0bdc1"/>
<rect x="24" y="22" width="1" height="1" fill="#8ea1a7"/>
<rect x="25" y="22" width="1" height="1" fill="#8fa5ac"/>
<rect x="26" y="22" width="1" height="1" fill="#98a8ae"/>
<rect x="27" y="22" width="1" height="1" fill="#abbcc1"/>
<rect x="28" y="22" width="1" height="1" fill="#bbc7ca"/>
<rect x="29" y="22" width="1" height="1" fill="#859aa2"/>
<rect x="1" y="23" width="1" height="1" fill="#7e8e94"/>
<rect x="2" y="23" width="1" height="1" fill="#b6c2c7"/>
<rect x="3" y="23" width="1" height="1" fill="#4f707b"/>
<rect x="4" y="23" width="1" height="1" fill="#456975"/>
<rect x="5" y="23" width="1" height="1" fill="#4a6b77"/>
<rect x="6" y="23" width="1" height="1" fill="#4f6d78"/>
<rect x="7" y="23" width="1" height="1" fill="#7d929a"/>
<rect x="8" y="23" width="1" height="1" fill="#859aa2"/>
<rect x="9" y="23" width="1" height="1" fill="#557782"/>
<rect x="10" y="23" width="1" height="1" fill="#5b7a84"/>
<rect x="11" y="23" width="1" height="1" fill="#617c86"/>
<rect x="12" y="23" width="1" height="1" fill="#738b94"/>
<rect x="13" y="23" width="1" height="1" fill="#9eb0b5"/>
<rect x="14" y="23" width="1" height="1" fill="#68838d"/>
<rect x="15" y="23" width="1" height="1" fill="#6d868f"/>
<rect x="16" y="23" width="1" height="1" fill="#718992"/>
<rect x="17" y="23" width="1" height="1" fill="#758f97"/>
<rect x="18" y="23" width="1" height="1" fill="#acbcc1"/>
<rect x="19" y="23" width="1" height="1" fill="#7a9098"/>
<rect x="20" y="23" width="1" height="1" fill="#7d929a"/>
<rect x="21" y="23" width="1" height="1" fill="#82969d"/>
<rect x="22" y="23" width="1" height="1" fill="#839ca4"/>
<rect x="23" y="23" width="1" height="1" fill="#b0bdc1"/>
<rect x="24" y="23" width="1" height="1" fill="#879ea5"/>
<rect x="25" y="23" width="1" height="1" fill="#9db0b6"/>
<rect x="26" y="23" width="1" height="1" fill="#b8c3c7"/>
<rect x="27" y="23" width="2" height="1" fill="#bbc7ca"/>
<rect x="29" y="23" width="1" height="1" fill="#85989f"/>
<rect x="1" y="24" width="1" height="1" fill="#7b9096"/>
<rect x="2" y="24" width="1" height="1" fill="#b6c2c7"/>
<rect x="3" y="24" width="1" height="1" fill="#7c939b"/>
<rect x="4" y="24" width="1" height="1" fill="#7b9098"/>
<rect x="5" y="24" width="1" height="1" fill="#7b9199"/>
<rect x="6" y="24" width="1" height="1" fill="#7d929a"/>
<rect x="7" y="24" width="1" height="1" fill="#8ea2a8"/>
<rect x="8" y="24" width="1" height="1" fill="#91a7ae"/>
<rect x="9" y="24" width="2" height="1" fill="#84989f"/>
<rect x="11" y="24" width="1" height="1" fill="#869aa1"/>
<rect x="12" y="24" width="1" height="1" fill="#8ba2a9"/>
<rect x="13" y="24" width="1" height="1" fill="#a0b2b7"/>
<rect x="14" y="24" width="1" height="1" fill="#8c9ea5"/>
<rect x="15" y="24" width="1" height="1" fill="#8ba2a9"/>
<rect x="16" y="24" width="1" height="1" fill="#8fa2a8"/>
<rect x="17" y="24" width="1" height="1" fill="#91a5ab"/>
<rect x="18" y="24" width="1" height="1" fill="#a7b8bd"/>
<rect x="19" y="24" width="2" height="1" fill="#95a9af"/>
<rect x="21" y="24" width="1" height="1" fill="#97aab0"/>
<rect x="22" y="24" width="1" height="1" fill="#99acb2"/>
<rect x="23" y="24" width="1" height="1" fill="#acbcc1"/>
<rect x="24" y="24" width="1" height="1" fill="#b0bcc1"/>
<rect x="25" y="24" width="4" height="1" fill="#bbc7ca"/>
<rect x="29" y="24" width="1" height="1" fill="#83979e"/>
<rect x="1" y="25" width="1" height="1" fill="#7a8f96"/>
<rect x="2" y="25" width="1" height="1" fill="#a1b3b8"/>
<rect x="3" y="25" width="26" height="1" fill="#a9babf"/>
<rect x="29" y="25" width="1" height="1" fill="#728b94"/>
<rect x="1" y="26" width="1" height="1" fill="#778f97"/>
<rect x="2" y="26" width="27" height="1" fill="#4a6a76"/>
<rect x="29" y="26" width="1" height="1" fill="#4b6c77"/>
<rect x="1" y="27" width="1" height="1" fill="#778d94"/>
<rect x="2" y="27" width="27" height="1" fill="#456975"/>
<rect x="29" y="27" width="1" height="1" fill="#466a76"/>
<rect x="1" y="28" width="1" height="1" fill="#788d94"/>
<rect x="2" y="28" width="27" height="1" fill="#426774"/>
<rect x="29" y="28" width="1" height="1" fill="#446875"/>
<rect x="2" y="29" width="27" height="1" fill="#99a6aa"/>
<rect x="29" y="29" width="1" height="1" fill="#a7afb2"/>
</svg>