<svg xmlns="http://www.w3.org/2000/svg" width="32" height="32" viewBox="0 0 32 32" shape-rendering="crispEdges">
<rect x="14" y="1" width="1" height="1" fill="#9aaaaf"/>
<rect x="15" y="1" width="1" height="1" fill="#8ba1a8"/>
<rect x="16" y="1" width="1" height="1" fill="#8ea2a8"/>
<rect x="17" y="1" width="1" height="1" fill="#91a4aa"/>
<rect x="9" y="2" width="1" height="1" fill="#95a6ab"/>
<rect x="10" y="2" width="1" height="1" fill="#8ea0a5"/>
<rect x="14" y="2" width="1" height="1" fill="#8d9da3"/>
<rect x="15" y="2" width="1" height="1" fill="#8d9ea4"/>
<rect x="16" y="2" width="1" height="1" fill="#8ea2a8"/>
<rect x="17" y="2" width="1" height="1" fill="#90a3a9"/>
<rect x="22" y="2" width="1" height="1" fill="#9baeb4"/>
<rect x="23" y="2" width="1" height="1" fill="#d1d6d7"/>
<rect x="8" y="3" width="1" height="1" fill="#7c959d"/>
<rect x="9" y="3" width="1" height="1" fill="#7f949c"/>
<rect x="10" y="3" width="1" height="1" fill="#82959c"/>
<rect x="11" y="3" width="1" height="1" fill="#93a6ac"/>
<rect x="14" y="3" width="1" height="1" fill="#889ea5"/>
<rect x="15" y="3" width="1" height="1" fill="#8d9ea4"/>
<rect x="16" y="3" width="1" height="1" fill="#8ea2a8"/>
<rect x="17" y="3" width="1" height="1" fill="#90a4aa"/>
<rect x="18" y="3" width="1" height="1" fill="#a0adb2"/>
<rect x="21" y="3" width="1" height="1" fill="#99a9af"/>
<rect x="22" y="3" width="1" height="1" fill="#b4c1c5"/>
<rect x="23" y="3" width="1" height="1" fill="#c9d0d3"/>
<rect x="24" y="3" width="1" height="1" fill="#a1b1b6"/>
<rect x="7" y="4" width="1" height="1" fill="#97a7ac"/>
<rect x="8" y="4" width="1" height="1" fill="#7c9199"/>
<rect x="9" y="4" width="1" height="1" fill="#7e939b"/>
<rect x="10" y="4" width="1" height="1" fill="#81949b"/>
<rect x="11" y="4" width="1" height="1" fill="#83969d"/>
<rect x="12" y="4" width="1" height="1" fill="#86989f"/>
<rect x="13" y="4" width="1" height="1" fill="#869ca3"/>
<rect x="14" y="4" width="1" height="1" fill="#889ea5"/>
<rect x="15" y="4" width="1" height="1" fill="#8aa0a7"/>
<rect x="16" y="4" width="1" height="1" fill="#8ea2a8"/>
<rect x="17" y="4" width="1" height="1" fill="#90a4aa"/>
<rect x="18" y="4" width="1" height="1" fill="#92a6ac"/>
<rect x="19" y="4" width="1" height="1" fill="#94a7ad"/>
<rect x="20" y="4" width="1" height="1" fill="#98a8ae"/>
<rect x="21" y="4" width="1" height="1" fill="#98abb1"/>
<rect x="22" y="4" width="1" height="1" fill="#d5dcde"/>
<rect x="23" y="4" width="1" height="1" fill="#9dafb4"/>
<rect x="24" y="4" width="1" height="1" fill="#99a9af"/>
<rect x="8" y="5" width="1" height="1" fill="#7b9199"/>
<rect x="9" y="5" width="1" height="1" fill="#7d929a"/>
<rect x="10" y="5" width="1" height="1" fill="#7f949c"/>
<rect x="11" y="5" width="1" height="1" fill="#82959c"/>
<rect x="12" y="5" width="1" height="1" fill="#85979e"/>
<rect x="13" y="5" width="1" height="1" fill="#859ca3"/>
<rect x="14" y="5" width="1" height="1" fill="#879da4"/>
<rect x="15" y="5" width="1" height="1" fill="#8c9da3"/>
<rect x="16" y="5" width="1" height="1" fill="#8ea2a8"/>
<rect x="17" y="5" width="1" height="1" fill="#90a4aa"/>
<rect x="18" y="5" width="1" height="1" fill="#92a6ac"/>
<rect x="19" y="5" width="1" height="1" fill="#95a7ac"/>
<rect x="20" y="5" width="1" height="1" fill="#99a9af"/>
<rect x="21" y="5" width="1" height="1" fill="#b9c4c8"/>
<rect x="22" y="5" width="1" height="1" fill="#b9c3c7"/>
<rect x="23" y="5" width="1" height="1" fill="#99a9af"/>
<rect x="8" y="6" width="1" height="1" fill="#7b8f96"/>
<rect x="9" y="6" width="1" height="1" fill="#7b9199"/>
<rect x="10" y="6" width="1" height="1" fill="#7d929a"/>
<rect x="11" y="6" width="1" height="1" fill="#81949b"/>
<rect x="12" y="6" width="1" height="1" fill="#839ca4"/>
<rect x="13" y="6" width="1" height="1" fill="#90a3a9"/>
<rect x="14" y="6" width="1" height="1" fill="#94a7ad"/>
<rect x="15" y="6" width="1" height="1" fill="#99a9af"/>
<rect x="16" y="6" width="1" height="1" fill="#97abb1"/>
<rect x="17" y="6" width="1" height="1" fill="#99a9af"/>
<rect x="18" y="6" width="1" height="1" fill="#97aab0"/>
<rect x="19" y="6" width="1" height="1" fill="#97a9ae"/>
<rect x="20" y="6" width="1" height="1" fill="#98abb1"/>
<rect x="21" y="6" width="1" height="1" fill="#ced6d8"/>
<rect x="22" y="6" width="1" height="1" fill="#98abb1"/>
<rect x="23" y="6" width="1" height="1" fill="#98a8ae"/>
<rect x="4" y="7" width="1" height="1" fill="#738b94"/>
<rect x="5" y="7" width="1" height="1" fill="#7a8f97"/>
<rect x="6" y="7" width="1" height="1" fill="#9aa7ac"/>
<rect x="7" y="7" width="1" height="1" fill="#869aa0"/>
<rect x="8" y="7" width="2" height="1" fill="#7b8f96"/>
<rect x="10" y="7" width="1" height="1" fill="#7e939b"/>
<rect x="11" y="7" width="1" height="1" fill="#90a4aa"/>
<rect x="12" y="7" width="8" height="1" fill="#99acb2"/>
<rect x="20" y="7" width="1" height="1" fill="#9db0b6"/>
<rect x="21" y="7" width="1" height="1" fill="#a3b3b8"/>
<rect x="22" y="7" width="1" height="1" fill="#98a8ae"/>
<rect x="23" y="7" width="1" height="1" fill="#95a7ac"/>
<rect x="24" y="7" width="1" height="1" fill="#94a7ad"/>
<rect x="26" y="7" width="1" height="1" fill="#a0adb2"/>
<rect x="27" y="7" width="1" height="1" fill="#91a5ab"/>
<rect x="28" y="7" width="1" height="1" fill="#99a9ae"/>
<rect x="3" y="8" width="1" height="1" fill="#778b92"/>
<rect x="4" y="8" width="1" height="1" fill="#718992"/>
<rect x="5" y="8" width="1" height="1" fill="#728a93"/>
<rect x="6" y="8" width="1" height="1" fill="#758b93"/>
<rect x="7" y="8" width="1" height="1" fill="#778c94"/>
<rect x="8" y="8" width="1" height="1" fill="#798e96"/>
<rect x="9" y="8" width="1" height="1" fill="#82959c"/>
<rect x="10" y="8" width="1" height="1" fill="#98a8ae"/>
<rect x="11" y="8" width="11" height="1" fill="#99acb2"/>
<rect x="22" y="8" width="1" height="1" fill="#99a9af"/>
<rect x="23" y="8" width="1" height="1" fill="#94a7ad"/>
<rect x="24" y="8" width="1" height="1" fill="#93a7ad"/>
<rect x="25" y="8" width="1" height="1" fill="#91a5ab"/>
<rect x="26" y="8" width="1" height="1" fill="#90a4aa"/>
<rect x="27" y="8" width="1" height="1" fill="#90a3a9"/>
<rect x="28" y="8" width="1" height="1" fill="#8fa2a8"/>
<rect x="2" y="9" width="1" height="1" fill="#a4acaf"/>
<rect x="3" y="9" width="1" height="1" fill="#6e8790"/>
<rect x="4" y="9" width="1" height="1" fill="#6f8891"/>
<rect x="5" y="9" width="1" height="1" fill="#708891"/>
<rect x="6" y="9" width="1" height="1" fill="#728a93"/>
<rect x="7" y="9" width="1" height="1" fill="#738b94"/>
<rect x="8" y="9" width="1" height="1" fill="#7d9198"/>
<rect x="9" y="9" width="1" height="1" fill="#99a9af"/>
<rect x="10" y="9" width="4" height="1" fill="#99acb2"/>
<rect x="14" y="9" width="1" height="1" fill="#99a9af"/>
<rect x="15" y="9" width="1" height="1" fill="#8ea1a7"/>
<rect x="16" y="9" width="1" height="1" fill="#889ea5"/>
<rect x="17" y="9" width="1" height="1" fill="#91a7ae"/>
<rect x="18" y="9" width="5" height="1" fill="#99acb2"/>
<rect x="23" y="9" width="1" height="1" fill="#97aab0"/>
<rect x="24" y="9" width="1" height="1" fill="#91a5ab"/>
<rect x="25" y="9" width="1" height="1" fill="#90a4aa"/>
<rect x="26" y="9" width="1" height="1" fill="#8fa2a8"/>
<rect x="27" y="9" width="1" height="1" fill="#8ea2a8"/>
<rect x="28" y="9" width="1" height="1" fill="#8ea1a7"/>
<rect x="29" y="9" width="1" height="1" fill="#8fa2a8"/>
<rect x="3" y="10" width="1" height="1" fill="#82969c"/>
<rect x="4" y="10" width="1" height="1" fill="#6d868f"/>
<rect x="5" y="10" width="1" height="1" fill="#6e8790"/>
<rect x="6" y="10" width="1" height="1" fill="#6f8891"/>
<rect x="7" y="10" width="1" height="1" fill="#728a93"/>
<rect x="8" y="10" width="1" height="1" fill="#93a6ad"/>
<rect x="9" y="10" width="3" height="1" fill="#99acb2"/>
<rect x="12" y="10" width="1" height="1" fill="#94a7ae"/>
<rect x="13" y="10" width="1" height="1" fill="#6a858f"/>
<rect x="14" y="10" width="1" height="1" fill="#456975"/>
<rect x="15" y="10" width="3" height="1" fill="#40636f"/>
<rect x="18" y="10" width="1" height="1" fill="#547681"/>
<rect x="19" y="10" width="1" height="1" fill="#85989f"/>
<rect x="20" y="10" width="4" height="1" fill="#99acb2"/>
<rect x="24" y="10" width="1" height="1" fill="#93a7ad"/>
<rect x="25" y="10" width="1" height="1" fill="#8ea2a8"/>
<rect x="26" y="10" width="1" height="1" fill="#8ea1a7"/>
<rect x="27" y="10" width="1" height="1" fill="#8d9ea4"/>
<rect x="28" y="10" width="1" height="1" fill="#8c9da3"/>
<rect x="4" y="11" width="1" height="1" fill="#869ca3"/>
<rect x="5" y="11" width="1" height="1" fill="#6c858e"/>
<rect x="6" y="11" width="1" height="1" fill="#6d868f"/>
<rect x="7" y="11" width="1" height="1" fill="#8199a1"/>
<rect x="8" y="11" width="3" height="1" fill="#99acb2"/>
<rect x="11" y="11" width="1" height="1" fill="#8fa5ac"/>
<rect x="12" y="11" width="1" height="1" fill="#4e6f7a"/>
<rect x="13" y="11" width="7" height="1" fill="#40636f"/>
<rect x="20" y="11" width="1" height="1" fill="#738b94"/>
<rect x="21" y="11" width="3" height="1" fill="#99acb2"/>
<rect x="24" y="11" width="1" height="1" fill="#98abb1"/>
<rect x="25" y="11" width="1" height="1" fill="#8d9ea4"/>
<rect x="26" y="11" width="1" height="1" fill="#8c9da3"/>
<rect x="27" y="11" width="1" height="1" fill="#889ea5"/>
<rect x="4" y="12" width="1" height="1" fill="#90a0a5"/>
<rect x="5" y="12" width="1" height="1" fill="#6a838c"/>
<rect x="6" y="12" width="1" height="1" fill="#6a848e"/>
<rect x="7" y="12" width="1" height="1" fill="#93a6ad"/>
<rect x="8" y="12" width="2" height="1" fill="#99acb2"/>
<rect x="10" y="12" width="1" height="1" fill="#98acb2"/>
<rect x="11" y="12" width="1" height="1" fill="#547580"/>
<rect x="12" y="12" width="9" height="1" fill="#40636f"/>
<rect x="21" y="12" width="1" height="1" fill="#83979e"/>
<rect x="22" y="12" width="3" height="1" fill="#99acb2"/>
<rect x="25" y="12" width="1" height="1" fill="#8fa3a9"/>
<rect x="26" y="12" width="1" height="1" fill="#879da4"/>
<rect x="27" y="12" width="1" height="1" fill="#869ca3"/>
<rect x="3" y="13" width="1" height="1" fill="#9aa7ab"/>
<rect x="4" y="13" width="1" height="1" fill="#6d858e"/>
<rect x="5" y="13" width="1" height="1" fill="#68828c"/>
<rect x="6" y="13" width="1" height="1" fill="#708992"/>
<rect x="7" y="13" width="3" height="1" fill="#99acb2"/>
<rect x="10" y="13" width="1" height="1" fill="#7f949c"/>
<rect x="11" y="13" width="10" height="1" fill="#40636f"/>
<rect x="21" y="13" width="1" height="1" fill="#50717d"/>
<rect x="22" y="13" width="3" height="1" fill="#99acb2"/>
<rect x="25" y="13" width="1" height="1" fill="#93a7ad"/>
<rect x="26" y="13" width="1" height="1" fill="#859ca3"/>
<rect x="27" y="13" width="1" height="1" fill="#86989f"/>
<rect x="28" y="13" width="1" height="1" fill="#96a7ac"/>
<rect x="1" y="14" width="1" height="1" fill="#708c95"/>
<rect x="2" y="14" width="1" height="1" fill="#637f88"/>
<rect x="3" y="14" width="1" height="1" fill="#617f89"/>
<rect x="4" y="14" width="2" height="1" fill="#637f88"/>
<rect x="6" y="14" width="1" height="1" fill="#798f97"/>
<rect x="7" y="14" width="3" height="1" fill="#99acb2"/>
<rect x="10" y="14" width="1" height="1" fill="#617f89"/>
<rect x="11" y="14" width="11" height="1" fill="#40636f"/>
<rect x="22" y="14" width="1" height="1" fill="#8fa3a9"/>
<rect x="23" y="14" width="2" height="1" fill="#99acb2"/>
<rect x="25" y="14" width="1" height="1" fill="#96a9af"/>
<rect x="26" y="14" width="1" height="1" fill="#84979e"/>
<rect x="27" y="14" width="1" height="1" fill="#85969c"/>
<rect x="28" y="14" width="3" height="1" fill="#83969d"/>
<rect x="1" y="15" width="1" height="1" fill="#6a838c"/>
<rect x="2" y="15" width="4" height="1" fill="#617c86"/>
<rect x="6" y="15" width="1" height="1" fill="#7d9198"/>
<rect x="7" y="15" width="3" height="1" fill="#99acb2"/>
<rect x="10" y="15" width="1" height="1" fill="#547681"/>
<rect x="11" y="15" width="11" height="1" fill="#40636f"/>
<rect x="22" y="15" width="1" height="1" fill="#85989f"/>
<rect x="23" y="15" width="2" height="1" fill="#99acb2"/>
<rect x="25" y="15" width="1" height="1" fill="#97abb1"/>
<rect x="26" y="15" width="4" height="1" fill="#81949b"/>
<rect x="30" y="15" width="1" height="1" fill="#81959c"/>
<rect x="1" y="16" width="1" height="1" fill="#6a848e"/>
<rect x="2" y="16" width="3" height="1" fill="#5d7c86"/>
<rect x="5" y="16" width="1" height="1" fill="#5f7a84"/>
<rect x="6" y="16" width="1" height="1" fill="#7a8f97"/>
<rect x="7" y="16" width="3" height="1" fill="#99acb2"/>
<rect x="10" y="16" width="1" height="1" fill="#567883"/>
<rect x="11" y="16" width="11" height="1" fill="#40636f"/>
<rect x="22" y="16" width="1" height="1" fill="#869ca3"/>
<rect x="23" y="16" width="2" height="1" fill="#99acb2"/>
<rect x="25" y="16" width="1" height="1" fill="#97aab0"/>
<rect x="26" y="16" width="3" height="1" fill="#7d929a"/>
<rect x="29" y="16" width="2" height="1" fill="#7e939b"/>
<rect x="1" y="17" width="1" height="1" fill="#8c9da2"/>
<rect x="2" y="17" width="1" height="1" fill="#688089"/>
<rect x="3" y="17" width="1" height="1" fill="#5c7a84"/>
<rect x="4" y="17" width="2" height="1" fill="#5c7982"/>
<rect x="6" y="17" width="1" height="1" fill="#6f8891"/>
<rect x="7" y="17" width="3" height="1" fill="#99acb2"/>
<rect x="10" y="17" width="1" height="1" fill="#6c858e"/>
<rect x="11" y="17" width="10" height="1" fill="#40636f"/>
<rect x="21" y="17" width="1" height="1" fill="#416470"/>
<rect x="22" y="17" width="1" height="1" fill="#95a8ae"/>
<rect x="23" y="17" width="2" height="1" fill="#99acb2"/>
<rect x="25" y="17" width="1" height="1" fill="#93a7ad"/>
<rect x="26" y="17" width="2" height="1" fill="#7a9098"/>
<rect x="28" y="17" width="2" height="1" fill="#7b9199"/>
<rect x="30" y="17" width="1" height="1" fill="#869ca3"/>
<rect x="4" y="18" width="1" height="1" fill="#6f8890"/>
<rect x="5" y="18" width="1" height="1" fill="#577782"/>
<rect x="6" y="18" width="1" height="1" fill="#5e7983"/>
<rect x="7" y="18" width="1" height="1" fill="#9aaab0"/>
<rect x="8" y="18" width="2" height="1" fill="#99acb2"/>
<rect x="10" y="18" width="1" height="1" fill="#8ea1a7"/>
<rect x="11" y="18" width="1" height="1" fill="#416470"/>
<rect x="12" y="18" width="9" height="1" fill="#40636f"/>
<rect x="21" y="18" width="1" height="1" fill="#627d87"/>
<rect x="22" y="18" width="3" height="1" fill="#99acb2"/>
<rect x="25" y="18" width="1" height="1" fill="#8aa0a7"/>
<rect x="26" y="18" width="1" height="1" fill="#798e96"/>
<rect x="27" y="18" width="1" height="1" fill="#7a8e95"/>
<rect x="4" y="19" width="1" height="1" fill="#8c9da2"/>
<rect x="5" y="19" width="1" height="1" fill="#557580"/>
<rect x="6" y="19" width="1" height="1" fill="#537580"/>
<rect x="7" y="19" width="1" height="1" fill="#879da4"/>
<rect x="8" y="19" width="3" height="1" fill="#99acb2"/>
<rect x="11" y="19" width="1" height="1" fill="#6d868f"/>
<rect x="12" y="19" width="8" height="1" fill="#40636f"/>
<rect x="20" y="19" width="1" height="1" fill="#486a77"/>
<rect x="21" y="19" width="1" height="1" fill="#8fa5ac"/>
<rect x="22" y="19" width="3" height="1" fill="#99acb2"/>
<rect x="25" y="19" width="1" height="1" fill="#7c929a"/>
<rect x="26" y="19" width="1" height="1" fill="#758b93"/>
<rect x="27" y="19" width="1" height="1" fill="#778c94"/>
<rect x="3" y="20" width="1" height="1" fill="#a4adb1"/>
<rect x="4" y="20" width="1" height="1" fill="#537580"/>
<rect x="5" y="20" width="1" height="1" fill="#53717c"/>
<rect x="6" y="20" width="1" height="1" fill="#50717d"/>
<rect x="7" y="20" width="1" height="1" fill="#62818b"/>
<rect x="8" y="20" width="3" height="1" fill="#99acb2"/>
<rect x="11" y="20" width="1" height="1" fill="#9aaab0"/>
<rect x="12" y="20" width="1" height="1" fill="#6b8790"/>
<rect x="13" y="20" width="6" height="1" fill="#40636f"/>
<rect x="19" y="20" width="1" height="1" fill="#4d6e79"/>
<rect x="20" y="20" width="1" height="1" fill="#8ba1a8"/>
<rect x="21" y="20" width="3" height="1" fill="#99acb2"/>
<rect x="24" y="20" width="1" height="1" fill="#8ea4ab"/>
<rect x="25" y="20" width="1" height="1" fill="#708891"/>
<rect x="26" y="20" width="1" height="1" fill="#728a93"/>
<rect x="27" y="20" width="1" height="1" fill="#738b94"/>
<rect x="28" y="20" width="1" height="1" fill="#889ca2"/>
<rect x="2" y="21" width="1" height="1" fill="#a0aaae"/>
<rect x="3" y="21" width="1" height="1" fill="#53717c"/>
<rect x="4" y="21" width="1" height="1" fill="#50717d"/>
<rect x="5" y="21" width="1" height="1" fill="#4f6f7b"/>
<rect x="6" y="21" width="1" height="1" fill="#4e6f7a"/>
<rect x="7" y="21" width="1" height="1" fill="#4d6e79"/>
<rect x="8" y="21" width="1" height="1" fill="#7e939b"/>
<rect x="9" y="21" width="4" height="1" fill="#99acb2"/>
<rect x="13" y="21" width="1" height="1" fill="#899fa6"/>
<rect x="14" y="21" width="1" height="1" fill="#68828c"/>
<rect x="15" y="21" width="1" height="1" fill="#53727e"/>
<rect x="16" y="21" width="1" height="1" fill="#4e6f7a"/>
<rect x="17" y="21" width="1" height="1" fill="#5b7983"/>
<rect x="18" y="21" width="1" height="1" fill="#798e96"/>
<rect x="19" y="21" width="1" height="1" fill="#97aab0"/>
<rect x="20" y="21" width="3" height="1" fill="#99acb2"/>
<rect x="23" y="21" width="1" height="1" fill="#99a9af"/>
<rect x="24" y="21" width="1" height="1" fill="#728b94"/>
<rect x="25" y="21" width="1" height="1" fill="#6e8790"/>
<rect x="26" y="21" width="1" height="1" fill="#6f8891"/>
<rect x="27" y="21" width="1" height="1" fill="#718992"/>
<rect x="28" y="21" width="1" height="1" fill="#728a93"/>
<rect x="29" y="21" width="1" height="1" fill="#83989f"/>
<rect x="3" y="22" width="1" height="1" fill="#4f6f7b"/>
<rect x="4" y="22" width="1" height="1" fill="#4e6f7a"/>
<rect x="5" y="22" width="2" height="1" fill="#4d6e79"/>
<rect x="7" y="22" width="1" height="1" fill="#4b6c77"/>
<rect x="8" y="22" width="1" height="1" fill="#4a6d79"/>
<rect x="9" y="22" width="1" height="1" fill="#869da4"/>
<rect x="10" y="22" width="12" height="1" fill="#99acb2"/>
<rect x="22" y="22" width="1" height="1" fill="#98abb1"/>
<rect x="23" y="22" width="1" height="1" fill="#7b8e95"/>
<rect x="24" y="22" width="1" height="1" fill="#6a848e"/>
<rect x="25" y="22" width="1" height="1" fill="#6c858e"/>
<rect x="26" y="22" width="1" height="1" fill="#6d868f"/>
<rect x="27" y="22" width="1" height="1" fill="#6f8891"/>
<rect x="28" y="22" width="1" height="1" fill="#708891"/>
<rect x="29" y="22" width="1" height="1" fill="#82979e"/>
<rect x="3" y="23" width="1" height="1" fill="#6c848d"/>
<rect x="4" y="23" width="1" height="1" fill="#4d6e79"/>
<rect x="5" y="23" width="1" height="1" fill="#4e6c77"/>
<rect x="6" y="23" width="1" height="1" fill="#4b6c77"/>
<rect x="7" y="23" width="2" height="1" fill="#486a77"/>
<rect x="9" y="23" width="1" height="1" fill="#476b77"/>
<rect x="10" y="23" width="1" height="1" fill="#7b959d"/>
<rect x="11" y="23" width="10" height="1" fill="#99acb2"/>
<rect x="21" y="23" width="1" height="1" fill="#94a7ae"/>
<rect x="22" y="23" width="1" height="1" fill="#758b93"/>
<rect x="23" y="23" width="1" height="1" fill="#69838b"/>
<rect x="24" y="23" width="1" height="1" fill="#6a838c"/>
<rect x="25" y="23" width="1" height="1" fill="#6a848e"/>
<rect x="26" y="23" width="1" height="1" fill="#6c858e"/>
<rect x="27" y="23" width="1" height="1" fill="#6d868f"/>
<rect x="28" y="23" width="1" height="1" fill="#6e8790"/>
<rect x="4" y="24" width="1" height="1" fill="#69838b"/>
<rect x="5" y="24" width="1" height="1" fill="#9aa7ab"/>
<rect x="7" y="24" width="1" height="1" fill="#94a4a9"/>
<rect x="8" y="24" width="1" height="1" fill="#456975"/>
<rect x="9" y="24" width="1" height="1" fill="#446774"/>
<rect x="10" y="24" width="1" height="1" fill="#416470"/>
<rect x="11" y="24" width="1" height="1" fill="#5b7983"/>
<rect x="12" y="24" width="1" height="1" fill="#869da4"/>
<rect x="13" y="24" width="6" height="1" fill="#99acb2"/>
<rect x="19" y="24" width="1" height="1" fill="#95a9af"/>
<rect x="20" y="24" width="1" height="1" fill="#81959c"/>
<rect x="21" y="24" width="1" height="1" fill="#62818b"/>
<rect x="22" y="24" width="1" height="1" fill="#637f88"/>
<rect x="23" y="24" width="1" height="1" fill="#67818b"/>
<rect x="24" y="24" width="1" height="1" fill="#768b93"/>
<rect x="27" y="24" width="1" height="1" fill="#889ca2"/>
<rect x="28" y="24" width="1" height="1" fill="#91a1a6"/>
<rect x="8" y="25" width="1" height="1" fill="#456975"/>
<rect x="9" y="25" width="1" height="1" fill="#426774"/>
<rect x="10" y="25" width="2" height="1" fill="#40636f"/>
<rect x="12" y="25" width="1" height="1" fill="#426774"/>
<rect x="13" y="25" width="1" height="1" fill="#526f7a"/>
<rect x="14" y="25" width="1" height="1" fill="#68848d"/>
<rect x="15" y="25" width="1" height="1" fill="#738c95"/>
<rect x="16" y="25" width="1" height="1" fill="#788f98"/>
<rect x="17" y="25" width="1" height="1" fill="#738b94"/>
<rect x="18" y="25" width="1" height="1" fill="#68838d"/>
<rect x="19" y="25" width="1" height="1" fill="#5c7a84"/>
<rect x="20" y="25" width="1" height="1" fill="#5c7b85"/>
<rect x="21" y="25" width="1" height="1" fill="#607b85"/>
<rect x="22" y="25" width="1" height="1" fill="#607e88"/>
<rect x="23" y="25" width="1" height="1" fill="#637f88"/>
<rect x="24" y="25" width="1" height="1" fill="#97a7ac"/>
<rect x="7" y="26" width="1" height="1" fill="#a4acaf"/>
<rect x="8" y="26" width="1" height="1" fill="#426774"/>
<rect x="9" y="26" width="2" height="1" fill="#40636f"/>
<rect x="11" y="26" width="1" height="1" fill="#416470"/>
<rect x="12" y="26" width="1" height="1" fill="#446774"/>
<rect x="13" y="26" width="1" height="1" fill="#476976"/>
<rect x="14" y="26" width="1" height="1" fill="#4a6a76"/>
<rect x="15" y="26" width="1" height="1" fill="#4d6e79"/>
<rect x="16" y="26" width="1" height="1" fill="#4f6f7b"/>
<rect x="17" y="26" width="1" height="1" fill="#54727d"/>
<rect x="18" y="26" width="1" height="1" fill="#547681"/>
<rect x="19" y="26" width="1" height="1" fill="#587883"/>
<rect x="20" y="26" width="1" height="1" fill="#5b7a84"/>
<rect x="21" y="26" width="1" height="1" fill="#5d7c86"/>
<rect x="22" y="26" width="1" height="1" fill="#617c86"/>
<rect x="23" y="26" width="1" height="1" fill="#617f89"/>
<rect x="24" y="26" width="1" height="1" fill="#6e8790"/>
<rect x="7" y="27" width="1" height="1" fill="#718a92"/>
<rect x="8" y="27" width="1" height="1" fill="#416470"/>
<rect x="9" y="27" width="2" height="1" fill="#40636f"/>
<rect x="11" y="27" width="1" height="1" fill="#426774"/>
<rect x="12" y="27" width="1" height="1" fill="#7d9197"/>
<rect x="13" y="27" width="1" height="1" fill="#5e7b84"/>
<rect x="14" y="27" width="1" height="1" fill="#4b6c77"/>
<rect x="15" y="27" width="1" height="1" fill="#4d6e79"/>
<rect x="16" y="27" width="1" height="1" fill="#4f6f7b"/>
<rect x="17" y="27" width="1" height="1" fill="#53717c"/>
<rect x="18" y="27" width="1" height="1" fill="#5b7a84"/>
<rect x="19" y="27" width="1" height="1" fill="#81959b"/>
<rect x="20" y="27" width="1" height="1" fill="#75888f"/>
<rect x="21" y="27" width="1" height="1" fill="#5c7b85"/>
<rect x="22" y="27" width="1" height="1" fill="#607b85"/>
<rect x="23" y="27" width="1" height="1" fill="#607e88"/>
<rect x="24" y="27" width="1" height="1" fill="#637f88"/>
<rect x="8" y="28" width="1" height="1" fill="#5e7a83"/>
<rect x="9" y="28" width="1" height="1" fill="#40636f"/>
<rect x="10" y="28" width="1" height="1" fill="#416470"/>
<rect x="11" y="28" width="1" height="1" fill="#91a0a4"/>
<rect x="14" y="28" width="1" height="1" fill="#4b6c77"/>
<rect x="15" y="28" width="1" height="1" fill="#4d6e79"/>
<rect x="16" y="28" width="1" height="1" fill="#4f6f7b"/>
<rect x="17" y="28" width="1" height="1" fill="#53717c"/>
<rect x="18" y="28" width="1" height="1" fill="#95a5aa"/>
<rect x="21" y="28" width="1" height="1" fill="#6e858e"/>
<rect x="22" y="28" width="1" height="1" fill="#5d7c86"/>
<rect x="23" y="28" width="1" height="1" fill="#627e87"/>
<rect x="24" y="28" width="1" height="1" fill="#9daaae"/>
<rect x="9" y="29" width="1" height="1" fill="#a3adb1"/>
<rect x="10" y="29" width="1" height="1" fill="#889a9f"/>
<rect x="14" y="29" width="1" height="1" fill="#54717c"/>
<rect x="15" y="29" width="1" height="1" fill="#4f6d78"/>
<rect x="16" y="29" width="1" height="1" fill="#50717d"/>
<rect x="17" y="29" width="1" height="1" fill="#53727e"/>
<rect x="22" y="29" width="1" height="1" fill="#90a0a5"/>
<rect x="14" y="30" width="1" height="1" fill="#7b9096"/>
<rect x="15" y="30" width="1" height="1" fill="#50717d"/>
<rect x="16" y="30" width="1" height="1" fill="#52727e"/>
<rect x="17" y="30" width="1" height="1" fill="#5d7882"/>
</svg>