<svg xmlns="http://www.w3.org/2000/svg" width="32" height="32" viewBox="0 0 32 32" shape-rendering="crispEdges">
<rect x="17" y="1" width="1" height="1" fill="#85989e"/>
<rect x="16" y="2" width="1" height="1" fill="#4a6a76"/>
<rect x="17" y="2" width="2" height="1" fill="#40636f"/>
<rect x="19" y="2" width="1" height="1" fill="#758b92"/>
<rect x="14" y="3" width="1" height="1" fill="#6e848c"/>
<rect x="15" y="3" width="5" height="1" fill="#40636f"/>
<rect x="20" y="3" width="1" height="1" fill="#466975"/>
<rect x="12" y="4" width="1" height="1" fill="#a1aaae"/>
<rect x="13" y="4" width="1" height="1" fill="#446875"/>
<rect x="14" y="4" width="8" height="1" fill="#40636f"/>
<rect x="22" y="4" width="1" height="1" fill="#667f87"/>
<rect x="10" y="5" width="1" height="1" fill="#9fa9ad"/>
<rect x="11" y="5" width="1" height="1" fill="#436774"/>
<rect x="12" y="5" width="11" height="1" fill="#40636f"/>
<rect x="23" y="5" width="1" height="1" fill="#587680"/>
<rect x="10" y="6" width="1" height="1" fill="#a1aaae"/>
<rect x="11" y="6" width="1" height="1" fill="#687e86"/>
<rect x="12" y="6" width="1" height="1" fill="#40636f"/>
<rect x="13" y="6" width="1" height="1" fill="#4d6b76"/>
<rect x="14" y="6" width="7" height="1" fill="#40636f"/>
<rect x="21" y="6" width="1" height="1" fill="#416370"/>
<rect x="22" y="6" width="1" height="1" fill="#5e7a83"/>
<rect x="23" y="6" width="1" height="1" fill="#40636f"/>
<rect x="10" y="7" width="1" height="1" fill="#9fa9ad"/>
<rect x="11" y="7" width="1" height="1" fill="#436774"/>
<rect x="12" y="7" width="1" height="1" fill="#d0cdcd"/>
<rect x="13" y="7" width="1" height="1" fill="#506e79"/>
<rect x="14" y="7" width="1" height="1" fill="#546f79"/>
<rect x="15" y="7" width="1" height="1" fill="#44646f"/>
<rect x="16" y="7" width="4" height="1" fill="#40636f"/>
<rect x="20" y="7" width="1" height="1" fill="#54717c"/>
<rect x="21" y="7" width="1" height="1" fill="#4e6c77"/>
<rect x="22" y="7" width="1" height="1" fill="#40636f"/>
<rect x="23" y="7" width="1" height="1" fill="#416470"/>
<rect x="10" y="8" width="1" height="1" fill="#a3adb1"/>
<rect x="11" y="8" width="1" height="1" fill="#87999e"/>
<rect x="12" y="8" width="1" height="1" fill="#6a838b"/>
<rect x="13" y="8" width="1" height="1" fill="#7a8b91"/>
<rect x="14" y="8" width="1" height="1" fill="#6c838c"/>
<rect x="15" y="8" width="1" height="1" fill="#40636f"/>
<rect x="16" y="8" width="1" height="1" fill="#55717b"/>
<rect x="17" y="8" width="1" height="1" fill="#40636f"/>
<rect x="18" y="8" width="1" height="1" fill="#436774"/>
<rect x="19" y="8" width="1" height="1" fill="#647d85"/>
<rect x="20" y="8" width="2" height="1" fill="#40636f"/>
<rect x="22" y="8" width="1" height="1" fill="#55727d"/>
<rect x="12" y="9" width="1" height="1" fill="#9da7ab"/>
<rect x="13" y="9" width="1" height="1" fill="#40636f"/>
<rect x="14" y="9" width="1" height="1" fill="#6b848c"/>
<rect x="15" y="9" width="1" height="1" fill="#cacbcc"/>
<rect x="16" y="9" width="1" height="1" fill="#647d85"/>
<rect x="17" y="9" width="1" height="1" fill="#5d7982"/>
<rect x="18" y="9" width="1" height="1" fill="#4d6b76"/>
<rect x="19" y="9" width="1" height="1" fill="#40636f"/>
<rect x="20" y="9" width="1" height="1" fill="#416370"/>
<rect x="21" y="9" width="1" height="1" fill="#8c9ca1"/>
<rect x="14" y="10" width="1" height="1" fill="#5c7781"/>
<rect x="15" y="10" width="1" height="1" fill="#69818a"/>
<rect x="16" y="10" width="1" height="1" fill="#c4c5c6"/>
<rect x="17" y="10" width="2" height="1" fill="#40636f"/>
<rect x="19" y="10" width="1" height="1" fill="#526e78"/>
<rect x="15" y="11" width="1" height="1" fill="#9da7ab"/>
<rect x="16" y="11" width="2" height="1" fill="#40636f"/>
<rect x="18" y="11" width="1" height="1" fill="#85959a"/>
<rect x="17" y="12" width="1" height="1" fill="#687d85"/>
<rect x="17" y="13" width="1" height="1" fill="#4a6a76"/>
<rect x="17" y="14" width="1" height="1" fill="#4a6a76"/>
<rect x="17" y="15" width="1" height="1" fill="#476a76"/>
<rect x="6" y="16" width="1" height="1" fill="#809399"/>
<rect x="7" y="16" width="1" height="1" fill="#416370"/>
<rect x="8" y="16" width="9" height="1" fill="#4a6a76"/>
<rect x="17" y="16" width="1" height="1" fill="#40636f"/>
<rect x="18" y="16" width="1" height="1" fill="#466975"/>
<rect x="19" y="16" width="8" height="1" fill="#4a6a76"/>
<rect x="27" y="16" width="1" height="1" fill="#436774"/>
<rect x="28" y="16" width="1" height="1" fill="#446875"/>
<rect x="6" y="17" width="1" height="1" fill="#81949a"/>
<rect x="7" y="17" width="1" height="1" fill="#85979c"/>
<rect x="17" y="17" width="1" height="1" fill="#4a6a76"/>
<rect x="28" y="17" width="1" height="1" fill="#446875"/>
<rect x="6" y="18" width="1" height="1" fill="#81949a"/>
<rect x="7" y="18" width="1" height="1" fill="#85979c"/>
<rect x="17" y="18" width="1" height="1" fill="#4a6a76"/>
<rect x="28" y="18" width="1" height="1" fill="#446875"/>
<rect x="3" y="19" width="1" height="1" fill="#a0b0b5"/>
<rect x="13" y="19" width="1" height="1" fill="#8fa2a8"/>
<rect x="14" y="19" width="1" height="1" fill="#889da3"/>
<rect x="15" y="19" width="1" height="1" fill="#91a5ab"/>
<rect x="16" y="19" width="1" height="1" fill="#9babb1"/>
<rect x="17" y="19" width="1" height="1" fill="#9bafb5"/>
<rect x="28" y="19" width="1" height="1" fill="#6e8790"/>
<rect x="3" y="20" width="1" height="1" fill="#7c929a"/>
<rect x="4" y="20" width="1" height="1" fill="#8da4ab"/>
<rect x="5" y="20" width="1" height="1" fill="#9bb0b6"/>
<rect x="9" y="20" width="1" height="1" fill="#c9d5d8"/>
<rect x="13" y="20" width="1" height="1" fill="#5c7a84"/>
<rect x="14" y="20" width="1" height="1" fill="#67848f"/>
<rect x="15" y="20" width="1" height="1" fill="#6d8791"/>
<rect x="16" y="20" width="1" height="1" fill="#778f98"/>
<rect x="17" y="20" width="1" height="1" fill="#869aa1"/>
<rect x="24" y="20" width="1" height="1" fill="#9aa7ac"/>
<rect x="25" y="20" width="1" height="1" fill="#789099"/>
<rect x="26" y="20" width="1" height="1" fill="#7f969e"/>
<rect x="27" y="20" width="1" height="1" fill="#889da5"/>
<rect x="28" y="20" width="1" height="1" fill="#9db2b8"/>
<rect x="3" y="21" width="1" height="1" fill="#758c94"/>
<rect x="4" y="21" width="1" height="1" fill="#98acb2"/>
<rect x="5" y="21" width="1" height="1" fill="#9fb3b9"/>
<rect x="9" y="21" width="1" height="1" fill="#d6dbdd"/>
<rect x="13" y="21" width="1" height="1" fill="#4c6f7b"/>
<rect x="14" y="21" width="1" height="1" fill="#779099"/>
<rect x="15" y="21" width="1" height="1" fill="#93a7ad"/>
<rect x="16" y="21" width="1" height="1" fill="#98adb3"/>
<rect x="19" y="21" width="1" height="1" fill="#d6dcdf"/>
<rect x="20" y="21" width="1" height="1" fill="#d1dadc"/>
<rect x="24" y="21" width="1" height="1" fill="#95a5aa"/>
<rect x="25" y="21" width="1" height="1" fill="#879ba2"/>
<rect x="26" y="21" width="1" height="1" fill="#90a7ae"/>
<rect x="27" y="21" width="1" height="1" fill="#9aadb3"/>
<rect x="30" y="21" width="1" height="1" fill="#cad4d7"/>
<rect x="3" y="22" width="1" height="1" fill="#6d868f"/>
<rect x="4" y="22" width="1" height="1" fill="#8ea5ac"/>
<rect x="5" y="22" width="1" height="1" fill="#9aafb5"/>
<rect x="6" y="22" width="1" height="1" fill="#9eb2b8"/>
<rect x="13" y="22" width="1" height="1" fill="#44646f"/>
<rect x="14" y="22" width="1" height="1" fill="#6f8a94"/>
<rect x="15" y="22" width="1" height="1" fill="#88a1a9"/>
<rect x="16" y="22" width="1" height="1" fill="#95aab0"/>
<rect x="17" y="22" width="1" height="1" fill="#9cb0b6"/>
<rect x="20" y="22" width="1" height="1" fill="#cbd6d9"/>
<rect x="24" y="22" width="1" height="1" fill="#90a1a6"/>
<rect x="25" y="22" width="1" height="1" fill="#6e8892"/>
<rect x="26" y="22" width="1" height="1" fill="#748f98"/>
<rect x="27" y="22" width="1" height="1" fill="#7d939b"/>
<rect x="28" y="22" width="1" height="1" fill="#829ca4"/>
<rect x="29" y="22" width="1" height="1" fill="#8b9ea5"/>
<rect x="30" y="22" width="1" height="1" fill="#8fa6ad"/>
<rect x="31" y="22" width="1" height="1" fill="#899da4"/>
<rect x="3" y="23" width="1" height="1" fill="#65808a"/>
<rect x="4" y="23" width="1" height="1" fill="#889ca3"/>
<rect x="5" y="23" width="1" height="1" fill="#93a6ac"/>
<rect x="6" y="23" width="1" height="1" fill="#99aeb4"/>
<rect x="7" y="23" width="1" height="1" fill="#9db0b6"/>
<rect x="10" y="23" width="1" height="1" fill="#7f97a0"/>
<rect x="13" y="23" width="1" height="1" fill="#44646f"/>
<rect x="14" y="23" width="1" height="1" fill="#4f707b"/>
<rect x="15" y="23" width="1" height="1" fill="#607f89"/>
<rect x="16" y="23" width="1" height="1" fill="#6d8992"/>
<rect x="17" y="23" width="1" height="1" fill="#7a929b"/>
<rect x="18" y="23" width="1" height="1" fill="#7c97a0"/>
<rect x="19" y="23" width="1" height="1" fill="#8a9da4"/>
<rect x="20" y="23" width="1" height="1" fill="#8ea4ab"/>
<rect x="24" y="23" width="1" height="1" fill="#90a1a6"/>
<rect x="25" y="23" width="1" height="1" fill="#5b7a84"/>
<rect x="26" y="23" width="1" height="1" fill="#5c7a84"/>
<rect x="27" y="23" width="1" height="1" fill="#617e87"/>
<rect x="28" y="23" width="1" height="1" fill="#67828c"/>
<rect x="29" y="23" width="1" height="1" fill="#6d8791"/>
<rect x="30" y="23" width="1" height="1" fill="#85989f"/>
<rect x="31" y="23" width="1" height="1" fill="#7e939b"/>
<rect x="3" y="24" width="1" height="1" fill="#5e7983"/>
<rect x="4" y="24" width="1" height="1" fill="#708992"/>
<rect x="5" y="24" width="1" height="1" fill="#758e97"/>
<rect x="6" y="24" width="1" height="1" fill="#7f949c"/>
<rect x="7" y="24" width="1" height="1" fill="#859aa2"/>
<rect x="8" y="24" width="1" height="1" fill="#889ca3"/>
<rect x="9" y="24" width="1" height="1" fill="#8ea5ac"/>
<rect x="10" y="24" width="1" height="1" fill="#788f98"/>
<rect x="13" y="24" width="1" height="1" fill="#44646f"/>
<rect x="14" y="24" width="1" height="1" fill="#93a7ad"/>
<rect x="15" y="24" width="1" height="1" fill="#617e87"/>
<rect x="16" y="24" width="1" height="1" fill="#98abb1"/>
<rect x="17" y="24" width="1" height="1" fill="#728a93"/>
<rect x="18" y="24" width="1" height="1" fill="#9fb2b8"/>
<rect x="19" y="24" width="1" height="1" fill="#82969d"/>
<rect x="20" y="24" width="1" height="1" fill="#9eb1b7"/>
<rect x="21" y="24" width="1" height="1" fill="#7c949d"/>
<rect x="24" y="24" width="1" height="1" fill="#8c9da2"/>
<rect x="25" y="24" width="1" height="1" fill="#557681"/>
<rect x="26" y="24" width="2" height="1" fill="#5b7a84"/>
<rect x="28" y="24" width="1" height="1" fill="#5e7c86"/>
<rect x="29" y="24" width="1" height="1" fill="#65808a"/>
<rect x="30" y="24" width="1" height="1" fill="#8c9ea5"/>
<rect x="31" y="24" width="1" height="1" fill="#7e939b"/>
<rect x="3" y="25" width="1" height="1" fill="#53727e"/>
<rect x="4" y="25" width="1" height="1" fill="#557681"/>
<rect x="5" y="25" width="1" height="1" fill="#56757f"/>
<rect x="6" y="25" width="1" height="1" fill="#5d7b85"/>
<rect x="7" y="25" width="1" height="1" fill="#627f88"/>
<rect x="8" y="25" width="1" height="1" fill="#65808a"/>
<rect x="9" y="25" width="1" height="1" fill="#6f8891"/>
<rect x="10" y="25" width="1" height="1" fill="#6e8892"/>
<rect x="13" y="25" width="1" height="1" fill="#44646f"/>
<rect x="14" y="25" width="3" height="1" fill="#40636f"/>
<rect x="17" y="25" width="1" height="1" fill="#4c6c78"/>
<rect x="18" y="25" width="1" height="1" fill="#567883"/>
<rect x="19" y="25" width="1" height="1" fill="#63828c"/>
<rect x="20" y="25" width="1" height="1" fill="#64838d"/>
<rect x="21" y="25" width="1" height="1" fill="#708c95"/>
<rect x="24" y="25" width="1" height="1" fill="#88999e"/>
<rect x="25" y="25" width="1" height="1" fill="#4d6e79"/>
<rect x="26" y="25" width="1" height="1" fill="#54717c"/>
<rect x="27" y="25" width="1" height="1" fill="#567883"/>
<rect x="28" y="25" width="2" height="1" fill="#5b7a84"/>
<rect x="30" y="25" width="1" height="1" fill="#92a6ac"/>
<rect x="31" y="25" width="1" height="1" fill="#7d929a"/>
<rect x="3" y="26" width="1" height="1" fill="#4d6b76"/>
<rect x="4" y="26" width="1" height="1" fill="#7d939b"/>
<rect x="5" y="26" width="1" height="1" fill="#617e87"/>
<rect x="6" y="26" width="1" height="1" fill="#718a92"/>
<rect x="7" y="26" width="1" height="1" fill="#7d9198"/>
<rect x="8" y="26" width="1" height="1" fill="#6b8790"/>
<rect x="9" y="26" width="1" height="1" fill="#8ea2a8"/>
<rect x="10" y="26" width="1" height="1" fill="#67818b"/>
<rect x="13" y="26" width="1" height="1" fill="#778d94"/>
<rect x="14" y="26" width="2" height="1" fill="#6d838b"/>
<rect x="16" y="26" width="1" height="1" fill="#6a838b"/>
<rect x="17" y="26" width="1" height="1" fill="#5c7982"/>
<rect x="18" y="26" width="1" height="1" fill="#798c93"/>
<rect x="19" y="26" width="1" height="1" fill="#81969d"/>
<rect x="20" y="26" width="1" height="1" fill="#8a9ea4"/>
<rect x="21" y="26" width="1" height="1" fill="#8f9fa5"/>
<rect x="24" y="26" width="1" height="1" fill="#83959a"/>
<rect x="25" y="26" width="1" height="1" fill="#446774"/>
<rect x="26" y="26" width="1" height="1" fill="#4a6a76"/>
<rect x="27" y="26" width="1" height="1" fill="#506e79"/>
<rect x="28" y="26" width="1" height="1" fill="#547580"/>
<rect x="29" y="26" width="2" height="1" fill="#5b7a84"/>
<rect x="31" y="26" width="1" height="1" fill="#5c7a84"/>
<rect x="3" y="27" width="1" height="1" fill="#4d6b76"/>
<rect x="4" y="27" width="2" height="1" fill="#40636f"/>
<rect x="6" y="27" width="1" height="1" fill="#456975"/>
<rect x="7" y="27" width="1" height="1" fill="#4d6b76"/>
<rect x="8" y="27" width="1" height="1" fill="#506e79"/>
<rect x="9" y="27" width="1" height="1" fill="#557681"/>
<rect x="10" y="27" width="1" height="1" fill="#5d7b85"/>
<rect x="17" y="27" width="1" height="1" fill="#4e6c77"/>
<rect x="24" y="27" width="1" height="1" fill="#83959a"/>
<rect x="25" y="27" width="2" height="1" fill="#40636f"/>
<rect x="27" y="27" width="1" height="1" fill="#456975"/>
<rect x="28" y="27" width="1" height="1" fill="#4e6c77"/>
<rect x="29" y="27" width="1" height="1" fill="#54717c"/>
<rect x="30" y="27" width="1" height="1" fill="#567782"/>
<rect x="31" y="27" width="1" height="1" fill="#5b7a84"/>
<rect x="3" y="28" width="1" height="1" fill="#4d6b76"/>
<rect x="4" y="28" width="3" height="1" fill="#40636f"/>
<rect x="7" y="28" width="1" height="1" fill="#416470"/>
<rect x="8" y="28" width="1" height="1" fill="#456975"/>
<rect x="9" y="28" width="1" height="1" fill="#4d6e79"/>
<rect x="10" y="28" width="1" height="1" fill="#56727c"/>
<rect x="17" y="28" width="1" height="1" fill="#4e6c77"/>
<rect x="24" y="28" width="1" height="1" fill="#83959a"/>
<rect x="25" y="28" width="3" height="1" fill="#40636f"/>
<rect x="28" y="28" width="1" height="1" fill="#426774"/>
<rect x="29" y="28" width="1" height="1" fill="#476b77"/>
<rect x="30" y="28" width="1" height="1" fill="#506d78"/>
<rect x="31" y="28" width="1" height="1" fill="#54717c"/>
<rect x="3" y="29" width="1" height="1" fill="#6a838b"/>
<rect x="4" y="29" width="5" height="1" fill="#546f79"/>
<rect x="9" y="29" width="1" height="1" fill="#547580"/>
<rect x="10" y="29" width="1" height="1" fill="#637d85"/>
<rect x="17" y="29" width="1" height="1" fill="#4e6c77"/>
<rect x="24" y="29" width="1" height="1" fill="#9da7ab"/>
<rect x="25" y="29" width="5" height="1" fill="#72878f"/>
<rect x="30" y="29" width="1" height="1" fill="#778990"/>
<rect x="31" y="29" width="1" height="1" fill="#7a8b91"/>
<rect x="17" y="30" width="1" height="1" fill="#a6b1b4"/>
</svg>