<svg xmlns="http://www.w3.org/2000/svg" width="32" height="32" viewBox="0 0 32 32" shape-rendering="crispEdges">
<rect x="10" y="2" width="1" height="1" fill="#a1aaae"/>
<rect x="11" y="2" width="1" height="1" fill="#96a4a8"/>
<rect x="12" y="2" width="1" height="1" fill="#9ca8ab"/>
<rect x="7" y="3" width="1" height="1" fill="#8b9ca1"/>
<rect x="8" y="3" width="1" height="1" fill="#4d6b76"/>
<rect x="9" y="3" width="5" height="1" fill="#40636f"/>
<rect x="14" y="3" width="1" height="1" fill="#426774"/>
<rect x="15" y="3" width="1" height="1" fill="#778d94"/>
<rect x="6" y="4" width="1" height="1" fill="#4d6b76"/>
<rect x="7" y="4" width="1" height="1" fill="#416470"/>
<rect x="8" y="4" width="1" height="1" fill="#758b93"/>
<rect x="9" y="4" width="1" height="1" fill="#abb8bc"/>
<rect x="10" y="4" width="1" height="1" fill="#c8cdcf"/>
<rect x="11" y="4" width="1" height="1" fill="#d0d5d7"/>
<rect x="12" y="4" width="1" height="1" fill="#cad0d3"/>
<rect x="13" y="4" width="1" height="1" fill="#b4bfc2"/>
<rect x="14" y="4" width="1" height="1" fill="#85979e"/>
<rect x="15" y="4" width="1" height="1" fill="#476a76"/>
<rect x="16" y="4" width="1" height="1" fill="#416470"/>
<rect x="17" y="4" width="1" height="1" fill="#909ea2"/>
<rect x="4" y="5" width="1" height="1" fill="#a4acaf"/>
<rect x="5" y="5" width="1" height="1" fill="#416470"/>
<rect x="6" y="5" width="1" height="1" fill="#5c7982"/>
<rect x="7" y="5" width="1" height="1" fill="#b8bfc2"/>
<rect x="8" y="5" width="1" height="1" fill="#d5dcde"/>
<rect x="9" y="5" width="1" height="1" fill="#dbe1e2"/>
<rect x="10" y="5" width="3" height="1" fill="#e0e5e6"/>
<rect x="13" y="5" width="1" height="1" fill="#dbe1e2"/>
<rect x="14" y="5" width="1" height="1" fill="#d5dcde"/>
<rect x="15" y="5" width="1" height="1" fill="#c3c9cc"/>
<rect x="16" y="5" width="1" height="1" fill="#758b93"/>
<rect x="17" y="5" width="1" height="1" fill="#40636f"/>
<rect x="18" y="5" width="1" height="1" fill="#7c9096"/>
<rect x="4" y="6" width="1" height="1" fill="#416470"/>
<rect x="5" y="6" width="1" height="1" fill="#627e87"/>
<rect x="6" y="6" width="1" height="1" fill="#c3cacd"/>
<rect x="7" y="6" width="1" height="1" fill="#d4d7d9"/>
<rect x="8" y="6" width="1" height="1" fill="#dbe1e2"/>
<rect x="9" y="6" width="1" height="1" fill="#e5e5e6"/>
<rect x="10" y="6" width="3" height="1" fill="#ecedee"/>
<rect x="13" y="6" width="1" height="1" fill="#e5e5e6"/>
<rect x="14" y="6" width="1" height="1" fill="#dbe1e2"/>
<rect x="15" y="6" width="1" height="1" fill="#d4d7d9"/>
<rect x="16" y="6" width="1" height="1" fill="#c7cfd1"/>
<rect x="17" y="6" width="1" height="1" fill="#83959c"/>
<rect x="18" y="6" width="1" height="1" fill="#40636f"/>
<rect x="19" y="6" width="1" height="1" fill="#92a0a4"/>
<rect x="3" y="7" width="1" height="1" fill="#577782"/>
<rect x="4" y="7" width="1" height="1" fill="#506e79"/>
<rect x="5" y="7" width="1" height="1" fill="#b8c2c5"/>
<rect x="6" y="7" width="1" height="1" fill="#cad0d3"/>
<rect x="7" y="7" width="1" height="1" fill="#d5dcde"/>
<rect x="8" y="7" width="1" height="1" fill="#e0e5e6"/>
<rect x="9" y="7" width="1" height="1" fill="#ecedee"/>
<rect x="10" y="7" width="1" height="1" fill="#f5f4f4"/>
<rect x="11" y="7" width="1" height="1" fill="#f7f7f8"/>
<rect x="12" y="7" width="1" height="1" fill="#f5f4f4"/>
<rect x="13" y="7" width="1" height="1" fill="#ecedee"/>
<rect x="14" y="7" width="1" height="1" fill="#e0e5e6"/>
<rect x="15" y="7" width="1" height="1" fill="#d5dcde"/>
<rect x="16" y="7" width="1" height="1" fill="#cad0d3"/>
<rect x="17" y="7" width="1" height="1" fill="#bec6c9"/>
<rect x="18" y="7" width="1" height="1" fill="#6a848e"/>
<rect x="19" y="7" width="1" height="1" fill="#426774"/>
<rect x="2" y="8" width="1" height="1" fill="#a5afb2"/>
<rect x="3" y="8" width="1" height="1" fill="#40636f"/>
<rect x="4" y="8" width="1" height="1" fill="#8fa3a9"/>
<rect x="5" y="8" width="1" height="1" fill="#bec6c9"/>
<rect x="6" y="8" width="1" height="1" fill="#cad0d3"/>
<rect x="7" y="8" width="1" height="1" fill="#d5dcde"/>
<rect x="8" y="8" width="1" height="1" fill="#e0e5e6"/>
<rect x="9" y="8" width="1" height="1" fill="#ecedee"/>
<rect x="10" y="8" width="1" height="1" fill="#f7f7f8"/>
<rect x="11" y="8" width="1" height="1" fill="#fefcfc"/>
<rect x="12" y="8" width="1" height="1" fill="#f7f7f8"/>
<rect x="13" y="8" width="1" height="1" fill="#ecedee"/>
<rect x="14" y="8" width="1" height="1" fill="#e0e5e6"/>
<rect x="15" y="8" width="1" height="1" fill="#d5dcde"/>
<rect x="16" y="8" width="1" height="1" fill="#cad0d3"/>
<rect x="17" y="8" width="1" height="1" fill="#bec6c9"/>
<rect x="18" y="8" width="1" height="1" fill="#a7b5b9"/>
<rect x="19" y="8" width="1" height="1" fill="#446774"/>
<rect x="20" y="8" width="1" height="1" fill="#7c9096"/>
<rect x="2" y="9" width="1" height="1" fill="#6d878f"/>
<rect x="3" y="9" width="1" height="1" fill="#4d6d79"/>
<rect x="4" y="9" width="1" height="1" fill="#afbcc0"/>
<rect x="5" y="9" width="1" height="1" fill="#bec6c9"/>
<rect x="6" y="9" width="1" height="1" fill="#cad0d3"/>
<rect x="7" y="9" width="1" height="1" fill="#d5dcde"/>
<rect x="8" y="9" width="1" height="1" fill="#e0e5e6"/>
<rect x="9" y="9" width="1" height="1" fill="#ecedee"/>
<rect x="10" y="9" width="1" height="1" fill="#f5f4f4"/>
<rect x="11" y="9" width="1" height="1" fill="#f7f7f8"/>
<rect x="12" y="9" width="1" height="1" fill="#f5f4f4"/>
<rect x="13" y="9" width="1" height="1" fill="#ecedee"/>
<rect x="14" y="9" width="1" height="1" fill="#e0e5e6"/>
<rect x="15" y="9" width="1" height="1" fill="#d5dcde"/>
<rect x="16" y="9" width="1" height="1" fill="#cad0d3"/>
<rect x="17" y="9" width="1" height="1" fill="#bec6c9"/>
<rect x="18" y="9" width="1" height="1" fill="#b1bbbf"/>
<rect x="19" y="9" width="1" height="1" fill="#67858f"/>
<rect x="20" y="9" width="1" height="1" fill="#446875"/>
<rect x="2" y="10" width="1" height="1" fill="#466875"/>
<rect x="3" y="10" width="1" height="1" fill="#6a848e"/>
<rect x="4" y="10" width="1" height="1" fill="#acbabe"/>
<rect x="5" y="10" width="1" height="1" fill="#bbc3c6"/>
<rect x="6" y="10" width="1" height="1" fill="#c7cfd1"/>
<rect x="7" y="10" width="1" height="1" fill="#d4d7d9"/>
<rect x="8" y="10" width="1" height="1" fill="#dbe1e2"/>
<rect x="9" y="10" width="1" height="1" fill="#e5e5e6"/>
<rect x="10" y="10" width="3" height="1" fill="#ecedee"/>
<rect x="13" y="10" width="1" height="1" fill="#e5e5e6"/>
<rect x="14" y="10" width="1" height="1" fill="#dbe1e2"/>
<rect x="15" y="10" width="1" height="1" fill="#d4d7d9"/>
<rect x="16" y="10" width="1" height="1" fill="#c7cfd1"/>
<rect x="17" y="10" width="1" height="1" fill="#bbc3c6"/>
<rect x="18" y="10" width="1" height="1" fill="#acbabe"/>
<rect x="19" y="10" width="1" height="1" fill="#849ca4"/>
<rect x="20" y="10" width="1" height="1" fill="#40636f"/>
<rect x="2" y="11" width="1" height="1" fill="#40636f"/>
<rect x="3" y="11" width="1" height="1" fill="#788c93"/>
<rect x="4" y="11" width="1" height="1" fill="#a9b6bb"/>
<rect x="5" y="11" width="1" height="1" fill="#b8c2c5"/>
<rect x="6" y="11" width="1" height="1" fill="#c0cacd"/>
<rect x="7" y="11" width="1" height="1" fill="#cad0d3"/>
<rect x="8" y="11" width="1" height="1" fill="#d5dcde"/>
<rect x="9" y="11" width="1" height="1" fill="#dbe1e2"/>
<rect x="10" y="11" width="3" height="1" fill="#e0e5e6"/>
<rect x="13" y="11" width="1" height="1" fill="#dbe1e2"/>
<rect x="14" y="11" width="1" height="1" fill="#d5dcde"/>
<rect x="15" y="11" width="1" height="1" fill="#cad0d3"/>
<rect x="16" y="11" width="1" height="1" fill="#c0cacd"/>
<rect x="17" y="11" width="1" height="1" fill="#b8c2c5"/>
<rect x="18" y="11" width="1" height="1" fill="#a9b6bb"/>
<rect x="19" y="11" width="1" height="1" fill="#8ea1a7"/>
<rect x="20" y="11" width="1" height="1" fill="#40636f"/>
<rect x="21" y="11" width="1" height="1" fill="#a4acaf"/>
<rect x="2" y="12" width="1" height="1" fill="#40636f"/>
<rect x="3" y="12" width="1" height="1" fill="#788c93"/>
<rect x="4" y="12" width="1" height="1" fill="#a0b2b7"/>
<rect x="5" y="12" width="1" height="1" fill="#b1bbbf"/>
<rect x="6" y="12" width="1" height="1" fill="#bbc3c6"/>
<rect x="7" y="12" width="1" height="1" fill="#c4cbce"/>
<rect x="8" y="12" width="1" height="1" fill="#cad0d3"/>
<rect x="9" y="12" width="1" height="1" fill="#d4d7d9"/>
<rect x="10" y="12" width="3" height="1" fill="#d5dcde"/>
<rect x="13" y="12" width="1" height="1" fill="#d4d7d9"/>
<rect x="14" y="12" width="1" height="1" fill="#cad0d3"/>
<rect x="15" y="12" width="1" height="1" fill="#c4cbce"/>
<rect x="16" y="12" width="1" height="1" fill="#bbc3c6"/>
<rect x="17" y="12" width="1" height="1" fill="#b1bbbf"/>
<rect x="18" y="12" width="1" height="1" fill="#a0b2b7"/>
<rect x="19" y="12" width="1" height="1" fill="#8f9fa5"/>
<rect x="20" y="12" width="1" height="1" fill="#40636f"/>
<rect x="21" y="12" width="1" height="1" fill="#9fa9ad"/>
<rect x="2" y="13" width="1" height="1" fill="#40636f"/>
<rect x="3" y="13" width="1" height="1" fill="#6a848e"/>
<rect x="4" y="13" width="1" height="1" fill="#9aabb0"/>
<rect x="5" y="13" width="1" height="1" fill="#a6b2b7"/>
<rect x="6" y="13" width="1" height="1" fill="#b1bbbf"/>
<rect x="7" y="13" width="1" height="1" fill="#bbc3c6"/>
<rect x="8" y="13" width="1" height="1" fill="#c0cacd"/>
<rect x="9" y="13" width="1" height="1" fill="#c7cfd1"/>
<rect x="10" y="13" width="3" height="1" fill="#cad0d3"/>
<rect x="13" y="13" width="1" height="1" fill="#c7cfd1"/>
<rect x="14" y="13" width="1" height="1" fill="#c0cacd"/>
<rect x="15" y="13" width="1" height="1" fill="#bbc3c6"/>
<rect x="16" y="13" width="1" height="1" fill="#b1bbbf"/>
<rect x="17" y="13" width="1" height="1" fill="#a6b2b7"/>
<rect x="18" y="13" width="1" height="1" fill="#9aabb0"/>
<rect x="19" y="13" width="1" height="1" fill="#7f969d"/>
<rect x="20" y="13" width="1" height="1" fill="#40636f"/>
<rect x="2" y="14" width="1" height="1" fill="#556f79"/>
<rect x="3" y="14" width="1" height="1" fill="#537580"/>
<rect x="4" y="14" width="1" height="1" fill="#96a6ac"/>
<rect x="5" y="14" width="1" height="1" fill="#9eaeb3"/>
<rect x="6" y="14" width="1" height="1" fill="#a6b2b7"/>
<rect x="7" y="14" width="1" height="1" fill="#b1bbbf"/>
<rect x="8" y="14" width="1" height="1" fill="#b8c2c5"/>
<rect x="9" y="14" width="1" height="1" fill="#bbc3c6"/>
<rect x="10" y="14" width="3" height="1" fill="#bec6c9"/>
<rect x="13" y="14" width="1" height="1" fill="#bbc3c6"/>
<rect x="14" y="14" width="1" height="1" fill="#b8c2c5"/>
<rect x="15" y="14" width="1" height="1" fill="#b1bbbf"/>
<rect x="16" y="14" width="1" height="1" fill="#a6b2b7"/>
<rect x="17" y="14" width="1" height="1" fill="#9eaeb3"/>
<rect x="18" y="14" width="1" height="1" fill="#9bacb1"/>
<rect x="19" y="14" width="1" height="1" fill="#738c95"/>
<rect x="20" y="14" width="1" height="1" fill="#40636f"/>
<rect x="2" y="15" width="1" height="1" fill="#84969b"/>
<rect x="3" y="15" width="1" height="1" fill="#416470"/>
<rect x="4" y="15" width="1" height="1" fill="#869da4"/>
<rect x="5" y="15" width="1" height="1" fill="#a6b2b7"/>
<rect x="6" y="15" width="1" height="1" fill="#9cacb2"/>
<rect x="7" y="15" width="1" height="1" fill="#a0b2b7"/>
<rect x="8" y="15" width="1" height="1" fill="#a9b6bb"/>
<rect x="9" y="15" width="1" height="1" fill="#acbabe"/>
<rect x="10" y="15" width="3" height="1" fill="#b1bbbf"/>
<rect x="13" y="15" width="1" height="1" fill="#acbabe"/>
<rect x="14" y="15" width="1" height="1" fill="#a9b6bb"/>
<rect x="15" y="15" width="1" height="1" fill="#a0b2b7"/>
<rect x="16" y="15" width="1" height="1" fill="#9aabb0"/>
<rect x="17" y="15" width="1" height="1" fill="#9fafb4"/>
<rect x="18" y="15" width="1" height="1" fill="#a7b5b9"/>
<rect x="19" y="15" width="1" height="1" fill="#4e6f7a"/>
<rect x="20" y="15" width="1" height="1" fill="#55727d"/>
<rect x="3" y="16" width="1" height="1" fill="#40636f"/>
<rect x="4" y="16" width="1" height="1" fill="#597984"/>
<rect x="5" y="16" width="1" height="1" fill="#9dafb4"/>
<rect x="6" y="16" width="1" height="1" fill="#a9b8bc"/>
<rect x="7" y="16" width="1" height="1" fill="#a0b2b7"/>
<rect x="8" y="16" width="1" height="1" fill="#9caeb3"/>
<rect x="9" y="16" width="5" height="1" fill="#a0b2b7"/>
<rect x="14" y="16" width="1" height="1" fill="#9bacb1"/>
<rect x="15" y="16" width="1" height="1" fill="#9dafb4"/>
<rect x="16" y="16" width="1" height="1" fill="#a7b5b9"/>
<rect x="17" y="16" width="1" height="1" fill="#acb9bd"/>
<rect x="18" y="16" width="1" height="1" fill="#899aa0"/>
<rect x="19" y="16" width="1" height="1" fill="#40636f"/>
<rect x="20" y="16" width="1" height="1" fill="#97a4a8"/>
<rect x="3" y="17" width="1" height="1" fill="#7d9197"/>
<rect x="4" y="17" width="1" height="1" fill="#40636f"/>
<rect x="5" y="17" width="1" height="1" fill="#6e858e"/>
<rect x="6" y="17" width="1" height="1" fill="#a6b3b7"/>
<rect x="7" y="17" width="2" height="1" fill="#acb9bd"/>
<rect x="9" y="17" width="1" height="1" fill="#a9b6ba"/>
<rect x="10" y="17" width="1" height="1" fill="#a6b2b7"/>
<rect x="11" y="17" width="2" height="1" fill="#a4b3b7"/>
<rect x="13" y="17" width="1" height="1" fill="#a7b5b9"/>
<rect x="14" y="17" width="3" height="1" fill="#acb9bd"/>
<rect x="17" y="17" width="1" height="1" fill="#9aabb0"/>
<rect x="18" y="17" width="1" height="1" fill="#446875"/>
<rect x="19" y="17" width="1" height="1" fill="#4f727e"/>
<rect x="4" y="18" width="1" height="1" fill="#5b7780"/>
<rect x="5" y="18" width="1" height="1" fill="#416470"/>
<rect x="6" y="18" width="1" height="1" fill="#6a848e"/>
<rect x="7" y="18" width="1" height="1" fill="#9dafb4"/>
<rect x="8" y="18" width="8" height="1" fill="#acb9bd"/>
<rect x="16" y="18" width="1" height="1" fill="#92a5ab"/>
<rect x="17" y="18" width="1" height="1" fill="#486a77"/>
<rect x="18" y="18" width="1" height="1" fill="#426774"/>
<rect x="19" y="18" width="1" height="1" fill="#a2b2b8"/>
<rect x="5" y="19" width="1" height="1" fill="#5c7781"/>
<rect x="6" y="19" width="1" height="1" fill="#40636f"/>
<rect x="7" y="19" width="1" height="1" fill="#4f6f7b"/>
<rect x="8" y="19" width="1" height="1" fill="#7e9299"/>
<rect x="9" y="19" width="1" height="1" fill="#9aabb0"/>
<rect x="10" y="19" width="1" height="1" fill="#a7b5b9"/>
<rect x="11" y="19" width="1" height="1" fill="#acb9bd"/>
<rect x="12" y="19" width="1" height="1" fill="#aab9bd"/>
<rect x="13" y="19" width="1" height="1" fill="#a4b3b7"/>
<rect x="14" y="19" width="1" height="1" fill="#92a6ac"/>
<rect x="15" y="19" width="1" height="1" fill="#67828c"/>
<rect x="16" y="19" width="2" height="1" fill="#416470"/>
<rect x="18" y="19" width="1" height="1" fill="#6f8b94"/>
<rect x="19" y="19" width="1" height="1" fill="#9fb2b8"/>
<rect x="6" y="20" width="1" height="1" fill="#81949a"/>
<rect x="7" y="20" width="1" height="1" fill="#416470"/>
<rect x="8" y="20" width="1" height="1" fill="#40636f"/>
<rect x="9" y="20" width="1" height="1" fill="#466a76"/>
<rect x="10" y="20" width="1" height="1" fill="#4d6d79"/>
<rect x="11" y="20" width="1" height="1" fill="#4e717e"/>
<rect x="12" y="20" width="1" height="1" fill="#4c6f7b"/>
<rect x="13" y="20" width="1" height="1" fill="#476b77"/>
<rect x="14" y="20" width="1" height="1" fill="#416470"/>
<rect x="15" y="20" width="1" height="1" fill="#40636f"/>
<rect x="16" y="20" width="1" height="1" fill="#667f87"/>
<rect x="17" y="20" width="1" height="1" fill="#6d878f"/>
<rect x="18" y="20" width="1" height="1" fill="#607f89"/>
<rect x="19" y="20" width="1" height="1" fill="#84989f"/>
<rect x="20" y="20" width="1" height="1" fill="#9fb2b8"/>
<rect x="8" y="21" width="1" height="1" fill="#899a9f"/>
<rect x="9" y="21" width="1" height="1" fill="#5d7982"/>
<rect x="10" y="21" width="1" height="1" fill="#416470"/>
<rect x="11" y="21" width="2" height="1" fill="#40636f"/>
<rect x="13" y="21" width="1" height="1" fill="#546f79"/>
<rect x="14" y="21" width="1" height="1" fill="#7c9096"/>
<rect x="18" y="21" width="1" height="1" fill="#788d94"/>
<rect x="19" y="21" width="1" height="1" fill="#607f89"/>
<rect x="20" y="21" width="1" height="1" fill="#84989f"/>
<rect x="21" y="21" width="1" height="1" fill="#9fb2b8"/>
<rect x="19" y="22" width="1" height="1" fill="#788d94"/>
<rect x="20" y="22" width="1" height="1" fill="#607f89"/>
<rect x="21" y="22" width="1" height="1" fill="#84989f"/>
<rect x="22" y="22" width="1" height="1" fill="#9fb2b8"/>
<rect x="20" y="23" width="1" height="1" fill="#788d94"/>
<rect x="21" y="23" width="1" height="1" fill="#607f89"/>
<rect x="22" y="23" width="1" height="1" fill="#84989f"/>
<rect x="23" y="23" width="1" height="1" fill="#9fb2b8"/>
<rect x="21" y="24" width="1" height="1" fill="#788d94"/>
<rect x="22" y="24" width="1" height="1" fill="#607f89"/>
<rect x="23" y="24" width="1" height="1" fill="#84989f"/>
<rect x="24" y="24" width="1" height="1" fill="#9fb2b8"/>
<rect x="22" y="25" width="1" height="1" fill="#788d94"/>
<rect x="23" y="25" width="1" height="1" fill="#607f89"/>
<rect x="24" y="25" width="1" height="1" fill="#84989f"/>
<rect x="25" y="25" width="1" height="1" fill="#9fb2b8"/>
<rect x="23" y="26" width="1" height="1" fill="#788d94"/>
<rect x="24" y="26" width="1" height="1" fill="#607f89"/>
<rect x="25" y="26" width="1" height="1" fill="#84989f"/>
<rect x="26" y="26" width="1" height="1" fill="#9fb2b8"/>
<rect x="24" y="27" width="1" height="1" fill="#788d94"/>
<rect x="25" y="27" width="1" height="1" fill="#607f89"/>
<rect x="26" y="27" width="1" height="1" fill="#84989f"/>
<rect x="27" y="27" width="1" height="1" fill="#9fb2b8"/>
<rect x="25" y="28" width="1" height="1" fill="#788d94"/>
<rect x="26" y="28" width="1" height="1" fill="#607f89"/>
<rect x="27" y="28" width="1" height="1" fill="#84989f"/>
<rect x="28" y="28" width="1" height="1" fill="#9fb2b8"/>
<rect x="26" y="29" width="1" height="1" fill="#778d94"/>
<rect x="27" y="29" width="1" height="1" fill="#607f89"/>
<rect x="28" y="29" width="1" height="1" fill="#84989f"/>
<rect x="27" y="30" width="1" height="1" fill="#778d94"/>
<rect x="28" y="30" width="1" height="1" fill="#738b94"/>
</svg>