<svg xmlns="http://www.w3.org/2000/svg" width="32" height="32" viewBox="0 0 32 32" shape-rendering="crispEdges">
<rect x="9" y="0" width="15" height="1" fill="#94a2a6"/>
<rect x="24" y="0" width="1" height="1" fill="#9eaeb3"/>
<rect x="7" y="1" width="1" height="1" fill="#a7aeb1"/>
<rect x="8" y="1" width="1" height="1" fill="#4a6a76"/>
<rect x="9" y="1" width="13" height="1" fill="#40636f"/>
<rect x="22" y="1" width="1" height="1" fill="#577782"/>
<rect x="23" y="1" width="1" height="1" fill="#92a8af"/>
<rect x="24" y="1" width="1" height="1" fill="#718a93"/>
<rect x="6" y="2" width="1" height="1" fill="#7b8f95"/>
<rect x="7" y="2" width="13" height="1" fill="#40636f"/>
<rect x="20" y="2" width="1" height="1" fill="#426875"/>
<rect x="21" y="2" width="1" height="1" fill="#80969e"/>
<rect x="22" y="2" width="1" height="1" fill="#889da5"/>
<rect x="23" y="2" width="1" height="1" fill="#4b6b77"/>
<rect x="24" y="2" width="1" height="1" fill="#426774"/>
<rect x="5" y="3" width="1" height="1" fill="#93a7ad"/>
<rect x="6" y="3" width="6" height="1" fill="#8fa2a9"/>
<rect x="12" y="3" width="1" height="1" fill="#8ea5ac"/>
<rect x="13" y="3" width="6" height="1" fill="#90a3aa"/>
<rect x="19" y="3" width="1" height="1" fill="#90a7ae"/>
<rect x="20" y="3" width="1" height="1" fill="#92a8af"/>
<rect x="21" y="3" width="1" height="1" fill="#5e7d87"/>
<rect x="22" y="3" width="1" height="1" fill="#42626e"/>
<rect x="23" y="3" width="1" height="1" fill="#8b9da4"/>
<rect x="24" y="3" width="1" height="1" fill="#426774"/>
<rect x="5" y="4" width="14" height="1" fill="#40636f"/>
<rect x="19" y="4" width="1" height="1" fill="#7a9199"/>
<rect x="20" y="4" width="1" height="1" fill="#5c7b85"/>
<rect x="21" y="4" width="1" height="1" fill="#4e6f7a"/>
<rect x="22" y="4" width="1" height="1" fill="#456b78"/>
<rect x="23" y="4" width="1" height="1" fill="#bbcace"/>
<rect x="24" y="4" width="1" height="1" fill="#426774"/>
<rect x="5" y="5" width="1" height="1" fill="#40636f"/>
<rect x="6" y="5" width="1" height="1" fill="#86989f"/>
<rect x="7" y="5" width="1" height="1" fill="#9fb1b6"/>
<rect x="8" y="5" width="1" height="1" fill="#97a7ad"/>
<rect x="9" y="5" width="1" height="1" fill="#40636f"/>
<rect x="10" y="5" width="1" height="1" fill="#4f6d78"/>
<rect x="11" y="5" width="1" height="1" fill="#a6b2b7"/>
<rect x="12" y="5" width="1" height="1" fill="#a5b3b7"/>
<rect x="13" y="5" width="1" height="1" fill="#6e878f"/>
<rect x="14" y="5" width="1" height="1" fill="#40636f"/>
<rect x="15" y="5" width="1" height="1" fill="#7e939b"/>
<rect x="16" y="5" width="1" height="1" fill="#9fb1b6"/>
<rect x="17" y="5" width="1" height="1" fill="#9caeb3"/>
<rect x="18" y="5" width="1" height="1" fill="#40636f"/>
<rect x="19" y="5" width="1" height="1" fill="#7a9199"/>
<rect x="20" y="5" width="1" height="1" fill="#67838d"/>
<rect x="21" y="5" width="1" height="1" fill="#b2c1c5"/>
<rect x="22" y="5" width="1" height="1" fill="#456b78"/>
<rect x="23" y="5" width="1" height="1" fill="#4b6e7b"/>
<rect x="24" y="5" width="1" height="1" fill="#426774"/>
<rect x="5" y="6" width="1" height="1" fill="#40636f"/>
<rect x="6" y="6" width="1" height="1" fill="#8ba1a8"/>
<rect x="7" y="6" width="1" height="1" fill="#e3e6e8"/>
<rect x="8" y="6" width="1" height="1" fill="#d5dcde"/>
<rect x="9" y="6" width="1" height="1" fill="#40636f"/>
<rect x="10" y="6" width="1" height="1" fill="#53727e"/>
<rect x="11" y="6" width="1" height="1" fill="#cad0d3"/>
<rect x="12" y="6" width="1" height="1" fill="#e4e6e7"/>
<rect x="13" y="6" width="1" height="1" fill="#8fa5ac"/>
<rect x="14" y="6" width="1" height="1" fill="#40636f"/>
<rect x="15" y="6" width="1" height="1" fill="#849aa2"/>
<rect x="16" y="6" width="1" height="1" fill="#e3e6e8"/>
<rect x="17" y="6" width="1" height="1" fill="#dfe3e5"/>
<rect x="18" y="6" width="1" height="1" fill="#40636f"/>
<rect x="19" y="6" width="1" height="1" fill="#7a9199"/>
<rect x="20" y="6" width="1" height="1" fill="#6d8992"/>
<rect x="21" y="6" width="1" height="1" fill="#90a6ad"/>
<rect x="22" y="6" width="1" height="1" fill="#40636f"/>
<rect x="23" y="6" width="1" height="1" fill="#446774"/>
<rect x="24" y="6" width="1" height="1" fill="#426774"/>
<rect x="5" y="7" width="1" height="1" fill="#40636f"/>
<rect x="6" y="7" width="1" height="1" fill="#4e7583"/>
<rect x="7" y="7" width="1" height="1" fill="#a0b3b9"/>
<rect x="8" y="7" width="1" height="1" fill="#cad0d3"/>
<rect x="9" y="7" width="1" height="1" fill="#40636f"/>
<rect x="10" y="7" width="1" height="1" fill="#446774"/>
<rect x="11" y="7" width="1" height="1" fill="#9fb2b8"/>
<rect x="12" y="7" width="1" height="1" fill="#bbc8cc"/>
<rect x="13" y="7" width="1" height="1" fill="#879da4"/>
<rect x="14" y="7" width="1" height="1" fill="#40636f"/>
<rect x="15" y="7" width="1" height="1" fill="#4c7380"/>
<rect x="16" y="7" width="1" height="1" fill="#a0b3b9"/>
<rect x="17" y="7" width="1" height="1" fill="#d3d8da"/>
<rect x="18" y="7" width="1" height="1" fill="#40636f"/>
<rect x="19" y="7" width="1" height="1" fill="#7a9199"/>
<rect x="20" y="7" width="1" height="1" fill="#5c7b85"/>
<rect x="21" y="7" width="1" height="1" fill="#426875"/>
<rect x="22" y="7" width="1" height="1" fill="#4b6b77"/>
<rect x="23" y="7" width="1" height="1" fill="#a9babf"/>
<rect x="24" y="7" width="1" height="1" fill="#426774"/>
<rect x="5" y="8" width="14" height="1" fill="#40636f"/>
<rect x="19" y="8" width="1" height="1" fill="#7a9199"/>
<rect x="20" y="8" width="1" height="1" fill="#5c7b85"/>
<rect x="21" y="8" width="1" height="1" fill="#6e8790"/>
<rect x="22" y="8" width="1" height="1" fill="#577883"/>
<rect x="23" y="8" width="1" height="1" fill="#98abb2"/>
<rect x="24" y="8" width="1" height="1" fill="#426774"/>
<rect x="5" y="9" width="1" height="1" fill="#40636f"/>
<rect x="6" y="9" width="1" height="1" fill="#8298a0"/>
<rect x="7" y="9" width="1" height="1" fill="#9cb1b7"/>
<rect x="8" y="9" width="1" height="1" fill="#93a9b0"/>
<rect x="9" y="9" width="1" height="1" fill="#40636f"/>
<rect x="10" y="9" width="1" height="1" fill="#547580"/>
<rect x="11" y="9" width="1" height="1" fill="#ccd4d6"/>
<rect x="12" y="9" width="1" height="1" fill="#ccd5d7"/>
<rect x="13" y="9" width="1" height="1" fill="#839aa1"/>
<rect x="14" y="9" width="1" height="1" fill="#40636f"/>
<rect x="15" y="9" width="1" height="1" fill="#9dafb4"/>
<rect x="16" y="9" width="1" height="1" fill="#ccd5d7"/>
<rect x="17" y="9" width="1" height="1" fill="#cad0d3"/>
<rect x="18" y="9" width="1" height="1" fill="#40636f"/>
<rect x="19" y="9" width="1" height="1" fill="#7a9199"/>
<rect x="20" y="9" width="1" height="1" fill="#688690"/>
<rect x="21" y="9" width="1" height="1" fill="#9db2b8"/>
<rect x="22" y="9" width="1" height="1" fill="#446774"/>
<rect x="23" y="9" width="1" height="1" fill="#4c6c78"/>
<rect x="24" y="9" width="1" height="1" fill="#426774"/>
<rect x="5" y="10" width="1" height="1" fill="#40636f"/>
<rect x="6" y="10" width="1" height="1" fill="#6e8f9a"/>
<rect x="7" y="10" width="1" height="1" fill="#adbdc2"/>
<rect x="8" y="10" width="1" height="1" fill="#a5b5bb"/>
<rect x="9" y="10" width="1" height="1" fill="#40636f"/>
<rect x="10" y="10" width="1" height="1" fill="#53727e"/>
<rect x="11" y="10" width="1" height="1" fill="#cad0d3"/>
<rect x="12" y="10" width="1" height="1" fill="#e4e6e7"/>
<rect x="13" y="10" width="1" height="1" fill="#8fa5ac"/>
<rect x="14" y="10" width="1" height="1" fill="#40636f"/>
<rect x="15" y="10" width="1" height="1" fill="#849aa2"/>
<rect x="16" y="10" width="1" height="1" fill="#e3e6e8"/>
<rect x="17" y="10" width="1" height="1" fill="#dfe3e5"/>
<rect x="18" y="10" width="1" height="1" fill="#40636f"/>
<rect x="19" y="10" width="1" height="1" fill="#7a9199"/>
<rect x="20" y="10" width="1" height="1" fill="#67838d"/>
<rect x="21" y="10" width="1" height="1" fill="#65838e"/>
<rect x="22" y="10" width="1" height="1" fill="#40636f"/>
<rect x="23" y="10" width="1" height="1" fill="#5f7c85"/>
<rect x="24" y="10" width="1" height="1" fill="#426774"/>
<rect x="5" y="11" width="1" height="1" fill="#40636f"/>
<rect x="6" y="11" width="1" height="1" fill="#4a6d7a"/>
<rect x="7" y="11" width="1" height="1" fill="#6a8993"/>
<rect x="8" y="11" width="1" height="1" fill="#7d959e"/>
<rect x="9" y="11" width="1" height="1" fill="#40636f"/>
<rect x="10" y="11" width="1" height="1" fill="#416774"/>
<rect x="11" y="11" width="1" height="1" fill="#84989f"/>
<rect x="12" y="11" width="1" height="1" fill="#98abb1"/>
<rect x="13" y="11" width="1" height="1" fill="#718992"/>
<rect x="14" y="11" width="1" height="1" fill="#40636f"/>
<rect x="15" y="11" width="1" height="1" fill="#496d79"/>
<rect x="16" y="11" width="1" height="1" fill="#84989f"/>
<rect x="17" y="11" width="1" height="1" fill="#a9b6bb"/>
<rect x="18" y="11" width="1" height="1" fill="#40636f"/>
<rect x="19" y="11" width="1" height="1" fill="#7a9199"/>
<rect x="20" y="11" width="1" height="1" fill="#5c7b85"/>
<rect x="21" y="11" width="1" height="1" fill="#40636f"/>
<rect x="22" y="11" width="1" height="1" fill="#537580"/>
<rect x="23" y="11" width="1" height="1" fill="#b9c7cb"/>
<rect x="24" y="11" width="1" height="1" fill="#426774"/>
<rect x="5" y="12" width="1" height="1" fill="#40636f"/>
<rect x="6" y="12" width="1" height="1" fill="#4c6c78"/>
<rect x="7" y="12" width="1" height="1" fill="#4f707b"/>
<rect x="8" y="12" width="1" height="1" fill="#4e6e7a"/>
<rect x="9" y="12" width="1" height="1" fill="#40636f"/>
<rect x="10" y="12" width="1" height="1" fill="#416470"/>
<rect x="11" y="12" width="2" height="1" fill="#4f707b"/>
<rect x="13" y="12" width="1" height="1" fill="#466975"/>
<rect x="14" y="12" width="1" height="1" fill="#40636f"/>
<rect x="15" y="12" width="1" height="1" fill="#4f6f7b"/>
<rect x="16" y="12" width="2" height="1" fill="#5b7983"/>
<rect x="18" y="12" width="1" height="1" fill="#40636f"/>
<rect x="19" y="12" width="1" height="1" fill="#7a9199"/>
<rect x="20" y="12" width="1" height="1" fill="#5e7d87"/>
<rect x="21" y="12" width="1" height="1" fill="#869aa1"/>
<rect x="22" y="12" width="1" height="1" fill="#577883"/>
<rect x="23" y="12" width="1" height="1" fill="#879da5"/>
<rect x="24" y="12" width="1" height="1" fill="#426774"/>
<rect x="5" y="13" width="1" height="1" fill="#40636f"/>
<rect x="6" y="13" width="1" height="1" fill="#829aa3"/>
<rect x="7" y="13" width="1" height="1" fill="#adbdc2"/>
<rect x="8" y="13" width="1" height="1" fill="#a5b5bb"/>
<rect x="9" y="13" width="1" height="1" fill="#40636f"/>
<rect x="10" y="13" width="1" height="1" fill="#4f6f7b"/>
<rect x="11" y="13" width="1" height="1" fill="#9ab2ba"/>
<rect x="12" y="13" width="1" height="1" fill="#adbdc2"/>
<rect x="13" y="13" width="1" height="1" fill="#718d96"/>
<rect x="14" y="13" width="1" height="1" fill="#40636f"/>
<rect x="15" y="13" width="1" height="1" fill="#9aaeb4"/>
<rect x="16" y="13" width="1" height="1" fill="#e4e6e7"/>
<rect x="17" y="13" width="1" height="1" fill="#dfe3e5"/>
<rect x="18" y="13" width="1" height="1" fill="#40636f"/>
<rect x="19" y="13" width="1" height="1" fill="#7a9199"/>
<rect x="20" y="13" width="1" height="1" fill="#67838d"/>
<rect x="21" y="13" width="1" height="1" fill="#859da6"/>
<rect x="22" y="13" width="1" height="1" fill="#43636f"/>
<rect x="23" y="13" width="1" height="1" fill="#40636f"/>
<rect x="24" y="13" width="1" height="1" fill="#426774"/>
<rect x="5" y="14" width="1" height="1" fill="#40636f"/>
<rect x="6" y="14" width="1" height="1" fill="#708f99"/>
<rect x="7" y="14" width="1" height="1" fill="#99b1b9"/>
<rect x="8" y="14" width="1" height="1" fill="#a4b4ba"/>
<rect x="9" y="14" width="1" height="1" fill="#40636f"/>
<rect x="10" y="14" width="1" height="1" fill="#4c6d78"/>
<rect x="11" y="14" width="1" height="1" fill="#99b1b9"/>
<rect x="12" y="14" width="1" height="1" fill="#9ab2ba"/>
<rect x="13" y="14" width="1" height="1" fill="#728b94"/>
<rect x="14" y="14" width="1" height="1" fill="#40636f"/>
<rect x="15" y="14" width="1" height="1" fill="#849aa2"/>
<rect x="16" y="14" width="1" height="1" fill="#cad0d3"/>
<rect x="17" y="14" width="1" height="1" fill="#e0e2e3"/>
<rect x="18" y="14" width="1" height="1" fill="#40636f"/>
<rect x="19" y="14" width="1" height="1" fill="#7a9199"/>
<rect x="20" y="14" width="1" height="1" fill="#5c7c87"/>
<rect x="21" y="14" width="1" height="1" fill="#4f707b"/>
<rect x="22" y="14" width="1" height="1" fill="#40636f"/>
<rect x="23" y="14" width="1" height="1" fill="#8b9da4"/>
<rect x="24" y="14" width="1" height="1" fill="#426774"/>
<rect x="5" y="15" width="1" height="1" fill="#40636f"/>
<rect x="6" y="15" width="1" height="1" fill="#456975"/>
<rect x="7" y="15" width="1" height="1" fill="#547681"/>
<rect x="8" y="15" width="1" height="1" fill="#567883"/>
<rect x="9" y="15" width="1" height="1" fill="#40636f"/>
<rect x="10" y="15" width="1" height="1" fill="#416370"/>
<rect x="11" y="15" width="1" height="1" fill="#547681"/>
<rect x="12" y="15" width="1" height="1" fill="#5b7b86"/>
<rect x="13" y="15" width="1" height="1" fill="#4c6c78"/>
<rect x="14" y="15" width="1" height="1" fill="#40636f"/>
<rect x="15" y="15" width="1" height="1" fill="#436976"/>
<rect x="16" y="15" width="1" height="1" fill="#5f7e88"/>
<rect x="17" y="15" width="1" height="1" fill="#6a848e"/>
<rect x="18" y="15" width="1" height="1" fill="#40636f"/>
<rect x="19" y="15" width="1" height="1" fill="#7a9199"/>
<rect x="20" y="15" width="1" height="1" fill="#5c7b85"/>
<rect x="21" y="15" width="1" height="1" fill="#4b6b77"/>
<rect x="22" y="15" width="1" height="1" fill="#456b78"/>
<rect x="23" y="15" width="1" height="1" fill="#bbcace"/>
<rect x="24" y="15" width="1" height="1" fill="#426774"/>
<rect x="5" y="16" width="1" height="1" fill="#40636f"/>
<rect x="6" y="16" width="1" height="1" fill="#67818b"/>
<rect x="7" y="16" width="1" height="1" fill="#788e96"/>
<rect x="8" y="16" width="1" height="1" fill="#718a93"/>
<rect x="9" y="16" width="1" height="1" fill="#40636f"/>
<rect x="10" y="16" width="1" height="1" fill="#466976"/>
<rect x="11" y="16" width="1" height="1" fill="#758e97"/>
<rect x="12" y="16" width="1" height="1" fill="#788e96"/>
<rect x="13" y="16" width="1" height="1" fill="#567782"/>
<rect x="14" y="16" width="1" height="1" fill="#40636f"/>
<rect x="15" y="16" width="1" height="1" fill="#607e88"/>
<rect x="16" y="16" width="1" height="1" fill="#788e96"/>
<rect x="17" y="16" width="1" height="1" fill="#718f99"/>
<rect x="18" y="16" width="1" height="1" fill="#40636f"/>
<rect x="19" y="16" width="1" height="1" fill="#7a9199"/>
<rect x="20" y="16" width="1" height="1" fill="#63818c"/>
<rect x="21" y="16" width="1" height="1" fill="#97a9b0"/>
<rect x="22" y="16" width="1" height="1" fill="#456b78"/>
<rect x="23" y="16" width="1" height="1" fill="#4b6e7b"/>
<rect x="24" y="16" width="1" height="1" fill="#426774"/>
<rect x="5" y="17" width="1" height="1" fill="#40636f"/>
<rect x="6" y="17" width="1" height="1" fill="#6e8f9a"/>
<rect x="7" y="17" width="1" height="1" fill="#adbdc2"/>
<rect x="8" y="17" width="1" height="1" fill="#a5b5bb"/>
<rect x="9" y="17" width="1" height="1" fill="#40636f"/>
<rect x="10" y="17" width="1" height="1" fill="#4c6d78"/>
<rect x="11" y="17" width="1" height="1" fill="#99b1b9"/>
<rect x="12" y="17" width="1" height="1" fill="#adbdc2"/>
<rect x="13" y="17" width="1" height="1" fill="#738c95"/>
<rect x="14" y="17" width="1" height="1" fill="#40636f"/>
<rect x="15" y="17" width="1" height="1" fill="#6c8994"/>
<rect x="16" y="17" width="1" height="1" fill="#adbdc2"/>
<rect x="17" y="17" width="1" height="1" fill="#a9bcc2"/>
<rect x="18" y="17" width="1" height="1" fill="#40636f"/>
<rect x="19" y="17" width="1" height="1" fill="#7a9199"/>
<rect x="20" y="17" width="1" height="1" fill="#67838d"/>
<rect x="21" y="17" width="1" height="1" fill="#7d969f"/>
<rect x="22" y="17" width="1" height="1" fill="#40636f"/>
<rect x="23" y="17" width="1" height="1" fill="#416470"/>
<rect x="24" y="17" width="1" height="1" fill="#426774"/>
<rect x="5" y="18" width="1" height="1" fill="#40636f"/>
<rect x="6" y="18" width="1" height="1" fill="#4f7684"/>
<rect x="7" y="18" width="1" height="1" fill="#859da6"/>
<rect x="8" y="18" width="1" height="1" fill="#a0b3b9"/>
<rect x="9" y="18" width="1" height="1" fill="#40636f"/>
<rect x="10" y="18" width="1" height="1" fill="#446774"/>
<rect x="11" y="18" width="1" height="1" fill="#849ca5"/>
<rect x="12" y="18" width="1" height="1" fill="#96aeb6"/>
<rect x="13" y="18" width="1" height="1" fill="#718a93"/>
<rect x="14" y="18" width="1" height="1" fill="#40636f"/>
<rect x="15" y="18" width="1" height="1" fill="#4c7583"/>
<rect x="16" y="18" width="1" height="1" fill="#859da6"/>
<rect x="17" y="18" width="1" height="1" fill="#a6b8bd"/>
<rect x="18" y="18" width="1" height="1" fill="#40636f"/>
<rect x="19" y="18" width="1" height="1" fill="#7a9199"/>
<rect x="20" y="18" width="1" height="1" fill="#5c7b85"/>
<rect x="21" y="18" width="1" height="1" fill="#426774"/>
<rect x="22" y="18" width="1" height="1" fill="#466a76"/>
<rect x="23" y="18" width="1" height="1" fill="#89a1a9"/>
<rect x="24" y="18" width="1" height="1" fill="#426774"/>
<rect x="5" y="19" width="14" height="1" fill="#40636f"/>
<rect x="19" y="19" width="1" height="1" fill="#7a9199"/>
<rect x="20" y="19" width="1" height="1" fill="#5c7b85"/>
<rect x="21" y="19" width="1" height="1" fill="#67838d"/>
<rect x="22" y="19" width="1" height="1" fill="#52727e"/>
<rect x="23" y="19" width="1" height="1" fill="#849da6"/>
<rect x="24" y="19" width="1" height="1" fill="#426774"/>
<rect x="5" y="20" width="1" height="1" fill="#40636f"/>
<rect x="6" y="20" width="1" height="1" fill="#6e8a93"/>
<rect x="7" y="20" width="1" height="1" fill="#7f9aa4"/>
<rect x="8" y="20" width="1" height="1" fill="#7b939c"/>
<rect x="9" y="20" width="1" height="1" fill="#40636f"/>
<rect x="10" y="20" width="1" height="1" fill="#476b77"/>
<rect x="11" y="20" width="1" height="1" fill="#8198a0"/>
<rect x="12" y="20" width="1" height="1" fill="#7f9aa4"/>
<rect x="13" y="20" width="1" height="1" fill="#5c7b85"/>
<rect x="14" y="20" width="1" height="1" fill="#40636f"/>
<rect x="15" y="20" width="1" height="1" fill="#788f98"/>
<rect x="16" y="20" width="1" height="1" fill="#97abb1"/>
<rect x="17" y="20" width="1" height="1" fill="#93a9b0"/>
<rect x="18" y="20" width="1" height="1" fill="#40636f"/>
<rect x="19" y="20" width="1" height="1" fill="#7a9199"/>
<rect x="20" y="20" width="1" height="1" fill="#67858f"/>
<rect x="21" y="20" width="1" height="1" fill="#9db2b8"/>
<rect x="22" y="20" width="1" height="1" fill="#426875"/>
<rect x="23" y="20" width="1" height="1" fill="#4b6e7a"/>
<rect x="24" y="20" width="1" height="1" fill="#426774"/>
<rect x="5" y="21" width="1" height="1" fill="#40636f"/>
<rect x="6" y="21" width="1" height="1" fill="#688691"/>
<rect x="7" y="21" width="1" height="1" fill="#93a8b0"/>
<rect x="8" y="21" width="1" height="1" fill="#8aa3ab"/>
<rect x="9" y="21" width="1" height="1" fill="#40636f"/>
<rect x="10" y="21" width="1" height="1" fill="#496c78"/>
<rect x="11" y="21" width="1" height="1" fill="#84a0a9"/>
<rect x="12" y="21" width="1" height="1" fill="#93a8b0"/>
<rect x="13" y="21" width="1" height="1" fill="#64838d"/>
<rect x="14" y="21" width="1" height="1" fill="#40636f"/>
<rect x="15" y="21" width="1" height="1" fill="#6c8994"/>
<rect x="16" y="21" width="1" height="1" fill="#adbdc2"/>
<rect x="17" y="21" width="1" height="1" fill="#a9bcc2"/>
<rect x="18" y="21" width="1" height="1" fill="#40636f"/>
<rect x="19" y="21" width="1" height="1" fill="#7a9199"/>
<rect x="20" y="21" width="1" height="1" fill="#67838d"/>
<rect x="21" y="21" width="1" height="1" fill="#688791"/>
<rect x="22" y="21" width="1" height="1" fill="#40636f"/>
<rect x="23" y="21" width="1" height="1" fill="#4f6d78"/>
<rect x="24" y="21" width="1" height="1" fill="#426774"/>
<rect x="5" y="22" width="1" height="1" fill="#40636f"/>
<rect x="6" y="22" width="1" height="1" fill="#4b6e7b"/>
<rect x="7" y="22" width="1" height="1" fill="#638490"/>
<rect x="8" y="22" width="1" height="1" fill="#718c96"/>
<rect x="9" y="22" width="1" height="1" fill="#40636f"/>
<rect x="10" y="22" width="1" height="1" fill="#416774"/>
<rect x="11" y="22" width="1" height="1" fill="#638590"/>
<rect x="12" y="22" width="1" height="1" fill="#6d8c96"/>
<rect x="13" y="22" width="1" height="1" fill="#577883"/>
<rect x="14" y="22" width="1" height="1" fill="#40636f"/>
<rect x="15" y="22" width="1" height="1" fill="#4a6d7a"/>
<rect x="16" y="22" width="1" height="1" fill="#708b95"/>
<rect x="17" y="22" width="1" height="1" fill="#8a9ea5"/>
<rect x="18" y="22" width="1" height="1" fill="#40636f"/>
<rect x="19" y="22" width="1" height="1" fill="#7a9199"/>
<rect x="20" y="22" width="1" height="1" fill="#5c7b85"/>
<rect x="21" y="22" width="1" height="1" fill="#40636f"/>
<rect x="22" y="22" width="1" height="1" fill="#4b6e7a"/>
<rect x="23" y="22" width="1" height="1" fill="#98aeb5"/>
<rect x="24" y="22" width="1" height="1" fill="#426774"/>
<rect x="5" y="23" width="1" height="1" fill="#40636f"/>
<rect x="6" y="23" width="1" height="1" fill="#446774"/>
<rect x="7" y="23" width="1" height="1" fill="#446976"/>
<rect x="8" y="23" width="1" height="1" fill="#456874"/>
<rect x="9" y="23" width="2" height="1" fill="#40636f"/>
<rect x="11" y="23" width="2" height="1" fill="#446976"/>
<rect x="13" y="23" width="1" height="1" fill="#426774"/>
<rect x="14" y="23" width="1" height="1" fill="#40636f"/>
<rect x="15" y="23" width="1" height="1" fill="#456874"/>
<rect x="16" y="23" width="1" height="1" fill="#476a76"/>
<rect x="17" y="23" width="1" height="1" fill="#466a76"/>
<rect x="18" y="23" width="1" height="1" fill="#40636f"/>
<rect x="19" y="23" width="1" height="1" fill="#7a9199"/>
<rect x="20" y="23" width="1" height="1" fill="#5d7c86"/>
<rect x="21" y="23" width="1" height="1" fill="#708f99"/>
<rect x="22" y="23" width="1" height="1" fill="#52727e"/>
<rect x="23" y="23" width="1" height="1" fill="#7c959e"/>
<rect x="24" y="23" width="1" height="1" fill="#426774"/>
<rect x="5" y="24" width="1" height="1" fill="#40636f"/>
<rect x="6" y="24" width="1" height="1" fill="#6e8f9a"/>
<rect x="7" y="24" width="1" height="1" fill="#93a8b0"/>
<rect x="8" y="24" width="1" height="1" fill="#8aa3ab"/>
<rect x="9" y="24" width="1" height="1" fill="#40636f"/>
<rect x="10" y="24" width="1" height="1" fill="#496c78"/>
<rect x="11" y="24" width="1" height="1" fill="#84a0a9"/>
<rect x="12" y="24" width="1" height="1" fill="#93a8b0"/>
<rect x="13" y="24" width="1" height="1" fill="#64838d"/>
<rect x="14" y="24" width="1" height="1" fill="#40636f"/>
<rect x="15" y="24" width="1" height="1" fill="#7a939c"/>
<rect x="16" y="24" width="1" height="1" fill="#adbdc2"/>
<rect x="17" y="24" width="1" height="1" fill="#a9bcc2"/>
<rect x="18" y="24" width="1" height="1" fill="#40636f"/>
<rect x="19" y="24" width="1" height="1" fill="#7a9199"/>
<rect x="20" y="24" width="1" height="1" fill="#597c88"/>
<rect x="21" y="24" width="1" height="1" fill="#88a1aa"/>
<rect x="22" y="24" width="1" height="1" fill="#416774"/>
<rect x="23" y="24" width="2" height="1" fill="#426774"/>
<rect x="5" y="25" width="1" height="1" fill="#40636f"/>
<rect x="6" y="25" width="1" height="1" fill="#678590"/>
<rect x="7" y="25" width="1" height="1" fill="#84a0a9"/>
<rect x="8" y="25" width="1" height="1" fill="#88a2aa"/>
<rect x="9" y="25" width="1" height="1" fill="#40636f"/>
<rect x="10" y="25" width="1" height="1" fill="#496c78"/>
<rect x="11" y="25" width="1" height="1" fill="#79959f"/>
<rect x="12" y="25" width="1" height="1" fill="#84a0a9"/>
<rect x="13" y="25" width="1" height="1" fill="#64838d"/>
<rect x="14" y="25" width="1" height="1" fill="#40636f"/>
<rect x="15" y="25" width="1" height="1" fill="#6c8994"/>
<rect x="16" y="25" width="1" height="1" fill="#99b1b9"/>
<rect x="17" y="25" width="1" height="1" fill="#a8bbc1"/>
<rect x="18" y="25" width="1" height="1" fill="#40636f"/>
<rect x="19" y="25" width="1" height="1" fill="#7a9199"/>
<rect x="20" y="25" width="1" height="1" fill="#597c88"/>
<rect x="21" y="25" width="1" height="1" fill="#476c79"/>
<rect x="22" y="25" width="1" height="1" fill="#40636f"/>
<rect x="23" y="25" width="1" height="1" fill="#567883"/>
<rect x="24" y="25" width="1" height="1" fill="#426774"/>
<rect x="5" y="26" width="1" height="1" fill="#40636f"/>
<rect x="6" y="26" width="1" height="1" fill="#446a77"/>
<rect x="7" y="26" width="1" height="1" fill="#537682"/>
<rect x="8" y="26" width="1" height="1" fill="#557782"/>
<rect x="9" y="26" width="1" height="1" fill="#40636f"/>
<rect x="10" y="26" width="1" height="1" fill="#43636f"/>
<rect x="11" y="26" width="2" height="1" fill="#537682"/>
<rect x="13" y="26" width="1" height="1" fill="#4b6b77"/>
<rect x="14" y="26" width="1" height="1" fill="#40636f"/>
<rect x="15" y="26" width="1" height="1" fill="#446a77"/>
<rect x="16" y="26" width="1" height="1" fill="#587a85"/>
<rect x="17" y="26" width="1" height="1" fill="#5f7e88"/>
<rect x="18" y="26" width="1" height="1" fill="#40636f"/>
<rect x="19" y="26" width="1" height="1" fill="#7a9199"/>
<rect x="20" y="26" width="1" height="1" fill="#5c7b85"/>
<rect x="21" y="26" width="1" height="1" fill="#416470"/>
<rect x="22" y="26" width="1" height="1" fill="#4f727f"/>
<rect x="23" y="26" width="1" height="1" fill="#93acb4"/>
<rect x="24" y="26" width="1" height="1" fill="#426774"/>
<rect x="5" y="27" width="1" height="1" fill="#40636f"/>
<rect x="6" y="27" width="1" height="1" fill="#557681"/>
<rect x="7" y="27" width="1" height="1" fill="#5f818c"/>
<rect x="8" y="27" width="1" height="1" fill="#5e7d87"/>
<rect x="9" y="27" width="1" height="1" fill="#40636f"/>
<rect x="10" y="27" width="1" height="1" fill="#426875"/>
<rect x="11" y="27" width="1" height="1" fill="#5f818c"/>
<rect x="12" y="27" width="1" height="1" fill="#60818c"/>
<rect x="13" y="27" width="1" height="1" fill="#4e6e7a"/>
<rect x="14" y="27" width="1" height="1" fill="#40636f"/>
<rect x="15" y="27" width="1" height="1" fill="#52727e"/>
<rect x="16" y="27" width="1" height="1" fill="#5f818c"/>
<rect x="17" y="27" width="1" height="1" fill="#5f7f8a"/>
<rect x="18" y="27" width="1" height="1" fill="#40636f"/>
<rect x="19" y="27" width="1" height="1" fill="#7a9199"/>
<rect x="20" y="27" width="1" height="1" fill="#5d7c86"/>
<rect x="21" y="27" width="1" height="1" fill="#859fa7"/>
<rect x="22" y="27" width="1" height="1" fill="#597b86"/>
<rect x="23" y="27" width="1" height="1" fill="#87a1a9"/>
<rect x="24" y="27" width="1" height="1" fill="#426774"/>
<rect x="5" y="28" width="1" height="1" fill="#40636f"/>
<rect x="6" y="28" width="1" height="1" fill="#6e8f9a"/>
<rect x="7" y="28" width="1" height="1" fill="#8aa5ae"/>
<rect x="8" y="28" width="1" height="1" fill="#88a2aa"/>
<rect x="9" y="28" width="1" height="1" fill="#40636f"/>
<rect x="10" y="28" width="1" height="1" fill="#4a6d79"/>
<rect x="11" y="28" width="1" height="1" fill="#89a3ab"/>
<rect x="12" y="28" width="1" height="1" fill="#93a8b0"/>
<rect x="13" y="28" width="1" height="1" fill="#64838d"/>
<rect x="14" y="28" width="1" height="1" fill="#40636f"/>
<rect x="15" y="28" width="1" height="1" fill="#698792"/>
<rect x="16" y="28" width="1" height="1" fill="#89a3ab"/>
<rect x="17" y="28" width="1" height="1" fill="#8fa7af"/>
<rect x="18" y="28" width="1" height="1" fill="#40636f"/>
<rect x="19" y="28" width="1" height="1" fill="#7a9199"/>
<rect x="20" y="28" width="1" height="1" fill="#5e7d87"/>
<rect x="21" y="28" width="1" height="1" fill="#87a2ab"/>
<rect x="22" y="28" width="1" height="1" fill="#567985"/>
<rect x="23" y="28" width="1" height="1" fill="#79969f"/>
<rect x="24" y="28" width="1" height="1" fill="#466875"/>
<rect x="5" y="29" width="1" height="1" fill="#40636f"/>
<rect x="6" y="29" width="1" height="1" fill="#6a8b96"/>
<rect x="7" y="29" width="1" height="1" fill="#84a0a9"/>
<rect x="8" y="29" width="1" height="1" fill="#849da6"/>
<rect x="9" y="29" width="1" height="1" fill="#40636f"/>
<rect x="10" y="29" width="1" height="1" fill="#4a6d79"/>
<rect x="11" y="29" width="1" height="1" fill="#819ca6"/>
<rect x="12" y="29" width="1" height="1" fill="#89a3ab"/>
<rect x="13" y="29" width="1" height="1" fill="#64838d"/>
<rect x="14" y="29" width="1" height="1" fill="#40636f"/>
<rect x="15" y="29" width="1" height="1" fill="#698691"/>
<rect x="16" y="29" width="1" height="1" fill="#819ca6"/>
<rect x="17" y="29" width="1" height="1" fill="#87a0a8"/>
<rect x="18" y="29" width="1" height="1" fill="#40636f"/>
<rect x="19" y="29" width="1" height="1" fill="#7a9199"/>
<rect x="20" y="29" width="1" height="1" fill="#5e7c86"/>
<rect x="21" y="29" width="1" height="1" fill="#7a96a0"/>
<rect x="22" y="29" width="1" height="1" fill="#4f727f"/>
<rect x="23" y="29" width="1" height="1" fill="#6f8f99"/>
<rect x="5" y="30" width="1" height="1" fill="#40636f"/>
<rect x="6" y="30" width="1" height="1" fill="#6b8994"/>
<rect x="7" y="30" width="1" height="1" fill="#7f9aa4"/>
<rect x="8" y="30" width="1" height="1" fill="#7d98a2"/>
<rect x="9" y="30" width="1" height="1" fill="#40636f"/>
<rect x="10" y="30" width="1" height="1" fill="#496c78"/>
<rect x="11" y="30" width="1" height="1" fill="#809ba5"/>
<rect x="12" y="30" width="1" height="1" fill="#819ca6"/>
<rect x="13" y="30" width="1" height="1" fill="#607f89"/>
<rect x="14" y="30" width="1" height="1" fill="#40636f"/>
<rect x="15" y="30" width="1" height="1" fill="#62828e"/>
<rect x="16" y="30" width="1" height="1" fill="#809ba5"/>
<rect x="17" y="30" width="1" height="1" fill="#7e9aa4"/>
<rect x="18" y="30" width="1" height="1" fill="#40636f"/>
<rect x="19" y="30" width="1" height="1" fill="#7a9199"/>
<rect x="20" y="30" width="1" height="1" fill="#5c7b85"/>
<rect x="21" y="30" width="1" height="1" fill="#73919c"/>
<rect x="22" y="30" width="1" height="1" fill="#829399"/>
<rect x="5" y="31" width="1" height="1" fill="#70858d"/>
<rect x="6" y="31" width="1" height="1" fill="#718f99"/>
<rect x="7" y="31" width="1" height="1" fill="#7c949d"/>
<rect x="8" y="31" width="1" height="1" fill="#7b939c"/>
<rect x="9" y="31" width="1" height="1" fill="#70858d"/>
<rect x="10" y="31" width="1" height="1" fill="#6e848c"/>
<rect x="11" y="31" width="1" height="1" fill="#76919b"/>
<rect x="12" y="31" width="1" height="1" fill="#7d969f"/>
<rect x="13" y="31" width="1" height="1" fill="#778c94"/>
<rect x="14" y="31" width="1" height="1" fill="#70858d"/>
<rect x="15" y="31" width="1" height="1" fill="#67828c"/>
<rect x="16" y="31" width="1" height="1" fill="#76919b"/>
<rect x="17" y="31" width="1" height="1" fill="#7d959e"/>
<rect x="18" y="31" width="1" height="1" fill="#70858d"/>
<rect x="19" y="31" width="1" height="1" fill="#879ca3"/>
<rect x="20" y="31" width="1" height="1" fill="#7a8e95"/>
<rect x="21" y="31" width="1" height="1" fill="#97a7ac"/>
</svg>