<svg xmlns="http://www.w3.org/2000/svg" width="32" height="32" viewBox="0 0 32 32" shape-rendering="crispEdges">
<rect x="14" y="2" width="1" height="1" fill="#879aa0"/>
<rect x="15" y="2" width="1" height="1" fill="#708891"/>
<rect x="16" y="2" width="1" height="1" fill="#68838d"/>
<rect x="17" y="2" width="1" height="1" fill="#6a858f"/>
<rect x="18" y="2" width="1" height="1" fill="#6e8790"/>
<rect x="19" y="2" width="1" height="1" fill="#708992"/>
<rect x="20" y="2" width="1" height="1" fill="#728b94"/>
<rect x="21" y="2" width="1" height="1" fill="#748f98"/>
<rect x="22" y="2" width="1" height="1" fill="#7b9199"/>
<rect x="23" y="2" width="1" height="1" fill="#92a3a8"/>
<rect x="11" y="3" width="1" height="1" fill="#84989e"/>
<rect x="12" y="3" width="1" height="1" fill="#5d7b86"/>
<rect x="13" y="3" width="1" height="1" fill="#5f7d87"/>
<rect x="14" y="3" width="1" height="1" fill="#617f89"/>
<rect x="15" y="3" width="1" height="1" fill="#64828c"/>
<rect x="16" y="3" width="1" height="1" fill="#68838d"/>
<rect x="17" y="3" width="1" height="1" fill="#6a858f"/>
<rect x="18" y="3" width="1" height="1" fill="#6e8790"/>
<rect x="19" y="3" width="1" height="1" fill="#708992"/>
<rect x="20" y="3" width="1" height="1" fill="#728b94"/>
<rect x="21" y="3" width="1" height="1" fill="#748f98"/>
<rect x="22" y="3" width="1" height="1" fill="#788f98"/>
<rect x="23" y="3" width="1" height="1" fill="#7b9199"/>
<rect x="24" y="3" width="1" height="1" fill="#7c949d"/>
<rect x="25" y="3" width="1" height="1" fill="#89a2aa"/>
<rect x="9" y="4" width="1" height="1" fill="#81969d"/>
<rect x="10" y="4" width="1" height="1" fill="#567782"/>
<rect x="11" y="4" width="1" height="1" fill="#587984"/>
<rect x="12" y="4" width="1" height="1" fill="#5d7c86"/>
<rect x="13" y="4" width="1" height="1" fill="#7b8e95"/>
<rect x="14" y="4" width="1" height="1" fill="#8f9fa4"/>
<rect x="15" y="4" width="1" height="1" fill="#9da8ac"/>
<rect x="16" y="4" width="1" height="1" fill="#9facb0"/>
<rect x="17" y="4" width="1" height="1" fill="#9dabaf"/>
<rect x="18" y="4" width="1" height="1" fill="#94a5aa"/>
<rect x="19" y="4" width="1" height="1" fill="#869aa0"/>
<rect x="20" y="4" width="1" height="1" fill="#758c94"/>
<rect x="21" y="4" width="1" height="1" fill="#748f98"/>
<rect x="22" y="4" width="1" height="1" fill="#788f98"/>
<rect x="23" y="4" width="1" height="1" fill="#7b9199"/>
<rect x="24" y="4" width="1" height="1" fill="#7c949d"/>
<rect x="25" y="4" width="1" height="1" fill="#87a1a9"/>
<rect x="26" y="4" width="1" height="1" fill="#95abb2"/>
<rect x="8" y="5" width="1" height="1" fill="#587883"/>
<rect x="9" y="5" width="1" height="1" fill="#537580"/>
<rect x="10" y="5" width="1" height="1" fill="#7c9299"/>
<rect x="22" y="5" width="1" height="1" fill="#99a9ae"/>
<rect x="23" y="5" width="1" height="1" fill="#7e939b"/>
<rect x="24" y="5" width="1" height="1" fill="#7c949d"/>
<rect x="25" y="5" width="1" height="1" fill="#87a1a9"/>
<rect x="26" y="5" width="1" height="1" fill="#95abb2"/>
<rect x="6" y="6" width="1" height="1" fill="#a4abae"/>
<rect x="7" y="6" width="1" height="1" fill="#4d707c"/>
<rect x="8" y="6" width="1" height="1" fill="#738991"/>
<rect x="13" y="6" width="1" height="1" fill="#909fa3"/>
<rect x="14" y="6" width="1" height="1" fill="#76888f"/>
<rect x="15" y="6" width="1" height="1" fill="#637c84"/>
<rect x="16" y="6" width="1" height="1" fill="#5d7982"/>
<rect x="17" y="6" width="1" height="1" fill="#68818a"/>
<rect x="18" y="6" width="1" height="1" fill="#81949a"/>
<rect x="19" y="6" width="1" height="1" fill="#a4acaf"/>
<rect x="24" y="6" width="1" height="1" fill="#a3b0b4"/>
<rect x="25" y="6" width="1" height="1" fill="#89a2aa"/>
<rect x="26" y="6" width="1" height="1" fill="#95abb2"/>
<rect x="6" y="7" width="1" height="1" fill="#4d6d79"/>
<rect x="7" y="7" width="1" height="1" fill="#99a6ab"/>
<rect x="10" y="7" width="1" height="1" fill="#a2acaf"/>
<rect x="11" y="7" width="1" height="1" fill="#557580"/>
<rect x="12" y="7" width="1" height="1" fill="#466975"/>
<rect x="13" y="7" width="1" height="1" fill="#4a6c79"/>
<rect x="14" y="7" width="1" height="1" fill="#4e6e7a"/>
<rect x="15" y="7" width="2" height="1" fill="#4d707c"/>
<rect x="17" y="7" width="1" height="1" fill="#4e6f7a"/>
<rect x="18" y="7" width="1" height="1" fill="#4c6d78"/>
<rect x="19" y="7" width="1" height="1" fill="#476a76"/>
<rect x="20" y="7" width="1" height="1" fill="#426875"/>
<rect x="21" y="7" width="1" height="1" fill="#7f9196"/>
<rect x="26" y="7" width="1" height="1" fill="#a1b3b8"/>
<rect x="5" y="8" width="1" height="1" fill="#4e6e7a"/>
<rect x="9" y="8" width="1" height="1" fill="#607c85"/>
<rect x="10" y="8" width="1" height="1" fill="#476a77"/>
<rect x="11" y="8" width="1" height="1" fill="#4f6f7b"/>
<rect x="12" y="8" width="1" height="1" fill="#52717d"/>
<rect x="13" y="8" width="5" height="1" fill="#54727d"/>
<rect x="18" y="8" width="1" height="1" fill="#52717d"/>
<rect x="19" y="8" width="1" height="1" fill="#4f707b"/>
<rect x="20" y="8" width="1" height="1" fill="#4d707c"/>
<rect x="21" y="8" width="1" height="1" fill="#4f6d78"/>
<rect x="22" y="8" width="1" height="1" fill="#6e8790"/>
<rect x="23" y="8" width="1" height="1" fill="#98a6aa"/>
<rect x="4" y="9" width="1" height="1" fill="#6e848c"/>
<rect x="5" y="9" width="1" height="1" fill="#a4aeb1"/>
<rect x="8" y="9" width="1" height="1" fill="#4a6d79"/>
<rect x="9" y="9" width="1" height="1" fill="#4c6f7b"/>
<rect x="10" y="9" width="1" height="1" fill="#52717d"/>
<rect x="11" y="9" width="1" height="1" fill="#537580"/>
<rect x="12" y="9" width="1" height="1" fill="#557782"/>
<rect x="13" y="9" width="5" height="1" fill="#577782"/>
<rect x="18" y="9" width="1" height="1" fill="#557782"/>
<rect x="19" y="9" width="1" height="1" fill="#537580"/>
<rect x="20" y="9" width="1" height="1" fill="#728a93"/>
<rect x="21" y="9" width="1" height="1" fill="#a2b3b8"/>
<rect x="22" y="9" width="1" height="1" fill="#8ea7af"/>
<rect x="23" y="9" width="1" height="1" fill="#456875"/>
<rect x="24" y="9" width="1" height="1" fill="#7e9298"/>
<rect x="4" y="10" width="1" height="1" fill="#7c9299"/>
<rect x="7" y="10" width="1" height="1" fill="#4a6b77"/>
<rect x="8" y="10" width="1" height="1" fill="#4f707b"/>
<rect x="9" y="10" width="1" height="1" fill="#54727d"/>
<rect x="10" y="10" width="1" height="1" fill="#557782"/>
<rect x="11" y="10" width="1" height="1" fill="#587883"/>
<rect x="12" y="10" width="1" height="1" fill="#577984"/>
<rect x="13" y="10" width="5" height="1" fill="#597b86"/>
<rect x="18" y="10" width="1" height="1" fill="#607f89"/>
<rect x="19" y="10" width="1" height="1" fill="#89a3ab"/>
<rect x="20" y="10" width="1" height="1" fill="#9eb3b9"/>
<rect x="21" y="10" width="1" height="1" fill="#a3b6bc"/>
<rect x="22" y="10" width="1" height="1" fill="#88a2aa"/>
<rect x="23" y="10" width="1" height="1" fill="#4c6f7b"/>
<rect x="24" y="10" width="1" height="1" fill="#466975"/>
<rect x="25" y="10" width="1" height="1" fill="#84969b"/>
<rect x="3" y="11" width="1" height="1" fill="#7b8f95"/>
<rect x="6" y="11" width="1" height="1" fill="#587883"/>
<rect x="7" y="11" width="1" height="1" fill="#4d707c"/>
<rect x="8" y="11" width="1" height="1" fill="#537580"/>
<rect x="9" y="11" width="1" height="1" fill="#577782"/>
<rect x="10" y="11" width="1" height="1" fill="#577984"/>
<rect x="11" y="11" width="1" height="1" fill="#597b86"/>
<rect x="12" y="11" width="1" height="1" fill="#5e7c86"/>
<rect x="13" y="11" width="1" height="1" fill="#5e7d87"/>
<rect x="14" y="11" width="3" height="1" fill="#5d7e89"/>
<rect x="17" y="11" width="1" height="1" fill="#79919a"/>
<rect x="18" y="11" width="1" height="1" fill="#93a8ae"/>
<rect x="19" y="11" width="1" height="1" fill="#9aafb5"/>
<rect x="20" y="11" width="1" height="1" fill="#9bb0b6"/>
<rect x="21" y="11" width="1" height="1" fill="#9eb3b9"/>
<rect x="22" y="11" width="1" height="1" fill="#809ca5"/>
<rect x="23" y="11" width="1" height="1" fill="#4f727e"/>
<rect x="24" y="11" width="1" height="1" fill="#4c6f7b"/>
<rect x="25" y="11" width="1" height="1" fill="#426875"/>
<rect x="26" y="11" width="1" height="1" fill="#a7afb2"/>
<rect x="3" y="12" width="1" height="1" fill="#8c9ca1"/>
<rect x="5" y="12" width="1" height="1" fill="#93a1a5"/>
<rect x="6" y="12" width="1" height="1" fill="#496c78"/>
<rect x="7" y="12" width="1" height="1" fill="#54727d"/>
<rect x="8" y="12" width="1" height="1" fill="#577782"/>
<rect x="9" y="12" width="1" height="1" fill="#587a85"/>
<rect x="10" y="12" width="1" height="1" fill="#5d7b85"/>
<rect x="11" y="12" width="1" height="1" fill="#5d7e89"/>
<rect x="12" y="12" width="1" height="1" fill="#5f818c"/>
<rect x="13" y="12" width="1" height="1" fill="#62808b"/>
<rect x="14" y="12" width="1" height="1" fill="#61828d"/>
<rect x="15" y="12" width="1" height="1" fill="#69848e"/>
<rect x="16" y="12" width="1" height="1" fill="#879ba2"/>
<rect x="17" y="12" width="1" height="1" fill="#8ca2a9"/>
<rect x="18" y="12" width="1" height="1" fill="#90a7ae"/>
<rect x="19" y="12" width="1" height="1" fill="#96a9b0"/>
<rect x="20" y="12" width="1" height="1" fill="#9aafb5"/>
<rect x="21" y="12" width="1" height="1" fill="#9bb0b6"/>
<rect x="22" y="12" width="1" height="1" fill="#7c929a"/>
<rect x="23" y="12" width="1" height="1" fill="#54727d"/>
<rect x="24" y="12" width="1" height="1" fill="#4f707b"/>
<rect x="25" y="12" width="1" height="1" fill="#4b6e7a"/>
<rect x="26" y="12" width="1" height="1" fill="#4c6c78"/>
<rect x="5" y="13" width="1" height="1" fill="#4b6c77"/>
<rect x="6" y="13" width="1" height="1" fill="#52717d"/>
<rect x="7" y="13" width="1" height="1" fill="#557782"/>
<rect x="8" y="13" width="1" height="1" fill="#577984"/>
<rect x="9" y="13" width="1" height="1" fill="#5d7b85"/>
<rect x="10" y="13" width="1" height="1" fill="#5d7e89"/>
<rect x="11" y="13" width="1" height="1" fill="#62808b"/>
<rect x="12" y="13" width="1" height="1" fill="#64828d"/>
<rect x="13" y="13" width="1" height="1" fill="#65838e"/>
<rect x="14" y="13" width="1" height="1" fill="#66858f"/>
<rect x="15" y="13" width="1" height="1" fill="#7a929b"/>
<rect x="16" y="13" width="1" height="1" fill="#879ca4"/>
<rect x="17" y="13" width="1" height="1" fill="#8ba1a8"/>
<rect x="18" y="13" width="1" height="1" fill="#8ca2a9"/>
<rect x="19" y="13" width="1" height="1" fill="#90a7ae"/>
<rect x="20" y="13" width="1" height="1" fill="#96a9b0"/>
<rect x="21" y="13" width="1" height="1" fill="#9aafb5"/>
<rect x="22" y="13" width="1" height="1" fill="#728f98"/>
<rect x="23" y="13" width="1" height="1" fill="#557782"/>
<rect x="24" y="13" width="1" height="1" fill="#52717d"/>
<rect x="25" y="13" width="1" height="1" fill="#4d707c"/>
<rect x="26" y="13" width="1" height="1" fill="#466976"/>
<rect x="27" y="13" width="1" height="1" fill="#95a3a7"/>
<rect x="4" y="14" width="1" height="1" fill="#a2acb0"/>
<rect x="5" y="14" width="1" height="1" fill="#496c78"/>
<rect x="6" y="14" width="1" height="1" fill="#537580"/>
<rect x="7" y="14" width="1" height="1" fill="#587883"/>
<rect x="8" y="14" width="1" height="1" fill="#597b86"/>
<rect x="9" y="14" width="1" height="1" fill="#5d7e89"/>
<rect x="10" y="14" width="1" height="1" fill="#62808b"/>
<rect x="11" y="14" width="1" height="1" fill="#62848f"/>
<rect x="12" y="14" width="1" height="1" fill="#66858f"/>
<rect x="13" y="14" width="1" height="1" fill="#6b8690"/>
<rect x="14" y="14" width="1" height="1" fill="#6f8d97"/>
<rect x="15" y="14" width="1" height="1" fill="#7c949d"/>
<rect x="16" y="14" width="1" height="1" fill="#81979f"/>
<rect x="17" y="14" width="1" height="1" fill="#879ca4"/>
<rect x="18" y="14" width="1" height="1" fill="#8ba1a8"/>
<rect x="19" y="14" width="1" height="1" fill="#8ca2a9"/>
<rect x="20" y="14" width="1" height="1" fill="#90a7ae"/>
<rect x="21" y="14" width="1" height="1" fill="#96a9b0"/>
<rect x="22" y="14" width="1" height="1" fill="#6e8a93"/>
<rect x="23" y="14" width="1" height="1" fill="#587883"/>
<rect x="24" y="14" width="1" height="1" fill="#537580"/>
<rect x="25" y="14" width="1" height="1" fill="#4f707b"/>
<rect x="26" y="14" width="1" height="1" fill="#4b6e7a"/>
<rect x="27" y="14" width="1" height="1" fill="#57727c"/>
<rect x="4" y="15" width="1" height="1" fill="#778d94"/>
<rect x="5" y="15" width="1" height="1" fill="#4f707b"/>
<rect x="6" y="15" width="1" height="1" fill="#557782"/>
<rect x="7" y="15" width="1" height="1" fill="#577984"/>
<rect x="8" y="15" width="1" height="1" fill="#5e7c86"/>
<rect x="9" y="15" width="1" height="1" fill="#5f818c"/>
<rect x="10" y="15" width="1" height="1" fill="#64828d"/>
<rect x="11" y="15" width="1" height="1" fill="#66858f"/>
<rect x="12" y="15" width="1" height="1" fill="#6a8892"/>
<rect x="13" y="15" width="1" height="1" fill="#6c8994"/>
<rect x="14" y="15" width="1" height="1" fill="#6f8891"/>
<rect x="15" y="15" width="1" height="1" fill="#7b939c"/>
<rect x="16" y="15" width="1" height="1" fill="#7c949d"/>
<rect x="17" y="15" width="1" height="1" fill="#81979f"/>
<rect x="18" y="15" width="1" height="1" fill="#879ca4"/>
<rect x="19" y="15" width="1" height="1" fill="#8ba1a8"/>
<rect x="20" y="15" width="1" height="1" fill="#8ca2a9"/>
<rect x="21" y="15" width="1" height="1" fill="#90a7ae"/>
<rect x="22" y="15" width="1" height="1" fill="#6a848e"/>
<rect x="23" y="15" width="1" height="1" fill="#577984"/>
<rect x="24" y="15" width="1" height="1" fill="#557782"/>
<rect x="25" y="15" width="1" height="1" fill="#52717d"/>
<rect x="26" y="15" width="1" height="1" fill="#4c6f7b"/>
<rect x="27" y="15" width="1" height="1" fill="#446773"/>
<rect x="4" y="16" width="1" height="1" fill="#54717c"/>
<rect x="5" y="16" width="1" height="1" fill="#54727d"/>
<rect x="6" y="16" width="1" height="1" fill="#577782"/>
<rect x="7" y="16" width="1" height="1" fill="#597b86"/>
<rect x="8" y="16" width="1" height="1" fill="#5e7d87"/>
<rect x="9" y="16" width="1" height="1" fill="#62808b"/>
<rect x="10" y="16" width="1" height="1" fill="#65838e"/>
<rect x="11" y="16" width="1" height="1" fill="#6b8690"/>
<rect x="12" y="16" width="1" height="1" fill="#6c8994"/>
<rect x="13" y="16" width="1" height="1" fill="#6e8c96"/>
<rect x="14" y="16" width="1" height="1" fill="#708f99"/>
<rect x="15" y="16" width="1" height="1" fill="#6f8d97"/>
<rect x="16" y="16" width="1" height="1" fill="#7a929b"/>
<rect x="17" y="16" width="1" height="1" fill="#7c949d"/>
<rect x="18" y="16" width="1" height="1" fill="#81979f"/>
<rect x="19" y="16" width="1" height="1" fill="#879ca4"/>
<rect x="20" y="16" width="1" height="1" fill="#8ba1a8"/>
<rect x="21" y="16" width="1" height="1" fill="#8aa0a7"/>
<rect x="22" y="16" width="1" height="1" fill="#617e87"/>
<rect x="23" y="16" width="1" height="1" fill="#597b86"/>
<rect x="24" y="16" width="1" height="1" fill="#577782"/>
<rect x="25" y="16" width="1" height="1" fill="#54727d"/>
<rect x="26" y="16" width="1" height="1" fill="#4d707c"/>
<rect x="27" y="16" width="1" height="1" fill="#466975"/>
<rect x="28" y="16" width="1" height="1" fill="#a5b0b3"/>
<rect x="4" y="17" width="1" height="1" fill="#446774"/>
<rect x="5" y="17" width="1" height="1" fill="#54727d"/>
<rect x="6" y="17" width="1" height="1" fill="#577782"/>
<rect x="7" y="17" width="1" height="1" fill="#597b86"/>
<rect x="8" y="17" width="1" height="1" fill="#5d7e89"/>
<rect x="9" y="17" width="1" height="1" fill="#61828d"/>
<rect x="10" y="17" width="1" height="1" fill="#66858f"/>
<rect x="11" y="17" width="1" height="1" fill="#6a8892"/>
<rect x="12" y="17" width="1" height="1" fill="#6f8a94"/>
<rect x="13" y="17" width="1" height="1" fill="#708f99"/>
<rect x="14" y="17" width="1" height="1" fill="#75909a"/>
<rect x="15" y="17" width="1" height="1" fill="#76919b"/>
<rect x="16" y="17" width="1" height="1" fill="#75909a"/>
<rect x="17" y="17" width="1" height="1" fill="#789099"/>
<rect x="18" y="17" width="1" height="1" fill="#7b949d"/>
<rect x="19" y="17" width="1" height="1" fill="#81979f"/>
<rect x="20" y="17" width="1" height="1" fill="#879ca4"/>
<rect x="21" y="17" width="1" height="1" fill="#758e97"/>
<rect x="22" y="17" width="1" height="1" fill="#5d7e89"/>
<rect x="23" y="17" width="1" height="1" fill="#597b86"/>
<rect x="24" y="17" width="1" height="1" fill="#577782"/>
<rect x="25" y="17" width="1" height="1" fill="#54727d"/>
<rect x="26" y="17" width="1" height="1" fill="#4d707c"/>
<rect x="27" y="17" width="1" height="1" fill="#476a76"/>
<rect x="28" y="17" width="1" height="1" fill="#95a3a7"/>
<rect x="4" y="18" width="1" height="1" fill="#426875"/>
<rect x="5" y="18" width="1" height="1" fill="#54727d"/>
<rect x="6" y="18" width="1" height="1" fill="#577782"/>
<rect x="7" y="18" width="1" height="1" fill="#597b86"/>
<rect x="8" y="18" width="1" height="1" fill="#5d7e89"/>
<rect x="9" y="18" width="1" height="1" fill="#61828d"/>
<rect x="10" y="18" width="1" height="1" fill="#66858f"/>
<rect x="11" y="18" width="1" height="1" fill="#6a8892"/>
<rect x="12" y="18" width="1" height="1" fill="#6f8a94"/>
<rect x="13" y="18" width="1" height="1" fill="#708f99"/>
<rect x="14" y="18" width="1" height="1" fill="#76919b"/>
<rect x="15" y="18" width="1" height="1" fill="#78939d"/>
<rect x="16" y="18" width="1" height="1" fill="#76919b"/>
<rect x="17" y="18" width="1" height="1" fill="#708f99"/>
<rect x="18" y="18" width="1" height="1" fill="#6e8c96"/>
<rect x="19" y="18" width="1" height="1" fill="#779099"/>
<rect x="20" y="18" width="1" height="1" fill="#7a939c"/>
<rect x="21" y="18" width="1" height="1" fill="#61828d"/>
<rect x="22" y="18" width="1" height="1" fill="#5d7e89"/>
<rect x="23" y="18" width="1" height="1" fill="#597b86"/>
<rect x="24" y="18" width="1" height="1" fill="#577782"/>
<rect x="25" y="18" width="1" height="1" fill="#54727d"/>
<rect x="26" y="18" width="1" height="1" fill="#4d707c"/>
<rect x="27" y="18" width="1" height="1" fill="#476a77"/>
<rect x="28" y="18" width="1" height="1" fill="#8f9fa4"/>
<rect x="4" y="19" width="1" height="1" fill="#426875"/>
<rect x="5" y="19" width="1" height="1" fill="#54727d"/>
<rect x="6" y="19" width="1" height="1" fill="#577782"/>
<rect x="7" y="19" width="1" height="1" fill="#597b86"/>
<rect x="8" y="19" width="1" height="1" fill="#5d7e89"/>
<rect x="9" y="19" width="1" height="1" fill="#61828d"/>
<rect x="10" y="19" width="1" height="1" fill="#66858f"/>
<rect x="11" y="19" width="1" height="1" fill="#6a8892"/>
<rect x="12" y="19" width="1" height="1" fill="#6f8a94"/>
<rect x="13" y="19" width="1" height="1" fill="#708f99"/>
<rect x="14" y="19" width="1" height="1" fill="#75909a"/>
<rect x="15" y="19" width="1" height="1" fill="#76919b"/>
<rect x="16" y="19" width="1" height="1" fill="#75909a"/>
<rect x="17" y="19" width="1" height="1" fill="#708f99"/>
<rect x="18" y="19" width="1" height="1" fill="#6f8a94"/>
<rect x="19" y="19" width="1" height="1" fill="#6a8892"/>
<rect x="20" y="19" width="1" height="1" fill="#688590"/>
<rect x="21" y="19" width="1" height="1" fill="#61828d"/>
<rect x="22" y="19" width="1" height="1" fill="#5d7e89"/>
<rect x="23" y="19" width="1" height="1" fill="#597b86"/>
<rect x="24" y="19" width="1" height="1" fill="#577782"/>
<rect x="25" y="19" width="1" height="1" fill="#54727d"/>
<rect x="26" y="19" width="1" height="1" fill="#4d707c"/>
<rect x="27" y="19" width="1" height="1" fill="#476a76"/>
<rect x="28" y="19" width="1" height="1" fill="#96a4a8"/>
<rect x="4" y="20" width="1" height="1" fill="#557580"/>
<rect x="5" y="20" width="1" height="1" fill="#54727d"/>
<rect x="6" y="20" width="1" height="1" fill="#577782"/>
<rect x="7" y="20" width="1" height="1" fill="#597b86"/>
<rect x="8" y="20" width="1" height="1" fill="#5e7d87"/>
<rect x="9" y="20" width="1" height="1" fill="#62808b"/>
<rect x="10" y="20" width="1" height="1" fill="#65838e"/>
<rect x="11" y="20" width="1" height="1" fill="#6b8690"/>
<rect x="12" y="20" width="1" height="1" fill="#6c8994"/>
<rect x="13" y="20" width="1" height="1" fill="#6e8c96"/>
<rect x="14" y="20" width="3" height="1" fill="#708f99"/>
<rect x="17" y="20" width="1" height="1" fill="#6e8c96"/>
<rect x="18" y="20" width="1" height="1" fill="#6c8994"/>
<rect x="19" y="20" width="1" height="1" fill="#6b8690"/>
<rect x="20" y="20" width="1" height="1" fill="#65838e"/>
<rect x="21" y="20" width="1" height="1" fill="#62808b"/>
<rect x="22" y="20" width="1" height="1" fill="#5e7d87"/>
<rect x="23" y="20" width="1" height="1" fill="#597b86"/>
<rect x="24" y="20" width="1" height="1" fill="#577782"/>
<rect x="25" y="20" width="1" height="1" fill="#54727d"/>
<rect x="26" y="20" width="1" height="1" fill="#4d707c"/>
<rect x="27" y="20" width="1" height="1" fill="#466975"/>
<rect x="4" y="21" width="1" height="1" fill="#7b8f95"/>
<rect x="5" y="21" width="1" height="1" fill="#4f6f7b"/>
<rect x="6" y="21" width="1" height="1" fill="#557782"/>
<rect x="7" y="21" width="1" height="1" fill="#577984"/>
<rect x="8" y="21" width="1" height="1" fill="#5e7c86"/>
<rect x="9" y="21" width="1" height="1" fill="#5f818c"/>
<rect x="10" y="21" width="1" height="1" fill="#64828d"/>
<rect x="11" y="21" width="1" height="1" fill="#66858f"/>
<rect x="12" y="21" width="1" height="1" fill="#6a8892"/>
<rect x="13" y="21" width="1" height="1" fill="#6c8994"/>
<rect x="14" y="21" width="3" height="1" fill="#6f8a94"/>
<rect x="17" y="21" width="1" height="1" fill="#6c8994"/>
<rect x="18" y="21" width="1" height="1" fill="#6a8892"/>
<rect x="19" y="21" width="1" height="1" fill="#66858f"/>
<rect x="20" y="21" width="1" height="1" fill="#64828d"/>
<rect x="21" y="21" width="1" height="1" fill="#5f818c"/>
<rect x="22" y="21" width="1" height="1" fill="#5e7c86"/>
<rect x="23" y="21" width="1" height="1" fill="#577984"/>
<rect x="24" y="21" width="1" height="1" fill="#557782"/>
<rect x="25" y="21" width="1" height="1" fill="#52717d"/>
<rect x="26" y="21" width="1" height="1" fill="#4c6f7b"/>
<rect x="27" y="21" width="1" height="1" fill="#426774"/>
<rect x="4" y="22" width="1" height="1" fill="#a6b1b4"/>
<rect x="5" y="22" width="1" height="1" fill="#4a6a76"/>
<rect x="6" y="22" width="1" height="1" fill="#537580"/>
<rect x="7" y="22" width="1" height="1" fill="#587883"/>
<rect x="8" y="22" width="1" height="1" fill="#597b86"/>
<rect x="9" y="22" width="1" height="1" fill="#5d7e89"/>
<rect x="10" y="22" width="1" height="1" fill="#62808b"/>
<rect x="11" y="22" width="1" height="1" fill="#62848f"/>
<rect x="12" y="22" width="1" height="1" fill="#66858f"/>
<rect x="13" y="22" width="1" height="1" fill="#6b8690"/>
<rect x="14" y="22" width="3" height="1" fill="#6a8892"/>
<rect x="17" y="22" width="1" height="1" fill="#6b8690"/>
<rect x="18" y="22" width="1" height="1" fill="#66858f"/>
<rect x="19" y="22" width="1" height="1" fill="#62848f"/>
<rect x="20" y="22" width="1" height="1" fill="#62808b"/>
<rect x="21" y="22" width="1" height="1" fill="#5d7e89"/>
<rect x="22" y="22" width="1" height="1" fill="#597b86"/>
<rect x="23" y="22" width="1" height="1" fill="#587883"/>
<rect x="24" y="22" width="1" height="1" fill="#537580"/>
<rect x="25" y="22" width="1" height="1" fill="#4f707b"/>
<rect x="26" y="22" width="1" height="1" fill="#4b6e7a"/>
<rect x="27" y="22" width="1" height="1" fill="#5c7881"/>
<rect x="5" y="23" width="1" height="1" fill="#4f6d78"/>
<rect x="6" y="23" width="1" height="1" fill="#52717d"/>
<rect x="7" y="23" width="1" height="1" fill="#557782"/>
<rect x="8" y="23" width="1" height="1" fill="#577984"/>
<rect x="9" y="23" width="1" height="1" fill="#5d7b85"/>
<rect x="10" y="23" width="1" height="1" fill="#5d7e89"/>
<rect x="11" y="23" width="1" height="1" fill="#62808b"/>
<rect x="12" y="23" width="1" height="1" fill="#64828d"/>
<rect x="13" y="23" width="1" height="1" fill="#65838e"/>
<rect x="14" y="23" width="3" height="1" fill="#66858f"/>
<rect x="17" y="23" width="1" height="1" fill="#65838e"/>
<rect x="18" y="23" width="1" height="1" fill="#64828d"/>
<rect x="19" y="23" width="1" height="1" fill="#62808b"/>
<rect x="20" y="23" width="1" height="1" fill="#5d7e89"/>
<rect x="21" y="23" width="1" height="1" fill="#5d7b85"/>
<rect x="22" y="23" width="1" height="1" fill="#577984"/>
<rect x="23" y="23" width="1" height="1" fill="#557782"/>
<rect x="24" y="23" width="1" height="1" fill="#52717d"/>
<rect x="25" y="23" width="1" height="1" fill="#4d707c"/>
<rect x="26" y="23" width="1" height="1" fill="#466975"/>
<rect x="27" y="23" width="1" height="1" fill="#9ca8ab"/>
<rect x="5" y="24" width="1" height="1" fill="#9aa7ab"/>
<rect x="6" y="24" width="1" height="1" fill="#496c78"/>
<rect x="7" y="24" width="1" height="1" fill="#54727d"/>
<rect x="8" y="24" width="1" height="1" fill="#577782"/>
<rect x="9" y="24" width="1" height="1" fill="#587a85"/>
<rect x="10" y="24" width="1" height="1" fill="#5d7b85"/>
<rect x="11" y="24" width="1" height="1" fill="#5d7e89"/>
<rect x="12" y="24" width="1" height="1" fill="#5f818c"/>
<rect x="13" y="24" width="1" height="1" fill="#62808b"/>
<rect x="14" y="24" width="3" height="1" fill="#61828d"/>
<rect x="17" y="24" width="1" height="1" fill="#62808b"/>
<rect x="18" y="24" width="1" height="1" fill="#5f818c"/>
<rect x="19" y="24" width="1" height="1" fill="#5d7e89"/>
<rect x="20" y="24" width="1" height="1" fill="#5d7b85"/>
<rect x="21" y="24" width="1" height="1" fill="#587a85"/>
<rect x="22" y="24" width="1" height="1" fill="#577782"/>
<rect x="23" y="24" width="1" height="1" fill="#54727d"/>
<rect x="24" y="24" width="1" height="1" fill="#4f707b"/>
<rect x="25" y="24" width="1" height="1" fill="#4c6d78"/>
<rect x="26" y="24" width="1" height="1" fill="#546f79"/>
<rect x="6" y="25" width="1" height="1" fill="#627e87"/>
<rect x="7" y="25" width="1" height="1" fill="#4e6f7a"/>
<rect x="8" y="25" width="1" height="1" fill="#537580"/>
<rect x="9" y="25" width="1" height="1" fill="#577782"/>
<rect x="10" y="25" width="1" height="1" fill="#577984"/>
<rect x="11" y="25" width="1" height="1" fill="#597b86"/>
<rect x="12" y="25" width="1" height="1" fill="#5e7c86"/>
<rect x="13" y="25" width="1" height="1" fill="#5e7d87"/>
<rect x="14" y="25" width="3" height="1" fill="#5d7e89"/>
<rect x="17" y="25" width="1" height="1" fill="#5e7d87"/>
<rect x="18" y="25" width="1" height="1" fill="#5e7c86"/>
<rect x="19" y="25" width="1" height="1" fill="#597b86"/>
<rect x="20" y="25" width="1" height="1" fill="#577984"/>
<rect x="21" y="25" width="1" height="1" fill="#577782"/>
<rect x="22" y="25" width="1" height="1" fill="#537580"/>
<rect x="23" y="25" width="1" height="1" fill="#4f727e"/>
<rect x="24" y="25" width="1" height="1" fill="#4c6f7b"/>
<rect x="25" y="25" width="1" height="1" fill="#446774"/>
<rect x="7" y="26" width="1" height="1" fill="#506f7b"/>
<rect x="8" y="26" width="1" height="1" fill="#4d707c"/>
<rect x="9" y="26" width="1" height="1" fill="#54727d"/>
<rect x="10" y="26" width="1" height="1" fill="#557782"/>
<rect x="11" y="26" width="1" height="1" fill="#587883"/>
<rect x="12" y="26" width="1" height="1" fill="#577984"/>
<rect x="13" y="26" width="5" height="1" fill="#597b86"/>
<rect x="18" y="26" width="1" height="1" fill="#577984"/>
<rect x="19" y="26" width="1" height="1" fill="#587883"/>
<rect x="20" y="26" width="1" height="1" fill="#557782"/>
<rect x="21" y="26" width="1" height="1" fill="#54727d"/>
<rect x="22" y="26" width="1" height="1" fill="#4f727e"/>
<rect x="23" y="26" width="1" height="1" fill="#4c6f7b"/>
<rect x="24" y="26" width="1" height="1" fill="#456874"/>
<rect x="25" y="26" width="1" height="1" fill="#92a0a4"/>
<rect x="8" y="27" width="1" height="1" fill="#52717d"/>
<rect x="9" y="27" width="1" height="1" fill="#4b6e7a"/>
<rect x="10" y="27" width="1" height="1" fill="#52717d"/>
<rect x="11" y="27" width="1" height="1" fill="#537580"/>
<rect x="12" y="27" width="1" height="1" fill="#557782"/>
<rect x="13" y="27" width="5" height="1" fill="#577782"/>
<rect x="18" y="27" width="1" height="1" fill="#557782"/>
<rect x="19" y="27" width="1" height="1" fill="#537580"/>
<rect x="20" y="27" width="1" height="1" fill="#52717d"/>
<rect x="21" y="27" width="1" height="1" fill="#4f707b"/>
<rect x="22" y="27" width="1" height="1" fill="#4d6e79"/>
<rect x="23" y="27" width="1" height="1" fill="#426875"/>
<rect x="24" y="27" width="1" height="1" fill="#8f9ca1"/>
<rect x="9" y="28" width="1" height="1" fill="#708a92"/>
<rect x="10" y="28" width="1" height="1" fill="#466976"/>
<rect x="11" y="28" width="1" height="1" fill="#4e6f7a"/>
<rect x="12" y="28" width="1" height="1" fill="#52717d"/>
<rect x="13" y="28" width="5" height="1" fill="#54727d"/>
<rect x="18" y="28" width="1" height="1" fill="#52717d"/>
<rect x="19" y="28" width="1" height="1" fill="#4f707b"/>
<rect x="20" y="28" width="1" height="1" fill="#4d707c"/>
<rect x="21" y="28" width="1" height="1" fill="#4a6a76"/>
<rect x="22" y="28" width="1" height="1" fill="#4d6b76"/>
<rect x="11" y="29" width="1" height="1" fill="#677d85"/>
<rect x="12" y="29" width="1" height="1" fill="#426875"/>
<rect x="13" y="29" width="1" height="1" fill="#496c78"/>
<rect x="14" y="29" width="1" height="1" fill="#4b6e7a"/>
<rect x="15" y="29" width="1" height="1" fill="#4e6e7a"/>
<rect x="16" y="29" width="1" height="1" fill="#4e6f7a"/>
<rect x="17" y="29" width="1" height="1" fill="#4d6e79"/>
<rect x="18" y="29" width="1" height="1" fill="#4b6b77"/>
<rect x="19" y="29" width="1" height="1" fill="#466975"/>
<rect x="20" y="29" width="1" height="1" fill="#4b6c77"/>
<rect x="21" y="29" width="1" height="1" fill="#8e9ca0"/>
<rect x="13" y="30" width="1" height="1" fill="#9ea8ac"/>
<rect x="14" y="30" width="1" height="1" fill="#83959a"/>
<rect x="15" y="30" width="1" height="1" fill="#748a91"/>
<rect x="16" y="30" width="1" height="1" fill="#6d878f"/>
<rect x="17" y="30" width="1" height="1" fill="#788f96"/>
<rect x="18" y="30" width="1" height="1" fill="#8f9fa4"/>
</svg>