<svg xmlns="http://www.w3.org/2000/svg" width="32" height="32" viewBox="0 0 32 32" shape-rendering="crispEdges">
<rect x="12" y="5" width="1" height="1" fill="#6c838c"/>
<rect x="13" y="5" width="4" height="1" fill="#6a838b"/>
<rect x="17" y="5" width="1" height="1" fill="#7e9298"/>
<rect x="11" y="6" width="1" height="1" fill="#788f96"/>
<rect x="12" y="6" width="5" height="1" fill="#40636f"/>
<rect x="17" y="6" width="1" height="1" fill="#5d7982"/>
<rect x="10" y="7" width="1" height="1" fill="#a5b0b3"/>
<rect x="11" y="7" width="6" height="1" fill="#40636f"/>
<rect x="17" y="7" width="1" height="1" fill="#597781"/>
<rect x="3" y="8" width="1" height="1" fill="#5f7b84"/>
<rect x="4" y="8" width="24" height="1" fill="#40636f"/>
<rect x="3" y="9" width="1" height="1" fill="#5f7b84"/>
<rect x="4" y="9" width="1" height="1" fill="#597781"/>
<rect x="5" y="9" width="5" height="1" fill="#8f9ca1"/>
<rect x="10" y="9" width="1" height="1" fill="#7a8b91"/>
<rect x="11" y="9" width="6" height="1" fill="#40636f"/>
<rect x="17" y="9" width="1" height="1" fill="#4e6c77"/>
<rect x="18" y="9" width="8" height="1" fill="#8f9ca1"/>
<rect x="26" y="9" width="1" height="1" fill="#798a90"/>
<rect x="27" y="9" width="1" height="1" fill="#40636f"/>
<rect x="3" y="10" width="1" height="1" fill="#5f7b84"/>
<rect x="4" y="10" width="1" height="1" fill="#798a90"/>
<rect x="5" y="10" width="6" height="1" fill="#c0c0c0"/>
<rect x="11" y="10" width="1" height="1" fill="#788d94"/>
<rect x="12" y="10" width="5" height="1" fill="#40636f"/>
<rect x="17" y="10" width="1" height="1" fill="#5d7982"/>
<rect x="18" y="10" width="8" height="1" fill="#c0c0c0"/>
<rect x="26" y="10" width="1" height="1" fill="#aeb3b5"/>
<rect x="27" y="10" width="1" height="1" fill="#40636f"/>
<rect x="3" y="11" width="1" height="1" fill="#5f7b84"/>
<rect x="4" y="11" width="1" height="1" fill="#798a90"/>
<rect x="5" y="11" width="6" height="1" fill="#c0c0c0"/>
<rect x="11" y="11" width="1" height="1" fill="#c6c6c7"/>
<rect x="12" y="11" width="1" height="1" fill="#69818a"/>
<rect x="13" y="11" width="4" height="1" fill="#678189"/>
<rect x="17" y="11" width="1" height="1" fill="#7c9096"/>
<rect x="18" y="11" width="8" height="1" fill="#c0c0c0"/>
<rect x="26" y="11" width="1" height="1" fill="#aeb3b5"/>
<rect x="27" y="11" width="1" height="1" fill="#40636f"/>
<rect x="3" y="12" width="1" height="1" fill="#5f7b84"/>
<rect x="4" y="12" width="1" height="1" fill="#798a90"/>
<rect x="5" y="12" width="21" height="1" fill="#c0c0c0"/>
<rect x="26" y="12" width="1" height="1" fill="#aeb3b5"/>
<rect x="27" y="12" width="1" height="1" fill="#40636f"/>
<rect x="3" y="13" width="1" height="1" fill="#5f7b84"/>
<rect x="4" y="13" width="1" height="1" fill="#798a90"/>
<rect x="5" y="13" width="21" height="1" fill="#c0c0c0"/>
<rect x="26" y="13" width="1" height="1" fill="#aeb3b5"/>
<rect x="27" y="13" width="1" height="1" fill="#40636f"/>
<rect x="3" y="14" width="1" height="1" fill="#5f7b84"/>
<rect x="4" y="14" width="1" height="1" fill="#798a90"/>
<rect x="5" y="14" width="21" height="1" fill="#c0c0c0"/>
<rect x="26" y="14" width="1" height="1" fill="#aeb3b5"/>
<rect x="27" y="14" width="1" height="1" fill="#40636f"/>
<rect x="3" y="15" width="1" height="1" fill="#5f7b84"/>
<rect x="4" y="15" width="1" height="1" fill="#798a90"/>
<rect x="5" y="15" width="1" height="1" fill="#c0c0c0"/>
<rect x="6" y="15" width="1" height="1" fill="#c3c4c5"/>
<rect x="7" y="15" width="14" height="1" fill="#426774"/>
<rect x="21" y="15" width="1" height="1" fill="#4e6c77"/>
<rect x="22" y="15" width="1" height="1" fill="#c7caca"/>
<rect x="23" y="15" width="3" height="1" fill="#c0c0c0"/>
<rect x="26" y="15" width="1" height="1" fill="#aeb3b5"/>
<rect x="27" y="15" width="1" height="1" fill="#40636f"/>
<rect x="3" y="16" width="1" height="1" fill="#5f7b84"/>
<rect x="4" y="16" width="1" height="1" fill="#798a90"/>
<rect x="5" y="16" width="1" height="1" fill="#c0c0c0"/>
<rect x="6" y="16" width="1" height="1" fill="#c2c4c5"/>
<rect x="7" y="16" width="15" height="1" fill="#40636f"/>
<rect x="22" y="16" width="1" height="1" fill="#7f9196"/>
<rect x="23" y="16" width="3" height="1" fill="#c0c0c0"/>
<rect x="26" y="16" width="1" height="1" fill="#aeb3b5"/>
<rect x="27" y="16" width="1" height="1" fill="#40636f"/>
<rect x="3" y="17" width="1" height="1" fill="#5f7b84"/>
<rect x="4" y="17" width="1" height="1" fill="#798a90"/>
<rect x="5" y="17" width="1" height="1" fill="#c0c0c0"/>
<rect x="6" y="17" width="1" height="1" fill="#c2c4c5"/>
<rect x="7" y="17" width="16" height="1" fill="#40636f"/>
<rect x="23" y="17" width="1" height="1" fill="#b5b9bb"/>
<rect x="24" y="17" width="2" height="1" fill="#c0c0c0"/>
<rect x="26" y="17" width="1" height="1" fill="#aeb3b5"/>
<rect x="27" y="17" width="1" height="1" fill="#40636f"/>
<rect x="3" y="18" width="1" height="1" fill="#5f7b84"/>
<rect x="4" y="18" width="1" height="1" fill="#798a90"/>
<rect x="5" y="18" width="1" height="1" fill="#c0c0c0"/>
<rect x="6" y="18" width="1" height="1" fill="#c2c4c5"/>
<rect x="7" y="18" width="16" height="1" fill="#40636f"/>
<rect x="23" y="18" width="1" height="1" fill="#5b7780"/>
<rect x="24" y="18" width="1" height="1" fill="#cececf"/>
<rect x="25" y="18" width="1" height="1" fill="#c0c0c0"/>
<rect x="26" y="18" width="1" height="1" fill="#aeb3b5"/>
<rect x="27" y="18" width="1" height="1" fill="#40636f"/>
<rect x="3" y="19" width="1" height="1" fill="#5f7b84"/>
<rect x="4" y="19" width="1" height="1" fill="#798a90"/>
<rect x="5" y="19" width="1" height="1" fill="#c0c0c0"/>
<rect x="6" y="19" width="1" height="1" fill="#c2c4c5"/>
<rect x="7" y="19" width="17" height="1" fill="#40636f"/>
<rect x="24" y="19" width="1" height="1" fill="#94a2a6"/>
<rect x="25" y="19" width="1" height="1" fill="#c0c0c0"/>
<rect x="26" y="19" width="1" height="1" fill="#aeb3b5"/>
<rect x="27" y="19" width="1" height="1" fill="#40636f"/>
<rect x="0" y="20" width="1" height="1" fill="#d7d5d5"/>
<rect x="1" y="20" width="1" height="1" fill="#d3d5d6"/>
<rect x="3" y="20" width="1" height="1" fill="#5e7983"/>
<rect x="4" y="20" width="1" height="1" fill="#4e6c77"/>
<rect x="5" y="20" width="1" height="1" fill="#6a838b"/>
<rect x="6" y="20" width="1" height="1" fill="#677d85"/>
<rect x="7" y="20" width="17" height="1" fill="#40636f"/>
<rect x="24" y="20" width="1" height="1" fill="#416470"/>
<rect x="25" y="20" width="1" height="1" fill="#657d86"/>
<rect x="26" y="20" width="1" height="1" fill="#5d7982"/>
<rect x="27" y="20" width="1" height="1" fill="#40636f"/>
<rect x="28" y="20" width="1" height="1" fill="#5c7881"/>
<rect x="29" y="20" width="1" height="1" fill="#9daaaf"/>
<rect x="30" y="20" width="1" height="1" fill="#e6e5e5"/>
<rect x="0" y="21" width="1" height="1" fill="#d7d5d5"/>
<rect x="1" y="21" width="1" height="1" fill="#d4d5d6"/>
<rect x="3" y="21" width="1" height="1" fill="#6d838b"/>
<rect x="4" y="21" width="2" height="1" fill="#55717b"/>
<rect x="6" y="21" width="1" height="1" fill="#526e78"/>
<rect x="7" y="21" width="18" height="1" fill="#40636f"/>
<rect x="25" y="21" width="1" height="1" fill="#4f6e78"/>
<rect x="26" y="21" width="3" height="1" fill="#55717b"/>
<rect x="29" y="21" width="1" height="1" fill="#91a5ab"/>
<rect x="30" y="21" width="1" height="1" fill="#e9e7e7"/>
<rect x="7" y="22" width="17" height="1" fill="#40636f"/>
<rect x="24" y="22" width="1" height="1" fill="#87999e"/>
<rect x="7" y="23" width="16" height="1" fill="#40636f"/>
<rect x="23" y="23" width="1" height="1" fill="#546f79"/>
<rect x="7" y="24" width="16" height="1" fill="#40636f"/>
<rect x="7" y="25" width="15" height="1" fill="#40636f"/>
<rect x="22" y="25" width="1" height="1" fill="#72878f"/>
<rect x="7" y="26" width="14" height="1" fill="#40636f"/>
<rect x="21" y="26" width="1" height="1" fill="#466875"/>
</svg>