<svg xmlns="http://www.w3.org/2000/svg" width="32" height="32" viewBox="0 0 32 32" shape-rendering="crispEdges">
<rect x="1" y="7" width="19" height="1" fill="#40636f"/>
<rect x="20" y="7" width="1" height="1" fill="#466976"/>
<rect x="21" y="7" width="1" height="1" fill="#5b7983"/>
<rect x="22" y="7" width="1" height="1" fill="#4d6e79"/>
<rect x="23" y="7" width="8" height="1" fill="#40636f"/>
<rect x="31" y="7" width="1" height="1" fill="#a7aeb1"/>
<rect x="1" y="8" width="19" height="1" fill="#40636f"/>
<rect x="20" y="8" width="1" height="1" fill="#416470"/>
<rect x="21" y="8" width="1" height="1" fill="#a7b8bd"/>
<rect x="22" y="8" width="1" height="1" fill="#cfd5d8"/>
<rect x="23" y="8" width="1" height="1" fill="#d0d5d7"/>
<rect x="24" y="8" width="1" height="1" fill="#cbd0d2"/>
<rect x="25" y="8" width="2" height="1" fill="#c3cacd"/>
<rect x="27" y="8" width="1" height="1" fill="#4d6e79"/>
<rect x="28" y="8" width="3" height="1" fill="#40636f"/>
<rect x="31" y="8" width="1" height="1" fill="#a2acaf"/>
<rect x="1" y="9" width="20" height="1" fill="#40636f"/>
<rect x="21" y="9" width="1" height="1" fill="#466a76"/>
<rect x="22" y="9" width="1" height="1" fill="#b6c3c7"/>
<rect x="23" y="9" width="1" height="1" fill="#cad5d8"/>
<rect x="24" y="9" width="1" height="1" fill="#cfd5d8"/>
<rect x="25" y="9" width="1" height="1" fill="#d0d7da"/>
<rect x="26" y="9" width="1" height="1" fill="#d2dadc"/>
<rect x="27" y="9" width="1" height="1" fill="#416470"/>
<rect x="28" y="9" width="3" height="1" fill="#40636f"/>
<rect x="31" y="9" width="1" height="1" fill="#a2acaf"/>
<rect x="1" y="10" width="21" height="1" fill="#40636f"/>
<rect x="22" y="10" width="1" height="1" fill="#718a93"/>
<rect x="23" y="10" width="1" height="1" fill="#c2cfd3"/>
<rect x="24" y="10" width="1" height="1" fill="#cad1d4"/>
<rect x="25" y="10" width="1" height="1" fill="#cad5d8"/>
<rect x="26" y="10" width="1" height="1" fill="#c2cdd0"/>
<rect x="27" y="10" width="4" height="1" fill="#40636f"/>
<rect x="31" y="10" width="1" height="1" fill="#a2acaf"/>
<rect x="1" y="11" width="20" height="1" fill="#40636f"/>
<rect x="21" y="11" width="1" height="1" fill="#7a9199"/>
<rect x="22" y="11" width="1" height="1" fill="#adbdc2"/>
<rect x="23" y="11" width="1" height="1" fill="#b3c2c6"/>
<rect x="24" y="11" width="1" height="1" fill="#c3ced1"/>
<rect x="25" y="11" width="1" height="1" fill="#c6cfd3"/>
<rect x="26" y="11" width="1" height="1" fill="#b2c0c4"/>
<rect x="27" y="11" width="4" height="1" fill="#40636f"/>
<rect x="31" y="11" width="1" height="1" fill="#a2acaf"/>
<rect x="1" y="12" width="18" height="1" fill="#40636f"/>
<rect x="19" y="12" width="1" height="1" fill="#466976"/>
<rect x="20" y="12" width="1" height="1" fill="#90a7ae"/>
<rect x="21" y="12" width="2" height="1" fill="#aebec3"/>
<rect x="23" y="12" width="1" height="1" fill="#87a0a8"/>
<rect x="24" y="12" width="1" height="1" fill="#7a9199"/>
<rect x="25" y="12" width="1" height="1" fill="#c2cbcf"/>
<rect x="26" y="12" width="1" height="1" fill="#a2b3b8"/>
<rect x="27" y="12" width="4" height="1" fill="#40636f"/>
<rect x="31" y="12" width="1" height="1" fill="#a2acaf"/>
<rect x="1" y="13" width="9" height="1" fill="#40636f"/>
<rect x="10" y="13" width="1" height="1" fill="#416470"/>
<rect x="11" y="13" width="1" height="1" fill="#7e969f"/>
<rect x="12" y="13" width="1" height="1" fill="#98adb3"/>
<rect x="13" y="13" width="1" height="1" fill="#4f6d78"/>
<rect x="14" y="13" width="4" height="1" fill="#40636f"/>
<rect x="18" y="13" width="1" height="1" fill="#547681"/>
<rect x="19" y="13" width="1" height="1" fill="#a0b2b9"/>
<rect x="20" y="13" width="1" height="1" fill="#aebec3"/>
<rect x="21" y="13" width="1" height="1" fill="#acbbc1"/>
<rect x="22" y="13" width="1" height="1" fill="#718a93"/>
<rect x="23" y="13" width="2" height="1" fill="#40636f"/>
<rect x="25" y="13" width="1" height="1" fill="#8ea4ab"/>
<rect x="26" y="13" width="1" height="1" fill="#90a6ad"/>
<rect x="27" y="13" width="4" height="1" fill="#40636f"/>
<rect x="31" y="13" width="1" height="1" fill="#a2acaf"/>
<rect x="1" y="14" width="8" height="1" fill="#40636f"/>
<rect x="9" y="14" width="1" height="1" fill="#496c78"/>
<rect x="10" y="14" width="1" height="1" fill="#94a9af"/>
<rect x="11" y="14" width="2" height="1" fill="#aebec3"/>
<rect x="13" y="14" width="1" height="1" fill="#a6b8bd"/>
<rect x="14" y="14" width="1" height="1" fill="#5f7d87"/>
<rect x="15" y="14" width="2" height="1" fill="#40636f"/>
<rect x="17" y="14" width="1" height="1" fill="#6b8690"/>
<rect x="18" y="14" width="1" height="1" fill="#a9bcc2"/>
<rect x="19" y="14" width="1" height="1" fill="#aebec3"/>
<rect x="20" y="14" width="1" height="1" fill="#a4b4ba"/>
<rect x="21" y="14" width="1" height="1" fill="#587984"/>
<rect x="22" y="14" width="3" height="1" fill="#40636f"/>
<rect x="25" y="14" width="1" height="1" fill="#416470"/>
<rect x="26" y="14" width="1" height="1" fill="#5f7e88"/>
<rect x="27" y="14" width="4" height="1" fill="#40636f"/>
<rect x="31" y="14" width="1" height="1" fill="#a2acaf"/>
<rect x="1" y="15" width="7" height="1" fill="#40636f"/>
<rect x="8" y="15" width="1" height="1" fill="#587984"/>
<rect x="9" y="15" width="1" height="1" fill="#a4b4ba"/>
<rect x="10" y="15" width="1" height="1" fill="#aebec3"/>
<rect x="11" y="15" width="1" height="1" fill="#a9bcc2"/>
<rect x="12" y="15" width="1" height="1" fill="#9fb3b9"/>
<rect x="13" y="15" width="1" height="1" fill="#aebec3"/>
<rect x="14" y="15" width="1" height="1" fill="#adbcc2"/>
<rect x="15" y="15" width="1" height="1" fill="#799098"/>
<rect x="16" y="15" width="1" height="1" fill="#849aa2"/>
<rect x="17" y="15" width="2" height="1" fill="#aebec3"/>
<rect x="19" y="15" width="1" height="1" fill="#94a9af"/>
<rect x="20" y="15" width="1" height="1" fill="#496c78"/>
<rect x="21" y="15" width="10" height="1" fill="#40636f"/>
<rect x="31" y="15" width="1" height="1" fill="#a2acaf"/>
<rect x="1" y="16" width="6" height="1" fill="#40636f"/>
<rect x="7" y="16" width="1" height="1" fill="#6f8993"/>
<rect x="8" y="16" width="1" height="1" fill="#abbbc1"/>
<rect x="9" y="16" width="1" height="1" fill="#aebec3"/>
<rect x="10" y="16" width="1" height="1" fill="#a0b2b9"/>
<rect x="11" y="16" width="1" height="1" fill="#567681"/>
<rect x="12" y="16" width="1" height="1" fill="#426875"/>
<rect x="13" y="16" width="1" height="1" fill="#8aa0a7"/>
<rect x="14" y="16" width="4" height="1" fill="#aebec3"/>
<rect x="18" y="16" width="1" height="1" fill="#7f959d"/>
<rect x="19" y="16" width="1" height="1" fill="#416470"/>
<rect x="20" y="16" width="2" height="1" fill="#40636f"/>
<rect x="22" y="16" width="1" height="1" fill="#4f727e"/>
<rect x="23" y="16" width="2" height="1" fill="#7f97a0"/>
<rect x="25" y="16" width="1" height="1" fill="#64838d"/>
<rect x="26" y="16" width="5" height="1" fill="#40636f"/>
<rect x="31" y="16" width="1" height="1" fill="#a2acaf"/>
<rect x="1" y="17" width="4" height="1" fill="#40636f"/>
<rect x="5" y="17" width="1" height="1" fill="#446773"/>
<rect x="6" y="17" width="1" height="1" fill="#889ca3"/>
<rect x="7" y="17" width="2" height="1" fill="#aebec3"/>
<rect x="9" y="17" width="1" height="1" fill="#90a7ae"/>
<rect x="10" y="17" width="1" height="1" fill="#466a76"/>
<rect x="11" y="17" width="3" height="1" fill="#40636f"/>
<rect x="14" y="17" width="1" height="1" fill="#718f99"/>
<rect x="15" y="17" width="1" height="1" fill="#adbcc2"/>
<rect x="16" y="17" width="1" height="1" fill="#a8babf"/>
<rect x="17" y="17" width="1" height="1" fill="#68828c"/>
<rect x="18" y="17" width="4" height="1" fill="#40636f"/>
<rect x="22" y="17" width="1" height="1" fill="#5e7d87"/>
<rect x="23" y="17" width="3" height="1" fill="#abbbc1"/>
<rect x="26" y="17" width="1" height="1" fill="#7e949c"/>
<rect x="27" y="17" width="4" height="1" fill="#40636f"/>
<rect x="31" y="17" width="1" height="1" fill="#a2acaf"/>
<rect x="1" y="18" width="3" height="1" fill="#40636f"/>
<rect x="4" y="18" width="1" height="1" fill="#456874"/>
<rect x="5" y="18" width="1" height="1" fill="#99afb6"/>
<rect x="6" y="18" width="1" height="1" fill="#aebec3"/>
<rect x="7" y="18" width="1" height="1" fill="#adbdc2"/>
<rect x="8" y="18" width="1" height="1" fill="#7a9199"/>
<rect x="9" y="18" width="6" height="1" fill="#40636f"/>
<rect x="15" y="18" width="1" height="1" fill="#5b7a84"/>
<rect x="16" y="18" width="1" height="1" fill="#53727e"/>
<rect x="17" y="18" width="5" height="1" fill="#40636f"/>
<rect x="22" y="18" width="1" height="1" fill="#5d7c86"/>
<rect x="23" y="18" width="4" height="1" fill="#a7bac0"/>
<rect x="27" y="18" width="4" height="1" fill="#40636f"/>
<rect x="31" y="18" width="1" height="1" fill="#a2acaf"/>
<rect x="1" y="19" width="4" height="1" fill="#40636f"/>
<rect x="5" y="19" width="1" height="1" fill="#889ca3"/>
<rect x="6" y="19" width="1" height="1" fill="#a6b9bf"/>
<rect x="7" y="19" width="1" height="1" fill="#617f89"/>
<rect x="8" y="19" width="5" height="1" fill="#40636f"/>
<rect x="13" y="19" width="1" height="1" fill="#607e88"/>
<rect x="14" y="19" width="1" height="1" fill="#87a1a9"/>
<rect x="15" y="19" width="1" height="1" fill="#547681"/>
<rect x="16" y="19" width="1" height="1" fill="#61818c"/>
<rect x="17" y="19" width="1" height="1" fill="#82979f"/>
<rect x="18" y="19" width="4" height="1" fill="#40636f"/>
<rect x="22" y="19" width="1" height="1" fill="#5b7c87"/>
<rect x="23" y="19" width="4" height="1" fill="#a4b7bd"/>
<rect x="27" y="19" width="4" height="1" fill="#40636f"/>
<rect x="31" y="19" width="1" height="1" fill="#a2acaf"/>
<rect x="1" y="20" width="3" height="1" fill="#40636f"/>
<rect x="4" y="20" width="2" height="1" fill="#587984"/>
<rect x="6" y="20" width="1" height="1" fill="#4e6e7a"/>
<rect x="7" y="20" width="1" height="1" fill="#64838d"/>
<rect x="8" y="20" width="1" height="1" fill="#5d7c86"/>
<rect x="9" y="20" width="4" height="1" fill="#40636f"/>
<rect x="13" y="20" width="1" height="1" fill="#708a94"/>
<rect x="14" y="20" width="1" height="1" fill="#a7bcc2"/>
<rect x="15" y="20" width="1" height="1" fill="#a1b4ba"/>
<rect x="16" y="20" width="1" height="1" fill="#a6b9bf"/>
<rect x="17" y="20" width="1" height="1" fill="#9cb2b9"/>
<rect x="18" y="20" width="4" height="1" fill="#40636f"/>
<rect x="22" y="20" width="1" height="1" fill="#5b7b86"/>
<rect x="23" y="20" width="4" height="1" fill="#a0b4ba"/>
<rect x="27" y="20" width="4" height="1" fill="#40636f"/>
<rect x="31" y="20" width="1" height="1" fill="#a2acaf"/>
<rect x="1" y="21" width="3" height="1" fill="#40636f"/>
<rect x="4" y="21" width="1" height="1" fill="#7a939c"/>
<rect x="5" y="21" width="1" height="1" fill="#96afb7"/>
<rect x="6" y="21" width="1" height="1" fill="#79929b"/>
<rect x="7" y="21" width="1" height="1" fill="#9fb2b9"/>
<rect x="8" y="21" width="1" height="1" fill="#849ca5"/>
<rect x="9" y="21" width="4" height="1" fill="#40636f"/>
<rect x="13" y="21" width="1" height="1" fill="#6d8992"/>
<rect x="14" y="21" width="3" height="1" fill="#a6b8bd"/>
<rect x="17" y="21" width="1" height="1" fill="#97aeb5"/>
<rect x="18" y="21" width="4" height="1" fill="#40636f"/>
<rect x="22" y="21" width="1" height="1" fill="#587a85"/>
<rect x="23" y="21" width="4" height="1" fill="#9cb3ba"/>
<rect x="27" y="21" width="4" height="1" fill="#40636f"/>
<rect x="31" y="21" width="1" height="1" fill="#a2acaf"/>
<rect x="1" y="22" width="3" height="1" fill="#40636f"/>
<rect x="4" y="22" width="1" height="1" fill="#78919a"/>
<rect x="5" y="22" width="3" height="1" fill="#97afb7"/>
<rect x="8" y="22" width="1" height="1" fill="#7e969f"/>
<rect x="9" y="22" width="4" height="1" fill="#40636f"/>
<rect x="13" y="22" width="1" height="1" fill="#6a8892"/>
<rect x="14" y="22" width="3" height="1" fill="#a0b3ba"/>
<rect x="17" y="22" width="1" height="1" fill="#92abb3"/>
<rect x="18" y="22" width="4" height="1" fill="#40636f"/>
<rect x="22" y="22" width="1" height="1" fill="#577984"/>
<rect x="23" y="22" width="4" height="1" fill="#99b0b7"/>
<rect x="27" y="22" width="4" height="1" fill="#40636f"/>
<rect x="31" y="22" width="1" height="1" fill="#a2acaf"/>
<rect x="1" y="23" width="3" height="1" fill="#40636f"/>
<rect x="4" y="23" width="1" height="1" fill="#768f98"/>
<rect x="5" y="23" width="3" height="1" fill="#94acb4"/>
<rect x="8" y="23" width="1" height="1" fill="#7b949d"/>
<rect x="9" y="23" width="4" height="1" fill="#40636f"/>
<rect x="13" y="23" width="1" height="1" fill="#688690"/>
<rect x="14" y="23" width="3" height="1" fill="#9ab2ba"/>
<rect x="17" y="23" width="1" height="1" fill="#90a7ae"/>
<rect x="18" y="23" width="4" height="1" fill="#40636f"/>
<rect x="22" y="23" width="1" height="1" fill="#567883"/>
<rect x="23" y="23" width="4" height="1" fill="#94adb5"/>
<rect x="27" y="23" width="4" height="1" fill="#40636f"/>
<rect x="31" y="23" width="1" height="1" fill="#a2acaf"/>
<rect x="1" y="24" width="3" height="1" fill="#40636f"/>
<rect x="4" y="24" width="1" height="1" fill="#718e99"/>
<rect x="5" y="24" width="3" height="1" fill="#90aab2"/>
<rect x="8" y="24" width="1" height="1" fill="#79939d"/>
<rect x="9" y="24" width="4" height="1" fill="#40636f"/>
<rect x="13" y="24" width="1" height="1" fill="#68838d"/>
<rect x="14" y="24" width="3" height="1" fill="#96aeb6"/>
<rect x="17" y="24" width="1" height="1" fill="#89a5ae"/>
<rect x="18" y="24" width="4" height="1" fill="#40636f"/>
<rect x="22" y="24" width="1" height="1" fill="#557884"/>
<rect x="23" y="24" width="4" height="1" fill="#93a8b0"/>
<rect x="27" y="24" width="4" height="1" fill="#40636f"/>
<rect x="31" y="24" width="1" height="1" fill="#a2acaf"/>
<rect x="1" y="25" width="3" height="1" fill="#40636f"/>
<rect x="4" y="25" width="1" height="1" fill="#718c96"/>
<rect x="5" y="25" width="3" height="1" fill="#8ea7af"/>
<rect x="8" y="25" width="1" height="1" fill="#78919a"/>
<rect x="9" y="25" width="4" height="1" fill="#40636f"/>
<rect x="13" y="25" width="1" height="1" fill="#62828e"/>
<rect x="14" y="25" width="3" height="1" fill="#90aab2"/>
<rect x="17" y="25" width="1" height="1" fill="#85a0a9"/>
<rect x="18" y="25" width="4" height="1" fill="#40636f"/>
<rect x="22" y="25" width="1" height="1" fill="#547783"/>
<rect x="23" y="25" width="4" height="1" fill="#8ea7af"/>
<rect x="27" y="25" width="4" height="1" fill="#40636f"/>
<rect x="31" y="25" width="1" height="1" fill="#a2acaf"/>
<rect x="1" y="26" width="3" height="1" fill="#40636f"/>
<rect x="4" y="26" width="1" height="1" fill="#6c8994"/>
<rect x="5" y="26" width="2" height="1" fill="#88a1aa"/>
<rect x="7" y="26" width="1" height="1" fill="#88a2aa"/>
<rect x="8" y="26" width="1" height="1" fill="#718f99"/>
<rect x="9" y="26" width="4" height="1" fill="#40636f"/>
<rect x="13" y="26" width="1" height="1" fill="#5f818c"/>
<rect x="14" y="26" width="3" height="1" fill="#8ca5ae"/>
<rect x="17" y="26" width="1" height="1" fill="#829ca6"/>
<rect x="18" y="26" width="4" height="1" fill="#40636f"/>
<rect x="22" y="26" width="1" height="1" fill="#547681"/>
<rect x="23" y="26" width="4" height="1" fill="#8aa4ac"/>
<rect x="27" y="26" width="4" height="1" fill="#40636f"/>
<rect x="31" y="26" width="1" height="1" fill="#a2acaf"/>
<rect x="1" y="27" width="3" height="1" fill="#40636f"/>
<rect x="4" y="27" width="1" height="1" fill="#547681"/>
<rect x="5" y="27" width="3" height="1" fill="#61828d"/>
<rect x="8" y="27" width="1" height="1" fill="#567883"/>
<rect x="9" y="27" width="4" height="1" fill="#40636f"/>
<rect x="13" y="27" width="1" height="1" fill="#4e717e"/>
<rect x="14" y="27" width="3" height="1" fill="#67848f"/>
<rect x="17" y="27" width="1" height="1" fill="#5f808c"/>
<rect x="18" y="27" width="4" height="1" fill="#40636f"/>
<rect x="22" y="27" width="1" height="1" fill="#4b6b77"/>
<rect x="23" y="27" width="4" height="1" fill="#67848f"/>
<rect x="27" y="27" width="4" height="1" fill="#40636f"/>
<rect x="31" y="27" width="1" height="1" fill="#a2acaf"/>
<rect x="1" y="28" width="30" height="1" fill="#40636f"/>
<rect x="31" y="28" width="1" height="1" fill="#a2acaf"/>
<rect x="1" y="29" width="30" height="1" fill="#9fa9ad"/>
</svg>