<svg xmlns="http://www.w3.org/2000/svg" width="32" height="32" viewBox="0 0 32 32" shape-rendering="crispEdges">
<rect x="14" y="3" width="2" height="1" fill="#9aaaaf"/>
<rect x="16" y="3" width="1" height="1" fill="#a0adb2"/>
<rect x="10" y="4" width="1" height="1" fill="#a0afb3"/>
<rect x="14" y="4" width="1" height="1" fill="#889ea5"/>
<rect x="15" y="4" width="1" height="1" fill="#8ba0a6"/>
<rect x="16" y="4" width="1" height="1" fill="#8ea2a8"/>
<rect x="8" y="5" width="1" height="1" fill="#8c9fa5"/>
<rect x="9" y="5" width="1" height="1" fill="#7d929a"/>
<rect x="10" y="5" width="1" height="1" fill="#7f939a"/>
<rect x="11" y="5" width="1" height="1" fill="#a1aeb2"/>
<rect x="13" y="5" width="1" height="1" fill="#97a7ac"/>
<rect x="14" y="5" width="1" height="1" fill="#889ea5"/>
<rect x="15" y="5" width="1" height="1" fill="#8ba0a6"/>
<rect x="16" y="5" width="1" height="1" fill="#8fa2a8"/>
<rect x="19" y="5" width="1" height="1" fill="#a4b3b7"/>
<rect x="20" y="5" width="1" height="1" fill="#99a9af"/>
<rect x="8" y="6" width="1" height="1" fill="#7a9098"/>
<rect x="9" y="6" width="1" height="1" fill="#7b9199"/>
<rect x="10" y="6" width="1" height="1" fill="#7d929a"/>
<rect x="11" y="6" width="1" height="1" fill="#81949b"/>
<rect x="12" y="6" width="1" height="1" fill="#84979e"/>
<rect x="13" y="6" width="1" height="1" fill="#86989f"/>
<rect x="14" y="6" width="1" height="1" fill="#879da4"/>
<rect x="15" y="6" width="1" height="1" fill="#8c9da3"/>
<rect x="16" y="6" width="1" height="1" fill="#8fa2a8"/>
<rect x="17" y="6" width="1" height="1" fill="#91a5ab"/>
<rect x="18" y="6" width="1" height="1" fill="#94a7ad"/>
<rect x="19" y="6" width="1" height="1" fill="#98a8ae"/>
<rect x="20" y="6" width="1" height="1" fill="#99acb2"/>
<rect x="21" y="6" width="1" height="1" fill="#d1d8db"/>
<rect x="22" y="6" width="1" height="1" fill="#9caeb3"/>
<rect x="8" y="7" width="1" height="1" fill="#889da3"/>
<rect x="9" y="7" width="1" height="1" fill="#7a9098"/>
<rect x="10" y="7" width="1" height="1" fill="#7b9199"/>
<rect x="11" y="7" width="1" height="1" fill="#7e939b"/>
<rect x="12" y="7" width="1" height="1" fill="#82959c"/>
<rect x="13" y="7" width="1" height="1" fill="#839ca4"/>
<rect x="14" y="7" width="1" height="1" fill="#91a4aa"/>
<rect x="15" y="7" width="1" height="1" fill="#97a7ac"/>
<rect x="16" y="7" width="1" height="1" fill="#93a6ac"/>
<rect x="17" y="7" width="1" height="1" fill="#91a5ab"/>
<rect x="18" y="7" width="1" height="1" fill="#94a7ad"/>
<rect x="19" y="7" width="1" height="1" fill="#97aab0"/>
<rect x="5" y="8" width="1" height="1" fill="#9aa7ac"/>
<rect x="8" y="8" width="1" height="1" fill="#8399a0"/>
<rect x="9" y="8" width="1" height="1" fill="#798e96"/>
<rect x="10" y="8" width="1" height="1" fill="#7a9098"/>
<rect x="11" y="8" width="1" height="1" fill="#8fa3a9"/>
<rect x="19" y="8" width="1" height="1" fill="#a1b3b8"/>
<rect x="21" y="8" width="1" height="1" fill="#99a9af"/>
<rect x="4" y="9" width="1" height="1" fill="#8e9fa4"/>
<rect x="5" y="9" width="1" height="1" fill="#708891"/>
<rect x="6" y="9" width="1" height="1" fill="#728a93"/>
<rect x="7" y="9" width="1" height="1" fill="#738b94"/>
<rect x="8" y="9" width="1" height="1" fill="#778c94"/>
<rect x="9" y="9" width="1" height="1" fill="#798f97"/>
<rect x="21" y="9" width="2" height="1" fill="#97a7ad"/>
<rect x="23" y="9" width="1" height="1" fill="#93a7ad"/>
<rect x="24" y="9" width="1" height="1" fill="#92a6ac"/>
<rect x="25" y="9" width="1" height="1" fill="#91a4aa"/>
<rect x="4" y="10" width="1" height="1" fill="#6d868f"/>
<rect x="5" y="10" width="1" height="1" fill="#6e8790"/>
<rect x="6" y="10" width="1" height="1" fill="#6f8891"/>
<rect x="7" y="10" width="1" height="1" fill="#718992"/>
<rect x="8" y="10" width="1" height="1" fill="#738b94"/>
<rect x="15" y="10" width="1" height="1" fill="#a5b0b3"/>
<rect x="22" y="10" width="1" height="1" fill="#93a7ad"/>
<rect x="23" y="10" width="1" height="1" fill="#91a5ab"/>
<rect x="24" y="10" width="1" height="1" fill="#90a3a9"/>
<rect x="25" y="10" width="1" height="1" fill="#8fa3a9"/>
<rect x="26" y="10" width="1" height="1" fill="#92a5ab"/>
<rect x="4" y="11" width="1" height="1" fill="#7c8e95"/>
<rect x="5" y="11" width="1" height="1" fill="#6c858e"/>
<rect x="6" y="11" width="1" height="1" fill="#6d868f"/>
<rect x="7" y="11" width="1" height="1" fill="#6e8790"/>
<rect x="8" y="11" width="1" height="1" fill="#a5b1b4"/>
<rect x="15" y="11" width="1" height="1" fill="#76888f"/>
<rect x="22" y="11" width="1" height="1" fill="#a0afb3"/>
<rect x="23" y="11" width="1" height="1" fill="#8fa3a9"/>
<rect x="24" y="11" width="1" height="1" fill="#8ea2a8"/>
<rect x="25" y="11" width="1" height="1" fill="#8ba0a6"/>
<rect x="5" y="12" width="1" height="1" fill="#7b8e95"/>
<rect x="6" y="12" width="1" height="1" fill="#6b848d"/>
<rect x="7" y="12" width="1" height="1" fill="#798e96"/>
<rect x="15" y="12" width="1" height="1" fill="#476a76"/>
<rect x="23" y="12" width="1" height="1" fill="#8ba0a6"/>
<rect x="24" y="12" width="1" height="1" fill="#8ea1a7"/>
<rect x="5" y="13" width="1" height="1" fill="#778c94"/>
<rect x="6" y="13" width="1" height="1" fill="#67828c"/>
<rect x="7" y="13" width="1" height="1" fill="#a1acb0"/>
<rect x="15" y="13" width="1" height="1" fill="#44646f"/>
<rect x="3" y="14" width="1" height="1" fill="#81959b"/>
<rect x="4" y="14" width="1" height="1" fill="#68818a"/>
<rect x="5" y="14" width="2" height="1" fill="#647f88"/>
<rect x="14" y="14" width="1" height="1" fill="#a7aeb1"/>
<rect x="15" y="14" width="1" height="1" fill="#456874"/>
<rect x="16" y="14" width="1" height="1" fill="#9aa7ab"/>
<rect x="2" y="15" width="1" height="1" fill="#9daaae"/>
<rect x="3" y="15" width="1" height="1" fill="#607e88"/>
<rect x="4" y="15" width="2" height="1" fill="#617c86"/>
<rect x="6" y="15" width="1" height="1" fill="#617d86"/>
<rect x="14" y="15" width="1" height="1" fill="#a5afb2"/>
<rect x="15" y="15" width="1" height="1" fill="#456874"/>
<rect x="16" y="15" width="1" height="1" fill="#506e79"/>
<rect x="23" y="15" width="1" height="1" fill="#94a2a6"/>
<rect x="24" y="15" width="1" height="1" fill="#6f848c"/>
<rect x="2" y="16" width="1" height="1" fill="#9ca8ab"/>
<rect x="3" y="16" width="1" height="1" fill="#607b85"/>
<rect x="4" y="16" width="3" height="1" fill="#5f7a84"/>
<rect x="15" y="16" width="1" height="1" fill="#456874"/>
<rect x="16" y="16" width="1" height="1" fill="#4b6b77"/>
<rect x="17" y="16" width="1" height="1" fill="#567681"/>
<rect x="24" y="16" width="1" height="1" fill="#40636f"/>
<rect x="25" y="16" width="1" height="1" fill="#466875"/>
<rect x="26" y="16" width="1" height="1" fill="#99a6aa"/>
<rect x="3" y="17" width="1" height="1" fill="#6f858d"/>
<rect x="4" y="17" width="1" height="1" fill="#5c7982"/>
<rect x="5" y="17" width="2" height="1" fill="#5b7983"/>
<rect x="15" y="17" width="1" height="1" fill="#567782"/>
<rect x="16" y="17" width="1" height="1" fill="#4f6d78"/>
<rect x="17" y="17" width="1" height="1" fill="#53727e"/>
<rect x="18" y="17" width="1" height="1" fill="#567883"/>
<rect x="19" y="17" width="1" height="1" fill="#607d86"/>
<rect x="20" y="17" width="1" height="1" fill="#8499a0"/>
<rect x="21" y="17" width="1" height="1" fill="#92a5ab"/>
<rect x="22" y="17" width="1" height="1" fill="#95a6ab"/>
<rect x="23" y="17" width="1" height="1" fill="#90a1a6"/>
<rect x="24" y="17" width="2" height="1" fill="#40636f"/>
<rect x="26" y="17" width="1" height="1" fill="#456874"/>
<rect x="27" y="17" width="1" height="1" fill="#6f8790"/>
<rect x="5" y="18" width="1" height="1" fill="#67818b"/>
<rect x="6" y="18" width="1" height="1" fill="#567681"/>
<rect x="7" y="18" width="1" height="1" fill="#9faaad"/>
<rect x="15" y="18" width="1" height="1" fill="#a4abae"/>
<rect x="16" y="18" width="1" height="1" fill="#4f707b"/>
<rect x="17" y="18" width="1" height="1" fill="#547681"/>
<rect x="18" y="18" width="1" height="1" fill="#587984"/>
<rect x="19" y="18" width="1" height="1" fill="#5e7d87"/>
<rect x="20" y="18" width="1" height="1" fill="#60828d"/>
<rect x="21" y="18" width="1" height="1" fill="#67858f"/>
<rect x="22" y="18" width="1" height="1" fill="#69848e"/>
<rect x="23" y="18" width="1" height="1" fill="#6e8892"/>
<rect x="24" y="18" width="1" height="1" fill="#456874"/>
<rect x="25" y="18" width="1" height="1" fill="#40636f"/>
<rect x="26" y="18" width="1" height="1" fill="#4e6e7a"/>
<rect x="27" y="18" width="1" height="1" fill="#597b86"/>
<rect x="28" y="18" width="1" height="1" fill="#6b8690"/>
<rect x="5" y="19" width="1" height="1" fill="#6f858d"/>
<rect x="6" y="19" width="1" height="1" fill="#55727d"/>
<rect x="7" y="19" width="1" height="1" fill="#6c838c"/>
<rect x="16" y="19" width="1" height="1" fill="#a4acaf"/>
<rect x="17" y="19" width="1" height="1" fill="#567985"/>
<rect x="18" y="19" width="1" height="1" fill="#5c7b85"/>
<rect x="19" y="19" width="1" height="1" fill="#607f89"/>
<rect x="20" y="19" width="1" height="1" fill="#65838e"/>
<rect x="21" y="19" width="1" height="1" fill="#67858f"/>
<rect x="22" y="19" width="1" height="1" fill="#6b8690"/>
<rect x="23" y="19" width="1" height="1" fill="#708a94"/>
<rect x="24" y="19" width="1" height="1" fill="#4f6f7b"/>
<rect x="25" y="19" width="1" height="1" fill="#476a77"/>
<rect x="26" y="19" width="1" height="1" fill="#547783"/>
<rect x="27" y="19" width="1" height="1" fill="#60828d"/>
<rect x="28" y="19" width="1" height="1" fill="#9cacb1"/>
<rect x="4" y="20" width="1" height="1" fill="#72888f"/>
<rect x="5" y="20" width="1" height="1" fill="#54727d"/>
<rect x="6" y="20" width="1" height="1" fill="#53717c"/>
<rect x="7" y="20" width="1" height="1" fill="#506e79"/>
<rect x="8" y="20" width="1" height="1" fill="#a5b0b3"/>
<rect x="18" y="20" width="1" height="1" fill="#94a5aa"/>
<rect x="19" y="20" width="1" height="1" fill="#6c8891"/>
<rect x="20" y="20" width="1" height="1" fill="#67858f"/>
<rect x="21" y="20" width="1" height="1" fill="#69848e"/>
<rect x="22" y="20" width="1" height="1" fill="#6e8892"/>
<rect x="23" y="20" width="1" height="1" fill="#718c96"/>
<rect x="24" y="20" width="1" height="1" fill="#60818c"/>
<rect x="25" y="20" width="1" height="1" fill="#4f717e"/>
<rect x="26" y="20" width="1" height="1" fill="#5e7d87"/>
<rect x="27" y="20" width="1" height="1" fill="#7a959e"/>
<rect x="4" y="21" width="1" height="1" fill="#53717c"/>
<rect x="5" y="21" width="1" height="1" fill="#526f7a"/>
<rect x="6" y="21" width="1" height="1" fill="#4f6d78"/>
<rect x="7" y="21" width="1" height="1" fill="#4f6c77"/>
<rect x="8" y="21" width="1" height="1" fill="#546f79"/>
<rect x="25" y="21" width="1" height="1" fill="#567883"/>
<rect x="26" y="21" width="1" height="1" fill="#67858f"/>
<rect x="4" y="22" width="1" height="1" fill="#6e848c"/>
<rect x="5" y="22" width="1" height="1" fill="#4f6d78"/>
<rect x="6" y="22" width="1" height="1" fill="#4f6c77"/>
<rect x="7" y="22" width="1" height="1" fill="#4b6c77"/>
<rect x="8" y="22" width="1" height="1" fill="#4a6a76"/>
<rect x="9" y="22" width="1" height="1" fill="#556f79"/>
<rect x="20" y="22" width="1" height="1" fill="#a1acb0"/>
<rect x="25" y="22" width="1" height="1" fill="#5f7e88"/>
<rect x="5" y="23" width="1" height="1" fill="#718a92"/>
<rect x="6" y="23" width="1" height="1" fill="#a2acaf"/>
<rect x="8" y="23" width="1" height="1" fill="#557580"/>
<rect x="9" y="23" width="1" height="1" fill="#466975"/>
<rect x="10" y="23" width="1" height="1" fill="#446773"/>
<rect x="11" y="23" width="1" height="1" fill="#7f9196"/>
<rect x="19" y="23" width="1" height="1" fill="#7a8f96"/>
<rect x="20" y="23" width="1" height="1" fill="#5f7d87"/>
<rect x="21" y="23" width="1" height="1" fill="#71878f"/>
<rect x="25" y="23" width="1" height="1" fill="#90a3a9"/>
<rect x="8" y="24" width="1" height="1" fill="#678189"/>
<rect x="9" y="24" width="1" height="1" fill="#446875"/>
<rect x="10" y="24" width="1" height="1" fill="#44646f"/>
<rect x="11" y="24" width="1" height="1" fill="#40636f"/>
<rect x="12" y="24" width="1" height="1" fill="#44646f"/>
<rect x="13" y="24" width="1" height="1" fill="#557580"/>
<rect x="14" y="24" width="1" height="1" fill="#778990"/>
<rect x="15" y="24" width="1" height="1" fill="#7b9198"/>
<rect x="16" y="24" width="1" height="1" fill="#758c93"/>
<rect x="17" y="24" width="1" height="1" fill="#5d7982"/>
<rect x="18" y="24" width="1" height="1" fill="#577782"/>
<rect x="19" y="24" width="1" height="1" fill="#5c7982"/>
<rect x="20" y="24" width="1" height="1" fill="#5f7a84"/>
<rect x="21" y="24" width="1" height="1" fill="#607e88"/>
<rect x="22" y="24" width="1" height="1" fill="#a3adb1"/>
<rect x="8" y="25" width="1" height="1" fill="#446875"/>
<rect x="9" y="25" width="1" height="1" fill="#44646f"/>
<rect x="10" y="25" width="2" height="1" fill="#42626e"/>
<rect x="12" y="25" width="1" height="1" fill="#436774"/>
<rect x="13" y="25" width="1" height="1" fill="#456874"/>
<rect x="14" y="25" width="1" height="1" fill="#4a6a76"/>
<rect x="15" y="25" width="1" height="1" fill="#4f6c77"/>
<rect x="16" y="25" width="1" height="1" fill="#526f7a"/>
<rect x="17" y="25" width="1" height="1" fill="#54727d"/>
<rect x="18" y="25" width="1" height="1" fill="#567681"/>
<rect x="19" y="25" width="1" height="1" fill="#5b7983"/>
<rect x="20" y="25" width="1" height="1" fill="#5d7a83"/>
<rect x="21" y="25" width="1" height="1" fill="#607b85"/>
<rect x="22" y="25" width="1" height="1" fill="#7d8f96"/>
<rect x="8" y="26" width="1" height="1" fill="#546f79"/>
<rect x="9" y="26" width="1" height="1" fill="#42626e"/>
<rect x="10" y="26" width="1" height="1" fill="#40636f"/>
<rect x="11" y="26" width="1" height="1" fill="#83959a"/>
<rect x="13" y="26" width="1" height="1" fill="#6f8890"/>
<rect x="14" y="26" width="1" height="1" fill="#4a6a76"/>
<rect x="15" y="26" width="1" height="1" fill="#4f6c77"/>
<rect x="16" y="26" width="1" height="1" fill="#526f7a"/>
<rect x="17" y="26" width="1" height="1" fill="#8e9ea3"/>
<rect x="19" y="26" width="1" height="1" fill="#6e868f"/>
<rect x="20" y="26" width="1" height="1" fill="#5c7982"/>
<rect x="21" y="26" width="1" height="1" fill="#5f7a84"/>
<rect x="22" y="26" width="1" height="1" fill="#80949a"/>
<rect x="9" y="27" width="1" height="1" fill="#8e9ca0"/>
<rect x="10" y="27" width="1" height="1" fill="#788f96"/>
<rect x="13" y="27" width="1" height="1" fill="#9aa7ab"/>
<rect x="14" y="27" width="1" height="1" fill="#4b6c77"/>
<rect x="15" y="27" width="1" height="1" fill="#4f6c77"/>
<rect x="16" y="27" width="1" height="1" fill="#526f7a"/>
<rect x="20" y="27" width="1" height="1" fill="#788c93"/>
<rect x="14" y="28" width="1" height="1" fill="#577680"/>
<rect x="15" y="28" width="1" height="1" fill="#57727c"/>
<rect x="16" y="28" width="1" height="1" fill="#607b85"/>
</svg>