<svg xmlns="http://www.w3.org/2000/svg" width="32" height="32" viewBox="0 0 32 32" shape-rendering="crispEdges">
<rect x="2" y="2" width="1" height="1" fill="#6f8b94"/>
<rect x="3" y="2" width="1" height="1" fill="#718f99"/>
<rect x="4" y="2" width="1" height="1" fill="#79919a"/>
<rect x="5" y="2" width="1" height="1" fill="#7a929b"/>
<rect x="6" y="2" width="1" height="1" fill="#7e949c"/>
<rect x="7" y="2" width="1" height="1" fill="#84989f"/>
<rect x="8" y="2" width="1" height="1" fill="#889ca3"/>
<rect x="9" y="2" width="1" height="1" fill="#889da5"/>
<rect x="10" y="2" width="1" height="1" fill="#8ba1a8"/>
<rect x="11" y="2" width="1" height="1" fill="#8fa6ad"/>
<rect x="12" y="2" width="1" height="1" fill="#95a8af"/>
<rect x="13" y="2" width="1" height="1" fill="#96a9b0"/>
<rect x="14" y="2" width="1" height="1" fill="#98adb3"/>
<rect x="15" y="2" width="1" height="1" fill="#9cb1b7"/>
<rect x="16" y="2" width="1" height="1" fill="#9db2b8"/>
<rect x="17" y="2" width="1" height="1" fill="#a2b2b8"/>
<rect x="2" y="3" width="1" height="1" fill="#6e8a93"/>
<rect x="3" y="3" width="1" height="1" fill="#6f8b94"/>
<rect x="4" y="3" width="1" height="1" fill="#718f99"/>
<rect x="5" y="3" width="1" height="1" fill="#79919a"/>
<rect x="6" y="3" width="1" height="1" fill="#7a929b"/>
<rect x="7" y="3" width="1" height="1" fill="#7e949c"/>
<rect x="8" y="3" width="1" height="1" fill="#84989f"/>
<rect x="9" y="3" width="1" height="1" fill="#889ca3"/>
<rect x="10" y="3" width="1" height="1" fill="#889da5"/>
<rect x="11" y="3" width="1" height="1" fill="#8ba1a8"/>
<rect x="12" y="3" width="1" height="1" fill="#8fa6ad"/>
<rect x="13" y="3" width="1" height="1" fill="#95a8af"/>
<rect x="14" y="3" width="1" height="1" fill="#96a9b0"/>
<rect x="15" y="3" width="1" height="1" fill="#98adb3"/>
<rect x="16" y="3" width="1" height="1" fill="#9cb1b7"/>
<rect x="17" y="3" width="1" height="1" fill="#9db2b8"/>
<rect x="18" y="3" width="1" height="1" fill="#a2b2b8"/>
<rect x="2" y="4" width="1" height="1" fill="#688690"/>
<rect x="3" y="4" width="1" height="1" fill="#6e8a93"/>
<rect x="4" y="4" width="1" height="1" fill="#778f98"/>
<rect x="5" y="4" width="1" height="1" fill="#97aab1"/>
<rect x="6" y="4" width="1" height="1" fill="#9aaeb4"/>
<rect x="7" y="4" width="1" height="1" fill="#a2b2b8"/>
<rect x="22" y="4" width="1" height="1" fill="#cad5d8"/>
<rect x="23" y="4" width="1" height="1" fill="#cfd6d9"/>
<rect x="24" y="4" width="1" height="1" fill="#d0d8db"/>
<rect x="25" y="4" width="1" height="1" fill="#d1dadc"/>
<rect x="26" y="4" width="1" height="1" fill="#d2dadc"/>
<rect x="2" y="5" width="1" height="1" fill="#63828c"/>
<rect x="3" y="5" width="1" height="1" fill="#688690"/>
<rect x="4" y="5" width="1" height="1" fill="#7a9098"/>
<rect x="5" y="5" width="1" height="1" fill="#a1b3b8"/>
<rect x="6" y="5" width="1" height="1" fill="#a3b4b9"/>
<rect x="18" y="5" width="1" height="1" fill="#ccd4d7"/>
<rect x="19" y="5" width="1" height="1" fill="#cfd5d8"/>
<rect x="20" y="5" width="1" height="1" fill="#d1d6d8"/>
<rect x="21" y="5" width="1" height="1" fill="#d1dadc"/>
<rect x="22" y="5" width="1" height="1" fill="#d6dbdd"/>
<rect x="23" y="5" width="1" height="1" fill="#d6dcdf"/>
<rect x="24" y="5" width="1" height="1" fill="#dadfe1"/>
<rect x="25" y="5" width="1" height="1" fill="#dbe0e2"/>
<rect x="26" y="5" width="1" height="1" fill="#dce1e3"/>
<rect x="2" y="6" width="1" height="1" fill="#607e88"/>
<rect x="3" y="6" width="1" height="1" fill="#63828c"/>
<rect x="4" y="6" width="1" height="1" fill="#738c95"/>
<rect x="5" y="6" width="1" height="1" fill="#a0b3b9"/>
<rect x="6" y="6" width="1" height="1" fill="#a1b3b8"/>
<rect x="7" y="6" width="1" height="1" fill="#a3b4b9"/>
<rect x="19" y="6" width="1" height="1" fill="#ccd4d7"/>
<rect x="20" y="6" width="1" height="1" fill="#cfd5d8"/>
<rect x="21" y="6" width="1" height="1" fill="#d1d6d8"/>
<rect x="22" y="6" width="1" height="1" fill="#d1dadc"/>
<rect x="23" y="6" width="1" height="1" fill="#d6dbdd"/>
<rect x="24" y="6" width="1" height="1" fill="#d6dcdf"/>
<rect x="25" y="6" width="1" height="1" fill="#dadfe1"/>
<rect x="26" y="6" width="1" height="1" fill="#dbe1e2"/>
<rect x="2" y="7" width="1" height="1" fill="#5f7d87"/>
<rect x="3" y="7" width="1" height="1" fill="#607e88"/>
<rect x="4" y="7" width="1" height="1" fill="#6e8993"/>
<rect x="5" y="7" width="1" height="1" fill="#9cafb5"/>
<rect x="6" y="7" width="1" height="1" fill="#a0b3b9"/>
<rect x="7" y="7" width="1" height="1" fill="#a1b3b8"/>
<rect x="8" y="7" width="1" height="1" fill="#a3b4b9"/>
<rect x="20" y="7" width="1" height="1" fill="#ccd4d7"/>
<rect x="21" y="7" width="1" height="1" fill="#cfd5d8"/>
<rect x="22" y="7" width="1" height="1" fill="#d0d7da"/>
<rect x="23" y="7" width="1" height="1" fill="#d1dadc"/>
<rect x="24" y="7" width="1" height="1" fill="#d6dbdd"/>
<rect x="25" y="7" width="1" height="1" fill="#d6dcdf"/>
<rect x="26" y="7" width="1" height="1" fill="#dadfe1"/>
<rect x="2" y="8" width="1" height="1" fill="#587984"/>
<rect x="3" y="8" width="1" height="1" fill="#5f7d87"/>
<rect x="4" y="8" width="1" height="1" fill="#698791"/>
<rect x="5" y="8" width="1" height="1" fill="#98adb3"/>
<rect x="6" y="8" width="1" height="1" fill="#9cafb5"/>
<rect x="7" y="8" width="1" height="1" fill="#a0b3b9"/>
<rect x="8" y="8" width="1" height="1" fill="#a1b3b8"/>
<rect x="9" y="8" width="1" height="1" fill="#a3b4b9"/>
<rect x="21" y="8" width="1" height="1" fill="#ccd4d7"/>
<rect x="22" y="8" width="1" height="1" fill="#cfd5d8"/>
<rect x="23" y="8" width="1" height="1" fill="#d0d7da"/>
<rect x="24" y="8" width="1" height="1" fill="#d1dadc"/>
<rect x="25" y="8" width="1" height="1" fill="#d6dbdd"/>
<rect x="26" y="8" width="1" height="1" fill="#d7dcde"/>
<rect x="2" y="9" width="1" height="1" fill="#557681"/>
<rect x="3" y="9" width="1" height="1" fill="#587984"/>
<rect x="4" y="9" width="1" height="1" fill="#688690"/>
<rect x="5" y="9" width="1" height="1" fill="#97abb1"/>
<rect x="6" y="9" width="1" height="1" fill="#98adb3"/>
<rect x="7" y="9" width="1" height="1" fill="#9cafb5"/>
<rect x="8" y="9" width="1" height="1" fill="#a0b3b9"/>
<rect x="9" y="9" width="1" height="1" fill="#a1b3b8"/>
<rect x="10" y="9" width="1" height="1" fill="#a3b4b9"/>
<rect x="22" y="9" width="1" height="1" fill="#ccd5d7"/>
<rect x="23" y="9" width="1" height="1" fill="#cfd5d8"/>
<rect x="24" y="9" width="1" height="1" fill="#d0d7da"/>
<rect x="25" y="9" width="1" height="1" fill="#d2dadd"/>
<rect x="26" y="9" width="1" height="1" fill="#d6dbdd"/>
<rect x="2" y="10" width="1" height="1" fill="#547580"/>
<rect x="3" y="10" width="1" height="1" fill="#557681"/>
<rect x="4" y="10" width="1" height="1" fill="#63828c"/>
<rect x="5" y="10" width="1" height="1" fill="#96a9af"/>
<rect x="6" y="10" width="1" height="1" fill="#97abb1"/>
<rect x="7" y="10" width="1" height="1" fill="#98adb3"/>
<rect x="8" y="10" width="1" height="1" fill="#9cafb5"/>
<rect x="9" y="10" width="1" height="1" fill="#a0b3b9"/>
<rect x="10" y="10" width="1" height="1" fill="#a1b3b8"/>
<rect x="11" y="10" width="1" height="1" fill="#a3b4b9"/>
<rect x="23" y="10" width="1" height="1" fill="#ccd4d7"/>
<rect x="24" y="10" width="1" height="1" fill="#cfd5d8"/>
<rect x="25" y="10" width="1" height="1" fill="#d0d7da"/>
<rect x="26" y="10" width="1" height="1" fill="#d2dbdd"/>
<rect x="2" y="11" width="1" height="1" fill="#4e6f7a"/>
<rect x="3" y="11" width="1" height="1" fill="#547580"/>
<rect x="4" y="11" width="1" height="1" fill="#5f7e88"/>
<rect x="5" y="11" width="1" height="1" fill="#91a7ae"/>
<rect x="6" y="11" width="1" height="1" fill="#96a9af"/>
<rect x="7" y="11" width="1" height="1" fill="#97abb1"/>
<rect x="8" y="11" width="1" height="1" fill="#98adb3"/>
<rect x="9" y="11" width="1" height="1" fill="#9cafb5"/>
<rect x="10" y="11" width="1" height="1" fill="#a0b3b9"/>
<rect x="11" y="11" width="1" height="1" fill="#a1b3b8"/>
<rect x="12" y="11" width="1" height="1" fill="#a3b4b9"/>
<rect x="25" y="11" width="1" height="1" fill="#ced5d8"/>
<rect x="26" y="11" width="1" height="1" fill="#d0d7da"/>
<rect x="2" y="12" width="1" height="1" fill="#4a6a76"/>
<rect x="3" y="12" width="1" height="1" fill="#4e6f7a"/>
<rect x="4" y="12" width="1" height="1" fill="#5e7d87"/>
<rect x="5" y="12" width="1" height="1" fill="#8fa5ac"/>
<rect x="6" y="12" width="1" height="1" fill="#91a7ae"/>
<rect x="7" y="12" width="1" height="1" fill="#96a9af"/>
<rect x="8" y="12" width="1" height="1" fill="#97abb1"/>
<rect x="9" y="12" width="1" height="1" fill="#98adb3"/>
<rect x="10" y="12" width="1" height="1" fill="#9cafb5"/>
<rect x="11" y="12" width="1" height="1" fill="#a0b3b9"/>
<rect x="12" y="12" width="1" height="1" fill="#a1b3b8"/>
<rect x="13" y="12" width="1" height="1" fill="#a3b4b9"/>
<rect x="2" y="13" width="1" height="1" fill="#456874"/>
<rect x="3" y="13" width="1" height="1" fill="#4a6a76"/>
<rect x="4" y="13" width="1" height="1" fill="#587984"/>
<rect x="5" y="13" width="1" height="1" fill="#8ea4ab"/>
<rect x="6" y="13" width="1" height="1" fill="#8fa5ac"/>
<rect x="7" y="13" width="1" height="1" fill="#91a7ae"/>
<rect x="8" y="13" width="1" height="1" fill="#96a9af"/>
<rect x="9" y="13" width="1" height="1" fill="#97abb1"/>
<rect x="10" y="13" width="1" height="1" fill="#98adb3"/>
<rect x="11" y="13" width="1" height="1" fill="#9cafb5"/>
<rect x="12" y="13" width="1" height="1" fill="#a0b3b9"/>
<rect x="13" y="13" width="1" height="1" fill="#a1b3b8"/>
<rect x="14" y="13" width="1" height="1" fill="#a3b4b9"/>
<rect x="27" y="13" width="1" height="1" fill="#a3b3b9"/>
<rect x="28" y="13" width="1" height="1" fill="#a2b2b8"/>
<rect x="2" y="14" width="1" height="1" fill="#446773"/>
<rect x="3" y="14" width="1" height="1" fill="#456874"/>
<rect x="4" y="14" width="1" height="1" fill="#56757f"/>
<rect x="5" y="14" width="1" height="1" fill="#8b9ea5"/>
<rect x="6" y="14" width="1" height="1" fill="#8ea4ab"/>
<rect x="7" y="14" width="1" height="1" fill="#8fa5ac"/>
<rect x="8" y="14" width="1" height="1" fill="#91a7ae"/>
<rect x="9" y="14" width="1" height="1" fill="#96a9af"/>
<rect x="10" y="14" width="1" height="1" fill="#97abb1"/>
<rect x="11" y="14" width="1" height="1" fill="#98adb3"/>
<rect x="12" y="14" width="1" height="1" fill="#9cafb5"/>
<rect x="13" y="14" width="1" height="1" fill="#a0b3b9"/>
<rect x="14" y="14" width="1" height="1" fill="#a1b3b8"/>
<rect x="15" y="14" width="1" height="1" fill="#a3b4b9"/>
<rect x="27" y="14" width="1" height="1" fill="#a2b2b8"/>
<rect x="28" y="14" width="1" height="1" fill="#9db2b8"/>
<rect x="29" y="14" width="1" height="1" fill="#a2b2b8"/>
<rect x="2" y="15" width="1" height="1" fill="#40636f"/>
<rect x="3" y="15" width="1" height="1" fill="#446773"/>
<rect x="4" y="15" width="1" height="1" fill="#536f79"/>
<rect x="5" y="15" width="1" height="1" fill="#889ca3"/>
<rect x="6" y="15" width="1" height="1" fill="#8b9ea5"/>
<rect x="7" y="15" width="1" height="1" fill="#8ea4ab"/>
<rect x="8" y="15" width="1" height="1" fill="#8fa5ac"/>
<rect x="9" y="15" width="1" height="1" fill="#91a7ae"/>
<rect x="10" y="15" width="1" height="1" fill="#96a9af"/>
<rect x="11" y="15" width="1" height="1" fill="#97abb1"/>
<rect x="12" y="15" width="1" height="1" fill="#98adb3"/>
<rect x="13" y="15" width="1" height="1" fill="#9cafb5"/>
<rect x="14" y="15" width="1" height="1" fill="#a0b3b9"/>
<rect x="15" y="15" width="1" height="1" fill="#a1b3b8"/>
<rect x="16" y="15" width="1" height="1" fill="#a3b4b9"/>
<rect x="27" y="15" width="2" height="1" fill="#9cb1b7"/>
<rect x="29" y="15" width="1" height="1" fill="#9db2b8"/>
<rect x="2" y="16" width="2" height="1" fill="#40636f"/>
<rect x="4" y="16" width="1" height="1" fill="#526e78"/>
<rect x="5" y="16" width="1" height="1" fill="#859aa2"/>
<rect x="6" y="16" width="1" height="1" fill="#889ca3"/>
<rect x="7" y="16" width="1" height="1" fill="#8b9ea5"/>
<rect x="8" y="16" width="1" height="1" fill="#8ea4ab"/>
<rect x="9" y="16" width="1" height="1" fill="#8fa5ac"/>
<rect x="10" y="16" width="1" height="1" fill="#91a7ae"/>
<rect x="11" y="16" width="1" height="1" fill="#96a9af"/>
<rect x="12" y="16" width="1" height="1" fill="#97abb1"/>
<rect x="13" y="16" width="1" height="1" fill="#98adb3"/>
<rect x="14" y="16" width="1" height="1" fill="#9cafb5"/>
<rect x="15" y="16" width="1" height="1" fill="#a0b3b9"/>
<rect x="16" y="16" width="1" height="1" fill="#a1b3b8"/>
<rect x="17" y="16" width="1" height="1" fill="#a3b4b9"/>
<rect x="27" y="16" width="1" height="1" fill="#99aeb4"/>
<rect x="28" y="16" width="1" height="1" fill="#98adb3"/>
<rect x="29" y="16" width="1" height="1" fill="#9cb1b7"/>
<rect x="2" y="17" width="2" height="1" fill="#40636f"/>
<rect x="4" y="17" width="1" height="1" fill="#4e6c77"/>
<rect x="5" y="17" width="1" height="1" fill="#84989f"/>
<rect x="6" y="17" width="1" height="1" fill="#859aa2"/>
<rect x="7" y="17" width="1" height="1" fill="#889ca3"/>
<rect x="8" y="17" width="1" height="1" fill="#8b9ea5"/>
<rect x="9" y="17" width="1" height="1" fill="#8ea4ab"/>
<rect x="10" y="17" width="1" height="1" fill="#8fa5ac"/>
<rect x="11" y="17" width="1" height="1" fill="#91a7ae"/>
<rect x="12" y="17" width="1" height="1" fill="#96a9af"/>
<rect x="13" y="17" width="1" height="1" fill="#97abb1"/>
<rect x="14" y="17" width="1" height="1" fill="#98adb3"/>
<rect x="15" y="17" width="1" height="1" fill="#9cafb5"/>
<rect x="16" y="17" width="1" height="1" fill="#a0b3b9"/>
<rect x="17" y="17" width="1" height="1" fill="#a1b3b8"/>
<rect x="18" y="17" width="1" height="1" fill="#a3b4b9"/>
<rect x="27" y="17" width="1" height="1" fill="#98adb3"/>
<rect x="28" y="17" width="1" height="1" fill="#96a9b0"/>
<rect x="29" y="17" width="1" height="1" fill="#98adb3"/>
<rect x="2" y="18" width="2" height="1" fill="#40636f"/>
<rect x="4" y="18" width="1" height="1" fill="#4c6c78"/>
<rect x="5" y="18" width="1" height="1" fill="#7f969e"/>
<rect x="6" y="18" width="1" height="1" fill="#84989f"/>
<rect x="7" y="18" width="1" height="1" fill="#859aa2"/>
<rect x="8" y="18" width="1" height="1" fill="#889ca3"/>
<rect x="9" y="18" width="1" height="1" fill="#8b9ea5"/>
<rect x="10" y="18" width="1" height="1" fill="#8ea4ab"/>
<rect x="11" y="18" width="1" height="1" fill="#8fa5ac"/>
<rect x="12" y="18" width="1" height="1" fill="#91a7ae"/>
<rect x="13" y="18" width="1" height="1" fill="#96a9af"/>
<rect x="14" y="18" width="1" height="1" fill="#97abb1"/>
<rect x="15" y="18" width="1" height="1" fill="#98adb3"/>
<rect x="16" y="18" width="1" height="1" fill="#9cafb5"/>
<rect x="17" y="18" width="1" height="1" fill="#a0b3b9"/>
<rect x="18" y="18" width="1" height="1" fill="#a1b3b8"/>
<rect x="19" y="18" width="1" height="1" fill="#a3b4b9"/>
<rect x="27" y="18" width="2" height="1" fill="#95a8af"/>
<rect x="29" y="18" width="1" height="1" fill="#96a9b0"/>
<rect x="2" y="19" width="2" height="1" fill="#40636f"/>
<rect x="4" y="19" width="1" height="1" fill="#4c6c78"/>
<rect x="5" y="19" width="1" height="1" fill="#7f959d"/>
<rect x="6" y="19" width="1" height="1" fill="#7f969e"/>
<rect x="7" y="19" width="1" height="1" fill="#84989f"/>
<rect x="8" y="19" width="1" height="1" fill="#859aa2"/>
<rect x="9" y="19" width="1" height="1" fill="#889ca3"/>
<rect x="10" y="19" width="1" height="1" fill="#8b9ea5"/>
<rect x="11" y="19" width="1" height="1" fill="#8ea4ab"/>
<rect x="12" y="19" width="1" height="1" fill="#8fa5ac"/>
<rect x="13" y="19" width="1" height="1" fill="#91a7ae"/>
<rect x="14" y="19" width="1" height="1" fill="#96a9af"/>
<rect x="15" y="19" width="1" height="1" fill="#97abb1"/>
<rect x="16" y="19" width="1" height="1" fill="#98adb3"/>
<rect x="17" y="19" width="1" height="1" fill="#9cafb5"/>
<rect x="18" y="19" width="1" height="1" fill="#a0b3b9"/>
<rect x="19" y="19" width="1" height="1" fill="#a1b3b8"/>
<rect x="20" y="19" width="1" height="1" fill="#a3b4b9"/>
<rect x="27" y="19" width="2" height="1" fill="#8fa6ad"/>
<rect x="29" y="19" width="1" height="1" fill="#95a8af"/>
<rect x="2" y="20" width="2" height="1" fill="#40636f"/>
<rect x="4" y="20" width="1" height="1" fill="#4b6b77"/>
<rect x="5" y="20" width="2" height="1" fill="#788f98"/>
<rect x="7" y="20" width="1" height="1" fill="#7a9098"/>
<rect x="8" y="20" width="1" height="1" fill="#7c939b"/>
<rect x="9" y="20" width="1" height="1" fill="#7e949c"/>
<rect x="10" y="20" width="1" height="1" fill="#82969d"/>
<rect x="11" y="20" width="1" height="1" fill="#849aa2"/>
<rect x="12" y="20" width="2" height="1" fill="#899da4"/>
<rect x="14" y="20" width="1" height="1" fill="#89a2aa"/>
<rect x="15" y="20" width="1" height="1" fill="#8fa5ac"/>
<rect x="16" y="20" width="1" height="1" fill="#90a7ae"/>
<rect x="17" y="20" width="1" height="1" fill="#93a7ad"/>
<rect x="18" y="20" width="1" height="1" fill="#97aab1"/>
<rect x="19" y="20" width="1" height="1" fill="#9aaeb4"/>
<rect x="20" y="20" width="1" height="1" fill="#9aafb5"/>
<rect x="21" y="20" width="1" height="1" fill="#9db1b7"/>
<rect x="22" y="20" width="1" height="1" fill="#a2b3b8"/>
<rect x="23" y="20" width="1" height="1" fill="#a3b4b9"/>
<rect x="27" y="20" width="2" height="1" fill="#8ba1a8"/>
<rect x="29" y="20" width="1" height="1" fill="#8fa6ad"/>
<rect x="2" y="21" width="7" height="1" fill="#40636f"/>
<rect x="9" y="21" width="1" height="1" fill="#446773"/>
<rect x="10" y="21" width="1" height="1" fill="#456874"/>
<rect x="11" y="21" width="1" height="1" fill="#4a6a76"/>
<rect x="12" y="21" width="1" height="1" fill="#4e6f7a"/>
<rect x="13" y="21" width="1" height="1" fill="#547580"/>
<rect x="14" y="21" width="1" height="1" fill="#557681"/>
<rect x="15" y="21" width="1" height="1" fill="#587984"/>
<rect x="16" y="21" width="1" height="1" fill="#5f7d87"/>
<rect x="17" y="21" width="1" height="1" fill="#607e88"/>
<rect x="18" y="21" width="1" height="1" fill="#63828c"/>
<rect x="19" y="21" width="1" height="1" fill="#688690"/>
<rect x="20" y="21" width="1" height="1" fill="#6e8a93"/>
<rect x="21" y="21" width="1" height="1" fill="#6f8b94"/>
<rect x="22" y="21" width="1" height="1" fill="#718f99"/>
<rect x="23" y="21" width="1" height="1" fill="#79919a"/>
<rect x="24" y="21" width="1" height="1" fill="#7a929b"/>
<rect x="25" y="21" width="1" height="1" fill="#7e949c"/>
<rect x="26" y="21" width="1" height="1" fill="#84989f"/>
<rect x="27" y="21" width="1" height="1" fill="#889ca3"/>
<rect x="28" y="21" width="1" height="1" fill="#889da5"/>
<rect x="29" y="21" width="1" height="1" fill="#8ba1a8"/>
<rect x="2" y="22" width="8" height="1" fill="#40636f"/>
<rect x="10" y="22" width="1" height="1" fill="#446773"/>
<rect x="11" y="22" width="1" height="1" fill="#456874"/>
<rect x="12" y="22" width="1" height="1" fill="#4a6a76"/>
<rect x="13" y="22" width="1" height="1" fill="#4e6f7a"/>
<rect x="14" y="22" width="1" height="1" fill="#547580"/>
<rect x="15" y="22" width="1" height="1" fill="#557681"/>
<rect x="16" y="22" width="1" height="1" fill="#587984"/>
<rect x="17" y="22" width="1" height="1" fill="#5f7d87"/>
<rect x="18" y="22" width="1" height="1" fill="#607e88"/>
<rect x="19" y="22" width="1" height="1" fill="#63828c"/>
<rect x="20" y="22" width="1" height="1" fill="#688690"/>
<rect x="21" y="22" width="1" height="1" fill="#6e8a93"/>
<rect x="22" y="22" width="1" height="1" fill="#6f8b94"/>
<rect x="23" y="22" width="1" height="1" fill="#718f99"/>
<rect x="24" y="22" width="1" height="1" fill="#79919a"/>
<rect x="25" y="22" width="1" height="1" fill="#7a929b"/>
<rect x="26" y="22" width="1" height="1" fill="#7e949c"/>
<rect x="27" y="22" width="1" height="1" fill="#84989f"/>
<rect x="28" y="22" width="1" height="1" fill="#889ca3"/>
<rect x="29" y="22" width="1" height="1" fill="#889da5"/>
<rect x="2" y="23" width="9" height="1" fill="#40636f"/>
<rect x="11" y="23" width="1" height="1" fill="#446773"/>
<rect x="12" y="23" width="1" height="1" fill="#456874"/>
<rect x="13" y="23" width="1" height="1" fill="#4a6a76"/>
<rect x="14" y="23" width="1" height="1" fill="#4e6f7a"/>
<rect x="15" y="23" width="1" height="1" fill="#547580"/>
<rect x="16" y="23" width="1" height="1" fill="#557681"/>
<rect x="17" y="23" width="1" height="1" fill="#587984"/>
<rect x="18" y="23" width="1" height="1" fill="#5f7d87"/>
<rect x="19" y="23" width="1" height="1" fill="#607e88"/>
<rect x="20" y="23" width="1" height="1" fill="#63828c"/>
<rect x="21" y="23" width="1" height="1" fill="#688690"/>
<rect x="22" y="23" width="1" height="1" fill="#6e8a93"/>
<rect x="23" y="23" width="1" height="1" fill="#6f8b94"/>
<rect x="24" y="23" width="1" height="1" fill="#718f99"/>
<rect x="25" y="23" width="1" height="1" fill="#79919a"/>
<rect x="26" y="23" width="1" height="1" fill="#7a929b"/>
<rect x="27" y="23" width="1" height="1" fill="#7e949c"/>
<rect x="28" y="23" width="1" height="1" fill="#84989f"/>
<rect x="29" y="23" width="1" height="1" fill="#889ca3"/>
<rect x="2" y="24" width="10" height="1" fill="#9da7ab"/>
<rect x="12" y="24" width="2" height="1" fill="#9ea9ac"/>
<rect x="14" y="24" width="1" height="1" fill="#9ea8ac"/>
<rect x="15" y="24" width="1" height="1" fill="#6e8993"/>
<rect x="16" y="24" width="1" height="1" fill="#587b87"/>
<rect x="17" y="24" width="1" height="1" fill="#a4aeb2"/>
<rect x="18" y="24" width="1" height="1" fill="#a4b0b3"/>
<rect x="15" y="25" width="1" height="1" fill="#839ca5"/>
<rect x="16" y="25" width="1" height="1" fill="#57818f"/>
<rect x="15" y="26" width="1" height="1" fill="#839ca5"/>
<rect x="16" y="26" width="1" height="1" fill="#57818f"/>
<rect x="15" y="27" width="1" height="1" fill="#839ca5"/>
<rect x="16" y="27" width="1" height="1" fill="#57818f"/>
<rect x="5" y="28" width="1" height="1" fill="#e0dede"/>
<rect x="6" y="28" width="6" height="1" fill="#eceaea"/>
<rect x="13" y="28" width="1" height="1" fill="#94a7ad"/>
<rect x="14" y="28" width="1" height="1" fill="#95a6ab"/>
<rect x="15" y="28" width="1" height="1" fill="#879aa1"/>
<rect x="16" y="28" width="1" height="1" fill="#82969d"/>
<rect x="17" y="28" width="2" height="1" fill="#94a7ad"/>
<rect x="19" y="28" width="1" height="1" fill="#d3d5d6"/>
<rect x="20" y="28" width="6" height="1" fill="#eceaea"/>
<rect x="26" y="28" width="1" height="1" fill="#dddbdb"/>
<rect x="5" y="29" width="1" height="1" fill="#93a1a5"/>
<rect x="6" y="29" width="20" height="1" fill="#40636f"/>
<rect x="26" y="29" width="1" height="1" fill="#9fa9ad"/>
<rect x="6" y="30" width="6" height="1" fill="#86979c"/>
<rect x="12" y="30" width="1" height="1" fill="#768c93"/>
<rect x="13" y="30" width="6" height="1" fill="#5e7a83"/>
<rect x="19" y="30" width="1" height="1" fill="#788f96"/>
<rect x="20" y="30" width="6" height="1" fill="#86979c"/>
</svg>