<svg xmlns="http://www.w3.org/2000/svg" width="32" height="32" viewBox="0 0 32 32" shape-rendering="crispEdges">
<rect x="12" y="0" width="1" height="1" fill="#f7fafc"/>
<rect x="13" y="0" width="1" height="1" fill="#4a95bf"/>
<rect x="14" y="0" width="1" height="1" fill="#5299c2"/>
<rect x="11" y="1" width="1" height="1" fill="#d6e8f2"/>
<rect x="12" y="1" width="1" height="1" fill="#2984b3"/>
<rect x="13" y="1" width="1" height="1" fill="#476a77"/>
<rect x="14" y="1" width="1" height="1" fill="#4290bc"/>
<rect x="10" y="2" width="1" height="1" fill="#b5d5e7"/>
<rect x="11" y="2" width="3" height="1" fill="#476a77"/>
<rect x="14" y="2" width="1" height="1" fill="#4293c2"/>
<rect x="9" y="3" width="1" height="1" fill="#8cbdd6"/>
<rect x="10" y="3" width="5" height="1" fill="#476a77"/>
<rect x="15" y="3" width="1" height="1" fill="#3189bd"/>
<rect x="16" y="3" width="1" height="1" fill="#4293c2"/>
<rect x="17" y="3" width="1" height="1" fill="#63a6cd"/>
<rect x="18" y="3" width="1" height="1" fill="#94c2dd"/>
<rect x="19" y="3" width="1" height="1" fill="#d6e8f2"/>
<rect x="7" y="4" width="1" height="1" fill="#f7fafc"/>
<rect x="8" y="4" width="1" height="1" fill="#5aa1c5"/>
<rect x="9" y="4" width="11" height="1" fill="#476a77"/>
<rect x="20" y="4" width="1" height="1" fill="#2180b1"/>
<rect x="21" y="4" width="1" height="1" fill="#8cbdda"/>
<rect x="22" y="4" width="1" height="1" fill="#f7fafc"/>
<rect x="6" y="5" width="1" height="1" fill="#e7f1f7"/>
<rect x="7" y="5" width="1" height="1" fill="#3189b6"/>
<rect x="8" y="5" width="14" height="1" fill="#476a77"/>
<rect x="22" y="5" width="1" height="1" fill="#1076b2"/>
<rect x="23" y="5" width="1" height="1" fill="#a5cbe2"/>
<rect x="5" y="6" width="1" height="1" fill="#cee3ee"/>
<rect x="6" y="6" width="1" height="1" fill="#1076ab"/>
<rect x="7" y="6" width="17" height="1" fill="#476a77"/>
<rect x="24" y="6" width="1" height="1" fill="#5aa1c5"/>
<rect x="4" y="7" width="1" height="1" fill="#adcfe2"/>
<rect x="5" y="7" width="20" height="1" fill="#476a77"/>
<rect x="25" y="7" width="1" height="1" fill="#4293bc"/>
<rect x="4" y="8" width="1" height="1" fill="#84b7d4"/>
<rect x="5" y="8" width="21" height="1" fill="#476a77"/>
<rect x="26" y="8" width="1" height="1" fill="#5aa1c5"/>
<rect x="5" y="9" width="1" height="1" fill="#8cbbd6"/>
<rect x="6" y="9" width="21" height="1" fill="#476a77"/>
<rect x="27" y="9" width="1" height="1" fill="#9cc6dc"/>
<rect x="6" y="10" width="1" height="1" fill="#b5d5e5"/>
<rect x="7" y="10" width="21" height="1" fill="#476a77"/>
<rect x="28" y="10" width="1" height="1" fill="#eff6f9"/>
<rect x="7" y="11" width="1" height="1" fill="#d6e8f2"/>
<rect x="8" y="11" width="1" height="1" fill="#2180b8"/>
<rect x="9" y="11" width="19" height="1" fill="#476a77"/>
<rect x="28" y="11" width="1" height="1" fill="#73adce"/>
<rect x="8" y="12" width="1" height="1" fill="#f7fafc"/>
<rect x="9" y="12" width="1" height="1" fill="#4293bc"/>
<rect x="10" y="12" width="5" height="1" fill="#476a77"/>
<rect x="15" y="12" width="1" height="1" fill="#a5cbe2"/>
<rect x="16" y="12" width="1" height="1" fill="#c6deed"/>
<rect x="17" y="12" width="1" height="1" fill="#e7f1f7"/>
<rect x="18" y="12" width="2" height="1" fill="#f7fafc"/>
<rect x="20" y="12" width="1" height="1" fill="#eff6fa"/>
<rect x="21" y="12" width="1" height="1" fill="#cee3ef"/>
<rect x="22" y="12" width="1" height="1" fill="#b5d5e5"/>
<rect x="23" y="12" width="1" height="1" fill="#84b9d4"/>
<rect x="24" y="12" width="5" height="1" fill="#476a77"/>
<rect x="29" y="12" width="1" height="1" fill="#f7fafc"/>
<rect x="10" y="13" width="1" height="1" fill="#73afce"/>
<rect x="11" y="13" width="3" height="1" fill="#476a77"/>
<rect x="14" y="13" width="1" height="1" fill="#4293bc"/>
<rect x="25" y="13" width="1" height="1" fill="#eff6f9"/>
<rect x="26" y="13" width="1" height="1" fill="#84b7d4"/>
<rect x="27" y="13" width="2" height="1" fill="#476a77"/>
<rect x="29" y="13" width="1" height="1" fill="#a5cadf"/>
<rect x="11" y="14" width="1" height="1" fill="#a5cbdf"/>
<rect x="12" y="14" width="2" height="1" fill="#476a77"/>
<rect x="14" y="14" width="1" height="1" fill="#4290bc"/>
<rect x="27" y="14" width="1" height="1" fill="#cee2ee"/>
<rect x="28" y="14" width="1" height="1" fill="#476a77"/>
<rect x="29" y="14" width="1" height="1" fill="#5a9ec5"/>
<rect x="2" y="15" width="1" height="1" fill="#f0f2f2"/>
<rect x="3" y="15" width="1" height="1" fill="#fafafa"/>
<rect x="12" y="15" width="1" height="1" fill="#cee2ee"/>
<rect x="13" y="15" width="1" height="1" fill="#476a77"/>
<rect x="14" y="15" width="1" height="1" fill="#4290bc"/>
<rect x="17" y="15" width="1" height="1" fill="#efeeef"/>
<rect x="18" y="15" width="1" height="1" fill="#f4f3f4"/>
<rect x="28" y="15" width="1" height="1" fill="#7bb1d0"/>
<rect x="29" y="15" width="1" height="1" fill="#4290bc"/>
<rect x="2" y="16" width="1" height="1" fill="#d5d8db"/>
<rect x="3" y="16" width="1" height="1" fill="#d8dcde"/>
<rect x="13" y="16" width="1" height="1" fill="#eff6f9"/>
<rect x="14" y="16" width="1" height="1" fill="#d6e7f1"/>
<rect x="17" y="16" width="1" height="1" fill="#dbd8db"/>
<rect x="18" y="16" width="1" height="1" fill="#cecbce"/>
<rect x="19" y="16" width="1" height="1" fill="#eae9ea"/>
<rect x="29" y="16" width="1" height="1" fill="#e7f1f7"/>
<rect x="2" y="17" width="1" height="1" fill="#dee1e3"/>
<rect x="4" y="17" width="1" height="1" fill="#eae9ea"/>
<rect x="17" y="17" width="1" height="1" fill="#dbd8db"/>
<rect x="18" y="17" width="2" height="1" fill="#cecfd6"/>
<rect x="20" y="17" width="1" height="1" fill="#e1e2e1"/>
<rect x="2" y="18" width="1" height="1" fill="#f2f2f2"/>
<rect x="5" y="18" width="1" height="1" fill="#dbd8db"/>
<rect x="6" y="18" width="1" height="1" fill="#f1f0f1"/>
<rect x="17" y="18" width="1" height="1" fill="#dbdbdb"/>
<rect x="18" y="18" width="2" height="1" fill="#d6d7d6"/>
<rect x="20" y="18" width="1" height="1" fill="#d6d3d6"/>
<rect x="21" y="18" width="1" height="1" fill="#d7d8d7"/>
<rect x="22" y="18" width="1" height="1" fill="#fcfcfc"/>
<rect x="8" y="19" width="1" height="1" fill="#dbdbdb"/>
<rect x="9" y="19" width="1" height="1" fill="#e4e5e4"/>
<rect x="10" y="19" width="1" height="1" fill="#edebed"/>
<rect x="11" y="19" width="1" height="1" fill="#f2f1f2"/>
<rect x="12" y="19" width="1" height="1" fill="#f1f1f3"/>
<rect x="13" y="19" width="1" height="1" fill="#f3f2f3"/>
<rect x="14" y="19" width="1" height="1" fill="#f1eff1"/>
<rect x="15" y="19" width="1" height="1" fill="#ebeaeb"/>
<rect x="16" y="19" width="1" height="1" fill="#e6e4e6"/>
<rect x="17" y="19" width="1" height="1" fill="#d9dad9"/>
<rect x="18" y="19" width="1" height="1" fill="#dedfde"/>
<rect x="19" y="19" width="1" height="1" fill="#e7e3e7"/>
<rect x="20" y="19" width="1" height="1" fill="#dedfde"/>
<rect x="21" y="19" width="1" height="1" fill="#d6d7de"/>
<rect x="22" y="19" width="1" height="1" fill="#d3d4d3"/>
<rect x="23" y="19" width="1" height="1" fill="#f7f7f7"/>
<rect x="3" y="20" width="1" height="1" fill="#eae9ea"/>
<rect x="5" y="20" width="1" height="1" fill="#d6d3d6"/>
<rect x="6" y="20" width="3" height="1" fill="#d6d7d6"/>
<rect x="9" y="20" width="5" height="1" fill="#d6d7de"/>
<rect x="14" y="20" width="2" height="1" fill="#dedbde"/>
<rect x="16" y="20" width="1" height="1" fill="#dedfde"/>
<rect x="17" y="20" width="1" height="1" fill="#e7e3e7"/>
<rect x="18" y="20" width="2" height="1" fill="#efebef"/>
<rect x="20" y="20" width="1" height="1" fill="#e7e7ef"/>
<rect x="21" y="20" width="1" height="1" fill="#e7e3e7"/>
<rect x="22" y="20" width="1" height="1" fill="#dedbde"/>
<rect x="23" y="20" width="1" height="1" fill="#d7d4d7"/>
<rect x="24" y="20" width="1" height="1" fill="#eeeef1"/>
<rect x="4" y="21" width="2" height="1" fill="#d6d3d6"/>
<rect x="6" y="21" width="1" height="1" fill="#d6d7de"/>
<rect x="7" y="21" width="1" height="1" fill="#dedbde"/>
<rect x="8" y="21" width="1" height="1" fill="#dedfde"/>
<rect x="9" y="21" width="2" height="1" fill="#e7e3e7"/>
<rect x="11" y="21" width="4" height="1" fill="#e7e7e7"/>
<rect x="15" y="21" width="2" height="1" fill="#efebef"/>
<rect x="17" y="21" width="1" height="1" fill="#efefef"/>
<rect x="18" y="21" width="1" height="1" fill="#efeff7"/>
<rect x="19" y="21" width="1" height="1" fill="#f7f3f7"/>
<rect x="20" y="21" width="1" height="1" fill="#efefef"/>
<rect x="21" y="21" width="1" height="1" fill="#efebef"/>
<rect x="22" y="21" width="1" height="1" fill="#e7e3e7"/>
<rect x="23" y="21" width="1" height="1" fill="#dedbde"/>
<rect x="24" y="21" width="1" height="1" fill="#d6d3d6"/>
<rect x="25" y="21" width="1" height="1" fill="#e4e5e4"/>
<rect x="4" y="22" width="1" height="1" fill="#f4f3f4"/>
<rect x="5" y="22" width="1" height="1" fill="#cecfce"/>
<rect x="6" y="22" width="1" height="1" fill="#d6d7d6"/>
<rect x="7" y="22" width="1" height="1" fill="#dedfde"/>
<rect x="8" y="22" width="1" height="1" fill="#e7e3e7"/>
<rect x="9" y="22" width="1" height="1" fill="#e7e7e7"/>
<rect x="10" y="22" width="1" height="1" fill="#efebef"/>
<rect x="11" y="22" width="2" height="1" fill="#efefef"/>
<rect x="13" y="22" width="1" height="1" fill="#efeff7"/>
<rect x="14" y="22" width="7" height="1" fill="#f7f3f7"/>
<rect x="21" y="22" width="1" height="1" fill="#efeff7"/>
<rect x="22" y="22" width="1" height="1" fill="#efebef"/>
<rect x="23" y="22" width="1" height="1" fill="#e7e3e7"/>
<rect x="24" y="22" width="1" height="1" fill="#dedbde"/>
<rect x="25" y="22" width="1" height="1" fill="#d6d3d6"/>
<rect x="26" y="22" width="1" height="1" fill="#dcdadc"/>
<rect x="27" y="22" width="1" height="1" fill="#fdfdfd"/>
<rect x="5" y="23" width="1" height="1" fill="#eaebea"/>
<rect x="6" y="23" width="1" height="1" fill="#d6d3d6"/>
<rect x="7" y="23" width="1" height="1" fill="#dedbde"/>
<rect x="8" y="23" width="1" height="1" fill="#dedfe7"/>
<rect x="9" y="23" width="1" height="1" fill="#e7e7e7"/>
<rect x="10" y="23" width="1" height="1" fill="#efebef"/>
<rect x="11" y="23" width="1" height="1" fill="#efeff7"/>
<rect x="12" y="23" width="10" height="1" fill="#f7f3f7"/>
<rect x="22" y="23" width="1" height="1" fill="#efefef"/>
<rect x="23" y="23" width="1" height="1" fill="#e7e7e7"/>
<rect x="24" y="23" width="1" height="1" fill="#dedfde"/>
<rect x="25" y="23" width="1" height="1" fill="#d6d7d6"/>
<rect x="26" y="23" width="1" height="1" fill="#cecfce"/>
<rect x="27" y="23" width="1" height="1" fill="#e3e1e3"/>
<rect x="6" y="24" width="1" height="1" fill="#e6e6e6"/>
<rect x="7" y="24" width="1" height="1" fill="#d6d3d6"/>
<rect x="8" y="24" width="1" height="1" fill="#dedbde"/>
<rect x="9" y="24" width="1" height="1" fill="#e7e3e7"/>
<rect x="10" y="24" width="1" height="1" fill="#e7e7ef"/>
<rect x="11" y="24" width="1" height="1" fill="#efefef"/>
<rect x="12" y="24" width="1" height="1" fill="#efeff7"/>
<rect x="13" y="24" width="9" height="1" fill="#f7f3f7"/>
<rect x="22" y="24" width="1" height="1" fill="#efebef"/>
<rect x="23" y="24" width="1" height="1" fill="#e7e3e7"/>
<rect x="24" y="24" width="1" height="1" fill="#dedbde"/>
<rect x="25" y="24" width="1" height="1" fill="#d6d3d6"/>
<rect x="26" y="24" width="1" height="1" fill="#d4d2d4"/>
<rect x="27" y="24" width="1" height="1" fill="#f7f7f7"/>
<rect x="7" y="25" width="1" height="1" fill="#ececec"/>
<rect x="8" y="25" width="1" height="1" fill="#d0d1d7"/>
<rect x="9" y="25" width="1" height="1" fill="#d6d7d6"/>
<rect x="10" y="25" width="1" height="1" fill="#dedfde"/>
<rect x="11" y="25" width="1" height="1" fill="#e7e3e7"/>
<rect x="12" y="25" width="1" height="1" fill="#efebef"/>
<rect x="13" y="25" width="2" height="1" fill="#efefef"/>
<rect x="15" y="25" width="5" height="1" fill="#f7f3f7"/>
<rect x="20" y="25" width="1" height="1" fill="#efeff7"/>
<rect x="21" y="25" width="1" height="1" fill="#efebef"/>
<rect x="22" y="25" width="1" height="1" fill="#e7e7e7"/>
<rect x="23" y="25" width="1" height="1" fill="#dedfde"/>
<rect x="24" y="25" width="1" height="1" fill="#d6d3d6"/>
<rect x="25" y="25" width="1" height="1" fill="#dbdbdb"/>
<rect x="26" y="25" width="1" height="1" fill="#fcfcfc"/>
<rect x="8" y="26" width="1" height="1" fill="#f9f9fa"/>
<rect x="9" y="26" width="1" height="1" fill="#dcdddc"/>
<rect x="10" y="26" width="1" height="1" fill="#d6d3d6"/>
<rect x="11" y="26" width="1" height="1" fill="#d6dbde"/>
<rect x="12" y="26" width="1" height="1" fill="#dedfde"/>
<rect x="13" y="26" width="1" height="1" fill="#e7e3e7"/>
<rect x="14" y="26" width="1" height="1" fill="#e7e7e7"/>
<rect x="15" y="26" width="1" height="1" fill="#e7e7ef"/>
<rect x="16" y="26" width="1" height="1" fill="#efebef"/>
<rect x="17" y="26" width="3" height="1" fill="#efefef"/>
<rect x="20" y="26" width="1" height="1" fill="#efebef"/>
<rect x="21" y="26" width="1" height="1" fill="#e7e3e7"/>
<rect x="22" y="26" width="1" height="1" fill="#dedbde"/>
<rect x="23" y="26" width="1" height="1" fill="#d6d3d6"/>
<rect x="24" y="26" width="1" height="1" fill="#e3e3e3"/>
<rect x="10" y="27" width="1" height="1" fill="#f6f6f7"/>
<rect x="11" y="27" width="1" height="1" fill="#e1e2e1"/>
<rect x="13" y="27" width="1" height="1" fill="#d6d3d6"/>
<rect x="14" y="27" width="1" height="1" fill="#d6d7de"/>
<rect x="15" y="27" width="1" height="1" fill="#dedbde"/>
<rect x="16" y="27" width="1" height="1" fill="#dedfde"/>
<rect x="17" y="27" width="1" height="1" fill="#e7e3e7"/>
<rect x="18" y="27" width="2" height="1" fill="#e7e7e7"/>
<rect x="20" y="27" width="1" height="1" fill="#e7e3e7"/>
<rect x="21" y="27" width="1" height="1" fill="#dedbde"/>
<rect x="22" y="27" width="1" height="1" fill="#d6d3d6"/>
<rect x="23" y="27" width="1" height="1" fill="#ececec"/>
<rect x="13" y="28" width="1" height="1" fill="#f7f7f8"/>
<rect x="14" y="28" width="1" height="1" fill="#eeeeee"/>
<rect x="15" y="28" width="1" height="1" fill="#e7eaeb"/>
<rect x="16" y="28" width="1" height="1" fill="#e4e5e4"/>
<rect x="17" y="28" width="1" height="1" fill="#dad7da"/>
<rect x="18" y="28" width="2" height="1" fill="#dedbde"/>
<rect x="20" y="28" width="1" height="1" fill="#d6d7d6"/>
<rect x="21" y="28" width="1" height="1" fill="#d1d2d1"/>
<rect x="22" y="28" width="1" height="1" fill="#f4f4f4"/>
<rect x="17" y="29" width="1" height="1" fill="#dbdbdb"/>
<rect x="18" y="29" width="2" height="1" fill="#d6d3d6"/>
<rect x="20" y="29" width="1" height="1" fill="#d7d8d7"/>
<rect x="21" y="29" width="1" height="1" fill="#fafafa"/>
<rect x="17" y="30" width="1" height="1" fill="#dbd8db"/>
<rect x="18" y="30" width="1" height="1" fill="#cecbce"/>
<rect x="19" y="30" width="1" height="1" fill="#dfdddf"/>
<rect x="20" y="30" width="1" height="1" fill="#fdfdfd"/>
<rect x="17" y="31" width="1" height="1" fill="#e7e6e7"/>
<rect x="18" y="31" width="1" height="1" fill="#e9e8e9"/>
</svg>